<svg id="Layer_1" data-name="Layer 1" xmlns="http://www.w3.org/2000/svg" viewBox="0 0 595.28 677.89"><defs><style>.cls-1{fill:#d8758d;}.cls-2{fill:#ce5f7f;}.cls-3{fill:#dd213d;}.cls-4{fill:#bc1e3c;}.cls-5{fill:#a31d44;}.cls-6{fill:#772831;}.cls-7{fill:#872c34;}.cls-8{fill:#682330;}.cls-9{fill:#752633;}.cls-10{fill:#5b1f2f;}.cls-11{fill:#882b38;}.cls-12{fill:#eebe04;}.cls-13{fill:#edc23a;}.cls-14{fill:#eca600;}.cls-15{fill:#e08f00;}.cls-16{fill:#9b3243;}.cls-17{fill:#fa0;}.cls-18{fill:#020000;}.cls-19{fill:#a05a71;}.cls-20{fill:#d4ecf8;}.cls-21{fill:#2d091e;}.cls-22{fill:#fff;}.cls-23{fill:#070504;}.cls-24{fill:#c32a3c;}.cls-25{fill:#f47942;}.cls-26{fill:#ef967b;}.cls-27{fill:#772936;}.cls-28{fill:#ccc;}.cls-29{fill:none;}.cls-30{fill:#d18b00;}.cls-31{fill:#f4ba51;}.cls-32{fill:#c46c86;}.cls-33{fill:#5b5b5b;}.cls-34{fill:#db3353;}.cls-35{fill:#913440;}.cls-36{fill:#a03d4e;}.cls-37{fill:#484848;}.cls-38{fill:#3a3a3a;}.cls-39{fill:#932132;}.cls-39,.cls-40,.cls-41,.cls-42,.cls-43,.cls-44{fill-rule:evenodd;}.cls-40{fill:#3d0310;}.cls-41{fill:#bd0129;}.cls-42{fill:#63011d;}.cls-43{fill:#930325;}.cls-44{fill:#940225;}.cls-45{fill:#b7162e;}.cls-46{fill:#d12f46;}.cls-47{fill:#727178;}</style></defs><title>wippo</title><path class="cls-1" d="M427.76,580.7s13.08,39.23,11.12,71.27c0,0,35.31-28.12,37.92,25.5H411.06l-21.23-88.92Z"/><path class="cls-1" d="M441.49,649.35s-8.5,5.89-8.17,13.08"/><path class="cls-1" d="M469,676.16s3.92-3.92,0-11.77"/><path class="cls-2" d="M404.68,608.69s4.75,47.2,15.24,53.74c0,0,13.81,17,56.28,7.85l.6,7.19H411.06l-16-70.3,9.61,1.52"/><path class="cls-1" d="M252.12,581.35S239,620.58,241,652.62c0,0-35.31-28.12-37.92,25.5h65.74L290,589.2Z"/><path class="cls-1" d="M238.39,650s8.5,5.89,8.17,13.08"/><path class="cls-1" d="M210.93,676.82s-3.92-3.92,0-11.77"/><path class="cls-2" d="M275.2,609.35s-4.75,47.2-15.24,53.74c0,0-13.81,17-56.28,7.85l-.6,7.19h65.74l16-70.3-9.61,1.52"/><path class="cls-3" d="M351.91,570.23c1.31,13.73,43.16,36.94,43.16,36.94,114.42,21.58,48.39-105.52,48.39-105.52L331,514.65l-94.81-10.72s-66,127.1,48.39,105.52c0,0,66-25.5,67.35-39.23"/><path class="cls-4" d="M230.95,513.34S173,645.49,296.48,604.6h0l10.2-75.27s-64-8.15-75.73-16"/><path class="cls-5" d="M293.92,591.64s-96.3,30.9-70.14-57c0,0-24.58,67.82,20.73,76.74,0,0,26,4.65,44.16-3.51h0l5.25-16.18"/><path class="cls-2" d="M283.62,505.68s-13.89,34.82-29.84,60.09c-2.39,3.79,28.5,3.86,52.91,7.26,18.6,2.59,34.47,4.64,34.47,4.64s77.44-8.12,86.75-9.56c11.4-1.76-27.29-62.43-27.29-62.43h-117Z"/><path class="cls-1" d="M289.76,513.78s-13.35,33.06-22.62,47.5c-2,3.1,35,1.69,55.07,4.49,15.29,2.13,18.72,7.22,18.72,7.22s46.23-14.32,73.27-11.71c13.18,1.27-20.52-47.5-20.52-47.5H289.76Z"/><path class="cls-6" d="M306.2,494.35c15.31,28.61-8,85.33-19.25,116.23-4.59,12.61,83.69,7.2,96.71,4.68s-.43-107.46-9.89-120.91S287.82,460,306.2,494.35Z"/><path class="cls-7" d="M313.9,512.91c12.16,22.72-6.35,67.76-15.28,92.29-3.65,10,66.46,5.73,76.8,3.72s-.34-85.33-7.85-96S299.31,485.63,313.9,512.91Z"/><path class="cls-8" d="M530.38,478v99.7l-23.81-21.07a28.25,28.25,0,0,0-11.28-8.43,28.64,28.64,0,0,0-17.85-1.12S434.61,516.61,453.57,461Z"/><path class="cls-9" d="M476.85,490.47s-4.61,27.92,5.86,48.62c0,0,1.05,3.5,8.56,7.68,0,0-4.55-2.34-13.83.35,0,0-28.65-19.45-28.69-60h0l10.14-1.62Z"/><path class="cls-10" d="M506.57,556.67s-11.5-25.21-8.2-39.17h0l25.84,19.92s-1.48,9.56,7.2,34.19h0l-3.24,3.53Z"/><path class="cls-11" d="M424.51,371.47a202.08,202.08,0,0,0,35.27-5.37q4.28-1,8.78-2.35A149,149,0,0,0,494,354.3a130.51,130.51,0,0,0,40.37-31.22s15.87,32.17-7.76,97.82L535,501.65,430.67,420.9Z"/><path class="cls-9" d="M508.3,426.18s18.8-20.26,29.62-52.36h0s-.12,18.7-11.32,47.08L530.23,461,508.3,426.18"/><path class="cls-1" d="M212.95,411.44s-46.25-15-87.17,19.76c0,0-27.29-22.65-33.77-23.36s6-60-43.12-39.89c0,0-43,26.08,5,68a211.12,211.12,0,0,0,161.53,48Q214.19,447.7,212.95,411.44Z"/><path class="cls-2" d="M209.92,408.89c-6.57-10.38-41.25-3.33-65.73,9.9a114.57,114.57,0,0,0-18.42,12.41l3.45,9.61a159.56,159.56,0,0,1,67.89-.84C212,420.92,212.39,412.79,209.92,408.89Z"/><path class="cls-2" d="M133.59,449.86c-.5.26-3.66-5.44-6.91-9.86-5-6.83-13.94-15.5-30.83-22.17l6.33-4.62q5.3,3.62,10.83,7.78c4.55,3.43,8.8,6.85,12.76,10.2C132.65,445.95,134,449.67,133.59,449.86Z"/><path class="cls-2" d="M86.73,421.83s.9-61.06-37.85-53.88c0,0,46.28-25.79,43.12,39.89Z"/><path class="cls-12" d="M102.18,413.22A48.52,48.52,0,0,0,79,454.1l5.74,3.42c-.78.4-5.58,2.75-9.24.57-3.08-1.83-3.5-5.76-3.9-9.54,0,0-1.23-11.71,7.09-24.22,1.11-1.67,2.37-3.22,2.37-3.22h0A55.32,55.32,0,0,1,90.16,412c3-2.18,5.47-4,9-4a8.1,8.1,0,0,1,5.65,1.72c2.91,2.52,2.5,6.64,2.45,7.11Z"/><path class="cls-1" d="M450.64,473.08s15.61,46,67.95,58.07c0,0-1.85,35.42,1.46,41s-51.67,31-6.2,58.42c0,0,46.58,18.85,51.52-44.68a211.09,211.09,0,0,0-58.07-158.19Z"/><path class="cls-2" d="M450.41,477c-4.39,11.47,22,35.06,47.23,46.78a114.58,114.58,0,0,0,21,7.35l5.65-8.51A159.61,159.61,0,0,1,483,468.72C458.79,468.16,452.06,472.73,450.41,477Z"/><path class="cls-2" d="M528.88,513.73c.51.25-2.18,6.18-3.77,11.44-2.46,8.11-4.1,20.44.66,38l-7.49-2.32c-.17-4.27-.26-8.72-.23-13.33,0-5.7.23-11.15.55-16.33C526.3,516.83,528.51,513.55,528.88,513.73Z"/><path class="cls-2" d="M534.41,568.06s-49.49,35.78-20.57,62.55c0,0-48.34-21.68,6.2-58.42Z"/><path class="cls-13" d="M565.23,582.05a3,3,0,0,0,.92-1.08l-.88-17.57-1-1.16Z"/><path class="cls-12" d="M518.27,560.82A48.51,48.51,0,0,0,564.89,555l-.69-6.65c.79.39,5.54,2.83,6,7.07.37,3.57-2.52,6.24-5.32,8.83,0,0-8.65,8-23.65,8.79-2,.11-4,0-4,0h0a55.46,55.46,0,0,1-12.74-1.82c-3.54-1.1-6.47-2-8.64-4.83a8.11,8.11,0,0,1-2-5.56c.28-3.84,3.82-6,4.24-6.21Q518.17,557.71,518.27,560.82Z"/><path class="cls-14" d="M433.31,405.46s57.13-10.63,78.37,28.21l4.25,6.71s-37.17,62.51-96,43.55Z"/><polyline class="cls-15" points="446.41 425.67 490.2 443.12 490.2 429.44 508.3 442.51 515.93 442.07 515.93 438.88 508.18 423.15 470.61 416.05 446.41 407.41 446.41 425.67"/><path class="cls-11" d="M534.36,323.08a96.62,96.62,0,0,1,4.71,43.85c-4.15,32.63-24.14,53-30.77,59.25a46.63,46.63,0,0,0,0,11l-23-15.36a65.89,65.89,0,0,1,8.21-20.43c7.93-12.85,17.39-17.76,23.78-23.62C525.81,369.92,534.83,354.9,534.36,323.08Z"/><path class="cls-16" d="M497.31,352.15a87.55,87.55,0,0,1-67.56,51.36l57.85,32.7a55.6,55.6,0,0,1-1.71-7.61h0a24.14,24.14,0,0,1,0-6.36c.76-5.1,4.8-14.64,4.8-14.64a97.74,97.74,0,0,1,8.83-16.83h0q3.91-5.27,7.73-11.07a237.23,237.23,0,0,0,27.09-56.6Z"/><path class="cls-17" d="M247.3,370.92s-70-1.31-109.85-48.39a130.86,130.86,0,0,0-5,24.29c-3.52,32.79,10,66.91,10,66.91a153.06,153.06,0,0,0,14.22,27.37l84.45-20.76Z"/><path class="cls-17" d="M238.5,404.91s-57.13-10.63-78.37,28.21l-4.25,6.71s37.17,62.51,96,43.55Z"/><path class="cls-15" d="M166.08,346.81s-15.22,83,67.42,99h0s1.37-66.46-2.38-76.45h0S188,363.86,166.08,346.81Z"/><path class="cls-18" d="M235.53,480.65s-19,18.31-4.58,32.69c0,0,91.54,38.58,214.46,0,0,0,7.84-16.35-6.54-36Z"/><path class="cls-1" d="M206.1,294.3S244,314.57,231,483.92c0,0,107.23,39.88,211.85,0,0,0,5.23-153.64,29.42-202Z"/><path class="cls-19" d="M232.78,386l14.71-.7s13.82,56.11,92.34,4.05c0,0,66,53.75,93.83-4.05l16.35.51,3.56-31.46H230.08Z"/><ellipse class="cls-20" cx="284.03" cy="368.96" rx="28.03" ry="28.08"/><ellipse class="cls-21" cx="286.22" cy="366.09" rx="18.31" ry="18.35"/><ellipse class="cls-22" cx="280.86" cy="364.91" rx="10.52" ry="10.54"/><path class="cls-7" d="M300.11,318.81s39.72,24.85,36.47,58c-.84,1.14-4.3,5.58-10.15,6.4-6.67.93-13.72-3.24-17.08-10.48,0,0-21-49-60.2-8.83,0,0-16.54,7.76-18.43-4.93,0,0-3.77-34.08-18.76-60.88Z"/><path class="cls-7" d="M380.64,314.82C373,320,357.27,332.51,349.16,354.3a79.09,79.09,0,0,0-4.74,21.9,18.44,18.44,0,0,0,8,5.77c9.1,3.27,20.87-1.55,29.41-12.16l43.07-3.92s18.66,8,27.68-4.09c0,0,9.1-52.85,13.22-65.82Z"/><ellipse class="cls-23" cx="401.04" cy="373.49" rx="28.55" ry="25.75"/><path class="cls-23" d="M407.37,368.85c20.6,28.21,34.45,53.15,31,55.71s-23-18.22-43.62-46.43-34.45-53.15-31-55.72S386.79,340.64,407.37,368.85Z"/><path class="cls-24" d="M233.43,415.42s.71,33.16-1.52,52c0,0,66.85,63.74,105.55,0"/><path class="cls-24" d="M233.73,417.38l12.8,15.72,52.88,2.59,65.78-.77,56.25-2.76,25.77-17.81q-2,26.28-3.91,52.56c-75,68.15-105.84.49-105.84.49h0"/><path class="cls-7" d="M326.59,394.82l25.73,3.43s17.54-15.2,28,0l31.31,10.49-13.42,15.73s21.88,10.07,48.22-9.55c0,0-32,36.59-55.54,44.28,0,0-16.89,11.13-21.94-2.11,0,0-12.42-11.86-38.48-9.1C321.76,448.92,305.71,382.56,326.59,394.82Z"/><path class="cls-6" d="M353.55,394.82l-25.73,3.43s-17.54-15.2-28,0l-31.31,10.49L282,424.48s-21.88,10.07-48.22-9.55c0,0,32,36.59,55.54,44.28,0,0,16.89,11.13,21.94-2.11,0,0,12.43-11.86,38.48-9.1C358.38,448.92,374.43,382.56,353.55,394.82Z"/><path class="cls-25" d="M314.2,427.14s-26.59-4.22-24.28,5c0,0,.84,21.65,26.29,0Z"/><path class="cls-25" d="M361.29,425.32c3.88-.12,23.29-.56,24.79,5.4.26,1,.06,2.47-1.62,4.56-1.26,3.4-3.07,4.71-4.08,5.25-5.11,2.75-14.1-.9-21.1-10.19Z"/><path class="cls-26" d="M326.56,431.67c-1.24-1.09-10.32-9.39-9.64-22.27.12-2.27.9-11.49,8.61-18.29,1.45-1.28,7.46-6.59,15.61-6.23,9.33.4,18,8.06,21.34,19.13.37.87,4.66,11.3-1.37,20.25a20.07,20.07,0,0,1-9.59,7.42Z"/><path class="cls-22" d="M310.31,406c-2.35,1.39-6.74,4.33-6.38,7.36.42,3.48,7.2,5.17,14,6.87a84.6,84.6,0,0,0,17.94,2.59c13.53.11,39.23-2.31,40.21-9.76.21-1.56-.59-3.93-5.43-7.3l6.14,1.19c2.67.58,9,2.32,10.29,6.66,2,6.39-8.17,14.16-13.8,17.37-2.11,1.2-6,3.12-14.64,4.7a94.72,94.72,0,0,1-43.89-2.21A51.86,51.86,0,0,1,300.5,427c-2.87-1.89-13.76-9.07-12.5-14.47C289,408.13,298.21,405.28,310.31,406Z"/><path class="cls-27" d="M320.09,382.64S300,287.2,230.73,359c0,0,1.63,13.4,18.43,4.93,0,0,37.31-42.43,62,12C311.19,375.9,316,381.92,320.09,382.64Z"/><path class="cls-27" d="M363.22,382.41s9-23.91,16.51-26c0,0-9.28,10-6.77,21.68C373,378.11,367.31,381.9,363.22,382.41Z"/><path class="cls-16" d="M410,349s25.29-8.92,43,10.52c0,0-3.66,13.59-24.54,6.54,0,0-2.24-11.71-18.43-17.06"/><path class="cls-28" d="M289.77,418a82.38,82.38,0,0,0,96.38,1.25s-7.57,19.61-48.19,18C338,437.18,306.73,438.29,289.77,418Z"/><path class="cls-29" d="M301.43,463.59s-45.56-4.26-22.16,30.47c0,0-24.18-3.47-47.35-26.66"/><path class="cls-30" d="M212,239.36a48.53,48.53,0,0,0-11.61,19.12c-7.15,21.79,2.37,42,3.85,45.07-14.5-8-24-22.91-24.05-38.58a41.26,41.26,0,0,1,4.19-18Z"/><path class="cls-30" d="M465.76,239.58a48.37,48.37,0,0,1,11.9,19.12c7.33,21.79-2.43,42-3.94,45.07,14.86-8,24.6-22.91,24.64-38.58a40.46,40.46,0,0,0-4.29-18Z"/><path class="cls-31" d="M398,326.05c3-4.1,25.75-35.69,16.94-62.37-3.83-11.61-13.32-21.35-14.2-20.61l6.57,16.66h0l-70.23,13.57V329a317.45,317.45,0,0,0,35.67-.27C381.66,328.11,390.1,327.2,398,326.05Z"/><path class="cls-17" d="M396.88,243.27c14.07,18.27,19.26,39.89,16,53.67-.63,2.61-6.47,11.84-14.38,28.24l-.42.87a253.71,253.71,0,0,0,43.27-9.63,263.89,263.89,0,0,0,32.41-12.66,53.24,53.24,0,0,0,6.63-23.61c.58-14.27-3.35-30.56-13.1-36.88-27.4-17.79-1.9-1.85-1.9-1.85Z"/><path class="cls-17" d="M277.75,325s-28.08-28-10.57-65.5,1.87,0,1.87,0l68.55,13.57v55.66q-11.29-.22-23.05-.82C301.85,327.25,289.58,326.26,277.75,325Z"/><path class="cls-14" d="M279.27,243.05c-13.73,18.27-18.8,39.89-15.58,53.67a78,78,0,0,0,14,28.24l0,0a217.57,217.57,0,0,1-41.86-8.79,227.39,227.39,0,0,1-31.64-12.66,54.21,54.21,0,0,1-6.47-23.61c-.56-14.27,3.27-30.56,12.79-36.89,26.74-17.79,1.85-1.85,1.85-1.85Z"/><path class="cls-32" d="M313.72,328.79c8.11,5.05,18.8,25.58,18.8,25.58h16.61c2.6-10.89,15.09-25,15.09-25l-43-1.22C318.7,328.22,316.19,328.44,313.72,328.79Z"/><path class="cls-33" d="M384.45,340.46l24.63-31.55s-22,2.65-34.91,20.06Z"/><path class="cls-30" d="M204.25,303.31a244,244,0,0,0,35.39,14.63c29.49,9.55,52.86,10.87,75.66,12,30.27,1.49,70.28,3.13,118.78-11.26a298.15,298.15,0,0,0,39.64-14.9l3.15-6.76a101.54,101.54,0,0,1-19.1,8.94h0c-.13.06-10.06,4.21-20.39,7.53C413.07,321.33,371,327.09,337.12,326c-16.28-.54-35.13-2.53-35.13-2.53s-6.89-.7-13-1.54a347.21,347.21,0,0,1-87-23.81Z"/><path class="cls-7" d="M487.31,175a139.22,139.22,0,0,1-18.2,68.9c-25.53,45.06-243,43-267.68-4.63A139.12,139.12,0,0,1,185.75,175c0-79.83,67.5-144.55,150.78-144.55S487.31,95.22,487.31,175Z"/><path class="cls-34" d="M487.31,172.64a139.81,139.81,0,0,1-27,82.6C433,292.69,287.06,265.61,284.14,255c-23.44-85-6-227,52.39-227C419.8,28.09,487.31,92.81,487.31,172.64Z"/><path class="cls-24" d="M224.69,78.09s-17.34,67.41-11.52,82.37c0,0,.77-15,7.86-17.45,0,0,16.57-21.6,4.35,6.65,0,0-15.54,64.2,41.78,104.38l35.65,14.47s61.56-36.9,98.1-10.51l56.49-23.72s11-47.24,8.42-59.7l-19.22,5.82s3.7,17.45-54.23,31.57c0,0-28.47,2.49,0-11.63,0,0,37.62-9.14,35.95-25.75,0,0,33.23-10,31.57-29.07,0,0-16.37-81.62-98.74-113.92C361.17,31.59,285.59,14.42,224.69,78.09Z"/><path class="cls-34" d="M252.22,122.24s21.57-46.52,84.31-52.33c0,0,11.23-15.78,38.64-15.78,0,0-22-27.85-61.48,6.65,0,0-59.81,10.8-64.8,61.47"/><path class="cls-34" d="M236.43,161.29s31.68-36.55,47-39C283.43,122.24,244.74,116.43,236.43,161.29Z"/><path class="cls-34" d="M242.25,183.72S282.1,138,336.53,138.86c0,0-3.73-29.91,38.64-26.58,0,0-24.92-22.43-48.18,14.12C327,126.4,259.69,130.55,242.25,183.72Z"/><path class="cls-34" d="M273.61,205.32s41.75-11.63,50.05-30.74c0,0,31.57,9.72,64-32.94,0,0,9.14,32.94-27.41,32.94,0,0-1.69,16.62-29.09,14.12C331.13,188.7,313.28,216.12,273.61,205.32Z"/><path class="cls-34" d="M287.94,234.28s24.92-2.38,38.22-20.65c0,0,15.79-1.66,29.08-9.14,0,0-7.42,18-24.1,19.1C331.13,223.59,317.85,243.3,287.94,234.28Z"/><path class="cls-34" d="M308.71,99.81s18.85-12.46,34.35-8.31c0,0,8.85-25.75,52.88-20.77,0,0-26.05-17.27-55,12.13C341,82.87,313.69,84,308.71,99.81Z"/><path class="cls-34" d="M242.25,196l45.69-21.42s20-7.43,5.82,10.71C293.75,185.29,249.73,202.47,242.25,196Z"/><path class="cls-34" d="M366.21,141.65s6.84-22.72,26.17-24.38c0,0,12.69-19.11,38.44,0C430.83,117.26,387.16,122,366.21,141.65Z"/><path class="cls-35" d="M185.85,236.09c3.71-9.17,24.23-14.57,48.26-4.14l79,19.06,89.38-3.55,73.86-17.9L494,235.79l-1.66,13.59s5.84,34.88-58.66,29.8c0,0,4.32,37.84-95.22,5.33,0,0-43.42,17.2-66,2.22,0,0-40.38,4.13-41.9-15.93-3.23,1.23-23.2,8.67-27,3-.69-1.05-1.12-3,.56-6.76-13.65-10-21.44-23.15-18.3-30.91"/><path class="cls-36" d="M311,245.8c18.66,3.43,47.3,6.08,84.69-1q88.43-29.89,99.86-11.62,4.7,7.51-3.61,23.15c.83-9.48-2-13.73-3.84-15.69-9-9.32-34-4.28-61.56,15.07,0,0-14.47,13.71-23.61,3.56s-68.05,1.27-68.05,1.27-20.82,9.4-29.45-.76-70.59-23.61-86.59-18-15.74-1.28-15.74-1.28-4.06-4.81-8.38-1.26c-1.9,1.56-5.52-.72-5.87-2.25-.53-2.26,16.22-7.06,18.35-8.23,17-9.39,73.92,11.58,103.81,17.08"/><path class="cls-7" d="M255.67,286.25C235,283,222.56,265.7,225.08,251.32s22.3-21,23.13-21.27c-31-8.73-61.55-5.83-65.38,5.49-3.72,11,15.4,29.55,17.85,31.86-1.54,4.91-.23,7.3.27,8,3,4.48,12.89,5.07,24-.84,0,0,18.17,11.53,30.72,11.64"/><path class="cls-7" d="M226.48,246.65s5.27-7.13,32.32-3c0,0-25.85-7.88-8.66-13.19,0,0-20.5-4.54-23.65,16.21"/><path class="cls-37" d="M392.12,349l-18-20.07A55.9,55.9,0,0,1,386,318.06c15.29-10.49,31.7-10.34,38.42-9.88,0,0-2.71,28.41-14.41,40.85C410,349,402.94,346.73,392.12,349Z"/><path class="cls-7" d="M236.43,277.71s16.92,11.37,37.93,4.18c0,0,22.6,16,64.79,0,0,0,93,30.52,91.13-7.46,0,0,37,5,51.75-3.43,0,0-13.34,11.37-48.35,8.19,0,0,4.11,39.68-95.22,5.33,0,0-46.11,18.84-66,2.22C272.46,286.74,232.74,288.25,236.43,277.71Z"/><path class="cls-38" d="M408.34,309,384.45,340l7.67,9.06A30.06,30.06,0,0,1,410,349c2.86-2,10-19.53,10-19.53l-28.33,1.84"/><path class="cls-39" d="M470.61,116.63a36.09,36.09,0,0,1-17.79,10.07c-2.82.64-14.72,3.32-24.3-3.36-9.8-6.84-12.61-20.29-14.18-27.76h0S402,113,381.22,97.7h0a31.19,31.19,0,0,1-5.49-5.17c-.8-1-5-7.27-2.47-10.86.36-.5,1.5-1.88,4.58-2.23l14.22,13.4,24-3.95,27,26.45Z"/><path class="cls-40" d="M414.91,52.71c-1.7,1.54-1.68,1.49-3-.46a34.16,34.16,0,0,0-7.18-8.09c-.18-.14-.4-.24-.2-.63,2.14,1,4.14,2.3,6.16,3.53,1.27.77,2.55,1.63,4.18,1.37,1,.38,1.67-.36,2.51-.51.36,1.28-.59,2.06-1.18,3C415.82,51.52,415.35,52.1,414.91,52.71Z"/><path class="cls-40" d="M405,78.17c3.41-3.24,7.08-6.2,9.64-10.6,1.38,2.56,2.19,5.21,4.15,7.27C413.84,74.85,409.44,76.58,405,78.17Z"/><path class="cls-40" d="M402.77,62.27c3.67-1.36,7.07-2,9.91-4.29a44.27,44.27,0,0,0,1.22,6.65C410.41,63.29,406.79,63.07,402.77,62.27Z"/><path class="cls-40" d="M372.56,71.31c1.22,1.58,2.76,2.93,3.34,5,.28,1,.13,1.56-.79,2a10.66,10.66,0,0,1-4.28,1.54c-.62,0-1.4,0-1.57.75s.52,1.19,1.09,1.6c2.1,1.51,4.47,1.52,6.81,1a1.78,1.78,0,0,1,2.17.78,13.82,13.82,0,0,0,3,3.1,1.05,1.05,0,0,0,.35-.9,2.19,2.19,0,0,0-.57-1.09,19.44,19.44,0,0,1-4.74-8.88,3.4,3.4,0,0,0-1-1.84c2,2.05,3.18,4.78,4.56,7.39.45.84.75,2.4,2,2s.53-1.81.32-2.81a2.22,2.22,0,0,1-.09-.73,19,19,0,0,1,2.61,3.35,10.19,10.19,0,0,0,1.49,1.73c1.44,1.2,2.4.88,2.81-.93a10.62,10.62,0,0,0,.14-2.07,7.14,7.14,0,0,1,.25-2.14,13,13,0,0,0,2.87,4.31c.47.41,1,.91,1.66.49s.38-1.14.13-1.69a39.8,39.8,0,0,1-2.22-5.59,26.13,26.13,0,0,1-.57-13.33,35.63,35.63,0,0,0,.6-3.6,32.61,32.61,0,0,1,2.44,8c.19,1,0,2.7,1.4,2.59S398,69.53,398,68.4a84.73,84.73,0,0,0-.26-9.81A22.36,22.36,0,0,1,404,65.28c.41.64.67,1.37,1.09,2s.71,1.37,1.57,1,.48-1.07.38-1.66a14.78,14.78,0,0,0-1.27-4.16,31.92,31.92,0,0,0-4.3-7c2.88,1.14,4.27,3.52,5.62,5.82a33,33,0,0,1,4,8.67c.2.82.38,2.1,1.53,1.84s.71-1.49.66-2.34a31,31,0,0,1-.53-3.37c2.38,2.78,3.59,6.09,5.65,8.85a13.86,13.86,0,0,0,.81,1.21,1.17,1.17,0,0,0,1.28.48c.56-.22.5-.8.43-1.27a23.56,23.56,0,0,1-.36-5.79c.63.32.69.94,1,1.36s.74,1.17,1.48.83.62-1.11.41-1.67a25.9,25.9,0,0,1-1.18-8.22,16.25,16.25,0,0,0,2.08,6.32c.4.64.65,1.4,1.49,1.65,1.16-1.27-.45-2.23-.39-3.37-.46-2.11-1.39-4.14-1.16-6.37-.23-1.33-1.22-2.45-1.11-3.9,0-.43-.39-.71-.81-.83s-.63.33-.91.63a9.4,9.4,0,0,0-2.2,4.13c-.19.73-.36,1.49-1.22,1.78a5.7,5.7,0,0,0-.82,3.85,31.23,31.23,0,0,0-6.67-8.4c-4.44-4.61-9.88-7.6-15.84-9.83a31.64,31.64,0,0,0-6.74-1.4c-1.25-.18-2,.65-1.49,1.79,3.28,7.27,1.47,14.69.84,22.09-.19,2.2-.74,4.35-.86,6.28-1.95-2.13-2.65-5.37-4.87-7.68a42.1,42.1,0,0,0-5.78-4.73c-.11-.2-.06-.19.17-.17.91.06,2.1.84,2.64-.3.6-1.31-.82-1.67-1.61-2.25a52.4,52.4,0,0,0-5.62-3.1c.05-.79.76-.8,1.16-1.1s1.19-.64,1-1.4-.95-.93-1.65-1a12,12,0,0,0-4.94.71c.1-.81,1-1.14.73-1.94A1.68,1.68,0,0,0,366,53a5.63,5.63,0,0,0-1.47,1.73c-.45.71-.92,1.48-.26,2.28a2.09,2.09,0,0,0,2.32.44c.85-.2,1.55-.84,2.59-.94a6.25,6.25,0,0,0-1,.27c-.49.25-1.09.43-1.12,1.1s.61,1.05,1.19,1.26a25.45,25.45,0,0,1,5.84,2.55,11.13,11.13,0,0,1-2.37-.48c-.74-.24-1.64-.58-2.06.27-.53,1.06.6,1.36,1.23,1.81a18,18,0,0,0,1.6,1C377,66.81,381.09,69.83,383,74a19,19,0,0,0-9.76-6.44,2,2,0,0,1-1.75.29c-.56-.12-1.35-.48-1.57.38s.51,1,1.07,1.31A3,3,0,0,1,372.56,71.31Z"/><path class="cls-40" d="M372.56,71.31c.5-2-1.61-2-2.62-3.09a4.45,4.45,0,0,1,2.33.4c.75.17,1.1,0,.82-.81s-1-1-1.71-1.35a42,42,0,0,0-17.5-3.59,3.17,3.17,0,0,1-1.48-.16A51.12,51.12,0,0,1,360.59,57a30.53,30.53,0,0,0,5.47-3.79c.53,0,1,.48,1.57.14,2.11-.13,3.5-1.39,4.71-2.93a1.67,1.67,0,0,0-.24-1A6.7,6.7,0,0,1,371,47.68c-3.06-8.29-8.53-14.79-15.24-20.39a1.82,1.82,0,0,1-.72-1,9.43,9.43,0,0,1,4.62-.36c9.77,1.18,18.28,5.23,25.89,11.26A41.64,41.64,0,0,1,391,42c.81.64,1.4,1.52,2.26,2.12a1,1,0,0,0,.89-.12c1.17-1.1,1.06-2.75,1.75-4.06a1.46,1.46,0,0,0,0-.9,1,1,0,0,0-.62-.62c-.84.4-.83,1.15-.92,1.86a41.19,41.19,0,0,1,2.82-8.93A189.66,189.66,0,0,1,411.74,6.95a.94.94,0,0,1,.49-.32c.84,1.43.9,3.06,1.17,4.63.94,5.5.36,11,.47,16.56,0,1,0,1.94.07,2.9s-.79,1.87-.64,2.92a17.92,17.92,0,0,0,1.43,6.43c1.42,3.25,2,3.56,5.52,3.37-1.07,1.25-2.61,1.78-4,2.6-.57.35-1.35.75-1,1.59.3.65,1.06.61,1.68.5,1.57-.29,3.2-.49,4.21-2-.06-.55-.16-1.15.73-.65.35.2.67.48,1.12.28a1.36,1.36,0,0,0,.45-2c-.28-.41-.73-.3-1.09,0a6.7,6.7,0,0,0,1.65-1.77,1.45,1.45,0,0,0,.3-1.17c-.16-.49-.52-.59-1-.38.1-.24.34-.31.55-.42a3.64,3.64,0,0,0,1-.77c1.54-1.68,2.52-3.75,4.13-5.42-.84,6.93-3.12,13.23-8.4,18.19-.19.8.5,1.63-.09,2.41-.55,1.76-1.76,3.26-2.08,5.11a3.85,3.85,0,0,0,0,2.22c.9,1,.77-.17.92-.48.75-1.64.75-3.63,2.37-4.86.24-.18-.08-.95.6-.77a.82.82,0,0,1,.57,1c-.26,1.34.5,2.31,1.15,3.33.5,1.22,1.22,2,2.7,1.41a.48.48,0,0,0-.26-.53,5.62,5.62,0,0,1-2.77-5.33c.09-3.58,1.55-6.65,3.1-9.78,2.17-4.38,4.45-8.8,3.29-14a5.92,5.92,0,0,0-.61-2c-1.47,2.51-2.75,4.91-4.33,7.13a14.07,14.07,0,0,1-6.27,4.64c-.87.38-1.43.38-1.92-.91-2.22-5.85-2-11.91-1.78-17.94A58.37,58.37,0,0,0,413.37,4.8,11.75,11.75,0,0,0,413,3c-8,12.34-17.47,23.89-20.15,38.86-12.82-12.89-32.1-20.51-41-16a65.26,65.26,0,0,1,9.9,9.16,45.3,45.3,0,0,1,8.38,14c.37,1,.12,1.43-.87,1.84a78.25,78.25,0,0,0-13.08,7.32,26.35,26.35,0,0,0-7.48,6.75c8.43-1.86,15.53.83,22.19,5.23C371.46,70.48,372,70.9,372.56,71.31Z"/><path class="cls-40" d="M426.51,60.93l.23.66c1,1.34,2.38,1,3.64.83,2.78-.35,5.45-1.2,7.84-1.67a38.93,38.93,0,0,0-9.62,5.62c-1.35,1-2.31,1.26-3.53.09-.49,1.28,1.19,2.07.78,3.34-1.11,1-1.42,2.51-2,3.82A38.91,38.91,0,0,1,414,87.16a27.74,27.74,0,0,1-12.33,6.35,13.25,13.25,0,0,1-7.42-.81A25.62,25.62,0,0,1,385,87.55c-.69-.65-1.34-1.48-2.5-1.21l-.17.69c1,1,.41,2.12-.08,3.05a28.16,28.16,0,0,1-6.92,9.19c-.45.36-1.2.76-1,1.45s1.07.49,1.66.52c3,.13,5.07-1.7,7.17-3.34s3.83-3.32,5.68-5c.44-.41.64-.77,1.32-.36a15.58,15.58,0,0,0,5.27,1.92c1.71.33,2.27,1.34,2.53,2.93a70.37,70.37,0,0,1,1.06,12.9,16.45,16.45,0,0,0,.19,1.94c.85.08.95-.47,1.14-.88a29.68,29.68,0,0,0,2.44-7c.87-4.28,3.17-7.75,5.9-11,2-2.38,3.51-2.55,6.28-1.05a67.37,67.37,0,0,1,11.25,8.11,2.37,2.37,0,0,0,1.65.91,26.06,26.06,0,0,0-3.3-7.22,35.45,35.45,0,0,1-4-9.72c-.58-2.15.6-3.31,3.18-3.11a90,90,0,0,1,12,1.88l1,.21a5.85,5.85,0,0,0-2.64-3.13c-1.62-1-2.93-2.29-4.43-3.38-4.18-3-4.52-6.84.58-10.13,3.8-2.45,7.57-4.93,12-6.08.38-.1.89-.24.73-.79s-.65-.45-1-.48a25.94,25.94,0,0,0-8.43,1.08C431.32,61,429,61.65,426.51,60.93Z"/><path class="cls-41" d="M382.53,86.35a39.84,39.84,0,0,0,10.15,6.36,16.77,16.77,0,0,0,13.91-.22c9.95-4.68,15.78-12.68,19.25-22.69a23.12,23.12,0,0,1-3.43-10.06c-.92,1.94-.48,3.95-.53,5.93s1.3,3.76,1.16,6c-1.1-.61-1.17-1.67-1.7-2.41-.3-.42-.3-1.29-1-1.13s-.5,1-.51,1.6a45.18,45.18,0,0,0,.53,6.62c-3.28-3.48-4.81-8.15-8.21-12-.51,2.69,1.12,4.85.34,7.54-3-6.83-4.71-14.11-12.06-17.54,2.73,4.25,5.69,8.37,6.09,13.68-2.51-4.16-5.22-8.13-9.83-11.16a60.9,60.9,0,0,1,.75,11.74c0,.14,0,.28,0,.41,0,.74.2,1.89-.65,1.94s-.71-1.19-.8-1.84a44.83,44.83,0,0,0-2.12-8,6.87,6.87,0,0,0-1.23-1.75c-.64,4.48-2,8.57-1.42,12.92a36.51,36.51,0,0,0,4.16,12.56,5.7,5.7,0,0,1-3.13-2.68,35.34,35.34,0,0,1-1.82-3.5c-1.12,1.69-.68,3.23-.78,4.69-.05.76,0,1.83-.64,2.06s-1.4-.55-1.93-1.23c-1.45-1.87-2.57-4-4.52-5.67-.61,1.79,1,3.3.14,5.36-1.14-2.24-2.09-4.12-3.06-6a15.78,15.78,0,0,0-4.12-5.12C377.23,77.86,378.66,82.72,382.53,86.35Z"/><path class="cls-42" d="M387.13,48.34a20.57,20.57,0,0,1,1.72,7c.36,3.4-.18,6.73-.47,10.06a69,69,0,0,1-1.72,12,13.77,13.77,0,0,1-2-2.8,8.91,8.91,0,0,0,0-1.72l.14.3a1.94,1.94,0,0,0-.19-.8,7.53,7.53,0,0,0-1.42-3.54c-.55-1.24-1.12-2.46-1.6-3.72-.72-1.9-.14-2.59,1.74-2.38-1.4-1.4-3-2.55-4.37-3.9-.45-.44-1-.91-.52-1.6s1.11-.38,1.67-.09c.87.45,1.74.91,2.63,1.34-1.73-1.09-3-2.66-4.63-3.9-.62-.49-1.67-.92-1.24-1.91s1.45-.21,2.2-.19a.31.31,0,0,0,.34-.23,5.65,5.65,0,0,0-.26-1.6c-.1-.62-.31-1.32.26-1.75s1.3.09,1.91.36c.79.35,1.3,1.25,2.28,1.29.41-.79,0-1.43-.13-2.09-.58-3.37-.18-3.81,3.29-3.63.72,0,1.54.3,1.71-.92.2-1.48,1.21-1.32,2.17-.74a10.33,10.33,0,0,0,2.82,1.34c.55.13,1,.09.71-.71.56-1.26.49-2.73,1.36-3.87.86.06.89-.76,1.25-1.2.53-.64,1-1.54,1.91-1.43,1.11.13.92,1.2,1.07,2a.32.32,0,0,0,.3.28c.85-.65.91-1.79,1.51-2.62a2.3,2.3,0,0,1,1.82-1.24c.95,0,1.22.79,1.55,1.48.12.25.17.53.28.78.44,1,1,1.08,1.63.16.27-.4.38-.91.68-1.29.66-.85.87-2.51,2-2.42,1.41.11,1.19,1.79,1.5,2.88a5.83,5.83,0,0,0,.17.6c.2.5.46.9,1.07.49,1.67-1.12,1.87.23,2.13,1.3a4.38,4.38,0,0,1-.33,3c-1.29,2.51-.86,5.59-2.69,7.92-.07.09.06.26.18.34.7.31,2.76-.83,1.8,1.17s-1.6,4-3.15,5.52a3.75,3.75,0,0,1-.68-.44,38.07,38.07,0,0,0-21-10.5c-.55-.09-1.17-.33-1.57.13S386.89,47.86,387.13,48.34Z"/><path class="cls-43" d="M381.17,68.86c1.28,0,1.46,1.14,1.9,2,.63,1.15,1.2,2.34,1.91,3.72a2.31,2.31,0,0,0,.21-2.37c-1.09-2.08-1.5-4.45-2.8-6.45a2.16,2.16,0,0,1-.4-.95c0-.59-.54-1.3,0-1.76.74-.59,1,.47,1.53.65.19.06.38.16.69.3.33-1-.3-1.52-.91-2.06-1.34-1.18-2.66-2.4-4-3.59-.32-.29-1.11-.38-.58-1s.88.08,1.23.31a12.29,12.29,0,0,1,2.65,1.61c.28.31.85.5,1.63-.14l-7.33-6.25a.76.76,0,0,1,1-.32c.78.16,1.45,1.35,2.21.67s-.42-1.48-.34-2.31c.06-.6-.6-1.14-.15-1.85a7.18,7.18,0,0,1,3.26,2c.32.29.63.61,1.08.44s.56-.77.49-1.24c-.18-1.29-.45-2.56-.64-3.85s.45-1.66,1.61-1.31a5.49,5.49,0,0,0,2.25.25c.92-.1,2.54.61,1.19-1.38-.09-.13.08-.58.26-.72a.83.83,0,0,1,1.13.18c1,1.06,2.46,1.22,3.71,1.78.55.25,1,.22,1.12-.41s.19-1.36-.89-1l-.7.33a18.15,18.15,0,0,0-2.73-2.29,65.06,65.06,0,0,0-10.87-6.94c-.31-.16-.6-.35-.92-.49-.56-.25-1.27-.75-1.72-.2-.57.7.12,1.32.68,1.7a19.5,19.5,0,0,1,4.57,4.79,3.34,3.34,0,0,1,.58,1.24,49,49,0,0,0-5.41-4c-.48-.33-1.08-.94-1.65-.36s0,1.27.42,1.8a30.67,30.67,0,0,1,4.31,6.34c-2.39-2.1-4.48-4.52-7.08-6.35-1-.74-2.28-2.29-3.37-1.55s.29,2.22.67,3.31a18.22,18.22,0,0,1,1.18,9.11,32.69,32.69,0,0,1-4.49,3.15l-1.87,2.29a1.57,1.57,0,0,0,1.72.06,11.4,11.4,0,0,1,4.69-.63c.4,0,.9.12,1,.58s-.42.61-.74.84c-.74.54-2.25.48-2.15,1.58.07.83,1.5.76,2.26,1.22,1.66,1,3.39,1.89,5.07,2.86.39.22,1,.41.82,1s-.79.31-1.22.27a8.62,8.62,0,0,0-2.69,0Z"/><path class="cls-44" d="M395.52,39.87c.27.21,0,1.64.89.41a7.1,7.1,0,0,0,.65-1.06c.38-.75.92-1.73,1.68-1.56s.43,1.27.39,2c0,.44-.07.83.45,1s.77-.13,1-.54c.44-.93.83-1.89,1.33-2.8.33-.59.73-1.29,1.52-1.26s1,.89,1.18,1.51c.25.83.13,1.95,1.38,2s1.28-1,1.67-1.84c.53-1.09,1.22-2.11,1.86-3.19,1,.85.79,2,1,2.94.16.75.3,1.6,1,1.93.2.09.38,0,.52.08s0,.76-.1,1.36c-.25,1.16.19,1.12.09,3,0,.79-.14,1.23.13,1.67s.48.76.48.76c.56.49.25,1.05-.28,1.36a2.26,2.26,0,0,0-1.11,1.67c-.12.79-1.34,1.41-.63,2.21s1.62-.35,2.78-.3c-1.19,2.17-2.68,4.07-3.22,6.4a43,43,0,0,1,7.27,9.53c.39-1.88.1-3.7,1-5.29.25-2.62,1.74-4.83,2.48-7.29.33-1.27-.51-1-1.18-.85-1,.25-1.8,1-3,1.24,1.17-2.4,3-4.09,4.23-6.13A4.89,4.89,0,0,0,422,46c-.05-.71-.4-1-1-.29-1.43,1.69-3.42,1.8-5.52,1.81,2-1.76,4.94-2.43,6.34-5.13-1-.16-1.75.74-2.71.67-2.42-.17-3.78-1.49-4.48-4.69-.38-1.74-.67-3.51-1-5.27-.12-.68,0-1.36-.12-2s-.16-1.64-1.39-1c-.79.44-.93-.31-1.1-.8a20.25,20.25,0,0,1-.57-2.62c-.08-.4-.18-.88-.71-.88s-.71.45-.79.84A25.93,25.93,0,0,0,408,31c0,1-.06,1.57-.27,1.63s-.33-.07-.75-.78a2,2,0,0,1-.88-.7c-.35-.51-.07-1-.31-3.09-.07-.57,0-1.25-.46-1.64-.2-.19-.4-.12-.47-.26-.3-.54,1.89-2.24,1.9-2.23s-7.67,4.16-10.41,12.14A18.33,18.33,0,0,0,395.52,39.87Z"/><path class="cls-40" d="M366.06,53.19c-5.26,2.9-10.47,5.86-15.31,10.28,8.14-.39,15.48.83,22.34,4.33a27.14,27.14,0,0,1,10.75,7.64c-1.35-5-5-7.88-9.1-10.42-1.41-.88-2.88-1.68-4.31-2.52-.33-.19-.92-.25-.69-.81s.72-.4,1.09-.22c1.48.7,3.06.72,5.16.95a23.07,23.07,0,0,0-7-3.54c-.6-.21-1.65-.09-1.67-.9s1-.76,1.58-1.14c.34-.22.7-.4,1.13-.64-1.49-.23-2.6.66-3.89.87-.61.1-1.23.38-1.69-.31s0-1.14.37-1.67S366,54,366.06,53.19Z"/><path class="cls-40" d="M425.06,66.46c1.33,2.4,1.34,2.33,3.56.6a41.47,41.47,0,0,1,11.31-6.48c.25-.09.55-.12.48-.64-2.84.36-5.6,1-8.39,1.68-1.74.4-3.53.89-5.29,0-1.23.07-1.76-1-2.66-1.53-.91,1.32-.12,2.58.19,3.84C424.48,64.76,424.79,65.6,425.06,66.46Z"/><path class="cls-40" d="M370.17,80.79c2.24,2.11,4.55,2,6.91,1.58.73-.13.85-.58.35-1.19a3.81,3.81,0,0,1-.89-1.36c-.25-1-.71-1-1.43-.52A11.23,11.23,0,0,1,370.17,80.79Z"/><path class="cls-40" d="M363.41,35.73c2.77,3.63,5.57,7.24,6.92,11.71.21.7.38,1.65,1.34,1.93,1.48-2.35.44-4.63-.24-6.9s-2.64-4.06-3.56-6.38c3.84,1.2,6.55,4.1,9.78,6.47.16-2.3-2.58-5.38-7.16-8.52a57.66,57.66,0,0,1,7,3.78c.82.52,1.61,1.09,2.43,1.62.34.23.79.47,1.13.09s0-.75-.25-1.08a18.93,18.93,0,0,0-3.36-3.09,47.75,47.75,0,0,1-4.62-3.58,61.36,61.36,0,0,1,18,10.32.39.39,0,0,0,.48-.2c-3.41-4-7.69-7-12.12-9.71a47.39,47.39,0,0,0-18.75-6.71,18.8,18.8,0,0,0-5,0c-.58.08-1.44-.19-1.62.58"/><path class="cls-40" d="M414.29,30.78c0-8.5,1-17.07-1.71-25.5a94.29,94.29,0,0,0-6.94,9.52c-1.83,2.88-1.33,2.46-4.54,8-4.37,7.57-6.39,10.26-6.67,14.87-.1,1.61,0,3.59.4,3.67.61.11,1.24-3.61,3.31-7.73,3.76-7.47,9.74-11.23,11-10.4.38.25,2.21,2.12,2.29,2.15h0a46.71,46.71,0,0,0,.72,4.68c.48,2.3.79,2.53,1,2.54C413.59,32.64,414,31.48,414.29,30.78Z"/><path class="cls-40" d="M391,42.06c-5.55-5.29-12.19-8.7-19.44-11.13,2.47,3.53,7,4.8,9.39,8.62-3.84-2.51-7.42-5.09-11.81-6.3,2.86,2.81,6.39,4.91,8.36,8.53-3.31-2.57-6.55-5.23-10.83-7a24.08,24.08,0,0,0,2.5,4.66,12,12,0,0,1,2.48,9.94l.45.8c1.4-2.63.69-5.21-.21-7.78-.52-1.47-1.11-2.91-1.78-4.68,4.59,2.44,7.77,6.08,11.24,9.7.48-2.32-1-3.61-2-5.12s-2.23-2.94-3.34-4.45c2.86,1.15,5,3.37,7.74,4.77-1-3.59-3.77-5.89-6.49-8.24a54,54,0,0,1,11.59,6.69,15.16,15.16,0,0,0,1.72,1.14C390.83,42.34,391,42.28,391,42.06Z"/><path class="cls-40" d="M420.71,52.4c4.82-2.7,5.7-7.89,7.77-12.28,1.09-2.32,1.74-4.92.66-7.66-2.25,2.93-3.62,6.46-7,8.5.73.31,1.18-.55,2-.12-.25,1.31-1.47,2-2.08,3.09,2-.27,1.45.7.81,1.72-1.74,2.36-3.06,5-5,7.22a1,1,0,0,0-.16,1.15c.35.48.87.25,1.31,0C419.82,53.73,420.56,53.35,420.71,52.4Z"/><path class="cls-40" d="M420.71,52.4c-.87.52-1.53,1.38-2.93,1.57,1.81-2.86,4.14-5.19,5.1-8.31-.57-1.06-1.47-.89-2.38-.61-.18.05-.17.09.54.63,1-.32.63.32.51.74-.52,1.83-1.85,3.18-2.92,4.68-.83,1.17-1.73,2.3-2.56,3.48-.22.32-.43.76,0,1.11s.67.06,1-.08c1-.49,2-1,3-1.51.61-.34.88-.16,1,.47C421.77,53.75,421.63,53,420.71,52.4Z"/><path class="cls-40" d="M391,42.06l-.4.16,2.83,1.85c-.55-.87-1-1.79-2.11-2.15A.8.8,0,0,0,391,42.06Z"/><path class="cls-40" d="M426.53,99.25c-2.63-5-5.65-9.76-6.87-15.74-2.57,2.39-4.51,5.1-7.54,6.7C417.69,92.09,422,95.73,426.53,99.25Z"/><path class="cls-40" d="M400.15,109.41c2.08-5.57,3.21-11.46,7.33-16.11-2.78.82-5.29,2-8.14,1.76-1.16-.11-.87.72-.76,1.22A72.12,72.12,0,0,1,400.15,109.41Z"/><path class="cls-40" d="M375.63,100.44c4-.08,6.25-2.67,8.87-4.59a7.09,7.09,0,0,0,1.17-1.17c.88-1,3-2,2.62-2.81-.6-1.24-2.41-1.9-3.72-2.8-.55-.38-.81-.41-1.14.4A34,34,0,0,1,375.63,100.44Z"/><path class="cls-40" d="M435.18,82c-3.65-2.94-7.28-4.94-9.62-8.66a53.69,53.69,0,0,1-4,7.12C426.08,80.22,430.29,81.35,435.18,82Z"/><path class="cls-44" d="M413.67,33.06c0-.45-.2-9.11-3.85-10.31-3.16-1-8.79,3.56-12.42,12.48Z"/><path class="cls-44" d="M420.53,55.74s9.36-17.94-.43-12.93l-3.32,1.24-1.51.51.39,4.65-.8,7.11,4.47,2.25Z"/><path class="cls-44" d="M388.9,41.08s-31.68-23.35-17.28.54l4.72,6,5.3.47L383,43.3l4.07.25Z"/><path class="cls-44" d="M392.89,45.17S381.34,36.83,377,36.5s-2.09,7.24-2.09,7.24,3,5.77,3.11,7.51-8.06,1.4-8.06,1.4l-1.82.37s-5.61,4.39-6.2,6c0,0,15.64,5.55,19.28,9.82S384,66,384,66l.84-5.27-3-9.05L383,44.37Z"/><path class="cls-41" d="M417.53,72.54s-31.89-44.14-24.87-.33h0l8.43,4.85,16.44-4.53"/><path class="cls-41" d="M387.1,84.25S379,69.73,361.74,65.52c0,0,10.55,4,14.28,11.49a24.09,24.09,0,0,0,2.4,5.47c5.62,9.41,16.17,12.21,19.61,13L396.52,92Z"/><path class="cls-42" d="M394.69,45.28c5-9.85,10.24-16.35,13.27-15.44,2,.59,3.73,4.47,4.26,6.73a21.72,21.72,0,0,1,.55,4.12,25,25,0,0,1-.4,5.66c3.47,0,4.78,1.52,5,1.85,2.1,2.59,1,8.27-4.18,12.83l-10-11.59Z"/><path class="cls-42" d="M380.3,65.12c.08,1.86,2.46,2.28,3.83,4.55a7.51,7.51,0,0,1,.73,5.3A1.8,1.8,0,0,0,386,73.53c.27-1.15.27-2.25-2.21-7.34-1.29-2.65-1.7-3.28-2.2-3.24S380.26,64.09,380.3,65.12Z"/><path class="cls-42" d="M393.94,45.15s-30.28-18.86-14.79,5.42c-1.36.61-4.15,2.11-4.9,4.81-1.15,4.09,2.63,10,10.17,12.44l.79-5.41-.39-11.84L385,46.1Z"/><path class="cls-44" d="M399.79,36.53c-.76,1.09-1.52,2.27-2.28,3.55a57.85,57.85,0,0,0-2.75,5.23l-1-.68c4.28-11.77,5.77-14.3,6.29-14.15.17,0,.22.39.32,1.06A10.15,10.15,0,0,1,399.79,36.53Z"/><path class="cls-44" d="M378,66.36s7.2,4.76,8.64,11c0,0,1-7-7.84-12.43Z"/><path class="cls-40" d="M379,67.08s7.33,5.26,7.64,10.27C386.66,77.35,379.33,74.68,379,67.08Z"/><path class="cls-40" d="M395,84.89s-16-65.12,25.37-8.52l-5.88-12L406,56.46l-11-5.73-2.26,1.56-2.26,9.31-1.28,9L392,79.67Z"/><path class="cls-45" d="M301.43,463.59s-37.85,11.09-13.53,32.14c0,0-29.22-4-56-28.33,0,0,3.28-40.62,1.52-52C233.43,415.42,267,457.16,301.43,463.59Z"/><path class="cls-32" d="M282,424.48l-13.42-15.73a36.09,36.09,0,0,1-11.33-7.35,36.55,36.55,0,0,1-9.7-16.08l-14.71.7s.49,19.74.65,29.4C233.43,415.42,262.31,435,282,424.48Z"/><path class="cls-46" d="M380.19,463.42c9.61,2.56,16,10.72,15.77,19.16s-7.15,13.75-8.11,14.45c0,0,29.22-4,56-28.33q.18-12.35,1-25.64c.59-10,1.42-19.57,2.43-28.71a160.61,160.61,0,0,1-67,49.07Z"/><path class="cls-40" d="M441.29,69c1.19,2.37,1.2,2.3,3.38.71a39.54,39.54,0,0,1,11.05-5.85c.25-.08.53-.1.48-.6-2.72.25-5.39.8-8.08,1.32-1.68.32-3.41.73-5.05-.22-1.18,0-1.64-1.07-2.49-1.58-.92,1.25-.21,2.48,0,3.71C440.79,67.32,441.06,68.15,441.29,69Z"/><path class="cls-40" d="M441.49,100.69c-2.33-4.91-5-9.62-6-15.44C433,87.47,431,90,428,91.44,433.3,93.45,437.33,97.13,441.49,100.69Z"/><path class="cls-40" d="M450.39,84.32c-3.38-3-6.78-5-8.88-8.71a51.88,51.88,0,0,1-4,6.72C441.76,82.3,445.74,83.55,450.39,84.32Z"/><path class="cls-40" d="M479.13,106.47c-2,1.21-4.17,2.05-5.63,4a1.69,1.69,0,0,0,0,2.52c1.2,1.29,2.27,2.7,4,3.42.65.28,1.49.6,1.38,1.45s-1,1.08-1.83,1.3c-2.88.79-5.43-.18-7.73-1.71a2,2,0,0,0-2.65,0,16,16,0,0,1-4.53,2.13,1.23,1.23,0,0,1,0-1.12,2.56,2.56,0,0,1,1.06-1,22.64,22.64,0,0,0,8.76-7.7,4,4,0,0,1,1.81-1.6c-3,1.42-5.38,3.89-8,6.15-.83.73-1.8,2.3-2.91,1.32s.17-2.18.81-3.18a2.6,2.6,0,0,0,.4-.75,22,22,0,0,0-4.18,2.57,11.8,11.8,0,0,1-2.32,1.27c-2,.71-2.94,0-2.64-2.15a12.43,12.43,0,0,1,.7-2.3,8.37,8.37,0,0,0,.61-2.42,15,15,0,0,1-4.86,3.51c-.67.25-1.47.57-2-.14s.06-1.4.56-1.89a46.49,46.49,0,0,0,4.69-5.16,30.62,30.62,0,0,0,6.11-14.23,41.8,41.8,0,0,1,.84-4.16,38.15,38.15,0,0,0-5.94,7.74c-.62,1-1.08,2.94-2.57,2.24s-.56-2.43-.12-3.66a99.32,99.32,0,0,1,4.33-10.54,25.86,25.86,0,0,0-9.51,4.69c-.7.53-1.28,1.22-2,1.74s-1.33,1.2-2.11.48-.07-1.36.28-2a17.29,17.29,0,0,1,3.07-4,37.12,37.12,0,0,1,7.52-5.85c-3.56.06-6,2.08-8.44,4a38.49,38.49,0,0,0-7.83,7.8c-.56.81-1.28,2.12-2.4,1.37s-.15-1.91.25-2.81c.5-1.14,1.47-2,2-3.45-3.71,2-6.37,5.14-9.72,7.3a16,16,0,0,1-1.37,1,1.34,1.34,0,0,1-1.58,0c-.51-.47-.2-1.07.06-1.55A27.62,27.62,0,0,0,428.27,85c-.81.09-1.13.74-1.67,1.06s-1.28,1-1.94.29-.21-1.45.25-2a30.34,30.34,0,0,0,4.66-8.43,19,19,0,0,1-4.84,6c-.69.53-1.27,1.26-2.28,1.18-.73-1.86,1.4-2.23,1.81-3.5,1.37-2.1,3.2-3.92,3.88-6.44.8-1.35,2.33-2.16,2.8-3.78.14-.48.71-.62,1.22-.57s.54.62.71,1.05a11,11,0,0,1,.67,5.38c-.09.87-.23,1.76.58,2.43a6.67,6.67,0,0,1-.71,4.52A36.21,36.21,0,0,1,444,75.84c6.67-3.19,13.75-4.21,21.08-4.2a36.09,36.09,0,0,1,7.83,1.24c1.42.32,1.89,1.52.86,2.55-6.53,6.55-7.64,15.35-10,23.63-.7,2.46-1,5-1.66,7.17,3-1.52,5.06-4.75,8.4-6.35a48.51,48.51,0,0,1,8.16-2.77c.2-.18.14-.18-.11-.26-1-.31-2.61,0-2.71-1.41-.11-1.66,1.57-1.48,2.65-1.78a60.05,60.05,0,0,1,7.32-1.07c.27-.88-.49-1.17-.8-1.67s-1-1.18-.51-1.93,1.4-.62,2.19-.41a13.62,13.62,0,0,1,5,2.79c.22-.92-.65-1.66,0-2.41a1.92,1.92,0,0,1,2,.34,6.52,6.52,0,0,1,.87,2.47c.19,1,.37,2-.66,2.59s-1.87.09-2.68-.47-1.32-1.54-2.4-2.08a7.14,7.14,0,0,1,1,.71c.42.47,1,.92.76,1.65s-1.08.89-1.79.88a29.13,29.13,0,0,0-7.33.38,12.68,12.68,0,0,0,2.74.45c.89,0,2,0,2.11,1.14.13,1.37-1.2,1.23-2.07,1.46a20.73,20.73,0,0,1-2.12.41c-5.94.89-11.58,2.51-15.32,6.26a21.84,21.84,0,0,1,13.14-3,2.25,2.25,0,0,0,1.76,1c.65.1,1.65,0,1.54,1.05-.09.87-1,.92-1.7,1A3.43,3.43,0,0,0,479.13,106.47Z"/><path class="cls-40" d="M479.13,106.47c.29-2.37,2.55-1.49,4.1-2.29a5.08,5.08,0,0,0-2.66-.52c-.87-.12-1.19-.44-.55-1.22.58-.93,1.56-.71,2.4-.77a47.9,47.9,0,0,1,20.29,3.25,3.61,3.61,0,0,0,1.66.43,58.78,58.78,0,0,0-6.45-9.56,35.08,35.08,0,0,1-4.32-6.34c-.56-.24-1.29.11-1.75-.49-2.22-1-3.19-2.94-3.86-5.11a2,2,0,0,1,.66-1,7.79,7.79,0,0,0,1.92-1.43c6.7-7.74,15.27-12.57,24.8-15.91a2.11,2.11,0,0,0,1.17-.76,10.74,10.74,0,0,0-4.82-2.28c-11-2.71-21.8-1.79-32.48,1.65a48,48,0,0,0-7.85,3c-1.14.37-2.13,1.08-3.3,1.38a1.13,1.13,0,0,1-.9-.49c-.8-1.68,0-3.41-.2-5.11a1.71,1.71,0,0,1,.35-1,1.19,1.19,0,0,1,.93-.42c.74.77.42,1.58.22,2.4a48.16,48.16,0,0,0,.65-10.85,220.68,220.68,0,0,0-5.56-32.48,1.08,1.08,0,0,0-.39-.55c-1.5,1.2-2.23,3-3.16,4.55-3.28,5.59-4.94,11.83-7.33,17.78-.42,1-.77,2.11-1.27,3.12-.66,1.07.08,2.35-.52,3.43a21,21,0,0,1-4.19,6.4c-2.87,3-3.61,3-7.33,1.4.63,1.8,2.07,3,3.18,4.44.47.62,1.14,1.36.38,2.12-.59.59-1.4.23-2-.15-1.57-1-3.24-1.84-3.72-3.85.29-.57.65-1.18-.52-1-.45.07-.92.25-1.32-.16a1.59,1.59,0,0,1,.33-2.33c.47-.34.91,0,1.17.46a7.75,7.75,0,0,1-1-2.59,1.69,1.69,0,0,1,.16-1.39.72.72,0,0,1,1.21,0c0-.31-.24-.48-.42-.68a4.18,4.18,0,0,1-.74-1.23c-1-2.45-1.16-5.1-2.21-7.57-2,7.87-2.1,15.63,1.53,23.17-.13.94-1.21,1.56-.9,2.65-.13,2.14.55,4.26.13,6.4a4.51,4.51,0,0,1-.89,2.42c-1.37.69-.76-.5-.79-.9-.13-2.09.69-4.24-.55-6.25-.18-.29.48-1-.33-1.08a1,1,0,0,0-1,.83c-.27,1.56-1.49,2.31-2.61,3.14-1,1.12-2.15,1.7-3.48.42a.56.56,0,0,1,.5-.47,6.55,6.55,0,0,0,5.18-4.65c1.38-3.93,1.08-7.85.7-11.88-.52-5.64-1.16-11.37,2.23-16.53a6.92,6.92,0,0,1,1.51-2c.54,3.33.93,6.45,1.71,9.5a16.19,16.19,0,0,0,4.82,7.6c.78.76,1.38,1,2.44-.2,4.8-5.44,7-12.12,9.31-18.75a68.4,68.4,0,0,1,9.37-18.66,13.74,13.74,0,0,1,1.16-1.8c3.49,16.66,8.93,33.06,5.64,50.4,19.09-8.75,43-9.15,50.65-.64a75.34,75.34,0,0,0-14.42,5.9A52.7,52.7,0,0,0,491,83.2c-.83,1-.71,1.5.17,2.36a89.73,89.73,0,0,1,11,13.29c2.19,3.12,4.26,6.31,5.26,10.38-8.3-5.46-17-5.44-26-3.38C480.66,106,479.9,106.25,479.13,106.47Z"/><path class="cls-40" d="M464.59,135.68c-2.28-4-3.13-8.35-3.65-12.8-.14-1.21-.32-2.62,1.18-3.34l.1-.82c-1.14-.77-2.17-.13-3.18.29-3.87,1.64-8,1.86-12.06,1.81a15.1,15.1,0,0,1-8.31-2.15A31.78,31.78,0,0,1,428,106.74a45.16,45.16,0,0,1-5-18.71c-.09-1.66.18-3.38-.58-5,.08-1.54,2.21-1.71,2.22-3.3l-.14,0a8.88,8.88,0,0,1-3.79,1.59c1.14,3.75-1,6.41-5.44,7.62-2.07.57-4,1.47-6.16,1.86a6.77,6.77,0,0,0-4.13,2.32l1.19.19a102.59,102.59,0,0,1,13.63,2.84c2.86.83,3.65,2.57,2.13,4.67a41.38,41.38,0,0,1-8.26,8.94,30.39,30.39,0,0,0-6.52,6.49,2.72,2.72,0,0,0,2.15-.31,77.48,77.48,0,0,1,15.44-4.21c3.6-.5,5.15.32,6.32,3.71,1.6,4.64,2.64,9.35,1.81,14.35a34.68,34.68,0,0,0-.28,8.64c0,.52-.07,1.16.87,1.42a19.26,19.26,0,0,0,1-2A82.5,82.5,0,0,1,441,124.32c.95-1.62,2-2.48,3.93-2.15a17.81,17.81,0,0,0,6.46.07c.9-.18,1,.3,1.27.92,1.27,2.63,2.52,5.29,4,7.8s3.08,5.48,6.33,6.56c.65.22,1.45.77,2,.12S464.93,136.26,464.59,135.68Z"/><path class="cls-41" d="M462.22,118.72c-4.41,1.41-8.83,2.71-13.54,2.76-5.8.06-10.74-1.61-14.86-5.92-8.76-9.15-11.73-20.21-11.34-32.5a27,27,0,0,0,7.84-9.52c.19,2.48-1.11,4.48-1.88,6.65s-2.94,3.55-3.73,6.06c1.44-.21,2-1.34,2.82-1.92.49-.33.86-1.28,1.53-.82s.11,1.31-.11,1.94a53,53,0,0,1-3.29,7c5-2.44,8.53-6.88,13.76-9.64-.56,3.13-3.21,4.81-3.48,8,6-6.21,10.88-13.39,20.19-14.11-4.69,3.5-9.57,6.76-12.19,12.36,4.42-3.49,9-6.7,15.16-8.1a71.41,71.41,0,0,0-5.65,12.43c-.05.15-.12.3-.17.45-.28.81-1,2-.1,2.37s1.25-1,1.62-1.67a52.46,52.46,0,0,1,5.57-7.79,8,8,0,0,1,2-1.4c-1.16,5.12-1.38,10.12-3.81,14.6A42.67,42.67,0,0,1,449,111.91a6.58,6.58,0,0,0,4.47-1.63,41.18,41.18,0,0,0,3.4-3.06c.51,2.29-.61,3.78-1.09,5.41-.25.85-.79,2-.16,2.49s1.73,0,2.58-.55c2.33-1.44,4.42-3.31,7.2-4.31-.08,2.2-2.4,3.18-2.36,5.77,2.15-2,3.95-3.62,5.76-5.25a18.29,18.29,0,0,1,6.54-3.87C471.41,111.66,467.87,116.36,462.22,118.72Z"/><path class="cls-42" d="M472.94,75.59a24.07,24.07,0,0,0-4.72,6.85c-1.79,3.54-2.58,7.37-3.64,11.11a80.88,80.88,0,0,0-3.09,13.71,16,16,0,0,0,3.34-2.21,10.44,10.44,0,0,1,.66-1.89l-.27.27a2.27,2.27,0,0,1,.54-.79,8.8,8.8,0,0,1,3-3.27c1.1-1.12,2.22-2.21,3.26-3.38,1.56-1.77,1.22-2.76-.88-3.3,2.08-.94,4.25-1.55,6.31-2.45.67-.29,1.42-.59,1.21-1.53s-1-.87-1.75-.78c-1.12.14-2.25.27-3.38.38,2.31-.47,4.37-1.64,6.59-2.34.87-.27,2.18-.32,2.12-1.57-.06-1.43-1.47-.82-2.29-1.11a.36.36,0,0,1-.27-.39,6.62,6.62,0,0,1,.94-1.63c.36-.63.88-1.3.45-2s-1.43-.43-2.2-.39c-1,.06-1.91.82-3,.46-.12-1,.6-1.55,1-2.22,2-3.42,1.76-4.06-2-5.28-.79-.25-1.78-.3-1.46-1.69.39-1.69-.76-1.92-2-1.69a11.83,11.83,0,0,1-3.58.3c-.64-.08-1.16-.33-.47-1.06-.08-1.59.6-3.16.13-4.76-.95-.29-.64-1.19-.85-1.82-.31-.91-.41-2.07-1.46-2.33-1.25-.32-1.49.93-2,1.72a.37.37,0,0,1-.44.18c-.64-1.06-.24-2.32-.54-3.46-.23-.88-.52-1.74-1.44-2.09s-1.64.36-2.27,1c-.23.23-.4.5-.62.74-.9.94-1.52.77-1.81-.49-.12-.55,0-1.14-.2-1.67-.36-1.19.1-3.08-1.15-3.44-1.56-.45-2,1.46-2.8,2.52a6.77,6.77,0,0,1-.43.58c-.42.46-.86.79-1.35.09-1.34-1.9-2.11-.52-2.83.54a5.13,5.13,0,0,0-.9,3.44c.34,3.25-1.39,6.42-.38,9.69,0,.13-.16.25-.34.29-.88.05-2.63-2-2.41.54.2,2.41.08,5,1.11,7.28a4.32,4.32,0,0,0,.91-.2c8.67-3.94,17.68-4.58,26.94-2.81.63.12,1.39.12,1.64.79S473.4,75.16,472.94,75.59Z"/><path class="cls-43" d="M470.89,100.29c-1.39-.49-2,.64-2.85,1.35-1.15,1-2.26,2-3.59,3.26a2.7,2.7,0,0,1,.75-2.65c2-1.81,3.45-4.22,5.67-5.85a2.52,2.52,0,0,0,.82-.86c.29-.62,1.12-1.19.69-1.92-.56-.95-1.26.1-1.91.08-.24,0-.47,0-.86,0,.07-1.24,1-1.52,1.83-1.86,1.93-.74,3.84-1.52,5.77-2.27.46-.18,1.36,0,1-.87s-1-.28-1.46-.16c-1.16.27-2.38.09-3.51.67-.43.22-1.12.2-1.69-.81l10.46-3.79c-.24-.72-.59-.69-.9-.74-.9-.14-2.11.87-2.66-.17s1.07-1.44,1.32-2.37c.18-.68,1.11-1,.92-2a8.24,8.24,0,0,0-4.33.85c-.46.19-.93.41-1.34,0s-.28-1.06,0-1.55c.73-1.32,1.54-2.6,2.28-3.92s.2-2-1.19-2.08a6.25,6.25,0,0,1-2.52-.65c-1-.49-3-.38-.7-2,.15-.11.15-.66,0-.88a1,1,0,0,0-1.29-.27c-1.54.73-3.15.32-4.73.41-.69,0-1.16-.17-1-.91s.35-1.56,1.38-.74l.62.65A20.91,20.91,0,0,1,471.78,67a74.71,74.71,0,0,1,14.54-3.09c.4-.05.79-.13,1.19-.16.71,0,1.68-.29,1.93.48.32,1-.68,1.38-1.43,1.57a22.54,22.54,0,0,0-6.89,3.33A3.89,3.89,0,0,0,480,70.24a56.4,56.4,0,0,1,7.46-2.12c.66-.16,1.55-.58,1.93.29s-.51,1.39-1.19,1.78a35.65,35.65,0,0,0-7.24,5.12c3.43-1.3,6.67-3.08,10.23-4,1.43-.37,3.4-1.56,4.26-.3s-1.23,2.3-2.09,3.32a21.35,21.35,0,0,0-5,9.4A37.59,37.59,0,0,0,491.85,89l1.06,3.25a1.79,1.79,0,0,1-1.88-.64,13,13,0,0,0-4.79-2.6,1.11,1.11,0,0,0-1.33.21c-.36.52.2.84.45,1.22.57.89,2.21,1.44,1.66,2.6-.42.87-1.93.21-2.94.4-2.2.4-4.42.66-6.63,1-.51.08-1.24,0-1.31.79s.72.66,1.2.79a9.82,9.82,0,0,1,2.91,1Z"/><path class="cls-44" d="M467.42,63c-.37.12-.65,1.79-1.13.08a8.28,8.28,0,0,1-.26-1.41c-.1-1-.28-2.25-1.16-2.38-1-.15-1,1.2-1.23,2-.15.49-.27.93-.9.91s-.78-.46-.81-1c-.08-1.19-.11-2.39-.27-3.58-.11-.78-.25-1.7-1.12-2s-1.44.56-1.89,1.16c-.61.8-.94,2.06-2.3,1.58s-.95-1.64-1-2.67c-.12-1.4-.44-2.79-.68-4.23-1.39.53-1.66,1.81-2.29,2.79-.49.75-1,1.61-1.91,1.68-.26,0-.39-.2-.6-.13-.36.13-.34.82-.45,1.52-.21,1.36-.67,1.14-1.35,3.25-.28.88-.36,1.39-.83,1.76s-.83.62-.83.62c-.81.3-.7,1-.27,1.59a2.62,2.62,0,0,1,.51,2.27c-.2.91.86,2.08-.23,2.66s-1.6-1-2.87-1.46c.38,2.84,1.2,5.51.82,8.26-4.09,2-8.17,4.13-11.74,7.37.36-2.2,1.42-4.06,1.09-6.15.82-2.95.13-6,.34-8.92.17-1.52,1-.91,1.62-.44,1,.67,1.54,1.77,2.75,2.58-.26-3.08-1.5-5.65-2-8.38a5.71,5.71,0,0,1,0-3.54c.35-.75.86-1,1.18.08.84,2.42,2.93,3.35,5.18,4.21-1.48-2.74-4.31-4.66-4.7-8.16,1.18.25,1.57,1.51,2.64,1.83,2.68.81,4.68-.07,6.75-3.26,1.13-1.74,2.16-3.54,3.24-5.31.4-.69.61-1.46,1-2.16s.85-1.72,1.88-.47c.66.8,1.13,0,1.51-.42a23.76,23.76,0,0,0,1.7-2.61c.25-.4.56-.88,1.12-.66a1,1,0,0,1,.51,1.23,30.33,30.33,0,0,1-.81,5.21c-.37,1.13-.58,1.73-.38,1.88s.38.05,1.12-.54a2.32,2.32,0,0,0,1.24-.4c.58-.41.48-1.05,1.6-3.22.3-.59.56-1.33,1.18-1.59.29-.12.48,0,.62-.09.55-.47-1.11-3.2-1.12-3.2s6.52,7.65,6.18,17.42A21.48,21.48,0,0,1,467.42,63Z"/><path class="cls-40" d="M493.6,89.46c4.45,5.29,8.83,10.64,12.22,17.41-8.58-3.75-17-5.42-25.8-4.43a31.21,31.21,0,0,0-14.7,3.9c3.5-4.84,8.64-6.5,14.08-7.6,1.88-.38,3.79-.65,5.68-1,.43-.07,1.09.1,1.08-.6s-.61-.73-1.08-.69c-1.88.16-3.59-.46-5.94-1.08a26.43,26.43,0,0,1,8.94-1c.74,0,1.81.58,2.17-.3s-.79-1.25-1.23-1.88c-.27-.38-.59-.72-1-1.15,1.69.35,2.53,1.78,3.82,2.53.61.36,1.17.92,1.94.36s.42-1.26.29-2S493.34,90.39,493.6,89.46Z"/><path class="cls-40" d="M428.41,73.21c-1.06.15-2,1-3.13.69l0,0a9.31,9.31,0,0,1-1.61,2.5,9,9,0,0,1-2.57,3.25c1.23,2,1.46,1.94,3.64.09.64-.82,1.33-1.61,1.92-2.46C427.48,76.06,428.84,75,428.41,73.21Z"/><path class="cls-40" d="M477.8,117.73c-3.27,1.37-5.72.33-8.08-1.1-.73-.44-.67-1,.12-1.43a4.43,4.43,0,0,0,1.52-1.12c.68-1,1.16-.77,1.75,0A12.82,12.82,0,0,0,477.8,117.73Z"/><path class="cls-40" d="M503.64,71.59c-4.47,2.81-9,5.58-12.27,9.88-.52.68-1.08,1.63-2.24,1.55-.62-3.16,1.43-5.2,3.1-7.39s4.51-3.33,6.46-5.47c-4.62-.26-8.73,1.77-13.18,3,.78-2.57,5-4.79,11.21-6.32a66.09,66.09,0,0,0-9.1,1.23c-1.09.23-2.18.52-3.28.77-.46.11-1,.18-1.25-.36s.3-.81.72-1.07a21.85,21.85,0,0,1,4.89-2,55,55,0,0,0,6.44-2A70.39,70.39,0,0,0,471.5,67.3a.45.45,0,0,1-.44-.41c5.32-3,11.14-4.43,17-5.59a54.15,54.15,0,0,1,22.92.38,21.4,21.4,0,0,1,5.38,2c.59.32,1.62.38,1.5,1.29"/><path class="cls-40" d="M451,45.43c3.51-9.23,6-18.91,12.36-27a109.4,109.4,0,0,1,3.53,13.17c.78,3.88.42,3.21,1.57,10.56,1.57,10,2.63,13.75,1,18.86-.56,1.79-1.44,3.92-1.94,3.82-.7-.13.16-4.43-.37-9.75-1-9.64-5.84-16.16-7.55-15.78-.51.11-3.25,1.4-3.34,1.4h0a54.68,54.68,0,0,1-2.71,4.79c-1.47,2.3-1.89,2.42-2.09,2.36C451,47.74,451,46.3,451,45.43Z"/><path class="cls-40" d="M471.35,67.18C479.5,63.71,488,62.72,496.84,63c-4.11,2.82-9.47,2.36-13.64,5.52,5.16-1.15,10.08-2.49,15.29-2-4.23,1.88-8.89,2.72-12.51,5.84,4.62-1.44,9.2-3,14.53-3.17a28.05,28.05,0,0,1-4.61,4A14,14,0,0,0,489.14,83l-.81.69c-.42-3.43,1.41-5.94,3.43-8.35,1.16-1.38,2.39-2.71,3.85-4.35-5.95.77-10.85,3.42-16.08,5.94.44-2.71,2.57-3.51,4.22-4.75s3.6-2.28,5.42-3.46c-3.55.07-6.76,1.62-10.29,2,2.6-3.48,6.48-4.85,10.37-6.3A62,62,0,0,0,474,67a17.41,17.41,0,0,1-2.32.54C471.45,67.56,471.33,67.45,471.35,67.18Z"/><path class="cls-40" d="M435.18,66.28c-4.06-4.9-2.88-10.89-3.29-16.5-.22-3,.16-6.05,2.44-8.58,1.21,4.1,1.23,8.49,4,12.06-.92,0-1-1.08-2.06-.93-.27,1.52.74,2.81,1,4.21-2-1.11-1.84.17-1.58,1.53.89,3.27,1.24,6.66,2.36,9.87a1.11,1.11,0,0,1-.3,1.31c-.57.38-1-.08-1.43-.49A2.65,2.65,0,0,1,435.18,66.28Z"/><path class="cls-40" d="M435.18,66.28c.72.91,1.08,2.12,2.5,2.9-.77-3.85-2.31-7.33-2.05-11.1,1-.92,1.94-.37,2.81.31.17.13.15.16-.84.46-.94-.76-.81.09-.86.59-.19,2.2.68,4.21,1.2,6.27.41,1.61.91,3.2,1.32,4.82.11.43.15,1-.43,1.22s-.74-.2-1-.48c-.87-.94-1.74-1.87-2.56-2.85-.52-.61-.89-.53-1.24.12C433.49,67.31,433.93,66.59,435.18,66.28Z"/><path class="cls-40" d="M471.35,67.18l.36.34-3.81.85c.95-.72,1.85-1.52,3.16-1.48A.92.92,0,0,1,471.35,67.18Z"/><path class="cls-40" d="M409.61,114.75c4.89-4.34,10.1-8.28,13.88-14.27,1.77,3.65,2.75,7.38,5.34,10.35C422.06,110.59,415.88,112.76,409.61,114.75Z"/><path class="cls-40" d="M433.76,136.54c.06-6.89,1.28-13.75-1.23-20.47,2.65,2,4.85,4.36,8,5.23,1.29.36.64,1.13.32,1.63A84.5,84.5,0,0,0,433.76,136.54Z"/><path class="cls-40" d="M463.83,136.83c-4.23-1.71-5.62-5.45-7.64-8.6a8.2,8.2,0,0,1-.77-1.74c-.52-1.47-2.39-3.43-1.66-4.12,1.15-1.1,3.38-1.08,5.15-1.52.75-.18,1-.11,1.06.9C460.08,126.93,461.61,131.79,463.83,136.83Z"/><path class="cls-40" d="M407.44,92.46c5.14-1.7,9.87-2.39,13.91-5.47a62.51,62.51,0,0,0,1.33,9.34C417.93,94.28,412.94,93.79,407.44,92.46Z"/><path class="cls-44" d="M450.73,48.16c.19-.48,4-9.81,8.39-9.61,3.82.17,8,7.45,8.2,18.61Z"/><path class="cls-44" d="M434,70s-2.67-23.29,5.79-13.85l3.06,2.7L444.25,60l-2.34,4.89-2.08,8-5.74.62Z"/><path class="cls-44" d="M474,67s43.68-12.4,18.35,7.65l-7.55,4.61-5.88-1.66.49-5.78L475,70.41Z"/><path class="cls-44" d="M468.06,69.8s15.85-4.34,20.69-2.91S488,75.6,488,75.6s-5.58,5-6.44,6.88,8.09,4.81,8.09,4.81l1.81,1.15s4.22,7.05,4.18,9.07c0,0-19.1-.37-24.77,2.78S469,96,469,96l1.27-6.07,7-8.58L479.07,73Z"/><path class="cls-41" d="M430.29,89.44s52.48-34.88,26.87,9.8h0l-11.07,1.82-15.8-11.62"/><path class="cls-41" d="M458.17,114.57s14.75-12.43,35-10c0,0-13,.06-20.09,6.64a28.09,28.09,0,0,1-4.84,5c-9.92,7.92-22.41,6.65-26.43,6.07l3.06-3.17Z"/><path class="cls-41" d="M441.8,122.27S417.15,112,422.49,83.06l2.44,12.39,6.92,11.42,12.41,12.87Z"/><path class="cls-42" d="M466.08,69.17c-1.31-12.73-4.27-21.93-7.89-22.18-2.35-.16-5.85,3.33-7.36,5.56a25.44,25.44,0,0,0-2.29,4.25,29.31,29.31,0,0,0-1.91,6.31c-3.74-1.4-5.76-.3-6.18-.06-3.33,2-4.46,8.58-.8,15.63l15.56-8.48Z"/><path class="cls-42" d="M473.37,96.58c-.85,2-3.59,1.47-6,3.38a8.79,8.79,0,0,0-3,5.45,2.08,2.08,0,0,1-.6-2c.19-1.36.64-2.56,5.41-7.06,2.48-2.35,3.18-2.86,3.7-2.62S473.84,95.49,473.37,96.58Z"/><path class="cls-42" d="M466.94,69.35s40.32-8.1,13.66,11.92c1.21,1.21,3.59,4,3.29,7.22-.45,4.91-6.94,9.76-16.06,9.35l1.38-6.19L474.5,79,476.2,74Z"/><path class="cls-40" d="M387.1,84.25c2.55,3,5.41,4.05,6.88,3.14a3.18,3.18,0,0,0,1.23-2.82c-.2-2.84-4.11-3.72-4.59-7.22a5.14,5.14,0,0,1,0-1.3Z"/><path class="cls-44" d="M464.21,57.6c.36,1.49.7,3.09,1,4.78a67.43,67.43,0,0,1,.8,6.8l1.33-.34c.26-14.52-.3-17.87-.92-17.93-.21,0-.4.34-.78,1A11.89,11.89,0,0,0,464.21,57.6Z"/><path class="cls-44" d="M475.31,98.86s-9.7,2.23-13.82,8.41c0,0,1.86-8,13.55-10.28Z"/><path class="cls-40" d="M473.94,99.24s-10,2.71-12.45,8C461.49,107.27,470.46,107.36,473.94,99.24Z"/><path class="cls-40" d="M449.41,112s44-64.16-23.75-19.61l11.27-10.63,12.37-5.11,14.16-1.74,1.78,2.62-1.41,11-2.34,10.3-6.65,8.72Z"/><polygon class="cls-40" points="428.59 66.37 426.28 70.21 426.53 73.21 430.78 70.83 431.51 64.31 428.59 66.37"/><polygon class="cls-40" points="421.59 81.16 421.59 85.25 420.37 85.25 419.65 83.51 421.59 81.16"/><path class="cls-41" d="M425.84,69.79S422.79,95.3,398,95.45l-1-2A50.24,50.24,0,0,0,410.29,87,51,51,0,0,0,425.84,69.79Z"/><path class="cls-40" d="M420.33,76s3.76,2.46,5.51-5.83-3.39-11-3.39-11a9.09,9.09,0,0,0-3.11,5.38A30.49,30.49,0,0,0,420.33,76Z"/><path class="cls-40" d="M430.33,73.54S414.75,103,431.51,88.48Z"/><path class="cls-40" d="M449,111.91s-5,5.45,7,3.41l3.43-3.84-.71-7.2Z"/><path class="cls-7" d="M33.37,298.69c13.07-7.09,25.42-4.31,28.59,1.84,2.69,5.22-1.49,12.4-2.32,13.76a26.85,26.85,0,0,1-9.77,8.82,27.82,27.82,0,0,1-19.3,2.18c-5.34-1.49-7.07-4.42-7.5-5.25C20.15,314.47,23.66,304.93,33.37,298.69Z"/><path class="cls-47" d="M119.68,402.47s97.78,132.47,89.89,217.39A80.49,80.49,0,0,1,204,643.41,62.59,62.59,0,0,1,194.71,659c-11.11,13.44-26.47,17.93-33.61,19.5-9,2-20.44,2.66-21,.46-.33-1.24,2.88-3.07,3.82-3.65C150,671.5,157,659.76,161,625c0,0,42.68-28.28-76.43-209.84l33.2-22Z"/><path class="cls-37" d="M90.36,387.32a74.61,74.61,0,0,1-13.82,12.43c4.69,8.73,7.81,14.43,7.81,14.43C203.47,595.75,160.79,624,160.79,624l-8.19,39.74c16-6.52,26.75-16.64,31.14-24.73a60,60,0,0,0,5.5-15.22,69.59,69.59,0,0,0,1-7,89.6,89.6,0,0,0,.29-9.44c-.05-2.58-.2-5.32-.47-8.23-3.26-35.46-23.78-95.47-89.21-195.86C97.14,397.65,93.67,392.35,90.36,387.32Z"/><path class="cls-47" d="M126.34,394.36S94.13,375.77,53.94,305l-7.76.46-10.54,4.41-4.56,4.6s48,81.33,42.44,110.75Z"/><path class="cls-7" d="M134.67,397l-59,35.38s-7.07-20,1.92-38.59,10.11-11.44,26.51-11.4C104.1,382.34,129,387,134.67,397Z"/><path class="cls-1" d="M57.09,438.17S-.73,395.24,56.31,363c12.14-8.19,27.63-7.44,37.14,1.07,13.91,12.44,6.42,33.74,5.93,35.06a36.4,36.4,0,0,1-10.3,14.71L74.46,424.64"/></svg>