<svg id="Layer_1" data-name="Layer 1" xmlns="http://www.w3.org/2000/svg" viewBox="0 0 579.12 677.89"><defs><style>.cls-1{fill:#f4ea78;}.cls-2{fill:#fcf690;}.cls-3{fill:#e5d876;}.cls-4{fill:#5e8916;}.cls-5{fill:#587a15;}.cls-6{fill:#0f490f;}.cls-7{fill:#0d3d0e;}.cls-8{fill:#0c6800;}.cls-9{fill:gold;}.cls-10{fill:#0c4f02;}.cls-11{fill:#185b0f;}.cls-12{fill:#fcf1de;}.cls-13{fill:#eda55f;}.cls-14{fill:#d3914f;}.cls-15{fill:#fffaf0;}.cls-16{fill:#db9c58;}.cls-17{fill:#563a0a;}.cls-18{fill:#def0f6;}.cls-19{fill:#e0b277;}.cls-20{fill:#f6c372;}.cls-21{fill:#ffcd74;}.cls-22{fill:#fdca85;}.cls-23{fill:#ffdaa1;}.cls-24{fill:#ffd68c;}.cls-25{fill:#c99361;}.cls-26{fill:#f5deb4;}.cls-27{fill:#edc498;}.cls-28{fill:#ba835d;}.cls-29{fill:#d3a879;}.cls-30{fill:#e7a961;}.cls-30,.cls-31,.cls-32,.cls-33,.cls-34,.cls-35,.cls-36,.cls-37,.cls-38,.cls-39,.cls-40,.cls-41,.cls-42{fill-rule:evenodd;}.cls-31{fill:#fcf4dd;}.cls-32{fill:#e5d8be;}.cls-33{fill:#cdbe9f;}.cls-34{fill:#72a64a;}.cls-35{fill:#f6c383;}.cls-36{fill:#ffb66e;}.cls-37{fill:#ddcfb6;}.cls-38{fill:#78a051;}.cls-39{fill:#72aa4d;}.cls-40{fill:#74a54d;}.cls-41{fill:#789a58;}.cls-42{fill:#c98f57;}.cls-43{fill:#deb887;}.cls-44{fill:#d6a774;}.cls-45{fill:#fff;}.cls-46{fill:#efe586;}.cls-47{fill:#edb883;}.cls-48{fill:#edb887;}.cls-49{fill:#eac5a4;}.cls-50{fill:#777;}.cls-51{fill:#a7a7a8;}.cls-52{fill:#262628;}.cls-53{fill:#515151;}.cls-54{fill:#070707;}.cls-55{fill:#a57156;}</style></defs><title>wippo</title><path class="cls-1" d="M243,636.36c0,.17,5.92,38.45-11.11,39.13,0,0-22.22,6-51-1,0,0,2-11,17.93-15.78l5.6-23.7s25.46,3.85,38.59,1.39"/><path class="cls-2" d="M374.21,637.92c13.52,2.46,39.73-1.39,39.73-1.39l5.76,22.14c16.38,4.76,18.46,15.78,18.46,15.78-29.63,7-52.51,1-52.51,1-13.26-.52-11.44-37.57-11.44-37.57"/><path class="cls-3" d="M236.83,639.48s.41,32.42-15.16,37.73c0,0,13.32-2.26,14-2.61s10.38-4.28,7.75-35.12Z"/><path class="cls-1" d="M400.79,585a110,110,0,0,0,40.78,33.17c36.18,16.93,70.25,8.09,79.75,5.27,15-3.8,29.26-5.81,32.17-3.51,12.62,10-16.78,22.29-43.37,28.16C456.71,659.88,402.45,618,385.79,603.26Z"/><path class="cls-4" d="M176.61,591s40.33,27.92,95.89,30.13c0,0,7.6,26-66.09,15.86,0,0-53.37-8.93-29.8-46"/><path class="cls-4" d="M439.16,588.55s-23.45,19.2-86.31,32.68c0,0-3.37,26.62,59.53,15.58,0,0,46.89-7.88,26.77-48.25"/><path class="cls-5" d="M271.87,613.82s-61.56,32.65-101.27-.19c0,0,5.41,12.68,23.55,20,26.46,10.61,70.26,14.19,83.1-12.9Z"/><polygon class="cls-6" points="353.6 620.78 355.78 636.76 342.39 640.61 339.94 622.85 353.6 620.78"/><path class="cls-7" d="M339.94,544.87l2.56,108.53c-35.68,13-71.74,0-71.74,0l3.08-108.53s41.46,5.85,66.11,0"/><path class="cls-7" d="M184.4,391.52s-29.31,65.82-53,74.54c0,0,15.52,12.36,49.17-26.34a279.31,279.31,0,0,1-17.07,22.56,279.83,279.83,0,0,1-32.88,33.09c40.69,7,58.36-.42,66.3-10.49,0,0,7-8.92,4.65-70.64h0Z"/><path class="cls-7" d="M524.71,520s29.8,23.46,45,16.61c0,0-1.43,25.37-42.84,13.23l-23-9.34s3,17.69,15.79,23.16c0,0-37.42,16.41-52.29-11.7,0,0,.46,14,3.94,16.19.17.1.53.42.47.57-.37.83-13.93-6.9-29.59-10-17.89-3.59-24.82,1.55-29.31-4.05-3.43-4.28-.64-8.87-1.22-25.87a148.07,148.07,0,0,0-1.51-16.63l-.39-32.75,8.4-61.56Z"/><path class="cls-8" d="M434.42,572.34S416,550.92,413.85,542.66s-3.58-7-3.58-7l-102,14.6,24.56,64.42,105.27-38.39Z"/><path class="cls-9" d="M447.77,583.21c-26.25,26.52-111.25,45.23-119.28,43.5s-25-79.38-25-79.38l7.21.79,21.42,61c28.9.73,102.28-36.82,102.28-36.82Z"/><path class="cls-8" d="M178,572.34s18.39-21.42,20.57-29.68,3.58-7,3.58-7l101.3,14.29-23.92,64.73L174.32,576.27Z"/><path class="cls-10" d="M240.34,550.47c2.26,3.67-8.91,17-23.33,24.24a58.86,58.86,0,0,1-18.72,5.71l-5.78-3.26a63.75,63.75,0,0,0,20.08-36.48,29.44,29.44,0,0,0,13.84,8.5C234.29,551.19,239,548.35,240.34,550.47Z"/><path class="cls-10" d="M223.57,593.62c.23-.48-13.82-5.89-13.52-12.48.1-2.06,1.56-3.73,3.05-4.95a13.11,13.11,0,0,0-4.91-.57c-6.47.5-10.32,5.83-11,6.82C217.18,591.44,223.42,593.94,223.57,593.62Z"/><path class="cls-9" d="M164.7,583.21C191,609.72,276,628.44,284,626.7s25-79.38,25-79.38l-7.21.79-21.42,61c-28.9.73-102.28-36.82-102.28-36.82Z"/><path class="cls-11" d="M423.47,393.6c5.34,0,6.72,11.8,15.61,24.8,12.48,18.24,31.71,27.1,47.21,31.78,0,0,13.14,2,20.87,19.55,9.6,21.78,32.87,47,32.87,47s-15.84,3.22-28.21-14.27c0,0,10.42,22.88,33.08,31.66,0,0-38.52,7.32-61-49.9,0,0,13.75,40.52,16.1,42.23,0,0-25.69-11.9-36.81-52.76,0,0,.45,13.36,10.5,39.18,0,0-29.74-23.13-32.32-56.74,0,0,5.91,43.68,11.39,47.79-9.24-5.86-41.85-28.08-44.85-63.52C406,418.41,415.73,393.61,423.47,393.6Z"/><path class="cls-2" d="M425.57,408.28C414.46,427.6,412,499,412.14,529.12c0,8.36.15,13.54.15,13.54-94.36,33.14-214.45,0-214.45,0,.62-5.27,2.67-10.38,3-15.35,6-79.58-19-120.34-19-120.34s92.54,20.64,125.81,16.75c0,0,64.42-.31,88.81-8.92Z"/><path class="cls-3" d="M226.15,550c-17.58-3.27-28.32-6.23-28.32-6.23.62-5.27,2.67-10.38,3-15.35,6-79.58-19-120.34-19-120.34s19.46,4.16,36,7.34C247.88,421.24,267.36,557.7,226.15,550Z"/><path class="cls-12" d="M390.06,454.43c6.63,14.75,13.68,47,15.85,74.73,1,12.37-69,27.42-56,25.72S390.06,454.43,390.06,454.43Z"/><path class="cls-13" d="M415.73,453.61s-11.55-64.8-61.26-17.82L329,461.42s-20.48,24-46-1.6L257.43,434.2c-49.71-47-60.16,16.58-60.16,16.58s5.12,69.36,2.91,79.64S413.46,534,413.46,534s-.6-69.82,2.27-80.41"/><path class="cls-14" d="M235.89,538.75c-24.87-.72-35.82-5.39-35.19-8.33,2.21-10.27-4.47-79.64-4.47-79.64s6.37-29.23,25-33.4Z"/><path class="cls-15" d="M329,463.38s-20.48,23.39-46-1.56c0,0-60.55-82.92-71.93,68.86-2.59,34.58,190.44,41.38,189.44-.73C396.82,376,329,463.38,329,463.38"/><path class="cls-12" d="M225.93,457.37c-6.23,14.47-12.87,46.1-14.91,73.31a18.78,18.78,0,0,0,1,7.94,16.55,16.55,0,0,0,3.89,6.25c2.63,2.46,6,3.08,17.26,3.13,12.81.05,12.43-.74,16,0,9.62,2,15.73,8.44,16.07,8,.48-.63-7.24-6.91-7.24-6.91C245.76,539.36,231.81,516.43,225.93,457.37Z"/><path class="cls-16" d="M365.65,501.33,347,516.68l-8.66-7.94a93.77,93.77,0,0,1-63.17,0l-8.25,6.49L248.41,501.4l17.93,9.44,9.1-5.46a79.17,79.17,0,0,0,63.43-.26l8.58,7.54,18.21-11.33"/><path class="cls-17" d="M413.46,529.4c-112.49,29.81-213.28,1.17-213.28,1.17l-3.12,15.21s125.46,31.33,217.61-.9Z"/><path class="cls-14" d="M281.72,475.81c-4.13,10.2-20.36,11.53-21.6,11.61-17.9,1.24-39.1-13.05-38-30,.71-11.28,11.11-21.73,22-23.51C265.62,430.36,287.85,460.67,281.72,475.81Z"/><path class="cls-18" d="M282.25,478.21c-4.06,9.88-18.79,13.18-32.9,7.38s-22.25-18.52-18.18-28.39S250,444,264.06,449.82s22.25,18.51,18.19,28.39"/><path class="cls-7" d="M247.36,448.32c-1.18,1.35-.94,3.39-.52,6.89a31.05,31.05,0,0,0,1.14,5.42c5-1.66,8.4-.91,10.16-.3,2.33.81,2.74,1.72,2.87,2.18.45,1.71-1.39,3.46-1.48,3.53l-9.89,1.87c.53,1.89,2.16,6.91,6,9.17,4.37,2.56,12.58-2.14,16.27-8.33,2.28-3.83,4-10.18,1.27-13.59-.89-1.12-2.28-1.94-5.06-3.58a32.55,32.55,0,0,0-4.8-2.43,28,28,0,0,0-9.44-2C250.37,447.07,248.5,447,247.36,448.32Z"/><path class="cls-19" d="M187.48,412.87s116.34,46.7,225.87,7.28c0,0,15.18-3.41,17.26-25.47s-201.49-19.51-253.93-8.19C176.68,386.49,168.73,399.25,187.48,412.87Z"/><path class="cls-20" d="M215.27,421.81a282.13,282.13,0,0,1-27.79-8.94c-18.75-13.62-10.8-26.38-10.8-26.38,9.23-2,23.15-3.72,39.81-5.08A128.78,128.78,0,0,0,215.27,421.81Z"/><path class="cls-21" d="M430.61,394.68c-2.08,22.06-17.26,25.47-17.26,25.47A253.42,253.42,0,0,1,389,427.54c2.06-13.23,3.71-30.23,2.33-46C415.42,384.19,431.2,388.45,430.61,394.68Z"/><path class="cls-22" d="M389,427.54A273,273,0,0,1,358,433.37c3.19-14.25,6.95-35.34,6.5-54,9.66.55,18.69,1.27,26.77,2.15C392.68,397.31,391,414.3,389,427.54Z"/><path class="cls-23" d="M358,433.37a310.45,310.45,0,0,1-36.33,2.56c3.78-15.72,7.9-38.85,5.48-57.83,13,.2,25.65.62,37.34,1.27C365,398,361.21,419.12,358,433.37Z"/><path class="cls-24" d="M321.7,435.93a359.74,359.74,0,0,1-40.53-1.81c-2.53-15-4.71-36.66-1.19-55.82,15.7-.35,31.72-.42,47.2-.2C329.6,397.08,325.48,420.22,321.7,435.93Z"/><path class="cls-22" d="M281.17,434.12c-12.83-1.3-24.82-3.16-35.65-5.25-2.58-13.45-4.67-31.94-1.63-49.26,11.53-.59,23.71-1,36.09-1.31C276.46,397.46,278.64,419.07,281.17,434.12Z"/><path class="cls-21" d="M245.52,428.87c-11.52-2.23-21.73-4.72-30.25-7.07a128.78,128.78,0,0,1,1.22-40.4c8.5-.69,17.72-1.3,27.4-1.8C240.85,396.93,242.94,415.42,245.52,428.87Z"/><path class="cls-20" d="M208.89,404.52c.19,1,7.22.37,8.45.26,10-.86,18-3.49,38.38-10.09a34.59,34.59,0,0,1,13.63-2.12,31.78,31.78,0,0,1,9.71,2.19q5,2,10.28,3.92c6.07,2.21,14.86,5.24,19.4,6.48,28.63,7.82,61.74-8.09,61.5-9.11-.09-.38-5.08.26-9.54,1.61a39.12,39.12,0,0,0-5.87,2.32l-36.52-.53-28.72-8.7L266,383.85c-6,2.59-14.72,6.16-25.48,9.88C222.46,399.94,208.62,403.14,208.89,404.52Z"/><path class="cls-20" d="M429.91,399.44a30.9,30.9,0,0,1-9.12,1.29,33.26,33.26,0,0,1-19.84-7.22,21.87,21.87,0,0,0-6.81-2.66,22.8,22.8,0,0,0-13.42,1.44,96.87,96.87,0,0,1-34.44,12l8-5.57,11.18-5.07,14-5.72,8.56-2.34,17.17,3.38,8.84,4.68,19.11,2.12-3,1.84Z"/><path class="cls-25" d="M434.79,397.56s-21.85-1.23-38-13.71-29.54,13.38-48.57,13.71S329.76,402.74,291,389s-62.56,8.66-71.07,9.65-11.14.78-11.14.78l5.82,3.84a48.18,48.18,0,0,1-12.1.59c-7.14-.56-23.29-1.82-28.73-13.66-3.52-7.67-2.2-19,4.21-24.17,6.25-5.05,13.9-1.43,37.38,1,10.4,1.09,19.11,1.43,25.19,1.56a74.38,74.38,0,0,1,32.86-1.15c9.12,1.82,14.85,4.93,18.76,6.64,5.6,2.45,42.39,11.92,70.76-1.4s49.39-15.07,65.5-6.3S434.79,397.56,434.79,397.56Z"/><path class="cls-26" d="M419.72,311.91c7.45-34.55-23.82-46.24-23.82-46.24,12.61-45.77-58.24-59.6-68.51-59.6s-17.92-16.81-17.92-16.81c3.27,9.34-65.37,20.13-65.37,20.13-29.43,8.17-40.87,52.78-40.87,52.78-23.12,25-6.3,48.34-6.3,48.34-20.09,20.55-16.37,44-16.37,44,12.13,17.36,255.56,4.4,255.56,4.4C440.83,321.32,419.72,311.91,419.72,311.91Z"/><path class="cls-27" d="M432,355.93a51.66,51.66,0,0,0-2.81-20.66c-7.31-20.59-25.74-29.58-30.23-31.62a74.59,74.59,0,0,1,7.78,1.41,73.49,73.49,0,0,1,9.35,2.89s4.69-29.43-34.19-47.64c0,0,26.27-2.45,41,28.73,0,0,4.52,7.52,3.5,22.42,0,0,21.4,8.38,12.8,49.9Z"/><path class="cls-28" d="M235.59,372.3c-.83,5.81-36.13,1.21-38.55,11-1.43,5.79,9.4,13.54,19.45,19.48,0,0-26.8,6.09-40.36-8.18,0,0-13.13-9.45-5.63-19a30.28,30.28,0,0,1,10-13.32C200.72,347.51,236.45,366.29,235.59,372.3Z"/><path class="cls-29" d="M184.3,352.75s-2.15-50.11,64.28-50.56c0,0-83.26-16.94-71.58,54.92Z"/><path class="cls-29" d="M213.4,301.68a23.48,23.48,0,0,1-8.94-10.1c-5.88-13.35,2.75-33.33,22.35-48.61a64.06,64.06,0,0,0-21.58,12.48,63.13,63.13,0,0,0-9.38,10.33s-22.89,24.63-3.15,45Z"/><path class="cls-27" d="M270.29,272.29s104.46-8.49,124.55,13.61c0,0,17.08-35.93-124.55-13.61"/><path class="cls-27" d="M255.65,315.36c24.22.42,44.91,1.54,61.1,2.71,36,2.59,51.12,5.44,61.1,7.67,11.75,2.63,21.38,5.51,28.12,7.7q4.77-6.29,3.5-11-6.11-22.65-153.83-7.11"/><path class="cls-29" d="M200.6,317s-24.4,36.34,55.06,30.41a92.64,92.64,0,0,1-29,9.48,91.66,91.66,0,0,1-12.52,1s-14.35-10.15-29.83-5.13c0,0-1.89-19.73,16.3-35.77"/><path class="cls-30" d="M225,295.77l-35.5,22.35L185.87,323l-2.06,13.19,6.65,8.87,12.74,2.31,44.94-11.13s19.43-10.4,20-10.62,6.18-6.68,6.18-6.68l2.32-9Z"/><path class="cls-30" d="M226.43,296.18s21.8-8.56,24-10.15S260,289.4,260,289.4s3.53-1.36,4.55.68,6.1,6.16,6.1,6.16l-.08,8,1.38,3.33-.79,4.09.45,5.08-6,5.22-2-.81,3.65-5.93-1.73-6.42-2.31-13-12.84-3.06-21.84,4.56Z"/><path class="cls-31" d="M213.47,306.66s17.91-13.66,33.25-16.09,13.46.45,13.46.45,6.21,3.19,7,5.82,2.82,6.51,1.81,9.27,3.5,7.91-2.15,13.38-11-.1-11-.1L244.61,318l-7.41,5.48-12-6.25Z"/><path class="cls-32" d="M218.3,304c27.13-9,36.82-9.3,40.1-7.34.41.24,2.63,1.67,3.16,1.13s-1.34-3.52-3-5.76a20.29,20.29,0,0,1-7.75-.12C248.76,291.49,241,293.76,218.3,304Z"/><path class="cls-33" d="M222.61,302.65s29.46-12.15,35.45-6.88.32-4,.32-4-4.6,2.46-7.11.84S222.61,302.65,222.61,302.65Z"/><path class="cls-30" d="M266.83,319.48a8.31,8.31,0,0,1-4,2.89q-5,2.13-10,4.23a4.42,4.42,0,0,0-2.22,1.78c-.92,1.52-2.55,1.82-4.1,2.15-2.41.5-4.85.88-7.28,1.32a9.48,9.48,0,0,0-5,2.64,65.83,65.83,0,0,1-8.66,6.48c-.69.47-1.31.37-2.09-.28-1.56-1.29-3.43-.69-5.14-.14a34.33,34.33,0,0,1-4.64,1.52c-3.15.55-6.28,1-9.39-.23a2.8,2.8,0,0,0-1.82,0c-3.7,1-7.43.59-11.16.21-2.2-.23-3.6-1.56-4.72-3.42-2.6-4.32-1.61-8.75-.65-13.22.73-3.38,3.28-5.43,5.72-7.39,6-4.83,12.22-9.44,19.52-12.26.07,0,.11-.11.22-.22a1.84,1.84,0,0,0-2.75-.54c-5,2.78-9.51,6.22-14.4,9.13-.53.31-1.11.54-1.66.8-1.68,1.11-3.57,1.91-4.91,3.51-2.34,2.8-3.28,6.21-4.18,9.62a28.2,28.2,0,0,0-.79,5.22c-.32,4.59,1.91,8,5,11.06,6.32,6.22,14.08,9.31,22.73,10.6,7.66,1.14,15.11.2,22.52-1.7,5.22-1.34,10.4-2.77,15.47-4.59a32.35,32.35,0,0,0,16.46-12.47,101.7,101.7,0,0,0,9.2-16.34c.1-.23.17-.48.3-.82Z"/><path class="cls-31" d="M248.12,317.64c-1.67-.42-3.34-.81-5-1.26a1.32,1.32,0,0,0-1.49.47c-1.2,1.29-2.49,2.49-3.7,3.77-.43.45-.74.48-1.21.1-1-.83-2.39-.51-2.58-1.48s1.38-2.54,2.26-3.44a12.75,12.75,0,0,1,1.07-.86c-1.1-.33-2.08-.64-3.07-.93-5.69-1.62-11.34-3.36-16.87-5.46a25.26,25.26,0,0,1-4.07-1.9,2.08,2.08,0,0,0-2-.15c-6.18,2.16-11.29,6.12-16.55,9.82a38.6,38.6,0,0,0-6.31,5.62,7.44,7.44,0,0,0-1.79,3,29.16,29.16,0,0,0-1.14,8.36,10.63,10.63,0,0,0,2.56,6.26,4.23,4.23,0,0,0,3,1.56c3.64.4,7.28.79,10.9-.15a4.62,4.62,0,0,1,2.74.13c3.8,1.34,7.51.57,11.14-.63,2-.66,3.88-1.46,6-1.29.66.05,1.42,0,1.8.64.52.82,1,.63,1.63.2,3.15-2.33,6.51-4.38,9.27-7.21a7.36,7.36,0,0,1,4.08-1.75c2.46-.48,4.95-.85,7.42-1.33,1.66-.32,3.25-.78,4.15-2.47a3.39,3.39,0,0,1,1.79-1.3c3.29-1.4,6.57-2.81,9.87-4.2a14,14,0,0,0,3.75-2.18l-4.92-.2c-3.34-.12-6.61-.82-9.91-1.22-.66.36-.31.64.09.88s.77.12,1.13.29,1.18.16,1.2,1a1.23,1.23,0,0,1-1,1.24,2.94,2.94,0,0,0-.79.46,23.45,23.45,0,0,1-5.06,3.08q-6.16,3-12.48,5.73c-4.71,2-9.51,3.64-14.81,3.07-3.33-.36-6.68.06-10,0a59.63,59.63,0,0,1-9.49-.69c-3-.58-5.35-2.36-7.46-4.49a2.3,2.3,0,0,1-.39-.53c-.21-.39-.54-.85-.08-1.18s.74.11,1,.4a11.09,11.09,0,0,1,1.25,1.37c1.65,2.48,4.11,3.25,6.92,3.51,3,.27,5.91-.07,8.86-.09s5.79-.5,8.69-.71c3.65-.28,6.24-.95,11.3-2,9.24-1.83,10.07-2.41,10.79-3.14,2-2.06,1.85-4.12,4.64-5.72,1.51-.87,4-1.67,3.89-2,0-.14-.51-.09-.83-.48A1.12,1.12,0,0,1,248.12,317.64Z"/><path class="cls-32" d="M246.18,319.63c-1.77,1.21-3.27,2.74-5,3.93a40.07,40.07,0,0,1-5.18,3,30.41,30.41,0,0,1-3,1.57,70.8,70.8,0,0,1-9.68,2.34c-1.61.32-3.29.36-4.91.74.08.47.48.48.82.57a30,30,0,0,0,7.44-1c1-.24,2.08-.36,3.12-.56a28.71,28.71,0,0,0,9.72-4.29c2.62-1.64,4.88-3.76,7.42-5.51a3.86,3.86,0,0,1,4.08-.59c1.67.76,1.71.66.71,2.19l.11.19c.58-.29,1.31-.3,1.72-.91.76-1.15,0-2.14-1.79-2.41-.41-.06-1.12.25-.77-.67C250,317.92,246.86,319.17,246.18,319.63Z"/><path class="cls-34" d="M250.27,307.73c-1.78-.37-4.51-1.22-5.92-1.54-1.88,1-2.47,2.28-4.16,3.65-.1.07-.22.27-.19.32a10.72,10.72,0,0,0,2.94,2.46c.64.48,1.12.18,1.6-.32C246.23,310.53,248.31,309.75,250.27,307.73Z"/><path class="cls-35" d="M213.6,354.27a21.6,21.6,0,0,1,2.94-.09c2.47.23,4.92-.19,7.39-.16a25.61,25.61,0,0,0,8.3-1.32c2-.66,4.23-.61,6.07-2a4.61,4.61,0,0,1,2.44-.4c2.5-.06,4.62-1.32,6.93-2,3.75-1.11,6.69-3.62,9.86-5.71,1.36-.89,2.18-2.47,3.25-3.74a15.64,15.64,0,0,1,2.19-2.52c1-.75,1.21-2,2.08-2.87,2.58-2.49,3.58-6,5.77-8.76.17-.21.35-.44.28-.71-.3-1.09.39-1.73,1-2.42.32-.35.75-.7.45-1.26s-.76-.12-1.16-.11a2.89,2.89,0,0,0-2,.83c-.15.14-.47.32-.55.27-1.29-1-2.28,0-3.23.56-1.7.91-3.89.52-5.34,2-2.16,2.13-5.2,2.63-7.64,4.24-1.11.73-1.94,1.82-3.33,2.25-.81.25-1.63.19-2.43.43a57.14,57.14,0,0,1-7.62,1.86,6.15,6.15,0,0,0-4.18,2.3c-1.21,1.77-3,2.65-4.54,3.91a32.26,32.26,0,0,1-5.83,3.27,1,1,0,0,1-1,0c-1.65-1.22-3.25-.47-4.92,0a11.94,11.94,0,0,0-4,1.51,1.59,1.59,0,0,1-1.76.21c-1.08-.78-2.11-.34-3.12,0a2.63,2.63,0,0,1-2.15,0c-1.05-.54-2.27.31-3.34-.32a2.88,2.88,0,0,0-2.14-.4,29.1,29.1,0,0,1-9.34.2c-.7-.08-1.38.12-2.1,0-2.49-.47-3.6-2.35-4.56-4.35-.31-.66-.88-1.06-1.22-1.67-.12-.21-.41-.43-.67-.22s-.06.51.14.65a2.85,2.85,0,0,1,1.12,2.5,3.48,3.48,0,0,0,.94,1.82c1.69,2.16,4.3,3.1,6.27,4.87a11.22,11.22,0,0,0,6.58,3.24c2.3,2.15,5.62,1.57,8.19,3a4.3,4.3,0,0,0,2.45.41,2.2,2.2,0,0,1,1.91.67C212.4,354.66,212.95,354.95,213.6,354.27Z"/><path class="cls-36" d="M199.38,350.06s7.17,1.73,8.72.9,5.08-3.76,7.17-3.31,10.5,4.76,12.53,1.72,1.06-5.14,3.9-4.64,7.84,4.51,9.5,3.07,3.11-6.23,6.81-6.9,5.84,1.73,6.86,1,1.43-5.49,4.5-6,6.14-4.34,6.14-4.34l2.5-2.18-5.35,9.84-5.24,4.95L253,346.62l-5.88,2.46-10.57,3.18L229,354.12l-3.68.65-12,1-10.54-2.53Z"/><path class="cls-37" d="M219.08,331.54l-.68-.32c-1.94-.08-3.83.41-5.76.46-4.85.13-9.71.81-14.55-.25a5.92,5.92,0,0,1-3.22-2.33,16.54,16.54,0,0,1-1.8-2.09,1.06,1.06,0,1,0-1.64,1.22c2.31,2.78,5,4.89,8.74,5.43a75.51,75.51,0,0,0,15.24.44c2.13-.12,4.28.18,6.43.22A22.14,22.14,0,0,0,232,332c1.24-.6,2.57-1,3.86-1.58a116.79,116.79,0,0,0,15-7.3,2,2,0,0,0,.92-.9h0a1.67,1.67,0,0,0-1.62.27c-4.48,2.68-9.4,4.43-14.05,6.75a58.86,58.86,0,0,1-9.79,3.65,17.05,17.05,0,0,1-6,.48c-3.87-.31-7.75,0-11.62-.11-.75,0-1.48-.24-2.24-.2,3.94.18,7.8-.65,11.7-.93A1,1,0,0,0,219.08,331.54Z"/><path class="cls-38" d="M224.87,312.73l-4.4-1.59a1.08,1.08,0,0,0-1.17.31c-1.58,1.32-3.19,2.62-4.84,3.87-.78.59-1.06,1,.07,1.47a5.49,5.49,0,0,1,.8.57c-1.44.12-2.65.26-3.87.3-.65,0-.82.27-.83.86,0,1.58-.05,3.17-.15,4.75,0,.65.18.76.75.66,2-.32,3.91-.64,5.87-.9.67-.09.8-.5.72-1-.25-1.7.69-2.79,1.78-3.88C221.35,316.42,223,314.63,224.87,312.73Z"/><path class="cls-38" d="M227,312.44l3.29-4.22c-2.6-1-3.55-.59-6.25,2.82,2.28.3,2,1.73,1.53,3.28-.33,1.23-.5,2.5-.77,3.74-.09.42-.08.63.45.65a22.27,22.27,0,0,0,4.8-.76c.44-.08.37-.38.31-.71-.23-1.25-.46-2.51-.65-3.77a.78.78,0,0,0-.79-.71C228.31,312.7,227.7,312.57,227,312.44Z"/><path class="cls-34" d="M230.67,314.39c1.58-.31,3.12-.62,4.66-.89a1,1,0,0,0,.92-.8,2.51,2.51,0,0,1,.14-.37c1.58-3.6,1.58-3.6-2.4-3.25a.9.9,0,0,0-.77.37A46.32,46.32,0,0,0,230.67,314.39Z"/><path class="cls-34" d="M240,317.7,235.23,316a.93.93,0,0,0-1,.09c-.79.6-1.59,1.18-2.65,2,1.68.72,3.16,1.35,4.63,2,.45.2.73,0,1.06-.26C238.14,319.13,239,318.49,240,317.7Z"/><path class="cls-33" d="M219.08,331.54c-1.57.45-3.22.2-4.81.54-2.8.6-5.65.47-8.49.64-.36,0-.84,0-.83.4s.48.26.8.27a55,55,0,0,0,6.65.24c4.13-.35,8.25.55,12.38-.14a25.53,25.53,0,0,0,3.28-.76c5.21-1.57,10-4.15,15-6.2,3-1.22,5.81-2.87,8.71-4.33.12-.13.21-.31.35-.37.57-.23,1.07-.57,1-1.24s-.77-.62-1.21-.87c-2.85-1.62-4.92,0-6.95,1.67-3.88,3.25-8,6.21-12.81,7.79a75.63,75.63,0,0,1-7.44,1.63C222.84,331.22,221,331.31,219.08,331.54Z"/><path class="cls-39" d="M223.72,312.7c-1-.39-1.87-.68-2.69-1a1.17,1.17,0,0,0-1.23.26c-1.47,1.18-2.94,2.38-4.51,3.65l3.08,2c-2,.17-3.76.35-5.52.45-.78,0-1.12.29-1.09,1.1a24.41,24.41,0,0,1-.08,2.64c-.06.75.21.92.93.78,1.3-.25,2.61-.41,3.92-.62.38-.06.89,0,.82-.61-.29-2.59,1.8-3.76,3.17-5.33C221.47,314.89,222.53,313.9,223.72,312.7Z"/><path class="cls-40" d="M229.11,317.3a1,1,0,0,0,.25-.08,7,7,0,0,0-.37-3.5c-.59-.51-1.4-.38-2.12-.46-.06,0-.19.18-.22.3-.26,1.25-.53,2.49-.76,3.75-.1.53.27.59.65.51C227.39,317.66,228.25,317.47,229.11,317.3Z"/><path class="cls-38" d="M229.18,308.38c-1.84-.31-2.21,1.47-3.42,2.06C227.22,311.35,228,310.9,229.18,308.38Z"/><path class="cls-38" d="M231.93,313.4c1.93-.17,3.63-.27,4.14-2.44.14-.59.13-.78-.5-.83-1.15-.09-2.17-.06-2.61,1.32A12.62,12.62,0,0,1,231.93,313.4Z"/><path class="cls-41" d="M238.25,317.91c-1.78,0-3.21-2-4.83,0C236,319.59,236.47,319.63,238.25,317.91Z"/><path class="cls-30" d="M270.6,297.85s7.05,8.49,6.09,12.18-4.42.95-4.42.95l-2.47-2.85.32-5.67-1.31-4.18Z"/><path class="cls-42" d="M272.56,320.37l-7.51,3.72-3.38.89L259,328.21s-5.56,1.72-5.9,2.59-4.18,3.69-5.38,3-9.48.57-9.48.57l-3,5.11s-5.06.7-6,2.41-4.55,2.66-7.35,2.28-11.37,1.49-11.37,1.49-10.46-.08-11.08,0-5.87-2.61-8.61-2.4-8.12-3.78-8.12-3.78l.52-10.12.94-5.3,4.51-8.11,10.76-7.58,3,.45,3.22-4.8,5.37.57a25.41,25.41,0,0,1,6.76-6.53,44.74,44.74,0,0,1,12.9-5.16l5.48-.58,4.19-4.38,3.85-.89s8.47-1.66,8.92-2.58,6.86,5,6.86,5l1.7-1.49,9.23,4.51,3.32,6.08,1.8,3.8c2.84,5.25,1.5,10.19-.83,11.23-1.84.82-4.84-.55-7.15-3.17a15.56,15.56,0,0,0,.5-9.36,16.26,16.26,0,0,0-8.35-10,73.38,73.38,0,0,0-46.72,15.65S197,311.5,186.85,325c-2.33,7,.38,13.74,5,15.77,3.71,1.62,7.64-.19,8.58-.65a36.16,36.16,0,0,0,19.12-.67,5.31,5.31,0,0,1,1.71-.73c1.76-.4,2.9.35,4,.53,0,0,2.18.38,10-7.45l14-3.09,2.22-2.31,10.65-4.58a6.89,6.89,0,0,0,2.11-.52c4.71-2,5.41-8.8,5.48-9.57,2.37-.85,4.82-.28,5.86,1.17C276.88,314.81,276,318.67,272.56,320.37Z"/><path class="cls-42" d="M268.7,311s1.17.49.69,2.35l5,1,2.32-2.32-4.43-1.59Z"/><path class="cls-30" d="M184.8,340.88a35.82,35.82,0,0,0,18,12.32h0l10.54,2.53a49.21,49.21,0,0,0,16,.25,49.75,49.75,0,0,0,21.25-8.58,195.06,195.06,0,0,1-21.25,3.9c-.85.11-9.5,1.16-14.56-.07-.58-.14-3.67-.94-6.89-2.08-2.34-.83-3.38-1.34-6.11-2.47-2.06-.86-5.08-2.07-8.86-3.44a11,11,0,0,1-2.79-.06A11.37,11.37,0,0,1,184.8,340.88Z"/><path class="cls-43" d="M176.13,394.59a23.32,23.32,0,0,1-4.63-5.79c-6.33-11.25-.83-24.15.19-26.44a28.91,28.91,0,0,1,12.61-9.61c14.85-5.64,28.62,4.23,29.83,5.13a67.45,67.45,0,0,0,12.52-1c10.93-1.92,17.38-5.88,22-7.7,13.31-5.31,25.94,1.36,38,4.66,29.67,8.12,44.85-1.16,77.77-9.49,16.46-4.17,52.2-4.87,78.12,20,0,0,9.11,17.45-7.71,33.21-.22-10.38,6.22-30.29-12.11-32.67s-38.22-.17-53.06,6c-23.51,9.72-23.51,7.89-29.47,9.24-15.18,3.42-37.81,3.38-69.43-13.16A68.64,68.64,0,0,1,251.86,373l-30.07.12s-29.08-21-43.79-6c0,0-7,12.92-1.87,27.44"/><path class="cls-28" d="M187.44,398.8c-3.32,2.61-14.5-3-18.9-12.33-3.55-7.54-2.35-16.82,3.14-24.11,0,0,14.44-20.56,40.36-5.73a8.91,8.91,0,0,0,4.88,1.16,86.72,86.72,0,0,0,9.13-1c9.28-1.47,29.39-9.88,29.59-9.44.11.25-5.77,3.27-13,8.48-2.22,1.6-4.47,3.33-5.89,6.36a16.69,16.69,0,0,0-1.42,6,17.59,17.59,0,0,0,.39,4.74c-5.25,1.41-4.81,1.75-14,.78a5.59,5.59,0,0,1-2.37-1.39,39.15,39.15,0,0,0-22.26-8.94,37.88,37.88,0,0,0-7.71.29,9.06,9.06,0,0,0-6.83,12.76C189.7,392.29,189.35,397.3,187.44,398.8Z"/><path class="cls-27" d="M210.33,256.29s7.6-10.29,14.39-11.55S237.32,252,237.32,252s8.22-13.6,18.1-6.25a33.59,33.59,0,0,1,12.17,18.1s9.21-15.23,14.87-10.27,3.23,1,3.23,1l8.67,14.27s.51-28,14.91-24.8,30.38,32.14,29.08,40.09,4.79,16.2,4.79,16.2L351,278.77s-11.53-50.17,7-25.18,10.28-16.92,10.28-16.92,11.33,1.28,19.8,14.06,3.7-18.41,3.7-18.41l-44.11-24.69H290.86l-80.4,22.61-.13,26.06"/><path class="cls-44" d="M304.87,179.43s-18.26,18.26-62.16,26.69-49.74,39.5-50.22,47.76.6,13.23,7.73,13.35,10.59-5.06,11.59-16.51,12.29-15.8,12.29-15.8,9.48-5.23,3.51,2.81-6.44,14.75-1.29,17.56,9.93-1.46,11-3.28,0-9.64,3.75-14,17.09-3,14.81,6.26-13.82,18.75-.7,23.41,16.26-12.6,18.26-16.58,9.83-12.8,9.13.72-5.27,34.07,5.62,31.78,5.09-19,5.09-19-6.32-14.93,3-24.41,13.54-.85,13,3.86-11.94,28.1,8.08,26.87,7.75-20.58,6.32-23.71-2.81-8.08,3-1.93,17,22.13,14.58,43.9,23.18,20.9,24.41,3.34S347.11,247.23,345.78,246s-7-18.79,6.5-6.67c0,0,3.33,1.63,3.86,9.83S376,281,376.68,253.59c0,0,.6-6.31-6.88-21.59,0,0-5.23-8.67,3.2-3.58s13.13,17.24,15.1,22.3,1.23,22.3,16.33,20.55S415.29,245,412,239.48s-9.66-26.16-68-38.45c0,0-25.81-6.85-39.16-21.6"/><ellipse class="cls-45" cx="255" cy="462.61" rx="9.48" ry="5.24"/><path class="cls-13" d="M333.13,475.82c3.29,8.14,14.34,11.39,21.6,11.61,19.51.61,39.42-19.74,35.51-36.29-2.07-8.75-10.67-15.92-19.52-17.27C349.65,430.68,326.92,460.44,333.13,475.82Z"/><path class="cls-18" d="M331.3,478.21c4.06,9.88,18.79,13.18,32.9,7.38s22.25-18.52,18.18-28.39-18.79-13.18-32.9-7.38-22.25,18.51-18.19,28.39"/><path class="cls-12" d="M381.52,475.45a98,98,0,0,1-16.77,63.6,92.74,92.74,0,0,0,17.57-3.12,65.86,65.86,0,0,1,8.7-2.16c4.24-.7,6.95-.6,9.45-1.18,2-.46-4-66.85-10.08-72.06a38.15,38.15,0,0,1-8.87,14.91Z"/><path class="cls-7" d="M365.8,447.28c.73.7.76,1.72.55,4.71-.16,2.36-.44,5.55-.94,9.37-5-1.66-8.4-.91-10.16-.3-2.33.81-2.74,1.72-2.87,2.18-.45,1.71,1.39,3.46,1.48,3.53l9.89,1.87c-.53,1.89-2.16,6.91-6,9.17-4.39,2.57-12.46-2.4-16.27-8.33C339,465.7,337,459.42,339.55,456a13.32,13.32,0,0,1,2.94-2.48,30.64,30.64,0,0,1,5.93-3.29,34.58,34.58,0,0,1,4.7-1.75,38.27,38.27,0,0,1,5.17-1.06C362.7,446.77,364.92,446.44,365.8,447.28Z"/><ellipse class="cls-45" cx="360.63" cy="463.78" rx="9.48" ry="5.24"/><path class="cls-2" d="M335,460s12.61-20,23.07-26.67L341,440l-7,12.48,1,7.56"/><path class="cls-2" d="M525.15,611.78c-41.13,8.08-53.08-38.2-46.53-37.61S451.94,541,446.84,536.38s-35.13-7.62-35.13-7.62l-8.75-19a6.08,6.08,0,0,0,5.38-2.4,5.84,5.84,0,0,0,4.59-6.7c17.83,5.38,44.66,13.72,51.17,17.11,10,5.19,60.64,39.54,69.07,49.05C536.49,570.58,566.29,603.7,525.15,611.78Z"/><path class="cls-2" d="M450.37,514.67a167.94,167.94,0,0,0-25.1-7.69c-5.36-1.12-9.92-1.74-13.21-2.11a23.39,23.39,0,0,0,.68-11.65l50.2,16.34c21.16,10.41,76.26,40.21,82.7,80.83a49.94,49.94,0,0,1,.62,7.31C502.87,548.83,463.77,520.05,450.37,514.67Z"/><path class="cls-46" d="M533.18,566.76c-1.18-2.24,11,12.25,13.09,22.65,1.86,9.19-1.82,18.49-21.12,22.28a45.72,45.72,0,0,1-17,.54S555.61,609.39,533.18,566.76Z"/><path class="cls-3" d="M413,522.14s25.39,2.41,34.75,6.66c0,0,36.39,26.2,40.55,29.92,0,0-1.48.44-4.68,5.27h0l-15.37-4.56-41.72-28.72-13.09-1.31-.44-7.26"/><path class="cls-2" d="M157.08,531.62c4.78-4.27,4.78,40.38,4.32,50.53,3.54,8.44,9.59,14.86,20.06,14.66a41.21,41.21,0,0,0,5.69-.53A60.82,60.82,0,0,0,191,589c4.11-10.48,18.5-70.66,17.8-84-.28-5.22-2.38-51.74-43.45-33.89S152.08,536.09,157.08,531.62Z"/><path class="cls-2" d="M186.92,596.31a60.57,60.57,0,0,0,11.26-3c9.8-24,28.27-79.12,1.82-116.13a66.09,66.09,0,0,0-5.46-6.67C206.35,534.06,199.52,572.36,186.92,596.31Z"/><path class="cls-3" d="M154.39,477.79s-10.48,54.75,10.31,47.34c0,0,3.77,41.33.78,52.51,0,0,.28,13.77,8.52,18a24.78,24.78,0,0,1-12.6-13.49s1.94-43.11-3.49-50.78c0,0-2.93,3.3-7.37-4.72h0l-5.76-13.13S137.84,489.58,154.39,477.79Z"/><path class="cls-28" d="M434.79,397.56s-17.51,4.2-31.54-5.6c-11.42-8-24-2.5-28.26-.19-1.31.7-2.64,1.37-4,1.95-29.46,12.43-48.1,10.56-59.91,6.18-6.36-2.37-15.41-7.22-30.46-9.42-7.22-1.06-15.71-2.29-26.26-.28-13.62,2.6-15.66,7.77-32.58,11.59-2.46.56-4.8,1.08-7.16,1.48l-5.82-3.84s2.62.22,11.14-.78S252.3,375.27,291,389s38.21,8.89,57.24,8.56,32.44-26.19,48.57-13.71S434.79,397.56,434.79,397.56Z"/><path class="cls-20" d="M424.92,411.5S363,457.21,195.75,415.85c0,0,42.54,17.32,111.28,20,0,0,78,1.43,111.19-18A17.28,17.28,0,0,0,424.92,411.5Z"/><path class="cls-13" d="M415.54,454.43c-2.22-15.72-11.7-26.55-14.36-29.32a7,7,0,0,1-.83.37l0,0c-1.93,15-9.94,35-9.94,35,8.51,6.9,10.46,72,10.46,72l12.61-3.11C411.38,507.55,415.54,454.43,415.54,454.43Z"/><path class="cls-47" d="M414.56,261.84c-1.19.95-5.29,4.14-8.58,2.92-4.27-1.57-6.52-10.33-3.35-21.77,0,0-.22-15-20.75-30.18,1.11.82,18.74,6,28.83,24.27A38.11,38.11,0,0,1,414.56,261.84Z"/><path class="cls-47" d="M365.11,226.91a54.19,54.19,0,0,1,10.14,25.29c.64,5.49-2.32,9.77-5.66,10.31a6.6,6.6,0,0,1-5.65-2.39,8,8,0,0,1-.84-8.9,18.91,18.91,0,0,0,4.34-7.06C370.27,235.75,365.9,228.22,365.11,226.91Z"/><path class="cls-47" d="M340.54,245.76a110,110,0,0,1,11.59,43.77q1.5,14.09,4.66,14.47,1.94.23,4.49-4.68a55.4,55.4,0,0,0-.73-22.86C356.31,259.25,344.85,249.18,340.54,245.76Z"/><path class="cls-47" d="M320.56,241.92s12.93,27.69,1.3,26.3C321.86,268.22,307.83,270.73,320.56,241.92Z"/><path class="cls-47" d="M286.88,278.73c.93.84,2.16,1.67,3.18,1.33,5.26-1.75-.41-32.57-1.44-32.48-.7.06.3,14.13-1.95,20.47a17.87,17.87,0,0,0-.89,4,11.31,11.31,0,0,0,.58,5.56A10,10,0,0,0,286.88,278.73Z"/><path class="cls-47" d="M257.91,265.82a8.3,8.3,0,0,1-2.6-4.53c-1-5.94,5.87-13.48,17.55-18.13A37.8,37.8,0,0,1,269,259.44c-1.76,3.42-3.32,4.9-5.12,5.74A9.93,9.93,0,0,1,257.91,265.82Z"/><path class="cls-48" d="M230.5,253.55a9.69,9.69,0,0,1-2.92-6.17c-.27-5.57,5.58-11.68,14.84-13.73a11.43,11.43,0,0,0-3.38,3c-2.42,3.26-2.57,7.33-2.62,9.28-.08,3.48.68,4.68-.29,6C235,253.51,232.51,253.68,230.5,253.55Z"/><path class="cls-48" d="M206.54,262.38a4.39,4.39,0,0,1-6.24-4.26,32.17,32.17,0,0,1,1.74-8.79c5.23-14.95,19.91-20.75,22.62-21.77a24.34,24.34,0,0,0-10.45,8.82c-.86,1.33-5,7.81-4,14.85a13.22,13.22,0,0,1,.13,5.07c-.27,1.37-.9,4.56-3.7,6Z"/><ellipse class="cls-49" cx="409.75" cy="258.83" rx="7.87" ry="5.37" transform="matrix(0.15, -0.99, 0.99, 0.15, 92.57, 625.28)"/><ellipse class="cls-49" cx="358.26" cy="294.6" rx="6.67" ry="3.79" transform="translate(13.42 604.81) rotate(-81.4)"/><ellipse class="cls-49" cx="371.02" cy="254.39" rx="5.91" ry="3.79" transform="translate(64.04 583.22) rotate(-81.4)"/><ellipse class="cls-49" cx="322.36" cy="262.57" rx="4.81" ry="4.36" transform="translate(33.82 561.91) rotate(-85.22)"/><ellipse class="cls-49" cx="290.86" cy="275.44" rx="4.12" ry="1.81" transform="matrix(0.15, -0.99, 0.99, 0.15, -24.96, 521.86)"/><ellipse class="cls-49" cx="264.04" cy="259.87" rx="6.26" ry="4.23" transform="translate(-105.23 289.67) rotate(-49.16)"/><ellipse class="cls-49" cx="233.45" cy="249.75" rx="5.23" ry="3.25" transform="matrix(0.26, -0.97, 0.97, 0.26, -68.61, 409.87)"/><ellipse class="cls-49" cx="207.13" cy="255.09" rx="5.73" ry="3.26" transform="translate(-76.06 421.77) rotate(-81.4)"/><path class="cls-47" d="M278.81,200.21a223.16,223.16,0,0,1,70.57,11.7c-4.88-3.53-20.54-14.21-38.21-15.6a96.58,96.58,0,0,0-16,.39A87.86,87.86,0,0,0,278.81,200.21Z"/><path class="cls-14" d="M222,424.39,220.76,446l2.62,3.8,15.53-6.4,10.78-4.19L267,444s-12.84-13.07-13.92-13.72c0,0-30.19-5.48-31.1-6.67Z"/><path class="cls-2" d="M271.35,448.44a29.6,29.6,0,0,0,6,11c.59.68,1.17,1.28,1.7,1.8a14.88,14.88,0,0,0,3.89,7.2,21.1,21.1,0,0,0,5.78,3.77,34.85,34.85,0,0,0,4.75,2,35.58,35.58,0,0,0,12.23,1.71c2.5.3,12.45,1.2,21.1-5.46a27.37,27.37,0,0,0,7.61-9.18s3.64-8.83,7.44-12.79Z"/><path class="cls-2" d="M278.85,460.54s-20.76-26.91-25.8-30.29l22.45,10.14Z"/><path class="cls-50" d="M426.55,563S188.06,515.53,4.08,523.84c0,0,3-4.51,21.95-10.7,40.53.88,84.14,2.85,130.37,6.38a2337,2337,0,0,1,274.3,37.23Z"/><path class="cls-51" d="M244.13,528.8S127.46,513.89,13.65,517.86L26,513.13s77.55-6.8,221.09,9Z"/><path class="cls-51" d="M433.43,560.6l4-7.7c-37.59-8-80.09-15.78-127.09-22.61-43-6.24-83.15-10.7-119.74-13.89-24.49-1.95-51.78-3.46-81.43-4.07-30.39-.62-58.24-.2-83.12.8,42.31,1.3,87.63,3.69,135.54,7.6a2611.4,2611.4,0,0,1,269.13,36Z"/><path class="cls-51" d="M27.43,517.47s-9.21,2.85-12.8,6l-10.55.41A53.24,53.24,0,0,1,26,513.13Z"/><path class="cls-52" d="M435.87,553.06c1.42-1.69,9.43,0,41.25,8.8,12.41,3.42,18.61,5.14,27.57,7.76,10.68,3.13,21.51,6.3,35.47,10.92,8.35,2.76,19.23,6.5,31.85,11.25,3,1.87,4,4.75,2.74,7.07-1.61,2.84-6,3.35-6.3,3.39l-8.5-2.65c-1.05-.33-15-4.65-24.68-7.49-12-3.54-21.3-6-33.47-9.18-14.48-3.8-26.39-6.93-42.15-10.48-5.61-1.26-21-4.67-21-4.67h0l-3.27-4.23,2.29-6.73C435.4,554.52,435.46,553.54,435.87,553.06Z"/><path class="cls-52" d="M420,579.64l16.94-44.38,8.51,15.36-8.87,22.52Z"/><path class="cls-52" d="M436.91,535.26,423,549.91l10.13,1.94Z"/><path class="cls-52" d="M420,579.64,426.55,563,420,561.77,418.78,580Z"/><path class="cls-53" d="M442.25,558.68s114.27,29.56,132.94,39c0,0,2.26-1.25-3.18-5.91a1143.94,1143.94,0,0,0-127.67-38.41Z"/><polygon class="cls-54" points="428.76 551.02 434.58 545.46 435.38 552.48 445.42 550.61 436.92 535.25 422.98 549.91 428.76 551.02"/><polygon class="cls-54" points="436.56 573.13 445.42 550.61 435.38 552.48 429.95 568.79 423.31 570.9 418.78 580.04 436.56 573.13"/><polygon class="cls-54" points="423.31 570.9 423.77 562.49 420.04 561.77 418.78 580.04 423.31 570.9"/><path class="cls-3" d="M477,576.53s4.76,38.67,59.75,36.27c0,0-32.22,5.62-54.71-10.77a63.29,63.29,0,0,1-5-25.49"/><path class="cls-3" d="M382.14,639.36s-3.47,31.14,11.42,37.54c0,0-11.14-2.28-11.77-2.82s-7.75-2.52-7.66-35.38Z"/><path class="cls-55" d="M171.68,362.36s14.89-9.71,32.8-3.44a43.15,43.15,0,0,0,24,1.25c8.48-2,18.75-5.7,27.18-12.76a43.84,43.84,0,0,0-7,.58c-9.42,1.55-12.93,5.32-21,6a29.81,29.81,0,0,1-8.76-.56,92.89,92.89,0,0,0-14.69-2.21c-8.13-.57-13.69-1-19.91,1.52A30.67,30.67,0,0,0,171.68,362.36Z"/><path class="cls-3" d="M429.95,630.1s58.83,31.63,121.38,2.38c0,0-55.05,40.2-124.53-.63"/></svg>