<svg id="Layer_1" data-name="Layer 1" xmlns="http://www.w3.org/2000/svg" viewBox="0 0 595.28 677.89"><defs><style>.cls-1{fill:#d4fffe;}.cls-2{fill:#a5f9f1;}.cls-3{fill:#edc23a;}.cls-4{fill:#3b65af;}.cls-5{fill:#325c8e;}.cls-6{fill:#7dcaf4;}.cls-7{fill:#142e50;}.cls-8{fill:#1a395b;}.cls-9{fill:#ddb237;}.cls-10{fill:#2a5177;}.cls-11{fill:#2c5084;}.cls-12{fill:#ffc943;}.cls-13{fill:#305b8e;}.cls-14{fill:#6cc0e5;}.cls-15{fill:#85daff;}.cls-16{fill:#527fc1;}.cls-17{fill:#fff;}.cls-18{fill:#dbdbdb;}.cls-19,.cls-34{fill:#417cb5;}.cls-20{fill:#666;}.cls-21{fill:#484848;}.cls-22{fill:#565656;}.cls-23{fill:#10263d;}.cls-24{fill:#3d65ae;}.cls-25{fill:#5b5b5b;}.cls-26{fill:#d3a344;}.cls-27{fill:#eab54b;}.cls-28,.cls-37{fill:#66a7dd;}.cls-29,.cls-32{fill:#38659b;}.cls-30{fill:#3874a5;}.cls-31{fill:#e6fffe;}.cls-32,.cls-33,.cls-34,.cls-35,.cls-36,.cls-37,.cls-38,.cls-39{fill-rule:evenodd;}.cls-33{fill:#2d567f;}.cls-35{fill:#336e9e;}.cls-36{fill:#fec735;}.cls-38{fill:#fefcef;}.cls-39{fill:#fdfcf8;}.cls-40{fill:#dbb037;}</style></defs><title>wippo</title><path class="cls-1" d="M447.1,572.15s14.44,43.29,12.27,78.65c0,0,39-31,41.85,28.14H428.67l-23.43-98.13Z"/><path class="cls-2" d="M421.63,603s5.24,52.09,16.82,59.31c0,0,15.24,18.76,62.11,8.66l.66,7.94H428.67L411,601.36l10.6,1.68"/><path class="cls-1" d="M253.27,572.87S238.84,616.16,241,651.52c0,0-39-31-41.85,28.14H271.7l23.42-98.13Z"/><path class="cls-2" d="M278.74,603.76s-5.24,52.09-16.82,59.3c0,0-15.24,18.76-62.11,8.66l-.66,7.94H271.7l17.65-77.57-10.6,1.68"/><path class="cls-1" d="M239.79,380.2s-48.42-6.76-82.85,34.84c0,0-31-17.65-37.53-17.22-2,.13-3.25-5.71-5.33-12.95C100.51,398,84.71,408.4,68.93,418.75a88.5,88.5,0,0,0,17.68,13.58,327.24,327.24,0,0,0,63.13,26.08,329.1,329.1,0,0,0,102.52,13.25Z"/><path class="cls-3" d="M135.18,403.82s4,32.7-26.78,38.19l-16.82-7.4s27.93-7.81,27.82-36.8Z"/><path class="cls-2" d="M228.68,379.85c-39.28-3.45-71.57,35.41-71.57,35.41l4.92,8.68c20.8-13.29,67.08-12.72,67.08-12.72l-.43-31.37"/><path class="cls-2" d="M168,432.14a77.05,77.05,0,0,0-32.66-22.47l-.11-5.85S145,408.3,156.94,415c0,0,10.34,10.74,11,17.11"/><path class="cls-3" d="M90.16,434a3,3,0,0,0,.55,1.31l16.18,7.14,1.51-.41Z"/><path class="cls-3" d="M135.18,403.82s.49.34-.42-1.69c0,0-14.71-5.13-15.49-5.14l.14.82Z"/><path class="cls-1" d="M477.55,458.5a79.15,79.15,0,0,0,5.81,16.27c11.81,24.27,33.16,36.13,43.31,40.87-1.24,15.24-5.07,32.27-16.74,37.75-12,5.62-24.26-4.69-33.7,1.62-5.51,3.69-10,13-6.65,37,1.87,5.84,5.48,13.5,12.78,17.71,18.42,10.63,47.7-8,62.49-24,20.31-22,22.11-49.24,23.61-64.41,5.54-56-25.89-96.38-33.32-105.45Z"/><path class="cls-3" d="M515.55,537.42c2-.29,18.27-2.32,30.5,9.65a36.2,36.2,0,0,1,10.45,22.49L547,583.35a36.53,36.53,0,0,0-7.6-16.46c-10.65-12.91-26.74-13.45-29.44-13.5Z"/><path class="cls-2" d="M482.35,458.12c-7,15.43,14.43,36.4,18.72,40.6a78.7,78.7,0,0,0,25.83,16.74l8.62-5c-11.69-9.44-29.74-27.34-35.31-54a80,80,0,0,1-1.44-10.08C486.75,449.78,483.35,455.91,482.35,458.12Z"/><path class="cls-2" d="M543.63,504.41c.3.38-4.29,3.95-8.44,8.68a58.46,58.46,0,0,0-12.44,24.1l-6.93.15q1.4-3.09,2.91-6.24,3.89-8.11,7.93-15.47C540.1,506,543.39,504.11,543.63,504.41Z"/><path class="cls-2" d="M522.58,555.61c-18.91-1.12-36.06,7.44-43.74,22-5.52,10.47-4.49,20.92-3.71,25.6-.66-.85-8-10.59-7.51-22.46,0-.56.39-2.46.81-5.6.35-2.58.54-4.32.6-4.88.37-3.08,1.68-8.63,3.81-11.93,5.09-7.87,19.87-9.21,27.07-7.2a66.37,66.37,0,0,0,9.47,2.09c2.2.32,4,.47,5.26.54Z"/><path class="cls-3" d="M546,584.44a1.16,1.16,0,0,0,.49.18,1.25,1.25,0,0,0,.9-.28l9.22-14.19-.2-1.22Z"/><path class="cls-3" d="M509.95,553.34l5.79-15.8s.33-.5-1.68.44c0,0-4.4,13.15-4.88,15.26C509.44,553.27,509.69,553.3,509.95,553.34Z"/><path class="cls-4" d="M361.07,569.5c1.35,14,44.59,37.61,44.59,37.61,118.22,22,50-107.41,50-107.41l-116.2,13.24L243.79,502S173.26,631.4,291.48,609.44c0,0,68.24-26,69.59-39.93"/><path class="cls-5" d="M253.72,516.46s-66.55,106.78,46.63,89.45h0S182.09,646.37,239,513.08h0l14.71,3.39"/><path class="cls-6" d="M294.44,509.77s-13.67,34.28-29.37,59.16c-2.35,3.73,28.06,3.8,52.09,7.15,18.31,2.55,33.94,4.57,33.94,4.57s76.24-8,85.4-9.41c11.22-1.73-26.86-61.46-26.86-61.46H294.44Z"/><path class="cls-2" d="M300.48,517.75s-13.15,32.54-22.27,46.76c-2,3.05,34.45,1.67,54.22,4.42,15.06,2.1,18.43,7.11,18.43,7.11S396.37,561.94,423,564.5c13,1.25-20.2-46.76-20.2-46.76H300.48Z"/><path class="cls-7" d="M316.67,498.61c15.07,28.17-7.88,84-19,114.42-4.52,12.42,82.39,7.09,95.21,4.61s-.43-105.8-9.74-119S298.58,464.79,316.67,498.61Z"/><path class="cls-8" d="M324.25,516.89c12,22.37-6.25,66.71-15,90.86-3.59,9.86,65.43,5.64,75.61,3.66s-.34-84-7.73-94.52S309.88,490,324.25,516.89Z"/><path class="cls-9" d="M239,482.87v30.21s120.32,32.25,222.46,0l3.93-35.32L239,482.87"/><path class="cls-10" d="M191.15,376.38s5-30.61,10-40.28,11.94-27.64,11.35,20.14l0,20.14Z"/><path class="cls-11" d="M518.93,381s-5-30.61-10-40.28S497,313.06,497.6,360.85l0,20.14Z"/><path class="cls-9" d="M304.63,376.39s-83.53,16.12-128.07-37.63c0,0-42.24-44.54-9.22,76,0,0,46.81,111.35,149,40.7Z"/><path class="cls-12" d="M406.14,377.16s83.53,16.12,128.07-37.63c0,0,42.24-44.54,9.22,76,0,0-46.81,111.35-149,40.7Z"/><path class="cls-3" d="M176.56,338.76s-42.24-44.54-9.22,76c0,0,46.81,111.35,149,40.7l-3.48-23.58S186,502.59,176.56,338.76Z"/><path class="cls-3" d="M534.07,338.76s42.24-44.54,9.22,76c0,0-46.81,111.35-149,40.7l3.48-23.58S524.59,502.59,534.07,338.76Z"/><path class="cls-1" d="M212.48,274.05S253,296.38,239,482.87a343.1,343.1,0,0,0,71.21,16.47c66.14,8,120.91-5.11,154.61-16.44.58-28.15,2.5-58.72,6.4-91.29a930.35,930.35,0,0,1,25.39-131.22Z"/><path class="cls-13" d="M242,428.24l-1.49,32.61S278.26,528,355.48,483.13c0,0,49.7,48.32,110.76-21.64l2.11-32.29-97.88,22.24-77.58.55Z"/><path class="cls-6" d="M240.79,372.16H263.2s18,47.1,72.65,4.76h41.22s43.78,38.22,75.11,1.1h20.4L480,332.34l-243.26.25Z"/><path class="cls-14" d="M284.82,387s24.17,13.07,44.32-21.25l17.46,11.14-10.76,0s-25.13,20.76-43.37,17.86Z"/><path class="cls-14" d="M269.25,344.37c-7.09,7.83-2.27,22.46,1.73,29.52,9.58,16.91,30.8,19.19,33.82,19.47,0,0-27.63,9.62-41.6-21.19H240.79l-3.08-30.68,21.31-4.8,17.9,3.37A15,15,0,0,0,269.25,344.37Z"/><path class="cls-15" d="M432,384.74s-24.17,13.07-44.32-21.25l-17.51,13.28,6.88.16A65.26,65.26,0,0,0,405.18,392a63.93,63.93,0,0,0,19,1.73Z"/><path class="cls-15" d="M447.6,342.12c6.93,7.66,2.68,21.87-1.73,29.52-4.84,8.41-12,12.69-16.71,15.46a57.16,57.16,0,0,1-15.69,6.39,38.1,38.1,0,0,0,18.47-1.19,43,43,0,0,0,15.75-9.71,51.89,51.89,0,0,0,4.49-4.55h20.4l6.56-38.78-21.31-4.8-17.89,3.37A15,15,0,0,1,447.6,342.12Z"/><path class="cls-16" d="M468.51,424.12s-23.53,7.6-46.12,5.63l18.78-17.14L402.32,400.2c-11.7-17.13-31.38,0-31.38,0l-14.47-1.94-14.4-1.93c-.25,13.89-1.74,60.12,8.95,59.57,26.08-1.33,38.56,10.62,38.56,10.62,11,12.7,24.61,2.38,24.61,2.38,13.66-4.49,32.54-21,54.17-39.7Z"/><path class="cls-16" d="M241.63,429.2c21.63,18.65,40.51,35.21,54.17,39.7,0,0,16.43,11.1,24.61-2.38,0,0,12.47-12,38.55-10.62,10.69.55,9.19-45.68,8.95-59.57l-14.4,1.93L339,400.2s-19.68-17.13-31.38,0L270.78,413l16.81,16.75c-22.59,2-46.12-5.63-46.12-5.63Z"/><path class="cls-7" d="M376.23,422.94s23.76-3.76,21.7,4.48c0,0-.75,19.31-23.49,0Z"/><path class="cls-7" d="M334.05,422.94s-23.76-3.76-21.7,4.48c0,0,.75,19.31,23.49,0Z"/><path class="cls-13" d="M342.41,427.42s-18.81-16.25,0-37.24c0,0,14.43-12.25,27.56,3.5,0,0,15.75,25.5-5.25,33.75Z"/><path class="cls-17" d="M324.48,409.56a41.44,41.44,0,0,0,19.58,12.31c14.83,4.16,27.07-1.6,30.09-3.13l12-9.18s-1,35.6-44.18,25.67C342,435.23,321.85,428.95,324.48,409.56Z"/><path class="cls-18" d="M329.91,427.42a50.88,50.88,0,0,0,49.3,0s-6.32,10.28-24,9.55C355.19,437,336.29,437.18,329.91,427.42Z"/><path class="cls-11" d="M279.24,342.54s-17.81,5.58-20.32,13-37,.56-7.18-17.13h0s22.91-2.2,30.37,1S279.24,342.54,279.24,342.54Z"/><path class="cls-11" d="M435.18,342.54s17.81,5.58,20.32,13,37,.56,7.18-17.13h0s-22.91-2.2-30.37,1S435.18,342.54,435.18,342.54Z"/><circle class="cls-19" cx="295.72" cy="356.67" r="25"/><circle cx="297.67" cy="354.13" r="16.34"/><circle class="cls-17" cx="288.8" cy="348.8" r="5.12"/><circle class="cls-19" cx="420.12" cy="356.67" r="25"/><circle cx="422.08" cy="354.13" r="16.34"/><circle class="cls-17" cx="416.94" cy="349.95" r="5.44"/><path class="cls-13" d="M225.79,296.45c1.77,4.49,3.49,9.31,5.07,14.43a199.45,199.45,0,0,1,6.86,30.6,104.55,104.55,0,0,1,29.4-2.48c28,1.63,48.25,14.28,57.76,21.21,0,0,34.64,39.73,25.36-3.35A66.11,66.11,0,0,0,339,317.55Z"/><path class="cls-13" d="M488.92,297.56c-2.45,8.46-4.77,17.43-6.87,26.91q-2.09,9.4-3.65,18.29a106.06,106.06,0,0,0-30.8-2.64c-28,1.73-48.27,14.32-57.76,21.21,0,0-34.64,39.73-25.36-3.35a66.11,66.11,0,0,1,11.19-39.32Z"/><path class="cls-17" d="M241.38,329s2.19-13,7.36-.63c0,0,8,9.7-6.26,8.45C242.48,336.85,239,334.68,241.38,329Z"/><path class="cls-17" d="M274.09,330.94s2.19-13,7.36-.63c0,0,8,9.7-6.26,8.45C275.19,338.76,271.69,336.59,274.09,330.94Z"/><path class="cls-17" d="M304.42,338.12s2.19-13,7.36-.63c0,0,8,9.7-6.26,8.45C305.52,345.94,302,343.77,304.42,338.12Z"/><path class="cls-17" d="M326.26,352.94s2.19-13,7.36-.63c0,0,8,9.7-6.26,8.45C327.36,360.76,323.86,358.59,326.26,352.94Z"/><path class="cls-17" d="M377.91,355.69s2.19-13,7.36-.63c0,0,8,9.7-6.26,8.45C379,363.52,375.51,361.34,377.91,355.69Z"/><path class="cls-17" d="M401.37,338.56s2.19-13,7.36-.63c0,0,8,9.7-6.26,8.45C402.47,346.39,399,344.21,401.37,338.56Z"/><path class="cls-17" d="M432.74,330.5s2.19-13,7.36-.63c0,0,8,9.7-6.26,8.45C433.84,338.33,430.34,336.15,432.74,330.5Z"/><path class="cls-17" d="M459.67,331.16s2.19-13,7.36-.63c0,0,8,9.7-6.26,8.45C460.77,339,457.27,336.82,459.67,331.16Z"/><path class="cls-20" d="M241.4,260.82s-16.42,11.88-40-19.48c-10.82-14.37-10-34.83,2.9-47.38q.82-.79,1.7-1.57L118.9,236.12,74.63,297.55a70.22,70.22,0,0,1,26.42-8.68q1.37-.16,2.71-.26c11.9-.92,29.17,3,43.6,14.16a69,69,0,0,1,21.32,28.29l44.22-26.83Z"/><path class="cls-21" d="M214.63,197.07S119,243.66,75.37,309.13L43.45,297.2s80.83-126.87,164.49-132.5Z"/><path class="cls-22" d="M60.78,303.68s47.75-86.3,150.57-122.48h0l-3.41-16.49s-100,8.44-164.49,132.5Z"/><path class="cls-7" d="M257.91,232.7a119.26,119.26,0,0,1-9.2,47.91c-27.48,64.79-105.32,79.53-114.44,81.11-10,9.23-23.88,22.5-39.8,39.22-16.68,17.51-25,26.26-33.6,38.32-9.27,13-21.36,33.47-29.77,62.65a138.31,138.31,0,0,1,2.77-51.83C50.2,385,110.31,354.47,122,348.8A225.37,225.37,0,0,0,228.89,258Z"/><path class="cls-23" d="M224.92,300.43s-44.48,44.82-91.56,58.06h0s-96,56.29-102.27,143.43c0,0,29.08-68.17,41.94-78l58.29-59.5,6.05-3.31s66.19-12.34,97-56h0l-9.47-4.73"/><path class="cls-24" d="M63.8,435.86s.6,5-3.74,5A32.85,32.85,0,0,1,41,429.38c0-.18-.65-2.72.93-4.22a3.4,3.4,0,0,1,1.31-.76A35.2,35.2,0,0,0,63.8,435.86Z"/><path class="cls-24" d="M137.38,361.13c-.1.49-.71,3.2-2.71,3.89a4.29,4.29,0,0,1-3.34-.57c-5.76-3-14-12.38-11.86-15.4a5.32,5.32,0,0,1,2.43-1.43,6.8,6.8,0,0,1,3.41-.18,24.91,24.91,0,0,0,2.37,4.79A26.1,26.1,0,0,0,137.38,361.13Z"/><path class="cls-25" d="M179.13,217.07a411,411,0,0,0-78.64,61.39,102.35,102.35,0,0,1,77.89,37.44s37.55-28.47,44.37-42.83h0a77,77,0,0,1-25.5-18.83A77.83,77.83,0,0,1,179.13,217.07Z"/><path class="cls-26" d="M484.36,224.18a56.69,56.69,0,0,1,13,19.29c10.82,26.91-3.88,52.87-6.28,57,0,0-126.86,72.66-266.17,0,0,0-33-32.74,7.81-76.25Z"/><path class="cls-27" d="M439.51,224.18s31.68,32.69,13.6,92.37c0,0-76.84,37.7-191.3,0,0,0-13.82-48.42,7.71-92.37Z"/><path class="cls-12" d="M385.82,225.15s28.51,71.89,4,106.95c0,0-52.15,2.7-68.17-1.43,0,0-23-23.23,3.68-107.59Z"/><path class="cls-19" d="M504.05,171.17a140.64,140.64,0,0,1-30.2,87.12C447,292.59,259.21,288.47,233,248.82a140.32,140.32,0,0,1-23.37-77.65c0-79.28,65.9-143.56,147.21-143.56S504.05,91.88,504.05,171.17Z"/><path class="cls-28" d="M269.66,96.23s20.28-43,37.31-34.06c0,0,22.1-25.14,45.52-7.3,0,0,61.54-1.62,18.55,7.3C371,62.16,315,61,269.66,96.23Z"/><path class="cls-28" d="M278.78,127.86s22.51-9.73,29.81-7.3c0,0,24.33-28.39,48.26-35.69,0,0-20.42-13.29-51.5,21.49C305.34,106.36,284.29,110.68,278.78,127.86Z"/><path class="cls-28" d="M278.78,159.49s11.76-15.81,39-14.39c0,0,29.7-26.16,54-27.78,0,0-14.4-21.9-46.54,10.54C325.32,127.86,283,132.72,278.78,159.49Z"/><path class="cls-19" d="M266.41,239.1s34.06-20.41,36.5-26.9c0,0,37.31-6.73,42.17-15.94,0,0,.33,21.3-39.34,25.67,0,0-20.55,22.16-44.94,17.17"/><path class="cls-28" d="M255.82,212s8.14-28.39,29.62-28.39c0,0,15.6-10.54,29.08-3.24,0,0,46.53-13,0,6.49,0,0-26.66,2.38-39,21.09C275.48,208,248.73,226.7,255.82,212Z"/><path class="cls-28" d="M363.69,88.74s23.52-7.42,33.25-5.74c0,0,22-21,41.37,0,0,0,22.58,10-17.84,5.74,0,0-10.75,3.24-16.32,8.11,0,0-12.07-13.79-31.53-4.06C372.61,92.79,360.44,101.72,363.69,88.74Z"/><path class="cls-28" d="M349.82,181.2S341,162.54,386.4,150.38c0,0,29.2-10.47,40.55-15,0,0,28.78-14.23-3,16.59,0,0-9.31.81-29.9,8.11C394,160.11,378.12,178.51,349.82,181.2Z"/><path class="cls-28" d="M388,209.59s-27.05-7.77-24.88,9.09c0,0,18.45,9.44,40.73-1,0,0,29.75-5.12,39.09-18a15.76,15.76,0,0,0,1.64-2.79c6.69-14.88,8.69-10-16,5.39Z"/><path class="cls-29" d="M259.87,231.78a48.6,48.6,0,0,1-10.65-35.24s4.16,1,3.18-11.79,12.23-57.06,19.47-59.29-25.48,7-28.63,31.7c0,0-8.18-1.74-10.06,23.12s-8.94-69.1,8-96.63c0,0-56.07,58.08-21.46,152.12,4.64,12.62,26.76-2.65,40.14-4"/><path class="cls-28" d="M472,225.43s16.8-33.87,14.61-50.78c0,0-10.71,9.15-12.42,22.29s-21.91,22.4-21.91,22.4-9.74,1.71-5.85-6.08,17.53-17.52,17.53-17.52,9.16-27.77,22.84-35.07c0,0,2.48-18.5-13.59-17.53,0,0-15.58,5.1-14.85,13,0,0-12.66,1.1-17,9.87s-9.49-5.36-9.49-5.36,3-12.66,13.16-10.1c0,0,10.45-19.84,31.15-22,0,0,3.16-14.85-37.74-14.36,0,0-13.39-9.52-25.81,0,0,0-5.84,2.93-6.57-1.21s7.31-8.43,7.31-8.43,33.11-16.4,62.81,4c0,0-23.86-46.26-36.28-55a145.17,145.17,0,0,1,57.25,168.69L472,225.43"/><path class="cls-30" d="M187.63,230.11c4.07-10.05,26.56-16,52.92-4.54l86.58,20.89,98-3.89,81-19.62,19.4,6.84-1.82,14.9s6.4,38.24-64.32,32.67c0,0,4.74,41.48-104.39,5.85,0,0-47.61,16.7-72.38.28,0,0-44.27,6.68-45.94-15.31-3.54,1.35-25.44,9.51-29.56,3.24-.76-1.16-1.22-3.27.61-7.41-15-10.94-23.51-25.39-20.07-33.89"/><path class="cls-28" d="M324.88,240.76c20.46,3.76,51.86,6.67,92.85-1.11q97-32.77,109.49-12.73,5.15,8.23-4,25.38c.91-10.39-2.14-15.05-4.21-17.2-9.86-10.22-37.23-4.7-67.5,16.53,0,0-15.87,15-25.89,3.9S351,256.91,351,256.91s-22.83,10.3-32.29-.84-77.4-25.89-94.93-19.77-17.26-1.4-17.26-1.4-4.46-5.28-9.19-1.38c-2.08,1.71-6-.79-6.43-2.46-.58-2.48,17.78-7.73,20.12-9,18.61-10.3,81,12.7,113.82,18.72"/><path class="cls-29" d="M264.18,285.11c-22.67-3.57-36.3-22.53-33.54-38.3s24.45-23,25.36-23.32c-34-9.57-65.17-4.09-69.37,8.33-4.08,12.07,14.58,30.09,17.27,32.63-1.68,5.39-.25,8,.29,8.82,3.25,4.91,14.13,5.56,26.31-.92,0,0,19.92,12.64,33.68,12.76"/><path class="cls-29" d="M232.17,241.7s5.78-7.82,35.43-3.32c0,0-28.34-8.64-9.5-14.46,0,0-22.48-5-25.93,17.77"/><path class="cls-1" d="M119.41,398c1.11-10.9-1.54-29.16-15.27-36.09-15.07-7.62-34.13,3.13-43,15.62-1.93,2.71-11.21,16.51-5.94,32.38,4.74,14.27,19.29,24.35,36.4,24.69C93.08,433.93,116.92,422.49,119.41,398Z"/><path class="cls-2" d="M287.59,429.76a64.18,64.18,0,0,1-8-7.92c-14.91-17.67-16.48-39.08-16.41-49.67H240.79s1.86,41.21,1,51.11C241.84,423.27,251.41,430,287.59,429.76Z"/><path class="cls-2" d="M278.46,493.48S245.55,487,239,482.87l1.53-22S257.24,489.13,278.46,493.48Z"/><path class="cls-31" d="M422.9,429.76a87.15,87.15,0,0,0,8-7.92c13.41-15.16,18.88-32.06,21.29-43.81h20.4q-.85,7.78-1.61,15.72-1.47,15.47-2.46,30.37c-2.9.9-6,1.74-9.16,2.48A131.11,131.11,0,0,1,422.9,429.76Z"/><path class="cls-32" d="M484.69,138.15s-20.53,7.7-24.27,3.19c0,0-4.56-7.64-9.46-6.56,0,0-12.11-23.88-17.07-24.16,0,0-15.18-8.33-24.69-5.51S386.29,87,386.29,87l2.39-10.49,12.71,10.06,26.83,7L440.5,100l19.91,18.33,5.31,9.51s11.66,4,13.74,3.73,16.25.54,16.25.54Z"/><path class="cls-33" d="M428.22,102.61a1.05,1.05,0,0,0,1.28.12c.31-.16.61-.06.91-.07s.59.1.63-.57-.32-.85-.52-.94c1.08.08,2.33-.71,3.41.6,3-.17,5.81-1.76,8.49-5.41a10.15,10.15,0,0,1,5.38-4c1.73-.48,3.3-1.8,4.64-4.16,4.37-7.7,9.4-11.56,14.76-13.72,1.58-.63,3.27-.8,4.5-3.77A70.13,70.13,0,0,0,474,53.85c.07-5.45.23-10.87-.55-16-1.08-5.64-2.14-11.23-4.17-15.78a26.5,26.5,0,0,0-4-6.35,15.73,15.73,0,0,0-6.14-4.5,1,1,0,0,0-1.35.48c-.18,2,.57,2.19,1.2,2.3,1.39.26,2.55,1.46,3.45,3.3,2,4.09,4.18,7.68,5.94,12.35,3,8,2.13,16.76.73,25.87-.33,2.19-.45,4.45-.8,6.48-.33,1.87-1.86,1.78-2.64,3.64A38.19,38.19,0,0,0,464.14,70c-.82,2.85-1.32,3-2.57,1.59-2-2.21-4.23-1.42-6.43.62-.53.5-1,1.5-1.59,1.51-3.14.08-5.86,3.56-8.69,6.14-1.5,1.37-2.65,1.8-4.11,1.13-.73-.33-1.44.1-2.16.38-2.17.84-3.44-.35-4.23-3.93-.72-3.26-1.44-4.33-2.84-3.7s-2.55,2.82-2.78,5.43c-.3,3.31-1.61,3.57-2.54,5-.58.87-.8-.25-.94-1.16a27.09,27.09,0,0,0-.78-4.27c-.67-2-1.57-3.25-2.87-3.23-1.82,0-2.87,2.36-2.66,6A20.53,20.53,0,0,1,419,84c.22,4.67-.46,6.45-2.77,7.07-2.14.57-4.17-.4-6.23-.75-1-.18-1.78-1.66-2.09-3.8a7,7,0,0,0-.52-2.46,8.3,8.3,0,0,1-6,1.81c-4.2-.5-5.79-3.82-5.43-10.8a8.25,8.25,0,0,0-.24-3c-.93-2.59-.77-5.6-.47-8.68a63.15,63.15,0,0,0-.14-15.82,11.72,11.72,0,0,1,.55-5.16c.36-1.28,1-2.49.67-4.11-1-.14-1.39,1.72-1.93,2.92-3.15,7.18-4.84,15.48-5.44,24.57a44,44,0,0,0,.39,9.18c.76,5.73,2.1,10.67,4.31,14.46.71,1.23,1.47,1.94,2.44,1.88,2.06-.13,3.87,1.11,5.69,2.6,3.14,2.56,6.56,3.64,9.93,5,4.38,1.54,8.81,2.56,13.4,1.16C426.56,99.58,427.43,100.91,428.22,102.61Z"/><path class="cls-33" d="M407.76,97.64c2,2.93,4.18,4.22,6.82,3.2,2-.78,3.79,1.3,5.76.79a6.35,6.35,0,0,1,5.23,1c.6.39,1.79.06,2.65-.06-.18-2.59-1.21-4.19-2.66-3.7a16.13,16.13,0,0,1-8.13.59,55.78,55.78,0,0,1-5.66-1.6c-.81.74-1.51-.1-2.24-.25C408.94,97.53,408.4,96.79,407.76,97.64Z"/><path class="cls-33" d="M432.26,102.44c.45-1.11,1.17,0,1.63-1.1-1.36-3.06-3.19.23-4.72-.66.34,1.42,1.06.72,1.59,1.2-.36.95-.91,0-1.26.84C430.4,103.25,431.33,102.61,432.26,102.44Z"/><path class="cls-34" d="M389.06,61.07a47.29,47.29,0,0,1,.64-5c2.78-15.63,8.65-25.27,15.85-31.83a8.32,8.32,0,0,0,.66-.67A5.5,5.5,0,0,0,408,22.53a6.27,6.27,0,0,0,.83-.86c.17-.12.33-.26.5-.4a1.42,1.42,0,0,0,.49-.23c3.62-2.45,7.32-3.42,11-4.7a2.71,2.71,0,0,1,3.32.63c-.05,1.83-.76,1.51-1.24,1.55A24.91,24.91,0,0,0,416.1,20c-4.33,1.63-8.63,3.75-12.57,8.68a38,38,0,0,0-5.32,7.43c-.56.94-1,2.38-1.87,2.18a33.93,33.93,0,0,0-2,4.26c-2.74,7-3.91,23.74-4.47,32.17-.29,1.28-.61,2.61-1.1,1.76C388.44,74.66,388.9,62.68,389.06,61.07Z"/><path class="cls-35" d="M410.27,78.82a2.23,2.23,0,0,1,2.66-1.44,3.48,3.48,0,0,0,3.33-1.62,9.66,9.66,0,0,1,4.76-3.7c1.45-.56,3,.5,4.31-2.26.19-.41.61-.37.91-.35,1.21.11,2.36-.72,3.53-1.47,2.11-1.35,4.06-1.23,5.71,1.73a1.05,1.05,0,0,0,.13.25c.61,1.19,1,2.66,1.7,3.72.41.65.85,1.06,1.41.52a2.3,2.3,0,0,0,.51-1.85c-.09-1.24-.56-1.56-1.08-1.69a10,10,0,0,1-1.69-.24,1.74,1.74,0,0,1-.85-.46l-.1-.2,0-.06a2.25,2.25,0,0,1-.09-.85c.09-1.44.75-1.76,1.34-1.86a3.59,3.59,0,0,1,2.56.62c2.47,1.58,5.16,1.27,7.76,1.36,3.31.11,6.56-2.74,9.83-4.29,2.58-1.22,4.71-4.82,5.5-10.25.74-5.08,1.89-10.25,1.18-15.54a6.11,6.11,0,0,1,.09-1.57c.76-5.08-.56-8.81-1.76-12.06-1.72-4.63-3.45-9.61-6.54-11.18a2,2,0,0,1-.7-1.08,2.46,2.46,0,0,1-.11-2.38,5.19,5.19,0,0,1,.9-.36l1,0,.14,0a2.61,2.61,0,0,1,1.13,1.54c.16,1,.6,1.09,1,1.39.68.46,1.4.18,2.11.93,2.37,2.48,3.83,6.92,5.88,10.08C468.22,26.49,469.1,30,470,33s.72,7.82.69,12c-.05,6.31-2.21,12-2,18.32,0,.7-.2,1.8-.65,1-.77-1.32-1.09.08-1.66.92a17.77,17.77,0,0,0-2.1,5.65c-.57,2.31-2.19,3.92-2.54,2.67-1-3.68-2.77-2-4.34-2.08-1.4-.07-2.37,2.75-3.45,2.9-3,.41-5.68,2.74-8.37,5.61-.82.87-1.68,1.3-2.15,3.18-.35,1.42-.74.79-1.11.2-1.11-1.75-2.34-2.1-3.85-1.2-2.16,1.28-4-.47-4.51-4.3-.41-2.91-1.29-3.91-2.7-3.43-1,.33-2.35,4.08-2.33,6.31,0,1.33-.2,2.12-.84,2.25s-.89.55-1.28,1.19c-1.59,2.51-1.65,2.53-2.07-1.27a13.64,13.64,0,0,0-1.4-5.52c-.91-1.46-2-1.82-3.16-.56s-1.18,3.44-.75,5.53a1.64,1.64,0,0,1-.21,1.36c-1.89-.6-3.6-2.29-5.54-2.6-1.16-.18-2.37-.13-3.37-1.43A1.22,1.22,0,0,1,410.27,78.82Z"/><path class="cls-35" d="M403.21,28.33c-2.65,2.2-4.64,6.47-6.87,10a2.87,2.87,0,0,1-.06.62c-2,4.51-1.58,9.08-1,13.9.54,4.48-.37,9.22-.59,13.84a9.47,9.47,0,0,0,.47,4.61,9.19,9.19,0,0,1,.5,4.34c-.45,8.31,2.21,11.05,5.75,10.91,1,0,1.89.82,3,.19a7.52,7.52,0,0,0,3.05-2.53,15.06,15.06,0,0,0,2.82-4.89h0c-.45-.95-1-.62-1.59-.31-2.38,1.31-4.52.56-6.54-1.46-.18-.18-.35-.46-.54-.46-2.19,0-2.41-2.95-2.44-6.59-.06-6.89-1-13.47-.51-20.58a44.39,44.39,0,0,1,.58-5.61A29.8,29.8,0,0,0,400,40a16.41,16.41,0,0,1,2.41-8.21A4.06,4.06,0,0,0,403.21,28.33Z"/><path class="cls-35" d="M410.28,79.31a12,12,0,0,0-2.82,4.89c0,4.89,1.05,7.25,3.41,7.18,1.88-.07,3.63,1.16,5.59.55,2.5-.79,3.59-3.61,2.83-8.19-1.58-2.58-3.62-3-5.58-3.46A27.76,27.76,0,0,0,410.28,79.31Z"/><path class="cls-34" d="M428.85,14.48c4-1.27,7.91-3.59,11.91-4.59,1.62-.41,3.14.46,4.73-.15a8,8,0,0,0,3.41-.13,60.52,60.52,0,0,0,7.57.69l1.84.31h0a16.81,16.81,0,0,1,6.41,4c3.36,3.63,5.89,8.83,7.65,15.56a34.13,34.13,0,0,0,1.09,5.88c0,.15-.07.29-.11.44l-.4,1.23a26.33,26.33,0,0,1-.88-4.48c-2.52-13.08-7.54-19.63-14.38-21.43a4.66,4.66,0,0,0-3.35-.86c-.68,1.12-1.41.77-2.11.75a41.47,41.47,0,0,0-10.39,1.1c-3.9.91-7.75,3-11.62,4.52-.92.36-7.5,1.59-8.29.36C421.75,15.55,428.25,14.67,428.85,14.48Z"/><path class="cls-33" d="M389.84,74.76c-.25,1-.78,1.13-1.15,1.72a1.06,1.06,0,0,0,0,.71c.53-.53.52.21.65.91,1,5.14,2.32,9.76,4.69,12.69.24.31.51.8.78.75,3.73-.69,6.67,3.29,10,4.92,1,.48,2,.78,2.95,1.17.89-.23,1.62.65,2.43.93a1.15,1.15,0,0,0,1.58-.66c-3.63-1.5-7.33-2.53-10.68-5.66-1-1-2.11-2-3.32-1.68-3.63.85-5.14-4.14-6.61-9.12C390.56,79.43,390.27,77,389.84,74.76Z"/><path class="cls-36" d="M445.43,87.05c.09,1.15.12,2.27.79,2.31s1.1-1.24,1.31-2.44-.13-1.78-.66-1.86C446.14,84.94,445.74,85.9,445.43,87.05Z"/><path class="cls-37" d="M425.72,17.14l-1.52.11c-2.78.65-5.57.95-8.33,2-4.37,1.69-8.75,3.62-12.66,9.06-.19,2.22-1.21,3-1.92,4.27a11.22,11.22,0,0,0-1.53,5.51,16.76,16.76,0,0,1-.4,3.09,72.88,72.88,0,0,0-.93,21.85c.33,3.69.36,7.58.35,11.42,0,2,.23,2.95,1.22,2.84a2.38,2.38,0,0,1,2,1.1c2.54,3,5.38,2.29,8.27.88a2.5,2.5,0,0,1,2.87-1.07c1.33.15,2.49-.76,3.73-2.16,2.12-2.39,4.35-5,6.7-2.44.2.22.53.39.56-.49.16-3.39,1.44-2.75,2.35-2.85a4.52,4.52,0,0,0,2.74-1.07c2.94-2.55,5.16-1.4,7,3.28.53,1.35.91,3.17,2.06,3,.78-.11,1.41-.7,1.54-2.29s0-3.23-1-3.4c-.81-.15-1.64-.13-2.46-.21-.29,0-.71,0-.63-.86.06-.7.42-1,.75-1,.72,0,1.57-.35,2.13.26,1.62,1.77,3.51.89,5.22,1.54a6.53,6.53,0,0,0,6.19-.51c3.54-2.43,7.53-1.57,10.59-7.68,1.3-2.6,2.54-5.2,2.47-9.13a12.37,12.37,0,0,1,.57-3.33,20.38,20.38,0,0,0,.5-7.09,9,9,0,0,1-.16-2.4c1.2-5-.38-8.63-.81-12.81-.18-1.71-1.09-2.23-1.56-3.49-1.56-4.26-3.21-8.27-5.95-9.73A3.26,3.26,0,0,1,454.39,11c-7.65-.92-15.29,1.1-22.94,5a5.43,5.43,0,0,1-3.85.8l-1.26-.11C426.08,16.38,425.89,16.7,425.72,17.14Z"/><path class="cls-38" d="M413.34,65.11c1.75-1.81,3.61-1.86,5.43-2.66a33.07,33.07,0,0,1,10.51-2.78,3.48,3.48,0,0,0,2.7-1.44c1.56-2,3.2-2.65,5-2.54,3.85.23,7.76-1.56,11.62-1.49,1.18,0,2.38-.38,3.56-.43s1.83-2.31,3-1.62c.44.26,1-1.45.84-2.69-.2-1.7-.61-3.08-1.64-3.37-2.45-.68-4.73,1.29-7.1,2.67-2,1.17-4.09.79-6.17,1.84-3.33,1.69-6.7,2.77-10,4.11a2.77,2.77,0,0,0-1.23.62c-2.32,2.56-4.65,1.64-7,2-3.36.53-6.72,1.45-10.06,1.22a1.91,1.91,0,0,0-1.22.66,2.78,2.78,0,0,0-.33,3.71C411.81,64,412.4,65.06,413.34,65.11Z"/><path class="cls-39" d="M451.72,14.63l-1.56-.11c-.78,0-1.12,1.16-1.39,2.36s-.34,2.87.29,3.34c1.59,1.2,3.15,2.85,5,2.15.61-.23,1.25-.59,1.5-2.1A5.32,5.32,0,0,0,455,16.7C454.09,14.87,452.88,14.4,451.72,14.63Z"/><path class="cls-39" d="M439.21,54.51c3.1-2.36,6.14.27,9.24-1.61,1.13-.69,2.23.11,3.4-.5,1-.52,1.42-1.45,1.4-3.28s-.77-2-1.53-2-1.45.82-2.08,1.37A9.52,9.52,0,0,1,442.81,51c-1.55-.06-3.1,2.16-4.72,1.72-.12,0-.41.5-.44.82-.07.66.2.82.47.85S438.85,54.49,439.21,54.51Z"/><path class="cls-33" d="M472.62,137.56a1.05,1.05,0,0,1-1.28-.06c-.28-.21-3-.42-4.24.73-2.95-.58-5.51-.23-7.67-4.22-1.3-2.4-3-1.65-4.78-2.42s-3,.07-4-2.46c-3.27-8.23-7.72-17.35-12.74-20.22-1.48-.84-3.13-10.45-3.94-13.56a70.25,70.25,0,0,1,0-17c.67-5.4,1.26-10.8,2.73-15.77,1.84-5.44,3.66-10.83,6.29-15.06a26.7,26.7,0,0,1,4.87-5.73,15.77,15.77,0,0,1,6.7-3.61,1,1,0,0,1,1.27.66c-.1,2-.87,2.09-1.51,2.11-1.42.06-2.73,1.1-3.87,2.8-2.53,3.78-5.2,7-7.58,11.42-4.07,7.5-4.4,16.31-4.27,25.53,0,2.21-.17,4.47-.1,6.53.07,1.9,1.6,2,2.12,4a38.83,38.83,0,0,1,.88,4.47c.42,2.94.9,3.11,2.33,1.93,2.31-1.91,4.39-.83,6.28,1.49.46.56.79,1.62,1.37,1.72,3.1.51,5.32,4.33,7.77,7.28,1.29,1.56,2.38,2.14,3.92,1.68.77-.23,1.41.3,2.09.68,2,1.13,3.45.12,4.72-3.31,1.16-3.13,2-4.09,3.32-3.27s2.14,3.14,2,5.76c-.16,3.32,1.11,3.76,1.83,5.27.45.95.84-.14,1.09-1a27.31,27.31,0,0,1,1.35-4.12c.95-1.91,2-3,3.29-2.81,1.8.27,2.52,2.73,1.81,6.33a18.86,18.86,0,0,0-.43,2.44c-.86,4.59-.44,6.45,1.77,7.39,2,.86,4.18.18,6.27.11,1.06,0,2-1.4,2.59-3.48a7.29,7.29,0,0,1,.85-2.36,8.3,8.3,0,0,0,5.65,2.6c4.23.08,6.26-3,6.86-9.95a8.28,8.28,0,0,1,.65-2.95c1.27-2.44,1.53-5.44,1.65-8.54a63.33,63.33,0,0,1,2.31-15.65,11.68,11.68,0,0,0,.16-5.18c-.18-1.32-.63-2.6-.1-4.17,1,0,1.15,1.89,1.51,3.15,2.14,7.55,2.68,16,2,25.08a43.89,43.89,0,0,1-1.64,9c-1.55,5.57-3.54,10.28-6.25,13.74-.87,1.12-1.73,4-2.68,3.83-2-.42-1.68,2.87-3.69,4.1-3.47,2.11-2.4,2.7-5.91,3.54-4.55.93-16,3.64-20.34,1.62C474.68,137.09,473.64,136,472.62,137.56Z"/><path class="cls-33" d="M493.56,130.84c-2.35,2.63-4.72,3.61-7.2,2.23-1.87-1-3.93.77-5.82,0a6.35,6.35,0,0,0-5.32.31c-.65.31-1.78-.18-2.61-.42.54-2.54,1.77-4,3.14-3.29a16.11,16.11,0,0,0,8,1.7,55.08,55.08,0,0,0,5.83-.8c.71.85,1.51.11,2.26.06C492.41,130.57,493.05,129.91,493.56,130.84Z"/><path class="cls-33" d="M468.64,132.24c-.3-1.16-1.15-.18-1.47-1.31,1.76-2.84,3.13.67,4.77,0-.54,1.36-1.15.57-1.74,1,.23,1,.9.14,1.13,1C470.37,133.28,469.53,132.53,468.64,132.24Z"/><path class="cls-34" d="M517.1,97.18a45,45,0,0,0,0-5c-.61-15.86-5.1-26.21-11.34-33.7a8.19,8.19,0,0,1-.56-.75,5.58,5.58,0,0,1-1.63-1.29,6,6,0,0,1-.7-1,5.73,5.73,0,0,1-.45-.47,1.44,1.44,0,0,1-.45-.29c-3.26-2.92-6.79-4.39-10.26-6.17a2.71,2.71,0,0,0-3.37.17c-.2,1.82.54,1.6,1,1.71a25,25,0,0,1,6.54,2.45c4.06,2.2,8,4.9,11.26,10.32a37.94,37.94,0,0,1,4.25,8.09c.42,1,.69,2.49,1.55,2.42a32.66,32.66,0,0,1,1.43,4.5c1.76,7.27.62,24,0,32.48.11,1.31.25,2.67.86,1.89C515.86,110.73,517,98.79,517.1,97.18Z"/><path class="cls-34" d="M493.66,111.85c-.56-1.75-1.53-1.7-2.44-1.79a3.48,3.48,0,0,1-3.08-2.06,9.65,9.65,0,0,0-4.21-4.32c-1.36-.75-3,.09-4-2.83-.13-.43-.55-.45-.86-.47-1.21-.06-2.24-1-3.3-1.95-1.91-1.63-3.86-1.78-5.9.93a.94.94,0,0,1-.16.23c-.77,1.09-1.4,2.5-2.2,3.45-.49.58-1,.93-1.47.32a2.32,2.32,0,0,1-.25-1.9c.26-1.21.77-1.47,1.31-1.52a9.89,9.89,0,0,0,1.71,0,1.72,1.72,0,0,0,.91-.34l.12-.18,0-.05a2.24,2.24,0,0,0,.21-.83c.11-1.44-.5-1.85-1.08-2a3.59,3.59,0,0,0-2.62.26c-2.67,1.22-5.28.55-7.87.28-3.29-.34-6.12-3.61-9.15-5.59-2.39-1.56-4-5.42-4-10.91,0-5.14-.47-10.42,1-15.56a6.14,6.14,0,0,0,.12-1.57c-.06-5.14,1.76-8.65,3.4-11.71,2.34-4.35,4.73-9,8-10.18a2,2,0,0,0,.84-1,2.46,2.46,0,0,0,.44-2.34,5,5,0,0,0-.85-.48l-1-.09h-.14A2.62,2.62,0,0,0,455.82,39c-.3,1-.75,1-1.23,1.23-.73.36-1.41,0-2.22.63-2.69,2.13-4.75,6.33-7.21,9.18-1.72,2-3.08,5.33-4.41,8.16S439,65.87,438.42,70c-.81,6.26.54,12.2-.57,18.42-.13.69,0,1.81.5,1.11.94-1.2,1.07.23,1.52,1.14a17.73,17.73,0,0,1,1.31,5.88c.25,2.37,1.64,4.18,2.16,3,1.52-3.5,3-1.61,4.58-1.47,1.39.13,2,3.05,3,3.35,2.92.81,5.25,3.5,7.52,6.7.69,1,1.49,1.52,1.69,3.45.16,1.45.63.89,1.07.35,1.35-1.58,2.61-1.75,4-.66,2,1.56,4,.08,5.06-3.64.81-2.83,1.81-3.7,3.15-3,.91.45,1.77,4.37,1.44,6.57-.2,1.32-.1,2.13.52,2.34s.8.67,1.11,1.35c1.23,2.7,1.29,2.73,2.22-1a13.73,13.73,0,0,1,2.14-5.28c1.1-1.32,2.27-1.53,3.21-.12s.7,3.57,0,5.58a1.65,1.65,0,0,0,0,1.38c2-.33,3.88-1.78,5.84-1.81,1.18,0,2.37.2,3.53-1A1.21,1.21,0,0,0,493.66,111.85Z"/><path class="cls-34" d="M507.58,62.8c2.33,2.55,3.71,7,5.43,10.85a3.1,3.1,0,0,0,0,.63c1.33,4.73.32,9.21-.91,13.91-1.14,4.36-.9,9.18-1.31,13.78a9.58,9.58,0,0,1-1.1,4.5,9.16,9.16,0,0,0-1.09,4.23c-.7,8.3-3.71,10.64-7.19,10-1-.17-2,.55-3-.22a7.56,7.56,0,0,1-2.67-2.92,15,15,0,0,1-2.13-5.24h0c.57-.87,1.12-.47,1.63-.09,2.18,1.62,4.41,1.17,6.68-.55.2-.15.41-.41.61-.38,2.17.31,2.79-2.59,3.31-6.19,1-6.81,2.88-13.2,3.33-20.32a44.32,44.32,0,0,0,.19-5.64,29.85,29.85,0,0,1-.16-4.35,16.43,16.43,0,0,0-1.27-8.46A4.08,4.08,0,0,1,507.58,62.8Z"/><path class="cls-33" d="M493.59,112.34a12,12,0,0,1,2.13,5.24c-.72,4.83-2,7-4.36,6.64-1.85-.32-3.75.65-5.61-.22-2.37-1.12-3.06-4.06-1.69-8.5,1.92-2.34,4-2.45,6-2.66A28,28,0,0,1,493.59,112.34Z"/><path class="cls-34" d="M484.08,45.57c-3.77-1.8-7.35-4.63-11.16-6.18-1.54-.62-3.17,0-4.67-.8a8,8,0,0,1-3.36-.6,61.18,61.18,0,0,1-7.59-.36l-1.87,0h0a16.8,16.8,0,0,0-6.9,3.13c-3.82,3.13-7,7.94-9.71,14.36a33.78,33.78,0,0,1-1.88,5.68c0,.15,0,.3,0,.45.08.42.16.85.23,1.27a26.27,26.27,0,0,0,1.48-4.31C442.93,45.65,448.8,39.85,455.82,39a4.66,4.66,0,0,1,3.44-.39c.52,1.2,1.29,1,2,1a41.42,41.42,0,0,1,10.14,2.51c3.74,1.44,7.26,4,10.89,6.07.86.48,7.21,2.6,8.17,1.49C491,47.6,484.64,45.84,484.08,45.57Z"/><path class="cls-33" d="M514.46,110.63c.12,1,.61,1.23.91,1.86a1.1,1.1,0,0,1-.11.7c-.45-.6-.54.14-.78.81-1.69,5-3.64,9.35-6.38,11.93-.29.27-.62.72-.88.64-3.6-1.2-7.05,2.34-10.58,3.51-1,.34-2.05.5-3.08.75-.85-.35-1.69.43-2.53.59a1.15,1.15,0,0,1-1.47-.88c3.8-1,7.61-1.5,11.35-4.14,1.14-.8,2.35-1.65,3.52-1.21,3.48,1.34,5.67-3.39,7.8-8.13C513.1,115.15,513.72,112.79,514.46,110.63Z"/><path class="cls-33" d="M457.7,115.18c-.25,1.13-.43,2.24-1.1,2.18s-.92-1.38-1-2.6.38-1.74.92-1.76C457.29,113,457.56,114,457.7,115.18Z"/><path class="cls-37" d="M486.82,48.64l1.49.32c2.66,1,5.39,1.7,8,3.14,4.09,2.28,8.17,4.79,11.3,10.71-.11,2.22.79,3.15,1.32,4.5a11.19,11.19,0,0,1,.76,5.67,17.38,17.38,0,0,0,0,3.12,72.84,72.84,0,0,1-2.07,21.77c-.83,3.61-1.39,7.46-1.91,11.26-.27,2-.64,2.89-1.6,2.64a2.38,2.38,0,0,0-2.13.82c-2.93,2.61-5.65,1.53-8.32-.26a2.5,2.5,0,0,0-2.69-1.45c-1.33,0-2.36-1.1-3.39-2.65-1.78-2.66-3.62-5.54-6.3-3.33-.23.19-.58.31-.5-.56.31-3.38-1-2.92-1.94-3.15a4.52,4.52,0,0,1-2.57-1.43c-2.56-2.93-4.91-2.09-7.37,2.29-.71,1.27-1.33,3-2.45,2.7-.76-.21-1.3-.88-1.21-2.48s.48-3.19,1.49-3.23c.83,0,1.65.1,2.47.13.29,0,.7.11.74-.76,0-.7-.28-1-.61-1.08-.71-.07-1.51-.56-2.14,0-1.85,1.53-3.6.41-5.38.81a6.54,6.54,0,0,1-6.07-1.35c-3.17-2.89-7.24-2.58-9.44-9.06-.93-2.75-1.81-5.5-1.2-9.38a12.4,12.4,0,0,0-.11-3.37,20.5,20.5,0,0,1,.47-7.09,8.9,8.9,0,0,0,.49-2.35c-.5-5.12,1.56-8.5,2.56-12.58.41-1.67,1.39-2.06,2-3.25,2.13-4,4.32-7.75,7.22-8.82a3.26,3.26,0,0,0,1.57-2.22c7.7.14,15,3.18,22,8.07A5.43,5.43,0,0,0,485,48l1.26.07C486.56,47.83,486.71,48.17,486.82,48.64Z"/><path class="cls-38" d="M492.5,97.85c-1.49-2-3.33-2.34-5-3.38a33.1,33.1,0,0,0-10-4.19,3.48,3.48,0,0,1-2.48-1.8c-1.27-2.15-2.81-3.06-4.58-3.2-3.85-.3-7.47-2.61-11.31-3.07-1.16-.14-2.3-.7-3.46-.92s-1.5-2.54-2.76-2c-.47.19-.78-1.58-.46-2.78.43-1.65,1-3,2.08-3.12C457,73,459,75.31,461.14,77c1.83,1.44,3.94,1.34,5.86,2.67,3.06,2.13,6.25,3.66,9.39,5.45a2.78,2.78,0,0,1,1.13.78c2,2.85,4.38,2.27,6.67,3,3.26,1,6.46,2.35,9.79,2.59a1.89,1.89,0,0,1,1.12.82,2.77,2.77,0,0,1-.18,3.72C494.17,96.93,493.44,97.93,492.5,97.85Z"/><path class="cls-39" d="M461.41,42.58l1.56.11c.78.07,1,1.3,1,2.52s-.06,2.89-.74,3.27c-1.74,1-3.5,2.4-5.27,1.44-.58-.31-1.16-.76-1.2-2.29a5.35,5.35,0,0,1,1-3.46C459,42.5,460.28,42.2,461.41,42.58Z"/><path class="cls-39" d="M468.33,83.81c-2.75-2.77-6.12-.58-8.93-2.86-1-.84-2.23-.19-3.3-1-.9-.65-1.21-1.63-.93-3.45s1-1.88,1.8-1.79,1.32,1,1.87,1.64a9.52,9.52,0,0,0,6.4,3.49c1.54.16,2.77,2.57,4.44,2.35.12,0,.33.55.32.87,0,.67-.32.78-.58.78S468.69,83.83,468.33,83.81Z"/><path class="cls-2" d="M117.31,410.79c-.3-19.33-9.31-36-23.8-42.74A37,37,0,0,0,74.91,365c9.19-6.33,20.91-7.33,30.31-2.45,11.65,6,17.9,20.16,14.49,34a50.84,50.84,0,0,1-2.41,14.23Z"/><path class="cls-26" d="M260.8,312.4s99.2,40.89,193.49,0l-1.19,4.16s-80.09,39.1-191.3,0Z"/><path class="cls-29" d="M251,280.89s27,4.2,32.71,0c0,0,30,16.62,70.87-2.14,0,0,103.55,36,103.15-4.36,0,0,32.89,1.7,43.6-.44,0,0-20,7.26-41.94,3.42,0,0,7.67,42.46-104.39,5.85,0,0-48.24,17.3-72.38.28C282.59,283.49,254,288.4,251,280.89Z"/><path class="cls-40" d="M519.88,537.35s-4.8,14.27-4.42,16.57c0,0-5.16-.87-6.3-.68,0,0,4.28-14.64,4.88-15.26C514.05,538,514.65,537,519.88,537.35Z"/><path class="cls-40" d="M119,403.51s10.36.79,16.21,4.25c0,0,.51-4.91-.49-5.62,0,0-14.58-5.2-15.26-5.1C119.5,397,119.28,403,119,403.51Z"/></svg>