<svg id="Layer_1" data-name="Layer 1" xmlns="http://www.w3.org/2000/svg" viewBox="0 0 484 677.89"><defs><style>.cls-1{fill:#c6a485;}.cls-2{fill:#5c5b5b;}.cls-3{fill:#7b7979;}.cls-4{fill:#4f4c4d;}.cls-5{fill:#231f20;}.cls-6{fill:none;stroke:#231f20;stroke-miterlimit:10;}.cls-7{fill:#c19672;}.cls-8{fill:#eac461;}.cls-9{fill:#e0b24c;}.cls-10{fill:#915b48;}.cls-11{fill:#cfa38a;}.cls-12{fill:#b1684e;}.cls-13{fill:#edca7c;}.cls-14{fill:#dda34e;}.cls-15{fill:#a06f34;}.cls-16{fill:#936532;}.cls-17{fill:#b78b5e;}.cls-18{fill:#e2b998;}.cls-19{fill:#fff;}.cls-20{fill:#a85339;}.cls-21{fill:#bb9266;}.cls-22{fill:#966538;}.cls-23{fill:#ffd895;}.cls-24{fill:#ebb356;}.cls-25{fill:#d79537;}.cls-26{fill:#e2e2e2;}.cls-27{fill:#7c4d3e;}.cls-28{fill:#a87648;}</style></defs><title>wippo</title><path class="cls-1" d="M371.59,447.08s17.21,32.79,14.13,42.26c0,0-25.84,33.47-56,39.62l-11.69-30.14V468.68a51.87,51.87,0,0,0,15.32.56c21-2.4,34.19-17.22,38.22-22.15"/><path class="cls-2" d="M341.24,303.48s15.21,44.83-23.16,60.15c0,0-49.15,28.37-35.81,70.05,0,0,8.62,50.85-40.24,63.66l-34.18,13.32s65.57,6.9,101.81-18.68c0,0,22.89-24.55,17.77-44.85s18.18-48,18.18-48,26.08-9.47,45-39.41l27.23-45.64L342.2,295.59Z"/><path class="cls-3" d="M387.38,312.81s-2.23,33.88-33.63,56.36c0,0-43.39,23.74-47.24,60.33,0,0-1.61,41.15-29.63,53.42,0,0-23.68,19.59-69,27.75,0,0,68.29,7.3,97.5-15.87,0,0,27.66-25.6,22.09-47.65,0,0-5-35.66,31.88-55.38,0,0,23-4.92,58.5-77.72l-29.61-7.23Z"/><path class="cls-4" d="M387.16,296.38s38.42-72.71,55.33-79.7c0,0,22.44-17.19,35.81-4,0,0,3,23-21.06,29.49,0,0-14.34-.23-28.55,23.8l-24,40.22Z"/><path class="cls-5" d="M349.17,285.17s-13.89,8.21-7.92,18.3l73.37,19.1s27-11.17,9.19-15.4Z"/><path class="cls-6" d="M349.17,285.17s-13.89,8.21-7.92,18.3l73.37,19.1s27-11.17,9.19-15.4Z"/><path class="cls-1" d="M242.19,591.87q0,43-.06,85.92H284s22.15,3.08,12.92-18.46c0,0-16.61-27.07-36.91-1.85l10.24-8.86,12.6-50c-5.35-.41-11-1-17-1.93a234,234,0,0,1-23.65-4.83"/><path class="cls-1" d="M126,604a120.88,120.88,0,0,0,17.92-1.84c6.39-1.15,7.6-1.41,8.75-2.12,4-2.45,5.37-6.3,9.76-7.08a8.89,8.89,0,0,1,2.89,0c0,1.41.07,3.54.12,6.14.2,12.35.16,22.84.11,26.81-.23,18.07-2.57,41.23-3.24,47.64a136,136,0,0,1-54.44-.92c-1.47-.84-3.7-2.44-4.36-5-1.32-5.07,4.58-10,6.51-11.92,15.38-15.38,35.07-3.69,35.07-3.69l-11.49-4.18A143.89,143.89,0,0,1,126,604"/><path class="cls-7" d="M345,463.38s-20.17,25.31-17.8,43.33S317,499,317,499l5.25-39.47Z"/><path class="cls-8" d="M378.52,302.59c.28,3.89,1.25,23-12.78,39.38-16.57,19.38-40.39,19-43.48,18.9a414.34,414.34,0,0,0-3.49,110.87,63.4,63.4,0,0,0,25.64-4.59,64.15,64.15,0,0,0,18.36-11.58c7.75-6.69,28.9-27.89,36.05-60.91,10.26-47.33-15.54-85.32-20.3-92.07"/><path class="cls-9" d="M378.52,303.74a57,57,0,0,1-2.39,20.39c-1.85,6.06,30.4,118.78-59.34,123.33-10.44.53,1,16.38,2,25.43a63.4,63.4,0,0,0,25.64-4.59,64.16,64.16,0,0,0,18.36-11.58c7.75-6.69,28.9-27.89,36.05-60.91,10.26-47.33-15.54-85.32-20.3-92.07"/><path class="cls-1" d="M39.27,444.51S22.06,477.3,25.14,486.77c0,0,25.84,33.47,56,39.62l11.69-30.14V466.1a51.87,51.87,0,0,1-15.32.56c-21-2.4-34.19-17.22-38.22-22.15"/><path class="cls-7" d="M65.95,461s20.17,25.31,17.8,43.33S94,496.61,94,496.61l-5.25-39.47Z"/><path class="cls-10" d="M91.18,496.61C65.86,533,63.58,572,81.45,590.91c3.62,3.82,11.09,10,25.39,12.44,0,0,49.22,4.92,57.21-10.46l76.9-.62s94.12,28.91,94.12-32.6a118.71,118.71,0,0,0-.69-18.84,121.71,121.71,0,0,0-14.07-44,302.69,302.69,0,0,1-73.05,19.42c-69,9.3-125.33-7.61-156.08-19.68"/><path class="cls-9" d="M30.68,299.45c-.28,3.89-1.25,23,12.78,39.38,16.57,19.38,40.39,19,43.48,18.9a413.93,413.93,0,0,1,5.35,51.85,414.34,414.34,0,0,1-1.86,59A63.4,63.4,0,0,1,64.79,464a64.16,64.16,0,0,1-18.36-11.58c-7.75-6.69-28.9-27.89-36.05-60.91C.12,344.19,25.92,306.2,30.68,299.45"/><path class="cls-8" d="M30.68,300.59A57,57,0,0,0,33.06,321C34.92,327,2.66,439.77,92.4,444.31c10.44.53-1,16.38-2,25.43a63.4,63.4,0,0,1-25.64-4.59,64.16,64.16,0,0,1-18.36-11.58c-7.75-6.69-28.9-27.89-36.05-60.91-10.25-47.33,15.54-85.32,20.3-92.07"/><path class="cls-11" d="M140.88,489.56S126,526.81,109,553.84c-2.56,4.05,30.49,4.13,56.6,7.76,19.9,2.77,36.88,5,36.88,5s82.85-8.69,92.8-10.23c12.19-1.88-29.19-66.79-29.19-66.79H140.88Z"/><path class="cls-12" d="M147.45,498.22s-14.29,35.36-24.2,50.81c-2.13,3.32,37.44,1.81,58.92,4.8,16.36,2.28,20,7.73,20,7.73s49.45-15.32,78.38-12.53c14.09,1.36-21.95-50.81-21.95-50.81H147.45Z"/><path class="cls-9" d="M165,477.43c16.38,30.61-8.56,91.29-20.6,124.34-4.91,13.5,89.53,7.71,103.46,5s-.46-115-10.58-129.35S145.38,440.68,165,477.43Z"/><path class="cls-13" d="M173.27,497.29c13,24.3-6.8,72.49-16.35,98.73-3.9,10.72,71.1,6.12,82.16,4s-.37-91.29-8.4-102.71S157.66,468.1,173.27,497.29Z"/><path class="cls-1" d="M67.47,286.53a263.62,263.62,0,0,1,12.23,38c4.61,19.19,6,34.59,7.58,63.13,1.19,21.68,2.35,48.76,2.94,80.19a320.12,320.12,0,0,0,228.87-1.06s-.62-144,15.38-187.63c0,0-80,66.44-267,7.38"/><path class="cls-14" d="M90.4,466.74l1,30.55a318.89,318.89,0,0,0,72.53,18.51,316.43,316.43,0,0,0,81.5.32,313.26,313.26,0,0,0,75.07-19.23v-32.6s-99,49.21-230.08,2.46"/><path class="cls-7" d="M92.81,291s5.57,113.93,45.52,101c41.11-13.26,20.26-1.41,20.26-1.41l3,18-73.42-3.08s-1.7-83.22-19.91-117.07Z"/><path class="cls-7" d="M313.89,295.53c-6.68,70.16-19.74,91.18-32.6,93.64-10.43,2-26.78-7.08-28.42-3.88-.76,1.48,2.17,4.53,5,7.08l-13.45,16.11,76-3.67c.14-14.59.78-30,2.08-46.2A659.17,659.17,0,0,1,332.43,286Z"/><path class="cls-15" d="M87.61,393.85c.32,6.24.69,13.9,1,22,.29,6.74.44,10.11.54,13.71,0,1.78.09,3.51.2,6.24.15,3.76.38,8,.38,8s1.43,1.19,2.82,2.3a9.53,9.53,0,0,1,.76.64,9.38,9.38,0,0,0,.92.91,4.2,4.2,0,0,0,.56.37,30.62,30.62,0,0,1,2.9,2c1.63,1.18,3.22,2.51,4.93,3.56,7.05,4.31,13.66,9.55,21.07,13.23a127.91,127.91,0,0,0,23,8.79,119.18,119.18,0,0,0,18.44,3.55c32,3.54,43-26.4,38.13-51.89L177.48,432a60.18,60.18,0,0,1-26.59,6.77c-4.95.08-13.13.12-21.85-4-6.81-3.21-9.83-6.94-19-17.07-5-5.5-12.59-13.74-22.44-23.8"/><path class="cls-15" d="M319.72,437.13c0,1.74-6.31,6.56-7.69,7.91q-4.76,4.64-9.81,9a153.8,153.8,0,0,1-22.91,16.49c-14.83,8.57-33.33,14.9-50.18,8.19a41.38,41.38,0,0,1-15.67-11.08c-9.81-11.17-11.06-26.42-7.49-40.26q9.9,3.13,20.16,6.15,17,5,33.4,9.23a150.43,150.43,0,0,0,27.38-16.92,154.09,154.09,0,0,0,33.84-36.61q-.52,24-1,47.93"/><path class="cls-16" d="M259,457.5c-.12,2-.88,10.82-7.93,16.72-7.8,6.53-20.12,6.86-30.16.33A45.87,45.87,0,0,1,211.18,464a48.62,48.62,0,0,1-7.73-28.79S252.56,451.94,259,457.5Z"/><path class="cls-17" d="M87.61,393.85c3-3.31,16.68,11.48,41.23,12.85A70.56,70.56,0,0,0,158,401.91s-9.2-12-19.62-9.85c0,0,55.8-47.83,136.14-3.52a54.47,54.47,0,0,0-20.53,12.93,60.34,60.34,0,0,0,66.83-12.28c-3.22,11.78-12.18,37.73-36.84,57.3A102.6,102.6,0,0,1,259.14,461s-35-20.4-53.66-25.32c0,0-40.78,12.66-55.5,21.81a151.57,151.57,0,0,1-22.92-14.24C101.55,424,83.89,397.95,87.61,393.85Z"/><path class="cls-18" d="M270.13,417.25a29.75,29.75,0,0,1-13.33,6.9c-12.82,2.75-27-3.94-36.81-16.74l-33.09-.31c-1.21,1.72-9.64,13.28-25.32,14.82-14.78,1.46-24.9-7.07-26.59-8.54,1.12,1.65,9.12,13.06,23.59,14.37,12.64,1.15,25.13-5.86,31.6-17.8l27.56-1.06c10.6,19.07,28.62,27,40.36,22.08C259.93,430.21,266.11,427.24,270.13,417.25Z"/><path class="cls-19" d="M172.12,379.56c.69,1.08-4.95,4.09-4.3,7.19,1.18,5.67,22.06,5.61,35.82,5.58,18.26-.05,33.2-.21,34.92-6,.88-2.93-1.94-6.38-4.42-8.81,19,2.83,23.77,6.66,24.19,9.84,1.09,8.28-25.85,21.75-52.32,22.72-26.85,1-55.08-10.84-54.71-19.5C151.6,383.55,170.92,377.67,172.12,379.56Z"/><path class="cls-20" d="M228.65,378.8c0,10.53-11,19.07-24.61,19.07s-24.61-8.54-24.61-19.07,11-19.07,24.61-19.07,24.61,8.54,24.61,19.07"/><path class="cls-7" d="M83.06,343.71l52.37,30.95s12.87,5,16.73-4.94,2.67-52.44,2.67-52.44-29.64-9.53-35.89,28.91l-37.55-13S82.52,339.8,83.06,343.71Z"/><path class="cls-17" d="M323.64,341.14l-52.37,33.52s-12.87,5-16.73-4.94-2.67-52.44-2.67-52.44,29.64-9.53,35.89,28.91l37.1-15.37S324.18,337.22,323.64,341.14Z"/><path class="cls-5" d="M185.59,346.2c0,16-13.77,28.91-30.76,28.91s-30.76-12.95-30.76-28.91,13.77-28.91,30.76-28.91,30.76,12.94,30.76,28.91"/><ellipse class="cls-6" cx="154.83" cy="346.2" rx="30.76" ry="28.91"/><path class="cls-5" d="M185.59,349.89c0,13.93-12.95,25.22-28.91,25.22s-28.91-11.29-28.91-25.22,12.95-25.22,28.91-25.22,28.91,11.29,28.91,25.22"/><ellipse class="cls-6" cx="156.68" cy="349.89" rx="28.91" ry="25.22"/><path class="cls-5" d="M281.56,346.2c0,16-13.77,28.91-30.76,28.91S220,362.17,220,346.2s13.77-28.91,30.76-28.91,30.76,12.94,30.76,28.91"/><ellipse class="cls-6" cx="250.8" cy="346.2" rx="30.76" ry="28.91"/><path class="cls-5" d="M281.56,349.89c0,13.93-12.95,25.22-28.91,25.22s-28.91-11.29-28.91-25.22,12.95-25.22,28.91-25.22,28.91,11.29,28.91,25.22"/><ellipse class="cls-6" cx="252.64" cy="349.89" rx="28.91" ry="25.22"/><path class="cls-5" d="M182,335.23a12.2,12.2,0,0,1,1.92,2.69,12.51,12.51,0,0,1,1.41,5.51,40.83,40.83,0,0,1,9.76-3.61c11.71-3,21.74,2.1,24.94,3.89a16.58,16.58,0,0,1,.37-4.3,16.8,16.8,0,0,1,2.61-6,41.79,41.79,0,0,0-13.17-3.83,44,44,0,0,0-26.55,5.62"/><path class="cls-6" d="M183.29,335.23a12.2,12.2,0,0,1,1.92,2.69,12.51,12.51,0,0,1,1.41,5.51,30.41,30.41,0,0,1,8.47-3.61c11.71-3,21.74,2.1,24.94,3.89a16.58,16.58,0,0,1,.37-4.3,16.8,16.8,0,0,1,2.61-6,41.79,41.79,0,0,0-13.17-3.83A44,44,0,0,0,183.29,335.23Z"/><path class="cls-5" d="M79.34,320.94c.72,2.18,1.42,4.54,2,7.08.77,3.15,1.32,6.13,1.72,8.86,44.51,27,56.48,34.35,56.44,34.4a27.5,27.5,0,0,1-8.34-6.4,29.48,29.48,0,0,1-7.13-16L79.34,320.94"/><path class="cls-5" d="M324.53,334.37c-43.8,28.14-56.16,35.23-56.13,35.28a27.55,27.55,0,0,0,8.17-6.61c5.36-6.31,3.86-13.27,4.14-16.2,14.67-9.69,30.55-18.14,45.21-27.83Z"/><path class="cls-6" d="M79.34,320.94c.72,2.18,1.42,4.54,2,7.08.77,3.15,1.32,6.13,1.72,8.86,44.51,27,56.48,34.35,56.44,34.4a27.5,27.5,0,0,1-8.34-6.4,29.48,29.48,0,0,1-7.13-16Z"/><path class="cls-21" d="M353.49,168.21A147.24,147.24,0,0,1,311.31,271.4c-27.5,28.17-194.69,26.15-222.38-4.83a147.06,147.06,0,0,1-37.67-98.36C51.26,86,118.92,19.33,202.38,19.33S353.49,86,353.49,168.21"/><path class="cls-14" d="M62.58,244.69s-7.75,2.87-7.46,16.36S64,284.86,64,284.86s23,28.41,135.73,27,138.89-30.7,138.89-30.7,7.17-9.18,3.44-29.84Z"/><path class="cls-8" d="M145.22,271.66s-4,31.28,9.18,38.74l44.76,2V269.65H144.65Z"/><path class="cls-13" d="M252.55,271.66s4,31.28-9.09,38.74l-44.29,2V269.65h53.95Z"/><path class="cls-9" d="M83.24,254.73a71.32,71.32,0,0,0-3.44,13.09,72.73,72.73,0,0,0,.85,27.55c6.84,2.57,14.3,5,22.36,7.19a241.16,241.16,0,0,0,48.82,7.84h2.58s-11.76-7.46-10-39.6Z"/><path class="cls-8" d="M315.09,254.73s8.32,21.81,2.58,39.31c0,0-36.15,15.21-71.15,16.36h-2.58s11.76-7.46,10-39.6Z"/><path class="cls-15" d="M115.28,88.81s15.39-33.25,110.67-38.21c0,0,13.4-3.47,0-7.94,0,0-24.81-4-30.27,0,0,0-19-14.94-46.15,11.41,0,0-18.36-6.45-37.72,31.27,0,0-2,5.46,3.47,3.47"/><path class="cls-15" d="M152.25,111.88s25.06-28.29,43.42-30.52c0,0,9.93-3.48,5.71-7.2,0,0-34.24.5-51.37,27.79,0,0-15.88,2.23-24.57,13.4,0,0-1.24,6.7,5.21,2,0,0,11.66-8.19,21.59-5.46"/><path class="cls-15" d="M124,153.82s6.84-29.53,47.72-31.51c0,0,22-35.48,47.57-12.91,0,0-31.81.25-55.36,28.54,0,0-20.33-5.71-39.93,15.88"/><path class="cls-15" d="M202.43,174.17s-13.45-2-3.77-10.42,22.08-13.9,22.08-13.9,45.66-15.63,53.6-20.84,17.87-4.72,17.87-4.72,1.24,5.46-15.88,16.63-30.52,8.31-30.52,8.31S232.5,167,202.43,174.17"/><path class="cls-15" d="M222.48,202.21s-10.17,2-9.43,8.68,7.94,8.93,7.94,8.93,12.4-.25,22.7-3.47,10.8-5.33,10.8-5.33,33.25-3.6,42.18-17.49,2.73-11.17,2.73-11.17l-15.14,13.4s-34,5.46-37,9.43c0,0-15.38-4.71-24.81-3"/><path class="cls-15" d="M103.62,203.45s-8.19,17.12,13.65,0,24.81-17.62,24.81-17.62,38.46-6.2,41.94-15.14c0,0,.5-4.47-5.46-1.74a60.25,60.25,0,0,0-11.17,6.95s-31.27-9.18-32.26,2c0,0-22.33,3-31.51,25.56"/><path class="cls-15" d="M125.36,225.78s19.45-9.43,22.68-18.36c0,0,30-1.49,38-13.9s4,5.71,4,5.71S167.39,225,147.79,216.1l-12.16,12.41Z"/><path class="cls-15" d="M81.53,219.82s7.94-37.25,32.51-51.75c0,0,6.7-1.85,1.49-5.07s-26.8,7.26-35.24,19.14c0,0,11.95-34.27,31.16-41.72,0,0,7.3-1.24,6.06-5.46s-13.15-2.73-13.15-2.73-11.41,5.71-12.9,15.14c0,0-9.68-5.46-15.88,14.39,0,0-4.22-11.17,0-15.38s3.48-15.63,3.48-15.63a23.63,23.63,0,0,1,6.2-15.38C91.7,108.41,91,101.88,91,101.88s-1.24-5.14-7.69,5-9.57,10.42-9.57,10.42-1.1-.74-2.59,12.9-8.19,14.89-8.19,14.89A119.35,119.35,0,0,1,65.56,120a123.92,123.92,0,0,1,25.9-52.79A144.16,144.16,0,0,0,67.14,102,152.41,152.41,0,0,0,53,149.35a160.9,160.9,0,0,0,6,68.24l22.58,2.23"/><path class="cls-1" d="M319.75,219.82s17.12-34.52,14.89-51.75c0,0-10.92,9.32-12.65,22.72s-22.33,22.83-22.33,22.83-9.93,1.74-6-6.2,17.87-17.85,17.87-17.85,9.33-28.3,23.28-35.75c0,0,2.53-18.86-13.85-17.87,0,0-15.88,5.2-15.14,13.27,0,0-12.91,1.12-17.37,10.06s-9.68-5.46-9.68-5.46,3-12.9,13.42-10.3c0,0,10.65-20.22,31.74-22.46,0,0,3.22-15.14-38.46-14.64,0,0-13.65-9.7-26.3,0,0,0-6,3-6.7-1.23s7.44-8.59,7.44-8.59,33.75-16.72,64,4.12c0,0-24.32-47.15-37-56.08a148,148,0,0,1,58.35,171.93l-25.6,3.26"/><path class="cls-22" d="M45.3,251.21s-12.63-26.09,0-30.51S85.08,215,155.18,230.8s144.61-9.47,144.61-9.47,63.78-12.63,65,2.53-8.21,36.62-8.21,36.62-69.46,53-157.24,17.68c0,0-54.94,30.71-154.08-27"/><path class="cls-16" d="M325.43,77.46c-6.51-8-16.56-20-20.63-23.25C298.55,49.28,241.31,21,241.31,21S204.41,21,226.06,65c0,0,17.5,25.3,39.11,9.58A71.47,71.47,0,0,0,277,83.78a72.35,72.35,0,0,0,24.51,9.48,21.7,21.7,0,0,0,23.88-15.8Z"/><path class="cls-23" d="M332.52,74.11A7.07,7.07,0,0,1,327.94,80s-2.11,14.7-27,8.57c0,0-13.51-.07-22.31-9.79,0,0-19.76-10.61-15-26.62,0,0-5.93-8.13-1.26-9.78l3.81,5.13L281.7,67.21l20,10.46L316.22,80s14.63-2.69,16.3-5.93"/><path class="cls-24" d="M302.13,28.53s-4.55-3.57-9.84-3.23a14.82,14.82,0,0,0-8.06,2.61s-8.73.65-13,4.83-8.77,9.62-8.77,9.62,1.43-1,.37.6-.91,1.28,2.34,4.92c0,0,.77-.09-.16,2.54s3.18,10.18,8.51,16.69,15.33,15.15,15.33,15.15A137.81,137.81,0,0,0,307.38,84c8.74.08,17.47,3,20.1-6.57,0,0,6.43-.43,5.34-7.58,0,0,2.69-5.72.84-15a22.2,22.2,0,0,0-6-9.33s.18-11.17-11.45-11.91c0,0-5-8.62-14.11-5.1"/><path class="cls-25" d="M312.5,48s3.38,21.49-9.31,31.19c0,0-10,7.76-22.42-8.36,0,0,5.94-16.71,18.69-28.07a53.48,53.48,0,0,0-20.35,23.19s-6.44-.83-13.37-11c0,0-1.24,7.52,10,15.81,0,0,9.93,15.6,27.82,14.69l2.92-.67s11.42,7.26,18-.83c0,0,3-4.19,2.76-5.68,0,0,4.3-.77,5.31-4.07l.39-3.09s.8,3.49-6,5.27c0,0-3.43,8-10.83,5.88,0,0,3.85-11-3.57-34.28"/><path class="cls-25" d="M283.38,28.38s9.3-1.59,14.62,2.78c0,0-2.56-4.56-10.48-4.63,0,0-2.89,1.2-4.14,1.85"/><path class="cls-25" d="M302.29,28.7s3.11,1.72,4.18,3.36a10.83,10.83,0,0,0-2.56-3.73,4.33,4.33,0,0,0-1.62.37"/><path class="cls-25" d="M263.37,41.22s.52,4.62,3.78,6.26A15.44,15.44,0,0,0,265.74,55s-1.76-3.81-.63-7.07c0,0-4.47-3.38-2.7-5.52,0,0-.11-.47,1-1.15"/><path class="cls-25" d="M327.59,45.63s-2.05-1.78-2.94-1.58a4.83,4.83,0,0,1,3,.86s.1.64,0,.72"/><path class="cls-25" d="M316,33.24s.26,1.3-.56,1.88a2.44,2.44,0,0,0,1.34-1.42l-.42.06Z"/><path class="cls-23" d="M291.11,14.72a7.06,7.06,0,0,1,3.29,6.68s12.3,8.31-4.07,28c0,0-6,12.13-18.54,15.81,0,0-18.17,13.15-30.49,1.86,0,0-9.9,1.79-9.34-3.13l6.28-1.19,24.49-5.33L280.84,44,289.33,32s4-14.34,1.78-17.25"/><path class="cls-24" d="M236.84,22.18s-5.19,2.53-7.2,7.45a14.83,14.83,0,0,0-1.17,8.4s-3.23,8.14-1.34,13.84S232,64,232,64s-.24-1.71.7-.07.75,1.38,5.45,0c0,0,.26-.73,2.21,1.25s10.55,1.58,18.73-.37,20.32-7.19,20.32-7.19a137.81,137.81,0,0,0,9.69-16c3.89-7.83,10.34-14.4,2.86-21,0,0,2.42-6-4.49-8.11,0,0-4-4.92-13.13-7.3a22.2,22.2,0,0,0-11,1.3s-10-5-15.71,5.1c0,0-9.93.73-10.75,10.47"/><path class="cls-25" d="M258.87,21.33s20.81,6.33,24,22c0,0,2.64,12.35-17.3,16.53,0,0-12.45-12.63-17.11-29.07a53.48,53.48,0,0,0,12,28.43s-3.56,5.43-15.71,7.24c0,0,6.23,4.4,18.58-2.08,0,0,18.37-2.13,25.35-18.62l.67-2.92s11.51-7.11,7.11-16.57c0,0-2.47-4.52-3.9-5,0,0,1.18-4.2-1.35-6.55L288.59,13s3.49.8,2.11,7.72c0,0,5.72,6.58.56,12.31,0,0-8.19-8.25-32.4-11.75"/><path class="cls-25" d="M228.53,39s2.62-9.06,8.88-11.94c0,0-5.22.32-8.74,7.41,0,0-.18,3.12-.14,4.53"/><path class="cls-25" d="M237.06,22.11s2.9-2,4.85-2.3a10.82,10.82,0,0,0-4.48.68,4.33,4.33,0,0,0-.37,1.62"/><path class="cls-25" d="M231.34,62.59s4.38,1.54,7.28-.67a15.43,15.43,0,0,0,6.11,4.54s-4.2-.08-6.63-2.52c0,0-5,2.55-6.15,0,0,0-.47-.11-.61-1.37"/><path class="cls-25" d="M263.33,6.73s-2.5,1.07-2.7,2A4.83,4.83,0,0,1,262.7,6.4s.62.18.64.33"/><path class="cls-25" d="M247.12,11.75s1.28.34,1.44,1.32a2.45,2.45,0,0,0-.69-1.83l-.13.4Z"/><path class="cls-26" d="M152.89,394.56s47.82,23.52,101.94-.71c0,0-18,16.3-50.47,16.31C204.36,410.16,165.63,411.77,152.89,394.56Z"/><path class="cls-14" d="M80,292a394.79,394.79,0,0,0,119.2,18,394.78,394.78,0,0,0,119.32-18.87l-.82,2.9s-50.53,22.59-118.5,18.36c0,0-74.64,2-118.52-17Z"/><path class="cls-16" d="M94.2,272.51S163.34,296.3,201,274.63c0,0,50.47,31.9,142.18-5.72,0,0-65.51,41.9-142.51,9.76,0,0-51.55,21.72-105.67-4l-1.33-.3-1.3-2.89Z"/><path class="cls-27" d="M150.29,585.94c-19.36,9.89-42.43,7.65-58.16-5.54-18.73-15.71-23.8-44.2-10.81-67.28,0,0-48,92.87,44.71,90.85l17.92-1.84Z"/><path class="cls-28" d="M150,457.49s-69.58-47.8-26.22-50.92a70.63,70.63,0,0,1-10.33-1.22,72.87,72.87,0,0,1-26.2-10.79A134.88,134.88,0,0,0,150,457.49Z"/><path class="cls-16" d="M150,457.49s.22,31.64,40.45,15.43c0,0,14.51-11.67,15-37.24C205.48,435.68,156.38,452,150,457.49Z"/><path class="cls-16" d="M94,274.27c-2.37-3.69-7-12.16-5.14-21.85,2.81-14.84,19.67-27.1,41.33-26.9-69.8-13.68-87.72-6.08-91.68,2.48-2.17,4.68-1.14,11.73,6.51,22.6C45,250.6,65,278,94,274.27Z"/></svg>