<svg id="Layer_1" data-name="Layer 1" xmlns="http://www.w3.org/2000/svg" viewBox="0 0 620.83 677.89"><defs><style>.cls-1{fill:#666;}.cls-2{fill:#f8be61;}.cls-3{fill:#eac461;}.cls-4{fill:#e8b05d;}.cls-5{fill:#f2cb9c;}.cls-6{fill:#bae4ff;}.cls-7{fill:#bf96ff;}.cls-8{fill:#f5feff;}.cls-9{fill:#545454;}.cls-10{fill:#c1c1c1;}.cls-11{fill:#b2b2b2;}.cls-12{fill:#edc23a;}.cls-13{fill:#ddb237;}.cls-14{fill:#d8574a;}.cls-15{fill:#f4ca8e;}.cls-16{fill:#ffc943;}.cls-17{fill:#fff;}.cls-18{fill:#502f27;}.cls-19{fill:#a4a5a4;}.cls-20{fill:#7a7a7a;}.cls-21{fill:#3a3a3a;}.cls-22{fill:#5a5b59;}.cls-23{fill:#d3a344;}.cls-24{fill:#eab54b;}.cls-25{fill:#231f20;}.cls-26{fill:none;stroke:#231f20;stroke-miterlimit:10;stroke-width:3px;}.cls-27{fill:#303030;}.cls-28{fill:#484848;}.cls-29{fill:#3d3d3d;}.cls-30{fill:#1e1d1e;}.cls-31{fill:#7b787f;}.cls-32{fill:#3f393d;}.cls-33{fill:#757479;}.cls-34{fill:#e9d6d8;}.cls-35{fill:#a5a5a5;}.cls-36{fill:#969696;}.cls-37{fill:#d8d8d8;}.cls-38{fill:#898989;}.cls-39{fill:#727272;}.cls-40{fill:#5b5b5b;}.cls-41{fill:#b74641;}.cls-42{fill:#e5e5e5;}</style></defs><title>wippo</title><path class="cls-1" d="M557.67,190.07a13.07,13.07,0,0,0,.84-2.8c-.68-.3-16.41,34.3-31.89,68.78L454.73,579.31q-.36,16.78-.73,33.55l14.19-30.77L552,265.28C551.77,219.62,554.42,199.07,557.67,190.07Z"/><path class="cls-2" d="M531.31,271.57,518.52,246.3l6.77-110.52,37.22,31.9,48.78-2.31-40.5,95.52-29.86,12.94-5.92,1.9Z"/><path class="cls-3" d="M552,265.28a13.65,13.65,0,0,1-25.39-9.23l1.31,25.24a12.6,12.6,0,0,0,12.59,3Z"/><path class="cls-3" d="M471.22,571.12a11.67,11.67,0,0,1-13.71-4.31L455,578.5a9.88,9.88,0,0,0,12.86,4.24Z"/><path class="cls-1" d="M467.77,582.43c-.47,5.74-1.3,13.36-2.88,22.26a268.81,268.81,0,0,1-10.14,38.58,301.7,301.7,0,0,1-19.39,44.81A298,298,0,0,1,446.87,601l7.87-21.68L454,612.86Z"/><path class="cls-4" d="M562.5,167.68,533.93,284.53s-4.77-1.19-6-3.25L527,263l-8.46-16.72,6.72-109.83Z"/><polygon class="cls-5" points="602.25 165.8 566.06 257.96 548.94 270.35 570.78 260.89 611.28 165.37 602.25 165.8"/><path class="cls-6" d="M525.29,135.78s45-10.3,86,29.59l-22.66,1.07-26.12,1.24L541,149.24Z"/><path class="cls-6" d="M525.29,135.78s25.58,52.41,86,29.59Z"/><path class="cls-7" d="M532.92,147.06a80.79,80.79,0,0,1,24.31.84,84,84,0,0,1,41.4,21.31,64,64,0,0,1-36.25-1,70.15,70.15,0,0,1-29.45-21.17Z"/><ellipse class="cls-8" cx="585.52" cy="156.17" rx="7.32" ry="11.25" transform="translate(175.5 602.38) rotate(-62.35)"/><path class="cls-9" d="M533.93,284.53,463.47,571.27s-4.42-1.91-6-4.47L525.65,260.4,527,263l.95,18.27A9.64,9.64,0,0,0,533.93,284.53Z"/><path class="cls-10" d="M317.79,579.86s13.78,38.65,11.71,70.22c0,0,37.19-27.71,39.94,25.13H300.2l-22.36-87.62Z"/><path class="cls-11" d="M293.48,607.44s5,46.51,16.05,53c0,0,14.55,16.75,59.29,7.73l.63,7.09H300.2l-16.85-69.27,10.12,1.5"/><path class="cls-10" d="M150.32,580.5s-13.49,38.65-11.47,70.22c0,0-36.41-27.7-39.1,25.13h67.79l21.89-87.62Z"/><path class="cls-11" d="M174.12,608.08s-4.9,46.51-15.71,53c0,0-14.24,16.75-58,7.73l-.62,7.09h67.79L184,606.59l-9.91,1.5"/><path class="cls-10" d="M115.38,471.15s-10.17,44.36-57.77,60.54c0,0,5.08,32.81,2.54,38.36s51.07,24,11.32,53.81c0,0-41.59,22-52.22-36.72,0,0-3.59-48.34,0-63.87,2.31-10,12.94-59.52,36-87.71Z"/><path class="cls-12" d="M60.16,554.34S33,540,18.05,565l.87,17.08S35,560.34,60.16,570Z"/><path class="cls-12" d="M57.62,531.69s-6.84-25.3-36-18.43l6.75-23.67S73.64,486.33,76,523.11Z"/><path class="cls-11" d="M84.85,470.16s7.76,29.52-10.7,43.21L76,523.11s25.71-18.06,36-42.17Z"/><path class="cls-11" d="M46.38,516.44a71.73,71.73,0,0,1,8.73,35.86l5,2s-.64-10-2.54-22.64c0,0-5.91-12.56-11.23-15.25"/><path class="cls-11" d="M46.38,567.57s49.49,28.62,25.1,56.3c1.74-1,13.14-8.17,14.66-20.82,1.64-13.65-8.86-28.4-26-33l-3-1-3.36-.8-3.37-.5Z"/><path class="cls-12" d="M28.37,489.59A3.92,3.92,0,0,0,26.6,491L20,514.29s-.44,1.12.63,3.18Z"/><path class="cls-12" d="M76,523.11s0,1.58-.59,1.58l-17.64,7.7-.18-.69Z"/><path class="cls-12" d="M19,583.52a2.79,2.79,0,0,1-1-.91l-.85-16.45.85-1.18Z"/><path class="cls-12" d="M60.09,555.13q-.36-.69-.22-.81t1.62.95s-.41,14.49-.67,15.18l-.66-.39Z"/><path class="cls-10" d="M453.85,534.56c-.38-5.29-1.18-11.57.19-16.74,1.31-5,4.64-8.4,8.61-11.16-6.24-4.71-35.29-12.64-35.29-12.64a170.14,170.14,0,0,0-4.44-25.94,172.72,172.72,0,0,0-22.81-52l-61.46,40.83c3.39,6.18,17.18,30.81,34.38,49.51,6.43,7,16.53,14.6,22.66,19.54,1.62,1.3,3.45,2.75,5.74,4.35.77.53,1.62,1.1,2.73,1.82a114.63,114.63,0,0,0,26,13.09c3.83,1.49,6.65,2.49,10.94,4,3.74,1.32,8.83,3.08,14.94,5.08a7.71,7.71,0,0,0,1.56-5.32,6.92,6.92,0,0,0-.64-2.23,27.47,27.47,0,0,1-1.27-2.8A30.46,30.46,0,0,1,453.85,534.56Z"/><path class="cls-11" d="M393.63,514.87s25.14,22.71,40.64,22.08l3.3,3.65.69,7.79s-26.32-7.48-47-25.91h0l-1.81-4.41,4.18-3.19"/><path class="cls-12" d="M449.08,500.93s-25.83,22.76-10.09,48.7l16,6.05s-12.28-25.76,8.43-48.34Z"/><path class="cls-11" d="M375.21,463.2s-6.55,29.62,10.22,43.07l-12.14.46c-3-3.29-6-6.85-9-10.69a204,204,0,0,1-14.53-21.19Z"/><path class="cls-12" d="M423.65,471.06a2,2,0,0,1,1.36.45,1.93,1.93,0,0,1,.59.91l2.47,21.72-.71-.12Z"/><path class="cls-12" d="M449.08,500.93s-.55-.1,1.39-.84c0,0,13.07,6.29,13.59,6.8l-.63.45Z"/><path class="cls-12" d="M427.59,494a34.66,34.66,0,0,0-36.33,28.45l-18-15.74a65.4,65.4,0,0,1,25.31-27.31,64.32,64.32,0,0,1,25.28-8.35Z"/><path class="cls-12" d="M373.29,506.73a1.25,1.25,0,0,0-.11.51S388.6,521.72,391.3,523a.65.65,0,0,0,.54,0l-.58-.46Z"/><ellipse class="cls-10" cx="475.06" cy="528.49" rx="37.43" ry="29.46" transform="translate(-157.08 853.11) rotate(-75.23)"/><path class="cls-11" d="M445.21,536.94s18.29,31.54,50.55,15.15c0,0-12.81,18.37-32.33,11.92a28.66,28.66,0,0,1-8.61-5.45C446.3,550.72,445.36,540,445.21,536.94Z"/><path class="cls-13" d="M377.07,500.09a58.7,58.7,0,0,0,16.34,15.31q-.29.81-.57,1.64c-.62,1.87-1.15,3.68-1.59,5.43l.58.46s-.3.31-1.34-.46c0,0-13.92-10.7-17.33-15.23A34.2,34.2,0,0,1,377.07,500.09Z"/><path class="cls-13" d="M434.65,539s9,3,11.3,2.61c0,0,3,10.41,5.23,12.61L439,549.63a39.21,39.21,0,0,1-2.2-4.21c-.29-.65-.49-1.14-.55-1.29A32.76,32.76,0,0,1,434.65,539Z"/><path class="cls-12" d="M121.65,371.43S77.28,376-1.74,356.08c0,0,39.13,112.2,119.85,126.11Z"/><path class="cls-12" d="M343,371.43s44.36,4.53,123.39-15.34c0,0-39.13,112.2-119.85,126.11Z"/><path class="cls-14" d="M119.31,507.66s-33.71,83.18-2.75,103.52,115.65,1.91,115.65-13.4c0-5.24,50.91,37.43,114.34,15.32,0,0,42.67-16.25-2.16-105.44Z"/><path class="cls-2" d="M178,519.2s-13.43,33.68-28.86,58.12c-2.31,3.66,27.56,3.73,51.18,7,18,2.51,33.34,4.49,33.34,4.49s74.9-7.86,83.9-9.25c11-1.7-26.39-60.38-26.39-60.38H178Z"/><path class="cls-15" d="M183.91,527S171,559,162,573c-1.93,3,33.85,1.64,53.27,4.34,14.79,2.06,18.1,7,18.1,7s44.71-13.85,70.87-11.33C317,574.2,284.43,527,284.43,527H183.91Z"/><path class="cls-12" d="M199.82,508.24c14.81,27.68-7.74,82.54-18.62,112.42-4.44,12.2,80.95,7,93.54,4.53s-.42-103.94-9.57-116.95S182,475,199.82,508.24Z"/><path class="cls-16" d="M207.26,526.19c11.76,22-6.14,65.54-14.78,89.27-3.53,9.69,64.28,5.54,74.28,3.6s-.33-82.54-7.6-92.86S193.15,499.8,207.26,526.19Z"/><path class="cls-10" d="M104.08,298.78s17.81,172.11,11.55,203.8c-6.93,35.12,232.91,40.21,234.3,0s-3.7-177.92,13.4-203.8Z"/><path class="cls-17" d="M142.44,363.54c0,13.45,9.9,24.35,22.11,24.35s22.1-10.9,22.1-24.35-9.9-24.35-22.1-24.35-22.11,10.9-22.11,24.35"/><path class="cls-18" d="M116.78,482.2s113.92,54,233.38,0c0,0,9,22.23-.23,33.78s-154.37,39.74-233.15,1.85c0,0-14.57-14.89,0-35.63"/><path class="cls-19" d="M350,465.61,313.89,491c-85,39.74-80.76-19.41-80.76-19.41h-.84s4.27,59.15-80.76,19.41l-34.78-25.08q-.67-15.18-1.34-30.36l112.06,10.84L350.4,435.57l-.4,30"/><path class="cls-20" d="M127.47,404q2.9-10.15,104.74,8l90.46-14.1s-25.72,28.89-23.26,34,46.36,5.55,51,3.7c.05,0,.21-.09.23-.06.22.37-29.74,17.95-59.42,35.25l-59-14.39-60.83,15.25-56-36a245.48,245.48,0,0,0,56-3.71q-45.92-20.76-43.9-27.82"/><path class="cls-21" d="M289.47,436.85a58.11,58.11,0,0,1-54.49.62,49.1,49.1,0,0,1-53-1.78L180,433a59.53,59.53,0,0,0,18,6.3,62.3,62.3,0,0,0,36.4-4.91,88.13,88.13,0,0,0,14.79,3.7,92.34,92.34,0,0,0,43-3.6Z"/><path class="cls-17" d="M275.18,413.39c-3.79,12-33.91,11.77-41.82,11.72-14.67-.09-33.91-.22-39.51-11.72-2.38-4.89-1.57-10.34-.31-14.48-9.72,2.4-16.61,8.1-17.25,14.48-.67,6.62,5.6,11.91,9.86,15.4,15.28,12.54,34.13,13.06,46.79,13.25,11.89.17,32.08.2,49-12.63,4.31-3.27,10.22-7.87,10.17-14.17-.09-10.68-17.18-19.12-20-16.64-1.89,1.65,5.16,8.21,3.08,14.79"/><path class="cls-19" d="M341.62,361,343,349.61H277.38L254,359.09l-42.42.4-50.23-17.27-40.12,7.39V361s20.89,51.6,81.65,26.88c0,0,15.57-11.16,16.72,5.17l24.71.23c0-.24-.15-5.36,3.7-7.86,3.48-2.26,8.73-1.41,11.94,2.45,3,1.62,26,13.62,51.39,2.83,19.9-8.46,28.29-25.43,30.25-29.71"/><path class="cls-22" d="M232.32,388.23s-16.95-3.49-18.72,18.27c0,0-4.86,18.44,17.67,18.44,0,0,22.84,4.25,21.3-18.44s-20.26-18.27-20.26-18.27"/><path class="cls-23" d="M363.8,218.83a58.46,58.46,0,0,1,13.4,19.87c11.15,27.72-4,54.47-6.47,58.69,0,0-130.71,74.87-274.24,0,0,0-34-33.74,8-78.56Z"/><path class="cls-24" d="M317.59,218.83s32.65,33.69,14,95.17c0,0-79.17,38.84-197.1,0,0,0-14.24-49.89,7.94-95.17Z"/><path class="cls-16" d="M262.26,219.83s29.37,74.06,4.09,110.19c0,0-53.73,2.79-70.24-1.48,0,0-23.69-23.93,3.79-110.85Z"/><path class="cls-17" d="M323.44,363.54c0,13.45-9.9,24.35-22.11,24.35s-22.1-10.9-22.1-24.35,9.9-24.35,22.1-24.35,22.11,10.9,22.11,24.35"/><path class="cls-25" d="M318.14,364.43c0,10.19-8,18.45-17.77,18.45s-17.77-8.26-17.77-18.45,8-18.45,17.77-18.45,17.77,8.26,17.77,18.45"/><ellipse class="cls-26" cx="300.37" cy="364.43" rx="17.77" ry="18.45"/><path class="cls-21" d="M392.42,178.4a153.22,153.22,0,0,1-23.77,82.13C340.75,304.69,130,306,101.78,263.39a153.27,153.27,0,0,1-25.61-85c0-86,70.8-155.69,158.13-155.69S392.42,92.42,392.42,178.4"/><path class="cls-27" d="M122.58,227.54A44.93,44.93,0,0,1,112.74,195s3.84.88,2.94-10.9,11.3-52.71,18-54.77-23.54,6.46-26.45,29.29c0,0-7.55-1.61-9.3,21.36S86,119,101.67,93.59c0,0-47.48,56.66-16.17,137.63l37.08-3.68"/><path class="cls-28" d="M121.17,106.08s-2.91,19.43,6.68,3.53,13.66-13.55,13.66-13.55,7.55.88,10.75-9.42,26.73-25,26.73-25a53.73,53.73,0,0,0,21.5-9.13c10.75-7.66,31.67-14.13,31.67-14.13s21.79-3.53,7-6.77-23.25,2.95-23.25,2.95-10.75,5-13.95,3.24-7.26,2.94-7.26,2.94.29,2.94-7.56,1.18-22.38,1.77-24.41,10.31-18.6,13.85-16,21.06-12.11,10.44-12.11,10.44-6.48-1.18-13.46,22.38"/><path class="cls-28" d="M158.37,102.26s-2.62,12.66,8.14,3.24S198.76,74,208.64,73.26,220,71.34,229.27,61.92s22.67-12.37,22.67-12.37,18-5,6.39-7.07S221.14,51.91,216.49,59a13.79,13.79,0,0,1-11.91,6.48s-14.53-2.65-27,16.19c0,0-2.61,7.07-6.39,4.71s-11.62,5.59-12.79,15.9"/><path class="cls-28" d="M207.48,89.89s-10.9,12.37,2.69,7.07l24.13-9.42s3.85.59,10-5.89S278.38,59,278.38,59s7.84-8.24-3.78-6.18-32.45,21.5-32.45,21.5-5,7.95-9.11,6.18-23.39,6.61-25.57,9.42"/><path class="cls-28" d="M134.63,160.85s-3.87,13.7,5.43,1.55a135.93,135.93,0,0,1,18-19.51,38.61,38.61,0,0,0,8.42-11.78c2.91-6.77,21.21-20.91,21.21-20.91s12.5-10.31-1.45-7.95-26.74,26.79-26.74,26.79-2.32,7.65-8.43,10.31-16.47,21.49-16.47,21.49"/><path class="cls-28" d="M144.13,196.19s-.87,22.67,8.72,5.3c0,0,13.66-28.86,22.38-31.51s7.31-9.13,7.31-9.13-1.5-20,15.93-26.18c0,0,7.85-3.12,8.43-18.79s-10.75-3-8.43,1.7-9.88,12.66-9.88,12.66-9.39,3.54-13.07,22.67c0,0,.87,9.13-9.88,12.37s-21.5,30.92-21.5,30.92"/><path class="cls-28" d="M147.91,232.7s5.23-33,41-51.23c0,0-38.94,39.45-32.84,53.29Z"/><path class="cls-28" d="M186,208s-13.37,10.82,2.9,7.88,32.84-22.08,39.23-32.39,11-13.84,11-13.84,33.13-20,33.42-29.45-2.33-5-6.1-1.47-31.38,21.49-36.61,21.79-9,9.42-9,9.42S201.08,203.4,186,208"/><path class="cls-28" d="M213.87,222.39s-25,8.83,2.32,8.83c24.72,0,41.55-25.61,41.55-25.61s7-10.3,19.47-11.19,50.27-48,53.18-51.23,11.62-20.61-6.1-2.94-32,44.17-56.66,49.47c0,0-13.37-.88-19.76,11.48s-34,21.2-34,21.2"/><path class="cls-28" d="M259.49,172.63s-14,7.66,2.74,5.3,42.88-37.69,42.88-37.69,2.33-13.25,12.79-16.78,17.21-13,17.21-13,5.16-11.24-5.3-2.23-18,7.61-18,7.61-11.17.84-9.59,13.47-9.3,12.23-9.3,12.23-17,.84-15.11,13.68-18.31,17.37-18.31,17.37"/><path class="cls-28" d="M215.9,125.81s-13.37,19.31,5.52,8.77S247,122.28,247,122.28s17.22.29,22.27-9.72S301,84.88,312.09,79.88,326,61,313.25,66.63s-7.85,8-21.5,9-29.51,25.91-29.51,25.91-1.87,8.63-10.88,6.74-35.45,17.55-35.45,17.55"/><path class="cls-28" d="M230.14,240.35s-16,5.89,0,4.71,25-5.89,32.1-4.71,35-4.71,43.46-18.26-4.94-4.12-4.94-4.12-30.18,15.61-35,15.31-29.88,2.33-35.62,7.07"/><path class="cls-28" d="M312.38,194.71s-14.53,15,2.33,5.59,34.87-43.58,34.87-43.58,1.74-15.31-6.39,0-30.8,38-30.8,38"/><path class="cls-28" d="M319.67,47.33s-17.75,6-22.11,11.05-10.75,5.59-5.81-1.18,19.27-15,19.27-15Z"/><path class="cls-28" d="M331.33,55.46s40,64.16,40,98c0,0,.29,16.19-7.26,20.61s-10.75,22.08-10.46,24.44-3.2,15-12.2,21.5-18.6,15.22,1.74,10,17.73-26.59,17.73-26.59-1.45-12.82,4.94-16.65c0,0,9-15,5.52,5.89s-13.08,39.75-15.4,42.1,25.77,0,25.77,0,51.94-91.82-50.41-179.29"/><path class="cls-17" d="M294.5,356.84c-10.1-.62-10.5,19.1,0,19.41s10.1-18.79,0-19.41"/><path class="cls-17" d="M187.61,363.54c0,13.45-9.9,24.35-22.11,24.35s-22.1-10.9-22.1-24.35,9.9-24.35,22.1-24.35,22.11,10.9,22.11,24.35"/><path class="cls-25" d="M147.74,364.43c0,10.19,8,18.45,17.77,18.45s17.77-8.26,17.77-18.45-8-18.45-17.77-18.45-17.77,8.26-17.77,18.45"/><ellipse class="cls-26" cx="165.51" cy="364.43" rx="17.77" ry="18.45"/><path class="cls-17" d="M171.38,356.84c10.1-.62,10.5,19.1,0,19.41s-10.1-18.79,0-19.41"/><path class="cls-1" d="M193.41,349.42s-11.37-14.35-13-18.81-36.34-6.93-96.51-60a115.24,115.24,0,0,0,2,26.53c2.9,15.09,8.32,26.81,10.66,30.86,11.76,20.29,51.43,29.18,96.91,21.45"/><path class="cls-20" d="M207.34,358s-24.77-21.53-51.72-19.56-60.07-13.82-72.92-30.73,13.46,43.65,24.92,48.2,72.53-18.88,95.75,28.13c0,0,11.76-6.62,4-26"/><path class="cls-29" d="M67.61,231c4-9.83,26-15.61,51.72-4.44L204,247l95.78-3.81L378.88,224l19,6.69-1.78,14.57s6.26,37.38-62.86,31.93c0,0,4.63,40.54-102,5.71,0,0-46.53,16.33-70.75.27,0,0-43.26,6.53-44.9-15-3.46,1.32-24.86,9.29-28.89,3.16-.74-1.13-1.2-3.2.59-7.24-14.63-10.69-23-24.81-19.61-33.12"/><path class="cls-28" d="M201.76,241.43c20,3.68,50.69,6.52,90.75-1.09q94.76-32,107-12.45,5,8-3.86,24.81c.88-10.16-2.09-14.71-4.12-16.81-9.63-10-36.38-4.59-66,16.15,0,0-15.51,14.69-25.31,3.81s-72.92,1.36-72.92,1.36-22.31,10.07-31.56-.82-75.64-25.3-92.79-19.32-16.87-1.37-16.87-1.37-4.35-5.16-9-1.35c-2,1.67-5.91-.77-6.29-2.41-.56-2.43,17.38-7.56,19.67-8.82,18.19-10.07,79.21,12.41,111.25,18.3"/><path class="cls-1" d="M271.63,349.42s11.37-14.35,13-18.81,36.34-6.93,96.51-60a115.18,115.18,0,0,1-2,26.53c-2.9,15.09-8.32,26.81-10.66,30.86-11.76,20.29-51.43,29.18-96.91,21.45"/><path class="cls-20" d="M257.69,358s24.77-21.53,51.71-19.56,60.07-13.82,72.92-30.73-13.46,43.65-24.92,48.2-72.52-18.88-95.75,28.13c0,0-11.76-6.62-4-26"/><path class="cls-10" d="M171.37,431.87c-9,4.62-57.12,3.7-57.12,3.7"/><path class="cls-13" d="M115.42,435.59s-53.69-1.52-97.36-74.86c0,0,65.67,15.34,92.62,11.14h0s4.51,58,4.75,63.72"/><path class="cls-16" d="M350.24,435.59c1.73,1,8.58,4.43,32.3-9.93,16.38-9.91,41.8-28.89,65.06-64.94-13,2.87-30.51,6.21-50.14,8.5A351.61,351.61,0,0,1,355,371.87l-3,0c-1.57,4.83-17.26,54.43-1.77,63.75"/><path class="cls-27" d="M142.44,284.78c-22.16-3.49-35.48-22-32.78-37.43s21.64-22.47,22.54-22.8c-33.27-9.36-61.45-4-65.55,8.14-4,11.8,14.25,29.41,16.88,31.89-1.65,5.26-.25,7.82.29,8.62,3.17,4.8,13.81,5.43,25.71-.9,0,0,19.47,12.35,32.92,12.47"/><path class="cls-27" d="M111.15,242.34s4.3-10.37,33-3.54c0,0-26-8.14-7.61-13.83,0,0-22-4.87-25.35,17.37"/><path class="cls-27" d="M266.49,25.94s-11.67,78.43,53.91,75.58c0,0,30.56,1.16,45.19-9.62l-1.68-2.68L281,42.08l-9.34-15Z"/><path class="cls-30" d="M289.92,87.15s34.89,30,94.24-8.5l5-17.17L380.51,56l-28.21,1.78-59,8.85-6.76,8.84S285.94,82.14,289.92,87.15Z"/><path class="cls-31" d="M288.73,65.29s10.57-15,41.67-14.36c0,0,36.36-11.62,50.57.92l-44.78,9Z"/><path class="cls-32" d="M335.08,58.33A70,70,0,0,1,376,51c23.58,2.92,21.92,18.28,8.14,27.68,0,0,7.35-34.07-45.91-9.56,0,0-52.25-14-48.33,18.05,0,0-16.38-14.23,1.6-23.53S329.06,54.92,335.08,58.33Z"/><ellipse class="cls-17" cx="333.97" cy="81.65" rx="12.8" ry="7.29" transform="translate(-9.48 66.04) rotate(-11.14)"/><path class="cls-30" d="M284.25,5.91s36.21,6.62,44,50.49-9.56,42.4-9.56,42.4-66-8-44.55-86.72C274.13,12.08,276.64,4.42,284.25,5.91Z"/><path class="cls-33" d="M286,5.32l42.87,49.89C328.75,51,331.21,10.71,286,5.32Z"/><path class="cls-32" d="M289.43,5.3S271.68,3,280.63,16.68c7.8,11.87,17.33,1.47,28.84,28.7,0,0-2.36,6.76,7.61,12.49s7.16,20.86.26,26.23.73,17.15,6.1,13.41S338.65,72.73,329.08,57C329.08,57,322.43,12.72,289.43,5.3Z"/><ellipse class="cls-34" cx="291.74" cy="42.08" rx="6.62" ry="12.35" transform="translate(9.81 128.09) rotate(-25.17)"/><path class="cls-35" d="M115.42,435.59c3.68,0,8.86,0,15.09,0,9.64,0,13.21-.12,15.17-.19a137.75,137.75,0,0,0,16.65-1.19c3.94-.6,7.17-1.34,9.39-1.9a41.75,41.75,0,0,0-5.44-10.62,50.82,50.82,0,0,0-6.23-7,81.79,81.79,0,0,0-7.53-6.53,113,113,0,0,0-15.87-10.24s-29.37-26.57-15.36-41.82c0,0-9.45,1-11.75.31l5.9,79.19"/><path class="cls-36" d="M171.37,471.62s-33,14.65-1.63,27.31c0,0-38.75-9-52.78-16.65,0,0-1.32-43.65-1.54-46.69,0,0,44.92,29.1,56,36"/><path class="cls-37" d="M322.67,397.9s32.47-25.8,19.55-41.82l10.17.74-2,78.74s-35.27,4.31-51-3.7c0,0-1.23-5.09,23.26-34"/><path class="cls-11" d="M291.25,471.62s43,12,0,28.43c0,0,21.85-1.27,58.92-17.85l.23-46.63Z"/><path class="cls-38" d="M337.35,355.26s35.72-.08,27.25-32.17c0,0,14.52-10.82,21.19-18.34,0,0-16.46,52.2-33.39,52.07Z"/><path class="cls-39" d="M357.37,327.21s23.17-19.76,10.38-45.92a76.33,76.33,0,0,0,13.42-10.71s1.26,25.21-7.11,45c0,0-14.51,10.5-16.69,11.59"/><path class="cls-1" d="M193.41,349.31S182,335,180.37,330.5s-36.34-6.93-96.51-60a115.2,115.2,0,0,0,2,26.53c2.9,15.09,8.32,26.81,10.66,30.86,11.76,20.29,51.44,29.18,96.91,21.45"/><path class="cls-20" d="M207.34,357.91s-24.77-21.53-51.72-19.56-60.07-13.82-72.92-30.73,13.45,43.65,24.92,48.2,72.53-18.88,95.75,28.13c0,0,11.76-6.62,4-26"/><path class="cls-39" d="M127.69,355.15S92,355.07,100.44,323c0,0-14.52-10.82-21.19-18.34,0,0,16.46,52.2,33.39,52.07Z"/><path class="cls-40" d="M107.67,327.1S84.5,307.34,97.29,281.18a76.39,76.39,0,0,1-13.42-10.71s-1.26,25.21,7.11,45c0,0,14.51,10.5,16.69,11.59"/><path class="cls-36" d="M130,374.76s4.34-15.9,14.63-.65c0,0-4.39-10.51-.59-19.66a131,131,0,0,0-22.77,1.63S118,360.63,130,374.76"/><path class="cls-36" d="M182.09,379.63A9,9,0,0,1,194,391.05s3.58,0,9.35-7.1c0,0-6.74-13.19-16.74-19.84A34.49,34.49,0,0,1,186,369a35.08,35.08,0,0,1-4,10.65"/><path class="cls-36" d="M284.56,379.77a10,10,0,0,0-12.08,3.17,9.75,9.75,0,0,0-.55,9.72A28.12,28.12,0,0,1,262,384a44.89,44.89,0,0,1,4.87-8.48,45.46,45.46,0,0,1,12.09-11.37,26.76,26.76,0,0,0,5.62,15.65"/><path class="cls-36" d="M333.38,374.1c-.08-2.66-1.28-5.05-3.16-5.85-2.74-1.16-7.25,1-8.63,5.85a32.13,32.13,0,0,0,.59-19.66c2.21-.06,4.56,0,7,.08a93,93,0,0,1,13,1.56,33.55,33.55,0,0,1-8.84,18"/><path class="cls-41" d="M131.92,524.05S80.63,624.3,182,618.43c0,0-45.58,6.61-65.45-7.26,0,0-30.21-15.71.22-93.35Z"/><path class="cls-23" d="M158.09,320.91A232.72,232.72,0,0,0,297,325l13.09-5.77A271.32,271.32,0,0,1,152,317.82Z"/><path class="cls-27" d="M126.27,279.88s17.2,5.11,28.39,1.24c0,0,21.87,10.76,47.69,9.43,0,0,47.09,3.46,64-1.06,0,0,61.46,15.5,65.58-15.25a181.35,181.35,0,0,0,21.51-1.2c2.79-.32,7.37-.92,13-2a185.81,185.81,0,0,0,22.29-5.67,53.81,53.81,0,0,1-7.47,5.19c-13.59,7.83-27.53,7.87-35.39,7.17a19.53,19.53,0,0,1-11.91,3.81,29.13,29.13,0,0,1-3.81,5.2c-18.15,19.75-58.55,7.74-65,5.74a266.3,266.3,0,0,1-62.73.93s-19.51,2.24-48.38-5.94C154,287.5,126,282.78,126.27,279.88Z"/><path class="cls-42" d="M184.21,427.17s53.57,25.73,102.56-1.73c0,0-19.11,19-52.48,16.63C234.29,442.07,200.26,444,184.21,427.17Z"/><path class="cls-13" d="M75.09,518.24s-13.5,8-19.67,8.3a18,18,0,0,1,2.38,5.85l17.64-7.7S76.75,525,75.09,518.24Z"/><path class="cls-13" d="M56.28,552.77a49,49,0,0,1-.86,15.78s4.7,1,5.41,1.89c0,0,1-13.52.67-15.18a12.06,12.06,0,0,0-1.15-.83A12.4,12.4,0,0,0,56.28,552.77Z"/></svg>