<svg id="Layer_1" data-name="Layer 1" xmlns="http://www.w3.org/2000/svg" viewBox="0 0 837.88 677.89"><defs><style>.cls-1{fill:#a46ed3;}.cls-2{fill:#8f52d1;}.cls-3{fill:#69182a;}.cls-4{fill:#7c2e99;}.cls-5{fill:#873caf;}.cls-6{fill:#ffc943;}.cls-7{fill:#ffa300;}.cls-8{fill:#ffd371;}.cls-9{fill:#2b0a13;}.cls-10{fill:#451551;}.cls-11{fill:#6d7b93;}.cls-12{fill:#606a7f;}.cls-13{fill:#636e82;}.cls-14{fill:#808cac;}.cls-15{fill:#91a2bf;}.cls-16{fill:#bab1d7;}.cls-17{fill:#fff;}.cls-18{fill:#dbdbdb;}.cls-19{fill:#f9c5bb;}.cls-20{fill:#d4ecf8;}.cls-21,.cls-33{fill:#371544;}.cls-22{fill:#5a2168;}.cls-23{fill:#5b1628;}.cls-24{fill:#a4a5a6;}.cls-25{fill:#8d8d8e;}.cls-26{fill:#431851;}.cls-27{fill:#f8d8ae;}.cls-28{fill:#d18b00;}.cls-29{fill:#f4ba51;}.cls-30{fill:#fa0;}.cls-31{fill:#eca600;}.cls-32{fill:#3d1447;}.cls-33,.cls-34,.cls-35,.cls-36,.cls-37,.cls-38,.cls-39,.cls-40,.cls-41,.cls-42,.cls-43{fill-rule:evenodd;}.cls-34{fill:#786680;}.cls-35{fill:#baaab7;}.cls-36{fill:#968a94;}.cls-37{fill:#decfbb;}.cls-38{fill:#e8dbcd;}.cls-39{fill:#e9dcce;}.cls-40{fill:#eadac9;}.cls-41{fill:#e6d8c7;}.cls-42{fill:#e2dacc;}.cls-43{fill:#e6dccf;}</style></defs><title>wippo</title><path class="cls-1" d="M342.67,575.32s13.87,41.61,11.79,75.59c0,0,37.44-29.82,40.22,27H325l-22.51-94.31Z"/><path class="cls-2" d="M318.19,605s5,50.06,16.16,57c0,0,14.65,18,59.69,8.32l.64,7.63H325l-17-74.56L318.19,605"/><path class="cls-1" d="M156.39,576s-13.87,41.61-11.79,75.59c0,0-37.44-29.82-40.22,27H174.1l22.51-94.31Z"/><path class="cls-2" d="M180.87,605.7s-5,50.06-16.16,57c0,0-14.65,18-59.69,8.32l-.64,7.63H174.1l17-74.55-10.19,1.61"/><path class="cls-3" d="M250.84,609.82H230.62L199.37,609c-166.33,29.93-68-107.25-68-107.25H363.15S456.29,638.91,298.75,609l-29.59.83H250"/><path class="cls-4" d="M189.73,510.79S175.89,545.47,160,570.64c-2.38,3.77,28.39,3.84,52.7,7.23,18.53,2.58,34.34,4.62,34.34,4.62s77.14-8.09,86.41-9.52c11.35-1.75-27.18-62.19-27.18-62.19H189.73Z"/><path class="cls-5" d="M195.85,518.85s-13.3,32.93-22.53,47.31c-2,3.09,34.86,1.69,54.86,4.47,15.24,2.12,18.64,7.2,18.64,7.2s46-14.26,73-11.67c13.12,1.27-20.44-47.31-20.44-47.31H195.85Z"/><path class="cls-2" d="M212.23,499.49c15.25,28.5-8,85-19.18,115.78-4.58,12.57,83.36,7.18,96.34,4.66s-.43-107.05-9.85-120.44S193.92,465.27,212.23,499.49Z"/><path class="cls-1" d="M219.89,518c12.11,22.63-6.33,67.5-15.23,91.94-3.63,10,66.2,5.7,76.5,3.7s-.34-85-7.82-95.64S205.36,490.81,219.89,518Z"/><path class="cls-1" d="M369.84,483.4s62.37,16.81,128.86-58.21c6-6.77,12.12-14.26,18.32-22.55,0,0,38.55-45.25-15.52-65.11,0,0-52,2.09-28,52.07l-23.75,27.87s-40.18-8.61-65.16,7.25Z"/><path class="cls-2" d="M399.09,439.26S428,418.4,452,426.83l28.09-36.4s-17.24-37.75,21.44-52.9c0,0-52.61,3.45-28,52.07h0l-23.75,27.87s-33.06-5.2-54.64,2.2h0l4,19.59"/><path class="cls-6" d="M508.35,413.78s-16.07,6.49-34.84-24.17l-1.31-2.85a6,6,0,0,0-1.64,2.33c-3.46,9.15,19.2,24.71,20.43,25.54,8,5.21,15.42,5.79,17.95,2.77.48-.57,1.45-2.07.87-5.42Z"/><path class="cls-6" d="M134.91,327.94S81.7,319.62,45.12,298c0,0,0,49.05,15,81.48l-15,9.15s43.23,101.43,98.11,98.1Z"/><path class="cls-7" d="M57.63,304.62S65.86,402.11,132.4,404h0s-2.93-54.85-10.72-78.12h0S104.65,320,57.63,304.62Z"/><path class="cls-6" d="M364.15,327.94s53.21-8.32,89.79-29.93c0,0,0,49.05-15,81.48l15,9.15s-43.23,101.43-98.1,98.1Z"/><path class="cls-8" d="M441.43,304.62S433.2,402.11,366.66,404h0s2.93-54.85,10.73-78.12h0S394.41,320,441.43,304.62Z"/><path class="cls-1" d="M249.43,500.46c-71.59,0-117.16-19.36-117.16-19.36a683.82,683.82,0,0,0-4.38-118.95C120.27,300.65,107,261.63,107,261.63H391.81s-31.73,93.65-25.22,219.47c0,0-45.57,19.36-117.16,19.36"/><path class="cls-2" d="M186.16,474l-53.24-43.44-.65,45.25a269.85,269.85,0,0,0,45.06,15.72C183.18,487.3,187.19,482.2,186.16,474Z"/><path class="cls-2" d="M366.59,479.89c-.63-3.16-1.17-51.73-1.17-51.73l-53.95,53.47-.15-.06a11.24,11.24,0,0,0,0,4.52,12.32,12.32,0,0,0,1.76,3.64c2.06,1.51,3.94,3.28,6,4.35,29.23-5.67,47.53-13,47.53-13S367.23,483,366.59,479.89Z"/><path class="cls-9" d="M132.27,475.84s100.61,52.42,234.32,4.05L374.41,519S262,549.85,121.94,514.22Z"/><path class="cls-10" d="M131.34,397.28l1.72,38.39s25.7,90.91,114.85,32c0,0,70.29,62.64,119.21-24l1.33-46.51L261.72,424.35,176.1,414Z"/><path class="cls-11" d="M127.89,362.16h18.39c1.16,1.71,11.18,15.93,29.34,16.94,14.15.79,27.75-6.74,35.17-19.39h73.52c12.24,14.92,30.81,21.83,47.54,17.55,14-3.59,22-13.85,24.65-17.55l14.72.41,8.05-43.33L288,319.61l-25.33,15.34-28.23-1.12-22.51-20.31-91.78,3.3Z"/><path class="cls-12" d="M125.49,348.11a28.93,28.93,0,0,0,17.87,4.61,28.14,28.14,0,0,0,11.94-3.81c4.15-4.58,10.81-10.38,19.35-10.79a29.79,29.79,0,0,1,8.8.6c7.19,1.77,10.55,5.69,15,8.84,9.94,7,25.69,10.1,31.48,4.56,4.42-4.23,4.31-14.7,4.49-15.49h0l-68.87-21.43-43.87,10.69Z"/><path class="cls-12" d="M374,348.11a30,30,0,0,1-18.25,4.61,29.18,29.18,0,0,1-12.2-3.81c-4.24-4.58-11-10.38-19.77-10.79a31.09,31.09,0,0,0-9,.6c-7.34,1.77-10.78,5.69-15.33,8.84-10.16,7-26.25,10.1-32.17,4.56-4.51-4.23-4.4-14.7-4.58-15.49h0L333,315.19l44.82,10.69Z"/><polygon class="cls-13" points="206.67 311.85 229.73 336.62 269.43 336.62 287.27 313.52 262.53 304.62 229.73 304.62 206.67 311.85"/><path class="cls-14" d="M367.26,413.19l-53.88,56.49c-2.79-2.15-5.79-4.26-9-6.3a132.79,132.79,0,0,0-55.86-19.46,107.57,107.57,0,0,0-23.18,4.64,109.35,109.35,0,0,0-37.78,21.11L132.4,408.91l110.52,13.38Z"/><path class="cls-2" d="M144.87,359.72s20.42,41,30.26,49.19h0l-43.79-11.63s-2.13-27.42-3.87-37.56Z"/><path class="cls-2" d="M354.17,359.72s-20.42,41-30.26,49.19h0l43.79-11.63s2.13-27.42,3.87-37.56Z"/><path class="cls-15" d="M256.36,383.23s10.95-21.2,64-4.36c0,0,18.83,2.49,24.31,0,0,0-24.65,53-66.41,46.14Z"/><path class="cls-15" d="M235.65,383.23s-10-21.2-58.3-4.36c0,0-17.15,2.49-22.14,0,0,0,22.45,53,60.48,46.14Z"/><ellipse class="cls-16" cx="248.18" cy="397.16" rx="36.99" ry="26.75"/><path class="cls-17" d="M110.85,357.32a37.94,37.94,0,0,0,4.25,17c6,11.28,16.71,16.35,27.34,20.66,36.71,14.89,65.62,18.83,65.62,18.83,25.34,3.46,50,3.64,50.43,8.56.27,2.89-8.07,5-7.9,9.67.12,3.37,4.67,6,9.11,7.9A233.39,233.39,0,0,1,213,439C164.75,433,98.8,409.47,98.09,380.41,98,375.17,99.89,367.25,110.85,357.32Z"/><path class="cls-17" d="M390.43,357.32a38,38,0,0,1-4.25,17c-6,11.28-16.71,16.35-27.34,20.66-36.71,14.89-65.62,18.83-65.62,18.83-25.34,3.46-50,3.64-50.43,8.56-.27,2.89,8.07,5,7.9,9.67-.12,3.37-4.67,6-9.11,7.9a233.39,233.39,0,0,0,46.74-1c48.22-5.91,114.16-29.48,114.88-58.55C403.32,375.17,401.39,367.25,390.43,357.32Z"/><path class="cls-18" d="M102.16,367.29c-3.71,6-4.21,10.68-4.09,13.7,1.09,27.5,59.11,45.15,72.89,49.34a235.14,235.14,0,0,0,33.72,7.45,258.29,258.29,0,0,0,42.3,2.89v-5.54S92,431.08,102.16,367.29Z"/><path class="cls-14" d="M309.12,452.67s-63.59-40.5-116,0l5.55,8.7s41.55-38.61,104.89,1.46Z"/><path class="cls-19" d="M309.12,435.52l12.35,3.78-12.35,13.37s-16.23-9.58-29.4-12.82C279.73,439.84,304.46,437.82,309.12,435.52Z"/><path class="cls-19" d="M190.31,435.13l-14.15,4.16,12.35,13.37s16.23-9.58,29.4-12.82a110,110,0,0,1-27.6-4.71Z"/><ellipse class="cls-20" cx="177.5" cy="345.07" rx="28.32" ry="28.38"/><ellipse class="cls-21" cx="179.72" cy="342.17" rx="18.51" ry="18.54"/><ellipse class="cls-17" cx="174.3" cy="340.97" rx="10.63" ry="10.65"/><path class="cls-10" d="M193.75,294.39S233.89,319.5,230.61,353c-.85,1.15-4.35,5.64-10.26,6.46-6.74.94-13.86-3.27-17.26-10.6,0,0-21.27-49.56-60.83-8.92,0,0-16.71,7.84-18.62-5,0,0-3.81-34.44-19-61.52Z"/><path class="cls-22" d="M213.94,358.89s-20.32-96.45-90.3-23.89c0,0,1.64,13.54,18.62,5,0,0,37.71-42.88,62.69,12.11C205,352.09,209.84,358.17,213.94,358.89Z"/><ellipse class="cls-20" cx="322.76" cy="344.19" rx="28.32" ry="28.38"/><ellipse class="cls-21" cx="320.55" cy="341.3" rx="18.51" ry="18.54"/><ellipse class="cls-17" cx="325.97" cy="340.1" rx="10.63" ry="10.65"/><path class="cls-10" d="M306.52,293.51s-40.14,25.11-36.86,58.64c.85,1.15,4.35,5.64,10.26,6.46,6.74.94,13.86-3.27,17.26-10.6,0,0,21.27-49.56,60.84-8.92,0,0,16.71,7.84,18.62-5,0,0,3.82-34.44,19-61.52Z"/><path class="cls-22" d="M286.33,358s20.32-96.45,90.3-23.89c0,0-1.64,13.54-18.62,5,0,0-37.71-42.88-62.69,12.11C295.32,351.21,290.43,357.29,286.33,358Z"/><path class="cls-23" d="M202.71,588.8s-93.23,29.15-88.9-18c0,0-3.28-28.26,9.39-56.23,0,0-26.91,35.89-17.81,75.26,0,0,9.9,35.43,89.7,19.93Z"/><path class="cls-24" d="M560.16,291.83l66.6-47.18a747.18,747.18,0,0,0,63.53-50.4l82.5-73.08,18.64-9.43a115.24,115.24,0,0,1,9.3,16.39c16.74,36.14,10.56,72.34,5.71,90.93q-24.69,13.69-50.15,27.23-85.83,45.62-168.55,83.31L577.4,315.44Z"/><polygon class="cls-24" points="525.68 244.61 537.34 310.57 23.41 601.25 35.48 617.78 572.23 308.36 525.68 244.61"/><path class="cls-25" d="M617.82,370.79l-71.91-34.87L41.8,626.44l-7.28-10L571.28,307Z"/><path class="cls-25" d="M571.28,307s189.07-73.71,212.16-127.79c0,0,3.63-35.37-10.64-58.09l28.87-28.79s18.67,88.71,4.78,126.68c-27.41,18-57.86,36.36-91.37,54.23a1165,1165,0,0,1-126.15,57.92Z"/><path class="cls-1" d="M516.33,403.63s42.87-61.4-16.27-69.09c0,0-57.13,4.35-27.26,52.78C472.81,387.33,509.73,412.45,516.33,403.63Z"/><path class="cls-2" d="M474.58,384.82c2,3.07,5.11,6.19,4.67,6.66s-3.7-1.92-6.56-4.11c-8-8.32-11.06-20.05-7.85-30.59,4-13,16.87-22.11,31.54-21.75-2.22.91-19,8.12-23.71,25.44C471.9,363.36,468.63,375.45,474.58,384.82Z"/><path class="cls-1" d="M113.81,479.58c-12.89,22.39-40.17,37.1-40.17,37.1V553.3c50.72,22.45,12.47,57.78,12.47,57.78-54,20-54-39.49-54-39.49-.65-10.33-.86-20-.68-29C32.64,478.35,53,445.38,67.53,430l20,26.15Z"/><path class="cls-2" d="M115,479.6c-11.63,19.62-41.36,37.08-41.36,37.08V553.3h0c50.28,21,12.47,57.78,12.47,57.78,19.61-36.62-20.22-58.65-20.22-58.65V511c23.7-9.11,34.86-43.08,34.86-43.08l7.16,6.32Z"/><path class="cls-6" d="M31.44,557.49s8-15.36,42.2-4.2l2.84,1.32a6,6,0,0,0-.27-2.84c-3.3-9.21-30.64-6.36-32.11-6.19-9.49,1.24-15.49,5.6-15.46,9.53,0,.74.24,2.52,2.86,4.69Z"/><path class="cls-21" d="M110.92,237.16S53.24,93.86,194.14,23.09c0,0,149.15-58.1,197.76,115.88,0,0,14.83,69-15.66,103.49h-262Z"/><path class="cls-26" d="M145.52,223.51s-36.26-79.93-14-115.36c0,0-15.24,22-13.8,26.57l-3.09,21.63s-5.15-52.74,10.3-75.19c0,0,22.25-34.78,69.22-58.07,0,0,29.25-11.81,63.45-9.32,0,0,81.17,28.45,81.17,53.17,0,0,2.47,11.12-10.3,6.59,0,0-10.3,14.42-37.49,24.72,0,0,21,5.77,39.55-15.25,0,0,7,1.24,10.3-4.12L347,70.66,360.59,89.2s-29.66,35-44.5,38.92c0,0,26-5.55,47.38-30.27,0,0,29.66,51.09-4.53,119.48l-56,19.36H184.25Z"/><path class="cls-27" d="M100.3,230.09s-42,51.91,35.43,70c0,0,152.44,37.37,249.67-10.15,0,0,34.61-7.15,23.89-53.3Z"/><path class="cls-28" d="M120.37,237.79A40.86,40.86,0,0,0,108.62,254c-7.23,18.46,2.4,35.63,3.89,38.19-14.67-6.8-24.28-19.42-24.33-32.69a30.45,30.45,0,0,1,4.23-15.23Z"/><path class="cls-28" d="M377,238a41,41,0,0,1,12,16.2c7.41,18.46-2.46,35.63-4,38.19,15-6.81,24.88-19.42,24.92-32.69a29.91,29.91,0,0,0-4.34-15.23Z"/><path class="cls-29" d="M308.5,311.24c3.06-3.48,26-30.24,17.13-52.85-3.88-9.84-13.47-18.09-14.36-17.47L317.91,255h0l-71,11.5V313.7c11.12.45,23.19.46,36.07-.23C291.93,313,300.46,312.22,308.5,311.24Z"/><path class="cls-30" d="M307.32,241.1c14.23,15.48,19.47,33.8,16.14,45.47-.63,2.21-6.54,10-14.54,23.93l-.42.74a299.94,299.94,0,0,0,43.76-8.16A299.81,299.81,0,0,0,385,292.36a39.92,39.92,0,0,0,6.71-20c.58-12.09-3.39-25.89-13.25-31.25-27.71-15.07-1.92-1.56-1.92-1.56Z"/><path class="cls-30" d="M186.84,310.36s-28.4-23.73-10.69-55.5,1.89,0,1.89,0l69.33,11.5v47.16q-11.41-.18-23.31-.7Q204.8,312,186.84,310.36Z"/><path class="cls-31" d="M188.37,240.92c-13.89,15.48-19,33.8-15.75,45.47a62.24,62.24,0,0,0,14.19,23.93l0,0a257.42,257.42,0,0,1-74.33-18.18,40.54,40.54,0,0,1-6.55-20c-.57-12.09,3.31-25.89,12.93-31.25,27-15.07,1.87-1.56,1.87-1.56Z"/><path class="cls-4" d="M98.83,256.28C90.17,248,88,235.4,93.23,225.89c6.18-11.31,19.53-12.4,20.43-12.46,0,0,68.4,4.12,100.53,14.83,0,0,67.57,10.71,99.7-4.12,0,0,117.84-37.9,99.71,4.94,0,0,4.12,18.13-9.06,23.07,0,0,19,14-54.38,18.13,0,0,7.63,39.55-102.07,4.12,0,0-60.26,21.42-71.8,1.64,0,0-42,6.59-46.14-14.83-11,5-22,5.1-28.1-.55A14.53,14.53,0,0,1,98.83,256.28Z"/><path class="cls-32" d="M177.94,279.6s-81.58,2.58-31.31-44.87c0,0,28.84-25,73.34,0,0,0,31.31,25.88,50.27,11.22,0,0,30.49,6.9,47.79-3.45,0,0,11.54,8.63,22.25-.86,0,0,43.67-23.29,56.86-22.43,0,0-3.3,16.39,15.66,12.08,0,0,9.06,14.67-5.77,23.3l1.65,4.31s-23.07,13.81-56.85,12.94c0,0,20.8,36.29-104.14,7.79C247.67,279.62,197.71,296,177.94,279.6Z"/><path class="cls-4" d="M141.81,93.73s3.3-17.72,14.83-25.54c0,0,13.18-22.66,35.84-18.54,0,0,21.43-27.61,63-17.72a32.72,32.72,0,0,1,31.31,4.53l-32.14,3.3s-29.25-11.95-56,16.07c0,0-19-3.3-29.25,14.83C169.42,70.66,143.05,88.79,141.81,93.73Z"/><path class="cls-4" d="M136.87,136.17s-1.24-28,20.6-33.37c0,0,6.18-19.36,20.6-18.54,0,0,10.3-4.94,16.07-13.6,0,0,33-10,35-8.9l-2.06-1.07s-3.71,13.68-28.43,15.73c0,0-8.15,17.76-22.25,17.3,0,0-15.25,14-15.66,21C160.77,114.74,145.94,118.45,136.87,136.17Z"/><path class="cls-4" d="M136.86,155.53s12.37-23.07,26.38-29.25c0,0,20.19-20.19,31.31-22.66l-26,26Z"/><path class="cls-4" d="M199.91,107.74s24.31-9.07,24.31-16.89c0,0,21.42,6.18,37.49-8.65,0,0,30.49-2.89,37.49-7.83,0,0-12.52,14.87-30.49,14.83,0,0-13.19,15.65-41.2,11.95C227.51,101.15,221.74,116.39,199.91,107.74Z"/><path class="cls-4" d="M235.75,55s32.14-9.06,51.09,4.12c0,0,4.53-12.36,35.84,0,0,0-10-16.23-40.38-11.54C282.31,47.59,248.94,36.87,235.75,55Z"/><path class="cls-4" d="M143.88,187.26s-.41-32.55,43.26-40c0,0,25.13-34.19,45.73-31.31,0,0-33.37,22.25-38.32,39.55C194.55,155.53,169,152.65,143.88,187.26Z"/><path class="cls-4" d="M165.71,188.9s28-11.95,31.32-17.71c0,0,48.61-15.66,71.69-41.61,0,0,16.07-23.11,30.49-19.18,0,0-15.68,10.52-24.11,27.42,0,0-28.62,39.55-69.82,35.84C205.26,173.66,195.78,193.44,165.71,188.9Z"/><path class="cls-4" d="M202.38,207s49.44-16.07,90.23-72.92C292.61,134.11,288.9,204.56,202.38,207Z"/><path class="cls-4" d="M265.83,215.25s28-32.94,33.37-49.83c0,0,23.48-9.89,33.37-27.19,0,0-.82,23.48-27.6,35.84C305,174.07,294.66,203.77,265.83,215.25Z"/><path class="cls-4" d="M292.61,217.74s18.13-30.49,24.72-30.49c0,0,5.77-1.67,8.65-10.52,0,0,.41-9.26,12.36-6.17,0,0,16.48-14.8,17.31-19,0,0,4.94,17.57-21,25.2,0,0-5.77,2-5.77,7.9,0,0-2.06,13.33-14.83,9.21Z"/><path class="cls-4" d="M332.57,209.09s19.37-21.86,28-32.36c0,0,.43,20.28-11.12,23.29C349.47,200,339.17,209.92,332.57,209.09Z"/><path class="cls-21" d="M176.15,220s-33.82,7.82-46,41.22c0,0-39.08,14.36-31.31-4.94C98.83,256.28,25.77,190.07,176.15,220Z"/><path class="cls-33" d="M281.17,58.55a22.39,22.39,0,0,0-.81,24.11c5.19,8.45,15.95,12.4,26,9.25,0,0,7.29,27.47,27.36,25,0,0,9.15-10.7,17.5-7.5s15.53,15.44,30.92,7.5l-4.6-7.63-27-13.52L328.39,84.29,307,74.84Z"/><path class="cls-34" d="M293.2,73.9c-.13-4.6-5.32-4.33-7.08-7.36,2-1.38,3.64-.1,5.31.68,5.6,2.59,11.3,4.84,17.56,5.21a148.9,148.9,0,0,0,23.21-2.81,45.33,45.33,0,0,0,13.73-4.7,3.68,3.68,0,0,1,3-.44c1.88,1.31.72,2.82.17,4.18-.63,1.58-1.78,2.92-2.31,4.57a16.39,16.39,0,0,0-1,2.7c-.49,1.69,2.42,3.91-.79,5.17-5.37,1.55-7.7,1.09-10.54-4-2-3.59-4.12-2.9-6.61-1.61s-4.66,3-7,4.48c-1.29-.31-2.18.64-3.22,1.06-.85.34-2,.75-2.41,0-2.63-5.29-7.75-2.05-11.56-3.26-3.52-1.12-1.55,2.39-1.61,4C297.6,81.49,294.43,78.69,293.2,73.9Z"/><path class="cls-35" d="M370.65,41.93c-1.4,4.55-.76,9.32-1.58,14-.48,2.68-1.05,5.18-2.82,7.3-1.79,1.37-2.11,5.25-5.51,3.78-3.15-1.36-2-4.44-2-7,0-1.63.86-3.11.8-4.74a13,13,0,0,1,.28-4c.83-2.74,2.22-5.39,1.22-8.39a7.79,7.79,0,0,1-.28-1.11c-.53-.34.64-1.75-.93-1.42-.47.65-1,1.08-1.85.79a3.44,3.44,0,0,1-.73-1.08,13.21,13.21,0,0,1-.35-6.17,3.56,3.56,0,0,1,3.47-2.08c3.37,1.89,4.22,5.2,4.47,8.62a42.15,42.15,0,0,1-.69,13.23c-.33,1.36-1,2.85.44,4.55,1.43-1.71,1-3.64,1-5.38.17-4-.25-8,2-11.59C368.94,40.31,369.72,41.4,370.65,41.93Z"/><path class="cls-35" d="M370.65,41.93c-1.07.55-1.86.51-1.94-1-1.42-6.16-5.42-10.08-11-12.66a3.21,3.21,0,0,1-1.66-2c.29-1.9-1.41-1.74-2.41-2.37-2-1.25-4.06-2.54-2-5.34,1.6,0,3.58.47,2.72-2.36a2,2,0,0,1,.81-.79c1.29-.26,2.26-1.38,3.66-1.39,1.35.73,1.4,2.13,1.72,3.38.91,3.58,3,6,6.76,6.55,2.89.39,3.42,1.78,2.28,4.21-2.68,2.25-1.26,3.6,1.06,4.74C371.85,36,372.25,38.95,370.65,41.93Z"/><path class="cls-36" d="M302.07,81.74c-1.51-1-3.75-2-2.38-4.18s4.43-2.25,6.36-1.24c2.11,1.1,3.73.79,5.79.54,1.4-.17,5.66-2.47,3.59,2.76-.39,1,.88,1.15,1.86.87,1.17-.33,2.2-1.75,3.6-.53C314.93,84,308.5,82.89,302.07,81.74Z"/><path class="cls-36" d="M345,81.11c-2.85-1.37,3.58-1,.45-2.42-1.74-.77-2.16-1.71-.57-3.06,1.3-.76,2.46,1,3.76.19A12.68,12.68,0,0,1,354.71,71c2.23-.44,3.87-2,5.8-3,1.5-.79,3.1-1.07,2.22,1.65C359,76.83,352.52,79.81,345,81.11Z"/><path class="cls-36" d="M362.73,69.66c-.18-2.21-1-1.6-2-.49-1.61,1.8-3.33,3.4-6,2.91-2.32-1.23-1.5-2.76-.44-4.34s2.76-3.08,2.6-5.37a27.27,27.27,0,0,1,1-5.11c.44-1.34.86-3,2.95-2.16-.29,2.28-.47,4.58-.9,6.84-.33,1.7-.43,3.37,1.2,4.22,1.78.93,2.37-1,3.37-1.92a9.49,9.49,0,0,1,1.8-1.05A11.43,11.43,0,0,1,362.73,69.66Z"/><path class="cls-37" d="M284.68,65.74c-2.19-2.2-4.1-4.57-4.55-7.79,1.64-2.34,3.59-2.21,5.72-.73a26.57,26.57,0,0,1,5.44,4.49c2.76,3.29,6.54,4.39,10.57,4.55,2.86.12,5.49.44,7.91,2.19,1.24.9,3.52.86,3.35,2.93s-2.64,1.41-3.87,2.34c-7,.38-13-2.68-19.12-5.5-1.32-.61-2.49-1.57-4-1.69Z"/><path class="cls-35" d="M309.26,73.73c.54-1.4,2.23-1.3,3.35-2.59-4.4-1.83-8.32-3.94-13.34-3.71-6.06.28-9-5.48-13.19-8.6-2.14-1.58-3.77-1.83-5.94-.87-.08-1-.32-2.1.71-2.85,2.17-1,4.26-1.14,6.18.58,10.09,9,22,10.45,34.79,8.39a17.68,17.68,0,0,1,3.51-.41c1.19.1,2.41.08,3.38,1,.66,3.16-2.08,2.88-3.52,3.64,6.22-.89,12.62-1.92,18.67-4.49,1.62-.69,3.38-1.11,5.11-.16a.85.85,0,0,1,.31,1.2c-10,5.28-20.61,7.71-31.87,8.2C314.75,73.12,312,74,309.26,73.73Z"/><path class="cls-34" d="M349.28,64.8a6.74,6.74,0,0,1-.06-.72,36.89,36.89,0,0,0,4.59-15.88c.16-2.88,1.27-5.81,4.46-7.11l.84-1.85c2.4-.67,1.73,1.8,2.68,2.61h0c1.19,3.13-.19,6-.85,9q-.08,2.14-.16,4.29c-3,2-1.34,5.53-2.66,8.08-2.84,4.4-7.14,7.44-10.62,11.24a1.9,1.9,0,0,1-1.83-1.55C346.14,69.84,349.12,68,349.28,64.8Z"/><path class="cls-35" d="M345.67,72.87l1.84,1c1.49.7,2.86,1.47,1.7,3.47-2.51,2.08-2.8-1.39-4.35-1.74C344.82,74.61,344.72,73.58,345.67,72.87Z"/><path class="cls-38" d="M358.27,41.08C355.42,45.3,354.71,50,354.6,55c-.08,3.75-2.38,6.74-5.38,9-2.57-.09-4.83,1-7.15,1.89a51,51,0,0,1-18.79,3.45c.82-3.32,4.47-2.22,5.4-4.59-.12-4.18,3.35-4.39,6-5.48,1.9.08,3.32-1.06,4.82-2s3-2.44,4.66-2.41c4.2.05,5.41-2.69,6.85-5.81,1-2.12,1.12-3.81-.1-5.77-1.5-2.42-1.41-5.08-.67-7.7.43-1.52.87-3.26,3.08-3.1,1.52.95.78,2.35.68,3.58-.35,4.35-.31,4.41,4.07,4Z"/><path class="cls-34" d="M351.87,18.87c-.5,3.13,1.25,4.19,4,4.34.86,0,1.91,0,2.09,1.13s-.81,1.39-1.64,1.68c-1,3.32,3.3,3.53,3.62,6.08l-2.61,1.75a3.21,3.21,0,0,1-1.88-.32c-4.34-2.26-6.55-1.15-7.26,3.6-.54,3.64-1.05,7.11.67,10.76,1.54,3.28-.45,5.67-4.19,5.86a6.51,6.51,0,0,1-4.95-1.46c-1.8-1.88-1.33-4.8-3.06-6.72.06-.45.11-1,.44-1.23,6.31-4.13,5.58-10.47,5.31-16.68a17.08,17.08,0,0,1-.06-2.22c.33-2,1.87-2.29,3.49-2.65,1.32-.29,3.08-.21,2.88-2.39-.41-1.9-2.49-4,.47-5.56C351.54,15.22,352.26,16.68,351.87,18.87Z"/><path class="cls-39" d="M359.93,32.1c-1.57-1-3.64-1.15-4.6-3.06-.68-1.35-1.66-2.76,1-3,2,1.15,4.13,2.25,6.13,3.47,4.28,2.61,7.46,5.87,6.27,11.49-2.09,4.88-1.51,10-1.62,15.14,0,1.63.09,3.28-1.44,4.39-1,.72-1.6,0-2.27-.57-1.53-1.31-1.7-2.82-1.23-4.76C364,47.84,365,40.48,361,33.41A9.16,9.16,0,0,0,359.93,32.1Z"/><path class="cls-40" d="M356.42,33l.9.87c1.1,2,.94,4.12.77,6.25-1.2,1-1.83,3.6-4.07,2.11a4,4,0,0,1-1.54-5c.52-1.35.86-2.78,1.28-4.17A2.05,2.05,0,0,1,356.42,33Z"/><path class="cls-36" d="M361.79,41.84l-2.68-2.62c0-.84-.18-1.89.79-2.19s1.58.58,1.72,1.43A26.26,26.26,0,0,1,361.79,41.84Z"/><path class="cls-36" d="M360.95,50.81q.42-4.48.85-9C363.51,45,362.53,47.95,360.95,50.81Z"/><path class="cls-35" d="M346.57,11.51c3.46.61,7,1,9,4.51a8.75,8.75,0,0,1-.88.05c-2.07,1.13-3.46-1.52-5.42-1-2.36,2.23,1.18,3.51.86,5.41-3.57,3.18-7.14,3.32-11.65-.12-3.62-2.76-7-5.62-12-3.66-.95.37-1.93-.46-2.45-1.47-.25-2.73,1.45-3.72,3.73-3.89,3.61-.27,7.13.21,10,2.68a7.69,7.69,0,0,0,6.62,2c-2.47-2-5.19-2.78-7.24-4.51-1.17-1-3.47-1.85-1.38-4.06,2.67-1,4.36,1.07,6.41,2,.79.22,1.51.62,2.3.85A3,3,0,0,1,346.57,11.51Z"/><path class="cls-34" d="M349.33,15.1c0-.54-.82-1.67.5-1.29a32.9,32.9,0,0,1,4.91,2.27c.28.49.55,1,.85,1.47.8,1.29,1.45,2.94.05,3.83C354,22.45,354,20,353,19.44c-.36-.22-.75-.38-1.12-.57Z"/><path class="cls-34" d="M349.21,77.36c.16-1.51-1.23-2.26-1.7-3.47,1.49-5.6,7.42-6.8,10.61-10.72.42,2.27-1.48,3.34-2.59,4.75s-2.12,2.44-.87,4.16A12.17,12.17,0,0,0,349.21,77.36Z"/><path class="cls-36" d="M336.84,46.3c4.41,0,1.81,3.67,2.83,5.45l-.35.5c-2.58,1.05-3.62,3.63-5.4,5.47-2.84,2.45-5.26,5.4-8.67,7.16A48.29,48.29,0,0,1,294.75,63a19.93,19.93,0,0,1-6.81-4.59,9.15,9.15,0,0,0-7.1-3.26c.86-3.23,4.15-3,6.29-4.42,2.05-1.21,3.37.4,4.7,1.39a84.12,84.12,0,0,0,9,5.64,12.64,12.64,0,0,0,7.64,1.91,79.19,79.19,0,0,1,12.31-.78,6.65,6.65,0,0,0,6.61-5.25c-4.72-1.79-9.52,0-14.27-.35a39.09,39.09,0,0,1-6.84-.76c-1.65-1.24-1.91-3-2-4.92a2.11,2.11,0,0,1,.71-.95c1.45-1,5.6-.29,2.43-4a2.73,2.73,0,0,1-.46-1.71c.23-1.5,2.45-1.38,2.48-3.06a28.26,28.26,0,0,1,4.71-2.11c1.37-.55,2.6-.49,2.75,1.45a6.28,6.28,0,0,1-.43,1.89c-2.38,6.16,1.46,8.12,7.53,9.43,1.85.4,3.82.06,5.74.1,2.55.45,4.37-1.24,6.44-2.22Z"/><path class="cls-41" d="M329,52.64c2.09-1,2.25.29,1.33,1.43-1.92,2.36-3.62,5.34-7,5.71-5.5.6-11.06,1.37-16.55,1.13-6.81-.3-11.79-5-17-8.81-.82-.6-1.38-1.56-2.59-1.42a1.58,1.58,0,0,1-.19-.59c-.21-5,1.63-6.12,6.45-3.93,7.58,6.49,16.55,7.35,26,6.42C322.58,52.28,325.78,52.8,329,52.64Z"/><path class="cls-42" d="M290.68,30.11c-.69-3.77,2.5-5.94,4.17-8.34,3.62-5.21,6.3-11.72,13.4-13.63,3.47,1.49,3,3.57.83,5.83-1.92,2-4.51,3.28-6.34,5.5-2.35,2.84-3.36,5.58-2.2,9.36.95,3.07,2.52,6,2.55,9.38-.52,2.31,1,5.8-3.34,5.93-3.59-3.06-5.68-7.2-8-11.15A4.54,4.54,0,0,1,290.68,30.11Z"/><path class="cls-35" d="M302.08,38.24c-.21-3.28-2.21-6-2.75-9.25-1.06-6.35.71-10.48,6.35-14,2.33-1.46,6.18-2.9,2.58-6.84,2.11-.63,4.28,1.8,6.36-.13a2.44,2.44,0,0,1,2.07-1.55c2,.52,5.52-.41,5.75,2,.28,2.87-3.39,2.88-5.47,3.28A11,11,0,0,0,308.7,18c-2.37,4.68-5.52,9.1-4.35,14.82C303.87,34.76,305.55,37.59,302.08,38.24Z"/><path class="cls-38" d="M292.48,47.12c-4-2.94-4.19,1-5.52,3-6-6.77-5.62-14.09.89-19,3.52,1.05,2.35,3.87,2.35,6.24a13.21,13.21,0,0,0,1.79,6.2C292.65,44.59,293.47,45.76,292.48,47.12Z"/><path class="cls-34" d="M288.88,37.37c.21-2.19.61-4.41-1-6.3.76-.86,1.83-.83,2.84-1l1.71,2c1.08,4.33,3.75,7.73,6.44,11.12,1.57,2,5.24.75,6,4,.28,1.48,1.8,2.69,1,4.42-6.49.27-10.66-3.08-13.51-8.58C291.28,41.05,290.61,38.88,288.88,37.37Z"/><path class="cls-35" d="M325.26,64.88a37.42,37.42,0,0,1,8-7.91,3,3,0,0,1,3.29-.42c1.34,2-.65,2.8-1.56,4a9.52,9.52,0,0,0-6.34,4.31Z"/><path class="cls-35" d="M335,60.52c-.27-1.6.86-2.51,1.73-3.56-1.93-3.34,1.95-3.47,2.88-5.23l0,0a12.21,12.21,0,0,0,3,.52c1.79-.14,4,1.06,5.26-1.06,1.18-1.94-.44-3.24-1.34-4.7a5.1,5.1,0,0,1-.63-4.24,22.36,22.36,0,0,0,1.08-4.67c.43-7.11,2.8-8.31,9.35-4.61l-2.65,0c-3.11,2.63-3.82,6.85-1.43,9.88,2,2.48,2.25,4.79-.23,6.92-2.08,1.79-.94,4.36-1.89,6.39-2.25-1.3-4.46-.86-6.61.2C340.76,57.8,338.64,60.7,335,60.52Z"/><path class="cls-36" d="M316.43,7c0-.2,0-.4,0-.61A2.91,2.91,0,0,1,319,5c5,.15,10.08,0,15,1.08.66,3.72-2.5,3.67-4.47,3.85-4.35.41-8.32,2-12.43,3.17-2,.57-4,1.27-5.12,3.67a30.21,30.21,0,0,1,12.44-1.54c.69.24,1.65.89,2,.65,5.1-3.37,8.33-.07,12,2.89,3.43,2.8,7.35,4.61,11.77,1.74,0,1.19,1.89,3-1.66,2.9-1.34,0-4.07-.23-5.48,1.62-1.76.5-2.65-.79-3.53-1.85-1.4-1.7-2.67-1.18-4,0-1.38,1-2.7,2.43-4.39.47a2.69,2.69,0,0,1-.11-1.22c-.08-.93,1.83-1.44.53-2.62-3-1.64-5.74-.35-8.45.86a11.79,11.79,0,0,1-1.17.33c-1.81.93-4,.36-5.77,1.55a16.14,16.14,0,0,0-8.57,11.28c-1.28,2.26,1.07,3.1,1.78,4.58,1.09,2.12-1.65,1.47-1.89,2.63-3.27,2.31-3.71-.38-4-2.49s.51-4.36-.39-6.48c-1.89-5.84,2.42-9.86,4.28-14.6,2.58-6.59,9.23-6.55,15-8.73C320.1,7.56,317.87,8.68,316.43,7Z"/><path class="cls-41" d="M334.86,22.22c1.88-2.28,3.67-2.42,5.53.09A26.59,26.59,0,0,0,343,25c1.7,5.21,1.25,10.4-.39,15.5-.92,2.85-4.72,3-5.81,5.76h0a2.5,2.5,0,0,1-1.83.61,1.93,1.93,0,0,1-1-.68,3.66,3.66,0,0,1,1.54-3.44c3.34-2.83,4-6.62,4-10.65-.08,1.8,0,3.67-2.62,3.71-.85-3-4-5.62-1.45-9.15,1.37-1.14,2.17-2.29.08-3.51A2.68,2.68,0,0,1,334.86,22.22Z"/><path class="cls-41" d="M334.17,7.2c.64.08,1.31.12,1.63.83,2,4.09,6.81,4.38,9.88,7a7.23,7.23,0,0,0,1.54.77,6.56,6.56,0,0,1-9.45-.2c-3.7-3.89-10.71-4.11-13.33-.41-2.25,1.2-4.56,2.16-7.18,1.55-2.23-.53-3.55,1-5.07,2.11-.71.53-1.56,1-2.35.21a1.64,1.64,0,0,1,0-2c1.24-2.17,2.33-4.38,5.27-4.86,4.89-.81,9.24-3.8,14.48-3.46C331.1,8.83,332.65,7.74,334.17,7.2Z"/><path class="cls-38" d="M336.89,35.71c2.89-1.62,1.12-4.54,1.78-6.88,2.55,3.11,2.52,9.69,0,12.57-1.47,1.66-3,3.24-4.55,4.85-3.29,3.07-8.9,3.21-14.56.38-4.15-2.08-4.81-3.44-4-8.35l.72-1c.91-2.07,2-4,4.34-4.75a27.27,27.27,0,0,1,3.65-2.32c3.89-2,6-.63,6.41,4a3.85,3.85,0,0,1-.6,1.25,4.15,4.15,0,0,1-1,.9c-1.24.84-2.8.69-4.1,1.29A2.25,2.25,0,0,0,323.47,40c.27,1.32,1.54,1.21,2.5,1.1,1.44-.16,2.7-1,4.11-1.37,1.92-.5,3.26-1.93,4.79-3.06A4.93,4.93,0,0,1,336.89,35.71Z"/><path class="cls-35" d="M288.88,37.37c1.77,0,3,.5,3.53,2.52.86,3.47,3.37,6,5.57,8.62.71.85,1.66,1.72,2.59,1.27,2.49-1.2,3.65.79,5.23,1.8,5.42.67,10.83.2,16.25,0a20.33,20.33,0,0,1,6.94,1c-1.33,1.32-3,.89-4.61.9-4.12,0-8.28-.4-12.36,0a24.88,24.88,0,0,1-19.53-6.41C291.08,43.94,288.22,41.31,288.88,37.37Z"/><path class="cls-35" d="M320.7,33.77c-1.91.63-2.95,2.38-4.47,3.51-.21-1.53-1.24-1.07-1.75-.47-1.41,1.66-3.27,1.52-5.11,1.61-2.94-.28-4.62-1.36-2.9-4.59a1.67,1.67,0,0,1,.37.24,1.22,1.22,0,0,1,.16.35c1.19-2.49,3.88-2.92,5.88-4.31,4-2.78,4.57-4.71,2.59-8.82l6.33-1.61a31.87,31.87,0,0,1-.44,8.92A32.62,32.62,0,0,0,320.7,33.77Z"/><path class="cls-35" d="M315.51,38.28c0,4.74,3.77,8.19,9.9,8.79,2.92.29,5.88.4,8.69-.82l1.09.2c-.24,2.9-3.24,2-4.61,3.38-3.68,0-7.38.31-10.94-1C314.73,47,313.35,43.52,315.51,38.28Z"/><path class="cls-35" d="M303.08,32.08c1.44,1.6.44,3.62.92,5.37s.29,4.38,3.48,3.61l.79.88c1.14,3.25-1.14,4.25-3.44,5.25h0c-2.08-1.13-4.49-1.68-6.17-3.52a.6.6,0,0,1,.94-.09c1.68-.13,2.72-.75,2-2.67-.35-1-.47-1.91.46-2.66C304,36.43,302.65,34.11,303.08,32.08Z"/><path class="cls-35" d="M339.63,51.73c.54,1.13.85,2.23-.88,2.48s-1.78,1.51-2,2.75h-3.47C335.13,54.89,335.68,51.26,339.63,51.73Z"/><path class="cls-34" d="M304.83,47.18c1.31-1.64,3.2-2.9,3.44-5.25,1.18,1.05,2.94,2.39,2.16,3.82C309.34,47.75,306.85,47.22,304.83,47.18Z"/><path class="cls-34" d="M330.58,49.83c.83-2.08,3.67-1.44,4.61-3.38l1.66-.15A6.56,6.56,0,0,1,330.58,49.83Z"/><path class="cls-38" d="M299.59,43.57l-.94.09c-3.59-3-6.41-6.5-6.25-11.56Z"/><path class="cls-41" d="M315.47,21.3c3.62.53,3.55,2.68,2.39,5.37-1.24,2.88-3.7,4.54-6.25,5.9-1.5.79-3.35.82-4.06,2.8-.19.55-.71.2-.85-.25a8.9,8.9,0,0,1-.23-1.29A16.31,16.31,0,0,1,315.47,21.3Z"/><path class="cls-35" d="M328.93,35.7l.79-1c1.46-2.59,1.57-4.58-2-5.33a2.65,2.65,0,0,1-2.06-2.92,5.12,5.12,0,0,1,5.82-3.38c1.66,1.71,2.34-.34,3.41-.89l.35.17a4.13,4.13,0,0,1,.74,4.44c-.2,1.49-1.18,3,.35,4.4,1.34,1.26.83,2.92.59,4.48-.05.72-.21,1.37-1,1.65-.93-.59-.89-3.31-3.11-1.13C331.84,37.16,330.08,36.95,328.93,35.7Z"/><path class="cls-38" d="M326.19,26.75c.57.64,1,1.7,1.71,1.86,4.34,1,4.84,2.58,1.82,6.13,0-1.6.37-3.42-1.6-4.19-1.62-.63-2.74.4-3.95,1.35a21.82,21.82,0,0,1-3.47,1.87c-.32-1-2.84-.8-1.69-2.38,2.6-3.57.22-8.2,2.78-11.7a5.24,5.24,0,0,1,.87,0C324.5,21.71,324,24.89,326.19,26.75Z"/><path class="cls-43" d="M326.19,26.75c-5.49-.2-2.87-4.45-3.52-7.07a8.42,8.42,0,0,1,9.73-.9c1.33,1.5-.46,2.39-.7,3.58a3.36,3.36,0,0,0-.25.76C330,24.75,327.39,24.74,326.19,26.75Z"/><path class="cls-36" d="M331.7,22.36l.7-3.58c.86,0,2.12-.32,2.23.76C334.84,21.47,332.72,21.44,331.7,22.36Z"/><path class="cls-38" d="M335.95,26.83c-1.3-1.3-.91-2.89-.74-4.44,2.25-.4,3.56.2,3.4,2.83C338.49,27.23,337.73,27.77,335.95,26.83Z"/><path class="cls-34" d="M328.93,35.7A6.84,6.84,0,0,0,335,33.25c1.42,1.52.74,2.88.89,4.11-1.69,1.19-2.84,3.18-5.13,3.48a2.07,2.07,0,0,0-1.24-.25c-1.91.41-4,.76-4.53-1.75s2.19-1.67,3.15-2.71a3.67,3.67,0,0,1,.71-.48Z"/><path class="cls-35" d="M328.86,35.65l-.38.76c-.61,1.2-3,.45-2.81,2.06s2.14,1.52,3.54,1.75a7.61,7.61,0,0,1,1.55.63l-3.64,1.41c-2.26.87-4.83.94-5.59-1.5-.83-2.67,1.85-3.86,3.92-4.77A11,11,0,0,1,328.86,35.65Z"/><path class="cls-34" d="M388.05,100.84c.12-4.31,5-4,6.63-6.88-1.85-1.29-3.4-.09-5,.64-5.24,2.43-10.57,4.52-16.42,4.87a139.29,139.29,0,0,1-21.71-2.63,42.41,42.41,0,0,1-12.84-4.4,3.44,3.44,0,0,0-2.8-.41c-1.76,1.22-.67,2.64-.16,3.91.59,1.48,1.67,2.73,2.16,4.27a15.27,15.27,0,0,1,.93,2.53c.46,1.58-2.26,3.66.74,4.84,5,1.45,7.2,1,9.86-3.75,1.87-3.35,3.86-2.72,6.18-1.5s4.35,2.78,6.52,4.19c1.2-.28,2,.6,3,1,.8.32,1.89.7,2.26,0,2.46-4.95,7.25-1.92,10.81-3,3.29-1,1.45,2.23,1.51,3.75C383.93,107.94,386.9,105.32,388.05,100.84Z"/><path class="cls-35" d="M315.61,70.94c1.31,4.25.71,8.72,1.48,13.05.45,2.51,1,4.85,2.64,6.83,1.67,1.28,2,4.91,5.15,3.54,2.95-1.27,1.88-4.16,1.87-6.54,0-1.53-.8-2.91-.75-4.43a12.13,12.13,0,0,0-.27-3.79c-.78-2.56-2.07-5-1.14-7.85a7.12,7.12,0,0,0,.26-1c.5-.32-.6-1.64.87-1.33.43.61.94,1,1.73.74a3.2,3.2,0,0,0,.68-1,12.34,12.34,0,0,0,.33-5.77,3.33,3.33,0,0,0-3.24-1.94c-3.15,1.77-3.95,4.86-4.18,8.06a39.42,39.42,0,0,0,.64,12.37c.31,1.28.91,2.66-.41,4.26-1.34-1.6-.9-3.4-1-5-.16-3.7.24-7.49-1.9-10.84C317.2,69.42,316.47,70.44,315.61,70.94Z"/><path class="cls-35" d="M315.61,70.94c1,.51,1.74.48,1.81-.9,1.33-5.77,5.07-9.42,10.27-11.85a3,3,0,0,0,1.55-1.84c-.27-1.78,1.32-1.63,2.25-2.22,1.83-1.17,3.8-2.37,1.9-5-1.5,0-3.35.44-2.54-2.21a1.82,1.82,0,0,0-.76-.74c-1.21-.25-2.11-1.29-3.42-1.3-1.27.68-1.31,2-1.61,3.16-.85,3.35-2.78,5.65-6.32,6.13-2.7.36-3.2,1.66-2.13,3.94,2.51,2.11,1.18,3.36-1,4.43C314.49,65.36,314.11,68.15,315.61,70.94Z"/><path class="cls-36" d="M379.76,108.18c1.41-1,3.51-1.91,2.23-3.91s-4.14-2.1-5.95-1.16c-2,1-3.49.74-5.42.51-1.31-.16-5.29-2.31-3.35,2.59.37.92-.82,1.08-1.74.82-1.09-.31-2.06-1.64-3.37-.5C367.72,110.3,373.74,109.25,379.76,108.18Z"/><path class="cls-36" d="M339.61,107.58c2.67-1.29-3.35-1-.42-2.27,1.63-.72,2-1.6.53-2.87-1.22-.71-2.3,1-3.52.18a11.86,11.86,0,0,0-5.69-4.49c-2.09-.41-3.63-1.86-5.43-2.81-1.41-.74-2.9-1-2.08,1.55C326.52,103.58,332.56,106.37,339.61,107.58Z"/><path class="cls-36" d="M323,96.88c.17-2.07,1-1.49,1.89-.46,1.5,1.69,3.11,3.18,5.65,2.72,2.17-1.15,1.4-2.58.41-4.06s-2.58-2.89-2.43-5a25.47,25.47,0,0,0-.94-4.78c-.42-1.25-.8-2.77-2.76-2,.27,2.13.44,4.29.85,6.39.31,1.59.4,3.15-1.12,3.95s-2.22-.94-3.15-1.8a8.86,8.86,0,0,0-1.68-1A10.7,10.7,0,0,0,323,96.88Z"/><path class="cls-37" d="M396,93.21c2-2.06,3.84-4.27,4.25-7.29-1.53-2.19-3.36-2.07-5.35-.68a24.86,24.86,0,0,0-5.09,4.2c-2.58,3.08-6.11,4.11-9.89,4.26-2.68.11-5.14.41-7.4,2-1.16.84-3.29.81-3.13,2.74s2.47,1.32,3.62,2.19c6.56.35,12.2-2.51,17.89-5.15,1.24-.57,2.33-1.47,3.76-1.58Z"/><path class="cls-35" d="M373,100.68c-.51-1.31-2.09-1.22-3.13-2.43,4.12-1.71,7.78-3.69,12.48-3.47,5.67.26,8.38-5.13,12.34-8,2-1.47,3.53-1.71,5.55-.82.07-1,.3-2-.67-2.66-2-.9-4-1.07-5.78.55-9.44,8.46-20.6,9.77-32.54,7.84a16.57,16.57,0,0,0-3.29-.39,4.93,4.93,0,0,0-3.16.89c-.62,3,1.94,2.69,3.3,3.4-5.81-.84-11.8-1.79-17.46-4.2a5.27,5.27,0,0,0-4.78-.15.8.8,0,0,0-.29,1.12A69.1,69.1,0,0,0,365.41,100C367.89,100.11,370.43,101,373,100.68Z"/><path class="cls-34" d="M335.59,92.32a6.48,6.48,0,0,0,.05-.68,34.51,34.51,0,0,1-4.29-14.85c-.15-2.69-1.19-5.44-4.17-6.65l-.79-1.73c-2.24-.63-1.62,1.68-2.51,2.45h0c-1.11,2.92.18,5.62.79,8.38q.08,2,.15,4c2.83,1.86,1.25,5.17,2.49,7.55,2.66,4.12,6.68,7,9.94,10.51A1.77,1.77,0,0,0,339,99.87C338.54,97,335.74,95.27,335.59,92.32Z"/><path class="cls-35" d="M339,99.87l-1.72,1c-1.4.66-2.67,1.37-1.59,3.24,2.35,1.94,2.62-1.3,4.07-1.63C339.76,101.5,339.86,100.54,339,99.87Z"/><path class="cls-38" d="M327.18,70.14c2.67,4,3.33,8.34,3.43,13,.07,3.51,2.23,6.31,5,8.46,2.41-.08,4.52.92,6.69,1.77a47.75,47.75,0,0,0,17.58,3.23c-.77-3.11-4.18-2.08-5.06-4.29.11-3.91-3.14-4.11-5.64-5.13-1.78.08-3.1-1-4.51-1.84s-2.79-2.28-4.35-2.26c-3.93.05-5.06-2.52-6.41-5.44-.92-2-1-3.57.09-5.4a8.7,8.7,0,0,0,.63-7.2c-.4-1.43-.81-3-2.88-2.9-1.42.88-.73,2.19-.63,3.35.33,4.07.29,4.12-3.8,3.7Z"/><path class="cls-34" d="M333.17,49.36c.47,2.93-1.17,3.92-3.74,4.06-.81,0-1.78,0-2,1.06s.76,1.3,1.54,1.57c.9,3.1-3.09,3.3-3.39,5.69l2.44,1.64a3,3,0,0,0,1.76-.3C333.88,61,336,62,336.61,66.44c.5,3.4,1,6.65-.63,10.07-1.44,3.06.42,5.3,3.92,5.48a6.09,6.09,0,0,0,4.63-1.36c1.69-1.76,1.25-4.49,2.86-6.29-.06-.42-.1-1-.41-1.15-5.9-3.86-5.22-9.8-5-15.6a16.15,16.15,0,0,0,.06-2.07c-.31-1.86-1.75-2.14-3.27-2.47-1.23-.27-2.88-.2-2.7-2.24.39-1.78,2.33-3.69-.44-5.2C333.48,46,332.8,47.31,333.17,49.36Z"/><path class="cls-39" d="M325.63,61.74c1.47-.89,3.41-1.07,4.3-2.86.63-1.27,1.55-2.58-.91-2.83-1.92,1.08-3.86,2.1-5.74,3.25-4,2.45-7,5.49-5.87,10.75,2,4.56,1.42,9.4,1.52,14.16,0,1.52-.09,3.06,1.35,4.11.92.67,1.5,0,2.12-.53,1.43-1.22,1.59-2.64,1.15-4.45-1.69-6.87-2.71-13.76,1-20.36A8.59,8.59,0,0,1,325.63,61.74Z"/><path class="cls-40" d="M328.92,62.56l-.85.81c-1,1.85-.88,3.85-.72,5.85,1.12,1,1.71,3.37,3.81,2a3.69,3.69,0,0,0,1.44-4.7c-.49-1.27-.81-2.6-1.2-3.9A1.92,1.92,0,0,0,328.92,62.56Z"/><path class="cls-36" d="M323.89,70.85l2.51-2.45c0-.78.17-1.77-.74-2.05s-1.48.54-1.61,1.33A24.8,24.8,0,0,0,323.89,70.85Z"/><path class="cls-36" d="M324.68,79.24q-.39-4.19-.79-8.38C322.28,73.83,323.2,76.57,324.68,79.24Z"/><path class="cls-35" d="M338.12,42.48c-3.24.57-6.58.94-8.46,4.22q.41,0,.82.05c1.93,1.06,3.23-1.42,5.07-.91,2.21,2.08-1.1,3.28-.81,5.06,3.33,3,6.68,3.1,10.9-.11,3.39-2.58,6.52-5.26,11.24-3.42.89.34,1.81-.43,2.29-1.38.24-2.55-1.36-3.48-3.49-3.64-3.37-.25-6.67.2-9.33,2.5a7.19,7.19,0,0,1-6.2,1.86c2.31-1.85,4.86-2.6,6.77-4.22,1.09-.93,3.24-1.73,1.29-3.79-2.49-.94-4.08,1-6,1.88-.74.21-1.41.58-2.15.8A2.79,2.79,0,0,0,338.12,42.48Z"/><path class="cls-34" d="M335.55,45.84c0-.5.77-1.56-.47-1.21a30.83,30.83,0,0,0-4.6,2.12c-.26.46-.52.93-.8,1.38-.75,1.21-1.35,2.75,0,3.58,1.58,1,1.58-1.27,2.48-1.82.33-.2.7-.36,1.05-.53Z"/><path class="cls-34" d="M335.66,104.08c-.15-1.41,1.15-2.12,1.59-3.24-1.39-5.24-6.94-6.36-9.93-10-.4,2.12,1.39,3.13,2.42,4.44s2,2.28.81,3.89A11.38,11.38,0,0,1,335.66,104.08Z"/><path class="cls-36" d="M347.23,75c-4.13,0-1.69,3.44-2.65,5.09l.32.47c2.41,1,3.39,3.39,5,5.12,2.66,2.29,4.92,5.05,8.11,6.7a45.17,45.17,0,0,0,28.53-1.8A18.64,18.64,0,0,0,393,86.31a8.56,8.56,0,0,1,6.64-3.05c-.81-3-3.88-2.82-5.89-4.14-1.92-1.13-3.15.38-4.4,1.31a78.87,78.87,0,0,1-8.43,5.28,11.83,11.83,0,0,1-7.15,1.79,74.08,74.08,0,0,0-11.52-.73A6.22,6.22,0,0,1,356,81.85c4.41-1.68,8.9,0,13.35-.33a36.57,36.57,0,0,0,6.4-.71c1.55-1.16,1.78-2.84,1.83-4.6a2,2,0,0,0-.67-.89c-1.36-.9-5.24-.27-2.27-3.78a2.55,2.55,0,0,0,.43-1.6c-.21-1.4-2.29-1.29-2.32-2.86a26.42,26.42,0,0,0-4.41-2c-1.28-.51-2.43-.46-2.57,1.36a5.85,5.85,0,0,0,.4,1.77c2.23,5.76-1.37,7.6-7,8.82-1.73.37-3.58.06-5.37.09-2.39.42-4.09-1.16-6-2.08Z"/><path class="cls-41" d="M354.58,81c-2-1-2.11.27-1.24,1.34,1.79,2.21,3.39,5,6.56,5.34,5.14.56,10.35,1.29,15.48,1.06,6.37-.28,11-4.65,15.91-8.24.77-.56,1.3-1.45,2.42-1.33a1.44,1.44,0,0,0,.17-.55c.2-4.68-1.52-5.73-6-3.67-7.09,6.07-15.48,6.87-24.3,6C360.57,80.61,357.58,81.11,354.58,81Z"/><path class="cls-42" d="M390.4,59.88c.65-3.53-2.34-5.56-3.9-7.8-3.39-4.88-5.89-11-12.53-12.75-3.25,1.39-2.76,3.34-.77,5.45,1.8,1.91,4.21,3.07,5.93,5.15,2.2,2.66,3.15,5.22,2.06,8.75-.89,2.88-2.35,5.65-2.39,8.77.48,2.16-1,5.42,3.12,5.55,3.36-2.86,5.31-6.74,7.52-10.43A4.23,4.23,0,0,0,390.4,59.88Z"/><path class="cls-35" d="M379.74,67.48c.19-3.07,2.07-5.61,2.58-8.66,1-5.94-.67-9.8-5.94-13.09-2.18-1.36-5.78-2.71-2.42-6.4-2-.59-4,1.68-5.95-.12a2.29,2.29,0,0,0-1.94-1.45c-1.91.48-5.16-.38-5.38,1.83-.26,2.69,3.17,2.69,5.12,3.06a10.27,10.27,0,0,1,7.73,5.92c2.21,4.38,5.17,8.51,4.07,13.86C378.07,64.23,376.5,66.87,379.74,67.48Z"/><path class="cls-38" d="M388.72,75.79c3.7-2.75,3.92,1,5.17,2.79,5.58-6.33,5.26-13.18-.83-17.79-3.29,1-2.2,3.62-2.2,5.84a12.36,12.36,0,0,1-1.67,5.8C388.56,73.42,387.8,74.52,388.72,75.79Z"/><path class="cls-34" d="M392.09,66.67c-.2-2-.57-4.13,1-5.89-.72-.81-1.71-.78-2.66-.9l-1.6,1.85c-1,4-3.51,7.23-6,10.4-1.47,1.83-4.9.7-5.59,3.7-.26,1.39-1.68,2.52-.92,4.13,6.07.25,10-2.88,12.63-8C389.84,70.11,390.47,68.09,392.09,66.67Z"/><path class="cls-35" d="M358.06,92.4A35,35,0,0,0,350.55,85a2.77,2.77,0,0,0-3.08-.4c-1.25,1.92.61,2.61,1.46,3.71a8.9,8.9,0,0,1,5.93,4Z"/><path class="cls-35" d="M348.93,88.32c.25-1.49-.81-2.35-1.62-3.33,1.81-3.12-1.82-3.25-2.69-4.89l0,0a11.44,11.44,0,0,1-2.83.48c-1.67-.13-3.71,1-4.92-1-1.11-1.81.41-3,1.25-4.4a4.77,4.77,0,0,0,.59-4,20.93,20.93,0,0,1-1-4.37c-.4-6.65-2.62-7.77-8.75-4.31l2.48,0c2.91,2.46,3.57,6.41,1.34,9.24-1.83,2.32-2.1,4.48.21,6.47,1.95,1.67.87,4.08,1.77,6,2.1-1.22,4.17-.8,6.18.19C343.56,85.78,345.55,88.5,348.93,88.32Z"/><path class="cls-36" d="M366.32,38.26c0-.19,0-.38,0-.57a2.73,2.73,0,0,0-2.41-1.3c-4.7.14-9.43,0-14.06,1-.62,3.48,2.34,3.43,4.18,3.61,4.07.39,7.78,1.88,11.63,3,1.88.53,3.7,1.19,4.79,3.43A28.26,28.26,0,0,0,358.83,46c-.64.22-1.54.83-1.89.61-4.77-3.16-7.79-.07-11.19,2.7-3.21,2.62-6.87,4.31-11,1.63,0,1.11-1.76,2.83,1.56,2.71,1.25,0,3.81-.21,5.13,1.52,1.64.46,2.47-.74,3.3-1.73,1.31-1.59,2.5-1.1,3.75,0,1.29.9,2.53,2.28,4.1.44a2.52,2.52,0,0,0,.1-1.14c.07-.87-1.72-1.35-.49-2.45,2.83-1.54,5.37-.33,7.9.8a11,11,0,0,0,1.1.3c1.7.87,3.76.34,5.39,1.45a15.1,15.1,0,0,1,8,10.55c1.2,2.11-1,2.9-1.66,4.29-1,2,1.55,1.38,1.77,2.46,3.06,2.16,3.47-.35,3.75-2.33s-.48-4.08.36-6.06c1.77-5.46-2.26-9.22-4-13.66-2.41-6.16-8.64-6.12-14.06-8.16C362.89,38.79,365,39.83,366.32,38.26Z"/><path class="cls-41" d="M349.09,52.5c-1.76-2.13-3.43-2.26-5.17.08a25,25,0,0,1-2.49,2.55,23,23,0,0,0,.36,14.5c.86,2.67,4.41,2.79,5.44,5.39h0a2.34,2.34,0,0,0,1.71.57,1.81,1.81,0,0,0,1-.64,3.43,3.43,0,0,0-1.44-3.22c-3.13-2.65-3.71-6.19-3.75-10,.07,1.68,0,3.43,2.45,3.47.8-2.8,3.72-5.26,1.35-8.56-1.28-1.06-2-2.14-.08-3.28A2.52,2.52,0,0,0,349.09,52.5Z"/><path class="cls-41" d="M349.73,38.45c-.6.08-1.22.11-1.53.77-1.91,3.83-6.37,4.09-9.24,6.59a6.77,6.77,0,0,1-1.44.72,6.14,6.14,0,0,0,8.84-.19c3.46-3.64,10-3.84,12.46-.38,2.1,1.12,4.26,2,6.72,1.44,2.09-.49,3.32.92,4.74,2,.67.49,1.46,1,2.2.2a1.53,1.53,0,0,0,0-1.91c-1.16-2-2.18-4.09-4.93-4.55-4.57-.75-8.64-3.56-13.55-3.23C352.6,40,351.15,39,349.73,38.45Z"/><path class="cls-38" d="M347.18,65.12c-2.71-1.52-1-4.25-1.66-6.43-2.38,2.91-2.36,9.07,0,11.76,1.37,1.56,2.84,3,4.26,4.54,3.07,2.87,8.33,3,13.62.35,3.88-1.94,4.5-3.22,3.77-7.81l-.67-.94c-.85-1.94-1.89-3.7-4.06-4.44A25.51,25.51,0,0,0,359,60c-3.64-1.85-5.64-.59-6,3.72a3.63,3.63,0,0,0,.56,1.17,3.88,3.88,0,0,0,.91.84c1.16.79,2.62.65,3.84,1.2a2.1,2.1,0,0,1,1.39,2.26c-.25,1.23-1.44,1.13-2.34,1-1.35-.15-2.53-.95-3.84-1.28-1.8-.47-3.05-1.81-4.48-2.86A4.59,4.59,0,0,0,347.18,65.12Z"/><path class="cls-35" d="M392.09,66.67c-1.66,0-2.84.47-3.31,2.35-.8,3.25-3.15,5.57-5.2,8.06-.66.8-1.56,1.61-2.42,1.19-2.33-1.12-3.41.74-4.89,1.69-5.06.62-10.13.18-15.2,0a19,19,0,0,0-6.49,1c1.25,1.24,2.85.83,4.31.85,3.85,0,7.74-.37,11.56,0a23.27,23.27,0,0,0,18.27-6C390,72.82,392.71,70.35,392.09,66.67Z"/><path class="cls-35" d="M362.33,63.3c1.78.59,2.76,2.23,4.18,3.28.2-1.44,1.16-1,1.64-.44,1.32,1.55,3.06,1.42,4.78,1.5,2.75-.27,4.32-1.28,2.71-4.29a1.59,1.59,0,0,0-.35.22,1.15,1.15,0,0,0-.15.33c-1.11-2.33-3.63-2.73-5.5-4-3.74-2.6-4.28-4.41-2.42-8.25l-5.92-1.5a29.84,29.84,0,0,0,.41,8.35A30.46,30.46,0,0,1,362.33,63.3Z"/><path class="cls-35" d="M367.18,67.52c0,4.44-3.53,7.66-9.26,8.22-2.73.27-5.5.37-8.13-.77l-1,.18c.22,2.72,3,1.9,4.32,3.16,3.44,0,6.9.29,10.24-1C367.91,75.64,369.2,72.43,367.18,67.52Z"/><path class="cls-35" d="M378.81,61.72c-1.35,1.5-.41,3.39-.86,5s-.27,4.1-3.26,3.37l-.74.82c-1.07,3,1.07,4,3.22,4.91h0c1.95-1.06,4.2-1.57,5.77-3.29a.56.56,0,0,0-.88-.08c-1.57-.12-2.55-.7-1.9-2.5a2,2,0,0,0-.43-2.49C378,65.79,379.21,63.62,378.81,61.72Z"/><path class="cls-35" d="M344.62,80.1c-.51,1.05-.8,2.09.83,2.32s1.66,1.41,1.87,2.57h3.24C348.83,83.06,348.31,79.66,344.62,80.1Z"/><path class="cls-34" d="M377.18,75.84c-1.23-1.54-3-2.71-3.22-4.91-1.11,1-2.75,2.24-2,3.58C373,76.38,375.28,75.88,377.18,75.84Z"/><path class="cls-34" d="M353.09,78.32c-.78-1.95-3.43-1.35-4.32-3.17L347.22,75A6.14,6.14,0,0,0,353.09,78.32Z"/><path class="cls-38" d="M382.07,72.46l.88.08c3.36-2.85,6-6.08,5.85-10.82Z"/><path class="cls-41" d="M367.22,51.63c-3.39.5-3.32,2.51-2.24,5,1.16,2.69,3.46,4.25,5.85,5.52,1.4.74,3.13.77,3.8,2.62.18.51.66.19.79-.23a8.18,8.18,0,0,0,.21-1.21A15.26,15.26,0,0,0,367.22,51.63Z"/><path class="cls-35" d="M354.63,65.1l-.74-.9c-1.36-2.42-1.47-4.29,1.9-5a2.48,2.48,0,0,0,1.93-2.73,4.79,4.79,0,0,0-5.44-3.16c-1.55,1.6-2.19-.32-3.19-.84l-.33.16a3.87,3.87,0,0,0-.69,4.15c.19,1.39,1.1,2.78-.33,4.12-1.25,1.17-.78,2.73-.55,4.19.05.67.2,1.29.93,1.54.87-.55.83-3.1,2.91-1.06A2.57,2.57,0,0,0,354.63,65.1Z"/><path class="cls-38" d="M357.2,56.73c-.53.6-1,1.59-1.6,1.74-4.06,1-4.53,2.41-1.71,5.73,0-1.5-.34-3.2,1.5-3.92,1.51-.59,2.56.37,3.69,1.26a20.36,20.36,0,0,0,3.25,1.75c.3-.93,2.66-.74,1.58-2.23-2.43-3.34-.21-7.67-2.6-10.94a4.89,4.89,0,0,0-.82,0C358.77,52,359.23,55,357.2,56.73Z"/><path class="cls-43" d="M357.2,56.73c5.14-.19,2.68-4.16,3.29-6.61a7.88,7.88,0,0,0-9.1-.84c-1.24,1.4.43,2.24.66,3.35a3.19,3.19,0,0,1,.23.71C353.64,54.87,356.07,54.85,357.2,56.73Z"/><path class="cls-36" d="M352,52.63l-.66-3.35c-.8,0-2-.29-2.09.71C349.1,51.8,351.09,51.76,352,52.63Z"/><path class="cls-38" d="M348.06,56.81c1.22-1.22.85-2.71.69-4.15-2.1-.37-3.33.19-3.19,2.65C345.69,57.18,346.4,57.69,348.06,56.81Z"/><path class="cls-34" d="M354.63,65.1a6.4,6.4,0,0,1-5.68-2.29c-1.33,1.42-.7,2.69-.83,3.84,1.58,1.11,2.66,3,4.8,3.26a1.93,1.93,0,0,1,1.16-.24c1.78.38,3.71.71,4.24-1.64s-2-1.57-2.94-2.54a3.46,3.46,0,0,0-.67-.44Z"/><path class="cls-35" d="M354.7,65.06l.36.71c.57,1.12,2.84.42,2.62,1.92s-2,1.42-3.31,1.64a7.08,7.08,0,0,0-1.45.59l3.41,1.32c2.11.81,4.52.88,5.23-1.4.77-2.5-1.73-3.61-3.67-4.46A10.31,10.31,0,0,0,354.7,65.06Z"/><path class="cls-28" d="M109.8,287.31a383,383,0,0,0,85.5,22.17c84,11.63,153.22-7.52,192.6-22.17l5.57-.61-6.77,5.67A376.37,376.37,0,0,1,343,306.29a386.27,386.27,0,0,1-135.1,9.26,431.93,431.93,0,0,1-60.56-12.15c-12.47-3.45-24.08-7.26-34.79-11.22Z"/><path class="cls-21" d="M132.27,256.09s5.92,28.65,47.23,16.51c0,0,29.82,15.33,68.58,1.8,0,0,105.46,28.62,101.48-8.05,0,0,40.3,2.17,57.45-11.78l1.65,4.31S388,270.63,351.8,271.83c0,0,21.14,36.26-104.14,7.79,0,0-49.43,17.08-69.73,0C177.94,279.6,121.49,280.48,132.27,256.09Z"/></svg>