<svg id="Layer_1" data-name="Layer 1" xmlns="http://www.w3.org/2000/svg" viewBox="0 0 490 677.89"><defs><style>.cls-1{fill:#514742;}.cls-2{fill:#443b39;}.cls-3{fill:#ab8b7d;}.cls-4{fill:#cf9985;}.cls-5{fill:#91766b;}.cls-6{fill:#ea4a24;}.cls-7{fill:#d64027;}.cls-8{fill:#ce8779;}.cls-9{fill:#e59a83;}.cls-10{fill:#6b4739;}.cls-11{fill:#d7934b;}.cls-12{fill:#e7a68d;}.cls-13{fill:#df8266;}.cls-14{fill:#c0dc8c;}.cls-15{fill:#16783c;}.cls-16{fill:#442f13;}.cls-17{fill:#ffe9c6;}.cls-18{fill:#f8aa8e;}.cls-19{fill:#fff4e5;}.cls-20{fill:#fff9f4;}.cls-21{fill:#f5bba8;}.cls-22{fill:#f58e70;}.cls-23{fill:#ffecd5;}.cls-24{fill:#9abdcb;}.cls-25{fill:#010101;}.cls-26{fill:#fff;}.cls-27{fill:#68131c;}.cls-28{fill:#851619;}.cls-29{fill:#720f18;}.cls-30{fill:#b92025;}.cls-31{fill:#e0b277;}.cls-32{fill:#f6c372;}.cls-33{fill:#ffcd73;}.cls-34{fill:#fdca85;}.cls-35{fill:#ffdaa1;}.cls-36{fill:#ffd68c;}.cls-37{fill:#f48466;}.cls-38{fill:#ec5f55;}.cls-39{fill:#c95d5d;}.cls-40{fill:#ea6b6a;}.cls-41{fill:#ce6e58;}.cls-42{fill:#e97767;}.cls-43{fill:#ec2224;}.cls-44{fill:#e73f4f;}.cls-45{fill:#ef5b6f;}.cls-46{fill:#f5937d;}.cls-47{fill:#a6bc79;}.cls-48{fill:#db3f27;}.cls-49{fill:none;stroke:#6b4739;stroke-miterlimit:10;stroke-width:0.62px;}</style></defs><title>wippo</title><polygon class="cls-1" points="442.64 422.89 442.64 412.32 422.93 438.33 422.93 443.61 413.59 454.59 416.43 456.01 417.77 456.88 419.01 457.73 427.66 446.62 433.55 444.72 453.94 419.93 442.64 422.89"/><polygon class="cls-2" points="457.5 440.06 457.5 429.49 437.79 455.5 437.79 460.78 428.45 471.76 431.29 473.18 432.63 474.05 433.51 475.35 442.52 463.79 448.41 461.89 468.79 437.1 457.5 440.06"/><polygon class="cls-2" points="422.47 417.35 422.47 406.79 402.76 432.79 402.76 438.08 393.41 449.05 396.26 450.47 397.6 451.34 398.83 452.19 407.49 441.09 413.38 439.18 433.76 414.39 422.47 417.35"/><path class="cls-3" d="M391.71,449.43S428.3,447,437.85,488L383.6,567.32l-7.72-22.23,10.74-95.69,5.1,0"/><path class="cls-4" d="M437.85,488l-6.94,10.13s-12.25-30.58-46.34-30.52v0l2-18.2,5.1,0S428.29,447,437.85,488"/><polygon class="cls-1" points="124.43 422.89 124.43 412.32 144.14 438.33 144.14 443.61 153.48 454.59 150.64 456.01 149.3 456.88 148.06 457.73 139.41 446.62 133.52 444.72 113.14 419.93 124.43 422.89"/><polygon class="cls-2" points="109.57 440.06 109.57 429.49 129.28 455.5 129.28 460.78 138.62 471.76 135.78 473.18 134.92 474.75 133.69 475.59 124.55 463.79 118.66 461.89 98.28 437.1 109.57 440.06"/><polygon class="cls-2" points="144.6 417.35 144.6 406.79 164.31 432.79 164.31 438.08 173.66 449.05 170.81 450.47 169.47 451.34 168.24 452.19 159.58 441.09 153.69 439.18 133.31 414.39 144.6 417.35"/><path class="cls-5" d="M175.36,449.43S138.77,447,129.22,488l54.25,79.32,7.72-22.23L180.45,449.4l-5.1,0"/><path class="cls-4" d="M129.22,488l6.94,10.13s12.25-30.57,46.34-30.51v0l-2-18.2-5.1,0S138.78,447,129.22,488"/><path class="cls-6" d="M397.72,423.61s16.73,72.72,24,83.29l-42.74,11,9.83-91.61,8.7-3.23"/><path class="cls-7" d="M174.47,424.61s-17,74.45-24.36,85l42.74,11-10.06-91-8.32-4.94"/><path class="cls-8" d="M393.25,567.32c.52-.75,6.52,3.53,11.72,4.94,9,2.45,17.77-3.18,24.75-7.67,6.81-4.38,22.46-14.45,26.52-32,3.31-14.35-2.7-26.87,4.36-33.54a11.36,11.36,0,0,1,6.9-3.36c4.51-.3,8,2.88,8.51,3.4,2.21,2.11,5.75,7.39.18,34.28-2.3,11.12-3.45,16.68-5.46,21.53-11.44,27.58-51.22,36.7-57.86,38.14L398.3,574.39l-1.14-1.51L395.74,571l-1.19-1.77c-.71-.73-1.5-1.63-1.29-1.92"/><path class="cls-9" d="M389.07,637.55l-39.29-5.14c-.91,47.24,2.86,44.34,2.86,44.34,39.17,1.22,55.91,2,57.54-2s-21.1-17.07-21.1-17.07Z"/><path class="cls-8" d="M358.09,642.12S346,682,391.23,677.26c0,0-31.62,2.23-38.59-.51,0,0-4.74-8.57-2.27-36.15h0l7.73,1.52"/><path class="cls-9" d="M183.72,636.78,223,631.64c.91,47.24-2.86,44.34-2.86,44.34-39.17,1.22-55.91.81-57.54-3.25s21.1-15.85,21.1-15.85Z"/><path class="cls-8" d="M214.71,641.35s12.12,39.92-33.14,35.14c0,0,31.62,2.23,38.59-.51,0,0,4.74-8.57,2.27-36.15h0l-7.73,1.52"/><path class="cls-9" d="M386,503.64l55.67,41.45s31.9,27.76,39.21,66.61S480.31,652,462.43,656s-38.6-17.07-38.2-35.35c0,0-.41-8.13,5.69-13.41L418.54,558.4,386,541.84l-.63-19.95.63-18.25"/><path class="cls-6" d="M413.58,603.47l-18.81-21.75a1.45,1.45,0,0,0-1.4-.47l-79.43,17.49.1.6H260.66a1.45,1.45,0,0,1-1.43-1.69,1.44,1.44,0,0,0-1.11-1.65L180,578.8a1.44,1.44,0,0,0-1.41.47L159.83,601a1.43,1.43,0,0,0-.24.38c-1,2.3-9.28,22.94,3.76,29.85,13.71,7.25,58.63,17.85,90.27,4.54a1.46,1.46,0,0,0,.88-1.17l.06-.48a1.45,1.45,0,0,1,1.44-1.27h58.69a1.45,1.45,0,0,1,1.43,1.26l.26,2a1.45,1.45,0,0,0,.87,1.16c31.68,13.33,79.11,3.64,92.82-3.62,13-6.9,4.73-27.55,3.76-29.85a1.39,1.39,0,0,0-.24-.38"/><path class="cls-10" d="M3.53,505.11s24.08,4,32.53,10.32c0,0,6.38,56.91,65.12,92.69L80.46,624.89s-60.78-49.74-59.65-101Z"/><path class="cls-10" d="M274.25,683.68s-13.16-20.56-22.3-25.84c0,0-54.83,16.54-110.83-23.37l-7.26,25.65s69.65,36.29,116.29,15.09Z"/><path class="cls-11" d="M101.18,608.12l39.94,26.35-5.09,18s-20.67-35-50.25-31.89Z"/><path class="cls-9" d="M187.24,503.64l-55.67,41.45s-31.9,27.76-39.21,66.61S93,652,110.85,656,149.45,639,149,620.68c0,0,.41-8.13-5.69-13.41l11.38-48.87,32.5-16.56.36-22.57-.36-15.62"/><path class="cls-8" d="M190.58,512.58c1.42,10.41-27.12,21.27-39,27.63-21.59,11.55-45.87,39-57.73,109a56.47,56.47,0,0,1-2.41-7c-10.84-39.38,24-80.21,37.8-94.93l55.26-41.51c2.62,1.43,5.67,3.66,6.1,6.81"/><path class="cls-8" d="M383.3,529.42q4.59-4,38.46,25.73c17.34,42.36,27.54,74.2,27.67,81a39.84,39.84,0,0,1-1.32,10.56,33.43,33.43,0,0,1-2.68,6.55,48.6,48.6,0,0,1-7.17-5.23,40.06,40.06,0,0,1-11.7-15.73c-.74-1.89-3.28-8.57-2-15.17a14.53,14.53,0,0,1,2.8-7s.21-.25,2.58-2.89L418.54,558.4,386,541.84q-5-10.43-2.74-12.42"/><path class="cls-12" d="M255.73,624.68s-3.76,27.37-3,30.73,48,8.23,66.32,0c0,0-4-27.24-4-29.17Z"/><path class="cls-13" d="M315,626,317.09,642s13.15-2.44,14.67-4l-1.49-13.75Z"/><path class="cls-14" d="M386,554.85s13.81,28.85,31.29,35.35c0,0-43.59,41.86-132.12,35.76,0,0-95.85,2-136.48-32.51,0,0,29.26-20.46,35.76-40.43,0,0,100,25.4,201.56,1.83"/><path class="cls-15" d="M417.32,590.2S373.74,632.05,285.21,626c0,0-95.86,2-136.49-32.5,0,0,3.9-2.73,9.18-7.18,0,0,32,27.91,128,28.31,94.88.4,120.34-30.23,121-31a34.13,34.13,0,0,0,10.46,6.61"/><path class="cls-16" d="M184.48,541.84s104.85,36.37,201.56,0v13S268.39,584.1,184.48,553Z"/><path class="cls-17" d="M397.46,423.12c-37.08,14.65-77.77,18.7-114.49,18-38.43-.76-71.94-6.85-91.67-11-8.69-1.84-14.31-4.89-16.84-5.45,13.15,30.4,10,117.23,10,117.23,108.09,37.39,201.56,0,201.56,0-2.85-75.58,11.43-118.72,11.43-118.72"/><path class="cls-18" d="M386,541.84c-11.79-14.21-19.92-60.14-19.92-60.14H323.87s-11,13.81-35.56,15.85S254,481.7,254,481.7l-46.12.41A113.94,113.94,0,0,1,193,529.32a108.92,108.92,0,0,1-8.53,12.51s1-31.31-1.18-62.73c0,0,0,0,0,0s3.82-27.9,12.65-32.93c0,0,2.13,10.2,4.72,11.42,0,0,2.51-21.71,8.66-24a495.5,495.5,0,0,0,56,6.79c-5.88-.33-11.41-.74-16.1-1.21,0,0,9.19,4.44,13.46,23.33s10.67,20.69,10.67,20.69L275.51,471s9.45,17.07,34.13,15.24c0,0-8.35-30.76,11.52-46.17a281.78,281.78,0,0,0,59.62-10.62l-1.73.55-8.81,2.43L359.37,435s18.34,8.44,14,25.69c0,0,9.45-6.1,9.14-15.85,0,0,7.38,15.46,3.6,22.8.26-.46,1.89-3.35,3.9-7.56-2.91,19.83-5.23,47.41-3.94,81.78"/><path class="cls-19" d="M366.12,481.7s8.13,45.92,19.92,60.14l-.61.23-.76.28c-.84.32-2.08.77-3.68,1.3-2.48.83-5.83,1.9-10,3.08-2.63.74-5.58,1.54-8.83,2.35-1,.26-2.11.53-3.22.78l-2.88.66c-1,.22-1.94.44-2.93.65-32.38,7-85.59,13-145.33-2.32l-.63-.17-3-.78q-9.84-2.63-19.79-6.07A108.94,108.94,0,0,0,193,529.32a113.94,113.94,0,0,0,14.84-47.22L254,481.7s9.75,17.88,34.34,15.85,35.56-15.85,35.56-15.85Z"/><path class="cls-20" d="M367.25,487.51a126,126,0,0,1-15.87,44.88,124.42,124.42,0,0,1-17.2,22.76,242.91,242.91,0,0,0,31.44-6.6c7.36-2.06,14.18-4.35,20.42-6.71a83,83,0,0,1-11.79-26.77l-7-27.56"/><path class="cls-21" d="M367.25,487.51s8.83-35.93-3.46-49.82h0s13.51,9.46,9.64,22.89h0s9.54-5.07,9.14-15.85h0s7.59,14.11,3.6,22.8h0s3-5.65,3.9-7.56h0s-6.47,48.14-4,81.87c0,0-11-13.36-18.79-54.33"/><path class="cls-22" d="M215.08,438.95c1.92,2.67-5.54,8.83-8.45,19.89-2.33,8.87-.77,17.16,1.22,23.26a112.41,112.41,0,0,1-23.37,59.73s.14-32.65-.51-51c-.2-5.8-.2-10.19-.67-11.69h0a75.3,75.3,0,0,1,13.48-36.31c13.07-5.6,17.2-5.38,18.31-3.84"/><path class="cls-23" d="M207.85,482.11c.32.69-1,14,1,27.23,1.76,11.81,7.11,27.31,22.44,44.56,0,0-32.59-6.17-46.81-12.06,3.29-5,6.86-9.86,9.87-15,7.4-11.28,7.81-16.06,10.77-27.81,1.67-9,2.52-17.34,2.73-16.9"/><path class="cls-24" d="M255.19,477.92c0,14.21-10.7,25.72-23.91,25.72s-23.91-11.52-23.91-25.72,10.7-25.73,23.91-25.73,23.91,11.52,23.91,25.73"/><path class="cls-25" d="M251,476.45c0,11-6.43,19.88-14.35,19.88s-14.35-8.9-14.35-19.88,6.42-19.88,14.35-19.88S251,465.47,251,476.45"/><path class="cls-26" d="M235.19,477.92c0,2.91-5.75,5.26-12.85,5.26s-12.85-2.36-12.85-5.26,5.75-5.27,12.85-5.27,12.85,2.36,12.85,5.27"/><path class="cls-24" d="M321.16,477.92c0,14.21,10.7,25.72,23.9,25.72S369,492.13,369,477.92s-10.7-25.73-23.91-25.73-23.9,11.52-23.9,25.73"/><path class="cls-25" d="M325.3,476.45c0,11,6.43,19.88,14.35,19.88S354,487.43,354,476.45s-6.43-19.88-14.35-19.88-14.35,8.9-14.35,19.88"/><path class="cls-26" d="M341.15,477.92c0,2.91,5.75,5.26,12.85,5.26s12.85-2.36,12.85-5.26-5.75-5.27-12.85-5.27-12.85,2.36-12.85,5.27"/><path class="cls-27" d="M223.69,435.58a41.25,41.25,0,0,0-17.07,23.77c-1.12-.57-10.73-5.62-10.67-13.15a9.13,9.13,0,0,1,.41-2.6,78.45,78.45,0,0,0-13.06,35.52s0,0,0,0c-14.63-29.53-8.82-54.49-8.82-54.49l.55.5.4.35.71.61,1.33.89,15.71,3.49,8.8,1.75Z"/><path class="cls-28" d="M309.64,486.27C285,488.1,275.51,471,275.51,471l-2.13,12.15S267,481.4,262.7,462.5s-13.46-23.33-13.46-23.33c4.69.46,10.23.88,16.1,1.21h.21l2,.11c6.28.33,12.89.56,19.23.65h1.4c2.3,0,4.57,0,6.78,0l2.28,0,1.58,0,1.2,0c1.87,0,3.76-.1,5.65-.16l3.31-.13c1.93-.08,3.86-.17,5.8-.28l3.77-.23c.34,0,.65,0,.91-.06l1.7-.12c-19.87,15.41-11.52,46.17-11.52,46.17"/><path class="cls-28" d="M390.07,460c-2,4.2-3.65,7.09-3.9,7.56,3.78-7.34-3.6-22.8-3.6-22.8.3,9.75-9.14,15.85-9.14,15.85,4.36-17.25-14-25.69-14-25.69l10.88-2.53,8.81-2.43,1.73-.55,7.34-2.35h0l1-.3.88-.33,6.68-2.67.79-.7c3.38,10.19-2.88,27.29-7.49,36.94"/><path class="cls-29" d="M256.32,446.43s5.67,10.18,6.94,18.38c0,0,2.8,14.37,10.11,18.37L275.5,471s-6.44-6.18-8.87-23.58h0l-10.31-1"/><path class="cls-29" d="M376.55,433.27s4-1.52,6.45-2.58h0s11.74,22.51,3.18,36.84c0,0,4.4-12.44-9.62-34.26h0"/><path class="cls-28" d="M382.58,444.4s.45-3.33-1.58-12.88h0l-4.46,1.75Z"/><path class="cls-30" d="M326.81,535.85c-1.22-.35-2.57-1.76-5.28-4.57-1.75-1.81-3.1-3.43-4-4.62-23.09,4-56.08-.15-56.08-.15l-6.32,10.36a19.54,19.54,0,0,1-11.31-4.51,19.26,19.26,0,0,1-5.45-7.68,27.53,27.53,0,0,0,5.5,4.88,27.84,27.84,0,0,0,10.79,4.29l5.66-9.17s40.23,4,57.91,0a54.36,54.36,0,0,0,9.59,8.79c1.12-.59,2.28-1.26,3.46-2a50.05,50.05,0,0,0,8.44-6.78c-.45.74-7.75,12.65-12.84,11.18"/><path class="cls-31" d="M176.94,426.75s112,48.75,214.88,0c0,0,14.33-4.43,15.63-29.55s-192.09-14.77-241.58,0c0,0-7.16,14.77,11.07,29.55"/><path class="cls-32" d="M203.63,435.88a236.5,236.5,0,0,1-26.68-9.13c-18.23-14.77-11.07-29.55-11.07-29.55,8.71-2.6,21.89-5.07,37.68-7.22a174.31,174.31,0,0,0,.08,45.9"/><path class="cls-33" d="M407.45,397.21c-1.3,25.11-15.63,29.55-15.63,29.55A214.85,214.85,0,0,1,368.87,436c1.55-15.1,2.6-34.45.81-52.31,23,2.14,38.13,6.4,37.77,13.49"/><path class="cls-34" d="M368.87,436a223.79,223.79,0,0,1-29.22,7.75c2.59-16.29,5.52-40.37,4.52-61.53,9.19.26,17.8.75,25.51,1.46,1.8,17.86.74,37.21-.81,52.31"/><path class="cls-35" d="M339.65,443.79A249.06,249.06,0,0,1,305.2,448c3.11-18,6.32-44.39,3.44-65.84,12.37-.25,24.39-.24,35.53.07,1,21.16-1.93,45.23-4.52,61.53"/><path class="cls-36" d="M305.2,448a286.27,286.27,0,0,1-38.57-.58c-2.86-17-5.6-41.44-2.84-63.32,14.91-1,30.14-1.64,44.85-2,2.88,21.45-.32,47.86-3.44,65.84"/><path class="cls-34" d="M266.63,447.45a322.27,322.27,0,0,1-34-4.65c-2.86-15.17-5.42-36.09-3.06-55.86,10.94-1.09,22.5-2,34.26-2.81-2.76,21.88,0,46.33,2.84,63.32"/><path class="cls-33" d="M232.59,442.8c-11-2.11-20.8-4.57-29-6.91a174.34,174.34,0,0,1-.08-45.9c8.06-1.09,16.8-2.13,26-3-2.36,19.77.19,40.68,3.06,55.86"/><path class="cls-37" d="M169.36,374.08s-3.39-21.33,14.9-40c0,0-15.31-21.26,5.74-44,0,0,10.42-40.6,37.2-48,0,0,71-28.27,68-36.78,0,0,1.28,15.31,10.63,15.31s71,31,59.52,72.71c0,0,28.47,10.64,21.68,42.09,0,0,19.22,8.57,14.92,42.76h0s-221.59,11.8-232.63-4"/><path class="cls-38" d="M163.21,406.58s4.46,12.76,26.15,12.44,30.29-6.38,47.2-12.44,25.19,1.28,28.38,1.91,42.09,23.92,80,.32c0,0,14.35-9.57,27.11-.64s28.7,5.1,28.7,5.1,8.93-20.41-5.74-28.38-33.8-6.38-59.63,5.74-59.31,3.51-64.41,1.28c-3.56-1.56-8.77-4.39-17.08-6a67.76,67.76,0,0,0-29.92,1c-5.53-.1-13.45-.42-22.93-1.41-20.79-2.17-28.61-5.41-34-.92-2.67,2.21-6.2,7.5-3.83,22"/><path class="cls-39" d="M400.78,413.29h0c-.56.12-16.17,3.66-28.69-5.12-12.76-8.92-27.11.63-27.11.63-38,23.6-76.85.33-80-.32s-11.48-8-28.38-1.91c-13.25,4.75-21.41,9.5-34.76,11.5l-6.13-3.58c9.31,2.41,50.73-13.24,55.38-13.21s15.31,4.24,41.08,13.93,59.71-12.89,61.87-13.35,7-2.44,19.79,4.93S400.78,413.29,400.78,413.29Z"/><path class="cls-40" d="M165.33,410.58a21.26,21.26,0,0,1-4.22-5.27c-5.76-10.24-.76-22,.17-24.07a26.3,26.3,0,0,1,11.48-8.74c13.52-5.13,26.05,3.85,27.16,4.67a61.35,61.35,0,0,0,11.4-.91c9.95-1.74,15.82-5.35,20-7,12.12-4.83,23.61,1.24,34.57,4.24,27,7.39,40.82-1.06,70.79-8.64,15-3.79,47.51-4.43,71.11,18.21,0,0,8.29,15.88-7,30.23-.2-9.45,5.66-27.57-11-29.74s-34.79-.16-48.3,5.43c-21.4,8.85-21.4,7.19-26.83,8.41-13.81,3.11-34.41,3.08-63.19-12a62.48,62.48,0,0,1-17.16,5.51L206.9,391S180.43,371.89,167,385.6c0,0-6.33,11.76-1.71,25"/><path class="cls-41" d="M172.77,372.49s-1.27-30.58,28.07-45.89c0,0-5.44-1.91-14,3.51,0,0-15.3-27.42,19.14-44,0,0-7.49-1.91-10,0,0,0-26.05,6.48-23.22,38.15,0,0,1.15,7.31,7.67,10,0,0-22.87,17.13-14.3,42.21Z"/><path class="cls-42" d="M398.23,375.38a47.09,47.09,0,0,0-2.55-18.81c-6.66-18.74-23.43-26.92-27.52-28.78a67.2,67.2,0,0,1,15.6,3.92s4.27-26.79-31.13-43.37c0,0,23.92-2.23,37.31,26.15,0,0,4.12,6.85,3.19,20.41,0,0,19.48,7.62,11.65,45.43Z"/><path class="cls-39" d="M165.33,410.58a18.56,18.56,0,0,1-6.91-7.39c-3.3-6.62-2.09-15,2.86-21.95,0,0,13.85-19.72,38.64-4.08,0,0,18.49.1,31.39-7.92-11.38,5.81-17.1,13.35-15.49,17.42s10.57,4.26,12.13,4.28a31.4,31.4,0,0,1-17.37.86,30.93,30.93,0,0,1-11.41-5.42s-21-12-32.14-.78c0,0-6.12,13-1.71,25"/><path class="cls-39" d="M199.18,386.38S164,399.05,202.07,418c0,0-24.39,5.55-36.74-7.45,0,0-12-8.6-5.12-17.3,0,0,5.92-26.64,39-6.9"/><path class="cls-43" d="M186,288.3s-26.36-33.55,30.61-62.46c0,0-.64-21.68,27.42-20.62s41.24,4.25,46.13-6.17c0,0,4-6-14.24-10.42,0,0,9.57-5.1,21.9,4.89,0,0,15.31,10.63,4.89,19.35,0,0,66.34,25.09,77,61.12,0,0,4.66,21.12-7.19,19.88,0,0-12.48,6-19.81-28.17,0,0-13.71-27.1-16.58-6.38,0,0,5.42,17.11-4.46,25.94s-4.15-25.94-25.51-41.88,1.28,31.89-10.52,37.95-32.53,2.23-25.51-21c0,0,11.8-17.59,4.78-19.48s-20.41,13.74-22.32,31.91c0,0,2.23,23.6-6.06,23.28s-20.73-9.89,1.91-51.34c0,0-13.07-1.28-21.37,26.15,0,0-1.28,14.35-7.33,13.07s-16.58-11.16-1.59-31.25c0,0-20.27,13.12-22.08,23.6,0,0-.35,15.86-10,12.08"/><path class="cls-44" d="M188.95,285.26s4.88-1,5.64-12c0,0,1.37-8.53,13-18.59,0,0-10.67-.3-18.59,16.76s0,13.85,0,13.85"/><path class="cls-44" d="M220,280.86a5.88,5.88,0,0,0,2.95-1.42c2.15-2,2.57-5.72,1-9.36,0,0-.85-9.94,4.6-17,0,0-24,27.14-8.57,27.73"/><path class="cls-44" d="M244.41,292.11s-16.15-5.79,12.8-54.25c0,0-10.06,27.6-6.7,48.24,0,0,2.13,6-6.1,6"/><path class="cls-44" d="M288.26,237.58s-5.48,18.9-10.36,23.77c0,0-11.57,17,8.39,17,0,0,17.21,1.88,10.51-15.19,0,0-8.54-14.93-8.54-25.6"/><path class="cls-44" d="M329.15,279.74c2.43.41,3.95,0,4.94-.78,7.23-5.39-5.12-32.56-7.31-37.29a59,59,0,0,0-2,12.2,60.66,60.66,0,0,0,4.35,25.87"/><path class="cls-44" d="M345.91,244.28s14.93,5.18,19.81,20.42c0,0-6.1,16.63,10.06,21.11,1.93.62,3,.35,3.63-.08,4-2.71-1.65-16.9-2.34-18.59a37.43,37.43,0,0,0-31.16-22.86"/><path class="cls-44" d="M231.31,222s28.71-5.79,54.89-4c0,0,12.77-17.68-54.89,4"/><path class="cls-45" d="M295.29,268.06c0,4.71-2.26,8.53-5,8.53s-5-3.82-5-8.53,2.26-8.53,5-8.53,5,3.82,5,8.53"/><path class="cls-45" d="M249.86,282.67c.68,3.83-.1,7.16-1.74,7.45s-3.52-2.58-4.19-6.4.1-7.16,1.74-7.45,3.52,2.58,4.19,6.4"/><path class="cls-45" d="M222.87,274.47c-.21,2.83-1.33,5-2.5,5s-1.95-2.45-1.74-5.28,1.33-5,2.5-5,1.95,2.45,1.74,5.27"/><path class="cls-45" d="M192.19,281c-.85,2-2.51,3.21-3.69,2.71s-1.45-2.54-.59-4.54,2.51-3.21,3.69-2.71,1.45,2.54.59,4.54"/><path class="cls-45" d="M329.73,272.43c0-3,1.48-5.49,3.29-5.49s3.29,2.46,3.29,5.49-1.47,5.5-3.29,5.5-3.29-2.46-3.29-5.5"/><path class="cls-45" d="M370.34,275.91c-1.5-4.34-.73-8.54,1.71-9.38s5.64,2,7.14,6.33.73,8.54-1.71,9.38-5.64-2-7.14-6.33"/><path class="cls-41" d="M172.77,372.49s-2-45.62,58.52-46c0,0-75.79-15.42-65.16,50Z"/><path class="cls-41" d="M186.8,330.11S167.92,290.86,220,288.3c0,0-24.72-8.12-36.74,5,0,0-20.83,22.42-2.86,40.94Z"/><path class="cls-46" d="M251,299.25s95.09-7.73,113.38,12.39c0,0,15.54-32.7-113.38-12.39"/><path class="cls-46" d="M237.72,338.46c22,.38,40.88,1.4,55.62,2.46,32.8,2.36,46.53,5,55.62,7,10.69,2.39,19.46,5,25.6,7q4.33-5.73,3.19-10-5.56-20.62-140-6.47"/><path class="cls-41" d="M187.6,339.94S165.39,373,237.72,367.62a84.36,84.36,0,0,1-26.4,8.63,83.27,83.27,0,0,1-11.4.91s-13.07-9.24-27.16-4.67c0,0-1.72-18,14.83-32.56"/><path class="cls-47" d="M209.64,560.43a52.09,52.09,0,0,1-23.28,24.9,50.43,50.43,0,0,1-21.64,5.49l-6.82-4.54S180,569.07,184.48,553c4.27,1.57,8.87,3.09,13.79,4.5,3.94,1.13,7.74,2.09,11.37,2.91"/><path class="cls-47" d="M192.85,602.56s-28.05-10.08-10.43-15.62A26.74,26.74,0,0,0,163,589.79a142.22,142.22,0,0,0,29.87,12.77"/><path class="cls-32" d="M392.09,425c-104.93,43.08-194,10-217.47-.36,0,0,0,.09,0,.14a254.82,254.82,0,0,0,110,25.29s41.28.14,76.37-11.38c.14,0,1.86-.62,4.24-1.37s3-.94,4.29-1.34c2.73-.87,4.69-1.62,7.34-2.62,1.8-.68,2.27-.89,7-2.78,7.63-3.08,9.21-3.67,11.64-5.24,2.12-1.37,3.45-3.08,3.24-3.42C398.38,421.34,392.57,424.79,392.09,425Z"/><path class="cls-48" d="M255.6,625.62s-63.8,17.94-98.35-1.29c0,0,1.18,5.31,8.51,8.08,0,0,49.7,19.62,87.85,3.37,0,0,.72-.27.76-.57Z"/><line class="cls-49" x1="36.06" y1="515.44" x2="251.96" y2="657.84"/></svg>