<svg id="Layer_1" data-name="Layer 1" xmlns="http://www.w3.org/2000/svg" viewBox="0 0 446 677.89"><defs><style>.cls-1{fill:#447784;}.cls-2{fill:#3a6670;}.cls-3{fill:#b9e89a;}.cls-4{fill:#d8f9c2;}.cls-5{fill:#345c63;}.cls-6{fill:#3f6f77;}.cls-7{fill:#315154;}.cls-8{fill:#315b72;}.cls-9{fill:gold;}.cls-10{fill:#c2f4a2;}.cls-11{fill:#cbf2b1;}.cls-12{fill:#f0fff0;}.cls-13{fill:#d4fcd4;}.cls-14{fill:#e8f9e8;}.cls-15{fill:#e25e44;}.cls-16{fill:#efefe8;}.cls-17{fill:#d2f9ff;}.cls-18{fill:#4a661d;}.cls-19{fill:#6bb12c;}.cls-20{fill:#262628;}.cls-21{fill:#7a7a7a;}.cls-22{fill:#888;}.cls-23{fill:#609627;}.cls-24{fill:#f4cc25;}.cls-25{fill:#f9d53d;}.cls-26{fill:#f9d746;}.cls-27{fill:#ffdf5a;}.cls-28{fill:#fcd32b;}.cls-29{fill:#88db52;}.cls-30{fill:#aeff83;}.cls-31{fill:#89ed54;}.cls-32{fill:#78c646;}.cls-33{fill:#92ff5e;}.cls-34{fill:#9fff61;}.cls-35{fill:#80cc27;}.cls-36{fill:#fff;}.cls-37{fill:#a5ce8a;}.cls-38{fill:#a1db65;}.cls-39{fill:#6c9e2b;}.cls-40{fill:#9cef30;}.cls-41{fill:#94ff36;}</style></defs><title>wippo</title><path class="cls-1" d="M257.55,414.24c10.41,38.24,21.89,49.95,30.85,53.14,1.92.68,7.16,2.2,7.68,5.41.77,4.8-9.55,10.46-18.35,14.48l-11.06,3.65,2.11-3.2,1.49,4.85,1.24,4.49-.25,2.55L269,503.86s-17.62-11.29-22.54-15.05,6.84-72.53,6.84-72.53l5.06-3.63Z"/><path class="cls-2" d="M57.36,407.75C46.95,446,35.46,457.7,26.51,460.89c-1.92.68-7.16,2.2-7.68,5.41-.77,4.8,9.55,10.46,18.35,14.48l11.06,3.65-2.11-3.2-1.49,4.85-1.24,4.49.25,2.55,2.24,4.26s17.62-11.29,22.54-15.05-6.84-72.53-6.84-72.53l-5.06-3.63Z"/><path class="cls-2" d="M262.71,490.29S250.63,457.78,252.43,443l-6.68,27,4,19.32,12.93,1"/><path class="cls-3" d="M103,627.87a6.54,6.54,0,0,1,2.36-4.3,88.21,88.21,0,0,0-.76-15.34C93.42,610.31,71.76,607,71.76,607L67,627.2c-13.53,4-15.25,13.42-15.25,13.42a99.67,99.67,0,0,0,40,1.6,6.17,6.17,0,0,1,4.45-1.7c.23,0,.44,0,.66,0a6.2,6.2,0,0,1,4.73-5.64A7.25,7.25,0,0,1,103,627.87Z"/><path class="cls-4" d="M254.86,627.2,250,608.37s-22.29,3.27-33.79,1.18c0,0-.68,13.92,2.18,23.39,3.69,1.4,6.69,4.46,9.16,7.62l1,.32a9.52,9.52,0,0,1,3.25,1.7l.36.05a106.83,106.83,0,0,0,38.47-2S268.79,631.25,254.86,627.2Z"/><path class="cls-5" d="M48.09,569.66s34.31,23.74,81.57,25.63c0,0,6.47,22.11-56.22,13.49,0,0-45.39-7.59-25.35-39.12"/><path class="cls-6" d="M271.41,567.55S251.46,583.88,198,595.35c0,0-2.87,22.64,50.64,13.25,0,0,39.88-6.71,22.77-41"/><polygon class="cls-7" points="198.64 594.97 200.49 608.57 189.11 611.84 187.02 596.74 198.64 594.97"/><path class="cls-8" d="M187,530.4l2.17,92.31c-30.35,11-61,0-61,0l2.62-92.31s35.26,5,56.23,0"/><path class="cls-1" d="M66.7,529S52.64,551.06,45.3,557c0,0,92.4,80.8,227.37,1,0,0-21.06-18.49-22.09-27.67l-4.79-4-86.45,10.83Z"/><path class="cls-2" d="M89.07,532.86c-1.14,3.13-11.57,15-21.38,20.94-5.75,3.5-12.61,4.52-15.92,4.86-1.64-.92-5.93.8-7.57-.12,0,0,23.61-26.2,25.88-37.46,3,.86-.38,7,3.07,7.71,2.76.58,5.42,2.37,8,2.75Z"/><path class="cls-2" d="M72.88,565.84s-19.33-6.95-7.19-10.77a18.43,18.43,0,0,0-13.4,2,98,98,0,0,0,20.59,8.8"/><path class="cls-9" d="M48.46,553.63l1.11.69c8.68,5.18,119.37,68.7,217.42-1.56L278.74,563S167.3,649.37,38,563Z"/><path class="cls-10" d="M259.5,545.51s52.4,5.24,57.93-60.54c0,0,5.42-25.42,20.34,0,14.53,24.75-27.42,83.58-63,78.05Z"/><path class="cls-4" d="M259.86,414.22c-9.45,16.43-11.54,77.16-11.43,102.78,0,7.11.13,11.52.13,11.52-80.26,28.19-182.41,0-182.41,0,.53-4.48,2.27-8.83,2.59-13.06C73.86,447.78,52.55,413.1,52.55,413.1s78.71,17.55,107,14.25c0,0,54.8-.27,75.54-7.59Z"/><path class="cls-11" d="M95.8,533.88c-18.18-3.14-29.59-6.29-29.59-6.29.53-4.48,2.27-8.83,2.59-13.06,5.12-67.69-16.19-102.36-16.19-102.36s16.55,3.69,37.2,7.37C114.2,423.89,132,540.14,95.8,533.88Z"/><path class="cls-10" d="M128.39,426.5s-6.63-20.56-30.51-5S80.3,451.37,82.29,472.6,69.5,490.73,69.5,490.73l-1.36,27.51,47,13.06h88.55l45.88-14.06-.77-26.4s-15.59,3-13.6-18.24,8.29-35.49-15.59-51.08-30.51,5-30.51,5-29.85,35.16-60.69,0"/><path class="cls-3" d="M115.51,531.47l-47-13.06,1.36-27.51c2.71.49,6.57.69,9.42-1.5,3.19-2.45,4-7.06,3.32-19.46-1-17.77-3.52-20.07-2.6-26.27s5.08-15.05,21-24.37a105.14,105.14,0,0,0-9.75,39.8C89.67,496.28,108.87,523,115.51,531.47Z"/><path class="cls-12" d="M244.47,520l-1.33-14.26s-1-8-6.63-3.65-9,4.64-9,4.64-9.95,4.31-3.32-4c0,0,13.24-23.66-2.28-50.64S189.63,451,189.63,451l-13.26,21-4.7.39c-14.43-21.56-26.2,0-26.2,0l-4.7-.39L127.5,451s-16.8-25.87-32.32,1.11-2.28,50.64-2.28,50.64c6.63,8.29-3.32,4-3.32,4s-3.32-.33-9-4.64S74,505.77,74,505.77V520l27.36,11.61h101Z"/><path class="cls-13" d="M94.79,451.81c-14.5,27.54-2.28,50.64-2.28,50.64,6.63,8.29-3.32,4-3.32,4s-3.32-.33-9-4.64-6.63,3.65-6.63,3.65v14.26L101,531.3c22,2,27.69.76,28.08-1,.65-2.91-13.73-5.06-23.88-17.91-8-10.14-9.32-21.78-9.95-27.42-2.28-20.36,5.61-37,3.48-37.76C97.77,446.89,95.84,449.82,94.79,451.81Z"/><path class="cls-14" d="M224.56,450.86c14.5,27.54,2.28,50.64,2.28,50.64-6.63,8.29,3.32,4,3.32,4s3.32-.33,9-4.64,6.63,3.65,6.63,3.65v14.26l-27.36,11.61c-22,2-27.69.76-28.08-1-.65-2.91,13.73-5.06,23.88-17.91,8-10.14,9.32-21.78,9.95-27.42,2.28-20.36-5.61-37-3.48-37.76C221.58,445.94,223.51,448.87,224.56,450.86Z"/><path class="cls-9" d="M249.55,517.24c-95.69,25.35-181.42,1-181.42,1l-2.65,12.93s106.72,26.65,185.1-.77Z"/><path class="cls-3" d="M115.46,488.68A118,118,0,0,0,144.14,496a121.68,121.68,0,0,0,58.38-7.34l-4.31,3.62c-.16,1.75-2.33,22.15-18.65,30.1a30.53,30.53,0,0,1-14.17,3l-12.78.08s-26.7,2.16-33.5-33.14Z"/><path class="cls-15" d="M196.51,493c-.3,3-2.08,17.75-13.65,25.47a34.55,34.55,0,0,1-17,5.62H152.59A32,32,0,0,1,135,518.45c-12.71-8.9-13.6-24.13-13.69-26.14a114.47,114.47,0,0,0,25.3,5.9A116.94,116.94,0,0,0,196.51,493"/><path class="cls-16" d="M185.33,496.07a17.08,17.08,0,0,1,.74,5.75,17.68,17.68,0,0,1-3.44,9.58l-3-5H138.17l-3,5a20.2,20.2,0,0,1-3-9.83,19.66,19.66,0,0,1,.67-5.84,120.39,120.39,0,0,0,52.49.33"/><path class="cls-17" d="M132.7,460.49A20.73,20.73,0,1,1,112,439.77a20.73,20.73,0,0,1,20.73,20.73"/><path class="cls-18" d="M115.14,440c3.41-.58,6.61,2,7.51,2.77,6.06,5,5.37,13.6,5.41,15.23.33,11.94-7,17.25-11.78,18.57a11.28,11.28,0,0,1-4.86-1.85c-5.28-3.64-5.19-10.66-5.17-11.41l10.09.11s6.74-1.94-.05-5.13l-10.12.32C105.85,448.33,110.14,440.85,115.14,440Z"/><path class="cls-17" d="M185.43,460.49a20.73,20.73,0,1,0,20.73-20.73,20.73,20.73,0,0,0-20.73,20.73"/><path class="cls-18" d="M203,440c-3.43-.56-6.6,2-7.51,2.77-6.06,5-5.37,13.63-5.41,15.23-.33,11.94,7,17.25,11.77,18.57a11.52,11.52,0,0,0,4.86-1.86c5.34-3.65,5.37-10.67,5.36-11.48l-10.27.18s-6.74-1.94.05-5.13l10.15-.58C212.2,447.94,207.93,440.82,203,440Z"/><path class="cls-4" d="M249.19,483.66a36.43,36.43,0,0,1,13.52,6.63c6.37,5,9.22,11,12.93,18.9a107.51,107.51,0,0,1,7.3,21.89,161.72,161.72,0,0,1,4,24.87c2.15,26,3.22,38.95-2.32,50.41-9.77,20.21-34.16,33-49.64,29-1.65-.42-13.33-3.41-14.81-10.42a6.5,6.5,0,0,1,.22-4c2-4.77,9.84-3.41,11.5-7.3,1.08-2.54-1.91-4.21-3-9-.48-2.11-1.25-7.39,5-19.73,3.72-7.39,6-9.5,10.61-16.58,8.3-12.78,13.84-21.31,13.43-31.51-.15-3.77-1.25-11-8.35-19.64-.54-5.56-.89-11.64-.91-18.16C248.62,493.6,248.83,488.45,249.19,483.66Z"/><path class="cls-10" d="M247.78,500.57c1.73-1.05,9.07,6.66,13.6,14.26a53.29,53.29,0,0,1,7,21.05c-2.71,32.8-11.74,53.32-18.62,65.18-7.12,12.28-10.57,12.92-12.16,12.6-5.89-1.18-6.64-19.72-6.78-24.82,3.18-5.46,7.86-13.53,13.47-23.44,7-12.34,13.88-24.78,12.11-33.17-.49-2.31-1.28-2.63-3.81-9.95-.56-1.62-1.26-3.73-3-4.31-1.41-.48-2.17.51-2.94,0-1.62-1,1.31-5.79,1.1-13.26C247.69,501.9,247.22,500.91,247.78,500.57Z"/><path class="cls-3" d="M209.39,616.44c-.34-1.43-5.14-21.86.8-24.66a4.4,4.4,0,0,1,3.32,0,17.67,17.67,0,0,0,.6,4.27,20.31,20.31,0,0,0,8.47,11.26Z"/><rect class="cls-19" x="409.62" y="565.47" width="30.95" height="50.19" transform="translate(-33.45 25.58) rotate(-3.32)"/><rect class="cls-20" x="76.54" y="590.6" width="248.75" height="26.84" transform="translate(-34.6 12.63) rotate(-3.32)"/><rect class="cls-19" x="47.13" y="593.58" width="36.13" height="36.95" transform="translate(-35.29 4.8) rotate(-3.32)"/><path class="cls-21" d="M301.17,654.25l97.53,20.19C437.1,579.68,389,506.71,389,506.71L294.44,538s37.77,54.87,6.73,116.23"/><rect class="cls-20" x="326.56" y="581.55" width="77.94" height="26.84" transform="translate(-33.8 22.14) rotate(-3.32)"/><path class="cls-22" d="M303.11,554.58l82.2-28.14s10.92,15.68,18.35,52.88l1.55,26.79s-1.52,31.94-11.06,48.67l-86.36-16.42-6.62,15.88,97.53,20.19s40-89.4-9.72-167.73L295.1,538Z"/><path class="cls-23" d="M417.28,565.88l3,50.11-7.72.45a174.22,174.22,0,0,0-1-50.13Z"/><polygon class="cls-23" points="67.69 593.41 69.64 630.3 46.09 631.54 42.98 594.65 67.69 593.41"/><path class="cls-22" d="M285.3,613.83c.37-1.14,4-12.61-2.37-19.62-2.2-2.44-4.69-3.32-8.22-4.52-16.06-5.45-31.38,0-35.45,1.54a58.34,58.34,0,0,0-9.18,4.53,9.15,9.15,0,0,0-3,4.27,15,15,0,0,0-.25,3.92A29,29,0,0,0,266.24,631C267.88,630.53,281.21,626.33,285.3,613.83Z"/><path class="cls-21" d="M227,606.05c.89,1.27,11.05,15.22,28.94,15.11a35.33,35.33,0,0,0,30.59-18.44,27.11,27.11,0,0,1-3.06,16c-7.44,13.4-24,14.14-25.06,14.17A27.93,27.93,0,0,1,227,606.05Z"/><path class="cls-24" d="M81.47,424.69a220.56,220.56,0,0,1-24.77-8.42C39.77,402.64,46.42,389,46.42,389c8.09-2.4,20.32-4.67,35-6.66a159.85,159.85,0,0,0,.07,42.35"/><path class="cls-25" d="M270.68,389c-1.21,23.17-14.51,27.26-14.51,27.26a200,200,0,0,1-21.3,8.56c1.44-13.93,2.42-31.78.75-48.26,21.36,2,35.4,5.9,35.06,12.44"/><path class="cls-26" d="M234.87,424.83A208.59,208.59,0,0,1,207.74,432c2.4-15,5.13-37.25,4.19-56.76,8.53.24,16.53.69,23.68,1.35,1.67,16.48.69,34.33-.75,48.26"/><path class="cls-27" d="M207.74,432a232.55,232.55,0,0,1-32,3.91c2.89-16.59,5.87-41,3.19-60.74,11.48-.23,22.64-.22,33,.07.93,19.52-1.79,41.73-4.19,56.76"/><path class="cls-26" d="M175.76,435.89a267.54,267.54,0,0,1-35.81-.53c-2.66-15.67-5.2-38.23-2.64-58.41,13.84-.9,28-1.51,41.64-1.8,2.67,19.79-.3,44.16-3.19,60.74"/><path class="cls-25" d="M140,435.36a300.75,300.75,0,0,1-31.6-4.29c-2.66-14-5-33.3-2.84-51.53,10.16-1,20.89-1.88,31.81-2.59-2.57,20.19,0,42.74,2.64,58.41"/><path class="cls-28" d="M108.36,431.07c-10.23-1.95-19.31-4.21-26.89-6.38a159.88,159.88,0,0,1-.07-42.35c7.48-1,15.6-2,24.12-2.81-2.19,18.23.18,37.53,2.84,51.53"/><path class="cls-29" d="M44.45,387.06c4.63,10.07,18.36,11.15,24.43,11.62s10.52-.49,16.38-1.76c10.72-2.33,20.88-6.83,27.72-9.86,4.56-2,5.94-2.81,7.48-3.25a4.76,4.76,0,0,1,1.46-.32c1.83,0,3.06,1.33,4.31,2.32.8.64,2.42,1.31,5.64,2.65a70.25,70.25,0,0,0,9.62,3.15c2.68.71,4.73,1.14,5.64,1.33,14.31,3,21.46,4.43,24.38,4.64a87.93,87.93,0,0,0,17.25-.5,66.83,66.83,0,0,0,13.6-2.65,59.51,59.51,0,0,0,11.95-5.29s13.41-8.94,25.33-.6,26.82,4.76,26.82,4.76,8.34-19.07-5.36-26.52-31.59-6-55.72,5.36-55.42,3.28-60.19,1.19c-3.32-1.45-8.19-4.1-16-5.64a63.34,63.34,0,0,0-28,1c-5.17-.1-12.57-.39-21.43-1.32-20-2.08-26.47-5.16-31.8-.86S41.44,380.53,44.45,387.06Z"/><path class="cls-30" d="M50.2,356.69a40.69,40.69,0,0,1,.55-12.15c2.22-12,8.86-20.51,13.37-25.26a35.71,35.71,0,0,1-4.93-19.45,36.15,36.15,0,0,1,9.17-22.35,77.76,77.76,0,0,1,9.12-19.15,79.34,79.34,0,0,1,26.77-25.05s58.39-9.18,55.61-17.12c0,0,39.15,13.25,47.89,13.25s36.35,12.81,25.62,51.75c0,0,26.61,9.94,20.26,39.33l13.94,40h0C78.35,374.65,51.68,364.32,50.2,356.69Z"/><path class="cls-31" d="M46.43,390.79a19.83,19.83,0,0,1-3.94-4.93c-5.38-9.57-.71-20.54.16-22.49a24.59,24.59,0,0,1,10.73-8.17c12.63-4.79,24.34,3.6,25.38,4.36a57.37,57.37,0,0,0,10.65-.85c9.29-1.63,14.78-5,18.68-6.55,11.33-4.52,22.06,1.16,32.31,4,25.24,6.91,38.15-1,66.15-8.08,14-3.54,44.4-4.14,66.45,17,0,0,7.75,14.84-6.56,28.25-.19-8.83,5.29-25.76-10.3-27.79s-32.51-.15-45.13,5.07c-20,8.27-20,6.71-25.07,7.86-12.91,2.91-32.16,2.87-59.05-11.19a58.39,58.39,0,0,1-16,5.15l-25.57.11S60.54,354.64,48,367.45c0,0-5.91,11-1.59,23.34"/><path class="cls-31" d="M264.06,357.91a43.94,43.94,0,0,0-2.39-17.58c-6.22-17.51-21.89-25.16-25.71-26.9a63.48,63.48,0,0,1,6.62,1.2,62.54,62.54,0,0,1,8,2.46s4-25-29.08-40.52c0,0,22.35-2.09,34.86,24.43,0,0,3.85,6.4,3,19.07,0,0,18.2,7.12,10.89,42.45Z"/><path class="cls-32" d="M46.43,390.79A17.34,17.34,0,0,1,40,383.89c-3.09-6.18-2-14.05,2.67-20.51,0,0,12.94-18.43,36.11-3.81,0,0,17.28.09,29.33-7.41-10.63,5.43-16,12.48-14.47,16.27s9.88,4,11.34,4a29.34,29.34,0,0,1-16.23.8,28.88,28.88,0,0,1-10.66-5.06S58.4,357,48,367.45c0,0-5.72,12.13-1.59,23.34"/><path class="cls-32" d="M78.06,368.18S45.17,380,80.76,397.76c0,0-22.79,5.18-34.33-7,0,0-11.17-8-4.79-16.16,0,0,5.53-24.89,36.42-6.45"/><path class="cls-31" d="M191.73,325.29c.25,2.92-30.79,10.76-64.67,7.63-2.47-.23-4.54-.48-6-.67l47.59-9.11h9.67C189.07,323.56,191.66,324.46,191.73,325.29Z"/><path class="cls-32" d="M63.62,297.92s12.8,7.72,25.19,6.85-16.94-13.7-16.94-13.7l-8.24-2.85v9.7"/><path class="cls-33" d="M64.26,334.82s8.3-2.23,8.91-4.42-5.93-2-5.93-2l-4.6-1.84.57,9,1-.75"/><path class="cls-31" d="M191.39,285.27s5.64,12.08,53.18,9.84l-5-8.41Z"/><path class="cls-31" d="M241.94,338.78c2.93,2.9,6.68,3.36,8,3.64,3.68.75,8.63,4.06,14.1,15.49l-.08-5.15q0-8.15-.06-16.31l-13.29-9.9-11.31,8.26A12,12,0,0,0,241.94,338.78Z"/><path class="cls-32" d="M53.38,355.21s-1.83-42.63,54.68-43c0,0-70.82-14.41-60.88,46.72Z"/><path class="cls-32" d="M71.56,284.1A6.91,6.91,0,0,1,68.83,277a19.27,19.27,0,0,0-5.61,4.2s-19.47,20.95-2.68,38.26l6-3.87S56.83,295.51,71.56,284.1Z"/><path class="cls-31" d="M97.55,297.92s100.94-25.09,123.85-10c0,0,11.41-33-123.85,10"/><path class="cls-31" d="M191.09,320.5c-7.48,2.25-16,6.31-15.6,7.61.27,1,5.21-.06,12.2-.7,12.19-1.13,33.52-2.84,49.82,8a44,44,0,0,1,4.44,3.38,11.58,11.58,0,0,0,2.77-5,12.26,12.26,0,0,0,.21-4.32C243.95,323.35,217.41,312.58,191.09,320.5Z"/><path class="cls-32" d="M67.24,324.79s-20.75,30.91,46.83,25.87a78.81,78.81,0,0,1-24.67,8.06,78,78,0,0,1-10.65.85s-12.21-8.63-25.37-4.36c0,0-1.61-16.78,13.86-30.42"/><path class="cls-19" d="M271.5,352.85S238.58,306.34,159,328.26c0,0-31,10.31-50.72,0,0,0-11.44-4.67,0-10.61s36.64-15.29,53-17.63,85.24-12.47,116.94,30.28c0,0,5.72,14.84-6.76,22.56"/><path class="cls-19" d="M57.38,359.88c-12.27,4.81-22.44-.61-8.07-13s33.39-6,33.39-6,11,3.71,17.69-.66c13.52-8.83,31.62,1.1,31.62,1.1,24.54,10.61,61.47,2.88,77.83-3.32s31.62.44,38.25,6.41-1.77,7.74-1.77,7.74c-16.36-1.77-33.72,7.68-33.72,7.68-26.53,14.42-53.73,11.12-72,1.84s-28.85.32-28.85.32-15.59,9.29-28.85,0a24.49,24.49,0,0,0-25.54-2.16"/><path class="cls-34" d="M71.56,276.51s4.3-4.63,7.51-3.39-.94,9,11.67,5.23,24.08-12.13,21.66-4,17.81,4.94,22.29.57,13-8.67,14.26-3.47-1.55,8.55,2.62,8.47,17.11-22.8,17.11-22.8,7.3,12.77,15.59,6.3,12.27-5.64,12.77-4,.74,5.33,5.18,4.41,14.14-8.33,14.14-8.33.14,5.25,5.09,5.58,3.78-3.65,9.92,2.32,4.17,3.69,4.17,3.69l-4-22.43-9.41-12.15-23.44.87-4.79,9.45L159.6,246l-24.08-5.64s-16.25,9.95-16.58,10.94-24-7.72-24-7.72L76.2,240.38,64.71,275.46Z"/><path class="cls-35" d="M193.54,175.53c-5.13-7.13-31.16,3.64-33.88,4.78-11.55,4.86-29.54,14.55-47.7,34.86,0,0-24,8.29-32.26,20.28,0,0-15.67-.46-20.28,31.34,0,0-3.8,14.41-6.22,17.86s-9,17.28-2.07,27.65,9.68-2.07,9.68-2.07-6.57-17.28,3.11-24.89c0,0,10.72-16.94,12.1-21.43S83.62,249,87.08,247.66s6.22-.69,3.46,4.49S72.91,267,85.69,272.55s16.94-8.09,20.05-10.72,20.23-8.47,11.41,7.61c-6.49,11.83-14.87,12.79-14.87,12.79s-11.06,3.8-3.46,15.21c0,0,24.54-7.09,35.09-10.37,0,0-19.19-8.3.52-33.18,0,0,14.52-13.48,23.51,9.33,0,0,1,10-5.88,13.83s2.31,7.61,2.31,7.61,3.92,3.32-2,9.61c-1.06,1.13-1.33,1.84-1.24,2.71.37,3.49,10.85,8.22,15.94,3.7,2.71-2.41,3.72-7.28,2.16-10.36-1-2-3.09-3.18-2.65-4.31.29-.76,1.45-.8,2.4-1.08,5-1.46,6.79-10.22,7.3-12.69a27.86,27.86,0,0,0,.25-9.7c0-.66.09-6.75,4.64-9.66a11.08,11.08,0,0,1,6.82-1.4c15.9.69,10.71,15.55,10.71,15.55s-1.38,10.72,12.79,6.22,2.42-16.94,2.42-16.94-13.83-13.48.69-17.63a10.08,10.08,0,0,1,7.09.19c4,1.8,5.3,6.49,6.68,11.75,2.37,9,.45,12.33,3.86,18.19a13.66,13.66,0,0,0,5.29,5.66c5.34,2.89,13.17,1.47,14.87-2.15l-1.85-9.78s-25.93-40.44-49.43-39.41a5.53,5.53,0,0,0,2.14-2.56c2.13-5.19-10.55-9.69-13.89-19.21C185.42,190,197.34,180.82,193.54,175.53Z"/><path class="cls-19" d="M55.17,292.85l4,15.89S79.71,317.06,81,324.69s-17.91,9.21-25.87,5.93-24.54-8.26-17.25-37.77a18.72,18.72,0,0,1,3.94-7.38c5.31-6,12.86-6.46,14.47-6.51Z"/><path class="cls-19" d="M55.23,273.45c.63,19,20.6,28,21.46,28.41a37.06,37.06,0,0,0,19.67,2.54s6.53-5.08-9.29-12.82c-5.8-2.84-18.07-12.25-22.37-23.11-1.4-3.52-2.6-9-.83-17C61.74,253.78,54.85,262,55.23,273.45Z"/><path class="cls-19" d="M230.13,237.53s26.53,4.42,23.44,43.34c0,0,3.54,20.76-56.16,7.08-5.66-1.3-15.48-2.84-15.48-2.84s-16.8-2.47,1.77-13.08S216,269.37,216,269.37s20.78,5.12,26.09-4.29-11.94-27.54-11.94-27.54"/><ellipse class="cls-36" cx="111.97" cy="460.49" rx="9.07" ry="3.63"/><ellipse class="cls-36" cx="206.16" cy="460.49" rx="9.07" ry="3.63"/><path class="cls-4" d="M68.69,479.18c-10,5.7-34.21,21.27-49,52C4.43,563,8.66,591.44,10.86,606.14c3.58,24,10.91,28.76,14.23,30.38,5.33,2.6,12.68,2.79,22.8-1.64,34.9-15.27,11.14-55.28,6.89-51.47a.78.78,0,0,1-.57.24c-1.19-.08-1.44-4.74-2.47-9.5-.61-2.85-1.75-5.75-4-11.56-1.08-2.84-1.2-3-2.82-7.13-3.73-9.61-3.65-10.43-3.48-11.11.65-2.59,2.55-2.82,9.62-9,1.74-1.51,3-2.61,5.41-5l14.22-14.66Z"/><path class="cls-3" d="M69.51,487.29c.14,2.26.18,2.44.06,2.91-.85,3.46-5.43,4.05-12,7.46a58.73,58.73,0,0,0-10,6.72,78.63,78.63,0,0,0-9,8.54,82.57,82.57,0,0,0-7.12,8.6,49.55,49.55,0,0,0-4.89,7.79,62.88,62.88,0,0,0-3.94,10.64q-1,3.62-1.81,7.86c-3.51,18.7-3.76,46.78,1.9,88.88A56.23,56.23,0,0,1,18,631c-23.73-33-5.29-83.2,2.5-101.71,2.06-3.61,5-8.47,8.89-14A121.38,121.38,0,0,1,41,500.7,110.78,110.78,0,0,1,56.67,487a128.09,128.09,0,0,1,12.47-8.13C69.2,480.73,69.3,483.65,69.51,487.29Z"/><path class="cls-22" d="M44.42,636.85c-45.87,10.52-31.69-47.1-31.69-47.1C22.65,570.09,32.48,588,32.48,588c9.15,54.41,34.18,18.47,34.18,18.47s4.68,24.21-22.24,30.39"/><path class="cls-21" d="M44.42,636.85c-1.16.22-14.22,2.65-24.06-2.74C8.72,627.73,2.45,610.9,6.33,593c5.39-5.52,10.27-10,11.28-9.23a.66.66,0,0,1,.19.51c.4,21.7,7.12,33,14.9,39,9.64,7.42,24.49,4.88,24.49,7.6,0,.61-1,1.19-3.09,2.32A34.37,34.37,0,0,1,44.42,636.85Z"/><path class="cls-10" d="M96.92,440.62s32.5,7.33,47.14,5.31-19.71-12.07-19.71-12.07Z"/><path class="cls-10" d="M201,433.14s27.94-2.86,38.31,14Z"/><path class="cls-10" d="M222.51,440l-37.08,5.9s21.48-17.21,37.08-5.9"/><path class="cls-3" d="M234,642.88a20.56,20.56,0,0,1-6.59-6.74,21.61,21.61,0,0,1-2.53-6.72,34.35,34.35,0,0,1-.34-13.33l-8.41.49a59.55,59.55,0,0,0,4.56,22.76,50.08,50.08,0,0,0,9.11,2.85C231.29,642.49,232.69,642.72,234,642.88Z"/><path class="cls-37" d="M100.11,623.3a27.64,27.64,0,0,1-3.17,9.43,28,28,0,0,1-9.72,10.15c1.66-.2,3.06-.41,4.13-.59a40.83,40.83,0,0,0,4.16-.81,28.27,28.27,0,0,0,3.82-1.3s5.39-3.21,6.06-17.19Z"/><path class="cls-24" d="M81.1,421.7S181.57,451.62,258.68,415c0,0-64.27,40.7-177.21,9.68L80,421.52Z"/><path class="cls-32" d="M253.77,392.31a35,35,0,0,1-10.68-4.91,29.76,29.76,0,0,0-11-3.26,30.24,30.24,0,0,0-16.08,3c-25.46,11.77-41,11.44-50.76,8.18q-2.58-.3-5.32-.73c-2.42-.38-4.72-.81-6.92-1.27-2-.43-4.93-1.09-8.45-2a97,97,0,0,1-10.91-3.05,60.07,60.07,0,0,1-11.47-5.81l-1.19-.15C104,393.8,74.76,394.43,74.76,394.43l-.35,2.33,6.35,1c5.41-1.14,11.13-2.56,17.12-4.31A229,229,0,0,0,121.69,385c3.38,1.59,7,3.14,11,4.57a131.12,131.12,0,0,0,26.15,6.53,81.33,81.33,0,0,0,61.29-8.38,22.67,22.67,0,0,1,16.36-1c15.47,10.79,29.95,6.56,29.95,6.56A35.05,35.05,0,0,1,253.77,392.31Z"/><path class="cls-32" d="M122.23,382.49s50.48,27.79,95.76,3.78c0,0-17,12.7-45.38,11.15C172.61,397.42,127.89,393.82,122.23,382.49Z"/><path class="cls-32" d="M131.22,389.09s28,10.35,48.67,9.62L166,395.87l-30.4-6.08Z"/><path class="cls-38" d="M245.38,247.14s15,25.9,1.3,28.64c0,0-9.51.92-2.55-5.05,0,0,6.8-13.6-4.81-27.69a8.17,8.17,0,0,1,6.05,4.11Z"/><path class="cls-38" d="M225.06,276.17s-27.36-6.21-38.8,0c0,0-4.81,2.58-5,0,0,0,9-12.86,43.78-3.91S225.06,276.17,225.06,276.17Z"/><path class="cls-39" d="M190.72,286.6s56.93,8.35,62.8-4C253.52,282.59,255.05,302.22,190.72,286.6Z"/><path class="cls-38" d="M112.91,321.23a8.94,8.94,0,0,1,4.44-4.21,206.88,206.88,0,0,1,77.4-17.86s4.2.8-2.46,2.55c-47.61,10.09-65.56,15.83-71.94,19.29-1.13.61-6.68,3.75-7.76,2.49C112.22,323.06,112.43,322.21,112.91,321.23Z"/><path class="cls-38" d="M221.64,304.56s45.85,16.25,51,31c0,0,6,2.13,2.42-5.49C275.09,330.07,259.87,307.51,221.64,304.56Z"/><path class="cls-39" d="M129.34,330.4s41.13-15.55,81.59-16.37c0,0,31-.45,64.15,34.85l-2,1.57S253,324,210.27,320.29a156.27,156.27,0,0,0-52.53,6.37S141.5,330.56,129.34,330.4Z"/><path class="cls-38" d="M110.15,346.17s-9.56,11.09-38.28,0c0,0,26.14,5.44,36.19-4S110.15,346.17,110.15,346.17Z"/><path class="cls-38" d="M217.49,342.18s-31,21.11-69.87,10c0,0-7.74-3.17,6.41-1.84,0,0,35.2,3.55,60.12-9.64a17.22,17.22,0,0,1,9.1-2.09,6.79,6.79,0,0,1,1.31.18C226.34,339.27,218.69,341.42,217.49,342.18Z"/><path class="cls-38" d="M233,340.38s9.4,4.81,9.89,8.21c0,0,.72,3,3.82-1.61C246.68,347,243.31,340.56,233,340.38Z"/><path class="cls-39" d="M54.63,358.37c2.52-1.3,14.45-7.1,27.66-2.34a32.42,32.42,0,0,1,11.9,7.63s-9.18-.91-15.43-6.51C78.76,357.15,70.91,351.42,54.63,358.37Z"/><path class="cls-39" d="M140.42,358.75s50.13,13.27,79.17-2.24C219.58,356.51,179.48,380.59,140.42,358.75Z"/><path class="cls-38" d="M74.41,322.69A49.22,49.22,0,0,0,54.65,310.2a1.87,1.87,0,0,0-2.35,2.91A45.07,45.07,0,0,1,70,324.24c.86,2,2.9,2.65,3.87,2.06S75.08,324.23,74.41,322.69Z"/><path class="cls-38" d="M46.8,287.2a41.1,41.1,0,0,0-6.74,19.72A12.68,12.68,0,0,1,38,300.48C37.85,295.22,41.32,290.13,46.8,287.2Z"/><path class="cls-39" d="M39.43,311.47s10.19,18.41,27.8,20.26C67.23,331.73,43.43,331.31,39.43,311.47Z"/><path class="cls-38" d="M61.14,259.79s-.33,14,6.8,21.14c.87.87,3,2.91,2.71,3.37s-2.65-.36-4.22-2a6.81,6.81,0,0,1-1-1.27,21.42,21.42,0,0,1-4.23-7.09A22.33,22.33,0,0,1,61.14,259.79Z"/><path class="cls-38" d="M77.59,288.64c6.06,2.34,14.36,6,17.05,9.87.19.26,1.35,1.92,1.08,2.18s-3.56-2.18-3.57-2.18h0a51.78,51.78,0,0,0-9.09-5.11c-3.5-1.52-7-2.53-6.86-3.67C76.25,289.21,77,288.85,77.59,288.64Z"/><path class="cls-39" d="M57.33,275.9A64.11,64.11,0,0,0,81.1,301.57S61.51,295.49,57.33,275.9Z"/><path class="cls-40" d="M200.6,242.37A96,96,0,0,1,205.24,254c.85,2.61,1.53,5.11,2.09,7.47a9.46,9.46,0,0,0,5.6,6.62c1.65.66,2.3.35,2.56.15,1.75-1.31-.37-7.4-2.53-11.24-.55-1-1.46-2.44-6.42-8.08C204.13,246.19,202.08,244,200.6,242.37Z"/><path class="cls-40" d="M211.8,227.53c-.46.61,4.33,5.39,9.45,8.79,2.88,1.91,2.78,1.34,4.23,2.49,5.13,4.05,3.8,9.18,8.69,18.63.62,1.19,4.26,8.13,5.85,7.6,1.08-.36.77-4.25.33-7.52a24.59,24.59,0,0,0-4.91-11.37C227.13,234.71,212.52,226.56,211.8,227.53Z"/><path class="cls-40" d="M155.67,283.49c3.73,3.42,5.59,7.62,4.4,10.85a5.94,5.94,0,0,1-1.19,1.95c-1,1.73-1.09,3.52-.24,4.41,1.08,1.13,3.25.44,3.43.38,3.49-1.14,6.87-7.42,4.53-12.43C164.87,284.94,160.39,282.73,155.67,283.49Z"/><path class="cls-40" d="M155.25,283.53a34.28,34.28,0,0,0,6.15-4.9c9.66-9.71,10.72-22.61,10.86-27.65,1.18,4.15,4.13,16,.78,25.81-1.39,4.08-3.19,5.82-4.32,6.69-3.72,2.9-8.24,2.61-9.84,2.44Z"/><path class="cls-40" d="M124.06,289.05c3.37-.62,4.4-1.75,4.73-2.65,1-2.74-3.74-5.14-4.94-10.72-.72-3.33.21-6,1.52-9.76a34.52,34.52,0,0,1,8.82-13.52,52,52,0,0,0-8.86,7.23,37.91,37.91,0,0,0-7.75,10.59c-3.49,7.2-2.66,14.32,1.18,17.26A8.37,8.37,0,0,0,124.06,289.05Z"/><path class="cls-40" d="M109.34,250.31c-3,1.06-23.31,8.3-23.3,16.58,0,.61,0,4.18,2.14,5.38,1.67.94,3.94,0,5.32-.49a13.6,13.6,0,0,0,4.2-2.68C100.6,266.37,105,259.64,109.34,250.31Z"/><path class="cls-40" d="M65.87,261.83a24.34,24.34,0,0,1,26-21.62,44.64,44.64,0,0,0-10.78,9.45c-2,2.41-3.44,4.26-4.15,7.13-.44,1.79-.21,2.45-.91,5.06a15.33,15.33,0,0,1-2.48,5.69c-.83,1.1-2.56,3.39-4.16,3.18C67.58,270.48,66.07,266.89,65.87,261.83Z"/><path class="cls-40" d="M123.79,214.57a165,165,0,0,1,71.12,7.3c1-4,.42-6.8-.64-8.78C185.44,196.64,128,213.31,123.79,214.57Z"/><ellipse class="cls-41" cx="123.89" cy="284.42" rx="3.49" ry="4.54" transform="translate(-93.23 62.84) rotate(-20.88)"/><ellipse class="cls-41" cx="92.44" cy="267.46" rx="5.04" ry="3.48" transform="translate(-182.32 199.75) rotate(-57.09)"/><ellipse class="cls-41" cx="72.02" cy="264.3" rx="4.61" ry="2.1" transform="translate(-192.89 194.52) rotate(-60)"/><ellipse class="cls-41" cx="238.5" cy="259.82" rx="2.06" ry="4.37" transform="translate(-54.3 63.21) rotate(-13.57)"/><ellipse class="cls-41" cx="212.93" cy="264.3" rx="2.51" ry="3.73" transform="translate(-56.07 57.34) rotate(-13.57)"/><ellipse class="cls-41" cx="162.11" cy="297.29" rx="3.72" ry="2.6" transform="translate(-175.55 271.86) rotate(-57.09)"/><path class="cls-32" d="M60.22,309.2s-1.39-16.64.89-19.71A20.19,20.19,0,0,1,56.33,279l-1.16,13.89,4,15.89Z"/></svg>