<svg xmlns="http://www.w3.org/2000/svg" xmlns:xlink="http://www.w3.org/1999/xlink" viewBox="0 0 430 677.89"><defs><style>.cls-1{fill:none;}.cls-2{isolation:isolate;}.cls-3{fill:#f9a21b;}.cls-4{fill:#ec9322;}.cls-5{fill:#eacedd;}.cls-6{fill:#8e5d76;}.cls-7{fill:#fad8e7;}.cls-8{fill:#eed9c2;}.cls-9{fill:#f6c372;}.cls-10{fill:#a4855d;}.cls-11{fill:#fff;}.cls-12{fill:#b59069;}.cls-13{fill:#c6a56c;}.cls-14{fill:#f8e5ef;}.cls-15{fill:#b69565;}.cls-16{fill:#f2b399;}.cls-17{fill:#f8f7f6;}.cls-18{fill:#cde9ed;}.cls-19{fill:#521954;}.cls-20{fill:#f2f3f3;}.cls-21{fill:#efe3e8;}.cls-22{fill:#fbeef4;}.cls-23{fill:#6e475c;}.cls-24{fill:#ed6544;}.cls-25{fill:#f08162;}.cls-26{fill:#d75544;}.cls-27{fill:#f38476;}.cls-28{fill:#ee5b61;}.cls-29{fill:#634355;}.cls-30{fill:#8a513d;}.cls-31{fill:#b06d5c;}.cls-32{fill:#9f6058;}.cls-33{fill:#c6796a;}.cls-34{fill:#ffcd73;}.cls-35{fill:#fdca85;}.cls-36{fill:#ffdaa1;}.cls-37{fill:#ffd68c;}.cls-38{fill:#f6d2e4;}.cls-39{fill:#ce6e58;}.cls-40{fill:#ebb2d1;}.cls-41{fill:#dda2c8;}.cls-42{fill:#f3e3ea;}.cls-43{fill:#f182b3;}.cls-44{fill:#dc7aa9;}.cls-45{fill:#f39cc2;}.cls-46{fill:#ecb4d2;}.cls-47{fill:#eda3c7;}.cls-48{opacity:0.5;mix-blend-mode:multiply;}.cls-49{clip-path:url(#clip-path);}.cls-50{fill:#888;}.cls-51{fill:#ffedbc;}.cls-52{fill:#f8e2b6;}.cls-53{fill:#eddbb7;}</style><clipPath id="clip-path"><rect class="cls-1" x="245.43" y="292.78" width="37.29" height="17.03" transform="translate(-53.3 56.78) rotate(-11.15)"/></clipPath></defs><title>wippo</title><g class="cls-2"><g id="Layer_1" data-name="Layer 1"><path class="cls-3" d="M392.18,448.55c-18.06,0-32.7,12.18-32.7,27.22S374.12,503,392.18,503s32.7-12.19,32.7-27.22-14.64-27.22-32.7-27.22m2,42.59c-9.79,0-17.73-6.61-17.73-14.75s7.94-14.76,17.73-14.76,17.73,6.61,17.73,14.76-7.94,14.75-17.73,14.75"/><path class="cls-4" d="M392.18,448.09,367.6,474.54c-.46-14.57,23.78-26,23.78-26-18.06,0-31.9,11.72-31.9,26.75s13.43,27.22,31.49,27.22C391,502.53,368.05,489.11,367.6,474.54Z"/><path class="cls-5" d="M346.65,545.13c8.67-3.8,20.67-9.07,29.3-21.4,9.31-13.31,12.6-29.75,12.6-29.75a10.47,10.47,0,0,1-1.39-8.2c1.32-4.69,6.26-7.73,10-7.13,4.9.78,7.17,7.55,8.28,10.85,5.26,15.66-2.73,40.33-18.74,57.84-26,28.44-63.84,27.85-72.88,27.71-18.37-.29-39.23-5.6-39.17-9.87,0-1.81,3.8-3.15,16.4-6.38C326.66,549.67,332.57,551.3,346.65,545.13Z"/><path class="cls-6" d="M71.47,419.11S61,478.89,48.82,480.52s-19.15-1.64-23.4-4.25,6.75,32.18,34.65,35.28l22.76-14,13.31-74.39-24.66-4"/><path class="cls-7" d="M6.12,489.45a20.15,20.15,0,0,1,4.78-10.7c7.7-8.43,21.8-6.41,32.89-4.67,10,1.57,27.18,5.82,46.3,19.28L86,529A226.69,226.69,0,0,1,6.12,489.45Z"/><path class="cls-5" d="M42.56,490.95s31,13.49,40.1,21.46h0l-.08,5.32-2.91,9.51s-21-6.84-24.52-9.51h0s-10.77-25.29-12.59-26.79"/><path class="cls-7" d="M299,553.42s66.19-10.12,77.73-35.73,7.86-34.75,15.14-37.67,16.19,73.85-113.23,87.91c-5.48.6,14.29-13.3,14.29-13.3"/><path class="cls-6" d="M308.42,418.6s10.48,59.78,22.65,61.42,19.15-1.64,23.4-4.25-6.75,39.47-34.65,42.57l-25.19-15.24-10.88-80.47,24.66-4"/><path class="cls-8" d="M275.83,427.78s1.91,36.21-6.75,51.87h0"/><path class="cls-9" d="M102.11,429.34a278.79,278.79,0,0,1-28.82-8.69c-19.69-14.07-12-28.13-12-28.13C70.74,390,85,387.69,102,385.63a146.49,146.49,0,0,0,.08,43.7"/><path class="cls-10" d="M104.77,423.94l-.23,0a70.67,70.67,0,0,1-4.67,20.78,71.75,71.75,0,0,1-19,27.19,311.3,311.3,0,0,0-10-53.29s13.24,2.49,33.91,5.34"/><path class="cls-7" d="M299.43,469.28a.09.09,0,0,1,0,0,.42.42,0,0,1,0,.1.86.86,0,0,1,0,.15c-.44,2.62-.88,5.28-1.29,7.94-1.27,8.12-2.4,16.38-3.21,24.26-1.37,13.3-1.82,25.53-.55,34.24l-.12,0c-1.46.33-15.51,3.42-37.53,6.06-33.73,4-86.14,7-140.55-2.86a345.77,345.77,0,0,1-34.75-8.08s2.09-17,.79-42.65c-.24-4.55-.58-9.37-1.06-14.43-.06-.69-.13-1.38-.19-2.09a.18.18,0,0,1,0-.09c.7-.63,22.92-20.81,23.63-48l.23,0c3.08.42,6.35.86,9.75,1.3,3.21.41,12.31,1.55,33.86,3.74,3.73.38,9,.91,15.49,1.54l5,.33c.28,1,4.21,14.64,16.47,18.46,11.68,3.64,26.08-3.15,32.2-17.07l7-.14c3.13-.07,9.08-.21,13.81-.41,15.69-.67,28.52-2.55,30.71-2.86s4.36-.64,6.5-1l.17,0,.15,0s4.92,30.65,23.6,41.5"/><path class="cls-11" d="M116.13,539.23s-23.81-29.54,2.9-75.69c3.78-4.39,9.75-9.8,17.78-10.85,8.36-1.09,13.72,3.22,21.29,6.78,28.91,13.59,65.37,4.47,65.37,4.47s25.1-21.46,38.05-.81,20.65,63.57-4.86,78.95c0,0-109.85,10.89-140.54-2.86"/><path class="cls-12" d="M223.25,430.84c-6.41,14.08-19,22.92-32.59,22.88-14.22,0-27.23-9.77-33.28-24.88a550.2,550.2,0,0,0,65.87,2"/><path class="cls-7" d="M286.51,495.46c5.36-6.52,41.58,13,65.88,31a236.31,236.31,0,0,1,48.84,48.76s-20.33-3.07-34.25,4.11c-4.3,2.22-6.85,5.42-10.45,9.72,0,0-24.6-46-27.31-46.15s-34.71-8.44-34.71-8.44l-1.76-10.66-2.25-5.43-.25-9.74C287.77,504.52,284.32,498.12,286.51,495.46Z"/><path class="cls-3" d="M333,548.17c8,12.17,23.85,41.63,23.85,41.63l2.14-2.52a29.49,29.49,0,0,1,4.25-4.39l.67-.56a21.29,21.29,0,0,1,1.75-1.28s.88-.58,2-1.14a111.51,111.51,0,0,1,13.27-4.64q4.86-.21,9.86-.22h.9c2.74.25,5.59.42,8.55.51l2.92.06q-8.83-9.37-18.25-18.9-12.85-13-25.49-24.91c-7.41.54-18.68,3.67-26.4,16.38"/><path class="cls-3" d="M359.4,531.79s.67-.39,2.69.4l43.21,43a2,2,0,0,1,.4,2.93h0Z"/><path class="cls-3" d="M333.13,547.77s-.43,1.19-.6,1.64,24.27,40.94,24.27,40.94l1.2-1.15Z"/><path class="cls-7" d="M398.67,639.8a36.48,36.48,0,0,0,11.7-6.73,35.35,35.35,0,0,0,8.84-11.38,33.08,33.08,0,0,0,3.18-14.5,35.26,35.26,0,0,0-2.77-12.83,39.66,39.66,0,0,0-5.31-8.88,41.1,41.1,0,0,0-11.17-9.89,28.64,28.64,0,0,0-9.12-4,28.31,28.31,0,0,0-11.33,0,37.94,37.94,0,0,0-11.44,3.8l-.11.09a32.84,32.84,0,0,0-9.62,7.62c-2.13,2.48-4.73,5.42-5.93,9.89a26.91,26.91,0,0,0-.73,5.57c-.1,1.49-.11,2.58,0,8.12.07,3.74.11,5.62.15,6.15a44.28,44.28,0,0,0,1.37,8.5,32.27,32.27,0,0,0,6.76,11.77C372.1,642.69,387.85,643.51,398.67,639.8Z"/><path class="cls-5" d="M290.09,518.4s36.35,20.47,47.47,23.71a22.71,22.71,0,0,0-4.42,5.67l-8.54-5.85-30-6.63s-2-1.52-4.52-16.9"/><path class="cls-5" d="M357.17,589.84c4.06-.43,3.47,31.89,23.58,44.64a36,36,0,0,0,18.34,5.23c-1.59.35-3.83.8-6.53,1.21a60.74,60.74,0,0,1-11.76,1,28.77,28.77,0,0,1-8.62-1.17c-7.79-2.61-11.78-9.75-13.4-12.65-3.41-6.1-3.93-11.6-4.36-16.79C353.7,602.45,354.67,590.1,357.17,589.84Z"/><path class="cls-4" d="M336.07,543.91s22.5,35.59,28.25,36.49c0,0-5.43,4.5-7.47,9.39l-24.32-40.38s.06-1.74,3.54-5.51"/><path class="cls-13" d="M309.7,418.6s-5.66,23.56-10.27,50.68c-18.68-10.84-23.6-41.5-23.6-41.5a162.51,162.51,0,0,0,33.87-9.18"/><path class="cls-5" d="M113.74,473.87s-19.14,35.78,2.39,65.35h0s-16.33-3.62-34-8.08c0,0,1.93-32.28-1.18-59.25,0,0,21.7-20.19,23.86-47.95,0,0,1.5,36.53,9,49.93"/><path class="cls-14" d="M275.83,427.78s.8,41.39-6.94,51.29h0s15.42,47.89-12,63.54h0s16.91-2.16,37.45-6.61h0s-3.59-22.9,5.1-66.72c0,0-18.21-10.05-23.6-41.5"/><path class="cls-15" d="M284.39,426.14s-.71,24.18,15,43.13c0,0-19-12.28-23.6-41.5,0,0,4-.62,8.56-1.64"/><path class="cls-15" d="M284.53,430.31S302,427.12,309.7,418.6a119.77,119.77,0,0,1-25.31,7.55l-3.8,3.33Z"/><path class="cls-15" d="M80.91,471.89s17.24-26.81,17.56-43.49c0,0-21.3-3.62-27.6-9.8,0,0,16.81,5,33.91,5.35,0,0-3.29,29.58-23.86,47.95"/><path class="cls-10" d="M190.66,453.72s-21.1-4.49-24.06-20.07c0,0,36.09,4.08,56.65-2.81,0,0-43.41,2-65.87-2,0,0,7.66,23.63,33.28,24.88"/><path class="cls-16" d="M146,517.08A44.92,44.92,0,0,0,162.55,533c9.82,5.31,19.06,5.19,29.35,5.06,8.45-.11,15.87-.21,24.58-4a50.1,50.1,0,0,0,20.62-17l-16-7.45s-27.65,13.66-60.74.91L146,517.08"/><path class="cls-17" d="M160.33,510.43v9.72l3-2s16.7,5.85,50.1,0l3.95,2.6,5.66-10-2-1.18s-30.08,13.36-60.74.91"/><path class="cls-13" d="M234.16,512.62c5.52,1.92,7.55,2,8.66,1.92,6.17-.23,10.12-4.06,10.37-3.68s-3.36,4.24-8.86,5.7a18.19,18.19,0,0,1-7.22.39l-16-7.45c-32.77,13.66-60.74.91-60.74.91-.66.76-7.65,8.53-18.37,7.44-8.7-.88-14.76-8-14.63-8.18s3.79,3.9,9.36,5.36c8.84,2.32,17.81-3,23.63-7.59a100.34,100.34,0,0,0,18.13,3.76,103.27,103.27,0,0,0,42.8-4.36,84.47,84.47,0,0,0,12.9,5.77"/><path class="cls-18" d="M240.41,454.25c-9,2.5-24.5,10.69-23.88,23.35.54,11,13.08,19.73,23.79,20.27,19.7,1,37-25.4,31.59-36.93-3.94-8.37-20.29-9.81-31.5-6.68"/><path class="cls-19" d="M226.37,476.43c0,11.6,6.29,21,14,21s14-9.4,14-21-6.29-21-14-21-14,9.4-14,21"/><path class="cls-20" d="M239,480.41c0,2,4.21,3.63,9.41,3.63s9.41-1.63,9.41-3.63-4.21-3.63-9.41-3.63S239,478.4,239,480.41"/><path class="cls-11" d="M238.69,479.07c0,4.17,4.34,7.55,9.7,7.55s9.7-3.38,9.7-7.55-4.34-7.55-9.7-7.55-9.7,3.38-9.7,7.55"/><path class="cls-18" d="M144.38,452.81c9,2.5,24.5,10.69,23.88,23.35-.54,11-13.08,19.73-23.8,20.27-19.7,1-37-25.4-31.59-36.93,3.94-8.37,20.29-9.81,31.5-6.68"/><path class="cls-19" d="M158.42,475c0,11.6-6.29,21-14,21s-14-9.4-14-21,6.29-21,14-21,14,9.4,14,21"/><path class="cls-20" d="M145.82,479c0,2-4.21,3.63-9.41,3.63S127,481,127,479s4.21-3.63,9.41-3.63,9.41,1.63,9.41,3.63"/><path class="cls-11" d="M146.1,477.63c0,4.17-4.34,7.55-9.7,7.55s-9.7-3.38-9.7-7.55,4.34-7.55,9.7-7.55,9.7,3.38,9.7,7.55"/><path class="cls-21" d="M113.74,473.87S100.42,523.39,135.43,541c0,0-18.33-2.37-19.89-2.63s-19.34-22.82-1.8-64.53"/><path class="cls-22" d="M269.08,479.65c.94,4.92,4.82,27.93-9.77,48a57.94,57.94,0,0,1-19.53,16.92l9.36-1.22c6.84-.89,10.27-1.34,10.53-1.41,10.8-3.2,13.07-26.74,13.44-30.65a73.93,73.93,0,0,0-4-31.69"/><path class="cls-14" d="M83.69,624.3v14S61,650,62.67,654,81,658.5,120,657.28c0,0,3.76,2.88,2.85-44.18L83.69,624.3"/><path class="cls-5" d="M114.56,622.78s12.07,39.77-33,35c0,0,31.5,2.22,38.45-.51,0,0,4.73-8.54,2.27-36h0l-7.7,1.51"/><path class="cls-14" d="M295.16,628.11v14s22.64,11.74,21,15.79-18.3,4.45-57.32,3.24c0,0-3.76,2.88-2.85-44.18l39.14,11.19"/><path class="cls-5" d="M264.29,626.59s-12.07,39.77,33,35c0,0-31.5,2.23-38.45-.51,0,0-4.73-8.54-2.27-36h0l7.7,1.51"/><path class="cls-6" d="M57.57,586.07S49,613.73,73.29,622.63s53.94,4.86,61.58,2c0,0,21.1-1.21,48.43-1.21s53.44-1.21,66.49,0c0,0,40.68,11.23,56.47.91s24.74-18,12.67-38.28H57.57"/><path class="cls-23" d="M57.57,586.07s-20.21,55.18,77.31,38.58l18.2-.75,7.26-9-5.67-10.12L57.57,586.07"/><path class="cls-24" d="M297.31,547.54s13.21,24.9,31.83,31.78c0,0-47.42,38.46-136.05,32.79,0,0-80.93,6.44-146.51-32,0,0,28.6-18.68,34.34-38.08h0s81.75,24.33,216.4,5.51"/><path class="cls-25" d="M329.13,579.32s-47.42,38.45-136,32.79c0,0-80.93,6.44-146.51-32,0,0,3-2,7.26-5.28,1.53.74,140.09,66.8,266.84,0a38,38,0,0,0,8.45,4.49"/><path class="cls-26" d="M125.85,545.71s-3.25,27.17-40.65,41.12c0,0-9.92-2.85-10.84-2.67,0,0,18-19.14,21.91-40.8h0s25.45,2.35,29.58,2.35h0"/><path class="cls-26" d="M80.91,586.07s-7.67-7,2-12.84l-19.25,5.83Z"/><path class="cls-27" d="M152.84,611.35s-.61,28.79,4.76,31.22,42.4,7.89,62.44,0c0,0,5.77-5.76,0-30.06Z"/><path class="cls-28" d="M238.86,611.35s1.52,14.52-3,15.73-13.39,0-13.39,0L220,612.52Z"/><path class="cls-29" d="M152.83,611.5s-64.39,16.58-93.32,0c0,0,6,15,39.68,16.27,33.87,1.25,53.88-3.72,53.88-3.72Z"/><path class="cls-30" d="M80.15,531.45c70,15.79,144.12,20.65,214.58,4.47l2.58,11.61s-144.69,23.39-217.63-5.19l.47-10.89"/><path class="cls-31" d="M104,664.52s-2.39-9.11,11.77-16.66c0,0,18.64-5,26.54-3.78-.84-8,5-26.33,5-26.33,8.21-13.79,17.19-11,17.19-11,3,.58,4,7.18,4,7.52,7.47-12.21,4.7-34.43,4.7-34.43-14.87-8.75-15.83-16.6-15.11-20.08s7.32-5.06,8.92-5,4.19,2.49,4.19,2.49c0-17.69-21-31.95-21-31.95-31.3,6.57-31.29,3.75-32.38.24S129.4,514,129.4,514c-6.57-4.06-43.1-.38-43.1-.38l-5.65,5.39-1.92,15L56.42,555.31l-21,20-15,1.21L14.71,582S9.33,618.28,13.07,625c0,0,8.58-12.22,12-11s6.26,1.38-1.76,32.34c0,0,13.26,21.67,30.92,22.51,0,0-2.33-2.68-2.29-4.3s1.91-8.13,5.43-8.68,11.31.77,19.35,16c0,0,22.07,3.81,34.61-3.08-.34-.07-6.88-1.4-7.33-4.38m-49.62-35c-15.63-16.38-11.25-45.92,9.78-66s52.05-24.29,67.68-7.91,11.25,45.92-9.79,66l-.85.8-.45.44c-21,20.07-50.75,23.05-66.38,6.68"/><path class="cls-32" d="M92.78,539.2s65.52-10.62,45.69,57.39c0,0,17.17-57.24-42.42-50.07h0l-3.27-7.31"/><path class="cls-32" d="M46.37,616.43a36,36,0,0,0,10.76,16.18c10.8,9,27,10.44,42.07,4.36-17.88,8.53-38.09,5.78-49.65-6.23-15.64-16.25-11.41-45.25-5.87-46.87,1.63-.48,3.66,1.33,5.35,3.32C47.7,589.77,41.7,602.07,46.37,616.43Z"/><path class="cls-33" d="M158.42,564.34s2,14.75,9.86,19.45c0,0,.26,12.83,0,19.09,0,0-27.82-9.12-28.21,36.42,0,0-56.91,6.27-37.55,28.94H79.67s-8.6-16.49-22.27-12.3a29.34,29.34,0,0,1,19.35,16,53.29,53.29,0,0,0,27-.25,49.93,49.93,0,0,0,7.62-2.83c-5-1.2-6.23-3.75-6.48-4.3-2-4.34,1.79-12,10.92-16.74,0,0,21.32-4.87,26.54-3.78,0,0,2.19-18.54,5-26.33,0,0,6.27-11,14.27-11.34,0,0,5.93-1,7,7.89,0,0,7.46-9.35,4.7-34.43C173.31,579.87,160.76,573.58,158.42,564.34Z"/><path class="cls-9" d="M73.29,420.65s121,46.42,232.08,0c0,0,15.47-4.22,16.88-28.13s-207.47-14.07-260.92,0c0,0-7.74,14.07,12,28.13"/><path class="cls-34" d="M322.25,392.51c-1.41,23.91-16.88,28.13-16.88,28.13a251.81,251.81,0,0,1-24.78,8.83c1.67-14.37,2.81-32.8.87-49.81,24.85,2,41.18,6.09,40.79,12.84"/><path class="cls-35" d="M280.59,429.48A268.79,268.79,0,0,1,249,436.86c2.8-15.51,6-38.44,4.88-58.58,9.93.25,19.23.72,27.56,1.39,1.94,17,.8,35.43-.87,49.81"/><path class="cls-36" d="M249,436.86a303.48,303.48,0,0,1-37.2,4c3.36-17.12,6.82-42.27,3.71-62.69,13.36-.24,26.34-.22,38.37.07,1.08,20.14-2.08,43.07-4.88,58.58"/><path class="cls-37" d="M211.82,440.9a351.47,351.47,0,0,1-41.66-.55c-3.1-16.18-6-39.45-3.07-60.29,16.1-.93,32.55-1.56,48.44-1.86,3.11,20.42-.35,45.57-3.71,62.69"/><path class="cls-35" d="M170.16,440.35c-13.21-1-25.58-2.55-36.77-4.43-3.09-14.45-5.85-34.36-3.31-53.18,11.82-1,24.31-1.94,37-2.67-3,20.83,0,44.11,3.07,60.29"/><path class="cls-34" d="M133.39,435.92c-11.9-2-22.46-4.35-31.28-6.58a146.54,146.54,0,0,1-.09-43.7c8.71-1,18.15-2,28.06-2.9-2.55,18.82.21,38.74,3.31,53.18"/><path class="cls-38" d="M321.16,351.13a62.63,62.63,0,0,0-12.27-33.38c7.55-33.48-24.12-44.8-24.12-44.8,4.25-14.75-.51-28.25-9.14-39.7a46.76,46.76,0,0,0-7.7-5.79c-6.28-3.69-14.43-4.19-21.52-5.28C235,220.43,218.61,219,210,209.85c-15.87-1.43-31.74-3-47.62-4.22-16.52,7.13-31.33,12.78-31.33,12.78-29.8,7.92-41.38,51.14-41.38,51.14-23.41,24.21-6.38,46.84-6.38,46.84-5.31,5.32-13.28,15-15.91,28.77A46.3,46.3,0,0,0,66.73,359c1.13,6.78,20.34,22.74,251.73,13.76a60.93,60.93,0,0,0,2.7-21.63"/><path class="cls-39" d="M70.52,357.31s-1.41-32.55,31.23-48.84c0,0-6.05-2-15.62,3.73,0,0-17-29.19,21.29-46.84,0,0-8.33-2-11.08,0,0,0-29,6.9-25.83,40.6,0,0,1.28,7.79,8.53,10.65,0,0-25.44,18.23-15.91,44.92Z"/><path class="cls-40" d="M318.46,372.76a50.56,50.56,0,0,0,0-32.39c-7.54-21.66-27.66-29.54-30.61-30.64a77.43,77.43,0,0,1,17.35,4.17s4.75-28.51-34.62-46.16c0,0,26.6-2.38,41.5,27.83,0,0,4.58,7.29,3.55,21.72a31.18,31.18,0,0,1,9.75,9.09c8.92,13.07,6.76,32.88-4.37,50.94l-2.54-4.56"/><path class="cls-41" d="M70.52,357.31s-2.18-48.55,65.09-49c-31.51-8.46-62,2.93-71.78,23.49C57.5,345.07,62,359,64,365.37l6.54-8.06"/><path class="cls-41" d="M86.13,312.2c-.78-1.63-7.16-15.47-.13-28.81,6.49-12.32,21.69-19,37.11-15.69a34.72,34.72,0,0,0-15.7-4.34C93.81,263,84.49,271,82.23,273c-12.6,11.38-17,26.14-11.87,35.63A19.06,19.06,0,0,0,79,316.62Z"/><path class="cls-42" d="M157.59,279.35s105.77-8.22,126.11,13.19c0,0,17.29-34.81-126.11-13.19"/><path class="cls-42" d="M142.77,321.08c24.52.4,45.47,1.5,61.87,2.62,36.48,2.51,51.76,5.27,61.87,7.43,11.89,2.55,21.65,5.33,28.48,7.46q4.82-6.1,3.55-10.63-6.19-22-155.76-6.89"/><path class="cls-41" d="M87,322.66s-24.7,35.21,55.75,29.47a96.13,96.13,0,0,1-42,10.16s-14.53-9.83-30.21-5c0,0-1.91-19.11,16.5-34.65"/><path class="cls-43" d="M55.24,378.8c-1.34,12,1.86,17.9,4.6,21,7.2,8.16,28.14,27.59,71.35,0,15.47-9.88,36.57-5.66,36.57-5.66s42.2,29.07,88.61,5.63c0,0,17.82-10.78,30.48-4.22,0,0,12.76,13.3,33.57,7.59,0,0,8.62-25.41-6.85-34.78s-28.13-27.19-65.64-18.29-57.67,14.53-77.36,8-32.8-16.72-59.08,6.56c-20.13-11.64-40.93-10.94-50.4-.47-1.92,2.12-5.11,6.56-5.86,14.66"/><path class="cls-44" d="M90.09,252.73c-5.37,2.35-7.64,7.25-6.38,10.32,1.16,2.82,5.37,4.3,8.52,3.42,4.08-1.14,4.2-5.62,9.18-13.44,4-6.36,11.41-15.17,15-13.52,1.25.58,2.16,2.11,2.48,5-5.83,15-14.17,40.39-11,58.5.48,2.76,1.49,8.25,4.4,9,4.69,1.13,11.2-10.92,13-14.29a42.43,42.43,0,0,1-2.64-12.28c-1.09-17.83,9.45-36.9,17-36.32,1.51.12,3.94,1.09,6.66,6.35l11.07,11.3c1.66-14.82,10.54-25.58,18.67-26.11,9.67-.63,23,12.88,21.86,33.55l15.23-25.74s17.59-13.8,24.75,1.12c-.16.57-2.43,9.08,3,14.76a13.37,13.37,0,0,0,6.15,3.57l1.69-35.53c.61-2.25.06-2.74,3.56-3.29,2.2-.34,5,1.44,7.08,2.61,17.32,9.93,23.3,29.27,25.37,38l7-2.54L289.2,250,279.35,234l-15.24-10.31-23.68-1.88-123.31-1.17L98.84,232.4l-5.39,12.89-3.36,7.44"/><path class="cls-43" d="M83.94,250.29s-1.76,10.08,1.76,10.32,7.74-5.74,9.14-13.13,14.17-22.06,21-19.47,4.45,14.55,0,17.71-17.11,10.9-17.46,23.21,6.16,28.83,3.43,33.05-4.3,14.77,0,14.77,22.79-6.33,18.29-22.5S106.1,258,130,248.89c6.71-2.57,10.54-2.28,12.61-.49,4.21,3.64-4.48,13.2,0,20.53,1.58,2.56,5,5.32,8.6,4.59,2.87-.58,5.2-3.29,6.07-6.83-.4-2.18-5.29-29.85,5.33-35a9.61,9.61,0,0,1,4.61-.75c12.72.2,21.61,15.24,23,17.67-.64,5.13-4.29,37.36,11.46,47,3.1,1.91,12.44,6.46,15.52,2.7,1.25-1.53,1.86-3.78,1.36-6.92-2.11-13-16.88-15.12-16.17-21.8s12.66-38,26-35.52,11.6,21.45,12,28.48,17.93,8.44,18.29-3.87-17.93-21.61-9.49-31,42.55,18.72,35.52,41.93c0,0,4.34,3.65,7.17,2.15,2-1.05,2.23-4.09,2.33-5.32.41-5.2-2.93-25-24.54-40.61C244,207.28,216.27,211.58,215.61,203c-.47-6.22,13-17.61,15.67-18.79,25.32-11.25-133.62,1.41-147.34,66.11"/><path class="cls-45" d="M145.12,258c-2.31,6-.16,11.13,2.53,11.93,2.06.62,4.94-1.14,7-4,0,0-2.73-16.71,1.12-28.13q.18-.51.37-1a5.27,5.27,0,0,0,.39-2.84c-.52-.22-6.39,12.73-11.41,24"/><path class="cls-45" d="M211.86,296.75a25.5,25.5,0,0,1-6.29-3.34,27.47,27.47,0,0,1-9.82-14.07,40,40,0,0,1-.4-9.92,41.66,41.66,0,0,1,7.29-20s-6.32,18.1-2.23,26.9c7.59,4.82,18.54,12.62,17,17.23-.42,1.23-1.81,2.48-5.51,3.21"/><path class="cls-45" d="M250.56,264.51s-7.3,5.56-8.61-30.51c0,0,23,29.48,8.61,30.51"/><path class="cls-45" d="M107.42,308.49a23.73,23.73,0,0,1-1.32-4.77,24.31,24.31,0,0,1,.58-10.45,91.31,91.31,0,0,0,0-9.59,91.61,91.61,0,0,0-1.89-14.26s-3.36-10.81,12.13-17.85c0,0-13.06,11,0,43.49,0,0-1.34,12.15-9.49,13.43"/><path class="cls-45" d="M88.65,254.47A28.52,28.52,0,0,1,90,241.95c4.37-12.5,16.31-17.41,18.46-18.25a81.44,81.44,0,0,0-17.33,24.55c-1,2.12-1.79,4.2-2.51,6.22"/><path class="cls-46" d="M115.23,298.7c-.82,2.78-3,4.56-5,4s-2.83-3.28-2-6.05,3-4.56,5-4,2.83,3.28,2,6.05"/><path class="cls-46" d="M153.33,262.92a3.88,3.88,0,1,1-4.7-2.82,3.88,3.88,0,0,1,4.7,2.82"/><path class="cls-46" d="M216,293.68c-1.07,1.39-4.09.86-6.75-1.18s-3.94-4.83-2.87-6.22,4.09-.86,6.75,1.18,3.94,4.83,2.87,6.22"/><path class="cls-46" d="M253.87,257.89c.54,2.31-.36,4.49-2,4.88s-3.41-1.18-3.95-3.49.36-4.5,2-4.88,3.41,1.18,3.95,3.5"/><path class="cls-45" d="M130.57,209.71s46.35-10.39,74.69-4.08c0,0,21.45-27.5-74.69,4.08"/><path class="cls-47" d="M320.57,403.75l-.63.21.61-1.57c-.57.28-19.31,9.21-43.22-9.92,0,0-7.7-3.15-25.61,8.6s-47.35,14.67-83.43-5.16c0,0-15.34-10.42-37.1,2.94-21.19,13-33.68,8.88-34.31,8.66l7.12,4.66a86.5,86.5,0,0,1-13.61,1.25c-23.23.41-28-15.69-28-15.69-2.55-18.31,1.24-25,4.1-27.77,5.81-5.67,14.18-1.57,36.46,1.17,10.17,1.24,18.65,1.65,24.58,1.79a62,62,0,0,1,32.06-1.32c8.9,2.09,14.48,5.66,18.29,7.63,5.48,2.82,41.35,13.69,69-1.6s48.18-17.32,63.91-7.25S320.57,403.75,320.57,403.75Z"/><path class="cls-40" d="M64.63,402.76a26.52,26.52,0,0,1-4.52-6.66c-6.17-12.93-.81-27.75.18-30.38a29.44,29.44,0,0,1,12.31-11c14.49-6.48,27.91,4.86,29.1,5.89a55.94,55.94,0,0,0,12.21-1.15c10.66-2.2,17-9.18,21.43-11.28,13-6.1,25.3,4,37.05,7.78,28.94,9.33,43.75-1.33,75.86-10.91,16.06-4.79,50.92-5.59,76.2,23,0,0,12.53,17.62-3.87,35.74-.21-11.93,2.42-32.38-15.46-35.12s-37.28-.2-51.75,6.85c-22.94,11.17-22.93,9.07-28.75,10.61C209.81,390,187.73,390,156.89,371a60,60,0,0,1-18.39,7l-29.33.14s-28.36-24.15-42.71-6.84c0,0-6.78,14.84-1.83,31.53"/><path class="cls-41" d="M320.55,402.39l-.61,1.57c-3.58,1.09-21.51,5.89-33.76-4.21-13.67-11.28-29.05.8-29.05.8-40.66,29.79-82.35.4-85.77-.4s-12.3-10.07-30.41-2.42c-14.11,6-22.82,11.91-37,14.44l-7.12-4.66c.63.22,13.12,4.36,34.31-8.66,21.76-13.36,37.1-2.94,37.1-2.94,36.08,19.83,65.52,16.91,83.43,5.16s25.61-8.6,25.61-8.6C301.24,411.59,320,402.67,320.55,402.39Z"/><path class="cls-41" d="M64.63,402.76a15.58,15.58,0,0,1-5.34-3.61c-5-5.29-4.57-12.86-4.28-17.5A30.79,30.79,0,0,1,59,367c1.85-3.12,7.83-14.27,19.23-16.2,13.06-2.21,22.37,8.76,23.42,9.75,0,0,19.81-2.3,33.64-12.43-12.19,7.34-18.32,19.28-16.6,24.41s11.33,5.38,13,5.4A28.88,28.88,0,0,1,113.13,379a31.4,31.4,0,0,1-12.23-6.84s-22.55-15.09-34.44-1c0,0-6.56,16.39-1.83,31.53"/><path class="cls-41" d="M100.9,372.21s-37.72,16,3.09,40a45.32,45.32,0,0,1-26.75-.24c-1.06-.19-12.73-2.54-17.61-13.56a23.92,23.92,0,0,1-.49-17.44s6.34-33.63,41.76-8.71"/><g class="cls-48"><g class="cls-49"><path class="cls-50" d="M283.55,304.21c-.46,3.1-9.56,4.3-20.32,2.69s-19.1-5.43-18.64-8.53,9.56-4.3,20.32-2.69,19.1,5.43,18.63,8.53"/></g></g><path class="cls-51" d="M262,265.23l22.9-81.65,19.76,5.4L274.44,302.27A20.12,20.12,0,0,1,254,298.38Z"/><path class="cls-52" d="M262,265.23l22.9-81.65,6,1.63s-29,117.42-33.38,115.64c-2.15-.88-1.71-.91-3.5-2.48Z"/><path class="cls-53" d="M304.68,188.8c-.5,2-5.36,2.52-10.85,1.14s-9.53-4.11-9-6.11,5.36-2.52,10.85-1.15,9.53,4.11,9,6.11"/><path class="cls-7" d="M39.69,488.7a28.62,28.62,0,0,0-12.54-4.29c-7.35-.93-14.46.52-20,5,3.16,18.28,11.59,54.86,13.31,60.08,0,0,8.62-18.12,22.44-24.67,4.27-2,8.41-2,14.06-2.18C56.94,522.68,46.85,503.52,39.69,488.7Z"/><path class="cls-3" d="M40.17,489c-3.74-2.73-8.44-4.06-13-4.63-7.49-.94-14.75.58-20.35,5.31q3.12,17.17,7,35.15,2.9,13.51,6,26.45.78-1.16,1.56-2.36,2.34-3.62,4.29-7.13l.09-.11.41-.6q2.77-4,5.65-7.71a99,99,0,0,1,11.3-7.63,21.38,21.38,0,0,1,2.06-.85,19.91,19.91,0,0,1,2.06-.59l.85-.18a28.9,28.9,0,0,1,6.09-.61l3.33-.11S47.38,504.12,40.17,489Z"/><path class="cls-3" d="M5.6,490.81c0,.14-.08.28-.11.45l12.77,61.56A2.24,2.24,0,0,0,20.53,555L6.82,489.71Q6.2,490.23,5.6,490.81Z"/><path class="cls-3" d="M42.56,490.95c-.58-.48-1.17-1-1.83-1.5-.29-.23-.6-.43-.91-.65L56.32,524l1.64-.23S48.91,504.31,42.56,490.95Z"/><path class="cls-7" d="M90.64,536.24c11.59,13.46,2.8,35.78-10.17,47.54s-24.53,10-41.81,1.2c-.75-.38-1.33-.72-2-1.13-4-2.48-13.15-9.84-17-32.88l.34-1.11c.17-.55,1.3-2.57,5.36-8.87l.09-.11.4-.58c5.88-8.37,11.46-12.62,16.25-14.77A24.57,24.57,0,0,1,46.38,524l.83-.17a28.21,28.21,0,0,1,6-.55,20.1,20.1,0,0,0,3.26-.09c3.62-.7,18.19-.53,29.56,8.53a35,35,0,0,1,4.66,4.49"/><path class="cls-5" d="M42.14,525.53S94,529.69,92,568.07a33.58,33.58,0,0,0,3.62-11.41A27.49,27.49,0,0,0,94.22,542c-3.33-8-10.26-12-13.76-13.92-6.72-3.79-12.78-4.43-17.32-4.85a53.07,53.07,0,0,0-21,2.27"/><path class="cls-4" d="M42.1,490.57c-.44-.36-.88-.73-1.37-1.11a22.73,22.73,0,0,0-7.55-3.77c5,12,13.87,34.06,12.13,37.78,0,0,6.84-1.48,12.13,0Z"/><path class="cls-9" d="M305.94,418.74c-113.42,39.48-209.88,8.44-235.3-.36,0,0,0,.09,0,.14a293.49,293.49,0,0,0,67.75,20.64,299.1,299.1,0,0,0,51.28,4.55s44.67.14,82.63-11.34c.15,0,2-.61,4.59-1.37s3.29-.94,4.64-1.33c3-.87,5.07-1.61,7.95-2.61,1.95-.68,2.45-.89,7.53-2.77,8.26-3.07,10-3.66,12.59-5.22,2.29-1.37,3.73-3.07,3.51-3.41C312.75,415.11,306.46,418.56,305.94,418.74Z"/></g></g></svg>