<svg id="Layer_1" data-name="Layer 1" xmlns="http://www.w3.org/2000/svg" xmlns:xlink="http://www.w3.org/1999/xlink" viewBox="0 0 536 677.89"><defs><style>.cls-1{fill:none;}.cls-2{fill:#dd8b66;}.cls-3{clip-path:url(#clip-path);}.cls-4{fill:#97bc3d;}.cls-5{fill:#bad552;}.cls-6{fill:#c7dc77;}.cls-7{fill:#63bb46;}.cls-8{fill:#e2cdb3;}.cls-9{fill:#f8e1c1;}.cls-10{fill:#755f51;}.cls-11{fill:#6a503d;}.cls-12{fill:#ddd5cf;}.cls-13{fill:#c6bdb8;}.cls-14{fill:#8d6954;}.cls-15{fill:#ffe9c6;}.cls-16{fill:#e4c094;}.cls-17{fill:#a57459;}.cls-18{fill:#d6d8ec;}.cls-19{fill:#46270f;}.cls-20{fill:#fff;}.cls-21{fill:#d1ac8f;}.cls-22{fill:#e0b277;}.cls-23{fill:#f6c372;}.cls-24{fill:#ffcd73;}.cls-25{fill:#fdca85;}.cls-26{fill:#ffdaa1;}.cls-27{fill:#ffd68c;}.cls-28{fill:#fbd350;}.cls-29{fill:#ce6e58;}.cls-30{fill:#fcdc7f;}.cls-31{fill:#f6c23f;}.cls-32{fill:#f182b3;}.cls-33{fill:#f8c45b;}.cls-34{fill:#f7951d;}.cls-35{fill:#f3a557;}.cls-36{fill:#f1b680;}.cls-37{fill:#90c968;}.cls-38{fill:#7caf49;}.cls-39{fill:#a3452e;}.cls-40{fill:#b1644a;}.cls-41{fill:#f09b6d;}.cls-42{fill:#e56025;}.cls-43{fill:#de8d66;}.cls-44{fill:#50341f;}.cls-45{fill:#709840;}.cls-46{fill:#8ca83d;}.cls-47{fill:#b2c36c;}</style><clipPath id="clip-path"><rect class="cls-1" x="-123.15" y="-113.61" width="733.19" height="1036.93"/></clipPath></defs><title>wippo</title><path class="cls-2" d="M128.25,419.24c-1.49.07-3.26,21-7.37,52.17-.8,6.1-2.31,16.42-10.29,22a21.13,21.13,0,0,1-9.93,3.54l19.82,6.5-13.7,4.89,31.72-.46c-.28-5.22-.71-12.8-1.33-22-.53-7.74-.79-11.61-1.23-16.22-.52-5.45-1.12-10.35-3.38-25.79C129.18,420.83,128.66,419.22,128.25,419.24Z"/><g class="cls-3"><path class="cls-4" d="M304.21,230.4a4.78,4.78,0,0,0-1.57,2.66h-29.5a34.52,34.52,0,0,1,9.7-24Z"/><path class="cls-5" d="M303.88,237.32l-20.4,20.4-.59-.6-.58-.61q-.57-.62-1.11-1.26l-.45-.54q-.31-.38-.6-.77l-.45-.61c-.18-.25-.36-.51-.54-.76s-.27-.4-.41-.61l-.51-.81-.24-.4-.27-.46c-.14-.24-.28-.48-.41-.73s-.34-.64-.5-1c-.09-.17-.18-.35-.26-.53-.4-.84-.77-1.69-1.11-2.56l-.21-.55c-.1-.27-.19-.53-.28-.8s-.18-.53-.26-.81-.17-.54-.24-.82-.15-.55-.22-.83-.14-.56-.21-.83q-.19-.84-.35-1.69c-.1-.55-.19-1.11-.26-1.68a35.52,35.52,0,0,1-.28-4.45h29.5a4.85,4.85,0,0,0-.1,1c0,.09,0,.18,0,.27s0,.3,0,.44v0c0,.14.05.29.09.44a4.73,4.73,0,0,0,1.19,2.14"/><path class="cls-6" d="M307.8,198.39v30.88l-.48,0a4.78,4.78,0,0,0-3.11,1.15L282.84,209a34.54,34.54,0,0,1,25-10.64"/><path class="cls-4" d="M332.47,208.73l-21.85,21.85a4.78,4.78,0,0,0-2.82-1.3V198.39a34.55,34.55,0,0,1,24.67,10.34"/><path class="cls-4" d="M307.8,238.77v28.94l-1,0q-.86,0-1.71-.09a34.28,34.28,0,0,1-6.73-1.19l-.81-.24-.43-.14-.47-.15c-.77-.26-1.52-.54-2.26-.85l-.77-.33-.76-.35-.75-.37-.74-.39c-.49-.26-1-.54-1.46-.83l-.65-.41-.77-.5-.59-.41c-.47-.32-.93-.67-1.38-1l-.65-.51-.63-.53-.62-.54-.61-.56-.59-.57,20.4-20.4a4.51,4.51,0,0,0,.71.61,4.17,4.17,0,0,0,.61.36l.21.1.22.09.23.08a4.68,4.68,0,0,0,1,.2l.44,0,.48,0"/><path class="cls-6" d="M331.83,258l-.59.56-.6.54c-.41.35-.83.71-1.25,1l-.54.42-.51.38-.11.08-.8.57-.68.45c-.26.18-.53.34-.79.51l-.37.23c-.38.23-.76.45-1.15.66l-.5.27-.19.1-.35.18c-.36.18-.72.35-1.08.52l-.44.2-.33.15-.43.18-.17.07-.74.3a33.6,33.6,0,0,1-4.43,1.37l-.5.11-.19,0-.56.12c-.71.14-1.42.26-2.15.35l-.49.06c-1,.12-2,.2-3,.22H307.8V238.77l.44-.06.38-.09.27-.08.2-.08.2-.09.2-.09.28-.16.27-.18.12-.09a3.4,3.4,0,0,0,.32-.26,3,3,0,0,0,.3-.29l.15-.16h0Z"/><path class="cls-4" d="M342.46,233.05c0,.6,0,1.19,0,1.78,0,.26,0,.52-.05.78s0,.65-.08,1c-.06.58-.13,1.16-.22,1.73-.15,1-.33,1.9-.56,2.84l-.14.55a34,34,0,0,1-1.27,3.93l-.22.54-.23.54c0,.12-.1.24-.15.35l-.16.35c-.34.75-.71,1.49-1.11,2.21l-.37.65c-.11.2-.23.4-.35.6s-.26.42-.39.63-.27.41-.4.62q-.59.89-1.24,1.75l-.29.38-.44.55-.59.71-.49.57-.32.35-.32.35-.6.62-.61.6-20.88-20.88c.09-.11.18-.22.26-.33l.09-.12c.08-.12.15-.24.22-.37s.09-.16.12-.24a2.76,2.76,0,0,0,.12-.29,2,2,0,0,0,.08-.21,3.44,3.44,0,0,0,.11-.37c0-.09,0-.18.06-.28h0a2.8,2.8,0,0,0,0-.29,2.31,2.31,0,0,0,0-.25s0-.05,0-.08,0-.18,0-.28a4.85,4.85,0,0,0-.1-1Z"/><path class="cls-5" d="M342.46,233.05H312a4.78,4.78,0,0,0-1.37-2.48l21.85-21.85a34.53,34.53,0,0,1,10,24.32"/><path class="cls-7" d="M310.63,230.58a4.77,4.77,0,0,0-2.82-1.3l-.48,0a4.77,4.77,0,0,0-4.67,3.8,4.84,4.84,0,0,0-.1,1c0,.09,0,.18,0,.27s0,.3,0,.44v0c0,.14.05.29.09.44a4.73,4.73,0,0,0,1.19,2.14,4.51,4.51,0,0,0,.71.61,4.17,4.17,0,0,0,.61.36l.21.1.22.09.23.08a4.76,4.76,0,0,0,1,.21l.44,0,.48,0,.44-.06.38-.09.27-.08.2-.08.2-.09.2-.09.28-.16.27-.18.12-.09.32-.26a3.21,3.21,0,0,0,.3-.29l.15-.16h0c.09-.11.18-.22.26-.33l.09-.12c.08-.12.15-.24.22-.37s.09-.16.12-.24l.12-.29a2,2,0,0,0,.08-.21c0-.12.08-.24.11-.37s0-.18.06-.28h0a2.8,2.8,0,0,0,0-.29,2.34,2.34,0,0,0,0-.25s0-.05,0-.08,0-.18,0-.28a4.85,4.85,0,0,0-.1-1,4.78,4.78,0,0,0-1.37-2.48m-3.3,8.07a4.62,4.62,0,1,1,4.62-4.62,4.62,4.62,0,0,1-4.62,4.62"/><path class="cls-7" d="M335.2,206a38.49,38.49,0,1,0,11.11,27.05A38.37,38.37,0,0,0,335.2,206m7.17,29.61c0,.33,0,.65-.08,1-.06.58-.13,1.16-.22,1.73-.15,1-.33,1.9-.56,2.83,0,.18-.09.36-.14.55a33.78,33.78,0,0,1-1.27,3.93l-.22.54-.23.54c0,.12-.1.24-.15.35l-.16.35c-.34.75-.71,1.49-1.11,2.21-.12.22-.24.44-.37.65l-.35.6-.39.63c-.13.21-.27.41-.4.62q-.59.89-1.24,1.75l-.29.38-.44.55-.59.71-.49.56-.32.36-.32.35-.6.62-.61.6-.59.56-.6.54c-.41.35-.83.71-1.25,1l-.54.42-.51.38-.11.08-.8.57-.68.45c-.26.18-.53.34-.79.51l-.37.23c-.38.23-.76.45-1.15.66l-.5.27-.19.1-.35.18c-.36.18-.72.35-1.08.52l-.44.2-.33.15-.43.18-.17.07-.74.3a33.6,33.6,0,0,1-4.43,1.37l-.5.11-.19,0-.56.12c-.71.14-1.42.26-2.15.35l-.49.06c-1,.12-2,.2-3,.22H307.8l-1,0q-.86,0-1.71-.09a34.26,34.26,0,0,1-6.73-1.19l-.81-.24-.43-.14-.47-.15c-.77-.26-1.52-.54-2.26-.85l-.77-.33-.76-.35-.75-.37-.74-.39c-.49-.26-1-.54-1.46-.83l-.65-.41-.77-.5-.59-.41c-.47-.32-.93-.67-1.38-1l-.65-.51-.63-.53-.62-.54-.61-.56-.6-.57-.59-.6c-.2-.2-.39-.4-.58-.61q-.57-.62-1.11-1.26l-.45-.54c-.21-.26-.41-.51-.6-.77l-.45-.61c-.19-.25-.36-.5-.54-.76s-.27-.4-.41-.61l-.51-.81-.24-.4-.27-.46c-.14-.24-.28-.48-.41-.73s-.34-.64-.5-1-.18-.35-.26-.53c-.4-.84-.77-1.69-1.11-2.56l-.21-.55c-.1-.27-.19-.53-.28-.8s-.18-.53-.27-.81-.16-.54-.24-.82-.15-.55-.22-.83-.14-.56-.21-.83q-.19-.84-.35-1.69c-.1-.55-.19-1.11-.26-1.68a35.49,35.49,0,0,1-.28-4.45,34.66,34.66,0,0,1,69.32,0c0,.6,0,1.19,0,1.78,0,.26,0,.52-.05.78"/></g><path class="cls-8" d="M6.41,570.42c-1.33,2.23,41.25,38.52,79.89,39.07a66.44,66.44,0,0,0,28.91-5.41,60.1,60.1,0,0,0,14.25-9,57.4,57.4,0,0,0,9.78-10.84l-.41-16.22a94.23,94.23,0,0,1-38.55,15.46,91.58,91.58,0,0,1-20.13.91A66.84,66.84,0,0,1,29,543.76c-.86,1.46-3.42,5.39-7.6,6-2.71.4-5.25-.73-8.07-2-4.34-1.93-5.25-3.53-6.07-3.06-2,1.14-.1,12.3,5.91,21.34,1.61,2.42,3.4,4.51,2.7,5.58C14.6,573.59,6.94,569.54,6.41,570.42Z"/><path class="cls-9" d="M90.53,503.33a20.28,20.28,0,0,1-6.11-4.55c-2.74-3-3.75-6.1-4.93-9.85-1.65-5.27-7.8-25.18-11.09-26.48-.25-.1-2-.68-2.29-1.95a1.76,1.76,0,0,1,0-.3v-.06l.1-.06h0c2.44-1.45,4.44-5.51,5.88-9.39a72.79,72.79,0,0,0,2.47-8.42A23.84,23.84,0,0,0,70,424.87a31.73,31.73,0,0,0-8.3-7.58l-.19-.13a48.23,48.23,0,0,0-10.37-4.94h0c-1.82-.61-3-.88-3-.88-.79-.05-1.55-.1-2.3-.12s-1.54,0-2.29,0q-1.47,0-2.85.09a40,40,0,0,0-4.51.49c-.34.05-.68.11-1,.18-1,.17-1.88.38-2.74.62a28.65,28.65,0,0,0-6.75,2.7c-.49.27-1,.55-1.41.84A23.09,23.09,0,0,0,16.11,425a17.71,17.71,0,0,0-1.74,4.75,216.43,216.43,0,0,0,4.88,26.46c1.26,5,2.65,9.75,4.11,14.15h0c.48,1.39.94,2.76,1.43,4.09C35,502.92,48,516.61,48,516.61c.87,1.23,15.05,7,30.89,17.4,20.21,13.24,63-1.94,63-1.94,0-.3.7-23.78.7-23.78Z"/><path class="cls-8" d="M147.86,528.54a102.27,102.27,0,0,1-72.15-1.68,50.11,50.11,0,0,1,5.44,11.68l64.06,2Z"/><path class="cls-10" d="M82.86,430.37c-.2-.55-.41-1.1-.65-1.68a74.27,74.27,0,0,0-5.84-11.31c0-.08-.1-.16-.16-.25a56.9,56.9,0,0,0-9.58-11.5s0,0,0,0a48,48,0,0,0-5.37-4.27c-.83-.56-1.65-1.1-2.45-1.56-1.16-.71-2.29-1.3-3.37-1.83a43,43,0,0,0-4.77-2c-.74-.24-1.42-.45-2-.62h0c-.9-.24-1.68-.42-2.28-.53s-1.07-.17-1.3-.2l-.14,0h0l.38,11L46.93,456l1.67,48.64s8.21,12.87,13.13,8.54c1.5-1.33,2.7-4.27,3.25-9.67l0-.3v-.06l2.11-38v-.34h0a.82.82,0,0,1,.14-.08h0a34.34,34.34,0,0,0,9.41-6.19c5.78-5.39,11.14-14.5,6.15-28.19"/><path class="cls-11" d="M79.88,507.88c-.62-2.89-1.18-5-1.3-5.44-2.73-10.38-8-33.24-18.5-84.34h0c-1.26-7.07-2.15-12.91-2.53-16.81a5.54,5.54,0,0,0-2.22-3.78h0c-.78-.29-2-.72-3.42-1.19A49,49,0,0,0,45,394.62a53.62,53.62,0,0,0-8.8-.69,55,55,0,0,0-8.07.35,41.72,41.72,0,0,0-6.63,1.27,39.2,39.2,0,0,0-7.13,2.78,37,37,0,0,1-3.56,2.51,39,39,0,0,1-6.24,3.1C.16,406-1,440.21,24.68,488.31a271.74,271.74,0,0,0,52.23,68.31,41.44,41.44,0,0,0,3.45-8.1,42.42,42.42,0,0,0,1.4-6.34C84,527.28,80.15,509.11,79.88,507.88Z"/><path class="cls-12" d="M326,371c-5-3.91-17.28-8.33-32.45-12.67-8-2.28-16.73-4.55-25.66-6.71a.29.29,0,0,0-.15,0c-4.63-1.11-9.3-2.22-13.91-3.26-30.93-7-59.75-12.32-59.75-12.32,9.28-7.47,31.1-10.88,31.1-10.88,9.7-.38,23.27,1.26,37.88,4.24,1.85.36,3.74.76,5.63,1.18a2.26,2.26,0,0,0,.38.09h.07c4.61,1,9.3,2.19,14,3.45,26.06,7,51.47,17,61.45,26.51a14.1,14.1,0,0,1,4.21,6.12C353.84,385.2,326,371,326,371"/><path class="cls-9" d="M370.25,564.24a61.91,61.91,0,0,0,22.28-6c5.61-1.8,10.47-3.62,14.47-5.23,6.34-2.56,10.52-4.62,14.87-8.08l.24-.19,0,0s0-.08,0-.11v0c-.84-2.71.38-7.06,1.91-10.91a72.9,72.9,0,0,1,3.79-7.91,23.85,23.85,0,0,1,15-9.87,31.78,31.78,0,0,1,11.23-.09l.22,0a48.3,48.3,0,0,1,11,3.26h0c1.76.77,2.8,1.33,2.8,1.33.62.49,1.22,1,1.79,1.45s1.18,1,1.73,1.5q1.1,1,2.07,2a40.16,40.16,0,0,1,3,3.38c.22.27.44.53.63.81.6.77,1.14,1.54,1.62,2.29a28.61,28.61,0,0,1,3.22,6.52c.18.53.35,1.05.49,1.57a23.09,23.09,0,0,1,.12,12,17.71,17.71,0,0,1-1.88,4.7A216.79,216.79,0,0,1,459.63,573c-4.31,2.91-8.49,5.48-12.52,7.78h0c-1.29.72-2.55,1.43-3.8,2.09-26.66,14.33-45.47,15.84-45.47,15.84-16.17,9.61-27.77,9.83-35.62,8-29.7-7-50.15-54.41-50.15-54.41h0a23.14,23.14,0,0,1-4.24-12.61c-.21-13.54,13.41-27.39,34.25-33.31Z"/><path class="cls-8" d="M341.85,525.92c1.89,7.2,4.17,14.81,7,22.74a296,296,0,0,0,14.78,34.86q-2.62-.27-5.28-.58-6.6-.77-12.86-1.75l-12.92-62.78Z"/><path class="cls-10" d="M429.56,511.29c.52-.28,1-.55,1.6-.81a74.16,74.16,0,0,1,11.9-4.51l.29-.08a57,57,0,0,1,14.82-2.15h0a48,48,0,0,1,6.84.41c1,.13,2,.28,2.86.48,1.34.25,2.57.56,3.74.89a42.85,42.85,0,0,1,4.86,1.72c.71.31,1.36.62,1.93.9h0c.83.42,1.53.81,2,1.12s.91.59,1.1.73l.12.09,0,0-7.64,7.94-35,36.35-33.76,35.06s-14.71,4.08-15.47-2.42c-.22-2,.85-5,4-9.37l.18-.24,0,0L418,547.71l.22-.27a0,0,0,0,0,0,0,1,1,0,0,0-.06-.15h0a34.35,34.35,0,0,1-2.86-10.89c-.7-7.87,1.41-18.23,14.27-25.07"/><path class="cls-13" d="M54.11,427.86c1.06-6.57,2.57-12,5.61-22.85,1.41-5,2.7-9.12,3.56-11.75a125.94,125.94,0,0,1,7.6-20.32c.93-2,2.37-4.64,5.23-10,4.73-8.87,6.84-12.36,8.73-15.26,1.35-2.08,2.35-3.5,4-5.77,2.83-4,6.79-9.43,11.89-15.82-4.36,2-8.94,4.36-13.69,7-3.57,2-6.92,4.06-10,6.08-4,6-8.69,15.35-13.18,26.06-.57,1.35-1.14,2.74-1.71,4.14a1.82,1.82,0,0,1-.12.29l0,.05c-1.65,4.22-3,7.81-4,10.53a378.13,378.13,0,0,0-11.76,38.68,47,47,0,0,0-1,10.08c0,3.47.4,5.31,1.15,7,.85,1.91,3,5.47,4.67,5.16S52.75,436.32,54.11,427.86Z"/><path class="cls-12" d="M100.67,326.07s-35.75,58.36-39,104.55A29.81,29.81,0,0,1,51,441.2S65.6,355.16,100.67,326.07Z"/><path class="cls-13" d="M33.69,416.34c1.16-7.22,2.83-13.18,6.16-25.1,1.55-5.54,3-10,3.91-12.9A138.33,138.33,0,0,1,52.1,356c1-2.15,2.6-5.1,5.75-11,5.19-9.74,7.52-13.58,9.59-16.76,1.49-2.29,2.58-3.85,4.34-6.34,3.1-4.4,7.46-10.36,13.06-17.38-4.79,2.23-9.82,4.79-15,7.74-3.92,2.22-7.6,4.46-11,6.68-4.42,6.54-9.55,16.86-14.47,28.62-.62,1.49-1.26,3-1.88,4.55a2,2,0,0,1-.13.32l0,.06c-1.81,4.64-3.3,8.58-4.41,11.57a415.36,415.36,0,0,0-12.92,42.49,51.68,51.68,0,0,0-1.1,11.08c0,3.81.44,5.83,1.27,7.7.93,2.1,3.28,6,5.13,5.67S32.2,425.64,33.69,416.34Z"/><path class="cls-12" d="M84.84,304.53S45.56,368.64,42,419.38A32.75,32.75,0,0,1,30.23,431S46.32,336.48,84.84,304.53Z"/><path class="cls-13" d="M12.49,408.47c1.23-7.65,3-14,6.52-26.59,1.64-5.87,3.14-10.61,4.14-13.67A146.52,146.52,0,0,1,32,344.57c1.09-2.27,2.75-5.4,6.09-11.66,5.5-10.32,8-14.38,10.16-17.76,1.57-2.42,2.74-4.07,4.6-6.71,3.29-4.66,7.9-11,13.84-18.41-5.07,2.36-10.41,5.08-15.93,8.2-4.16,2.35-8.05,4.72-11.69,7.08-4.68,6.93-10.11,17.86-15.33,30.32-.66,1.58-1.33,3.19-2,4.82a2.12,2.12,0,0,1-.14.33l0,.06c-1.92,4.91-3.49,9.09-4.67,12.26a440,440,0,0,0-13.69,45A54.75,54.75,0,0,0,2,409.83c0,4,.46,6.18,1.34,8.15,1,2.22,3.48,6.36,5.43,6S10.91,418.31,12.49,408.47Z"/><path class="cls-12" d="M66.67,290s-41.6,67.91-45.43,121.65a34.71,34.71,0,0,1-5.31,6.84A34.71,34.71,0,0,1,8.82,424S25.86,323.87,66.67,290Z"/><polyline class="cls-8" points="371.38 592.78 383.61 589 365.13 609.01 361.93 597.77 368.98 593 371.38 592.78"/><path class="cls-11" d="M384.6,580.52c2.1-2.08,3.71-3.54,4.06-3.85,8-7.21,24.82-23.49,61.57-60.54h0c4.92-5.24,8.85-9.63,11.3-12.7a5.54,5.54,0,0,1,3.92-2h0c.81.18,2,.46,3.51.87a49.05,49.05,0,0,1,6.7,2.37,53.62,53.62,0,0,1,7.75,4.23,55,55,0,0,1,6.57,4.7,41.71,41.71,0,0,1,4.86,4.69,39.21,39.21,0,0,1,4.46,6.23,37,37,0,0,0,1.61,4,39,39,0,0,0,3.53,6c2.54,4.17-15.13,33.43-62.94,59.68A271.73,271.73,0,0,1,360.47,623a41.45,41.45,0,0,1,1.53-8.67,42.42,42.42,0,0,1,2.29-6.07C370.59,594.55,383.71,581.4,384.6,580.52Z"/><path class="cls-13" d="M449.91,527.57c2.7-6.08,4.4-11.46,7.79-22.2,1.57-5,2.72-9.11,3.44-11.78a125.93,125.93,0,0,0,4.74-21.17c.29-2.15.55-5.18,1.09-11.25.89-10,1-14.09,1-17.55,0-2.48-.06-4.22-.16-7-.18-4.9-.54-11.61-1.32-19.75,2.54,4.08,5.11,8.54,7.62,13.38,1.89,3.64,3.58,7.18,5.09,10.59.12,7.19-1.11,17.6-3.2,29-.26,1.44-.54,2.92-.83,4.4a1.83,1.83,0,0,0-.06.3v.06c-.93,4.44-1.75,8.19-2.39,11a378.11,378.11,0,0,1-11.28,38.82,47,47,0,0,1-4.67,9c-1.91,2.9-3.23,4.23-4.79,5.24-1.75,1.13-5.49,2.95-6.73,1.77S446.43,535.4,449.91,527.57Z"/><path class="cls-12" d="M466.51,416.88s-1.93,68.41-24.42,108.9a29.81,29.81,0,0,0,3.16,14.69S480,460.4,466.51,416.88Z"/><path class="cls-13" d="M473.3,529.08c3-6.68,4.83-12.58,8.55-24.39,1.73-5.49,3-10,3.78-12.94a138.33,138.33,0,0,0,5.21-23.26c.31-2.36.61-5.69,1.2-12.36,1-11,1.12-15.48,1.13-19.28,0-2.73-.06-4.63-.17-7.68-.2-5.38-.59-12.75-1.45-21.69,2.79,4.48,5.61,9.38,8.37,14.7,2.07,4,3.93,7.89,5.59,11.63.13,7.9-1.21,19.34-3.51,31.88-.29,1.59-.59,3.21-.91,4.84a2,2,0,0,0-.06.33v.06c-1,4.87-1.93,9-2.63,12.1A415.37,415.37,0,0,1,486,525.67a51.68,51.68,0,0,1-5.13,9.88c-2.09,3.18-3.55,4.64-5.27,5.75-1.93,1.25-6,3.24-7.39,1.94S469.47,537.68,473.3,529.08Z"/><path class="cls-12" d="M491.54,407.49s-2.12,75.15-26.82,119.62a32.75,32.75,0,0,0,3.48,16.13S506.35,455.29,491.54,407.49Z"/><path class="cls-13" d="M495.36,534.07c3.15-7.08,5.12-13.33,9.06-25.83,1.83-5.81,3.17-10.6,4-13.71a146.53,146.53,0,0,0,5.52-24.63c.33-2.5.65-6,1.27-13.09,1-11.64,1.19-16.4,1.19-20.42,0-2.89-.07-4.91-.18-8.13-.21-5.7-.63-13.51-1.53-23,3,4.75,5.94,9.94,8.86,15.57,2.2,4.24,4.16,8.36,5.93,12.32.14,8.36-1.29,20.48-3.72,33.77-.31,1.68-.63,3.4-1,5.12a2.13,2.13,0,0,0-.07.35v.07c-1.08,5.16-2,9.53-2.78,12.82a440,440,0,0,1-13.12,45.17,54.74,54.74,0,0,1-5.43,10.46c-2.22,3.37-3.76,4.92-5.58,6.09-2,1.32-6.39,3.43-7.83,2.06S491.31,543.18,495.36,534.07Z"/><path class="cls-12" d="M514.68,405.27S512.43,484.88,486.27,532A34.69,34.69,0,0,0,490,549.07S530.37,455.91,514.68,405.27Z"/><path class="cls-14" d="M59.19,434.13s26,75.89,23.25,104.45c0,0,5.11-47.43-20.81-108Z"/><polygon class="cls-14" points="61.94 427.07 63.74 435.68 60.64 432.05 61.63 430.62 61.94 427.07"/><path class="cls-14" d="M442.84,523.57s-66.88,57.56-77.22,82c0,0,62.89-67.7,76.77-74.14l-.3-5.62Z"/><g id="ขาอีกข้าง"><path class="cls-15" d="M335.89,639.14v13.7S356,667.41,354.76,670.7s-14,8.21-54.19,2.67V639.14s11.11,4.73,35.32,0"/><path class="cls-8" d="M307.9,643.82s-3.12,20,0,24.7c0,0,11.84,5.89,30.47,7.15,0,0-32-1-37.81-2.31V642.88l7.33.94"/></g><path class="cls-9" d="M144.17,639.14v13.7s-20.11,14.57-18.88,17.86,14,8.21,54.19,2.67V639.14s-11.11,4.73-35.32,0"/><path class="cls-8" d="M172.15,643.82s3.12,20,0,24.7c0,0-11.84,5.89-30.47,7.15,0,0,32-1,37.81-2.31V642.88l-7.33.94"/><path class="cls-16" d="M361.93,419.12s0,0,0,0a341.73,341.73,0,0,0-17.24,65.33c-.81,5.11-1.52,10.37-2.06,15.73-.21,2-.41,4.1-.55,6.17,0,.39-.06.79-.09,1.18-.39,5.29-.6,10.67-.6,16v.5c0,2.54.06,5.07.17,7.6,0,.32,0,.64,0,.95s0,.67,0,1,0,.68,0,1c.07,1.27.16,2.54.27,3.81,0,.36,0,.62.06.79,0,.53.09,1.06.14,1.59,0,.11,0,.2,0,.27l0,.36-.07,0h-.07l-.43.12-.6.16-.16,0-1,.26-.84.21-1.65.39-1.91.44-1.22.28-1.61.35c-8.08,1.75-20.91,4.19-37.1,6.06-1.69.2-3.4.39-5.16.57-.33,0-.67.09-1,.11-.8.09-1.59.17-2.39.23s-1.82.19-2.73.26l-.54,0-2.19.19c-1.22.11-2.45.21-3.68.29-2,.15-3.94.28-5.91.4-8.52.53-17.6.82-27.08.82-30.82,0-65.86-3.41-100.14-13.61l-1.92-.58-.3-.09-1.75-.54h0c-.15,0-.3-.1-.47-.15l0-.67c0-.85-.14-2.48-.26-4.75-.31-5.55-.86-14.94-1.61-26-.15-2.2-.3-4.47-.47-6.8-.23-3.35-.48-6.82-.75-10.35l0-.49c-2.23-29.09-5.46-61.76-9.15-69.56l.32.11s0,0,0,0c1.4.48,7.19,2.46,16.36,5,4.46,1.24,9.71,2.62,15.64,4,5.78,1.38,12.21,2.78,19.18,4.11,3.28.63,6.69,1.24,10.2,1.82q6.08,1,12.58,1.92c7.21,1,14.76,1.86,22.59,2.5,7.33.6,14.9,1,22.65,1.18,6.29.15,12.71.12,19.2-.1,4.66-.15,9.36-.41,14.08-.79,7-.54,14.11-1.34,21.21-2.44h0c5.22-.8,10.46-1.76,15.67-2.91q7-1.52,14-3.49a213.14,213.14,0,0,0,30.3-11"/><path class="cls-9" d="M167.12,483.28l-26.89,54.48c9,2.67,17.85,5.31,27.3,7.17,2.9.38,5.73,1.17,8.61,1.72,4.83.92,9.7,1.68,14.59,2.38s10,1.36,15.08,1.8l5.43.5a263.55,263.55,0,0,0,33.57,1.27c8,.14,13.49.12,19.81-.3,11.7-.77,21.15-.57,33.66-2.81,4.7-.33,11.81-1.65,16-2.27,10.91-1.62,17-3.22,24.77-4.93l-7.73-43.66-9.64-11.06-47.55-23.74-23.06.55-36-.55Z"/><path class="cls-17" d="M345,482.29c-.14,1.21-.35,3.05-.63,5.29-.89,7.12-1.16,7.66-1.71,12.69-.37,3.36-.71,7.09-.94,10.9,0,.94-.1,1.89-.14,2.85,0,.22,0,.44,0,.67-.06,1.53-.1,3-.14,4.53-.09,4.52-.06,8.85.09,12.49,0,.32,0,.64,0,.95s0,.67,0,1,0,.69.06,1c0,.56.07,1.09.1,1.59,0,.73.09,1.47.16,2.2,0,.36,0,.62.06.79,0,.68.1,1.22.14,1.59,0,.11,0,.2,0,.27l0,.36-.07,0h-.07l-.43.12-.6.16-.16,0-1,.26-.6.16-.23,0-1.65.39-1.91.44-1.22.28-1.61.36v-24.3s.62-11.7-10.26-7-7.81-7.39-7.81-7.39V490.71a16.59,16.59,0,0,0,4.17-6.88,18.79,18.79,0,0,0,.74-5.8s-.11.63-.41,3.45a22.72,22.72,0,0,0,.69-8.38c-.07-.59-.1-.63-.31-2.16-.74-5.48-.42-5.64-.82-6.88-.51-1.56-2.67-2.58-5.54-6a17.63,17.63,0,0,0-5.19-4.2c-6.41-3.38-13-1.23-20.84.68a20.8,20.8,0,0,0-9.88,5.28,19.05,19.05,0,0,0-2.76,3.45c-.11.16-.22.33-.32.51C271,469,270.46,475.24,270.94,480c0,.54.11,1.07.2,1.58a8.59,8.59,0,0,1-.55,3.92c-1.24,2.22-6.16,2.5-9.65.88a11,11,0,0,1-5.23-5.54,15.24,15.24,0,0,0-9.14-3.42c-5.73-.09-11.18,3.39-14.23,8.92a8,8,0,0,1-8.14.73,8.48,8.48,0,0,1-4.47-6.57,37.19,37.19,0,0,0-1.53-8.31c-1.63-5.51-5-12.44-11.86-16.65a5.43,5.43,0,0,0-.57-.33,25.33,25.33,0,0,0-8.24-3c-.37-.07-.74-.14-1.11-.17-3-.26-26.55-1.58-29.24,22.28,0,0,1.15,10.56,4.16,16.42a23.16,23.16,0,0,0,2.12,2.25,14.2,14.2,0,0,0,1.84,1.56s0,0,0,0c0,.7-.44,25.32-7.33,24.1,0,0-13.55-4.52-14.36.83,0,0,4.89,18.36-1.23,19.29a18.64,18.64,0,0,1-7.69.23l-.09,0a16.12,16.12,0,0,1-1.86-.42l-.3-.09c-.55-.15-1.06-.31-1.75-.54h0c-.15,0-.3-.1-.47-.15l0-.67-.31-4.72-1.67-26-.51-7.75-.6-9.5,0-.49-.88-13.55s1.58-3.63,4.39-8.78c5.3-9.74,15-24.92,26.55-31.19a21.24,21.24,0,0,1,11.38-2.83l.91.06c3.69.3,7.11.5,10.05.92,4,.58,2.5.83,11.11,2.83a14.46,14.46,0,0,1,6,2.46,12.45,12.45,0,0,1,2.46,2.46l5.4,3.14a28.84,28.84,0,0,1,15.28,15,16.88,16.88,0,0,0,4.08,3,20.56,20.56,0,0,0,7.93,2,36,36,0,0,0,7.23.06c5.85-.53,11.09-1,14.34-4.66,1.08-1.22.58-1.25,3.83-6.06a39.12,39.12,0,0,1,3.54-4.7,31.45,31.45,0,0,1,3.85-3.6h0c1.81-2,3.88-4.2,6.23-6.38a91.58,91.58,0,0,1,7.52-6.27,28.45,28.45,0,0,1,11.25-3.33A30.24,30.24,0,0,1,310,430.47l1,.28c.75.22,1.52.48,2.32.77a35.78,35.78,0,0,1,5.51,2.6,32.41,32.41,0,0,1,16.33,17.43L345,482.29"/><path class="cls-18" d="M218.15,475.6c0,15.56-11.41,28.17-25.49,28.17s-25.49-12.61-25.49-28.17,11.41-28.17,25.49-28.17S218.15,460,218.15,475.6"/><path class="cls-19" d="M194.81,456.16c-6.29,0-11.49,7.15-12.34,16.42a23.48,23.48,0,0,1,3.71-.29c5.39,0,9.75,1.7,9.75,3.8s-4.37,3.8-9.75,3.8a24,24,0,0,1-3.5-.26c1.3,8.42,6.23,14.7,12.13,14.7,6.89,0,12.47-8.55,12.47-19.09s-5.58-19.09-12.47-19.09"/><path class="cls-20" d="M176.07,475.26c0,2.94,4.72,5.32,10.55,5.32s10.55-2.38,10.55-5.32-4.73-5.32-10.55-5.32-10.55,2.38-10.55,5.32"/><path class="cls-18" d="M270.66,475.26c0,15.56,11.41,28.17,25.49,28.17s25.49-12.61,25.49-28.17-11.41-28.17-25.49-28.17-25.49,12.61-25.49,28.17"/><path class="cls-19" d="M294,455.82c6.29,0,11.49,7.15,12.33,16.42a23.6,23.6,0,0,0-3.71-.29c-5.39,0-9.75,1.7-9.75,3.8s4.36,3.8,9.75,3.8a23.93,23.93,0,0,0,3.5-.26c-1.3,8.42-6.23,14.7-12.13,14.7-6.89,0-12.47-8.55-12.47-19.09s5.58-19.09,12.47-19.09"/><path class="cls-20" d="M312.74,474.91c0,2.94-4.73,5.32-10.55,5.32s-10.55-2.38-10.55-5.32,4.72-5.32,10.55-5.32,10.55,2.38,10.55,5.32"/><path class="cls-17" d="M166.79,457.58s38-10.62,52.24,12c0,0-14-51.1-52.24-12"/><path class="cls-17" d="M319.9,457.58S282.14,446.91,268,469.51c0,0,13.89-51.07,51.94-11.94"/><path class="cls-20" d="M276.88,524.57c0-1.8.15-3.59.35-5.35a99,99,0,0,0,11,6.7l-10,3.3-.5-1.48q-.33-1.06-.63-2.18c-.09-.33-.17-.65-.25-1"/><path class="cls-20" d="M217.6,525.84c0-1.8-.15-3.59-.35-5.36a98.6,98.6,0,0,1-11,6.7l10,3.3.5-1.48q.33-1.05.63-2.18c.09-.33.17-.65.25-1"/><path class="cls-21" d="M326,434.13c9.61-.19,21.32,26.71,19.34,46.1-.35,3.42-.54,6.27-1,7.62-.22.61-1.12-5.46-3.18-12.55-1-3.55-2.43-6.81-5.24-13.33-6.53-15.15-9.72-19.27-12.29-22.19-1-1.12-1.91-2-2.82-2.86C323.13,434.51,325,434.15,326,434.13Z"/><path class="cls-17" d="M301.58,525.34c4.3-1.77,7-6.52,7.49-6.16s-1.55,5-5.56,7.74c-5.35,3.68-11.91,2.38-14.21,1.81l-11.4-6.57a60.46,60.46,0,0,1-62,.16,20.83,20.83,0,0,1-12.71,7.62,17.15,17.15,0,0,1-19.42-11,18.57,18.57,0,0,0,8.79,6.52c7.7,2.56,17-.71,23.45-8.27a50.46,50.46,0,0,0,61.88-.87c12.25,10,19.34,10.76,23.66,9"/><path class="cls-21" d="M136.19,475.13l30.94-40h0l-38.9-15.94h0c1.16,5.4,2.64,12.92,4,22,.58,4,1,7.06,1.23,9.39.76,6.33,1.67,14.89,2.38,25.23"/><path class="cls-21" d="M230.45,445.7c2.85,3.25.56,7.5,2.62,11.31,2.17,4,8.91,7,27.15,5-1,.55-14.44,7.31-26.45.24a24.1,24.1,0,0,1-7.5-7,30.1,30.1,0,0,0-6.16-6.6l-5.7-4.42C220.48,442.75,227.3,442.1,230.45,445.7Z"/><path class="cls-21" d="M232.22,450a107,107,0,0,1,19.21-3.66q1.84-.18,3.63-.29l-24.6-.38-.85,9Z"/><path class="cls-22" d="M133.34,424s115.51,50.28,221.61,0c0,0,14.77-4.57,16.12-30.47s-198.11-15.24-249.14,0c0,0-7.39,15.24,11.42,30.47"/><path class="cls-23" d="M160.86,433.43A243.73,243.73,0,0,1,133.34,424c-18.8-15.24-11.41-30.47-11.41-30.47,9-2.68,22.58-5.22,38.86-7.45a179.78,179.78,0,0,0,.08,47.34"/><path class="cls-24" d="M371.07,393.54c-1.34,25.9-16.12,30.47-16.12,30.47a221.45,221.45,0,0,1-23.67,9.57c1.6-15.57,2.69-35.53.83-53.95,23.73,2.21,39.32,6.6,38.95,13.91"/><path class="cls-25" d="M331.28,433.58a230.91,230.91,0,0,1-30.14,8c2.67-16.8,5.7-41.64,4.66-63.46,9.48.27,18.36.78,26.31,1.51,1.85,18.42.76,38.38-.83,53.95"/><path class="cls-26" d="M301.15,441.58A256.77,256.77,0,0,1,265.62,446c3.21-18.54,6.51-45.78,3.55-67.91,12.76-.26,25.16-.24,36.64.08,1,21.82-2,46.65-4.66,63.46"/><path class="cls-27" d="M265.62,446a296,296,0,0,1-39.78-.59c-3-17.52-5.78-42.74-2.93-65.3,15.38-1,31.08-1.69,46.26-2,3,22.12-.34,49.36-3.55,67.91"/><path class="cls-25" d="M225.84,445.36a333.06,333.06,0,0,1-35.11-4.8c-3-15.65-5.59-37.22-3.16-57.61,11.28-1.13,23.21-2.1,35.34-2.9-2.85,22.56,0,47.78,2.93,65.3"/><path class="cls-24" d="M190.73,440.56c-11.36-2.18-21.45-4.71-29.87-7.13a179.73,179.73,0,0,1-.08-47.34c8.31-1.13,17.33-2.19,26.79-3.14-2.43,20.39.2,42,3.16,57.61"/><path class="cls-28" d="M362.08,362.88a61.8,61.8,0,0,0-11.34-32.15,44.22,44.22,0,0,0-1.36-22.64,45,45,0,0,0-17.93-23A64,64,0,0,0,320,249.36a43.49,43.49,0,0,0-7.12-5.57c-5.81-3.55-13.34-4-19.89-5.08-10.55-1.69-25.7-3-33.64-11.87-14.67-1.37-29.33-2.93-44-4.06-15.27,6.87-29,12.31-29,12.31-27.54,7.63-38.25,49.24-38.25,49.24-21.64,23.31-5.9,45.11-5.9,45.11-4.91,5.12-12.27,14.43-14.71,27.71a46.52,46.52,0,0,0-.61,13.33c1,6.53,18.8,21.9,232.67,13.25a60.92,60.92,0,0,0,2.49-20.83"/><path class="cls-29" d="M130.42,368.84s-1.3-31.35,28.86-47c0,0-5.59-2-14.44,3.6,0,0-15.73-28.11,19.68-45.11,0,0-7.7-2-10.24,0,0,0-26.78,6.64-23.87,39.1,0,0,1.18,7.5,7.89,10.25,0,0-23.51,17.56-14.7,43.26Z"/><path class="cls-30" d="M359.59,383.71a50.62,50.62,0,0,0,0-31.19c-7-20.86-25.57-28.45-28.29-29.5a69.19,69.19,0,0,1,16,4s4.39-27.46-32-44.45c0,0,24.59-2.29,38.36,26.8,0,0,4.24,7,3.28,20.92a29.37,29.37,0,0,1,9,8.75c8.24,12.58,6.25,31.66-4,49.05l-2.35-4.39"/><path class="cls-31" d="M130.42,368.84c2.07-3.2,1.75-5.78,3.57-6.47,2.75-1,5.84,3.09,7,2.25,1.48-1.08-3.93-7.71-3.39-16a24.39,24.39,0,0,1,3.09-9.23c5-9,24.28-16.39,49.91-17.72-6-1.89-22.26-6.17-40.13.83-6.61,2.59-19.34,7.58-25.8,21.3-7.15,15.17-1.43,30-.27,32.8A56,56,0,0,0,130.42,368.84Z"/><path class="cls-31" d="M144.85,325.4c-.72-1.57-6.62-14.9-.12-27.74,6-11.86,20-18.33,34.3-15.11a31.12,31.12,0,0,0-14.51-4.18c-12.56-.38-21.17,7.34-23.26,9.33-11.64,11-15.71,25.17-11,34.31a18,18,0,0,0,8,7.65Z"/><path class="cls-30" d="M210.72,292.74s97.76-7.92,116.56,12.7c0,0,16-33.52-116.56-12.7"/><path class="cls-30" d="M197.2,334c22.66.39,42,1.44,57.18,2.53,33.72,2.41,47.84,5.08,57.18,7.16,11,2.45,20,5.14,26.32,7.19q4.46-5.88,3.28-10.24-5.72-21.14-144-6.64"/><path class="cls-31" d="M143.33,334.14c.89.5-8.74,12.3-6.36,19.71,2.25,7,16.07,12.52,60.23,10a87,87,0,0,1-27.14,8.85,85.76,85.76,0,0,1-11.72.93,34.47,34.47,0,0,0-8.53-4.15,35.92,35.92,0,0,0-19.39-.64,14.07,14.07,0,0,1-1.56-4.83,14.89,14.89,0,0,1,.62-6.26c1.53-5.32,4.18-10.18,7.9-15.81C139.21,339.17,142.75,333.82,143.33,334.14Z"/><path class="cls-32" d="M120.85,388.51c-.33,2.61-1.35,11.76,4.25,20.23,5.31,8,13.52,10.67,15.71,11.5,10.85,4.09,27.08,3.9,50.23-11.5,14.3-9.51,33.8-5.45,33.8-5.45s39,28,81.9,5.42c0,0,16.47-10.38,28.17-4.06a30.65,30.65,0,0,0,30.35,7.3c.78-3.48,3.91-19.29-5.65-33.49-8.84-13.12-22.94-16.1-29.5-18-8-2.37-17.89-2.86-31.17.43-34.67,8.58-53.3,14-71.5,7.68s-30.31-16.1-54.6,6.32c-19.37-10.44-38.81-9.7-46.58-.45C122.14,379.31,121.05,386.92,120.85,388.51Z"/><path class="cls-33" d="M127.43,406.73s4.42,15.51,25.9,15.12,30-7.75,46.74-15.12,24.95,1.55,28.11,2.33,41.69,29.07,79.27.39c0,0,14.21-11.63,26.84-.78s28.43,6.2,28.43,6.2a21.42,21.42,0,0,0,4.57-6.33c4.11-8.77,1.69-19.95-3.92-26.79-8.43-10.27-23.21-9.69-34.9-9.24a62.73,62.73,0,0,0-19.71,3.9c-8.61,3.27-11.35,6.63-17.24,10.06-17.65,10.29-41.67,8.5-57.34,2.42-8-3.11-8.88-5.38-16.91-7.34a55.1,55.1,0,0,0-29.63,1.27,219.13,219.13,0,0,1-22.71-1.72c-20.59-2.63-28.34-6.58-33.71-1.12-2.65,2.69-6.14,9.12-3.79,26.75"/><path class="cls-30" d="M129.53,411.58c-1.48.24-3.33-4.33-4.18-6.41-4.77-11.78-1.81-23.47.17-29.25,1.8-2.9,5.45-7.87,11.37-10.63,13.39-6.24,25.8,4.68,26.9,5.68,1.68-.61,4.37-1.59,7.64-2.88,17.17-6.77,19.58-9.65,26.82-9.86,4.83-.14,9,1,14.47,2.46,4.84,1.31,5.54,2,11,3.88a124,124,0,0,0,24.68,5.4c20.33,2.36,25-6,50.83-14,23.67-7.35,45.44,3.25,48.82,4.89A67.58,67.58,0,0,1,367.27,375c1.49,2.87,6.79,13.9,3,26.72a33.75,33.75,0,0,1-6.73,12.25c.84-1.82,6.49-14.59.07-25.45-3.59-6.07-9.24-8.67-11.76-9.78-16-7.07-36.69.94-47.83,6.6-21.2,10.76-21.19,8.74-26.57,10.22-13.68,3.78-34.09,3.74-62.59-14.56a54,54,0,0,1-17,6.7l-27.11.14a31.7,31.7,0,0,0-14.76-9.55c-12.31-3.64-22.6,1.78-24.71,3C132,395.81,132.17,411.16,129.53,411.58Z"/><path class="cls-31" d="M129.53,411.58c-1.61.42-3.61-1.92-4.93-3.47-4.65-5.46-4.23-12.49-4-16.86.31-5.16,1.74-8.78,3.73-14.07,2.66-7,4-10.56,6.28-12.66,8.93-8.15,30.79,3.42,31.87,4,22.89-8,31.35-9.23,32.35-7.2,1.65,3.35-17.64,14.05-15.34,21.17,1.61,5,10.47,5.18,12,5.2a25.68,25.68,0,0,1-17.2,1,28.77,28.77,0,0,1-11.3-6.58,25.86,25.86,0,0,0-11.79-5.57c-10.33-1.89-18.31,3.41-20,4.62C133.49,405.13,131.73,411,129.53,411.58Z"/><path class="cls-31" d="M163.05,382.16c.56,5.9-13.3,8.06-14.66,16.69-1.26,8,9.07,16.27,17.52,21.78a40.27,40.27,0,0,1-24.73-.23c-.87-.15-12.1-2.25-16.69-12.77a22.39,22.39,0,0,1,0-17.08c.33-1.59,2.59-11.75,11.54-16.1C147.37,368.92,162.48,376.19,163.05,382.16Z"/><path class="cls-31" d="M152.36,410.92a65.41,65.41,0,0,0,24.1,1.72,66.79,66.79,0,0,0,33.85-14.32s46.56,26.29,65.68,19c0,0,33.28-8.55,49.3-21.18,0,0,12.66,20.87,37.43,18.75,0,0-17.29,6-33.21-9.29,0,0-11.15-5.78-31.24,9.77,0,0-26.3,14.51-53.91,1.69a105.63,105.63,0,0,0-33.64-13.14s-7.3-.28-29.5,11.83c0,0-11.88,4.4-15.31,4.91l-9.8-5.43Z"/><path class="cls-34" d="M180.8,226.2c-2.87,8.65-13.55,10.61-20.62,15-6.9,4.28-14.33,13.3-17.32,33.93a7.21,7.21,0,0,0,1.95,6.23c2.16,2.09,5.89,2.81,11.36-5.82,0,0,1-15.51,7.56-21.08s11.35-7.37,9.37-3.09-10,8.88-6.91,14.8c1.54,2.92,6.59,5.73,10.64,4.2,2.77-1.05,4.08-3.77,4.77-5.2,2.76-5.73-.13-9.33,2.77-13,1.8-2.3,5-3.61,6.16-2.74,1.41,1.08-1.14,5.05-2.26,12.69a90.18,90.18,0,0,0-.88,9.53c-1.4,1.33-18.1,17.62-13.15,34.18.29,1,2.76,8.53,6.56,9.16,6.26,1,14.45-9.34,14.6-33.06,0,0,1.53-6.14,5.92-6.14,0,0-1.82-24.34,9.83-24.56,0,0,7-2.85,4.2,23-1.49,1.7-6.69,8-6.32,17a23,23,0,0,0,2.24,8.93c.79,1.44,3.15,5.27,6.55,5.57,4.57.4,10.44-5.63,11.45-15.7a147.23,147.23,0,0,0,1.63-18.48c.25-10.05-.72-11.95.72-16.79.22-.72,4.77-15.22,16.43-17.07,1.86-.3,6.47-1,9.88,1.64,5.76,4.52,1.34,13.51,8.38,21.91a12.85,12.85,0,0,0,6,4.31c2.63.84,7.18,1.22,9.85-1.23,5.34-4.9,1.25-19.39,1.25-19.39h0s7.23.33,13.81,29.93,25.65-5.26,6.91-27.63c0,0,5.59-18.74,27.3,37.82s28-21.16,2.08-39.57c0,0-17.32-18.42-29.38-17.1,0,0,16.22-12.28-21.27-20.61,0,0,16.88-8.33,9.87-16s-13.15-9.21-13.15-9.21,4.47,3.72,3.52,7.23c-.8,2.93-5.08,4.19-7.68,4.83-22,5.37-89.29,7.47-94.31,23.21C180.16,220.83,182.21,221.95,180.8,226.2Z"/><path class="cls-35" d="M327.47,240.33c-1.64,1.09,4.63,10.15,8.62,25A99.47,99.47,0,0,1,339.17,298c.64,5.35,4.66,8.29,7.38,7.68,1.87-.42,3.33-2.54,3.91-5,.2-1,.47-2.41.69-4.11a64,64,0,0,0-7.06-37.71C338.19,247.92,329.1,239.24,327.47,240.33Z"/><path class="cls-35" d="M303.54,285.69c1.7,1.28,4.89.42,6.79-1.06,4.48-3.51,3.32-11.78,2.62-16.78a42.21,42.21,0,0,0-8.79-20.6,37,37,0,0,1,1.21,13.64,79.65,79.65,0,0,1-2.12,11.57,21.88,21.88,0,0,0-1.12,9.22C302.43,284.71,303.19,285.42,303.54,285.69Z"/><path class="cls-35" d="M275.84,234.17c.57-.47,2.92,1.1,4.41,2.87a16.89,16.89,0,0,1,2.46,4.41,26.05,26.05,0,0,1,1.22,3.23,33.31,33.31,0,0,1,1,7,34.23,34.23,0,0,1,.25,5.52,11.29,11.29,0,0,1-2.07,6,6.23,6.23,0,0,1-2.9,2.48,5.65,5.65,0,0,1-4-.2,9.2,9.2,0,0,1-3.54-4.77,9.6,9.6,0,0,1,1.24-7.87,30.69,30.69,0,0,0,1.69-3.06,25.41,25.41,0,0,0,1.54-3.9,20,20,0,0,0,.72-3.39C278.32,237.92,275.11,234.78,275.84,234.17Z"/><path class="cls-35" d="M242.39,239.81c.29.3-4.48,3.7-7.88,10.19-3.92,7.51-4,15.4-3.3,21.51a73.41,73.41,0,0,1-.65,16.85c-1.09,7-2.55,9.52-3.7,11.09a19,19,0,0,1-7.21,5.88,10.46,10.46,0,0,1-4.6-3.32c-3.77-4.93-1.22-12-.21-14.88a25.56,25.56,0,0,1,8.42-11.42,36.45,36.45,0,0,1,3.18-19.37C231.83,245,242,239.39,242.39,239.81Z"/><path class="cls-35" d="M182.85,299.79c-.37,5.2.39,12.72,2.71,13.18s5.54-5.91,6.85-9.06a67.35,67.35,0,0,0,2.44-9.08c1.56-6.67,1.61-7.6,2.46-10.37a36.72,36.72,0,0,1,3.9-8.53s-3.52-15.41,0-25.87a37.7,37.7,0,0,0-4,7.59,38.78,38.78,0,0,0-2.36,17.52C184.88,285.7,183.18,295.15,182.85,299.79Z"/><path class="cls-35" d="M171.91,267.46c-1-1.93-.14-4,.27-5.06.84-2.11,1.8-2.28,4.93-6,2.3-2.71,2.28-3.21,3.6-4.19a11.39,11.39,0,0,1,5.86-2.09A10.63,10.63,0,0,0,183,256c-.33,1.8.16,2.43.13,4.3,0,3.91-2.28,9.24-5.84,9.82A5.37,5.37,0,0,1,171.91,267.46Z"/><path class="cls-35" d="M156.16,275.53a18.51,18.51,0,0,0,1.9-8.61c0-3.85,2.46-9.65,13.87-17.8a27.17,27.17,0,0,0-13.4,5.64,28,28,0,0,0-9.9,17.41,6.71,6.71,0,0,0,1,5.53,3.75,3.75,0,0,0,2.62,1.69C154.17,279.41,155.56,276.69,156.16,275.53Z"/><path class="cls-36" d="M285.33,258.32c0,2.75-1.57,5.35-3.48,5.81s-3.44-1.37-3.44-4.08,1.54-5.31,3.44-5.8,3.48,1.33,3.48,4.08"/><path class="cls-36" d="M313.59,277.33c0,3.32-1.6,6.48-3.56,7s-3.52-1.66-3.52-4.94,1.57-6.43,3.52-7,3.56,1.61,3.56,4.93"/><path class="cls-36" d="M350.45,289.5c-.24,4.59-1.65,8.44-3.15,8.61s-2.51-3.39-2.27-7.95,1.63-8.41,3.13-8.61,2.53,3.36,2.29,7.94"/><path class="cls-36" d="M230.09,291.39c1-5.48.1-9.88-2-9.84s-4.47,4.45-5.44,9.84-.12,9.8,1.91,9.84,4.52-4.37,5.5-9.84"/><path class="cls-36" d="M193.16,300.17c.2-3.94-1.35-7-3.45-6.74s-3.92,3.54-4.12,7.43,1.31,6.9,3.39,6.75,4-3.49,4.18-7.43"/><path class="cls-36" d="M182.68,263.33c.39-2.62-.54-4.88-2.06-5s-3,1.82-3.42,4.4.52,4.83,2,5,3.07-1.77,3.46-4.39"/><path class="cls-36" d="M157.7,272.06c.51-2.7-.2-4.91-1.56-4.93s-2.84,2.12-3.34,4.78.18,4.87,1.52,4.93,2.87-2.07,3.38-4.77"/><path class="cls-35" d="M292.36,225.23s-37.87-13.84-84.06-2.45c0,0,57.57-25.12,88.06-6.48,0,0,15.09,6.47-4,8.93"/><path class="cls-37" d="M362.18,595.58s20.28,38.7-26.53,46.5-58.51-9.47-58.92-19.92c0,0,76-22,85.44-26.58"/><path class="cls-38" d="M204.28,622.65A4.82,4.82,0,0,0,203,624a5,5,0,0,0-.72,2.26,6.1,6.1,0,0,0,.51,2.67c.72,2.47-7.39,9.77-20,13.34A55.93,55.93,0,0,1,162.22,644a1.68,1.68,0,0,1-.26,0A124,124,0,0,1,147.88,643c-1.93-.25-3.92-.54-6-.89l-.46-.07-.37-.06c-35.83-6.37-31.3-31.21-27.64-41.68.07-.21.14-.41.21-.59a36.49,36.49,0,0,1,1.74-4.1l5,2a531.59,531.59,0,0,0,83.84,25.06"/><path class="cls-39" d="M265.86,611.22v39.56a90.53,90.53,0,0,1-23.51,8c-27.55,5.05-41.52-9.06-41.52-9.06V611.39l.23,0c2.66.76,9.51,1.07,17.82,1.1,7.66,0,16.57-.15,24.55-.38,10.78-.32,19.88-.73,22-.82a.57.57,0,0,0,.14,0l.32,0"/><path class="cls-40" d="M280,621.23s2,20.36,0,20.71h-14.1V623Z"/><path class="cls-41" d="M137.77,550.08a66.41,66.41,0,0,1-7.9,16.67,68.52,68.52,0,0,1-26.17,23.16s7.69,18.56,57.83,29.35c27.67,6,45.3,5.87,79.88,6.78,0,0,96.72-.82,130-33.26,0,0-26-29.66-26.69-37.77a695.71,695.71,0,0,1-71.23,5.29,698.15,698.15,0,0,1-135.69-10.22"/><path class="cls-42" d="M371.38,592.78l-.09.09a34.08,34.08,0,0,1-4.67,4c-.85.64-1.85,1.34-3,2.09-5.49,3.65-14.26,8.43-27.4,12.95-13.61,4.68-31.89,9.1-56.07,11.74l-3.26.33q-5.34.54-11.06.95-9.33.68-19.71,1l-2.71.07h-.33l-1.71,0c-15,.28-28.48-.14-40.57-1.08l-.36,0a279,279,0,0,1-36.4-5.14l-1-.2c-21.09-4.61-35.37-11-44.7-16.73-1.76-1.1-3.35-2.17-4.77-3.19-5.76-4.2-8.81-7.8-9.94-9.73,0,0,0,0,0,0L114,583.35s1.39,1.08,4.21,2.83c11,6.86,43.92,24,100.66,26.27,7.13.3,14.63.36,22.51.14.68,0,1.36,0,2-.07q11.6-.37,22-1.27a.46.46,0,0,0,.14,0c69.38-5.84,99.15-26.36,99.15-26.36l.11.12.53.64,5.89,6.95Z"/><path class="cls-43" d="M175.72,559.11s-42.89,4.65-42.88,34.76c0,0-17.13-8.46-18.82-10.52,0,0,16-8.48,23.76-32.68,0,0,30.1,7.31,37.95,8.44"/><path class="cls-43" d="M136.91,579.28s-7.13,15,9.6,20.07l-13.69-5.49s-.47-11.87,4.08-14.59"/><path class="cls-44" d="M344.69,555.83l-.3,0c-33,4.76-65.91,9.51-99.84,9.18-2.75,0-5.49-.08-8.25-.18-18.48-1.29-37-2.39-56.66-5.16-11.59-1.63-21.38-4.18-32.9-6.94l-.52-.13-3.4-.8-.8-.18h0l-1.4-.32-2.86-.64a32.22,32.22,0,0,1,.76-6.94c.41-1.83.94-3.55,1.48-5.24l.22-.72.49.14c1.29.39,2.6.76,3.89,1.11l.09,0A381.35,381.35,0,0,0,244.81,553.3c9,.08,75.54-6.61,87.81-9.38q4.75-1.06,9.46-2.25h.07l.07,0c1.23,5.16,3.7,9,2.46,14.2"/><path class="cls-41" d="M361.92,419.15s-7.56,83.84,14.61,89.12l16.63,5.84-26.61,4.3-.16,12.37-15.93-6.57L342,507.56s7.18-70.94,19.94-88.41"/><path class="cls-2" d="M366.55,518.42S342.82,499.19,349.3,461c0,0-7.63,35.52-7.24,45.37l-.09,1.18,8.48,16.65,15.93,6.57Z"/><path class="cls-45" d="M200.83,625s-31.19,25.24-81.24,8a65.48,65.48,0,0,0,11.48,6.68c21.41,9.68,42.55,5.18,52.07,2.45a37.63,37.63,0,0,0,17.55-9.47Z"/><path class="cls-46" d="M285.79,206.51c13.75,3.3,22.82,10,22.69,16.27a7.92,7.92,0,0,1-1.67,4.52,64.9,64.9,0,0,1,31.85,20.43l-.77,1.67a68.06,68.06,0,0,0-10.95-10.06,68.86,68.86,0,0,0-22.79-10.94c2.55-2.27,3-4.15,3.1-5.35.23-5.65-8.94-11.94-23.3-15Z"/><path class="cls-47" d="M293.69,208.95l-2.54-5.86-.8.52q-2.29,1.49-4.57,2.9c1.07.21,2.22.49,3.42.84A41,41,0,0,1,293.69,208.95Z"/><path class="cls-23" d="M128.25,419.24s102,54.09,225.84,3.26c.48-.2,7.51-3.89,7.84-3.35.2.34-2.29,2.29-4.43,3.67-2.45,1.58-4,2.18-11.76,5.3-4.74,1.91-5.21,2.12-7,2.81-2.68,1-4.66,1.77-7.42,2.65-1.26.4-1.93.59-4.33,1.35s-4.15,1.34-4.28,1.38c-35.45,11.64-77.16,11.5-77.16,11.5a257.71,257.71,0,0,1-117.26-28.58Z"/></svg>