<svg id="Layer_1" data-name="Layer 1" xmlns="http://www.w3.org/2000/svg" viewBox="0 0 1420.17 2221.48"><defs><style>.cls-1{fill:#484f57;}.cls-2,.cls-3{fill:#525b63;}.cls-3,.cls-4,.cls-5,.cls-6,.cls-7,.cls-8,.cls-9{fill-rule:evenodd;}.cls-4{fill:#3e474c;}.cls-5{fill:#4f595e;}.cls-6{fill:#495359;}.cls-7{fill:#4b555b;}.cls-8{fill:#525e66;}.cls-9{fill:#546168;}.cls-10{fill:#454f56;}.cls-11{fill:#f5e9d7;}.cls-12{fill:#002c41;}.cls-13{fill:#fbb142;}.cls-14{fill:#f8a04f;}.cls-15{fill:#f3e7d7;}.cls-16{fill:#f5ecdf;}.cls-17{fill:#8c473b;}.cls-18{fill:#bb5f4f;}.cls-19{fill:#c97f72;}.cls-20{fill:#60666d;}.cls-21{fill:#6d747b;}.cls-22{fill:#676d75;}.cls-23{fill:#5b6169;}.cls-24{fill:#6e767f;}.cls-25{fill:#4b535a;}.cls-26{fill:#575e67;}.cls-27{fill:#585f67;}.cls-28{fill:#4e565e;}.cls-29{fill:#48535c;}.cls-30{fill:#585e63;}.cls-31{fill:#474f57;}</style></defs><title>2</title><path class="cls-1" d="M1199.67,1087.93s-0.22,1.52-.77,3.92C1198.21,1091.28,1199.67,1087.93,1199.67,1087.93Z" transform="translate(92 -789.23)"/><path class="cls-1" d="M1327.14,1833.37c-0.38-.29-0.85-0.64-1.41-1l-0.82-.58q-0.51-.36-1.11-0.75l-0.55-.37c-0.69-.44-1.44-0.92-2.25-1.4V1671.4l0.15-.1a4.64,4.64,0,0,1,.47-0.3c0.13-.08.27-0.1,0.41-0.17l0.13-.06H1321V1470.45l0.35-.35v-51.17h-21v-191.7h9.24v-133l0.43-.33v-6a0.91,0.91,0,0,1,.65-0.47s0,0,0-.06h0l-0.62.3a4.38,4.38,0,0,0-.43.22V1006c0.13-1.06.28-2.32,0.43-3.73v0c0.06-.56.12-1.13,0.17-1.73,0-.19,0-0.38.05-0.58,0-.39.08-0.78,0.11-1.18s0-.62.08-0.94,0.05-.64.07-1c0.05-.65.1-1.31,0.14-2l1.84-17.56s-0.27-1.24-.81-3.57c-0.17-.69-0.35-1.47-0.56-2.34-0.31-1.31-.67-2.82-1.09-4.52l-0.43-1.77V894.2H1310V807.57c1-2.38,2.16-4.83,3.35-7.28l-2.77-2.89-0.58-.6-0.43-.45v-7.12q-1.2,2.22-2.49,4.53c-7.07,12.75-16,27.62-27.08,44.35q-3.84,5.79-8,11.87l1.06,32.89V883l0.37,11.36,0.13,3.91,4.28,11.25-42.9,96.78,2.4,6.33-8.41,8.76-14.09,20.29s17.7,9.11-1.85,34.87c-10.12,13.33-13.33,15.92-14.06,15.3-2.21,9.66-9.82,33.48-30.35,28.92-25.63-5.69-8,.93-8,0.93L1153,1124l-30.85,33.54s-21.5,44.07-32,69.42a2.27,2.27,0,0,0-.1.23c-1.22,2.93-2.28,5.62-3.15,7.94-0.29.79-.56,1.53-0.8,2.23l-0.3.86h0a22.73,22.73,0,0,0-1.3,5.15,2.44,2.44,0,0,0,0,.48c0.46,3.26-.37,7.76-2,12.42-0.32.89-.67,1.79-1,2.69a51.34,51.34,0,0,1-7.39,12.55c-0.19.22-.37,0.46-0.56,0.69-0.37.48-.75,1-1.14,1.49l-1.6,2.18h0c-0.7,1-1.42,1.93-2.19,2.92-0.11.14-.22,0.29-0.34,0.43a36.32,36.32,0,0,1-7.17,7.22,19.71,19.71,0,0,1-12.77,3.92c-0.48,0-1,0-1.46-.11a28.14,28.14,0,0,1-5.48-1.15l-8.07-2.51-2.1-.66-3.6-1.13-1.24-.4c-3.23-1-5.53-1.76-7.07-2.26l-2.1-.69-0.59-.2-4.73,3.67-2.39,1.85-0.68.21-6.82,2.13-18.78,30.59-4.53,7.37-9.58,3.46-5.73,4.77-6.15,7.11-0.26.3-4.88,2.62-6.13,10.35-8.4,8.76s-10.56,14.15-9.22,17.67-4.4,8.29-4.4,8.29l-2.54,4-12,19-1.44,5.4,0,0.07-2.77,10.36-2.74,8.25s-10.12,2-14.79,20.66-12.07,34.45-25.4,39.07c0,0,2.91,9.88-8.79,16.6,0,0-17.87,60-39.68,63.27,0,0-9.78-2.56-16.76,10s-24.9,40.39-37.31,33.09c-10.75-6.32-10-6.44-9.64-6.36-1.09-.39-9.56-2.91-13.48,9.48-4.18,13.26-38.85,57.75-45.4,57s-6.56,1.49-7.86,4.69-10.45,25.49-28.32,23.66-29.6,14.76-31.5,20.81-9.5,22.43-10.54,23-6.3,11-6.3,11l-8.17,11.59-2.2,2-5.92,5.35-8,6.43,1.61,4.38,21.18,57.57L614,1875l2.23,6h0l3.53,9.6,1.83,5,8.06,21.91,4.1,11.14,1.62,4.42,4.6,12.5,3.47,9.41,32.14,87.37,16.82,45.71,31.86,86.6,138.61-71.79L1148.4,1955l0.21-.11L1280,1886.84l20-10.36,0.33-.17,20.67-10.7v-16.19h7.17v-15.24l-0.53-.43Z" transform="translate(92 -789.23)"/><path class="cls-1" d="M1313.72,791.16l-0.87,1.7q-1.11,2.18-2.18,4.36l0.13,0.18c1-2,1.93-3.9,2.91-5.82C1313.72,791.44,1313.72,791.3,1313.72,791.16Z" transform="translate(92 -789.23)"/><path class="cls-2" d="M1309.08,1009.6l0-.14C1309.09,1009.55,1309.08,1009.6,1309.08,1009.6Z" transform="translate(92 -789.23)"/><path class="cls-2" d="M1309.57,1004.92l1-10.07c-0.28,4.44-.71,8.43-1,11.13-0.23,1.84-.41,3.09-0.47,3.48Z" transform="translate(92 -789.23)"/><path class="cls-2" d="M1286.82,882.87l0,0.13q1.05,5,2.78,10.57c0.07,0.24.15,0.48,0.22,0.72,3.87,12.49,7.26,24.12,10.15,34.46l0.33,1.18c4.12,14.78,7.21,26.89,9.24,35.16l0.43,1.77c0.42,1.7.78,3.21,1.09,4.52,0.21,0.87.39,1.65,0.56,2.34,0.54,2.33.81,3.57,0.81,3.57l-1.84,17.56c0.44-6.76.53-14.58-.62-20.56-0.13-.67-0.27-1.31-0.43-1.92-0.79-3.09-2-5.51-3.77-6.75s-3.75-4-5.47-7.49c-0.11-.23-0.23-0.46-0.33-0.69-6.34-13.14-10.93-35.9-10.93-35.9l-9.07,21-18.32,42.33-3.72,16.69s0.49,4.25-1.3,14.25-2.66,19.5-2.66,19.5,0.21,5,.31,11.13-2.4,14.28-3.25,16.43-1.69,8.82-1.69,8.82l-0.9,12.34s1.6,45.44-2.37,52.66c0,0-.55-27.94-2.76-27.88s-6.34,33.34-29.4,41.79c0,0,1.63,16.07-31.84,25,0,0-6,4.9-10.72,15.93a41.35,41.35,0,0,1-13.22,16.71s-3.6,8.16-2.11,13.57a28.75,28.75,0,0,1,.44,5.19,1.69,1.69,0,0,1,0,.23c0.48,17.21-2.55,68-21.88,84.6,0,0,25-65.54,13.92-69.32-5.25-1.8-6.52-8.5-6.14-15.28a1.78,1.78,0,0,1,0-.23c0.46-7.44,2.88-14.92,4.19-16.07,2.52-2.2,6.37-20.79,18.24-20.4,0,0,9-20.51,25.28-25s20.76-17.09,19.45-17.23,11.75-11,13.2-10.5,19-32.68,16.76-49.67l3.6-4.9s-3.65-21.76-5.28-23.85,1.52,32.36-23.91,42.65c0,0-7.89.58-3.39,5.79s-5.5,6.48-6.44,9.53-0.76,4.64,0,7.64-1.53,13.25-11,17.07-21.73,13.69-33.11-8.56l-21.7,18-5.47,16.5s10,28.51,2.21,41.16l-5.93-11.21s1.57,13,2.35,29.1c0,0.08,0,.15,0,0.23,1.14,23.78.5,54.17-9.54,59.24,0,0,6.5-52.06.44-53.32s-2.55,52.55-16.08,60.59a0.54,0.54,0,0,1-.18.1,0.14,0.14,0,0,1-.08.05c-0.07,0-.15-0.06-0.23,0-0.8.39-1.55,1.12-2.27,1.12h0l-0.23.15c-10.8,7-13.67,18.89-25.91,7.56l0,0c-1.16-1.08-2.4-2.29-3.75-3.81,0,0-1.38-6.56-7.85,1.43-1.29,1.6-3.64,2.61-6.58,3.18a44.85,44.85,0,0,1-9.12.63,143.38,143.38,0,0,1-23.66-2.92s-11.28-2-11.66,8.12a0.61,0.61,0,0,0,0,.14c0,1.53.07,4.79,0.25,9.23,0.2,4.85.49,11.13,0.77,18.12,0.07,1.94.15,3.95,0.21,6,0.21,5.63.28,11.56,0.39,17.49a0.13,0.13,0,0,1,0,.06,4,4,0,0,0-.3.46V1362h0v0.28a0.32,0.32,0,0,0,.14.16,0.19,0.19,0,0,1,.09.12,0.66,0.66,0,0,0,0,.14c0,0.48.1,1,.11,1.45a1.59,1.59,0,0,0-.2.07,1.3,1.3,0,0,1-.15.2v8.08a5.87,5.87,0,0,0-.08.72c0.06,0.78.08,1.56,0.08,2.32v9.25h0v1.48h0a97.06,97.06,0,0,1-2.11,20.26,1.51,1.51,0,0,0,.11.13v0h0s-0.15.07-.16,0.11a11.16,11.16,0,0,1-1.81,3.7l-0.07.09h-0.05a2.66,2.66,0,0,1-.95.85,0.1,0.1,0,0,0,0-.07v-0.21c0-.49,0-1.53,0-3v-0.06c1-5,1-14.74,1-22.25v-1.38h0a4.89,4.89,0,0,0-.68-3.28,2.94,2.94,0,0,0-.32-0.21v0a0.22,0.22,0,0,1,0-.08,2.37,2.37,0,0,0,.06-0.37c-0.63-2.75-1.57-4.61-3.14-4.88-5.06-.87-6.4,4.72-6.76,8.08,0,0.36,0,.69-0.06,1-0.06.86,0,1.42,0,1.42s0.42,4.76.91,12.08a0.91,0.91,0,0,0,0,.16c0.29,4.32.6,9.51,0.88,15.13,0,0.05,0,.1,0,0.15,0,0.94.1,1.89,0.1,2.85V1420c0,6,.9,12.27,1,18.34,0,0.34,0,.69,0,1h0a5.21,5.21,0,0,1-.1.78,2.24,2.24,0,0,0-.07.51c0,15.26-.82,28.76-3.81,32.62,0,0,0,1.41,0,3.79h0c0,0.08-.18.15-0.19,0.23,0,0.6-.12,1.25-0.15,2a2.43,2.43,0,0,1-.06.26c-0.1,2.52-.27,5.65-0.46,9.09a0.29,0.29,0,0,0,0,.09c0,0.28,0,.57-0.05.85-0.89,15.39-2.72,36.4-6.22,38.28-2.29,1.23-6.84,11.17-11.84,22.49h0c-1,1.29-1.09,2.6-1.65,3.91C973,1569.58,967,1585.8,967,1585.8a68.67,68.67,0,0,1-3.81,8.11l-0.09.17c-3.45,6.29-9.18,14.74-17.2,20-14.09,9.27-22.83,32.61-23.16,36.17-0.14,1.56-1.34,10.53-2.56,20.5-1.57,12.77-3.18,27.17-2.67,29.75,0.91,4.6.78,24.15,0.78,24.15l-3.89,7.32L906,1747.86l-7.71,14.52-4,7.44,0,0-4.29,8h0l0,0-0.79,1.74-0.07.16,0,0.07-0.1.44h0l-0.23.19v0l-2.57,4.7v0l0,0-1.57,2.9v0l-10.46,19.67L862.37,1830v0l-0.3.56-7.22,13.58-1.32,2.48a0,0,0,0,0,0,0l-0.27.08s-0.24,0-.24,0h0l-4.33,8.56-19.92,37.71-6.44,20.44-11.64,10.24-5.58,4.91-28.39,24.92h0l-1.47,1.29-0.12.11-24.23,21.26-33.38,29.3-41.94,36.81-1.15,1L636.9,1955l-3.85-9.06-5.44-12.83-1.89-4.44-4.8-11.32-15-35.42-1.67-3.93L591,1847,579.2,1819,572,1800a88.09,88.09,0,0,0,11.94-6.68,119.79,119.79,0,0,0,10.78-7.93c13.45-11.13,29-29.08,34.83-55.31,0,0,10.94-22,37-17.37s24.8-25.2,24.8-25.2,5.78-9,11.4-5.28,40.56-56.56,40.56-56.56,0.92-6.42,7-3.74,20.49,18.62,46.1-26.5c0,0,3.06-11.81,27.85-15s33.77-65.6,33.77-65.6,7.44-9.09,9.16-13.4,27.26-23.14,28.24-44.84,10.23-10.59,10.23-10.59a124.09,124.09,0,0,1,8.07-27.05l0-.07a125.4,125.4,0,0,1,9.66-18.6,107,107,0,0,1,7.18-10s11.6-27.53,26.31-42.34c5.83-5.87,12.15-9.75,18.42-9.11l0.79-1,19.6-25.54,4.92-6.41,3.48-4.54s7.88-18.92,21.94-8.42c0.25,0.19.51,0.38,0.77,0.55s0.68,0.48,1,.71c0.8,0.53,1.6,1,2.42,1.47,0.59,0.33,1.18.64,1.78,0.92a36.09,36.09,0,0,0,16.78,3.68c0.48,0,1,0,1.43-.05a35.18,35.18,0,0,0,6-.87,33.3,33.3,0,0,0,3.73-1.08,32.33,32.33,0,0,0,8.78-4.6c4.22-3.14,6.86-3.58,8.52-2.93,2.62,1,2.78,4.75,2.78,4.75s5.59,16.19,12.17-.34a35.68,35.68,0,0,0,2.31-19.28c-0.15-1.11-.18-2.13-0.32-3.06a3.1,3.1,0,0,0,0-.32,18.08,18.08,0,0,1-.18-3.07V1269a6.26,6.26,0,0,1,0-1.58,0.78,0.78,0,0,1,.05-0.14,3.34,3.34,0,0,1,.81-1.18,17.17,17.17,0,0,0,.09-2v0c0-4.58-.19-15.5,1.28-16.29,1.86-1-3.08-10.81-3.08-10.81s1.28-4.26,3.28-9.81c0-.08,0-0.15,0-0.23,3.59-9.94,9.27-23.85,13.46-25,6.57-1.84,9.59-42.43,20.83-42.26l2.79-8.85,25.1-23.67s4.39-4.62,4.71-.84,10.91,31.69,33.87,2.39c0,0-5.48-13.71,3-16.31,0,0-2.71-17.46,13.77-20.4,0,0,23.3-19.59,15.36-56,0,0-.86-11.11,13.78-27.74l19.4-38.67L1280,927.11l3.84-9.4a38.84,38.84,0,0,0-1.75-23.39,36.92,36.92,0,0,0-2.09-4.45l-0.07-.13c-1.47-2.65-2.59-4.87-3.44-6.74l-0.06-.13c-3.72-8.17-2.29-9.5-2.29-9.5s-2-14.34,5.86-26.45a32.08,32.08,0,0,1,8.43-8.76l8-7.69s5.62-15.24,13.15-31c0.14-.3.28-0.59,0.43-0.89s0.38-.8.58-1.2l2.77,2.89c-1.19,2.45-2.31,4.9-3.35,7.28-0.15.33-.29,0.66-0.43,1a242,242,0,0,0-9.18,25S1278.5,843.43,1286.82,882.87Z" transform="translate(92 -789.23)"/><path class="cls-2" d="M1313.72,791.16l-0.87,1.7q-1.11,2.18-2.18,4.36l0.13,0.18c1-2,1.93-3.9,2.91-5.82C1313.72,791.44,1313.72,791.3,1313.72,791.16Z" transform="translate(92 -789.23)"/><path class="cls-2" d="M1310.65,1087.36h0l-0.62.3a4.38,4.38,0,0,0-.43.22c-2.86,1.55-6,4.4-9.24,8.06l-0.33.38c-6.76,7.73-13.95,18.91-20,29.27-8.33,14.24-14.51,26.93-14.51,26.93l-9.38,7.31c-20,11.14-19.32,36.61-19.32,36.61s-2.53,1.91,4.23,18.74a44.32,44.32,0,0,1,3,11.81l0,0.23a42.81,42.81,0,0,1-2.12,19.15l-28.64,54L1188.1,1340c-17.5,16.19-17.89,28.49-17.89,28.49,2.51,24.79-6.39,41.26-13.83,50.4l-0.06.07a46.8,46.8,0,0,1-9,8.74c-17.85.94-17,20.44-17,20.44-3.63.65-5.22,3.43-5.8,6.59-0.91,5,.66,10.87.66,10.87a50.63,50.63,0,0,1-11.54,9.38,22.44,22.44,0,0,1-4.56,2,12.12,12.12,0,0,1-12.71-3.06,14.34,14.34,0,0,1-1.38-1.54c-4-5.06-5.53-12.22-5.49-14.05,0.11-4.19-5.1.26-5.1,0.26l-17.31,13.2L1056.3,1480l-1.35,1-0.2.46-3.8,8.78a4,4,0,0,0-3.55.74h0a2,2,0,0,0-.76.6,12.71,12.71,0,0,0-1.35,1.31c-8.74,9.08-15.21,38.83-21.1,40.76q-2.43,6.66-5.35,13.15-2.1,4.68-4.45,9.25l0,0.1c-0.22.89-.41,1.78-0.65,2.66a185.59,185.59,0,0,1-9,37.37,1.71,1.71,0,0,1-.07.21c-1.11,3.12-2.3,6.23-3.57,9.3-0.66,3-1.41,6.08-2.22,9.09a39.66,39.66,0,0,1-4.73,18.57,24.78,24.78,0,0,1-3.34,5.1c-0.12.29-.25,0.58-0.36,0.87,0.55,1.8,1.08,3.6,1.57,5.42,4.52-2.61,9.23-8,16.65-10.7,8.12-3,12.77-20.45,16.22-36.47l0.06-.28c3.24-15.06,5.43-28.73,8.47-27.66s1.7,13.51-.44,26.67c0,0.07,0,.15,0,0.22-2.5,15.33-6.25,31.49-6.25,31.49,7.09-2.62,11.39-16.76,14-33.42,0,0,0-.1,0-0.15,0.53-3.37,1.38-6.84,1.38-10.34h0c0-1.39.32-2.78,0.45-4.18h0c0.77-7.62,1.26-15.23,1.59-22.07,0.16-3.47.28-6.75,0.37-9.72,0.28-9.65.21-16.16,0.21-16.16l5,13.1c3.4-4.47,4.73-11.37,5-18.44,0.55-13.18-2.52-27-2.52-27l3.14-7L1056,1491l3.9-8.75,1.69-1.23h0l2.79-2h0l3.12-1.9,17.54-11.47a47.5,47.5,0,0,0,4.06,8.67q0.54,0.9,1.11,1.68c4.9,6.93,10.48,8.08,16,7.31,0.73-.1,1.46-0.23,2.19-0.39h0c0.79-.18,1.58-0.37,2.36-0.6,1.42-.41,2.81-1.3,4.17-1.3h0c1.47-1,2.9-1,4.26-1.37a17.9,17.9,0,0,0,8.05-4.75,0.2,0.2,0,0,0,.07-0.06,0.21,0.21,0,0,1,.06,0,20.85,20.85,0,0,0,5.24-9.25c0-.16.08-0.33,0.12-0.48a8.61,8.61,0,0,0,.3-2.63,11.06,11.06,0,0,1,0-1.62,0,0,0,0,0,0,0,1.34,1.34,0,0,0,0-.2V1460a13,13,0,0,1,.87-5.91c1.36-3.21,12-3.23,7.85-9.56s4.28-5.85,4.28-5.85c11.41-3.14,18.32-11.25,22.6-19.64a0.24,0.24,0,0,0,0-.07c6.27-12.33,6.87-25.21,7.75-23.72,1.16,2,2.6,17.06,2.6,23.72V1419a20.81,20.81,0,0,0,.19,3.06l-1.79,2-2.59,2.87c0.4,19-22.17,52.84-23.65,52.1-0.59-.3-3.42,1-6.48,3h0c-4.53,3-9.57,6.51-8.75,6.71,1.05,0.26-2.34,8.08-11.95,12.93l-0.27.14c-0.79.38-1.62,0.24-2.49,1.09a0.93,0.93,0,0,0-.1.1l0,0h0c-1.08,0-2.22.74-3.43,1.07l-0.27.08a40.18,40.18,0,0,1-4.12.79c-11.07,1.68-19.87,10.52-24.95,17a58.48,58.48,0,0,0-4.84,7.05,1.65,1.65,0,0,0-.32.06h0c-11.47-2-17.63,15.09-20.76,19.09a2.7,2.7,0,0,1-.67.58c-1.53,1.08-5,9.05-6.38,17.21-1.22,7.4-.67,14.95,4.71,17.66,3,1.5,2.8,7.41.88,15.27l0,0.11c-3,12.32-10.19,29.4-15.88,42-4.4,9.7-7.9,16.69-7.9,16.69,4.33-3,8.16-7.44,11.54-12.83,7.9-12.57,13.33-30.22,16.8-46a1.31,1.31,0,0,0,.06-0.27c4-18.14,5.36-33.82,4.94-36.55,0-.11,0-0.22,0-0.33a19.83,19.83,0,0,1,1.26-8.26,39.11,39.11,0,0,1,2.63-6,43.66,43.66,0,0,0,16-16.48,61.36,61.36,0,0,1,5-7.61l0.8-1a37.25,37.25,0,0,1,7.48-7.34c1-.15,2-0.3,3-0.47a75.25,75.25,0,0,0,16.06-4.39,35.67,35.67,0,0,0,12.74-8.28c4.91-5.23,4.95-9.88,4.95-9.88,7.56-1.8,13.61-6.23,18.43-11.56h0c11.44-12.63,16-30.33,17.69-30.16,2.35,0.25-.35,30.94-0.35,30.94,3.23-4.7,5.88-26.77,7.37-42.12,0.58-5.86,1-10.75,1.18-13.31,0.1-1.25.15-2,.15-2l0.85-4.69v-0.07l1.55-8.64s1.66-7.18,2.83-9.43,4.77-10.79,5.39-17.56,1-12.23,1-12.23,2-10.3,5.11-21,3.06-15.32,3.06-15.44l5.91-17.77L1247,1251.3s3.64,42.37,12.58,50.63c5.21,4.81,3.77,20.52,1.66,32.82l4-19.11s-3.83-36.69-13.2-88.41c0-.08,0-0.15,0-0.23-0.38-2.06-.75-4.16-1.15-6.27-10.25-55.11,18.47-64.26,18.47-64.26s4-10,10.66-22.39c5.28-9.92,12.21-21.36,20-30.43l0.33-.39a68.83,68.83,0,0,1,9.24-9l0.43-.33v-6a0.91,0.91,0,0,1,.65-0.47S1310.65,1087.38,1310.65,1087.36Z" transform="translate(92 -789.23)"/><path class="cls-1" d="M1321,1829.23a61.06,61.06,0,0,1,7.17,4.95v15.24H1321v925.32H169.7L-6,1955l357.57-111.74L415,1821.31s0,0,0,0l27-9.36,2.19-.76,27.66-9.58h0l26.73-9.26,4.86-1.68s19.6,5.77,31.92-10.45c0,0,10.28-9.81,20.2-3s14-4.36,14-4.36,3.76-2.18,5.47.31,16.32-3.78,16.32-3.78,1.37-2.19,3.42,0c0.53,0.56,11.78-4.66,12.72-3.68-4.3,3.73-8.87,8.27-10.75,13.75-0.91,2.66-1.94,3.12-2,5.92q0,1,0,2.07c0.74,17.72,12.74,30,29,31.11a47.4,47.4,0,0,0,33.69-11.2c6.46-5.35,11.28-11.88,16.11-18.72,6.53-8.41,14.64-15.15,21.65-23.08a34.53,34.53,0,0,0,8.15-19.5,15.47,15.47,0,0,0,3.84-1.79c5.73-3.72,11.38-7.63,17-11.51a16.54,16.54,0,0,0,2-1.37c3.86-2.65,7.72-5.28,11.63-7.82,2.55-1.65,5.36-3,7.79-4.87a3.63,3.63,0,0,0,.31-0.25l0.35-.14c1.3-.56,2.61-1.1,3.9-1.68a41.93,41.93,0,0,0,11.42-7.32c3.89,3.32,7.64,6.35,12.43,7.75a33.56,33.56,0,0,0,4.72,1c3.45,7,11,11.32,17.63,8.75,8.08-3.11,13.08-12.73,10.85-22.76-0.08-.35-0.16-0.71-0.23-1.07s0-.57,0-0.86c0.11-.49.23-1.26,0.31-1.84l0-.08c0.34-.79.71-1.57,1.1-2.33,0.31-.61,1.34-2.2,1.34-2.26,0.38-.52.76-1,1.17-1.53l1.08-1.39a3.51,3.51,0,0,0,3.08-1.4c1.34-1.61,2.67-3.27,3.94-5l0.25-.19c1.3-1,2.63-1.84,3.92-2.81,2.26-1.69,4.52-3.38,6.83-5a101.37,101.37,0,0,1,8.7-5.42l0.24-.13c0.63-.28,1.25-0.58,1.87-0.85s1-.38,1.48-0.56c2.85,8.5,10.18,14.37,18.44,11.43,5.75-2,10.64-6.33,15.33-10.62,2.76-2.51,5.62-5,8.32-7.75l19.4-7.3c4.24,1.54,11.57,12.82,8.75,15.63-3.66,3.63-3.64,13.68-22,30.76,21.49-13.47,23.16-21.14,27.23-27.27,0.36-.55,2-5,2.24-5.52h402.13l-0.13.06c-0.14.07-.28,0.09-0.41,0.17a6.59,6.59,0,0,0-.62.4v157.83Z" transform="translate(92 -789.23)"/><path class="cls-1" d="M1318.3,1955.32c-5.28-.26-14.47-0.43-26.75-0.43-70.57,0-168.14,93.87-249,290.69-4.81-11.63-233.66-66.38-326.86,170.75-88.61,225.48-30.67,47.15-30.67,47.15s-101.85,189.2-89.21,193.2c0,0,144.37,91.17,193.91,91.41,102.62,0.49,528.59,0,528.59,0V1963.87C1317.71,1961.06,1318.37,1958.18,1318.3,1955.32Z" transform="translate(92 -789.23)"/><polygon class="cls-1" points="230.06 1708.87 218.3 1734.12 247.52 1958.86 268.17 1958.86 385.38 1886.86 335.66 1808.3 250.58 1734.12 230.06 1708.87"/><path class="cls-1" d="M735.19,1954.89c-71.77,196.43-123.45,437.32-9.18,476v-3.67c22.26,7.53,63.37-158.08,176.95-176.36,56-9,149.46,14.63,149.46,14.64s20.07-111.92,89.2-190.61l176.68-120H735.19Z" transform="translate(92 -789.23)"/><polygon class="cls-1" points="990.48 1139.44 912.93 1518.51 835.08 1542.8 652.73 1616.72 609.69 1662.83 534.14 1698.86 417.36 1243.8 405.52 1139.44 990.48 1139.44"/><polygon class="cls-1" points="401.23 1165.66 405.52 1306.14 255.89 1165.66 401.23 1165.66"/><path class="cls-1" d="M192.83,2443.72l-6.52-7.7-0.84-1-15.77-18.62L161,2406.15l-10.37-12.25-31.18-36.82,0-.05-20-23.62-0.08-.09-22-25.93-0.06-.07-0.12-.15-55.71-65.78-6.77-4.69L-3,2224.42l-3-2.08V1954.89H159.84l0,0.11-0.39,1.91-2.35,11.64,12.62,167.74,0.31,4.19h0l0.8,10.6,2.9,38.44h0l7.76,103.2,0.09,1.12,1.18,15.73,0.06,0.8,4.38,58.19h0l0.08,1.16,0.85,11.27,0.08,1.07,3.87,51.45,0.09,1.18Z" transform="translate(92 -789.23)"/><path class="cls-1" d="M160,2729.13l-4.37,14-0.5,1.62h0l-0.77,2.45-0.27.87H-90.45V2554.51c0.12,0,.27-0.07.45-0.1V2748h79.76c-1.58-2-3.19-4.1-4.81-6.27l9-5.84v-228.1H130.27l0.73,5.46,1.09,8.14,3.75,27.89v0L152.7,2675l2.94,21.95,0.73,5.46Z" transform="translate(92 -789.23)"/><path class="cls-1" d="M459.19,2748.09c-46.6-56.92-126.53-105.83-247.69-29.62l-50,24.67s0.19,1.74.21,4.95C161.76,2748.57,460.14,2749.25,459.19,2748.09Z" transform="translate(92 -789.23)"/><path class="cls-1" d="M797.51,2748.09c-13.94-27.2-38.37-50.23-80.8-54.9l-197.14-59.53-206.05-33.15-36.59,73,7.26,11.9s92.31-32.73,176.82,62.63h336.5Z" transform="translate(92 -789.23)"/><path class="cls-1" d="M726,2678.66l-20-365.18-34.7,10.73-160.2,74.12-35.22,42.84-42,21.72-12.53,37.36,124.33,34.05Z" transform="translate(92 -789.23)"/><polygon class="cls-1" points="665.7 1757.67 803.83 1877.38 788.74 1886.86 427.25 1817.35 463.31 1760.48 665.7 1757.67"/><polygon class="cls-2" points="222.25 1739.37 242.85 1815.64 264.68 1953.91 235.83 1953.91 227.83 1811.28 211.66 1751.46 222.25 1739.37"/><path class="cls-1" d="M-91.83,2424.87c0,1.5,0,3,0,4.21v-4.21Z" transform="translate(92 -789.23)"/><path class="cls-1" d="M-91.83,2408.37c5.47,3.43,11.41,7,16.9,10.63h-16.9v-10.63Z" transform="translate(92 -789.23)"/><polygon class="cls-1" points="179.78 1694.54 173.31 1695.41 173.3 1695.41 167.43 1696.19 167.17 1696.23 145.67 1699.1 89 1706.68 86 1707.08 86 1633.83 89 1635.77 130.59 1662.7 179.78 1694.54"/><polygon class="cls-1" points="119.48 1509.64 89 1520.82 86 1521.92 86 1418.38 89 1420.44 103.17 1430.21 106.71 1447.47 119.48 1509.64"/><path class="cls-1" d="M-91.83,2348.94l0.06,0a9.52,9.52,0,0,1-.06,1.25v-1.22Z" transform="translate(92 -789.23)"/><polygon class="cls-1" points="214.9 1664.82 213.67 1666.12 193.72 1687.17 130.59 1662.7 89 1646.58 86 1645.41 86 1633.83 80.08 1630 86 1630 86 1522.76 89 1522.04 129.08 1512.5 208.61 1653.66 214.9 1664.82"/><path class="cls-1" d="M561.31,2578.25c1.95,17.47-159.42-47.18-206.3-2.84h0c20.5-36.72,43.57-60.71,67.56-80.11,6.16-7.92,54.8,16.2,138.74,42.85v40.11Z" transform="translate(92 -789.23)"/><path class="cls-1" d="M157.8,1954.89l93.3,115.28,21.7-13c-1.7-3.44-4.13-8.22-7.26-13.8-20.73-37-48.17-67.13-72.57-88.46H157.8Z" transform="translate(92 -789.23)"/><polygon class="cls-1" points="229.17 1165.66 223.24 1288.88 230.12 1411.65 274.45 1344.13 346.83 1269.22 261.7 1165.66 229.17 1165.66"/><path class="cls-1" d="M125.5,1954.89l-8.74,140.48c18.36,15.62,14.49,118.93,14.49,118.93l13.9-27.1h0c-7.77-14.27-7.38-183.86-7.11-232.31H125.5Z" transform="translate(92 -789.23)"/><path class="cls-2" d="M449.41,2746.62c0.07,0.09,3.11,1.38,3.19,1.47,9.34,0,11.19,0,16.52,0a395.53,395.53,0,0,0-79.25-66.31,160.5,160.5,0,0,0-58.32-11.85c-45.32-.56-78.55,18.59-92.28,27.64l-10.11,16.31a241,241,0,0,1,149.34-16.36,171.06,171.06,0,0,1,60.85,36.9C444.14,2738.91,445.52,2742,449.41,2746.62Z" transform="translate(92 -789.23)"/><path class="cls-2" d="M785.94,2150c-73.38,56.8-90.41,175.89-93.49,199.88a91.08,91.08,0,0,0-31.51-12.21,82.76,82.76,0,0,0-38.22,2.22,378.83,378.83,0,0,0-43.63,44.63,449.6,449.6,0,0,0-41.44,59.17A1115.77,1115.77,0,0,1,546,2327c8.57-68.44,22.54-124.1,37.4-173,0.09-.3,34.92-90.68,34.86-91-7.6.64-36.4,49.85-59,123.79-6.78,55.3-12.68,74.66-20.33,129.77l-7.93,48.92c-4.2,4.71-35,39.07-59.9,58.3a229.65,229.65,0,0,1-21.06,14.45A174.05,174.05,0,0,1,428.55,2449a65.57,65.57,0,0,1-4.74,17.87c-6.69,15.47-17.38,21.17-21,22.85l-4.65,15.59s32.72-29.07,37.06-43.69a307.82,307.82,0,0,0,38.27-25.37,347.37,347.37,0,0,0,32.56-28.69,72,72,0,0,1,14.18,22.08,100.52,100.52,0,0,1,7.45,35.54,502.8,502.8,0,0,1,4.11,69.8,499.15,499.15,0,0,1-7.19,79.48,362.05,362.05,0,0,1-26.48-28.55,419.08,419.08,0,0,1-39.27-56.12,76.45,76.45,0,0,1-35.33,3.8c-14.57-1.9-32.64-15.81-40.06-20.49-0.57,3.41-4.45,5.8-5,9.21,20.6,5.52,51.08,20.17,71.68,25.69a207.69,207.69,0,0,0-72.06,6.07c-6.92,1.83-13.65,2-20,4.09a1.56,1.56,0,0,0-.8,1.45c-0.09,1.31-2,2.85-3.71,7.31,15-4.41,42.53-8.93,66.24-6.67a160.42,160.42,0,0,1,42.61,10.15,138.6,138.6,0,0,1,30.24,23.93,184.86,184.86,0,0,1,29.86,41.82s-72.94-23.84-98.11-25.29c0,0-56.94-5.88-68.28-23.17l-12.37,5.11-6.93,14.41s136.89,25.33,165.65,43.4c17.45,11,40.95,20.7,56.16,44.07,2.82,0.08,5.63-.33,8.44.17L568,2695l0.78-.07a93.91,93.91,0,0,1,10.49.05h0c-7.06-25.83-17.45-48.93-32.72-59.58-3.43-17.6-23.69-128,21.2-210.23,9-16.41,25.79-47.23,53.93-57.8,31.32-11.76,74.18,2.49,74.18,2.49,5.63-26.4,17.45-69.09,43-111,30.49-50.08,65.84-74.9,88.11-86.89v-21.5Z" transform="translate(92 -789.23)"/><path class="cls-2" d="M316.67,1954.89A816.05,816.05,0,0,0,330,2075.34l-18.06-17a853.93,853.93,0,0,1-20.5-103.47c1.14-49.29,12.73-31,26.26,0h-1Z" transform="translate(92 -789.23)"/><path class="cls-2" d="M-92,2173.84v0Z" transform="translate(92 -789.23)"/><path class="cls-2" d="M-92,2397.62l6.39,3.22-6.39-1.6v-1.62Z" transform="translate(92 -789.23)"/><path class="cls-2" d="M161.54,2401.17l-0.53,5-3.17,30-0.11,1-0.69,6.53-6,17.09L138.77,2496,138,2498.1l-6,23.29-1.84,7.21-1.36,5.31-1.11,1.65-6.78,11h0l-1.15,2.1c1.15-20-44.4-26.54-61.22-28.25-3.79-.39-6.09-0.53-6.09-0.53,4.11-.91,5.26-5.85,4.92-12.08s-2.05-13.41-3.79-19.46c-2-6.8-3.92-12-3.92-12,8.21,0,21.33,6.86,25.42,9.12l1.21,0.68c-0.32-.25-0.63-0.49-0.95-0.72q-6.46-4.89-12.72-9.21h0a0,0,0,0,1,0,0C38,2459.07,15.73,2447.91-3,2440.65c-1-.39-2-0.77-3-1.13v-16.46l-5.92-4.06H-6v-3.86q1.56-.15,3-0.36c12.62-1.77,18.17-6.46,18.17-6.46H15a2,2,0,0,0,.33.3,31.9,31.9,0,0,0,8.15,10c0.16,0.14.41,0.26,0.58,0.39h0c23.86,23,81.15,47.67,81.15,47.67C121.38,2433.94,33.6,2319,33.6,2319c-9.72-3.15-22.49-2.82-36.6-.35-1,.17-2,0.38-3,0.58V2312l-6.48,1.54,6.48-2.38v-14l3-1.66c15.43-8.49,25.37-14.3,25.37-14.3-1.8-10.82-11.88-24.22-25.37-37.84-1-1-2-1.92-3-2.88v-52.82c1,1,2,1.93,3,2.87l0,0c21.3,20.8,37.28,33.61,37.28,33.61-3.86,19.23,24.72,59.68,42.91,83l0.11,0.15,0.06,0.07c8.15,10.46,14.19,17.44,14.19,17.44l7.79,8.49,0.08,0.09,16.73,18.25L151.32,2390Z" transform="translate(92 -789.23)"/><path class="cls-2" d="M119.65,2540.69S105,2522,58.68,2520.4c-16.36-.56-36.68,1-61.68,6.32l-3,.66v-64.46c1,0,2,.08,3,0.08h0c19.59,0,41.74,3.76,65.66,13.23,0,0,0,0,0,0s0,0.18,0,.18c6.08,2.42,12.29,4.6,18.59,8.6h0a246.8,246.8,0,0,1,37,23c0.31,0.22.62,0.37,0.93,0.6Z" transform="translate(92 -789.23)"/><path class="cls-2" d="M-92,2419v0h0Z" transform="translate(92 -789.23)"/><path class="cls-2" d="M-91.91,2430.21c0-.32.06-0.7,0.08-1.13v1.11Z" transform="translate(92 -789.23)"/><path class="cls-2" d="M24.07,2419H-6v-20.46c1-.09,1.87-0.15,2.82-0.18,18.5-.57,18.18,8.87,18.18,10h0a0.26,0.26,0,0,0,.17.1l0.25,0.2,8.1,9.85Z" transform="translate(92 -789.23)"/><path class="cls-2" d="M148.47,2748.09l-4.64-4.95s-0.54-3.78-2.39,4.95C143.79,2748.05,146.13,2748.08,148.47,2748.09Z" transform="translate(92 -789.23)"/><path class="cls-2" d="M143.83,2743.14c0.28,1.65-.83,4.91.84,4.95,26.38,0.65,27.94,0,27.94,0l0.07-4.95H143.83Z" transform="translate(92 -789.23)"/><path class="cls-2" d="M173.5,2748.09c-0.28-5.19-.82-4.95-0.82-4.95H161.54c0.55,2.56,1,2.37,1.22,4.95C166.37,2748.1,169.93,2747.84,173.5,2748.09Z" transform="translate(92 -789.23)"/><polygon class="cls-2" points="517.95 1697.44 531.2 1682.89 540.73 1660.16 519.01 1649.06 507.31 1649.06 507.31 1669.61 517.95 1697.44"/><polygon class="cls-2" points="260.17 1953.91 321.16 1924.63 331.27 1908.32 260.17 1940.5 260.17 1953.91"/><path class="cls-2" d="M317.68,1954.89c-5.9.78-11.7,0.16-17.54,0.25a2.73,2.73,0,0,0,0,.34c2.63,26,6.16,54.63,10.79,86.14l13.17,15.22S317.89,1955.34,317.68,1954.89Z" transform="translate(92 -789.23)"/><path class="cls-3" d="M425.46,2269.94q-0.1,8-.2,16c-0.86,5.4.1,10.85-.51,16.25q-0.1,8-.21,16.09c-0.89,5.37.09,10.81-.53,16.19q-0.1,8.06-.19,16.13c-0.9,5.36.06,10.78-.52,16.15q-0.11,8.06-.21,16.13c-0.79,4.3-.15,8.63-0.36,12.95a14.93,14.93,0,0,1-.22,4q-0.1,8-.2,15.95c-0.85,5.42.16,10.9-.53,16.33q-0.1,8-.2,15.95a42.81,42.81,0,0,0,0,11.43c2.1,8.79,5.67,17.09,8.49,25.63,3.85,11.63,8,23.16,11.92,34.76,0.49,1.45,1.14,2.93.88,4.55-0.72,1.18,0,2.58-.55,3.79a52.15,52.15,0,0,0,0,10.32c0.61,1.44-.24,3.06.57,4.47,0.48,11.13,4.14,21.48,7.94,31.78,1.16,3.16,2.05,6.6,4,9.28,3.67,5.17,3.05,10.46,1.89,16.06-2.23,10.76-4.2,21.57-6.5,32.31-1,4.65,1.06,8.74,1.84,13,1.7,9.35,4,18.61,6.1,27.88,0.38,1.64-.35,2.88-0.88,4.15-9.34,22.49-18.78,44.93-28.08,67.43-0.9,2.17-2,2.75-4.29,2.74-17.85-.1-35.7-0.25-53.54.08-4.42.08-7-1.79-9.56-4.74-6.11-7.12-12.3-14.18-18.42-21.29-7.39-8.58-14.68-17.24-22.13-25.76-2.25-2.58-5.75-3.2-8.72-4.52-10.56-4.69-21.2-9.23-31.93-13.51-4.2-1.67-4.83-4.91-5.5-8.62-1.38-7.69-2.72-15.4-4.65-23-1.16-4.56-5-7.83-7.62-11.63-6.72-9.63-13.77-19-20.67-28.52a9.25,9.25,0,0,0-4-3.27c-6.67-2.93-13.68-4.93-20.4-7.7a8.7,8.7,0,0,1-4.41-3.44c-7.4-11.33-15.07-22.48-22.56-33.76a9.83,9.83,0,0,0-3.94-3.43c-9.34-4.82-18.54-9.91-28-14.56-3.63-1.79-3.88-5.34-5.14-8.18-5-11.19-9.4-22.61-14.12-33.9s-9.65-22.77-14.46-34.16c-2.58-6.11-4.84-12.36-7.82-18.31-1.25-2.5-.52-5.27.09-7.73,3.71-14.92,7-29.93,10.2-45,0.93-4.38,1.84-8.8,3.14-13.08a5.43,5.43,0,0,0-.72-5c-5.55-9.11-10.87-18.36-16.57-27.37-2.44-3.85-.74-7.49-0.26-11.11,1.1-8.36,2.71-16.64,4.12-25,1.36-8,2.75-15.94,4.09-23.92,0.9-5.39,2.47-10.8,2.37-16.18-0.09-5-2-9.94-3.12-14.9-0.55-2.42-.71-4.92-1.82-7.22a3.08,3.08,0,0,1,.43-2.7q8.62-16.42,17-33c5.93-11.65,11.74-23.36,17.67-35,1.9-3.73,3.91-7.41,6-11.05,5.91-10.45,8.24-22.23,12.41-33.33a9.33,9.33,0,0,1,2.37-3.94c8.79-7.76,16.2-16.85,24.32-25.26,5.16-5.34,10.9-9.59,17.68-12,8-2.86,12.43-8.07,14.53-16.08,1.81-6.94,8.24-9.69,13.46-13.47,7.31-5.31,15.26-9.73,21.49-16.5,9-9.79,20.19-16.55,32-22.42,5-2.46,9.71-5.36,14.6-8,3.76-2,5.66-5.8,8.38-8.78,4.86-5.32,9.49-10.89,13.86-16.62,9.3-12.19,23-18.66,34.86-27.61,3.55-2.69,7.61-4.71,10.72-8h73.36q0,0.69,0,1.38c-0.76,1.16,0,2.54-.55,3.73l-0.2,3.55c-0.71,1.19,0,2.57-.53,3.78l-0.22,3.48c-0.66,1.22,0,2.62-.53,3.86l-0.15,2.91c-0.78,1.14-.06,2.49-0.52,3.68l-0.21,3.66c-0.79,1.14,0,2.5-.54,3.68l-0.21,3.61c-0.75,1.16,0,2.53-.53,3.72l-0.22,3.56c-0.71,1.19,0,2.57-.53,3.78l-0.22,3.48c-0.66,1.22,0,2.62-.53,3.86a116.81,116.81,0,0,0,6.76,23.5c4,9.48,2.24,18.31.22,27.47-1.17,5.28-2.31,10.56-3.4,15.85-0.75,3.67,1.33,6.73,3,9.45,3.56,5.75,3.08,11.37,1.72,17.56-2.42,11-4.06,22.27-6.32,33.35-1.23,6-5.24,10.85-8.05,16.18-3.49,6.61-7.31,13-11,19.56a3.53,3.53,0,0,0-.72,2.37c1.38,8,.21,16,0.93,24,0.1,3.41.61,6.83-.3,10.2Q426,2220.7,421,2230.88a4.93,4.93,0,0,0-.78,3.45q2.65,10.51,5.33,21A121.15,121.15,0,0,1,425.46,2269.94Z" transform="translate(92 -789.23)"/><path class="cls-4" d="M387.16,2314.72c0.53,11.64,1.65,23.23,2.83,34.81,0.67,6.52,1,13.06,1.58,19.59,0.94,11.12,2.43,22.21,2.73,33.35,0.34,12.41,1.11,24.89-.5,37.28-1.32,10.19,1.23,19.22,7,27.59,2,2.9,3.52,6.12,5.31,9.16a6.6,6.6,0,0,1,.9,5.2c-0.79,3.18-1.5,6.38-2.16,9.58-0.19.94-.45,1.63-1.52,1.71-1.61.62-2.82-.43-4.08-1-6.24-3-12.36-6.31-18.68-9.19-6.86-2-13.91-3.19-20.88-4.74a19.13,19.13,0,0,1-3.85-1,5.92,5.92,0,0,1-2.12-1.78c-5.49-7.23-11.39-14.15-16.94-21.34a34.49,34.49,0,0,0-3.56-3.72c-4.85-1.59-9.91-2.29-14.85-3.46a22.29,22.29,0,0,1-5.2-1.58c-2.85-2.47-3.2-6.17-4.65-9.34-2.85-4.12-6.48-7.57-9.81-11.26-3.75-4.16-8.14-7.71-11.69-12.09-1.26-4.77-.69-9.6-0.44-14.41a20.59,20.59,0,0,0,.08-8.85c-0.1-3.82,1.67-7.36,1.66-11.16,0.57-3.29-1.12-6.27-1.28-9.46a134.05,134.05,0,0,1,13.09-14.38c3-4.71,3.7-10.21,5.4-15.37a17.88,17.88,0,0,1,4.78-7.62c2.61-1.89,5.88-3.2,6.14-7.12q6.14-30.14,12.27-60.27a12.75,12.75,0,0,1,.67-2.84c1.87-1.3,4.47.58,6.19-1.42,5.42,3,11.56,2.37,17.35,3.51,4.39,0.87,8.9,1.14,13.19,2.51,5,5,10.41,9.55,15.41,14.55a95.05,95.05,0,0,1,7.63,21.93C390.12,2306.14,388.82,2310.63,387.16,2314.72Z" transform="translate(92 -789.23)"/><path class="cls-5" d="M349,1996.32c2.24-3.77,6.45-4.86,9.84-7,8.44-5.29,17.16-10.12,25.69-15.26a8.09,8.09,0,0,1,4.43-1.25c13.9,0,27.8.07,41.69,0,2.72,0,3.45.4,2.88,3.47-1.37,7.48-2.19,15.07-3,22.64-0.18,1.57-1.58,2.48-1.53,4,1.08,1.69.22,3.34-.26,4.91-7.16,23.71-14.12,47.48-21.5,71.13a29.67,29.67,0,0,0-1.07,14.39c0.77,4.32,1.1,8.71,1.69,13.06a14.07,14.07,0,0,1-1.61,8.84c-3.67,6.76-6.5,13.93-10.06,20.74-2.18,4.18-2.14,8.74-2.68,13.18-0.79,6.54-1.89,13-2.46,19.6a4.77,4.77,0,0,1-.49,2.13c-2.64,4.22-5.2,8.52-9.08,11.8-9.64,2.74-19.52,4.44-29.25,6.75-3.68.87-7.39,1.65-11.08,2.48-1.67.37-3.35,0.77-5-.08-1.55-1.26-1.37-3-1.38-4.73,0-7.45,0-14.91,0-22.36,0-1.84-.12-3.89,1.1-5.29,3.88-4.49,3.41-10,3.95-15.29,0.75-7.28,1.25-14.59,2-21.87,0.27-2.49.47-5.07-1.33-7-3.53-3.74-4-8.14-3.55-12.92,1.13-11.54,1.63-23.12,2.76-34.66a16.28,16.28,0,0,1,3.15-8.44c2.74-3.66,3.48-7.75,3.73-12.33,0.85-15.61.38-31.25,1.35-46.84A7.77,7.77,0,0,1,349,1996.32Z" transform="translate(92 -789.23)"/><path class="cls-5" d="M141.39,2254.56c-0.23-4,2.75-6.82,4.11-10.23,0.4-1,1.18-1.85,1.67-2.82,7.31-14.35,14.57-28.73,21.92-43.06,6.24-12.15,12.59-24.24,18.88-36.36a3.79,3.79,0,0,1,1.83-2.18c1.31-.43,2.09.48,2.84,1.22,7.41,7.37,14,15.32,18,25.16a36.75,36.75,0,0,1,2.12,7.76c2.21,13.45,9.71,23.25,21.21,30.08a14.91,14.91,0,0,1,6.58,7.5c3.48,8.52,5.6,17.44,7.9,26.3a13.48,13.48,0,0,0,5.19,8c4.68,3.5,9.25,7.21,12.7,12.07,1.29,1.81,2.54,3.59,2.82,5.87a9.3,9.3,0,0,1-1.47,4.84c-4.09,8.05-7.49,16.43-11.37,24.58-3.1,6.51-9,9.94-15.76,11.89-5.89-.22-11.61-1.6-17.34-2.77-3.8-.78-5.93-4.17-8.34-6.88q-6.7-7.53-13.5-15a5.41,5.41,0,0,0-3.83-1.82c-12.89-1-22.35-6.89-27.55-19.16a22.29,22.29,0,0,0-8.67-10.19c-5.87-3.74-11.44-8-17.26-11.78C142.91,2256.91,141.26,2256.45,141.39,2254.56Z" transform="translate(92 -789.23)"/><path class="cls-6" d="M288.11,2413c7.75,6.7,14.47,14.4,21.27,22-6.09,6-13.23,10.77-19.58,16.46a49.93,49.93,0,0,1-19.68,10.84c-3.68,1.08-6,3.41-7.92,6.55-2.44,3.9-4.2,8.3-7.83,11.39-7.71,2.71-15.59,4.84-23.5,6.82-3.43.86-5.79,2.3-6.49,5.92-0.76,3.95-3.2,6.59-6.44,8.88-11.42,8.11-22.7,16.42-34,24.65-1.51,1.1-2.88,2.75-5.11,2.38-3.64-5.94-5.55-12.63-8.12-19-8.89-22.08-17.66-44.22-26.47-66.33-0.53-1.33-1.38-2.62-.62-4.15,1-1.1,2.4-1.16,3.69-1.4,5.88-1.07,11.78-2.09,17.65-3.24,2.94-.57,5.76-0.69,8.59.62a10,10,0,0,0,6.12.5,38.1,38.1,0,0,1,6.88-.94c4.47,0,7.36-2,9.18-5.92,1.09-2.39,3.07-3.48,5.7-4,8.71-1.79,17.38-2.47,26,.11a13.6,13.6,0,0,0,12.17-2,79.57,79.57,0,0,1,8-4.38c12.14-3.92,24.83-4.72,37.35-6.51A4.31,4.31,0,0,1,288.11,2413Z" transform="translate(92 -789.23)"/><path class="cls-5" d="M266.11,2064.55c4.54-3.92,10-6.42,15-9.49,14.25-8.66,28.6-17.16,42.91-25.72a2.92,2.92,0,0,1,.69,1c0.62,2.39-.09,4.93.8,7.3,0.37,3,.52,6.07.92,9.09a26.86,26.86,0,0,1-2.48,15,38.38,38.38,0,0,0-3.34,17.78c0.27,7.8.11,15.61,0,23.42a12,12,0,0,0,2.19,7.2c2.7,3.91,5.24,7.94,7.83,11.93a14.54,14.54,0,0,1,2.5,8.59,66,66,0,0,0,.62,13.86c1.27,6.77-2.06,12-5.75,17.13-1.06,1.38-.85,3-0.85,4.57,0,8.17-.07,16.33,0,24.5a13.57,13.57,0,0,1-2.52,8.21q-10.5,15.19-20.69,30.59c-0.94,1.42-1.88,2.87-3.6,3.5-2.75.1-3.9-1.85-4.62-4-2.93-8.54-5.52-17.2-8.33-25.78a11.1,11.1,0,0,1,.06-5.8q1.84-8.78,3.87-17.52a15.08,15.08,0,0,0,0-6.86c-3.42-15.25-7.74-30.28-11-45.56-0.89-4.14-3.27-7.33-5.71-10.5a20.22,20.22,0,0,1-3.87-10.44c-1.41-11.87-3.23-23.69-4.71-35.55C265.89,2068.87,265,2066.71,266.11,2064.55Z" transform="translate(92 -789.23)"/><path class="cls-6" d="M355.61,2476.12c8.54,2.06,17.27,3.24,25.68,5.87,0.58,1.47.09,2.89-.22,4.31-2,9.06-4.19,18.08-6,27.18-0.93,4.66-3.59,8.2-6.17,11.89-1,1.48-2.47,2.75-2.63,4.72-3.8,12.77-3.24,25.54,0,38.32a9,9,0,0,1,0,4.71C364,2581,362.32,2589,360,2596.89a23.36,23.36,0,0,1-3.66,7.13c-3.86,5.35-7.38,10.94-11.27,16.27a16.05,16.05,0,0,0-3.06,8.88c-0.24,4.76-.79,9.49-1.37,14.21a12.83,12.83,0,0,0,.29,5.82c1.9,5.39,1.55,10.79.43,16.25-0.9,4.38-.72,9-2.64,13.16-9.56-4-18.6-9-27.85-13.64-5.22-2.61-10.38-5.34-15.54-8.07-1.12-.59-2.69-0.75-2.83-2.49-0.71-3.59.69-6.92,1.31-10.35,0.52-2.88,1.41-5.71,1.8-8.6,0.8-6,2.77-11.05,8.31-14.22a5.89,5.89,0,0,0,2.65-3.84c2-8.48,5.91-16.28,9.08-24.33,1.15-2.93,1.52-5.6,0-8.42-0.23-.43-0.31-0.93-0.55-1.36-2.65-4.81-2.27-9.43.3-14.23,2.36-4.4,4.19-9.09,6.14-13.69a12.92,12.92,0,0,1,4.52-5.65,15,15,0,0,0,5.33-7.25c2.54-6.61,5.37-13.1,8-19.67a6.1,6.1,0,0,0,.51-5.6c-0.86-2.08-.34-4.06.48-6q6.62-15.84,13-31.77A6.34,6.34,0,0,1,355.61,2476.12Z" transform="translate(92 -789.23)"/><path class="cls-5" d="M338.73,2678.6c0-6.59,1.75-13,2.59-19.45a12.07,12.07,0,0,0-.54-6c-2.42-6.15-.55-12.26-0.24-18.38a9.84,9.84,0,0,0,.34-1.41c-1-7.84,3-13.68,7.45-19.47,2.8-3.67,5.29-7.58,7.94-11.37,3.59-5.16,4.06-11.38,5.82-17.16,1.27-4.18,2.18-8.47,3.28-12.7,0.9-3.47-.93-6.62-1.17-10-0.26-3.6-1.32-7.13-1.91-10.72-0.87-5.29.95-10.32,1.71-15.45,0.34-2.27.78-4.53,1.17-6.8,1.41-2.21,3.19-1.28,4.8-.44,6.38,3.32,13,6.11,19.43,9.36,3.81,1.93,7.79,3.47,11.6,5.4,1.63,0.82,3.35,1.58,3.8,3.65-0.55,6.62-3.05,12.78-4.66,19.14s-3.37,12.74-5.22,19.07a17.72,17.72,0,0,0-.27,8.68c1.76,8.73,3.74,17.42,5.42,26.18a16.26,16.26,0,0,1,0,7.25c-2,7.66-1.67,16.16-6.1,22.86-7.3,11-7.95,23.62-10.12,35.93-0.75,4.23-.91,8.22,1.85,11.87a4.49,4.49,0,0,1,.91,3.12c-0.71,6.41-.26,12.93-1.71,19.28a1.93,1.93,0,0,1-.63.88c-1.17.73-.42,2.07-0.93,3-4.52-4.3-9.07-8.59-13.56-12.93-1-1-1.83-2.27-2.84-3.31q-13.24-13.65-26.52-27.27C339.61,2680.55,338.71,2679.85,338.73,2678.6Z" transform="translate(92 -789.23)"/><path class="cls-6" d="M268.31,2283.9c-1.23-4.71-4.65-7.91-7.92-11.13a54.83,54.83,0,0,0-7.6-6.21,12.33,12.33,0,0,1-5.15-7.85c-2.3-9.06-4.5-18.16-8-26.87a13.54,13.54,0,0,0-6.1-6.89c-11.86-7-19.67-17.08-21.76-31.09-1.38-9.23-6.51-16.63-12.13-23.73a58.9,58.9,0,0,0-9.84-10.22c0.78-6.87,1.51-13.74,2.38-20.6,0.21-1.63,1.5-2.74,2.64-3.87,7-7,14.08-13.93,21-21,2-2.1,4.07-3.2,7-3s5.86,0.05,8.8.06c1.42,0.86,1.61,2.38,2,3.78,1.08,4.26,2.07,8.54,3.23,12.77,2.14,7.84,4,15.67,8.44,22.82,5.39,8.71,7.64,18.53,8.1,28.92,0.32,7.07.45,14.13,0.49,21.19a9.85,9.85,0,0,0,2.47,7c5.51,6.2,8.31,13.7,9.87,21.73,1.33,6.83,3.11,13.58,4.13,20.44,0.9,6,3.86,10.66,8,14.81a34.4,34.4,0,0,1,5.31,6c2.27,4.94,2.59,10.37,3.86,15.55,1,4,1.83,8.08,2.64,12.14,0.31,1.55.52,3.26,1.63,4.41,4.53,4.67,5.3,10.8,6.69,16.7,0.42,1.78.92,3.55,1.18,5.35a23.88,23.88,0,0,0,6.85,13.79c-1.34,4.4-2.66,8.8-4,13.18-0.35,1.12-.44,2.46-1.83,3-4.26-2.47-7.49-5.78-8.78-10.69a20.32,20.32,0,0,1-.62-2.48c-1.43-11-6.43-20.34-13.61-28.59a29.58,29.58,0,0,1-7-15.42C269.87,2293.22,268.69,2288.63,268.31,2283.9Z" transform="translate(92 -789.23)"/><path class="cls-6" d="M337.27,2453.38c5.73,7,11.58,13.92,16.87,21.28a6.53,6.53,0,0,1-.9,4.55c-5.66,11.22-10.55,22.81-16.33,34-2.35,4.54-4.12,8.78-1.43,13.68a75.87,75.87,0,0,1-8.08,19.11c-2,3.25-5.61,5.36-8.6,7.86a13.57,13.57,0,0,0-4.13,5.46c-3.3,8.27-6.68,16.52-10.2,24.7-1.12,2.61-1.2,5,.39,7.26,3,4.3,3.21,8.7,1,13.43a43.62,43.62,0,0,0-2.34,6.93,14.72,14.72,0,0,1-5.22,8.1c-3.55,2.77-4.94,7.18-7.17,10.94-0.85,1.43-1.17,3.28-3,4-5.86-6.47-10.49-13.88-15.81-20.78-5.62-7.29-11-14.77-16.48-22.16a6.37,6.37,0,0,1-1.47-3.28c-0.92-1.18-.25-2.33.06-3.48a14.17,14.17,0,0,1,.81-2.43c3.86-8.07,4.64-16.62,4-25.39a12.09,12.09,0,0,1,3.32-9.72,51,51,0,0,0,4.13-5.14c1.71-2.35,3.77-4.11,6.79-4.57a8,8,0,0,0,5.13-3.29c5.94-7.61,12.13-15,18.11-22.6,1.4-2.79.62-5.77,0.67-8.65a12.13,12.13,0,0,1,2.08-6.87c2.46-3.65,5.13-7.15,7.53-10.84,1.78-2.73,3.23-5.82,7.15-6.2,1.11-.11,1.68-1.33,2.39-2.17,6-7.07,12-14.19,18-21.23C335.38,2454.88,336,2453.72,337.27,2453.38Z" transform="translate(92 -789.23)"/><path class="cls-5" d="M152.39,2355.8a182.18,182.18,0,0,1-14.78-13.61,5.17,5.17,0,0,1-1.33-4.71c1.31-10.09,2.75-20.17,4.05-30.26,1.38-10.7,2.66-21.41,4-32.11a0.69,0.69,0,0,1,.33-0.13c6.35,3,12.8,6.08,16.08,12.78,2.78,5.7,5.09,11.63,9.12,16.62,3.47,4.3,7.57,6.62,13.4,5.1,7.57-2,13.56,1.49,18.84,6.4a115.57,115.57,0,0,1,9.76,10.87c3,3.64,6.31,6.62,11.23,7.59,4.05,0.8,8,2,12,3.24,1.8,0.54,3.5,1.2,3.92,3.37-1,9.91-2.89,19.69-4.31,29.53a3.36,3.36,0,0,1-1.74,2.63,1.7,1.7,0,0,1-1,.26c-5-1.78-8.36,1.26-11.82,3.9a7.46,7.46,0,0,1-6.84,1.41c-6.75-1.69-13.45-3.57-20.2-5.26-3.18-.8-5.3-3-7.29-5.29a17.63,17.63,0,0,0-10.58-5.9c-6.47-1.21-12.82-3.09-19.21-4.7A7,7,0,0,1,152.39,2355.8Z" transform="translate(92 -789.23)"/><path class="cls-6" d="M381.29,2181.94c2.77-3.67,5.94-7.12,8.16-11.1,1.26-2.27,1-5.4,1.34-8.15,0.79-6.74,1.45-13.5,2.29-20.24a18.16,18.16,0,0,1,1.45-5.25c2.75-6,5.21-12.17,8.63-17.76a24,24,0,0,0,2.92-19.23c-2.63-10.22-.59-19.72,2.48-29.48,7.08-22.51,13.64-45.18,20.41-67.79,0.72-.23,1.24-0.48,1.5.71q4.21,19,8.57,37.89c0.92,4-.56,7.72-1.36,11.46-2.52,11.71-5.3,23.37-8,35,0.79,2,.08,3.82-0.45,5.68-2.87,10.1-5.81,20.18-8.67,30.29a16.45,16.45,0,0,0-.85,5.77c1,13.19-2.31,25.36-8.43,36.91-1.54,2.91-2.62,6-4.08,9a20,20,0,0,0-2.2,10.26c0.23,3.79-1,7.5-.69,11.31a22.38,22.38,0,0,1-.31,3.67c-0.66,1.95-.45,4-0.42,6a24.81,24.81,0,0,1-.3,4.8,25.47,25.47,0,0,0-.71,4c-3.44,7.7-8.33,14.6-12.34,22-0.7,1.29-1.36,2.6-2.14,3.83-2.6,4.11-3.84,8.34-1.85,13.11a6.59,6.59,0,0,1,.27,4c-1.58,6.64-2.94,13.33-4.68,19.94a3,3,0,0,1-1.3,1.71L368,2268.76a3.24,3.24,0,0,1-1.36-2.46c-1-1.27-.37-2.59-0.06-3.85,1.2-4.85,2.48-9.68,3.43-14.58a13,13,0,0,1,4-7.62,8,8,0,0,0,2.28-4.87c0.41-2.28.59-4.61,1.18-6.84,1.23-4.58,1.46-8.81-2.43-12.4a4.55,4.55,0,0,1-1-4.47c2.13-9.38,4.18-18.79,6.41-28.15A3.85,3.85,0,0,1,381.29,2181.94Z" transform="translate(92 -789.23)"/><path class="cls-5" d="M247.77,2419.63c-3.27,1.88-6.56,3.73-9.81,5.66a10.86,10.86,0,0,1-9.1,1.14c-9.53-2.81-19.13-2.16-28.73-.22a4.54,4.54,0,0,0-3.36,3c-2,4.28-4.68,6.66-10,6.79-5.62.13-11.08,2.28-16.76-.64-1.66-.85-4.45.45-6.71,0.81-6.58,1.05-13.05,2.77-19.73,3.27-1.21-3.28.35-6.38,0.85-9.46,3-18.07,6.22-36.09,9.36-54.12,0.18-1.06-.07-2.31,1.53-2.45a3.55,3.55,0,0,1,3.41-.79c5,1,10.28.74,14.34,4.59,0.89,0.84,2.21,1,3.4,1.23,14.24,3.26,28.56,6.16,42.8,9.4a7.79,7.79,0,0,0,5.56-1c2.31-1.16,4.25-3.43,7.26-2.85,2.35,2.86,3.62,6.34,5.07,9.65,3.19,7.27,7.13,14.19,10.13,21.54C247.89,2416.63,249,2418,247.77,2419.63Z" transform="translate(92 -789.23)"/><path class="cls-5" d="M410.63,2514.27c0.36-1.58-1-4.05.8-4.6,1.64-.5,1.77,2.21,2.73,3.38,2.81,3.41,3.68,8.23,7.86,10.72,0.49,0.29.33,1.83,0.33,2.79,0,10,.05,20,0,30.07a12.5,12.5,0,0,0,1.41,6c4.92,9.69,9.7,19.46,14.66,29.13a6.56,6.56,0,0,1,.33,5.86c-3.82,9.88-7.38,19.86-11.32,29.69a21.69,21.69,0,0,0-1.25,13.47c2.63,11.47,4.94,23,7.46,34.52a5.57,5.57,0,0,1-.09,3.16Q425.71,2702.2,418,2726a4.43,4.43,0,0,1-1.45,2.48c-1.49-.46-1.85-1.82-2.42-3-5.27-11.15-10.16-22.48-15.56-33.57A16.44,16.44,0,0,1,397.4,2679c4.85-15.88,9.26-31.91,14-47.84a16.57,16.57,0,0,0,.2-9.34c-3-11.2-5.89-22.45-8.91-33.65a16,16,0,0,1-.06-8.62c2.54-9.56,5.13-19.11,7.67-28.67a16.94,16.94,0,0,0,.71-7.23c-0.8-4.62-.55-9.25-0.64-13.89-0.37-3.08,1-6.22-.36-9.26C409.56,2518.32,409.08,2516.19,410.63,2514.27Z" transform="translate(92 -789.23)"/><path class="cls-5" d="M283,2271.43c-2.71-3.6-6.25-6.44-9.09-10a16.79,16.79,0,0,1-3.66-7.33c-2-9.85-4.13-19.7-6.33-29.52a36.35,36.35,0,0,0-9.07-16.82,6.47,6.47,0,0,1-2-4.85c0.15-9.38.3-18.78-.75-28.11a63.67,63.67,0,0,0-10.94-29.08,10.64,10.64,0,0,1-1.67-3.54c-2.57-10.25-5.25-20.47-7.89-30.7,2.94-7,7.3-13.13,11.17-19.56,1.72-2.87,2.75-6.27,5.7-8.32,1.47,1.18,1.59,3,2,4.6,2.91,11.61,5.64,23.26,8.32,34.92,0.85,3.69,2.46,6.66,5.77,8.46,5.44,3,7.58,7.72,8.6,13.6,1.31,7.57,3,15.12,5,22.52a51.72,51.72,0,0,1,1.15,25c-1.45,6.83-.57,13.25,1.75,19.7s4.26,13.25,6.21,19.93a9.48,9.48,0,0,0,3.19,5.2c1.2,0.92,2.16,2,1.9,3.71-2.49,8.81-4.69,17.71-7.13,26.53C284.89,2269.15,285.11,2271.07,283,2271.43Z" transform="translate(92 -789.23)"/><path class="cls-6" d="M313.06,2444.57c7.08,1.76,14.42,2.44,21.28,5.14-3.26,5.33-8,9.43-11.91,14.2-4.1,5-9.19,9-13.79,13.44a132,132,0,0,0-19.44,23c0.92,6.66-1.92,11.68-6.55,16.17a45.21,45.21,0,0,0-5.77,6.59,8,8,0,0,1-8.09,3.82,8.57,8.57,0,0,0-8.32,3.5c-4,5.24-8.93,9.67-13.63,14.28-3.33,3.26-5.42,6.83-4.74,11.65a15.07,15.07,0,0,1-4.39,13c-2.4,2.54-3.7,6-6.82,8-1.31.83-1.66-.38-2.18-1.08q-9.63-12.92-19.2-25.87a6.54,6.54,0,0,1-.63-1.66c-0.41-2,1.07-3.13,2.12-4.4,3.36-4,6.76-8,10.05-12.12a39,39,0,0,1,8.86-7.61c5.16-3.5,10.33-7,15.56-10.35,2.95-1.91,5.53-4.09,6.54-7.58,2.69-9.26,10.05-13.63,18-17.43a13.86,13.86,0,0,0,7.75-8.32c0.2-.57.58-1.08,0.8-1.65a41.84,41.84,0,0,1,17-20.86c5.17-3.35,9.39-8.13,14.18-12.11C310.68,2445.5,311.41,2444.15,313.06,2444.57Z" transform="translate(92 -789.23)"/><path class="cls-6" d="M324.07,2030.07c0-.24,0-0.49,0-0.73,5.67-6.49,10.08-13.93,15.48-20.63,3.26-4,5.52-8.86,9.46-12.39,0,14-1,28-.9,42,0,4.57-.58,9.21-0.55,13.83,0,2.7-1.65,4.74-3.1,6.47-3.13,3.73-3.79,8.1-4.17,12.53-0.7,8.22-1.08,16.48-1.54,24.72-0.17,3-.57,6.06-0.89,9a11.08,11.08,0,0,0,3.41,9.43,6.5,6.5,0,0,1,1.87,5.34c-0.91,9.41-2.06,18.8-2.64,28.22-0.28,4.62-.78,8.86-4.08,12.39a3.86,3.86,0,0,0-.59,2.42c0,8.91,0,17.83,0,26.74a2.24,2.24,0,0,0,.72,2c2,2.08,2.49,4.73,2.52,7.43,0.12,8.53,0,17.06,0,25.6a9.82,9.82,0,0,1-2.7,7c-2.22,2.36-2.59,5-2.12,8.12,0.76,5.06,1.13,10.17,1.75,15.25,0.2,1.66.4,3.43-1,4.84-1,2.87-2.22,3-5.13.74-1.57-1.8-1.46-4.09-1.74-6.23-0.74-5.56-1.34-11.14-2-16.71a11.29,11.29,0,0,1,1.47-7.74,13.61,13.61,0,0,0,1.93-7.68c-0.06-5.86,0-11.71,0-17.57,0-3.29.33-6.61-2.3-9.28-0.69-.7-0.61-1.81-0.61-2.8q0-14.83,0-29.65a2.37,2.37,0,0,1,.35-1.39c4.81-6.1,7.6-12.69,5.19-20.62a5.09,5.09,0,0,1,0-2.19c1.41-9-1.48-16.78-7.23-23.55a21.87,21.87,0,0,1-5.34-17.16,85.32,85.32,0,0,0,0-14.29,49.85,49.85,0,0,1,4.61-25.59c1.93-4,1.53-8.17,1.09-12.21-0.31-2.8-.38-5.57-0.51-8.36C323.8,2035,325.1,2032.43,324.07,2030.07Z" transform="translate(92 -789.23)"/><path class="cls-6" d="M291.79,2241.36a2.49,2.49,0,0,0-1.48-2.67c-2.55-1.42-3.41-3.94-4.18-6.53-2.52-8.38-5-16.77-7.64-25.12a16.75,16.75,0,0,1-.78-8.86,74.14,74.14,0,0,0-1.94-36.52c-2-6.84-3.16-14-4.66-20.95-0.53-2.45-1.37-4.56-3.86-5.76-7.22-3.48-9.38-10-10.84-17.31-2.28-11.41-5.24-22.69-7.9-34a30.52,30.52,0,0,1,17.61-19.07c1,6.71,2,13.41,2.92,20.12,1.11,8.28,2.12,16.58,3.14,24.87,0.44,3.6,2.82,6.17,4.91,8.78a26.26,26.26,0,0,1,4.84,10.82c3.47,14.65,6.89,29.31,10.69,43.87,1.12,4.28-.77,7.85-1.19,11.76a20.71,20.71,0,0,1-1.22,5.68c-3.2,7.68-1.5,14.9,1.4,22.23,2.06,5.19,3.5,10.63,5.15,16,0.62,2,1.65,3.5,3.84,3.91,1.29,1,1.47,2.49,1.82,3.89q3.55,14.23,7.15,28.44a14.47,14.47,0,0,1,.16,6.87c-1.19,5.37-2,10.81-3.14,16.19a13.9,13.9,0,0,0,.7,7.87c3,8.26,6.12,16.49,8.84,24.86a9.66,9.66,0,0,1,.61,4.29c0.28,0.75,1.08,1.76.12,2.25-2.25,1.14-3.29,3.89-6,4.36-1.35-.88-1.73-2.32-2.13-3.72-3.19-11-6.18-22.1-9.82-33-2-6-1.69-11.87-.55-17.69,1.36-7,0-13.48-2.17-20.05C294.49,2252,292.28,2246.89,291.79,2241.36Z" transform="translate(92 -789.23)"/><path class="cls-6" d="M411.37,2529.68c0.17,4.5-.11,9,0.62,13.49,1,6.09-1.95,11.67-3.3,17.44-1.72,7.34-3.79,14.59-5.78,21.87a5.76,5.76,0,0,0,.09,3.2c3.29,12.21,6.35,24.49,9.84,36.64,1.53,5.34-.86,9.81-2.17,14.49-4.36,15.58-8.91,31.11-13.53,46.62-0.76,2.54.69,4.32,1.51,6.16,5.82,13,11.88,25.94,17.86,38.9-3.68,1.76-7.37-.11-11-0.2-5.42-.14-10.84-1.07-16.3-1.28-3.22-.12-5.82-1-5-5.12,0.5-6,.45-12.11,1.39-18.12,0.22-1.43.48-3.1-.55-4.25-3.7-4.16-3-8.93-2.28-13.79,1-6.45,2-12.92,3-19.38a23.2,23.2,0,0,1,4-9.72c5.19-7.31,6-16,8.44-24.23,2.53-8.72-.5-16.75-2-25-0.89-5-2.18-9.95-3.15-14.94-0.57-3,.49-5.76,1.28-8.57q4.8-17.19,9.49-34.41a10.58,10.58,0,0,0,.14-2.18c-1.63-8-1.8-16.19-2.35-24.29s1.52-15.89,4.55-23.4c3.43,0.33,3.3,3.08,3.65,5.45,0.45,3.06-.82,6.25.75,9.23q0,3.3,0,6.6C411.94,2523.72,410.15,2526.82,411.37,2529.68Z" transform="translate(92 -789.23)"/><path class="cls-5" d="M270.51,2490.05c-3.81,2.15-7.59,4.36-11.44,6.43a5.47,5.47,0,0,0-2.31,2.71c-1.76,3.61-3.66,7.16-5.22,10.86-0.91,2.15-2.83,3-4.44,4.11a158.89,158.89,0,0,1-13.35,8.88c-8.13,4.65-13.75,11.8-19.55,18.8-1.85,2.24-3.55,4.6-5.32,6.9-3.3-.53-5.37-3.14-8-4.78-6.87-4.27-13.63-8.72-20.4-13.15a9.64,9.64,0,0,1-1.67-1.87c13.49-9.72,26.93-19.5,40.5-29.1,3.15-2.23,3.62-5.59,4.74-8.71,0.64-1.8,1.24-3.39,3.31-4q13.51-3.66,27-7.38c2.94-.14,15.3,6.8,16.47,9.28A1,1,0,0,1,270.51,2490.05Z" transform="translate(92 -789.23)"/><path class="cls-6" d="M238.23,2340.39c-2.34-2.77-6-2.22-9-3.5a27.18,27.18,0,0,0-7.36-2c-5-.62-7.71-4.18-10.76-7.49-4.19-4.54-7.68-9.7-12.79-13.41-4.91-3.57-10.15-5.28-16-3.47-5.51,1.69-9.3-1.09-12.53-4.63-4.22-4.63-6.8-10.38-9.18-16.11-1.24-3-2.55-5.53-5.48-7.32-3.71-2.27-6.95-5.3-10.83-7.36-0.25-6.24-2.64-12.08-3.32-18.25-0.09-.86-0.5-1.64.38-2.29,7,4.84,13.91,9.78,21,14.47a22.69,22.69,0,0,1,8.47,10.23c5.19,12.3,14.63,17.93,27.54,18.56a4.23,4.23,0,0,1,3.34,1.7c5.18,6,10.57,11.74,15.81,17.65,2.6,2.92,5.43,4.88,9.62,5.11,4.44,0.25,8.73,2,13.26,2,2.11,0.28,3.27,1.56,4.31,3.38,5.89,10.39,11.46,21,17.35,31.36a6.17,6.17,0,0,0,5.15,3.32c4.72,0.69,9.51.19,14.18,1.22,2.79,0.61,5,1.92,6,4.74,1,3.1,2.69,6.09,1.47,9.54-2.22.64-3.73-.86-5.27-1.94a16.62,16.62,0,0,0-9.64-3c-3.79,0-7.52-.78-11.3-1a8.83,8.83,0,0,1-7.23-4.37c-5-7.66-10.13-15.28-15.24-22.88A33.57,33.57,0,0,1,238.23,2340.39Z" transform="translate(92 -789.23)"/><path class="cls-6" d="M232.36,2384.42c-2.95.21-5.07,2.23-7.46,3.57a6.84,6.84,0,0,1-5.42.94c-14.78-3.34-29.62-6.47-44.43-9.68a4.83,4.83,0,0,1-2.36-.89c-4.87-5-11.39-4-17.37-5-2-1.31-1.31-3.49-1.62-5.32a68.27,68.27,0,0,1-1.31-12.28q14.15,3.33,28.31,6.65a4.43,4.43,0,0,1,2.59,1.92c4.7,6.67,11.71,9,19.22,10.54a19.75,19.75,0,0,1,3.87,1c6.67,2.85,12.79,2.72,18.1-2.89,2.48-2.62,5.24-.32,7.87-0.32,5.94,0.16,11.37,2.54,17,3.95,0.47,0.12,0-.18.32,0.16,6.18,6.89,15.2,5.76,23,8.06,4.2,1.25,8.63,1.67,12.89,2.78a4.72,4.72,0,0,1,1.82,1.19,11.77,11.77,0,0,1,0,8.81c-1.29,1.12-2.76.69-4.19,0.45q-15.7-2.56-31.37-5.23c-1.21-.21-2.56-0.26-3.41-1.17-3.3-3.55-7.76-4.36-12.15-5.4A7.39,7.39,0,0,1,232.36,2384.42Z" transform="translate(92 -789.23)"/><path class="cls-5" d="M230.89,2577.36c2.19-4.1,5.33-7.54,8.1-11.21,1.59-2.12,2.56-4.19,2.14-6.71-1.25-7.52,1.76-13,7.4-17.8a98,98,0,0,0,12.32-13,6.51,6.51,0,0,1,6.38-2.66c4,0.58,7.16-.41,9.55-4.24,1.9-3,4.78-5.49,7.25-8.18,2.78-3,5-6.23,4.12-10.7a17.15,17.15,0,0,1,0-3.29,8.07,8.07,0,0,1,3.08-1.09c5.41-.68,6.86.53,6.78,5.94,0,2.54.44,5.11-.33,7.62-6.12,7.7-12.21,15.41-18.37,23.08-1.3,1.62-2.82,3.14-5.07,3.32-3.2.25-5.22,2.22-7,4.56a35.56,35.56,0,0,1-2.26,2.85c-3.41,3.58-5.57,7.54-4.72,12.76,1.72,10.61-2.78,20-5.84,29.74-3.16.3-5.43-1.82-8.07-2.95-4.11-1.75-8.22-3.53-12.27-5.43C232.81,2579.42,231.08,2579.24,230.89,2577.36Z" transform="translate(92 -789.23)"/><path class="cls-7" d="M406.23,2499.6c-0.46,5.22-1.82,10.27-3,15.33-1.53,6.49.33,12.8,0.46,19.19,0.09,4.39,1.24,8.75.36,13.17-0.51-1.29-1.76-1.63-2.84-2.15-10.76-5.16-21.54-10.27-32.28-15.45a3.45,3.45,0,0,0-3.76,0c0.46-2.25,2-3.86,3.46-5.43,5.27-5.68,5.8-13.11,7.49-20.07,1.79-7.38,3-14.89,5.19-22.18l22,11C405.21,2494.78,407.58,2496.36,406.23,2499.6Z" transform="translate(92 -789.23)"/><path class="cls-8" d="M380.56,2280.24c1.89-6.76,2.74-13.76,4.93-20.46a7.29,7.29,0,0,0-.14-5c-1.95-4.6-1.17-8.61,1.44-12.87,5.26-8.58,10.05-17.45,15-26.2,0.9-1.09-.13-2.57.73-3.67q0-2.57,0-5.13c1-1.86-.24-4,0.73-5.87q0-1.83,0-3.66c3.09,0.13,4.81,2.31,6.6,4.4a273.73,273.73,0,0,1-11.54,26.41c-2.67,5.53-3.33,10.58-1.29,16.35s3.54,11.88,5.3,17.82a12.2,12.2,0,0,1-.08,6.76c-3.86,14.69-7.69,29.38-11.4,44.1-0.66,2.61-1.47,3.47-3.73,1.54a23.76,23.76,0,0,1,.6-6.14,17.08,17.08,0,0,0-.85-11.33C384.55,2291.68,383.52,2285.6,380.56,2280.24Z" transform="translate(92 -789.23)"/><path class="cls-5" d="M288.11,2634.58c2.12-4,4.21-8,6.37-11.94a6.42,6.42,0,0,1,1.72-2.32c7.75-5.21,7.44-14.34,10.5-21.78,1-2.31-1.39-4.55-2.58-6.57-1.79-3-1.76-5.62-.31-8.85,3.49-7.76,6.86-15.62,9.63-23.66,1.77-5.14,6.18-7.48,9.72-10.56a22.84,22.84,0,0,0,6.25-8.69c1.9-4.48,3.77-9,5.65-13.46,1.15-2.11,2.24-4.29,5.14-4.29a0.41,0.41,0,0,1,.1.27,1.42,1.42,0,0,1-.1.35c-2.78,7-5.54,14-8.36,21-0.68,1.69-1.32,3.61-3,4.53-5.38,3-7,8.53-9.31,13.56-1.78,3.87-3.4,7.81-5.16,11.69a5.25,5.25,0,0,0-.09,4.56c1.07,2.45,1.94,5,3,7.46a7,7,0,0,1,0,5.62c-3.53,8.92-7.77,17.58-10,27a6.49,6.49,0,0,1-3.43,4.1c-4.48,2.45-6.08,6.44-7,11.16-1.28,6.91-2.9,13.76-4.38,20.63A104.62,104.62,0,0,1,288.11,2634.58Z" transform="translate(92 -789.23)"/><path class="cls-9" d="M409.9,2201.74l-6.6-4.4c-0.82-12.92,3.19-24.63,9.12-35.8,4.61-8.68,7-17.84,6.23-27.65-0.66-8.56,3-16.16,5-24.11,1.84-7.29,4-14.5,6.08-21.74,5.37,7.27,6.7,15.32,5.07,24.13a161.14,161.14,0,0,0-2.05,16.21,17,17,0,0,1-1.71,6.25c-6.93,14.26-13.74,28.59-20.79,42.79-1,2-.31,3.77-0.32,5.63C409.88,2189.28,409.9,2195.51,409.9,2201.74Z" transform="translate(92 -789.23)"/><path class="cls-7" d="M335.07,2259.69c-0.08-6.9-1.18-13.7-2.05-20.53-0.37-2.91-.6-5.72,2.19-8,2.15-1.72,3-4.19,2.86-7.12-0.21-5.1,0-10.22-.06-15.32,0-5.8.44-11.65-1.48-17.29,5.38-.2,10.46-2,15.68-3,9.74-2,19.4-4.31,29.09-6.49-0.78,7.5-3,14.7-4.55,22-0.53,2.61-1.19,5.19-1.89,7.77-0.88,3.24,1.71,4.89,3.27,6.87a5,5,0,0,1,1.24,4.89c-1.09,4.46-1.73,9-2.43,13.57-0.18,1.14-.32,2.22-1.28,2.9-4,2.82-4.48,7.21-5.42,11.47-1.09,5-2.41,9.89-3.63,14.84-9.43-1.45-18.85-3-28.3-4.25C336.51,2261.8,335.89,2260.82,335.07,2259.69Z" transform="translate(92 -789.23)"/><path class="cls-7" d="M316.73,2325c-3.7-10.27-7.36-20.55-11.12-30.8-1.65-4.5.81-8.56,1.18-12.83a86.22,86.22,0,0,1,2.39-11.72c0.45-1.93-.43-3.59-0.84-5.32-2.52-10.6-5.16-21.18-7.75-31.76l24.63-36.14a7.6,7.6,0,0,0,1.07-4.53q-0.05-13.35,0-26.7c0-1.28-.49-2.71.71-3.8,0,9.89,0,19.77,0,29.66,0,2.09.22,3.88,2.34,4.9,1.51,0.73,1.36,2.15,1.36,3.5,0,8.42,0,16.84,0,25.27,0,0.84.1,1.93-.35,2.48-5.95,7.25-1.72,15.15-1.49,22.76,0.1,3.5.73,7,1.13,10.47-0.17,6.47-2.09,12.64-3.3,18.93-2.68,13.9-5.62,27.75-8.43,41.62C317.92,2322.4,317.76,2323.85,316.73,2325Z" transform="translate(92 -789.23)"/><path class="cls-7" d="M287.38,2368.28c-3.43-3.95-8-4.5-12.84-4.46-3.25,0-6.51-.49-9.77-0.67-1.47-.08-2.06-1-2.67-2.13-6.12-11.05-12.3-22.07-18.35-33.16a8.63,8.63,0,0,0-3.33-3.59,6,6,0,0,0,4.06-1.24c5.39-3.54,10.5-7,12.78-13.75,2.59-7.72,6.47-15,10.22-22.23a5.61,5.61,0,0,0,.82-3.14c1.87,3.48,2.3,7.43,2.69,11.16,0.86,8.25,4.46,15.08,9.8,21,6.55,7.23,9.74,15.81,11,25.17,0.84,6.09,5.11,9.7,8.75,13.85-4.13,2.84-6.41,7.46-10.23,10.6C289.34,2366.51,288.37,2367.41,287.38,2368.28Z" transform="translate(92 -789.23)"/><path class="cls-7" d="M232.36,2384.42c5.75,1.55,12.22,1.24,16.53,6.51a3.37,3.37,0,0,0,2,.79q17.53,3,35.08,5.87a10.32,10.32,0,0,0,1.46,0c0.41,5.13-.85,10.33.74,15.4-11.58,1.69-23.34,2.16-34.71,5.29-1.86.51-3.76,0.88-5.64,1.31-0.58-3.92-2.77-7.21-4.34-10.72-3.24-7.2-6.8-14.25-10.24-21.36A5.81,5.81,0,0,1,232.36,2384.42Z" transform="translate(92 -789.23)"/><path class="cls-7" d="M291.79,2241.36c3.78,8.45,6.08,17.44,8.38,26.32,1.05,4.06-.19,8.94-1.19,13.27-1.26,5.41,0,10.32,1.47,15.35,3.52,11.75,6.95,23.53,10.41,35.3-1.75,2.27-3.74,4.4-4.4,7.33-3.6-1.22-5.48-4.33-6.38-7.45-1.94-6.75-3.13-13.73-4.68-20.6a5.27,5.27,0,0,0-1.13-2.65c-5.08-4.68-5.45-11.19-6.88-17.28-1.53-6.49-2.43-13.13-4.41-19.52,2.45-6.94,3.89-14.15,5.9-21.21C289.73,2247.24,290.05,2244.06,291.79,2241.36Z" transform="translate(92 -789.23)"/><path class="cls-7" d="M287.38,2388.82L256,2382.36c-0.82-.17-2-0.19-2.38-0.72-4.51-6.06-11.85-5.4-17.91-7.75-1.11-.43-2.51-0.09-3.36-1.21a2.18,2.18,0,0,0,1.37-1.59q2.27-15.35,4.51-30.7c5.85,8.66,11.85,17.22,17.47,26,2.27,3.56,5.24,4.67,9.1,4.82,4.12,0.16,8.24.47,12.34,0.86,4.58,0.44,7.66,4.08,11.7,5.71C290,2381.7,287.48,2385.1,287.38,2388.82Z" transform="translate(92 -789.23)"/><path class="cls-7" d="M270.51,2490.05c-1.69-3.24-5.23-4-8-5.77s-5.43-3-8.17-4.5c2.39-3.8,4.94-7.52,7.14-11.42,1.95-3.47,4.43-6,8.43-6.89,10.07-2.36,17.41-9.2,25.17-15.39,4.7-3.75,8.9-8.18,14.28-11a53.71,53.71,0,0,0,3.67,9.54c-8.8,7.38-17,15.44-26.58,21.94a7,7,0,0,0-1.84,2.66c-1.89,3.68-3.87,7.32-5.51,11.11C277.29,2484.52,275,2488.21,270.51,2490.05Z" transform="translate(92 -789.23)"/><path class="cls-7" d="M297.65,2512.07c0-3-.09-6,0-9.06,0.1-2.48-.88-3.57-3.4-3.43-2,.11-4.11,0-6.16,0,5.61-6.71,11.13-13.49,16.87-20.08a50.43,50.43,0,0,1,6.78-6.08c7.11-5.65,12.25-13.12,18.36-19.7a21.3,21.3,0,0,1,4.21-4l2.94,3.67c-2.7,4.82-6.91,8.44-10.26,12.76s-7,8.41-10.53,12.58c-0.54.63-1.31,1.64-1.88,1.58-3.82-.39-4.79,2.72-6.45,5s-3.26,4.85-5.06,7.15c-3.41,4.36-5.63,9-4.78,14.76C298.54,2508.74,299,2510.6,297.65,2512.07Z" transform="translate(92 -789.23)"/><path class="cls-7" d="M340.2,2523.07c-2.63-.07-3,3-5.13,3.67-2.77-3.7-2.45-7.14-.34-11.32,6.75-13.45,13-27.15,19.42-40.76l1.47,1.46q-6.86,17-13.74,34c-1.06,2.59-2.38,5-.6,7.9C342.32,2519.79,341.28,2521.55,340.2,2523.07Z" transform="translate(92 -789.23)"/><path class="cls-3" d="M324.07,2030.07c1.49,2.32.4,4.9,0.73,7.34C323.31,2035.08,324.39,2032.51,324.07,2030.07Z" transform="translate(92 -789.23)"/><path class="cls-3" d="M403.29,2201c-0.32,1.95.73,4.06-.73,5.87C402.88,2204.93,401.84,2202.81,403.29,2201Z" transform="translate(92 -789.23)"/><path class="cls-3" d="M402.56,2212c-0.18,1.24.49,2.64-.73,3.67C402,2214.44,401.34,2213,402.56,2212Z" transform="translate(92 -789.23)"/><path class="cls-3" d="M411.37,2529.68c-1.53-2.83-.36-5.88-0.73-8.81,1,0.12,1.66.64,1.26,1.67C411,2524.89,411.53,2527.3,411.37,2529.68Z" transform="translate(92 -789.23)"/><path class="cls-10" d="M289.41,2378.69l-2.06-9.56-4.91-4.59-19.87-1.43L241.49,2325s-2.42,14.53-3.57,14.53,20.39,31.1,20.39,31.1l21.16,1.91Z" transform="translate(92 -789.23)"/><polygon class="cls-10" points="427.43 1401.34 429.72 1407.45 430.11 1438.04 424.37 1444.93 427.43 1472.46 422.08 1472.46 418.63 1444.16 422.84 1437.28 422.84 1407.84 418.63 1404.78 427.43 1401.34"/><polygon class="cls-10" points="375.41 1482.78 382.01 1513.56 386.98 1519.87 392.71 1544.73 398.45 1550.46 393.48 1566.14 385.83 1558.11 380.32 1536.7 365.56 1516.81 361 1495.02 375.41 1482.78"/><polygon class="cls-10" points="392.25 1443.78 401.05 1479.34 396.46 1502.66 409.08 1537.46 402.96 1542.81 389.96 1498.84 392.25 1478.19 383.54 1450.28 392.25 1443.78"/><polygon class="cls-10" points="473.7 1392.54 466.43 1424.66 471.79 1431.54 468.34 1450.28 464.14 1454.1 458.4 1477.81 472.55 1491.19 477.9 1467.49 475.61 1458.31 481.57 1447.27 493.86 1426.19 496.26 1390.25 473.7 1392.54"/><polygon class="cls-10" points="499.74 1709.18 495.31 1730.05 497.52 1757.84 504.74 1759.37 502.58 1713.75 499.74 1709.18"/><polygon class="cls-10" points="447.7 1687.35 431.89 1725.97 433.93 1730.3 457.38 1739.23 464.77 1728.78 472.93 1692.7 447.7 1687.35"/><polygon class="cls-10" points="406.16 1655.61 427.19 1660.2 407.69 1682.11 400.04 1688.12 380.92 1710.29 368.69 1698.06 378.86 1678.17 389.72 1669.95 406.16 1655.61"/><polygon class="cls-10" points="429.63 1665.05 407.24 1691.56 403.8 1691.56 390.41 1711.06 427.12 1738.21 424.44 1732.09 446.37 1685.9 429.63 1665.05"/><polygon class="cls-10" points="340.25 1630.38 361.28 1625.79 366.25 1625.79 379.48 1623.88 400.66 1645.67 372.66 1668.23 356.31 1674.35 346.37 1690.41 340.25 1630.38"/><polygon class="cls-10" points="323.32 1596.02 337.34 1599.34 341.42 1603.42 379.63 1609.79 379.63 1601.12 345.24 1593.98 341.68 1589.8 318.48 1583.53 323.32 1596.02"/><path class="cls-11" d="M467.92,2231s17.12,14.49,0,38.2c0,0-17.69,17.78-17.12,26,0.54,7.85,11.79,13.15,12.29,0,0,0-.31-7.7,5.55-11.26s27.61-29,15.81-53c0,0-.34-1.52-12.19-16.58Z" transform="translate(92 -789.23)"/><path class="cls-12" d="M448.82,2154.29c44.67,8.72,24.22,62.23,24.22,62.23l-8.95,21.07c3.88,36-45,42.66-45,42.66l0.63-21.11Z" transform="translate(92 -789.23)"/><path class="cls-11" d="M359,2255s-3-4.57-9.11,3.46-4.88,22,0,25.43,15.15,10.51,40.36,11.33h4.85l13.29-12.67L396,2272.46l-7.27,6.79L373,2269s3.54-21.7-16.82-12.91Z" transform="translate(92 -789.23)"/><path class="cls-13" d="M395.73,2274.82l16.51,12.24s5.35,4.21,2-2.42l-2.81-6-0.25-3.83-15.49-2.68-0.06,2.49Z" transform="translate(92 -789.23)"/><path class="cls-13" d="M390.24,2258l5.49,16.82s24,1.78,37,19.12c0,0-4-23.53-18.69-29.61s-23.76-6.33-23.76-6.33h0Z" transform="translate(92 -789.23)"/><path class="cls-14" d="M386.29,2277.69s8.51,10.06,1.54,17.48l-1.54-.09s6.8,7.6,9.66.19c0,0,3.3-14.43-5.07-20.76,0,0-4.7-3.35-8,.93Z" transform="translate(92 -789.23)"/><path class="cls-11" d="M396.62,2103.94s-4.71-2.76,3-9.27,21.72-6,25.4-1.26,11.25,14.61,13.32,39.75l0.24,4.85-12,13.9L415.85,2140l6.42-7.59-11-15.15s-21.5,4.61-13.72-16.16Z" transform="translate(92 -789.23)"/><path class="cls-13" d="M398.05,2145.33s3.35-13.57,25.62-22.85l-7,22.85H398.05Z" transform="translate(92 -789.23)"/><path class="cls-13" d="M397.69,2148.6l9.52-17.05s24.44,3.34,41.61-12.61c0,0-9.61,24.66-25.8,28s-25.32,1.64-25.32,1.64h0Z" transform="translate(92 -789.23)"/><path class="cls-13" d="M361.83,2217.61s0.77,55.68,66,45.49,42.76-80.38,35.62-93.63c-5.32-9.89-73.09-68.42-100.88,21.28Z" transform="translate(92 -789.23)"/><path class="cls-15" d="M400.06,2254.17s-56.84-15.29-25-80c0,0,56.72-63.41,92.28,1,0,0,33.27,93.36-67.3,79.08h0Z" transform="translate(92 -789.23)"/><path class="cls-16" d="M378.14,2188.92s11-44.07,48.18-32.77,32.88,30.22,32.88,30.22l-14,51.24s-50,31.61-67-14.78c0,0-2-5.86,1.27-16.06Z" transform="translate(92 -789.23)"/><path class="cls-17" d="M385.32,2194.75a24.19,24.19,0,0,0-.69-3.43c-1.09-3.88-3-16.7,16-26.12,22.61-11.22,47.31-1.27,58.55,21.16,0,0,2.93,4.38.15,21.92-3.23,20.43-4.74,21.67-4.74,21.67s-10,14.25-36.48,12c-13.87-1.19-22.29-7.81-27.17-13.84a25.74,25.74,0,0,1-5.67-17.21l0.41-10.34a25.86,25.86,0,0,0-.2-4.37Z" transform="translate(92 -789.23)"/><path class="cls-18" d="M390.38,2204.18s-5-46.49,45.12-21.89c0,0,3.63,32.28,1.69,35.32s-37.63,28.66-46.81-13.43h0Z" transform="translate(92 -789.23)"/><path class="cls-19" d="M403.63,2185.35s-14.78,23.45,11.22,35.43,37.47-36.2,31.61-44.87c0,0-11,8.16-20.14,5.86,0,0-17.59-5.61-22.69,3.57h0Z" transform="translate(92 -789.23)"/><polygon class="cls-14" points="447.71 1414.6 453.82 1428.38 461.47 1414.6 454.59 1401.51 447.71 1414.6"/><path class="cls-2" d="M1300.33,1491.17l20.67-20.72v17.44l-20.67,19.8-0.33.32-20,19.17L1258.31,1548l-19,27.63s-1.69,6.47-9.2,19.48c-1.07,1.85-2.25,3.82-3.56,5.93-2,3.23-3.94,6.45-5.76,9.56-1.31,2.25-2.56,4.44-3.74,6.52-5.71,10.18-9.56,17.83-9.56,17.83s-3.24,9.49-7.54,21.1a71.22,71.22,0,0,1-7,13.32c-0.31.49-.62,1-0.95,1.44-1.89,2.84-3.83,5.44-5.53,7.59-1.92,2.43-3.55,4.37-4.5,5.34-2.15,2.21-5.83,8.15-7.91,12.15l-0.08.15h0a9.49,9.49,0,0,0-1.49,2.58l-10.65,22.17s-1.78,5.07-4.65,12.92l0,0a0.62,0.62,0,0,0-.16,0l0,0.09a33,33,0,0,1-1.86,4.64s0,0,0,0a2.89,2.89,0,0,1-.18.35h0c-1,3.63-3,7.62-4,11.86h-0.05c-1.49,3.87-3.1,7.93-4.73,12.05,0,0-.21,0-0.21,0h0c-2,5.29-4,10.67-6,15.91h0a2.47,2.47,0,0,0-.22.25,9.42,9.42,0,0,0-1.23,2.84c0,0.08-.07.15-0.1,0.23-1.36,3.18-2.79,6.26-4.13,9.22h0c-0.37.82-.77,1.63-1.14,2.42l-0.14.3c-5.29,11.35-10.26,20.23-13.79,23,0,0,4.16-11.36,8.22-23.74l0.06-.18c0.28-.85.55-1.72,0.83-2.58,0.93-2.87,1.82-5.75,2.65-8.52a0.56,0.56,0,0,0,0-.12c2.12-7.08,3.74-13.42,4-16.9,0.12-1.53,0-2.52-.52-2.76-0.79-.39-2.61,1.48-5.39,4.69-3,3.42-7,8.37-12,13.76l-1.15,1.22,0,0a144,144,0,0,1-12.53,11.84l-0.06.05c-13.86,11.51-31.82,21.11-52.91,18.33,0,0-8.74,31.61-76.29,16.22,0,0-12.18,2.91-27.11,15.82q-2,1.71-4,3.67a70.07,70.07,0,0,1-10.36,8.21,68.67,68.67,0,0,1-25.91,10.35s-12.53,11.78-13.75,23.33c-0.4,3.78-5.85,19.31-14.92,39-3.78,8.2-8.18,17.12-13.1,26.22l-0.06.11c-19.48,36-47.13,74.64-76.63,82.41,0,0,44.93-47.44,66.63-82.41l0.07-.11c6.42-10.36,10.79-19.62,11.33-26.22,0.27-3.2-.37-5.77-2.11-7.54-17.42-17.72,13.32-59.2,19.52-60.9,1.57-.43,4.07-2.77,7.29-5.81a122.81,122.81,0,0,1,11.86-10.28c8.44-6.15,18.61-10.43,29-4.54,0,0,31.31-29.71,64.34-22.53s50.29-12,48-13.55,29.43-9.24,31.7-6.93c0.37,0.38,2.18-.51,5-2.4,0,0,0,.08,0,0.07,3.74-2.53,9.23-7.26,15.45-12.26H1096v-0.2c5-3.8,9.12-8.18,13.75-12.93a201,201,0,0,0,19.42-22.71c6.38-8.89,11.4-18,13.45-26.37l10.13-5.71s1.81-8.65,3.7-18.78c1.28-6.83,2.6-14.34,3.41-20.31,0.21-1.52.39-2.94,0.53-4.22a23.93,23.93,0,0,0,.15-6.35c-0.34-1.29-1.67,1.46-4.21,6.35-3.88,7.47-10.57,19.92-20.84,30.61l-1.4,1.47,0,0a60,60,0,0,1-8.1,7h0l-0.11.08h0q-4.67,3-10.06,6h0c-0.41,0-.82,0-1.24,1h0l-0.27.07c-3.85,1-8,2.89-12.4,3.71,0,0,0,.23-0.05.23-2.45.45-5,0-7.65,0.87a2.76,2.76,0,0,0-.38.12h-0.1c-2.51,0-5.1-.27-7.78-0.53,0,0-6.35-2.92-9.48-.91a0,0,0,0,1,0,0,1.66,1.66,0,0,0-.47.26s0,0,0,0a9.56,9.56,0,0,1-.85,1.17h0s0,0,0,.05h0s0,0,0,.08c-0.52,1.94-.48,3.49.48,6.55a12,12,0,0,1,.41,1.41c0,0.07,0,.14,0,0.21,0.79,4.1-.9,5.71-3.56,6.69h0a0.92,0.92,0,0,1-.52,0h0l-0.32.17c-3.44,1.76-8.07.64-11.36,1.28-0.12,0-.24.12-0.36,0.15l-0.13,0a5.25,5.25,0,0,0-2.87,1.63c-3.93,4.8-4.76,8-5.64,14.31-0.35,2.51-2.4,6.76-6,10.79v0c-5.44,6.1-14.43,11.92-26.45,10.76-1.26-.12-2.54-0.15-3.87-0.15h-0.06c-10.93-1-23.84-.13-33.9-7.84l-0.14-.11,0,0a34.05,34.05,0,0,1-9.59-12.4l0-.07c-3.18-6.6-5.47-15.48-6.49-27.33l-25.41,6.16L911.9,1741l-5.9,6.85-10,11.46-0.3.1-0.22.13-0.43.25h0v0.37h0l-5.22,6.4a74.29,74.29,0,0,1-.77,12.1s0,0.06,0,.09v0.06c0,0.35,0,.7,0,1.06v0.45h0v0.24c0,1.65-1,3.4-1,5.25h0v0a124.29,124.29,0,0,1-2,13.23h0a0.82,0.82,0,0,1,0,.22,7,7,0,0,1-.24,1.26c0,0.06,0,.12,0,0.18-3.28,16.53-9.52,34.65-19.85,43.39a22,22,0,0,1-2,1.53l-0.31-1.53-1.52-13.57L862,1830v0l-0.91-11s-2.49,10.07-6.93,25.14c-0.24.81-.43,1.64-0.68,2.48,0,0,0,0,0,0l0,0.08s0,0,0,0c-0.81,2.73-1.66,5.58-2.58,8.56-6.7,21.73-16.14,49.63-26.89,73.31a227.09,227.09,0,0,1-13.74,26.22l-0.07.11c-8.65,13.81-17.71,22.86-26.56,22.79,0,0,5.23-9.57,12-22.79l0.06-.11c4-7.87,8.54-17,12.8-26.22q1.16-2.44,2.26-4.91c9.65-21.31,17.14-41.62,12.6-45.28-5.34-4.31-17.21,23.23-31.75,50.19a280.8,280.8,0,0,1-14.84,24.92h0c-0.3.44-.59,0.87-0.89,1.29l-0.07.11c-8.11,11.56-16.56,20.07-24.86,21.26a13.27,13.27,0,0,1-2.17.15c-8.73-.13-16.18,2.16-22.75,4.36a86.51,86.51,0,0,1-12,3.47c0-3.57-.08-7.13-0.22-10.7,0.35-.44.72-0.87,1.07-1.31a40,40,0,0,0,8.36-6.83,72.27,72.27,0,0,0,8.46-10.4,65.25,65.25,0,0,0,7.19-14.44c0.61-1.72,1.13-3.39,1.58-5,0.64-1.08,1.28-2.16,1.91-3.24s1.4-2.42,2.09-3.64c0.5-.9,1-1.79,1.49-2.69,0.66-1.18,1.31-2.37,1.94-3.57,0.28-.51.55-1,0.82-1.53A312,312,0,0,0,790,1854c1.21-2.65,2.38-5.33,3.51-8,0.38-.61.74-1.24,1.08-1.87,0.49-.87,1-1.74,1.46-2.59q9.78-10.07,18.61-21,4.88-6,9.44-12.27c4.66,0.21,11.7-7.77,19.75-18,0.45-.59.92-1.18,1.39-1.78,6.34-8.13,13.25-17.41,20.09-25a83.47,83.47,0,0,1,10.51-10.15c6-4.66,11.63-6.74,16.44-4.11l1.75-2.1,9.78-11.75,10.66-3.41,27.57-8.81,24.79-7.92s11.37-4.43,9.19,3c-1.13,3.83-1.95,22.47,6.36,34.94,7,10.56,20.62,16.69,46.13,5.65,2.39-1,4.9-2.23,7.51-3.58a61.88,61.88,0,0,1,1.59-12.86c1.13-4.7,3.08-9.56,6.4-12.43a10.7,10.7,0,0,1,9.43-2.32s5.08-23,24-26.38a0.61,0.61,0,0,0,0-.06,4.52,4.52,0,0,1,.81-0.18h0a1,1,0,0,1,.17,0c4.26-.95,9.21-0.14,14.92,1.7a70.61,70.61,0,0,0,16.62-7.31l0.05,0a97.17,97.17,0,0,0,19.56-14.95c0.1-.1,0-0.2.09-0.3,0.5-.49,1.3-1,1.3-1.51h0c3-2.38,4.78-5,7-7.79,10.53-13.4,20-32.09,24.1-58,0,0,1.88-6.07,9.39-14.32,0.36-.39.76-0.79,1.15-1.2,6.75-7.08,17.63-15.55,34.89-23.13l13.77-11.62,0.21-.18,49.61-41.88,8.89-8.91,20-20.05Z" transform="translate(92 -789.23)"/><path class="cls-20" d="M1018.75,2898.52s-32.44,6.33-35.7,4.88-24,3.68-24,3.68-30.13,13.52-34,13.61-36-.43-45.79-7.15S827,2881.86,827,2881.86l-44.43-20.71L745,2799.3l124.68,3Z" transform="translate(92 -789.23)"/><path class="cls-21" d="M685.27,2897.68s27.13-9.25,32-8.85,13.52,4.26,16.78,3.34,22.2,2.2,26,5.67,17.26,6.47,22.7,5.37,13.6-2,13.6-2,17.07-12.52,20.47-13.2,9.78-6.31,9.78-6.31-9-19.85-14.89-23.1-9.7-9.08-10.24-9.91-7.54-9.3-7.54-9.3l-9.72-5.52-22.56-19.28L745,2799.31l-95.15,43.38Z" transform="translate(92 -789.23)"/><path class="cls-22" d="M681.57,2880s1.09-30.59,15.45-34.35,27.15-13.36,29.66-19.81,9.34-17.15,9.34-17.15l-48.1-40.55-48.59,3.41L570.68,2747l-31.48,11.65,110.3,109Z" transform="translate(92 -789.23)"/><path class="cls-23" d="M674.89,2780.54S641.38,2773,633,2742.21l50.15-32.34L781,2726.25l38.53,21.56,104.75,70.94,94.87,76.39s-17.29-.65-26.67-3.25-25.26-4.16-30.33-1.68-41.92,5-50.92-.2-28.72-32.6-28.72-32.6-29-39.47-46.39-37.72l-16.28-3s-64.23-1-67.47-3.58c0,0-34.64-6-50.06-25.92Z" transform="translate(92 -789.23)"/><path class="cls-20" d="M568.09,2758.93s12.25,4.68,21.64,5.71,25.27,2.58,30.65,9.34S638,2783,642.7,2785.53s14.77,7,16.22,5.27,11.29-11.13,16-10.25-12.63-4.48-23.59-16.68S633,2742.21,633,2742.21l-8.78-19.5-39.76,6.77-16.4,29.46h0Z" transform="translate(92 -789.23)"/><path class="cls-21" d="M628.58,2862.28c36.1,36.89,56.69,35.4,56.69,35.4l-3.7-17.67-76.65-86.24Z" transform="translate(92 -789.23)"/><path class="cls-21" d="M495.24,2877.48s22.73,3,30.32,2.86,39.49,9.53,47.09,6.6,28.2-6.79,34.68-1.52,21.25-23.14,21.25-23.14l-6.4-19.47-40.93-46.75-86,81.43h0Z" transform="translate(92 -789.23)"/><path class="cls-24" d="M418.44,2853.86s35.71,7.64,37.34,6.59,30.78,17.9,39.46,17c0,0,82-44.64,84.74-45.21s14.06,3.91,22.72,5.4a158.18,158.18,0,0,1,19.47,5.14l-17.26-49s-39.14-25.19-44.56-33.64A146.07,146.07,0,0,0,549,2744.88l-66.72,18.26-63.85,90.73h0Z" transform="translate(92 -789.23)"/><path class="cls-25" d="M321.72,2720l30.75,124.86s16.53-6,25.3-.35,51.62,15.53,61.06,11.92,49.87-35.1,49.87-35.1l101.5-57.46-77.16-55.65Z" transform="translate(92 -789.23)"/><path class="cls-26" d="M1062.94,2852.17s4.83,15,7.81,25.61,10.87,33.93,11.17,42.09,4.48,15.49,2.55,15.9-60-29.83-66.1-35.9-53.37-34.09-57.2-37.47-13.87-3.58-20.41-6.89-51-44-58.25-48.49a162.73,162.73,0,0,1-23.78-18.08c-8-7.35-13.39-13.93-22.2-21.61S814,2746.8,811.26,2745.2s15.15-8.1,20.54-6.57,15.88-3.55,20.46,1.84,26.48,18,29.6,15.16,18.89-4.86,21.63-4,18.36,11.38,19.86,8.6,117.27-7.65,117.27-7.65Z" transform="translate(92 -789.23)"/><path class="cls-27" d="M1069.94,2780.56s4.16,33.89,5.74,42.31,7.43,30,1.46,31.5-23,1.88-31.39-5.71-45.58-36.67-52.34-38.8-52.11-31.28-65.87-42.46l137.36-8.36Z" transform="translate(92 -789.23)"/><path class="cls-28" d="M1069.94,2780.56s-54.47,6.23-60.68,2-22.69-11.91-25.93-12.77-50.11.46-55.78-2.37,43.63-20.66,57-30.89,18.18-24.31,18.2-26.68,3-17.65,10.92-16.48,19.88,6.16,20.23,2.73,21-16.75,21-16.75l49.23,46.11s-18.93,28.72-20,31.79-15.24,13.76-14.21,23.32h0Z" transform="translate(92 -789.23)"/><path class="cls-26" d="M1078.9,2932.87s186.79,64.5,205.84,41.53-26.94-67.24-26.94-67.24-57.7-8.32-82.85-36.19-116.54-16.66-116.54-16.66Z" transform="translate(92 -789.23)"/><path class="cls-27" d="M1063.23,2779.4l79.88,6.41,30.43-26.8s33,35.33,57.81,45.1,29.7,25.37,29.7,25.37l23-5.78c-5.86,30.17-12.58,64.55-18.43,94.71-12.05-.76-34.79-7.32-61.76-23.15-16.49-9.68-28.06-22.07-37.37-31,0,0-70.55-9.81-89.28-9.87Z" transform="translate(92 -789.23)"/><path class="cls-28" d="M1054.94,2679.34l54.13-9.74,42.8,43.09,65.7,12.78-72.8,62.93-81.66-7.57,33.12-47.28Z" transform="translate(92 -789.23)"/><path class="cls-29" d="M1000.37,2548.57s107.91,12.2,125.23-18.23c0,0,87.31,51.05,111.15,83.26,0,0-138.18,78.5-181.81,65.73Z" transform="translate(92 -789.23)"/><path class="cls-25" d="M1318.3,2678.12c0.9,1,1.8,2.12,2.7,3.19v24l-2.7-1.8-3.48-2.32-17.71,6L1280,2707l-8.77-.12c-10.67-10.18-53.66,18.62-53.66,18.62l-7.83-1.52-0.68-.13-57.19-11.12-36.21-33.12,0,0-7.64-7-1.45-1.33,0.85-.54,1.68-1.09c10,1.14,117.31-55.69,124.77-59.65l0.41-.22s32.1,41.82,45.49,35.54l0.26-.11C1286.12,2643,1302.18,2659.18,1318.3,2678.12Z" transform="translate(92 -789.23)"/><path class="cls-30" d="M1174.36,2760.3l1,1.05-0.15.24Z" transform="translate(92 -789.23)"/><path class="cls-30" d="M1318.3,2695.66l2.7,2.31v72.58l-4.14,4.19-26.57,26.89q-5,11.49-9.95,23c-0.11.26-.22,0.52-0.34,0.78q-2.48,5.73-5,11.46l-1.26-.66-12.74-6.72c-0.75-.09-9.32-1.25-15.79-10.17a29.72,29.72,0,0,1-4.94-11c-12.09,1.71-36.08-18.83-51.55-33.58-6.12-5.84-10.9-10.77-13.09-13.06l-0.32-.33c0.06-.08.11-0.17,0.17-0.26,2.64-4.11,5.67-8.45,9.16-12.87a145.65,145.65,0,0,1,22.51-22.92c0.62-.51,1.24-1,1.87-1.49q4.71-3.72,10-7.17a141.93,141.93,0,0,1,35.48-16.59l1.3,0.34c2.32,0.61,5,1.2,7.92,1.67l0.12,0a71.32,71.32,0,0,0,16.12.81,57.37,57.37,0,0,0,12.82-2.36,50.58,50.58,0,0,0,16.74-8.81s0,0,0,0c0.74-.57,1.43-1.16,2.08-1.74Z" transform="translate(92 -789.23)"/><path class="cls-31" d="M351.06,2818.95c-64-65.38-111-71.45-143.43-62.83-13.88,3.69-22.24,9.33-38.78,11.62-46.46,6.42-89-21.42-112.47-50,21.33-13.76,49.82-30.13,71.15-43.89,0,0,80.1,71.7,107.78,60.93l91.49-12.6Z" transform="translate(92 -789.23)"/><path class="cls-31" d="M406.53,2873.73s-85.15,22.92-167.56-53.89c-47.62-44.37-120.39-58.56-129.92-52.42C89.16,2780.25,56.68,2826-3,2756.79q-1.48-1.72-3-3.54l-0.52-.62c-0.94-1.15-1.9-2.33-2.86-3.54-0.27-.33-0.53-0.67-0.8-1l-0.06-.08c-1.58-2-3.19-4.1-4.81-6.27l9-5.84,3-1.93,44.23-28.53s6.54,4.87,16.51,11.4c16.14,10.58,41.29,25.52,62.28,31.26,9.79,2.67,18.67,3.26,25.32.55l3.3-.64h0.51l5.17-.82,1.06-.16,6.33-1,0.63-.1,7.36-1.23,3-.5h0.41l13.26-2.15h0l29.63-5.3,8.27-1.7h0l18.42-2.86,1.7,1.24,15,10,7.9,5.24,39.54,26.12,11.73,7.75,24.88,25.82h0l6.64,6.89,28.92,30h0Z" transform="translate(92 -789.23)"/><path class="cls-25" d="M127.53,2673.81c13.23,15.21,31.62,33.21,54.59,47.25,76.56,46.81,136.92,6.53,144.68,1.07l-36.19-70.44-67.15-8.14-25.57,33.54Z" transform="translate(92 -789.23)"/><path class="cls-20" d="M1321,2948.81v61.9c-18.56-17-36.26-36.27-36.26-36.27v-0.07a0.05,0.05,0,0,1,0,0l-4.7-11.15-0.25-.59-17.42-42.86-0.33-.81V2918l-0.22-.73a0,0,0,0,1,0,0l-4-10.1h0c0.88,0.29,1.77.58,2.63,0.89V2908a1.43,1.43,0,0,0,.41,0h0c2.13,1,4.2,1.64,6.22,2.47a139,139,0,0,1,12.92,6.05A144.81,144.81,0,0,1,1321,2948.81Z" transform="translate(92 -789.23)"/><path class="cls-23" d="M1314.16,2774.74l6.84-6.51v187.21a106.87,106.87,0,0,0-23.61-23.48,77.25,77.25,0,0,0-17.39-9.38,60.47,60.47,0,0,0-10.91-3,47.23,47.23,0,0,0-6.59-.68c0-.27-0.2-0.55-0.25-0.82-0.37-2.47-.25-4.93-1.25-7.4h0a15.93,15.93,0,0,0-.26-2.47c-0.34-2.23-.62-4.45-1-6.68a0.08,0.08,0,0,0,0,0q-1.67-10.91-3.33-21.81c2.78-6.43,5.48-13,8.11-19.7,0,0,0,0,0,0,1.68-4.25,3.35-8.54,5-12.84,0,0,.12,0,0.12,0,1.07-2.77,2.29-5.52,3.29-8.29h0a7.88,7.88,0,0,1,.89-2.6c1.4-3.67,2.76-7.34,4.16-11,0.67-1.71,1.3-3.41,2-5.11,2.8-7.13,5.65-14.17,8.62-21Z" transform="translate(92 -789.23)"/><path class="cls-25" d="M1290.05,2676.36a42.84,42.84,0,0,1-21,11.39c-11.61,2.6-22.53.4-29-1.47,0,0-28.36,55.58-132.63-15.6l41.11,44.18,54.83,12.5,51.21-27.31s44.19,12.42,55-8.35l-19.52-15.34h0Z" transform="translate(92 -789.23)"/><path class="cls-26" d="M1284.74,2974.4s-49.49-71.19-9.69-137.55c0,0-54.73,40.38-2.32,142.17a16.21,16.21,0,0,0,7.27-1.23,14,14,0,0,0,4.74-3.39h0Z" transform="translate(92 -789.23)"/></svg>