<svg xmlns="http://www.w3.org/2000/svg" viewBox="0 0 404 536"><defs><style>.cls-1{fill:#60666d;}.cls-2{fill:#6d747b;}.cls-3{fill:#676d75;}.cls-4{fill:#5b6169;}.cls-5{fill:#6e767f;}.cls-6{fill:#585e63;}.cls-7{fill:#474f57;}.cls-8{fill:#4b535a;}.cls-9{fill:#4a515b;}.cls-10{fill:#444b52;}.cls-11{fill:#444f52;}.cls-12{fill:#48535c;}.cls-13{fill:#575e67;}.cls-14{fill:#585f67;}.cls-15{fill:#4e565e;}.cls-16{fill:#f4e8d6;}.cls-17{fill:#513128;}.cls-18{fill:#002c41;}.cls-19{fill:#f7a152;}.cls-20{fill:#fcb144;}.cls-21{fill:#bc6050;}.cls-22{fill:#f6bc61;}.cls-23{fill:#ebdfd6;}.cls-24{fill:none;stroke:#c6bbac;stroke-miterlimit:10;}</style></defs><title>ปีนเขา</title><g id="Layer_3" data-name="Layer 3"><g id="Layer_5" data-name="Layer 5"><g id="Layer_15" data-name="Layer 15"><path class="cls-1" d="M114.33,395s6.17-23.5,7.67-25,5-17,5-17,2.5-25,3.5-27.5,10-23,15.5-26.5,27.64-20.5,27.64-20.5l20.86-20,36.38,1.5-35.23,79Z"/><path class="cls-2" d="M205.5,180s-3.5,21.5-5,24.5-5.5,7-6,9.5-7,13.5-9.5,14.5-7.46,8.5-8.48,12.5-2.88,9.67-2.88,9.67.64,16.33,0,18.83,0,9,0,9,10.86,2.5,13.86,0a11.25,11.25,0,0,1,7-2.5c.5,0,6-1,6-1l5-4,14.34-6.58,11-4.42,7.62-80Z"/><path class="cls-3" d="M214,185s12.67,13.53,10.33,24.43-1.76,23.24.29,27.57a129.61,129.61,0,0,1,4.71,13.26L259.67,236l11.83-33,29.17-34.33,3.67-25.33-76.33,26Z"/><path class="cls-4" d="M258,222.33s12.36-18.6,27.69-11.14v46.14L252,314l-19.67,16-58.69,38.33L115.33,398s5-11,8.67-16,8.67-14.67,9-19,9.33-29.33,14-33,21.67-5,21.67-5,24.67-2.33,28.67-14.33l5.71-9.33S221,260,223,259c0,0,12-20,24.67-21.67Z"/></g><g id="Layer_6" data-name="Layer 6"><g id="Layer_14" data-name="Layer 14"><path class="cls-1" d="M296.33,162A71.69,71.69,0,0,0,288,173.67c-3,5.67-8,15.33-12.33,16s-8.67,7.67-11,9.67-7,6.67-6.67,8.33,1.63,12,0,14.67S263.33,216,271.5,214s14.17-2.8,14.17-2.8l10.66,2.47,8-28.67-8-23"/></g><g id="Layer_9" data-name="Layer 9"><g id="Layer_10" data-name="Layer 10"><g id="Layer_11" data-name="Layer 11"><path class="cls-2" d="M236,158c-25.5,8-30.5,22-30.5,22l8.5,5,57.5-13.67Z"/></g><path class="cls-2" d="M266,65s-7.5,13.5-9.5,18.5-14.83,21.67-15.67,27.83S236,132.5,232,134.5s4,23.5,4,23.5l10,4,31-7L266,65"/></g><path class="cls-5" d="M297,25s-13,20-13,21.5S268,59,266,65c0,0-3.5,72-4,74s-5.5,7.5-8.5,12.5A105.84,105.84,0,0,1,246,162l25.5,9.33s21.37-14.87,26.44-14.85a48.7,48.7,0,0,0,9.56-1l10.5-51L297,25"/></g><path class="cls-6" d="M351,6.65,297,25s2.5,10.5,0,16-7,32.5-5.5,38.5,14.83,31.83,14.83,31.83L330.5,176l24.44-48.29Z"/><g id="Layer_8" data-name="Layer 8"><path class="cls-7" d="M351,6.65S337.51,48,338.92,78s14.61,54,14.61,54l23.64,39.33S379,128.67,380.67,122s5.33-48,7-53.67,8.67-37.67,8.67-37.67Z"/></g><g id="Layer_7" data-name="Layer 7"><path class="cls-8" d="M327.67,168.67,351,122s19,26,26.18,49.33,11.15,74,11.15,74,6,5.33,4,11.33A114.55,114.55,0,0,0,389,270l-6,109.33H351L314.33,212Z"/></g><path class="cls-9" d="M281.67,254s-2.67-12.67,0-18.67,0-13.33,0-13.33,2.67-11.33,6.67-14,7.33-8.67,8-18-1.33-22,0-28,4.67-12.67,4.33-16,5.67-34.67,5.67-34.67S317,137.33,319,144s8.67,24.67,8.67,24.67S323,180,327.67,188s.08,14.25,10.08,60c0,0,1.75,7.25,10.25,14.5s17.08,17,15.67,23.5.15,32.75.15,32.75,1.43,15.5,3.18,20.25,2.75,16,2.75,16L372,378.5l-21,79.61L288.08,347.59,281.67,254"/><path class="cls-10" d="M363.67,398s6-33.3,19.33-39.3l12,36.74s-18.31,73.93-17.82,82.6l-13.51-20.35Z"/></g><path class="cls-11" d="M351,417.33s5.33-14.07,12.67-19.37c0,0,15.33,8.7,13.33,26.7s-4.67,21.33-3.33,28.67S377.18,478,377.18,478s-2.85-2.33-8.85,4.5S351,498.67,351,501.33s-24.67,16-30,16-20.33-8-20.33-8L311,482.5Z"/></g><g id="Layer_4" data-name="Layer 4"><path class="cls-9" d="M256,281.5s8.67-10.17,14.17-14.17,12.17-10.67,11.5-13.33S279,266.95,295,281.47s22,30.53,22,35.86,4.67,70,18.67,83.33c0,0,10.67,16.67,15.33,16.67,0,0-4,10.67-4,16.67s-4.67,16.67-8.67,21.33-18,17.33-18,20S311,482.5,311,482.5l-15.33-5.17-16-65.33-29.33-56.67Z"/><path class="cls-12" d="M229.33,330s5.33-8.5,11.5-11.5,10.17-6,10.67-9,4-26.5,4.5-28,2,62,19.5,102.5l13,7.89s5-1.89,5.5,10.61,1,34.5,3,38,5.5,36.5,14,42l-10.33,26.83L258,458.11,229.33,357.5V330"/></g><path class="cls-12" d="M229.33,330s11.67,10,16,33S252,406.33,252,406.33s21.33,17,26.67,34.33,10,12.67,7.67,29.33,14.33,39.33,14.33,39.33L267.33,531,197,511.67,181,466l7-83Z"/><path class="cls-13" d="M121.89,440.6s-7.23-2.93-12.23-5.27S93.33,428.67,90,425.67s-7.33-3.33-7-4.67,27.33-24.67,31.33-26,27.33-19,29.67-20,5-7,8-9.67,30.67-13.67,34.33-16.33a63,63,0,0,1,13.33-7.33c5-2,9-2.67,14.33-5S228,331,229.33,330s-.67,12.33-2.67,15-2.67,11-6,11.67-14,9-13.67,12-2.92,13.33-4,14.67S193.78,390,194.5,392s-27.12,74-27.12,74Z"/><g id="Layer_2" data-name="Layer 2"><path class="cls-14" d="M150,479s-15.5-11.5-19.5-14-14.75-7.75-13.75-12.25,5.5-15.75,11-18,28-14.25,30.75-17.75,27.5-20.75,36-25l-34,92.75Z"/><path class="cls-15" d="M150,479s12.25-38,15.75-40.25,11.25-9.75,12.5-11.5S191.75,394.5,194.5,392s-3.17,37-2.5,50,5.33,22,6.33,23,6.67,9.33,4,14-8,10.33-6.69,12S197,511.67,197,511.67l-33,12.67S157,500,156,498,154.33,482.33,150,479Z"/></g></g><g id="ลิง"><path class="cls-16" d="M45,298s46.33,7.67,67.67-28.67c0,0-.3,44.67,4,51.33,0,0-16.68,27.67-59,24.67C57.67,345.33,48.67,304,45,298Z"/><path class="cls-17" d="M116.68,320.67s2.32,3.5,2.32,6.08S90,357,57.33,352l.33-6.67S96,349,116.68,320.67Z"/><g id="Layer_21" data-name="Layer 21"><path class="cls-18" d="M61.16,352.44s-10,25.23,0,31.23,14.67,6.17,20.51,5.17,26.67-6.33,31.17-25.33l6.17-1s4.5,5.89,12.5,2.45,9.12-24.06,9.12-24.06A32.89,32.89,0,0,0,119,326.75h0s-27.9,22.41-57.84,25.69"/><path class="cls-16" d="M77,389.29,90.25,398s-4.17,5.53-2.08,9,15.08-2.75,19.83-13.5L92.5,380Z"/></g><g id="Layer_18" data-name="Layer 18"><path class="cls-16" d="M65.85,326.75S74,332.6,74,336.63s-8.15,33-8.15,33S46.33,379.33,18.33,382c0,0-17-1-7.67-22.67,0,0,10.67-10.67,25.67-1l1.83,2,12.67-1L54.5,358Z"/><path class="cls-19" d="M52.22,358.83s12.3,1.36,10.07,12.42l-3,1.22s2.57,3.59,5.39,1.22,2.65-4.28,2.39-8.2-7.65-9.61-11.58-10S51.25,357.91,52.22,358.83Z"/></g><g id="Layer_20" data-name="Layer 20"><path class="cls-16" d="M113.61,302.84S140,287.5,146.5,273.5c0,0,3.83-16.33,19.83-15,0,0,7,.83,8.83,5.5v18.5l-33.92,22s-22.83,12-25.29,14.57Z"/><path class="cls-19" d="M129.44,292s11.46,3.62,8.45,14.27l-1.37.74s5.11,2.54,6.42-1.34-1.16-12.7-8.11-18.13C134.83,287.56,128.13,285.42,129.44,292Z"/></g><g id="Layer_17" data-name="Layer 17"><path class="cls-20" d="M47.25,303.7S62,270.33,68.67,269.33c0,0-10.33,35-8.33,49.67l5.33-11.55s.67,24.22-.33,26.55-7.87,15.32-7.87,15.32l.2-4Z"/><path class="cls-20" d="M112.67,269.33s8.67-7.33,10.67-8c0,0-10.84,26.13-10,37l5.67-9.68V324l-7.67-3.33Z"/></g></g><g id="Layer_25" data-name="Layer 25"><path class="cls-16" d="M102.5,343.83s1.5-7.33,6.83-6.5,21.5,11,23.5-12.83c0,0,1.83-6-3.67-13.33s1.67-18.5,6.5-17.33-.5,14.83,1.5,19.17,7.67,16-.5,28.17S112.17,352.83,102.5,343.83Z"/></g><g id="Layer_26" data-name="Layer 26"><path class="cls-16" d="M40.93,284.72S31,278.5,42,263.75c0,0-5.75-12.25,3-18.5,0,0-2.75-10.64,3.25-15.44,0,0,6.25-14.31,13.25-14.56s10.39,1.75,15.57,0a5.33,5.33,0,0,0,1.43,3.25c1.25,1,3.75,6.5,7.75,7.75s16,3.25,15.25,14.75c0,0,10.75,4,7.5,12.7C109,253.7,107.37,295.19,40.93,284.72Z"/><g id="Layer_24" data-name="Layer 24"><path class="cls-21" d="M39.75,256.5s2.13,2.21,4.59,1.33,1.54-12,4-14.33,5.88-4.62,5.5,0-3.62,6.14-.5,7.32,6.25,1.43,8.25-5.2,6.13-7.88,7.5-4.81-1.82,9.06,4.09,8.69,2.78-5.25,2.16-8.37-.5-10.37,4.25-9.25,7.5,6.5,8.63,10.5,6.13,3.25,6.25.63-1.87-9.62-7-12.5,10.63-2.75,14,10.5,6.13-5,0-10.5-14.87-7.12-14.87-7.12-5.87-2.5-3-6.87,6.5-6,5.63-10.37c0,0-6,7.38-14.37,7s-15.25-1.42-20.5,2.1-8.5,6.27-8.75,14.27c0,0-7.87,6.38-5,16C40.63,245.5,38.8,253.24,39.75,256.5Z"/></g><path class="cls-20" d="M39.75,292.67s-.13-8,1.18-7.95,35.07,9,64.07-21c0,0,4.25-7.6,4-10,0,0,6.06,5.22,5.33,7.63S99,302.33,39.75,292.67Z"/><path class="cls-22" d="M45,298l-5.25-5.33S92.47,303,113.61,263.75l-.94,5.58S95,305.75,45,298Z"/><path class="cls-23" d="M47.25,270.83s.92-4.5,7.42-4.83S88.75,255.19,95,247.67c0,0,10.33-4.77,8.83,6s-34,24.3-51.33,22.63C52.5,276.33,45.83,275.5,47.25,270.83Z"/><path class="cls-24" d="M95.91,287.8s3.9,32.17,9.91,44"/></g></svg>