<svg id="Layer_1" data-name="Layer 1" xmlns="http://www.w3.org/2000/svg" viewBox="0 0 1703.14 424.54"><defs><style>.cls-1{opacity:0.8;}.cls-2{fill:#fbfcf4;}.cls-3{fill:#dfe3e7;}.cls-4{fill:#fff;}</style></defs><title>เมฆ</title><g id="mountain"><g id="cloud1" class="cls-1"><g id="cloud3"><path class="cls-2" d="M315.83,99.1s9.32,17.78,0,24.55c0,0,23.71,10.16,16.08,19.47s32,11.86,30.84,8.47,33.67,6.77,30.63,19.47c0,0,19.55.85,22.23,8.47s26-16.93,26-16.93-10.61-30.29,18.61-26.15c0,0,.67-21.26,25.53-23,0,0-5.07-25.18,0-39.35S504.64,50,506.33,54.22,499.28,13.58,557.84,17s43.32,61,30.62,66,10.11,5.93,10.11,5.93,11.91-11,17.83,0,10.16,2.54,10.16,2.54,13.09-9.72,11.63,7.42c0,0,25.63,12.91-4,22.22,0,0,4.24,8.47,11,5.93s35.56-4.23,38.1,14.4c0,0,26.12,14.39,19.41,26.25,0,0,31.58,38.1-13.81,73.66,0,0,30.81,0,33.35,15.24,0,0,33-11,44,9.32,0,0,27.1-4.24,30.48,4.23s-18.37-63.5,19.18-64.35,60.41,15.24,47.71,39.8l3.53,11.85s21,6.47,17.64,13.39c0,0,22.94,11.51,8.93,19s-5.68,10-5.68,10h10.21s21.92-10.17,27.09,17.78l17,11s-9.32-12.7,0-19.47,5.08-36.41,48.26-15.24c0,0,38.1,0,29.64,17.78s-24.56,16.93-24.56,16.93l-1.7,6s20.33-5,21.17,0,1.7,12,0,14,12.7,3.81,12.7,8.42,17.78-16.46,25.4,0c0,0,21.18-10.64,33.87,15.61,0,0,22-8.47,33.86,0,0,0,45.67.23,46.57,8.47,0,0,32.53,10.16,29.54,15.24s-1163.27,0-1163.27,0L206.6,315.86l-76.2-80.45,33.87-64.34s.85-20.32,8.46-24.56S143.95,126.19,199,116.88c0,0,13.85-5.93,25.12,0,0,0-47.14-23.71,12.13-33.87C236.23,83,291.27,51.68,315.83,99.1Z" transform="translate(0 -16.78)"/><path class="cls-3" d="M55.33,361.57S63,341.26,80,354.8c0,0,19.57-25.4,37.45-25.4,0,0,13.87-5.92,19.7,0,0,0,18.89-11.85,23.85-5.92s0-5.09,0-5.09A30.21,30.21,0,0,1,130.66,304s-31.49-1.69-26.39-23.71c0,0-8.08,2.54-8.51-11.44,0,0-17-8-14-23.28l-22.56-11,18.3-4.24s14-8.89,20.85-4.23c0,0,1.28-24.56,28.52-20.75,0,0-9.79-33.87,17.45-31.33,0,0,12.34-33.44,31.07-14l6.38,2.11s7.66-6.35,14-3,.42-8,.42-8-15.32-6.77,1.71-12.28,28.51,0,28.51,0,9.79,4.66,9.79,10.16,31.07,14.82,27.24,24.13-16.17,13.55-22.13,13.13-.85,4.65-.85,4.65,8.09-2.54,8.51,2.54,9.36,0,9.36,0,16.6-14.82,42.13-.85c0,0,28.09,2.12,13.2,16.51,0,0,3,12.7-17.87,8.46l-.86,6.35s11.5-1.69,12.35,2.54,11.49.85,11.49.85,55.32-6.36,26,36.19c0,0,8.94,24.13-17.88,34.93l.65,12.7,5.74-.63s13.41-15.87,30-6.35c0,0,4.47-7.62,6.38-5.08s-9.58-22.86,17.88-17.14c0,0-2.56-33.66,46.6-22.23,0,0-2.55-10.16,7-11.43,0,0-6.39-13.33-5.11-19.68a12.68,12.68,0,0,0-3.19-10.79s-36.39-12.7-25.54-31.75c0,0-17.23-9.52,1.28-9.52H415s-3.19-12.71,16-9.53c0,0,17.23-26,30.65-13.34S453.9,181,453.9,181a9.37,9.37,0,0,1,4.55.59,6.91,6.91,0,0,0,2.09,3.25,9.2,9.2,0,0,1-.9,3.78s38.13,12.91-3.83,15.88l-1.28,7s24.9-1.91,28.73,7.62c0,0-.64-15.24,14.05-14.61s22.33-10.16,25.53,9.53c0,0,17.24,7,11.49,21.58,0,0,9.57,17.78,1.91,22.23,0,0,7.66,1.27,5.75,6.35s37-6.11,32.56,14.09c0,0,7.62,5,6,11.95,0,0,16.3,1.27,13.75,7s8.3,1.91,8.3,1.91,10.85-9.53,20.43-5.71c0,0,9.58-17.78,26.81-8.25,0,0,23.62-17.15,27.45,3.17,0,0,21.85,0,21.13,5.71s-12.2,7.62-12.2,7.62,3.2,9.52-11.48,10.79l-1.92,10.16s14.68-3.18,14.68,7,37.67-14,37.67-14,36.39.63,15.33,27.94c0,0,22.13,1.06,14.47,21.38l11.06,3.39s10.22-5.94,23,2.54,16.17-4.23,16.17-4.23-17.88-20.32-3.41-31.33,9.36-22.86,5.1-23.71-15.32-29.39-8.51-33.32c0,0-25.53-22.56-1.71-38.65,0,0-1.7-27.09,16.18-8.47,0,0,4.26-7.62,13.62,0,0,0,16.17,3.39,17.87,11s13.62-.85,13.62-.85-2.55,14.39-19.58,7.62c0,0-7.66-.85-8.51,5.93s-15.33,3.38-15.33,3.38l-.85,8.47S832.46,273.52,818,282c0,0,7.66,6.77-2.56,12.7s-1.7,12.7-1.7,12.7,14.47,2.54,6.81,14.39c0,0,6,6.77,4.26,11.86,0,0,29.78-8.47,28.94,9.31,0,0,6.81,6.77,3.4,11,0,0,16.18-.85,13.62,8.47,0,0,36.61-9.32,30.65,10.16,0,0,12.77-.84,11.07,3.39s23.84,3.39,23.84,3.39.85-15.24,5.1-15.24c0,0-.85-35.56,15.32-32.18,0,0-16.18-13.55.84-17.78,0,0,10.21-16.94,12.77,5.92,0,0,17.87,0,15.32,9.31,0,0,20.44,11.85-13.61,9.31,0,0-1.7,11.86-8.51,11.86,0,0,5.11,11-2.55,15.24,0,0,28.94-2.54,26.39,10.16,0,0,36.6.85,35.75,5.08s15.32-16.08,32.35,1.7l123.41,6.77s56.2,15.09,0,17.78l-17.7.85-133,6.77s-197.48,9.31-208.55,0c0,0-53.62,12.61-269.82-1.31l-286,.54s-122.32,5.15-126.7,0-106.52-6-106.52-6H0V380.21S31.5,354,55.33,361.57Z" transform="translate(0 -16.78)"/></g></g><g id="cloud3-2" data-name="cloud3" class="cls-1"><path class="cls-4" d="M1408.55,141.86s-8.69,16.58,0,22.91c0,0-22.11,9.48-15,18.16s-29.88,11.07-28.77,7.9-31.4,6.32-28.56,18.17c0,0-18.24.79-20.74,7.9s-24.21-15.8-24.21-15.8,9.9-28.25-17.36-24.4c0,0-.62-19.83-23.82-21.41,0,0,4.06-23.74,0-36.71s-17.66-22.52-19.24-18.58,6.58-37.91-48-34.75-40.41,56.86-28.56,61.6-9.43,5.53-9.43,5.53-11.1-10.27-16.63,0-9.48,2.37-9.48,2.37-12.21-9.07-10.84,6.92c0,0-23.91,12,3.73,20.72,0,0-4,7.9-10.27,5.53s-33.17-4-35.54,13.42c0,0-24.36,13.43-18.1,24.49,0,0-29.46,35.54,12.88,68.71,0,0-28.74,0-31.11,14.22,0,0-30.81-10.27-41.07,8.69,0,0-25.28-4-28.43,3.95s17.14-59.23-17.89-60-56.35,14.21-44.5,37.12l-3.3,11.06s-19.61,6-16.45,12.49c0,0-21.4,10.74-8.33,17.68s5.29,9.32,5.29,9.32h-9.52s-20.45-9.48-25.27,16.58l-15.88,10.27s8.7-11.84,0-18.17-4.73-34-45-14.21c0,0-35.54,0-27.64,16.59s22.9,15.79,22.9,15.79l1.58,5.57s-19-4.7-19.75,0-1.58,11.21,0,13.09-11.84,3.55-11.84,7.85-16.59-15.35-23.7,0c0,0-19.74-9.92-31.59,14.56,0,0-20.53-7.9-31.58,0,0,0-42.59.21-43.44,7.9,0,0-30.33,9.48-27.55,14.21s1085.06,0,1085.06,0l-161.12-75,71.07-75-31.59-60s-.79-19-7.9-22.91,26.85-19-24.49-27.64c0,0-12.91-5.53-23.43,0,0,0,44-22.11-11.32-31.59C1482.79,126.86,1431.45,97.63,1408.55,141.86Z" transform="translate(0 -16.78)"/><path class="cls-3" d="M1651.53,386.69s-7.15-19-23-6.32c0,0-18.26-23.69-34.94-23.69,0,0-12.94-5.53-18.38,0,0,0-17.61-11.06-22.25-5.53s0-4.75,0-4.75A28.19,28.19,0,0,0,1581.27,333s29.37-1.58,24.62-22.11c0,0,7.54,2.37,7.94-10.66,0,0,15.88-7.5,13.09-21.72l21-10.26-17.07-4s-13.1-8.29-19.45-3.95c0,0-1.19-22.91-26.6-19.35,0,0,9.14-31.59-16.27-29.22,0,0-11.52-31.2-29-13l-6,2s-7.15-5.92-13.11-2.76-.39-7.5-.39-7.5,14.29-6.31-1.59-11.45-26.59,0-26.59,0-9.13,4.34-9.13,9.48-29,13.82-25.41,22.51,15.09,12.64,20.64,12.25.8,4.34.8,4.34-7.54-2.37-7.94,2.37-8.73,0-8.73,0-15.49-13.82-39.3-.79c0,0-26.2,2-12.31,15.4,0,0-2.77,11.85,16.67,7.89l.8,5.93s-10.72-1.58-11.51,2.37-10.72.79-10.72.79-51.6-5.93-24.21,33.76c0,0-8.34,22.51,16.67,32.58l-.59,11.85-5.37-.59s-12.5-14.81-28-5.92c0,0-4.16-7.11-5.95-4.74s8.93-21.32-16.68-16c0,0,2.38-31.4-43.47-20.73,0,0,2.39-9.48-6.55-10.66,0,0,6-12.44,4.76-18.36a11.82,11.82,0,0,1,3-10.07s33.94-11.85,23.82-29.62c0,0,16.08-8.89-1.19-8.89h-6s3-11.85-14.89-8.88c0,0-16.08-24.29-28.58-12.44s7.13,25.47,7.13,25.47a8.76,8.76,0,0,0-4.24.55,6.39,6.39,0,0,1-1.95,3,8.64,8.64,0,0,0,.84,3.53s-35.56,12,3.57,14.81l1.2,6.51s-23.23-1.77-26.8,7.11c0,0,.6-14.22-13.1-13.62s-20.83-9.47-23.82,8.89c0,0-16.08,6.51-10.72,20.13,0,0-8.93,16.59-1.79,20.73,0,0-7.15,1.19-5.35,5.93s-34.54-5.7-30.38,13.14c0,0-7.11,4.63-5.64,11.14,0,0-15.2,1.18-12.82,6.51s-7.74,1.78-7.74,1.78-10.12-8.88-19.05-5.33c0,0-8.94-16.59-25-7.7,0,0-22-16-25.61,3,0,0-20.38,0-19.71,5.33s11.38,7.11,11.38,7.11-3,8.88,10.72,10.07l1.79,9.48s-13.7-3-13.7,6.52-35.13-13-35.13-13-33.94.59-14.29,26.06c0,0-20.64,1-13.49,19.94L988.58,393s-9.53-5.53-21.44,2.36-15.08-3.95-15.08-3.95,16.68-19,3.18-29.22-8.74-21.33-4.77-22.11,14.29-27.41,7.94-31.08c0,0,23.81-21,1.59-36,0,0,1.58-25.27-15.08-7.9,0,0-4-7.11-12.71,0,0,0-15.08,3.16-16.67,10.27s-12.71-.79-12.71-.79,2.38,13.42,18.26,7.11c0,0,7.15-.79,7.94,5.53s14.29,3.16,14.29,3.16l.79,7.9s-17.47,6.32-4,14.22c0,0-7.15,6.32,2.38,11.85s1.58,11.85,1.58,11.85-13.49,2.36-6.35,13.42c0,0-5.56,6.32-4,11.06,0,0-27.79-7.9-27,8.69,0,0-6.35,6.32-3.17,10.27,0,0-15.09-.79-12.71,7.9,0,0-34.14-8.69-28.58,9.47,0,0-11.91-.79-10.32,3.16s-22.23,3.17-22.23,3.17-.8-14.22-4.76-14.22c0,0,.8-33.17-14.29-30,0,0,15.09-12.64-.79-16.59,0,0-9.52-15.8-11.91,5.53,0,0-16.67,0-14.29,8.69,0,0-19.06,11.05,12.7,8.69,0,0,1.59,11.05,7.94,11.05,0,0-4.76,10.26,2.38,14.22,0,0-27-2.37-24.61,9.47,0,0-34.13.79-33.34,4.74s-14.29-15-30.17,1.58l-115.12,6.31s-52.42,14.08,0,16.59l16.5.79,124,6.32s184.2,8.69,194.52,0c0,0,50,11.76,251.68-1.23l266.78.5s114.09,4.81,118.18,0,99.36-5.6,99.36-5.6h28.59V404.06S1673.76,379.58,1651.53,386.69Z" transform="translate(0 -16.78)"/></g></g></svg>