<svg id="Layer_1" data-name="Layer 1" xmlns="http://www.w3.org/2000/svg" viewBox="0 0 2122.31 493.14"><defs><style>.cls-1{fill:#dfe3e7;}.cls-2{fill:#fbfcf4;}</style></defs><title>เมฆ</title><path class="cls-1" d="M234.92,1169.74a174.73,174.73,0,0,0,12.84-66.26,178.54,178.54,0,0,0-3.2-33.62c18.48,20.78,43.81,33.62,71.75,33.62,37.41,0,70.13-23,88-57.28,20.9-7.46,38.54-23.37,49.87-44.25H-1.42v189.24c24.53,41.33,65.91,68.47,112.83,68.47,54.63,0,101.75-36.79,123.51-89.93" transform="translate(1.47 -787.84)"/><path class="cls-1" d="M1055.27,1149c44.77-8.63,78.75-50.66,78.75-101.24a108.58,108.58,0,0,0-10.41-46.67H88.67v18.29l1.05-1.09q-.58,2.84-1.05,5.72v47.68a143.38,143.38,0,0,0,10.06,34.16c20.34,46.59,64.4,78.85,115.46,78.85,57.31,0,105.78-40.64,121.83-96.56a72.29,72.29,0,0,0,33.8-23.8c7.19,6.94,16.12,11.1,25.84,11.1s18.4-4.05,25.54-10.82a35.25,35.25,0,0,0,18.27-5.21c17,44.37,55.72,75.37,100.78,75.37,55,0,100.59-46.2,108.73-106.53l1.5-.12a171.09,171.09,0,0,0,43.31-9.2c3.51,52.45,34.19,96.79,77,116.85,10.32,19,29.47,31.74,51.41,31.74,1.65,0,3.29-.09,4.91-.24,10.29,33.2,35.87,58.87,67.78,67.36,17.08,17,39.93,27.4,65.05,27.4,55.88,0,100.75-53.34,95.3-113" transform="translate(1.47 -787.84)"/><path class="cls-1" d="M606.26,1073.09H289.45c.19,3.8.52,7.6.94,11.39,4.07,26.63,10.95,52.75,13.93,79.56,27.12,54.87,82.65,63.18,146.79,63.18,70.37,0,102.82-47.81,126.31-114.95-.66-5.11,29.24-2.83,28.83-7.92C604.7,1085,603.06,1092.42,606.26,1073.09Z" transform="translate(1.47 -787.84)"/><path class="cls-1" d="M830.19,1150.79c41.34-7.8,72.72-45.79,72.72-91.51a96.45,96.45,0,0,0-9.61-42.19H-1.42s-.13,171,0,214.17c.06,20.13,34.68-8.67,54.92-8.67,52.92,0,97.68-76.27,112.5-126.81a66.77,66.77,0,0,0,31.22-21.52c6.64,6.27,14.89,10,23.86,10s17-3.66,23.58-9.78a33.06,33.06,0,0,0,16.87-4.71c15.71,40.1,51.46,68.13,93.06,68.13,50.8,0,92.89-41.76,100.4-96.3l1.39-.11a161,161,0,0,0,40-8.32c3.24,47.41,31.57,87.49,71.13,105.63,9.53,17.16,27.22,28.69,47.48,28.69,1.53,0,3-.08,4.53-.21,9.5,30,33.12,53.22,62.59,60.89A85.81,85.81,0,0,0,742.18,1253c51.6,0,93-48.22,88-102.18" transform="translate(1.47 -787.84)"/><path class="cls-1" d="M1919.15,1182.39c.85-85-.56-129-.56-129H943.36v15.95l1.06-1q-.59,2.48-1.06,5V1115a112.55,112.55,0,0,0,10.16,29.79c20.54,40.63,65,68.77,116.56,68.77,57.86,0,106.79-35.45,123-84.21a73.86,73.86,0,0,0,34.13-20.76,40,40,0,0,0,51.86.25,39.82,39.82,0,0,0,18.44-4.54A111.12,111.12,0,0,0,1399.23,1170c55.54,0,101.55-40.29,109.76-92.91l1.52-.1a196.42,196.42,0,0,0,43.73-8c3.54,45.74,34.51,84.42,77.76,101.91,10.42,16.56,29.75,27.69,51.9,27.69,1.67,0,3.32-.08,5-.21,10.38,29,36.21,51.35,68.43,58.75a100.52,100.52,0,0,0,65.67,23.89c56.41,0,101.71-46.53,96.21-98.59" transform="translate(1.47 -787.84)"/><path class="cls-1" d="M1129,1226.52c34.33-7.07,61.85-28.47,72.91-56.13,1.74.12,3.5.19,5.28.19,23.6,0,44.2-10.63,55.3-26.45,46.07-16.72,79.08-53.67,82.85-97.38a231,231,0,0,0,46.59,7.67l1.62.1c8.75,50.28,57.78,88.78,117,88.78,48.46,0,90.1-25.84,108.4-62.81a46.41,46.41,0,0,0,19.65,4.34,46.37,46.37,0,0,0,55.26-.24,80.7,80.7,0,0,0,36.36,19.84c17.26,46.6,69.4,80.47,131,80.47a159.86,159.86,0,0,0,58.72-11V1001.09H857.46a89.66,89.66,0,0,0,12.81,14.06,100.46,100.46,0,0,0,16.12,11.67,74.91,74.91,0,0,0-14.55,43.94c0,42.15,36.55,77.18,84.71,84.37-5.85,49.75,42.41,94.21,102.52,94.21,27,0,51.6-8.67,70-22.83" transform="translate(1.47 -787.84)"/><path class="cls-1" d="M1199.69,1076.22c-.37-5.6-1.06-11.34-.62-17h465.86a76.57,76.57,0,0,1-12.11,10.76,97,97,0,0,1-15.24,8.93c8.73,9.84,13.76,21.33,13.76,33.62,0,32.26-34.56,59.06-80.08,64.57,5.53,38.07-40.09,72.1-96.91,72.1-25.54,0-48.78-6.63-66.14-17.47-32.45-5.41-58.47-21.79-68.92-43-1.65.09-3.31.15-5,.15-22.31,0-41.78-8.14-52.28-20.24-43.55-12.79-74.75-41.07-78.32-74.52-1.09.24-2.2.47-3.31.7C1200.52,1088.66,1200.1,1082.43,1199.69,1076.22Z" transform="translate(1.47 -787.84)"/><path class="cls-1" d="M2117.94,1152.32c.24.92.45,1.85.59,2.77l2.3,1.19Q2119.28,1154.35,2117.94,1152.32Z" transform="translate(1.47 -787.84)"/><path class="cls-2" d="M236.34,911.36a174.73,174.73,0,0,1,12.84,66.26,178.54,178.54,0,0,1-3.2,33.62c18.48-20.78,43.81-33.62,71.75-33.62,37.41,0,70.13,23,88,57.28,20.9,7.46,38.54,23.38,49.87,44.25H0V889.9c24.53-41.33,65.91-68.47,112.83-68.47,54.63,0,101.75,36.79,123.51,89.93" transform="translate(1.47 -787.84)"/><path class="cls-2" d="M1056.69,932.09c44.77,8.63,78.75,50.66,78.75,101.24A108.58,108.58,0,0,1,1125,1080H90.09v-18.29l1.05,1.09q-.58-2.84-1.05-5.72V1009.4a143.38,143.38,0,0,1,10.06-34.16c20.34-46.59,64.4-78.85,115.46-78.85,57.31,0,105.78,40.64,121.83,96.56a72.29,72.29,0,0,1,33.8,23.8c7.19-6.94,16.12-11.1,25.84-11.1s18.4,4.05,25.54,10.82a35.25,35.25,0,0,1,18.27,5.21c17-44.37,55.72-75.37,100.78-75.37,55,0,100.59,46.2,108.73,106.53l1.5.12a171.08,171.08,0,0,1,43.31,9.2c3.51-52.45,34.19-96.79,77-116.85,10.32-19,29.47-31.74,51.41-31.74,1.65,0,3.29.09,4.91.24,10.29-33.2,35.87-58.87,67.78-67.36,17.08-17,39.93-27.4,65.05-27.4,55.88,0,100.75,53.34,95.3,113" transform="translate(1.47 -787.84)"/><path class="cls-2" d="M607.68,1044.76c.41-5.74-29.5-3.17-28.83-8.93-23.49-75.68-55.94-129.56-126.31-129.56-67.36,0-125.22,10.33-150.66,80.92a50.35,50.35,0,0,0-27.31-8.29c-10.68-10.76-23.86-17.21-38.18-17.21-14.52,0-27.87,6.62-38.62,17.66-13.21-17.6-30.65-30.93-50.54-37.87C145.5,871.21-.6,767.37-.6,791.36V1080H607.68C604.48,1058.22,606.11,1066.63,607.68,1044.76Z" transform="translate(1.47 -787.84)"/><path class="cls-1" d="M831.6,946.3c41.34,7.8,72.72,45.79,72.72,91.51a96.44,96.44,0,0,1-9.61,42.19H0S-.13,909,0,865.83c.06-20.13,34.68,8.67,54.92,8.67,52.92,0,97.68,76.27,112.5,126.81a66.77,66.77,0,0,1,31.22,21.52c6.64-6.27,14.89-10,23.86-10s17,3.66,23.58,9.78a33.06,33.06,0,0,1,16.87,4.71c15.71-40.1,51.46-68.13,93.06-68.13,50.8,0,92.89,41.76,100.4,96.3l1.39.11a161,161,0,0,1,40,8.32c3.24-47.41,31.57-87.49,71.13-105.63,9.53-17.16,27.22-28.69,47.48-28.69,1.53,0,3,.08,4.53.21,9.5-30,33.12-53.22,62.59-60.89a85.81,85.81,0,0,1,60.07-24.76c51.6,0,93,48.22,88,102.18" transform="translate(1.47 -787.84)"/><path class="cls-2" d="M1920.56,907.08c.85,95.93-.56,145.63-.56,145.63H944.77v-18l1.06,1.08q-.59-2.79-1.06-5.63V983.2a138.5,138.5,0,0,1,10.16-33.63c20.54-45.87,65-77.63,116.56-77.63,57.86,0,106.79,40,123,95.07a73,73,0,0,1,34.13,23.44c7.26-6.83,16.28-10.93,26.08-10.93s18.57,4,25.78,10.65a36.24,36.24,0,0,1,18.44,5.13c17.18-43.68,56.25-74.21,101.74-74.21,55.54,0,101.54,45.48,109.76,104.89l1.52.11a176.49,176.49,0,0,1,43.73,9.06c3.54-51.64,34.51-95.3,77.76-115,10.42-18.69,29.75-31.25,51.9-31.25,1.67,0,3.32.09,5,.23,10.38-32.69,36.21-58,68.43-66.32a94,94,0,0,1,65.67-27c56.41,0,101.71,52.52,96.21,111.3" transform="translate(1.47 -787.84)"/><path class="cls-1" d="M1130.46,854.58c34.33,7.07,61.85,28.47,72.91,56.13,1.74-.12,3.5-.19,5.28-.19,23.6,0,44.2,10.63,55.3,26.45,46.07,16.72,79.08,53.67,82.85,97.38a231,231,0,0,1,46.59-7.67l1.62-.1c8.75-50.28,57.78-88.78,117-88.78,48.46,0,90.1,25.83,108.4,62.81a46.41,46.41,0,0,1,19.65-4.34,46.37,46.37,0,0,1,55.26.24,80.7,80.7,0,0,1,36.36-19.84c17.26-46.6,69.4-80.47,131-80.47a159.86,159.86,0,0,1,58.72,11V1080H858.87a89.66,89.66,0,0,1,12.81-14.06,100.46,100.46,0,0,1,16.12-11.67,74.91,74.91,0,0,1-14.55-43.94c0-42.15,36.55-77.18,84.71-84.37-5.85-49.75,42.42-94.21,102.52-94.21,27,0,51.6,8.67,70,22.83" transform="translate(1.47 -787.84)"/></svg>