<svg xmlns="http://www.w3.org/2000/svg" viewBox="0 0 1366 242.17"><defs><style>.cls-1{fill:#2f3438;}.cls-2{fill:#292d30;}</style></defs><title>ดิน</title><g id="Layer_2" data-name="Layer 2"><g id="Layer_1-2" data-name="Layer 1"><path class="cls-1" d="M1366,130.21V242h-71v.13H570l4.31-.13,45.09-93.25,7.29-15.08,1.54-1.62,8.25-8.68.39-.42,1.42-1.49,3.61-3.8,2.39-2.52,3.42-3.6,4.79-3.75,1.18-.92,10.51-8.23,2-1.59,1.86-1.46,4.3-3.36,3.75-2.94,8.38-6.56.53-.41,1.7-1.33.67-.17.45-.11,5.52-1.38,1-.24,24.24-6.3L728.8,70H842.93l5.78,1.79,16.68,4.61,7.46,2.07L882,81l8.08-1.22,4.19-.74h0L924,75.54h.66L942,72.85l.44,0,1.74-.27,7.71-1.22,5.19-.83,14.07-2.9,6-1.25,3.17-.65.29-.06,3.37-.7,8.08-1.66,3.06-.64L998,62l7.82-1.62,2.29-.47c.8.49,1.59,1,2.39,1.41,5,2.77,9.94,4.43,14.81,3a16.1,16.1,0,0,0,6.83-4.38l7.22-4.15,13.8-7.77h93.11l15,9h43.54l36.6-.18,27.35,13.34,26.31,9.36,33.8,12Z"/><path class="cls-2" d="M526,161.16l-1,3.35-25.14.79s-34.66-6.86-57.62-7.21c-13.75-.22-23.3,1.89-18.67,9.22a18.25,18.25,0,0,0,1.77,2.28c20.7,23.13-11.51,24.25-11.51,24.25l-5.56-.68h0L272.59,180.6l-127-11.83L0,156.17v-134l20.41-1.61,84-6.42L129.73,18l16.11-9L176.9,0a512.52,512.52,0,0,0,51.92,6.14c1.86.11,3.73.21,5.59.29a54.1,54.1,0,0,1,12.52,2.14,85.6,85.6,0,0,1,19.38,8.6,124.79,124.79,0,0,1,12.42,8.42h0c3.19,2.43,5.86,4.69,7.86,6.47.08.08.16.14.23.22s.08.17.18.27,0,.13,0,.17h0a43.08,43.08,0,0,0,3.77,3.44h31.08l6.37,2.44.15.06,6.16,2.42.09,0,3.31,1.29,1.69,3.14.16,0,8.22,15h0l-.07.14,0,.21,3.69,6.94.09.21,2.6,2.1,5,4,.65.53.54.43,1.85,1.5L372,84.41l11.67,9.42,7.16,5.78,23.06,18.6,5.41,4.19,5,3.84,8,6.19,1.19.73s18.61,4,31.56,1h0a14.25,14.25,0,0,0,4.08-.74c4.54-1.39,13.17,1.84,22.37,6.47,5.49,2.76,11.17,6.26,16.31,9.26h0C518,155.17,526,161.16,526,161.16Z"/><polygon class="cls-1" points="528 242.17 166 242.17 139 242.17 32 242.17 0 242.17 0 113.17 12.14 107.99 38.04 93.04 179.66 93.04 198.19 101.28 198.25 101.31 232.42 116.14 232.57 116.23 265 130.34 265 141.42 284 158.66 286.5 159.89 286.58 159.92 303.89 168.16 303.94 168.08 316.7 174.04 316.71 174.04 317.59 174.57 339.75 180.61 360.67 194.04 382.84 194.04 407.35 200.94 408.25 201.04 408.28 201.04 456.26 214.8 456.54 215.12 523 220.17 532 231.17 528 242.17"/><path class="cls-1" d="M350,242.17H301l-18.5-30.76-10.38-23.84-16.31-7.95s-10.56-7.15,5-8.94,13.34,0,13.34,0,5.56.2,7.23-.79,6.11,0,6.11,0l8.33,6.16,3.34-2.38,6.11-7.15h40l10.56-5.36,13.9-6.56s18.9-3,22.79-3,15.56-6,15.56-6h52.25l17.78-12.52h20l22.23-9.53L546,98.6s12.23-10.73,15.56-11.92,30-9.54,30-9.54h47.8a160.6,160.6,0,0,1,18.9,8.34c8.89,4.77,20,8.34,28.9,15.49s21.12,9.53,28.9,23.84,59,117.35,59,117.35H350Z"/></g></g></svg>