<svg id="ICON" xmlns="http://www.w3.org/2000/svg" viewBox="0 0 143.28 143.28"><defs><style>.cls-1{fill:#fff;}</style></defs><title>facebook</title><polygon points="119.81 142.68 39.93 142.68 39.93 15.51 128.38 17.51 119.81 142.68"/><path class="cls-1" d="M117.47,201.49H33A29.43,29.43,0,0,0,3.61,230.92v84.42A29.43,29.43,0,0,0,33,344.77H81.3v-57H61.72V265.72H81.3V250.13h0c0.08-14.93,5.49-20,5.49-20,7.94-10.32,20.39-10,20.39-10H127v20.78H113.78c-9.07-.16-9.85,7.52-9.9,9.26h0v15.58H126l-2.71,22.06H103.88v57h13.59a29.43,29.43,0,0,0,29.43-29.43V230.92A29.43,29.43,0,0,0,117.47,201.49Z" transform="translate(-3.61 -201.49)"/></svg>