<svg id="ICON" xmlns="http://www.w3.org/2000/svg" viewBox="0 0 143.28 143.28"><defs><style>.cls-1{fill:#d8e7ec;}</style></defs><title>facebook</title><path class="cls-1" d="M234.32,206.69H149.9a29.43,29.43,0,0,0-29.43,29.43v84.42A29.43,29.43,0,0,0,149.9,350h48.26V293H178.57V270.92h19.58V255.33h0c0.08-14.93,5.49-20,5.49-20,7.94-10.32,20.39-10,20.39-10h19.81v20.78H230.63c-9.07-.16-9.85,7.52-9.9,9.26h0v15.58h22.13L240.16,293H220.73v57h13.59a29.43,29.43,0,0,0,29.43-29.43V236.12A29.43,29.43,0,0,0,234.32,206.69Z" transform="translate(-120.46 -206.69)"/></svg>