<svg id="เขา" xmlns="http://www.w3.org/2000/svg" viewBox="0 0 595.28 463"><defs><style>.cls-1{fill:#4c535a;}.cls-2{fill:#585e64;}.cls-3{fill:#454b53;}.cls-4{fill:#484f57;}.cls-5{fill:#445053;}.cls-6{fill:#48535c;}.cls-7{fill:#4e565e;}.cls-8{fill:#596067;}</style></defs><title>เขาเต็ม</title><path class="cls-1" d="M327.41,219.13l-1.06-1.64-6-7.38a10.54,10.54,0,0,0,1.34-4c0-1.68-1.34-10.07-1.34-10.07l1.34-3.35s2-20.13.34-20.13,0-16.11,0-16.11l-1.68-4.36.67-5.37-1-10.06-1.4-8.72v-9.39L317,113.14l-.34-14.76L316,87.65s-1.34-8.39-4-12.75.67-4,.67-4l1-3.69s-1-27.85-5-32.54A62.63,62.63,0,0,1,302,25.4l-4,5s-1.17,20.3-3.19,20.3l-2,15.77s-.33,11.07,0,13.09-3,11.07-3,11.07l-2.68,11.41s-7.38,26.17-6.71,29.53-2,19.46-2,19.46l-6,27.51L271,186l-2.68,6L265,194s-18.45,31.2-19.8,29.19l-3.86,1.17s-3.19,15.6-4.36,16.27-12.41,11.91-12.41,11.91l-2.68,9.9L220,264.63l-1.68,22.65,9.4,21.47,26.51,22.14,23.15,7.38H302l14.14-1.88c3.74-30.8,5.45-61,8.73-92.36C325.74,235.71,326.6,227.41,327.41,219.13Z"/><path class="cls-1" d="M333.4,239l-.34-11.07-5.65-8.76c-.82,8.28-1.68,16.58-2.51,24.91-3.28,31.41-5,61.56-8.73,92.36l16.22-2.15,7.38-11.41V284.93Z"/><path class="cls-2" d="M297.5,201s5.1,20.68,4.66,24.64c1.34-3.35,8.09-18.52,8.09-19.95,0-1.68-2.68-7-2.68-7s.34-7.38,2.68-3.69,5,13.76,5,13.76,4.36,7.05,6.37-2.68L320.32,196s4.86-13.09,1.68-23.49l-.67-2.17v.17s-2.12-7.08,0-.17l.67-13.94-1.68-4.36.67-5.37-2.4-18.79v-9.39L317,113.14s3.47-20.56-6.07-40.92c0,0,1-2,1.71-1.35s1-4.84,1-4.84-1-30.4-5-31.4L302,25.4v21s-2.85,22.14-2.85,26.51V96.7s-1.34,21.14,0,22.82-2,32.88-2,32.88-5.7,12.08-5.7,13.09-6.71,14.09-6.71,17.11S285.09,196,297.5,201Z"/><path class="cls-2" d="M302,226.21a1.43,1.43,0,0,0,.13-.52C301.92,226.29,301.85,226.51,302,226.21Z"/><path class="cls-2" d="M321.32,170.53v-.17C319.2,163.45,321.32,170.53,321.32,170.53Z"/><path class="cls-3" d="M282.4,193.33,276,207.09s-5.71,29.19-7,29.19-2,18.45-2,18.45h-6.38V279.9s1,14.43,0,14.76,10.91-16.78,10.91-16.78-3.86-10.74-2.85-12.08,5.37-9.73,5.37-9.73l6.37-1,.34-13.09,3-1.34V215.47Z"/><path class="cls-3" d="M328.37,195.67l-1.68,3.69,2.1,5.15q.62-7,1.15-13.95Z"/><path class="cls-3" d="M329.71,158.43l1.51,10.69q.32-7.7.41-15.41Z"/><path class="cls-3" d="M535.32,347.25,434.06,295.33l-3-12.41S419,265.47,412.92,263.79s-14.43-8.05-14.43-8.05-14.09-33.89-13.09-37.24S375,199,375,199l0-4s.34-13.42-1.68-13.76S371,162.5,371,162.5l-1.68-1.72s.67,2-2,1.68-8.05-20.8-8.05-20.8v-6l-2.68-26.84L354.21,89s-.67-10.07-2.68-13.09-1.17-10.23-4.19-31.37-7.55,0-7.55,0l-1,7.55-1.34,11.41-1.34,4.7L336.76,85l-.34,4.7L335.08,97l.34,6.71-3.52,49.32-.26.65q-.08,7.71-.41,15.41l.67,4.75v10.4l-1.95,6.3q-.52,7-1.15,13.95l3.1,7.6L329,219.5l-3.25,15.74q-.45,4.4-.89,8.8c-4.85,46.38-6.25,90-15.86,137.05l3.9-1.22,23.82-22.82,50.83,11.08,158,9.56Z"/><path class="cls-3" d="M325.79,235.24l-1.11,5.4-6.1,18.79-4,19.8-5.37,23.15L290.12,327.2S278,332.57,277,332.9s-14.09,7-14.09,7L251.2,354.38l-9.73,17.78L227,389.94l50.68.92L309,381.09c9.61-47,11-90.67,15.86-137.05Q325.34,239.63,325.79,235.24Z"/><path class="cls-4" d="M274.35,336.43l-18.62-22.14-7.55-15.6-6.54-11.58L233.08,278s-10.07-9.73-11.58-11.58-8.56-2-8.56-2l-5,2L205.4,263l-4.53.5-3.52,3-5.54,2-5,1.51-3,3.52v3l-4,2-2.52,4.53-7.4,3.37-9.21-4.88-5-2-4,.5-7,6-8.05,5.54-3,4-7,7.55-10.57,5-11.58,5s-14.09,3-16.61,4a83.11,83.11,0,0,1-13.09,4l-17.61,3.52-11.07,3.52-6,8.05v8.05H274.35Z"/><path class="cls-3" d="M327.33,219.94l-.25-.44s-5.61,25.57-7.45,26.4-6,10.76-6,10.76l-3.42,7.73-12.09,11-2.63,5L292,290.87s-4.73,3.59-5.78,3.59-3.94,1.66-3.94,1.66l-11,6.9-5,2.48-8.41,6.9-6,4.69-3.42,2.76L245.27,324l4.73,9.66-1.05,3-6,3.59-14.45,1.93-11.83,5-3.68,3.31-7.1,3.31h-9.46l-10-4.42-7.88.55-7.1.83-6,3-8.93-1.66-8.67-.83L168,388l18.92,8.83h20L243,393.88l28-7,30.48-7.36,8.29-2.21c8.94-45.61,10.39-88.14,15.11-133.29C325.71,236,326.54,228,327.33,219.94Z"/><path class="cls-3" d="M368.23,291.41l-40.9-71.47c-.79,8-1.62,16-2.43,24.1-4.72,45.14-6.17,87.67-15.11,133.29l63.53-16.92Z"/><path class="cls-4" d="M307.9,326.53l-1.68-3-11.41-1-4.36-3.69h-9.73l4.7,7.72,3.35.34,4.7,2.68h5.37l5,1,4,3.69,8.39-2.35.44-.22q.39-3.38.75-6.74Z"/><path class="cls-4" d="M315.62,304.39l3,1.68.66,1.1q.18-1.92.35-3.84Z"/><path class="cls-4" d="M362.78,220.23c-.34-4.36-5.37-22.14-6.38-24.16a7.94,7.94,0,0,0-2.68-3L352,174.93l1.68-6s-2-14.43-2.35-16.44-4-3.69-4-3.69V135.67s-2.35-11.41-4-13.42a11.92,11.92,0,0,0-4.7-3l-1.68-8.14-1.51-.75-1-2.39-.75-2.89-1.29-9.87-1.3,24.91-2,28.32-.26.65q-.08,7.71-.41,15.41l.67,4.75v10.4l-1.88,5.47q-.55,7.39-1.22,14.78l3.1,7.6-2.85,7.38,5.8,14.77,3.31,9.06,3.31,11.74,6.71,13.09,4.7,5.37L348.35,285l1.34,5-.34,5.7a23.7,23.7,0,0,1-4,.67c-1.34,0-2-1.68-2-1.68l-1-3.36-2-.67-3-3.69-2,.67L332,290.35l-1.44,4,1.44,3.36v2.68l-2.78-2h-4.36l-3.09.67-4-.67-1.06.28q-.17,1.92-.35,3.84l1.74,2.92,3.62,1v4.7l-3.62,5.7-1,3-2.5.42q-.36,3.37-.75,6.74l4.25-2.13,5.7-4.63,5-4.76s6,1.68,8.05,4,5-1.68,5-1.68l3.69-14.43,9.73-5s9.06-6.71,10.07-15.43S363.12,224.59,362.78,220.23Z"/><path class="cls-4" d="M326.69,199.36l2.1,5.15q.66-7.4,1.22-14.78Z"/><path class="cls-4" d="M329.71,158.43l1.51,10.69q.32-7.7.41-15.41Z"/><polygon class="cls-1" points="260.76 422.49 241.13 364.61 234.09 354.05 221 339.45 206.91 334.42 198.86 334.42 187.78 334.42 178.73 334.42 168.66 334.42 155.57 339.45 141.48 336.93 130.41 334.42 113.3 329.38 105.25 329.38 98.2 323.85 82.6 323.85 67 323.85 61.96 327.88 47.37 327.88 40.83 323.85 33.28 323.85 24.22 323.85 4.59 358.07 2.58 417.96 260.76 422.49"/><path class="cls-5" d="M311.82,366.29l-12.31,8.89L291,381.12s-10.07,1.62-15.6.11S250.43,392,250.43,392l.44,1.31,11,.3s41.67-7.38,32.61,1.68,5,9.56,5,9.56l6.36-.53c1-7.53,1.42-15.06,3-22.59Q310.51,374,311.82,366.29Z"/><path class="cls-5" d="M493.78,351.53l-8.05-13.59-14.09-1-36.74-2.52-11.07,1.51-7-3.52-13.59-3.52A244.55,244.55,0,0,1,378,331.4c-12.58.5-24.66,11.58-24.66,11.58H339.78l-7,2.52-6,10.07-14.87,10.74q-1.33,7.68-2.92,15.46c-1.61,7.53-2,15.06-3,22.59l185.39-15.57Z"/><path class="cls-6" d="M304.73,411l-.43.2-12.08,3.36-11.41,7.38H268.73l-79.18,22.29,125.1,1.8C309.09,435,301.51,423.92,304.73,411Z"/><path class="cls-6" d="M549.9,422.61l-11.41-23.49L519,387.71l-21.47-2L470.71,375l-14.09-8.05H379.45L333.15,387v6l-10.46,9.4-18,8.52c-3.21,12.92,4.37,24,9.92,35l232.89,3.35Z"/><path class="cls-7" d="M439.76,368,429,379.38v8.05H416.95v3.35l-13.42-3.35-7.38,7.38,4.7,44.9.67,12.81-.28-5.25,58.66.55,16.78-8.11,27-.82,24-.09,30.47,1,19.48-10.52s-4-52-12.75-56.06-34.49-20.63-36.51-20.63-49.66-8.05-49.66-8.05Z"/><path class="cls-8" d="M288.44,417c-7-.75-6,0-6,0a10.29,10.29,0,0,1-3.27-.34c-.75-.42-2.77,0-2.77,0l-3.77,2.6-1.51-1-2.77-3H250.19l-4.78-2.26-6.29-2.77s-8.56-1.26-10.32-1.26-7-2.52-7-2.52H198.1L190,401.1H181l-10.07-4-11.58-10.57s-5.54-4.53-7-5-13.59-4-13.59-4H117.07a75.45,75.45,0,0,0-8.56,3.52c-4,2-9.06,3.52-13.09,6.54s-9.56,4-13.09,10.07S69.76,415.7,69.76,415.7l8.58,28,169.44.52,19.44-10.08h11.41l4.7-10.07,7.38-3.36S295.49,417.71,288.44,417Z"/><g id="Layer_17" data-name="Layer 17"><path class="cls-3" d="M297,40.62s10-37.12,17.61-37.12,9.4-1.08,16,2.71S337.33,11,340.51,17s6.37,12.56,4.68,20.53c0,0-.14,9.93.47,13.56s-6,0-6,0l-3.3,22.58L335,78.37,335.3,85l.4,10.13L334,107.22l-.81,13.3-1,16.11s.4-.08.2,4.89-1.05,7.1-1.3,10.6a75.41,75.41,0,0,0-.51,7.88v3.9l-1.92,4.72.71,5,1.32,9.5.15,3.65-.93,2.69-1,3.63.06,6.79-1.66,4.82-1.66,4.82,3.68,9L328,222l1.49,3.79-1.82,5.48-8.39-11,1-2.66.25-2.13-.25-1.71L319.8,212l-.47-2.5v-1.77l-.06-1.53,2.06-4.22v-8l.53-3.51-.53-4-.39-3.78a12.48,12.48,0,0,1-.67-2c-.34-1.3-.58-2.05-.58-2.05l-.36-4.33V171.6a16.18,16.18,0,0,0,.47-2.1c.06-.67,0-1.89,0-1.89s.78-.11,0-1.11a7.48,7.48,0,0,1-1.11-2.6l-1-5.57v-4.5a28.64,28.64,0,0,0,0-3.83c-.17-1.33-2-16.5-2-16.5l-1.11-16.16s3.89-8.7,1-8.77-2.88,3.43-2.88-.07-.5-3.25-.5-6.12V90s1.16.06-.08-2.43-.57-6.51-.57-6.51a13.44,13.44,0,0,0,1-3.69c0-1.15-.36-5.48-.36-7.67V67.5s-3.4-3.34-3.45-6.67a57.22,57.22,0,0,0-.76-7.41s2.29-4.14,0-4.78-5.13-3.32-5.13-3.32S302,39.1,301.11,39l-.91,0Z"/><path class="cls-1" d="M341.18,63.63c-1.71-7.42-4.17-14.56-5.48-22.07a19.88,19.88,0,0,0-.78-3.24l0,0c-1.9-1.52-3.89-2.92-5.76-4.48-2.19-.48-4.46-.69-6.69-1a48.93,48.93,0,0,1-6.06,14.72,37.64,37.64,0,0,0-1.74,7.63c-.48,4.38-.68,8.85-2.09,13.07-1.53,4.59-3.35,8.55-3.73,13.46-.66,8.46.94,16.76,1.94,25.12,1.1,9.25-.76,18.58.51,27.82.45,3.26,1.07,6.49,1.72,9.71h.25c1.63,0,1.39,2.45.72,4.92a96.94,96.94,0,0,1,1.81,13c.47,8.4-.72,16.78-.67,25.18.3,2.48.54,4.42.6,4.89a33.18,33.18,0,0,1,0,4.44v3q.16,2.06.34,4.12l.82,4.56a8.67,8.67,0,0,0,1.29,3c.9,1.16,0,1.28,0,1.28s.07,1.42,0,2.19a18.74,18.74,0,0,1-.55,2.44v2.52c1.08,8,3.48,15.75,5,23.72,2.24,11.91-.89,28,6,38.83l.76-2.27-1.72-4.39,1.55-4-4.27-10.46,3.84-11.15-.07-7.86,1.18-4.21,1.07-3.11-.17-4.22-1.53-11-.83-5.84,2.22-5.47v-4.52a87.34,87.34,0,0,1,.59-9.12c.29-4,1.28-6.51,1.51-12.27s-.23-5.67-.23-5.67l1.18-18.65.94-15.41,1.94-14L336.05,117l-.31-7.7,1.55-5.44,3.82-26.15s.61.33,1.45.71a19.3,19.3,0,0,1,.37-3.6A87.55,87.55,0,0,0,341.18,63.63Z"/></g></svg>