<svg id="Layer_1" data-name="Layer 1" xmlns="http://www.w3.org/2000/svg" xmlns:xlink="http://www.w3.org/1999/xlink" viewBox="0 0 666.04 877.78"><defs><style>.cls-1,.cls-24,.cls-25,.cls-32,.cls-33{fill:none;}.cls-2{clip-path:url(#clip-path);}.cls-3{clip-path:url(#clip-path-2);}.cls-4{fill:#8fa93f;}.cls-5{fill:#61514c;}.cls-6{fill:#503027;}.cls-7{fill:#fcbe3e;}.cls-8{fill:#015e47;}.cls-9{fill:#6e933d;}.cls-10{fill:#ba4e3c;}.cls-11{fill:#a14033;opacity:0.56;}.cls-11,.cls-26{isolation:isolate;}.cls-12{fill:#6c8c3b;}.cls-13{fill:#e9d8c4;}.cls-14{fill:#cc914b;}.cls-15{fill:#030303;stroke:#070606;}.cls-15,.cls-24,.cls-25,.cls-32,.cls-33{stroke-miterlimit:10;}.cls-16{fill:#eae8dd;}.cls-17{fill:#253c1a;}.cls-18{fill:url(#linear-gradient);}.cls-19{fill:#9db370;}.cls-20{fill:url(#linear-gradient-2);}.cls-21{fill:#ed2424;}.cls-22{fill:#6a8439;}.cls-23{fill:#906251;}.cls-24{stroke:#f3f0e9;}.cls-25{stroke:#fdba13;}.cls-26{fill:#5a6b30;opacity:0.31;}.cls-27{fill:url(#linear-gradient-3);}.cls-28{fill:url(#linear-gradient-4);}.cls-29{fill:url(#linear-gradient-5);}.cls-30{fill:url(#linear-gradient-6);}.cls-31{fill:#fff;}.cls-32{stroke:#000;}.cls-33{stroke:#060505;}.cls-34{fill:#5b7534;}</style><clipPath id="clip-path" transform="translate(-396.79 -146.75)"><polygon class="cls-1" points="666.04 146.75 663.94 877.78 396.79 877.78 396.79 146.75 666.04 146.75"/></clipPath><clipPath id="clip-path-2" transform="translate(-396.79 -146.75)"><polygon class="cls-1" points="329.44 988.65 663.62 988.65 666.04 146.75 329.44 146.75 329.44 988.65"/></clipPath><linearGradient id="linear-gradient" x1="951.89" y1="508.55" x2="951.89" y2="599.76" gradientTransform="translate(-326.05 50)" gradientUnits="userSpaceOnUse"><stop offset="0.14" stop-color="#ffce41"/><stop offset="0.64" stop-color="#faaf43"/><stop offset="1" stop-color="#f8993a"/></linearGradient><linearGradient id="linear-gradient-2" x1="1045.89" y1="754.6" x2="836.89" y2="754.6" gradientTransform="translate(-722.84 -96.75)" xlink:href="#linear-gradient"/><linearGradient id="linear-gradient-3" x1="737.24" y1="636.6" x2="783.54" y2="636.6" xlink:href="#linear-gradient"/><linearGradient id="linear-gradient-4" x1="1121.19" y1="743.75" x2="1169.79" y2="743.75" xlink:href="#linear-gradient"/><linearGradient id="linear-gradient-5" x1="755.45" y1="703.85" x2="795.25" y2="703.85" xlink:href="#linear-gradient"/><linearGradient id="linear-gradient-6" x1="1123.73" y1="681.2" x2="1170.91" y2="681.2" xlink:href="#linear-gradient"/></defs><title>Giant</title><g class="cls-2"><g class="cls-3"><path class="cls-4" d="M564.94,889.05l-16.2,44.6s-14.2,8.1-27,0v-50Z" transform="translate(-396.79 -146.75)"/><path class="cls-5" d="M521.64,934s-39.2,2-49.3-7.1,2.4,20.7,2.4,20.7h56.4Z" transform="translate(-396.79 -146.75)"/><path class="cls-6" d="M519.64,943.45s-39.9,13.2-58.1-40.5c0,0-3.4,48.6,12.8,65.2h71.6s9.8-22.6,2.7-32.6Z" transform="translate(-396.79 -146.75)"/><path class="cls-7" d="M548.64,934.35v6.4s-7.4,14.2-29.1,1.7l1.4-10.5,27.7,1.7" transform="translate(-396.79 -146.75)"/><path class="cls-4" d="M654.54,889.05l16.2,44.6s14.2,8.1,27,0v-50Z" transform="translate(-396.79 -146.75)"/><path class="cls-5" d="M697.74,934s39.2,2,49.3-7.1-2.4,20.7-2.4,20.7h-56.4Z" transform="translate(-396.79 -146.75)"/><path class="cls-6" d="M699.84,943.45s39.9,13.2,58.1-40.5c0,0,3.4,48.6-12.8,65.2h-71.7s-9.8-22.6-2.7-32.6Z" transform="translate(-396.79 -146.75)"/><path class="cls-7" d="M670.74,934.35v6.4s7.4,14.2,29.1,1.7l-1.4-10.5-27.7,1.7" transform="translate(-396.79 -146.75)"/><path class="cls-7" d="M549.84,669s-63.3,7.2-81-41.8c0,0-58.1,129.3,62,109.1Z" transform="translate(-396.79 -146.75)"/><path class="cls-7" d="M719,670.25s61.4,15.7,106.4-51.6c0,0,9.1,114.9-53.2,132.6l-75.4-22.2Z" transform="translate(-396.79 -146.75)"/><path class="cls-8" d="M724.74,671.25s44.8,6,80.9-29.1c0,0,16.4,87.8-93.2,70.5Z" transform="translate(-396.79 -146.75)"/><path class="cls-8" d="M519.44,667.15s-31.4-7.4-40.3-22c0,0-30.3,45.8,3.4,66.5h40.1Z" transform="translate(-396.79 -146.75)"/><path class="cls-8" d="M479.14,645.15s7.9,8.5,13.4,11.7l-3.2,2-10.3-6.1v-7.6Z" transform="translate(-396.79 -146.75)"/><path class="cls-9" d="M458.14,662.45s-96.7,30-47.3,63.7c0,0,37.6,34.6,75.4,29.1l2.9-34.6-31.7-15C457.44,705.55,451.24,689.15,458.14,662.45Z" transform="translate(-396.79 -146.75)"/><path class="cls-10" d="M502.34,830.15s-46.3,45.8,8.6,71.5c0,0,32.2,23.9,77.9-2.2l31.7,2.6s41,28.7,95.9-.9c0,0,30.5-13.1,8.7-41.8l-37.9-63.1-149.8-7.4Z" transform="translate(-396.79 -146.75)"/><path class="cls-11" d="M729.24,865.85s-202.6,42.9-242.5,14.5c0,0,19.3,39.3,84.7,31.2,0,0,52.4-7.6,76,1.1,0,0,37.4,11.4,78.7-18.2C726,894.45,739.54,883.15,729.24,865.85Z" transform="translate(-396.79 -146.75)"/><path class="cls-7" d="M711.94,812.85s6.7,49.9,41,44.1c0,0-57.6,96.6-104.6-39.3l63.6-21.3Z" transform="translate(-396.79 -146.75)"/><path class="cls-7" d="M507.84,799.75s-6.7,49.9-41,44.1c0,0,57.6,96.6,104.6-39.3l-63.6-21.3Z" transform="translate(-396.79 -146.75)"/><path class="cls-8" d="M507.44,794s.3,28.6-18.3,44.3c0,0,32,55.8,65-28.5l-46.3-23.9Z" transform="translate(-396.79 -146.75)"/><path class="cls-8" d="M703.64,794.35s12.4,44.8,25.6,55.9c0,0-35.7,59.7-67.1-36.3Z" transform="translate(-396.79 -146.75)"/><path class="cls-7" d="M671.94,897.75s-32.3,15.2-20.1-88L563,798.45s7,101-24.4,99.3c0,0,11.3,42.7,61.8,12.6.1,0,42.4,31.8,71.5-12.6" transform="translate(-396.79 -146.75)"/><path class="cls-8" d="M582.24,822.45s.4,66.6-8.7,77.5c0,0,20.5-.9,29.6-16.1,0,0,13.1,18.3,33.1,16.1,0,0-10.9-31.3-5.2-77.5Z" transform="translate(-396.79 -146.75)"/><path class="cls-12" d="M820.94,685s49.3,94.7,20.8,93.4c0,0-83.6-5.6-89.8-15l5.9-43.1,39.8,15.2S813.74,719.55,820.94,685Z" transform="translate(-396.79 -146.75)"/><path class="cls-9" d="M500.84,614s22.9,55.5,12.4,147.6c0,0,86.9,32.7,201.8,9.1,0,0,13.7-99.2,22.9-140.3.2-1,.4-1.9.6-2.8C747.74,588.45,500.84,614,500.84,614Z" transform="translate(-396.79 -146.75)"/><ellipse class="cls-1" cx="623.59" cy="526.06" rx="106.23" ry="146.18" transform="translate(-329.74 975.86) rotate(-87.14)"/><path class="cls-13" d="M736.14,275.85c-3.9,31.8-43.4,54.1-88.2,49.8s-78-33.6-74-65.4,43.4-54.1,88.2-49.8S740,244.05,736.14,275.85Z" transform="translate(-396.79 -146.75)"/><ellipse class="cls-13" cx="623.55" cy="521.12" rx="107.6" ry="151.5" transform="translate(-358.55 938.09) rotate(-83.81)"/><path class="cls-13" d="M762.64,386.65c-5.8,48.5-63.3,81.6-127.2,75.4s-110.2-49.5-104.4-98,61.6-83.8,125.5-77.5S768.44,338.15,762.64,386.65Z" transform="translate(-396.79 -146.75)"/><path class="cls-14" d="M532.24,361.45s15.8-1.4,24.9-14.2c0,0-2.4-15.2,25.1-12.3l13.8-10.4,6.8-.5,18,24.4s6.2,9.7,12.9-.9c0,0,9.3-24,16.8-2.6,0,0,1.4,13.6,8.4,1.6,0,0,8.8-15,9.3.9,0,0-6.5,26.9,14.7-.7l14.6-10.7,8.2,1.8,4.5,8.4s-3.3,12.6.4,16.2c0,0,7.3,7.1,12.5-2,0,0,9.1-17.1,15.2,4.7,0,0,5.1,38.1,23.4,9.4,0,0,3.9-31.3-33.1-61.1,0,0-76.2-62.6-161.7-7.4C567,306.05,531.24,338.25,532.24,361.45Z" transform="translate(-396.79 -146.75)"/><path class="cls-14" d="M486.94,500.35s12.5-1.1,19.7-11.3c0,0-1.9-12.1,19.8-9.7l10.9-8.2,5.4-.4,14.2,19.3s4.9,7.7,10.2-.7c0,0,7.4-19,13.3-2,0,0,1.1,10.8,6.7,1.3,0,0,7-11.9,7.3.7,0,0-5.1,21.3,11.6-.5l11.5-8.5,6.5,1.4,3.6,6.6s-2.6,10,.3,12.8c0,0,5.8,5.6,9.9-1.5,0,0,7.2-13.5,12.1,3.7,0,0,4,30.1,18.5,7.5,0,0,3.1-24.8-26.2-48.4,0,0-60.3-49.5-127.9-5.9C514.44,456.55,486,482.05,486.94,500.35Z" transform="translate(-396.79 -146.75)"/><path class="cls-14" d="M534.24,349s8.8-43.2,69.8-58.9l-40.2,29.7Z" transform="translate(-396.79 -146.75)"/><path class="cls-10" d="M603.44,359.85s-23-15.7-23.7-24.7c0,0-4.9,13.9-2.3,19l-4,2.1s-4,1.5.7,3.6,6.4,3,6.4,3S576.24,340.65,603.44,359.85Z" transform="translate(-396.79 -146.75)"/><path class="cls-14" d="M575.64,235.75s.6,10,11.8,7.6c0,0,6.9-7.9,14-3.9,0,0,3.8,10.1,18.9,4.1,0,0,7.1-5.1,16.9,1.6,0,0,8.2,16.9,23.3,2.2,0,0,14.7-12,21,3.8s8.8,15.5,23.4,3.1c0,0,9.3-12,18.8.8,0,0,2.1,13.5,10.1,9.4,0,0,8.4-39.5-46.8-59.3h0s-20.6-31.6-21.2-44.4c0,0-1.9,21.3-36.9,39.8h0S590.84,204.75,575.64,235.75Z" transform="translate(-396.79 -146.75)"/><path class="cls-14" d="M617.54,204.25s37.9-11.2,48.5-43.5c0,0,11.4,36.6,40.9,54.5S617.54,204.25,617.54,204.25Z" transform="translate(-396.79 -146.75)"/><path class="cls-10" d="M557.74,373.85s27,18,60.8-4.5c0,0,22.1,23.5,55.6,8,0,0-21.7,25.1-29,30.2s-4.5,3.4-11.1-.3c0,0-10.2-12.8-20.3,2.7,0,0-6.2-13.9-17.7-3.9,0,0-5.4,7.3-13.4-1.1C582.64,404.75,559.44,382.05,557.74,373.85Z" transform="translate(-396.79 -146.75)"/><path class="cls-15" d="M590.94,357.55c2.4,1.5,3.6,3.6,2.7,4.7s-3.5.8-5.8-.8-3.6-3.6-2.7-4.7S588.54,356,590.94,357.55Z" transform="translate(-396.79 -146.75)"/><path class="cls-10" d="M644.94,363s26.7-9.4,30.1-17.8c0,0,.5,14.5-3.5,18.7l3.2,3s3.4,2.4-1.8,3.3-7,1.3-7,1.3S676.74,351.25,644.94,363Z" transform="translate(-396.79 -146.75)"/><path class="cls-15" d="M657.74,363.75c-2.7.9-4.5,2.6-4,3.8s3.1,1.6,5.8.7,4.5-2.6,4-3.8S660.44,362.85,657.74,363.75Z" transform="translate(-396.79 -146.75)"/><path d="M598.14,388.65s-13.8-.1-12.5,8.3c0,0,3.5,7.7,9.5-.4l6.7-4.1Z" transform="translate(-396.79 -146.75)"/><path d="M634.14,390.05s13.8.7,11.8,9c0,0-4.1,7.4-9.4-1l-6.3-4.5Z" transform="translate(-396.79 -146.75)"/><path class="cls-14" d="M754.44,474.25c-.1-.1-.2-.2-.2-.3-37.5-44.9-99.1-56.7-99.1-56.7-90-21.2-149.1,29.8-149.1,29.8-7.8,5.9-17.5,18.6-18.5,19.9-.1.1-.1.2-.2.3-28.9,44.3-7.3,79.8-7.3,79.8,3.8,5,9.5,1.1,9.5,1.1,9.7-2.6,10.6-60.7,10.7-68.9a3.74,3.74,0,0,1,.5-1.8c11.5-20.5,12.4,3.9,12.5,7.5a2.77,2.77,0,0,1-.1.9c-11,52.5,15.3,34.2,21.7,29.1a3.55,3.55,0,0,0,1.1-1.6,61,61,0,0,1-1.1-28.8,5.48,5.48,0,0,1,4.9-4.7,5,5,0,0,1-.5-1.3c-.6-2.8-.6-5.5.9-8a13.77,13.77,0,0,1,2.2-2.6c1.3-2,3.4-3.3,6.7-3.3a13.23,13.23,0,0,1,9,3.6c22.8-23.4,12.8,47.4,12.3,52.7a3.75,3.75,0,0,0,.1,1.1c2.8,13.2,14.2,13.5,19.7,12.9a3.73,3.73,0,0,0,3.3-3.4c1.2-8.4,5.6-17.3,10.7-25.4a20.75,20.75,0,0,1,4.4-6.5c2.2-3.1,4.5-5.9,6.5-8.4h0c1.5-3.1,4.5-5.8,7.9-8a28.87,28.87,0,0,1,7.8-4.4c1-.5,1.9-.9,2.7-1.3,5.5-2.5,12.9-5.3,18.4-1.4,4.8,3.4,3.8,8.6,1,12.8a6.6,6.6,0,0,1-.6,2.7c-3.3,7.2-1.1,16,0,24,6.2,9.3,17.5.1,20.8-2.9a4.45,4.45,0,0,0,1.2-2.1c6.7-33.9,19-42.1,22.9-43.9a3.13,3.13,0,0,1,2.5-.2c9.8,2.8,10.2,27.1,10.2,32.2a3.92,3.92,0,0,0,.4,1.8c5,9.6,13.3,6.2,17.5,3.5a3.92,3.92,0,0,0,1.7-4.1c-1.2-5.6,4.4-14.4,4.4-14.4,6.6-6.1,13,26.6,14.2,33.6a4.77,4.77,0,0,0,1.2,2.2c17.1,15.3,23.1-1.6,24-4.8a3,3,0,0,0,.2-1C773.94,503.05,756,476.55,754.44,474.25Z" transform="translate(-396.79 -146.75)"/><path class="cls-14" d="M535.74,514.05a200.09,200.09,0,0,1,3.1-20.5c.1-1.5.2-2.9.3-4.3,0-.6-.1-1.2-.1-1.8a6.66,6.66,0,0,1,.3-2.9,65.27,65.27,0,0,1,.3-8.8c-.1-2.3-.3-4.6.5-6.9a6.62,6.62,0,0,1,3.2-3.9l-8.3-1.3-7.5,50.6,6.8,4.4C534.84,517.15,535.34,515.65,535.74,514.05Z" transform="translate(-396.79 -146.75)"/><path class="cls-16" d="M588.14,372.15s-6.5,17,15,23.4c0,0,20.6,4.8,33.7-1.5,0,0,14.2-2.9,14.5-19.9,0,0-9.5,10.7-19.6,13.3,0,0-20.4,1.3-28.5-1.9A31.31,31.31,0,0,1,588.14,372.15Z" transform="translate(-396.79 -146.75)"/><path class="cls-10" d="M627.84,230.85s-18.4-12.3-19-19.4c0,0-3.9,10.9-1.8,14.9l-3.2,1.7s-3.2,1.2.6,2.8,5.1,2.3,5.1,2.3S606,215.75,627.84,230.85Z" transform="translate(-396.79 -146.75)"/><path class="cls-10" d="M591.54,246s21.7,14.1,48.8-3.5c0,0,17.7,18.5,44.6,6.3,0,0-17.4,19.7-23.3,23.7s-3.6,2.7-8.9-.3c0,0-8.2-10.1-16.3,2.1,0,0-5-10.9-14.2-3.1,0,0-4.4,5.8-10.8-.9C611.44,270.25,592.84,252.45,591.54,246Z" transform="translate(-396.79 -146.75)"/><path class="cls-15" d="M617.74,229c1.9,1.2,2.9,2.8,2.2,3.7s-2.8.6-4.7-.6-2.9-2.8-2.2-3.7S615.84,227.75,617.74,229Z" transform="translate(-396.79 -146.75)"/><path class="cls-10" d="M661,233.25s21.4-7.4,24.1-14c0,0,.4,11.4-2.8,14.7l2.6,2.4s2.7,1.9-1.4,2.6-5.6,1-5.6,1S686.54,224.05,661,233.25Z" transform="translate(-396.79 -146.75)"/><path class="cls-15" d="M671.24,233.85c-2.2.7-3.6,2-3.2,3s2.5,1.2,4.6.5,3.6-2,3.2-3S673.44,233.15,671.24,233.85Z" transform="translate(-396.79 -146.75)"/><path d="M623.84,257.55s-11-.1-10,6.5c0,0,2.8,6,7.6-.3l5.4-3.2Z" transform="translate(-396.79 -146.75)"/><path d="M652.74,258.65s11,.6,9.5,7.1c0,0-3.3,5.8-7.5-.8l-5.1-3.5Z" transform="translate(-396.79 -146.75)"/><path class="cls-16" d="M615.84,244.55s-5.2,13.3,12,18.4c0,0,16.5,3.8,27-1.2,0,0,11.4-2.2,11.6-15.6,0,0-7.6,8.4-15.7,10.5,0,0-16.4,1-22.9-1.5A24.66,24.66,0,0,1,615.84,244.55Z" transform="translate(-396.79 -146.75)"/><path class="cls-10" d="M569.94,476.45s-30.1-22.8-31-35.9c0,0-6.4,20.2-3,27.6l-5.3,3.1s-5.3,2.2,1,5.2a85.49,85.49,0,0,1,8.3,4.3S534.34,448.55,569.94,476.45Z" transform="translate(-396.79 -146.75)"/><path class="cls-10" d="M510.64,504.45s35.4,26.1,79.6-6.5c0,0,28.9,34.1,72.7,11.6,0,0-28.4,36.4-38,43.8s-5.9,5-14.5-.5c0,0-13.3-18.7-26.6,4,0,0-8.1-20.2-23.1-5.7,0,0-7.1,10.6-17.6-1.7C543.24,549.45,512.84,516.45,510.64,504.45Z" transform="translate(-396.79 -146.75)"/><ellipse class="cls-15" cx="551.51" cy="475.94" rx="3.5" ry="6.9" transform="translate(-552.86 502.42) rotate(-54.55)"/><path class="cls-10" d="M624.24,480.85s34.9-13.6,39.4-25.9c0,0,.7,21-4.6,27.2l4.2,4.4s4.4,3.5-2.3,4.7-9.1,1.9-9.1,1.9S665.74,463.85,624.24,480.85Z" transform="translate(-396.79 -146.75)"/><ellipse class="cls-15" cx="642.06" cy="485.29" rx="6.8" ry="3.5" transform="translate(-522.5 97.15) rotate(-19.63)"/><path d="M563.44,526s-18-.2-16.3,12c0,0,4.6,11.1,12.4-.6l8.7-5.9Z" transform="translate(-396.79 -146.75)"/><path d="M610.64,528s18,1.1,15.5,13.1c0,0-5.3,10.8-12.3-1.5l-8.3-6.5Z" transform="translate(-396.79 -146.75)"/><path class="cls-16" d="M550.44,502s-8.6,24.6,19.6,34c0,0,26.9,7,44.1-2.2,0,0,18.6-4.2,19-28.9,0,0-12.5,15.6-25.7,19.3,0,0-26.7,1.9-37.3-2.7S553,507.15,550.44,502Z" transform="translate(-396.79 -146.75)"/><path class="cls-14" d="M558.64,468s14.1,9.5,14.3,11.9v-16.5l-11.1-4.9Z" transform="translate(-396.79 -146.75)"/><path class="cls-17" d="M519.14,632.85s65.1,15.2,62.9,56.3c0,0,33.4-16.6,13.3-56.3h-76.2Z" transform="translate(-396.79 -146.75)"/><path class="cls-17" d="M698.64,634.25s-65.1,15.2-62.9,56.3c0,0-33.4-16.6-13.3-56.3Z" transform="translate(-396.79 -146.75)"/><path class="cls-17" d="M578.44,647.05s21.2,21.1,3.6,41" transform="translate(-396.79 -146.75)"/><path class="cls-17" d="M635.24,649.65s-19.3,18.1.5,40.9" transform="translate(-396.79 -146.75)"/><path class="cls-18" d="M493.64,627.75l-13.1-69.2,30,25.5,28.7-25.5,35.9,34.6,34-34.6,36.1,45.1,42.3-45.1,26.1,34.6,57.5-34.6-24.2,75.1C747,633.65,621.64,673.55,493.64,627.75Z" transform="translate(-396.79 -146.75)"/><path class="cls-19" d="M535,731.65s48.1,1.3,74.2-34c0,0,29.1,35.3,86.2,34l-26.1,30.9s-84.5-28.3-29.2,23.3h-60.3s37.2-43.4-20.9-26.6Z" transform="translate(-396.79 -146.75)"/><polyline class="cls-20" points="117.55 615.9 114.05 644 208.15 699.8 323.05 649.2 318.25 619.2 234.45 629.1 190.25 629.1 117.55 615.9"/><ellipse class="cls-21" cx="210.75" cy="655.4" rx="7" ry="13.3"/><ellipse class="cls-22" cx="490.53" cy="791.06" rx="34.4" ry="22.9" transform="translate(-793.62 925.34) rotate(-75.77)"/><path class="cls-12" d="M764.74,778.35s23.5,23.2,30.5,28l-43.2-7-4.3,43.1s124.7,28.5,106.7-17.6c0,0-22.2-54.2-29.2-62.3l-73.2,3.7Z" transform="translate(-396.79 -146.75)"/><path class="cls-22" d="M767.74,822.65s2.2-31-23.3-38.2l-15-9.1s-6.2-13.4-12.1,0c0,0-3.6,10.8,2.6,13.7,0,0-20.6,6.2-10.4,33.6,0,0,10.4,34.9,42.4,26.1C751.94,848.75,765.94,847.45,767.74,822.65Z" transform="translate(-396.79 -146.75)"/><path class="cls-23" d="M599.34,728.75s-31.1,4.4-30.5,12.4c0,0,5.7,6.6,21.4-3.5l16.2-6.3Z" transform="translate(-396.79 -146.75)"/><path class="cls-23" d="M623,730.05s31.1,4.4,30.5,12.4c0,0-5.7,6.6-21.4-3.5l-16.2-6.3Z" transform="translate(-396.79 -146.75)"/><path class="cls-16" d="M587.74,698.75s-3,20.5,8.9,29.1h27.5s10.4-6.2,8.5-28c0,0,14.8,22.3-5.7,40.4h-31.5C595.24,740.25,572.74,730.55,587.74,698.75Z" transform="translate(-396.79 -146.75)"/><path class="cls-24" d="M596.44,727.85s-3.3,5.9-1.6,11.7" transform="translate(-396.79 -146.75)"/><path class="cls-24" d="M624.74,727.85s3.3,5.9,1.6,11.7" transform="translate(-396.79 -146.75)"/><ellipse class="cls-22" cx="495.71" cy="728.81" rx="34.4" ry="22.9" transform="translate(-729.37 883.41) rotate(-75.77)"/><g id="Layer_11" data-name="Layer 11"><path class="cls-22" d="M769,748.25s2.2-31-23.3-38.2l-15-9.1s-6.2-13.4-12.1,0c0,0-3.6,10.8,2.6,13.7,0,0-20.6,6.2-10.4,33.6,0,0,10.4,34.9,42.4,26.1C753.24,774.45,767.24,773.05,769,748.25Z" transform="translate(-396.79 -146.75)"/></g><line class="cls-25" x1="113.85" y1="437.3" x2="119.35" y2="488.2"/><line class="cls-25" x1="178.55" y1="446.4" x2="179.25" y2="500.1"/><line class="cls-25" x1="248.55" y1="456.9" x2="247.75" y2="502.7"/><line class="cls-25" x1="316.95" y1="446.4" x2="309.75" y2="496.1"/><path class="cls-26" d="M810.34,716.85a5.94,5.94,0,0,1-.4.8v.2c-.2.5-.4,1-.7,1.6a21.14,21.14,0,0,1-1.1,2.1c-.8,1.5-1.7,2.9-2.6,4.3a86.81,86.81,0,0,1-7.4,9.8c-.1.1-.2.3-.4.4l25.1,8.5A54.47,54.47,0,0,0,810.34,716.85Z" transform="translate(-396.79 -146.75)"/><path class="cls-27" d="M411.14,685l46.3,20.6s-18.9-35.8-13.6-37.9C443.84,667.65,422.84,674.75,411.14,685Z" transform="translate(-396.79 -146.75)"/><g id="Layer_51" data-name="Layer 51"><path class="cls-28" d="M817.24,809.75s16.5-10.5,26.5-10l-10-22s-34,10.8-38.6,28.6Z" transform="translate(-396.79 -146.75)"/></g><path class="cls-9" d="M474.44,817s-32-15.9-56.5-43c0,0,1.4-23,15.4-35.6,0,0,28.7,15.4,37.3,13.9l-7.5,15,12.1,4.7C475.34,772,459.34,808.65,474.44,817Z" transform="translate(-396.79 -146.75)"/><path class="cls-29" d="M443.64,760.15s-15.9-11.1-14.1-18.4l1.1-1.2s17.6,10.3,38.6,14.3l-6.2,12.3Z" transform="translate(-396.79 -146.75)"/><path class="cls-30" d="M836.34,718c-20.5,9.6-25.2,22.3-25.2,22.3l11.7,4.2c12.2-6.2,22-4.2,22-4.2C843.64,731.55,836.34,718,836.34,718Z" transform="translate(-396.79 -146.75)"/><path class="cls-10" d="M696,670.15s3.7,15.1,1.8,17.9c0,0-7.4,8.6-11.4,9.6,0,0,15.6.9,18.6-1.3,0,0-1.1,12.2-14.6,16.6l-8.9.3s8.3-28.1,2.8-33.3C684.44,679.85,696.84,673.85,696,670.15Z" transform="translate(-396.79 -146.75)"/><path class="cls-31" d="M658.34,719.65c3.9-1.2,7.8-1.9,11.8-2.8,3.6-.8,7.5-.8,11-1.8a28.82,28.82,0,0,0,7.7-20,29.54,29.54,0,0,0-3.9-14.9c-4.4,3.3-10.1,5.1-15.1,7-8.5,3.2-17.9,4.1-26.3,7.5-.1,0-.2.1-.3.1v.3c0,11.3,6,21,14.5,24.9A.6.6,0,0,1,658.34,719.65Z" transform="translate(-396.79 -146.75)"/><path d="M659.64,690.15a25.3,25.3,0,0,0-.6,5.6c0,10.1,5.2,18.3,11.7,18.3s11.7-8.2,11.7-18.3a24.48,24.48,0,0,0-3-12.2C672.84,685.55,666.14,687.75,659.64,690.15Z" transform="translate(-396.79 -146.75)"/><ellipse class="cls-31" cx="677.18" cy="698.53" rx="6.9" ry="5.3" transform="translate(-466.83 1174.8) rotate(-85.71)"/><path class="cls-32" d="M648.34,722.35s53.9-16.6,72.9-7.7" transform="translate(-396.79 -146.75)"/><path class="cls-32" d="M696.44,670.25c3.2,11.9,11.9,23.6,24.4,26.4" transform="translate(-396.79 -146.75)"/><path class="cls-32" d="M637.74,696.65c19.9-7.5,43.4-10.1,58.7-26.3" transform="translate(-396.79 -146.75)"/><g id="Layer_36" data-name="Layer 36"><path class="cls-10" d="M542.34,682.55l.3-.3a33.42,33.42,0,0,1-4-3.5c-.6-.6-1.3-1.2-1.9-1.8a9,9,0,0,1-1.5-1.9V675c-.7-.6-.5-.8,0,0,.3.2.6.6,1.2,1a8.67,8.67,0,0,1-2.4-2.7c-1.9-.9-3.4-1.8-3.1-3,0,0-4,15.8-2,18.7,0,0,8,9,12.4,9.9,0,0-17,.9-20.2-1.4,0,0,1.2,12.7,15.8,17.3l9.7.3C546.54,715,536.34,689.65,542.34,682.55Z" transform="translate(-396.79 -146.75)"/><path class="cls-31" d="M570.54,697.75a.35.35,0,0,1-.2-.1,5.26,5.26,0,0,1-2.6-1.5,25.83,25.83,0,0,1-3.8-1c-2.4-.9-4.8-1.8-7.1-2.9-4.2-1.9-7.5-4.7-11.1-7.5a8,8,0,0,1-2.2-2.7,1.73,1.73,0,0,0-.4-.3c-14.2,14.6-1.1,32.6-1.1,32.6,6.7.3,19.5,5.4,19.5,5.4,13.4-3.5,11.9-17.9,11.3-21.4A5.58,5.58,0,0,1,570.54,697.75Z" transform="translate(-396.79 -146.75)"/><path class="cls-32" d="M517.44,722.35s16.1-16.8,56.1,1.9" transform="translate(-396.79 -146.75)"/><path class="cls-33" d="M515.24,689.15s12.1-10.8,15-20.2c0,0,15.6,23.1,45.7,29.8" transform="translate(-396.79 -146.75)"/><path d="M550,686.85s-11.8,7.7-1.3,28.4a103.82,103.82,0,0,1,10.3,4.2s10.1-3.8,7.5-23Z" transform="translate(-396.79 -146.75)"/><ellipse class="cls-31" cx="164.95" cy="558.8" rx="5.3" ry="6.9"/></g><g id="Layer_56" data-name="Layer 56"><path class="cls-34" d="M609.14,696.75s13,13.3,19.6,16.4c0,0-20.5,5.7-23.6-1.2,0,0-7.8,7.3-11.8.4C593.44,712.35,609.54,700.25,609.14,696.75Z" transform="translate(-396.79 -146.75)"/></g><path class="cls-1" d="M631.27,156.75v841.9c177.47,55.61,267.08,6.83,293.47-10,165.65-105.61,201.69-456.75,0-841.9" transform="translate(-396.79 -146.75)"/><line class="cls-1" x1="248.55" y1="4" x2="248.55"/><line class="cls-1" x1="280.41" y1="841.9" x2="285.65"/></g></g></svg>