<svg id="Layer_1" data-name="Layer 1" xmlns="http://www.w3.org/2000/svg" xmlns:xlink="http://www.w3.org/1999/xlink" viewBox="0 0 269.73 720.29"><defs><style>.cls-1,.cls-20,.cls-21,.cls-25,.cls-26{fill:none;}.cls-2{clip-path:url(#clip-path);}.cls-3{clip-path:url(#clip-path-2);}.cls-4{fill:#fcbe3e;}.cls-5{fill:#015e47;}.cls-6{fill:#6e933d;}.cls-7{fill:#ba4e3c;}.cls-8{fill:#a14033;opacity:0.56;isolation:isolate;}.cls-9{fill:#e9d8c4;}.cls-10{fill:#cc914b;}.cls-11{fill:#030303;stroke:#070606;}.cls-11,.cls-20,.cls-21,.cls-25,.cls-26{stroke-miterlimit:10;}.cls-12{fill:#eae8dd;}.cls-13{fill:#253c1a;}.cls-14{fill:url(#linear-gradient);}.cls-15{fill:#9db370;}.cls-16{fill:url(#linear-gradient-2);}.cls-17{fill:#ed2424;}.cls-18{fill:#6a8439;}.cls-19{fill:#906251;}.cls-20{stroke:#f3f0e9;}.cls-21{stroke:#fdba13;}.cls-22{fill:url(#linear-gradient-3);}.cls-23{fill:url(#linear-gradient-4);}.cls-24{fill:#fff;}.cls-25{stroke:#000;}.cls-26{stroke:#060505;}.cls-27{fill:#5b7534;}</style><clipPath id="clip-path"><polygon class="cls-1" points="269.25 -13.41 267.15 717.62 0 717.62 0 -13.41 269.25 -13.41"/></clipPath><clipPath id="clip-path-2"><polygon class="cls-1" points="-67.35 828.49 266.83 828.49 269.25 -13.41 -67.35 -13.41 -67.35 828.49"/></clipPath><linearGradient id="linear-gradient" x1="951.89" y1="355.32" x2="951.89" y2="264.11" gradientTransform="matrix(1, 0, 0, -1, -722.84, 753.71)" gradientUnits="userSpaceOnUse"><stop offset="0.14" stop-color="#ffce41"/><stop offset="0.64" stop-color="#faaf43"/><stop offset="1" stop-color="#f8993a"/></linearGradient><linearGradient id="linear-gradient-2" x1="1045.89" y1="109.27" x2="836.89" y2="109.27" xlink:href="#linear-gradient"/><linearGradient id="linear-gradient-3" x1="737.24" y1="227.22" x2="783.54" y2="227.22" xlink:href="#linear-gradient"/><linearGradient id="linear-gradient-4" x1="755.45" y1="160.02" x2="795.25" y2="160.02" xlink:href="#linear-gradient"/></defs><title>Giant</title><g class="cls-2"><g class="cls-3"><path class="cls-4" d="M153.05,508.84s-63.3,7.2-81-41.8c0,0-58.1,129.3,62,109.1Z"/><path class="cls-5" d="M122.65,507s-31.4-7.4-40.3-22c0,0-30.3,45.8,3.4,66.5h40.1Z"/><path class="cls-5" d="M82.35,485s7.9,8.5,13.4,11.7l-3.2,2-10.3-6.1V485Z"/><path class="cls-6" d="M61.35,502.29s-96.7,30-47.3,63.7c0,0,37.6,34.6,75.4,29.1l2.9-34.6-31.7-15C60.65,545.39,54.45,529,61.35,502.29Z"/><path class="cls-7" d="M105.55,670s-46.3,45.8,8.6,71.5c0,0,32.2,23.9,77.9-2.2l31.7,2.6s41,28.7,95.9-.9c0,0,30.5-13.1,8.7-41.8l-37.9-63.1-149.8-7.4Z"/><path class="cls-8" d="M332.45,705.69s-202.6,42.9-242.5,14.5c0,0,19.3,39.3,84.7,31.2,0,0,52.4-7.6,76,1.1,0,0,37.4,11.4,78.7-18.2C329.21,734.29,342.75,723,332.45,705.69Z"/><path class="cls-4" d="M315.15,652.69s6.7,49.9,41,44.1c0,0-57.6,96.6-104.6-39.3l63.6-21.3Z"/><path class="cls-4" d="M111.05,639.59s-6.7,49.9-41,44.1c0,0,57.6,96.6,104.6-39.3l-63.6-21.3Z"/><path class="cls-5" d="M110.65,633.84s.3,28.6-18.3,44.3c0,0,32,55.8,65-28.5l-46.3-23.9Z"/><path class="cls-5" d="M306.85,634.19s12.4,44.8,25.6,55.9c0,0-35.7,59.7-67.1-36.3Z"/><path class="cls-4" d="M275.15,737.59s-32.3,15.2-20.1-88l-88.84-11.3s7,101-24.4,99.3c0,0,11.3,42.7,61.8,12.6.1,0,42.4,31.8,71.5-12.6"/><path class="cls-5" d="M185.45,662.29s.4,66.6-8.7,77.5c0,0,20.5-.9,29.6-16.1,0,0,13.1,18.3,33.1,16.1,0,0-10.9-31.3-5.2-77.5Z"/><path class="cls-6" d="M104.05,453.84s22.9,55.5,12.4,147.6c0,0,86.9,32.7,201.8,9.1,0,0,13.7-99.2,22.9-140.3.2-1,.4-1.9.6-2.8C351,428.29,104.05,453.84,104.05,453.84Z"/><ellipse class="cls-1" cx="226.78" cy="365.89" rx="106.23" ry="146.18" transform="translate(-149.97 574.13) rotate(-87.14)"/><path class="cls-9" d="M339.35,115.69c-3.9,31.8-43.4,54.1-88.2,49.8s-78-33.6-74-65.4,43.4-54.1,88.2-49.8S343.21,83.89,339.35,115.69Z"/><ellipse class="cls-9" cx="226.77" cy="360.96" rx="107.6" ry="151.5" transform="translate(-156.54 547.48) rotate(-83.81)"/><path class="cls-9" d="M365.85,226.49c-5.8,48.5-63.3,81.6-127.2,75.4s-110.2-49.5-104.4-98,61.6-83.8,125.5-77.5S371.65,178,365.85,226.49Z"/><path class="cls-10" d="M135.45,201.29s15.8-1.4,24.9-14.2c0,0-2.4-15.2,25.1-12.3l13.8-10.4,6.8-.5,18,24.4s6.2,9.7,12.9-.9c0,0,9.3-24,16.8-2.6,0,0,1.4,13.6,8.4,1.6,0,0,8.8-15,9.3.9,0,0-6.5,26.9,14.7-.7l14.6-10.7,8.2,1.8,4.5,8.4s-3.3,12.6.4,16.2c0,0,7.3,7.1,12.5-2,0,0,9.1-17.1,15.2,4.7,0,0,5.1,38.1,23.4,9.4,0,0,3.9-31.3-33.1-61.1,0,0-76.2-62.6-161.7-7.4C170.21,145.89,134.45,178.09,135.45,201.29Z"/><path class="cls-10" d="M90.15,340.19s12.5-1.1,19.7-11.3c0,0-1.9-12.1,19.8-9.7l10.9-8.2,5.4-.4,14.2,19.3s4.9,7.7,10.2-.7c0,0,7.4-19,13.3-2,0,0,1.1,10.8,6.7,1.3,0,0,7-11.9,7.3.7,0,0-5.1,21.3,11.6-.5l11.5-8.5,6.5,1.4,3.6,6.6s-2.6,10,.3,12.8c0,0,5.8,5.6,9.9-1.5,0,0,7.2-13.5,12.1,3.7,0,0,4,30.1,18.5,7.5,0,0,3.1-24.8-26.2-48.4,0,0-60.3-49.5-127.9-5.9C117.65,296.39,89.21,321.89,90.15,340.19Z"/><path class="cls-10" d="M137.45,188.84s8.8-43.2,69.8-58.9l-40.2,29.7Z"/><path class="cls-7" d="M206.65,199.69S183.65,184,183,175c0,0-4.9,13.9-2.3,19l-4,2.1s-4,1.5.7,3.6,6.4,3,6.4,3S179.45,180.49,206.65,199.69Z"/><path class="cls-10" d="M178.85,75.59s.6,10,11.8,7.6c0,0,6.9-7.9,14-3.9,0,0,3.8,10.1,18.9,4.1,0,0,7.1-5.1,16.9,1.6,0,0,8.2,16.9,23.3,2.2,0,0,14.7-12,21,3.8s8.8,15.5,23.4,3.1c0,0,9.3-12,18.8.8,0,0,2.1,13.5,10.1,9.4,0,0,8.4-39.5-46.8-59.3h0s-20.6-31.6-21.2-44.4c0,0-1.9,21.3-36.9,39.8h0S194.05,44.59,178.85,75.59Z"/><path class="cls-10" d="M220.75,44.09s37.9-11.2,48.5-43.5c0,0,11.4,36.6,40.9,54.5S220.75,44.09,220.75,44.09Z"/><path class="cls-7" d="M161,213.69s27,18,60.8-4.5c0,0,22.1,23.5,55.6,8,0,0-21.7,25.1-29,30.2s-4.5,3.4-11.1-.3c0,0-10.2-12.8-20.3,2.7,0,0-6.2-13.9-17.7-3.9,0,0-5.4,7.3-13.4-1.1C185.85,244.59,162.65,221.89,161,213.69Z"/><path class="cls-11" d="M194.15,197.39c2.4,1.5,3.6,3.6,2.7,4.7s-3.5.8-5.8-.8-3.6-3.6-2.7-4.7S191.75,195.84,194.15,197.39Z"/><path class="cls-7" d="M248.15,202.84s26.7-9.4,30.1-17.8c0,0,.5,14.5-3.5,18.7l3.2,3s3.4,2.4-1.8,3.3-7,1.3-7,1.3S280,191.09,248.15,202.84Z"/><path class="cls-11" d="M261,203.59c-2.7.9-4.5,2.6-4,3.8s3.1,1.6,5.8.7,4.5-2.6,4-3.8S263.65,202.69,261,203.59Z"/><path d="M201.35,228.49s-13.8-.1-12.5,8.3c0,0,3.5,7.7,9.5-.4l6.7-4.1Z"/><path d="M237.35,229.89s13.8.7,11.8,9c0,0-4.1,7.4-9.4-1l-6.3-4.5Z"/><path class="cls-10" d="M357.65,314.09c-.1-.1-.2-.2-.2-.3-37.5-44.9-99.1-56.7-99.1-56.7-90-21.2-149.1,29.8-149.1,29.8-7.8,5.9-17.5,18.6-18.5,19.9-.1.1-.1.2-.2.3-28.9,44.3-7.3,79.8-7.3,79.8,3.8,5,9.5,1.1,9.5,1.1,9.7-2.6,10.6-60.7,10.7-68.9a3.69,3.69,0,0,1,.5-1.8c11.5-20.5,12.4,3.9,12.5,7.5a2.74,2.74,0,0,1-.1.9c-11,52.5,15.3,34.2,21.7,29.1a3.5,3.5,0,0,0,1.1-1.6,61,61,0,0,1-1.1-28.8,5.49,5.49,0,0,1,4.9-4.7,5,5,0,0,1-.5-1.3c-.6-2.8-.6-5.5.9-8a13.66,13.66,0,0,1,2.2-2.6c1.3-2,3.4-3.3,6.7-3.3a13.27,13.27,0,0,1,9,3.6c22.8-23.4,12.8,47.4,12.3,52.7a3.7,3.7,0,0,0,.1,1.1c2.8,13.2,14.2,13.5,19.7,12.9a3.73,3.73,0,0,0,3.3-3.4c1.2-8.4,5.6-17.3,10.7-25.4a20.7,20.7,0,0,1,4.4-6.5c2.2-3.1,4.5-5.9,6.5-8.4h0c1.5-3.1,4.5-5.8,7.9-8a29,29,0,0,1,7.8-4.4c1-.5,1.9-.9,2.7-1.3,5.5-2.5,12.9-5.3,18.4-1.4,4.8,3.4,3.8,8.6,1,12.8a6.64,6.64,0,0,1-.6,2.7c-3.3,7.2-1.1,16,0,24,6.2,9.3,17.5.1,20.8-2.9a4.39,4.39,0,0,0,1.2-2.1c6.7-33.9,19-42.1,22.9-43.9a3.16,3.16,0,0,1,2.5-.2c9.8,2.8,10.2,27.1,10.2,32.2a4,4,0,0,0,.4,1.8c5,9.6,13.3,6.2,17.5,3.5a3.91,3.91,0,0,0,1.7-4.1c-1.2-5.6,4.4-14.4,4.4-14.4,6.6-6.1,13,26.6,14.2,33.6a4.76,4.76,0,0,0,1.2,2.2c17.1,15.3,23.1-1.6,24-4.8a3.12,3.12,0,0,0,.2-1C377.15,342.89,359.21,316.39,357.65,314.09Z"/><path class="cls-10" d="M139,353.89a200,200,0,0,1,3.1-20.5c.1-1.5.2-2.9.3-4.3,0-.6-.1-1.2-.1-1.8a6.63,6.63,0,0,1,.3-2.9,64.61,64.61,0,0,1,.3-8.8c-.1-2.3-.3-4.6.5-6.9a6.63,6.63,0,0,1,3.2-3.9l-8.3-1.3-7.5,50.6,6.8,4.4C138.05,357,138.55,355.49,139,353.89Z"/><path class="cls-12" d="M191.35,212s-6.5,17,15,23.4c0,0,20.6,4.8,33.7-1.5,0,0,14.2-2.9,14.5-19.9,0,0-9.5,10.7-19.6,13.3,0,0-20.4,1.3-28.5-1.9A31.37,31.37,0,0,1,191.35,212Z"/><path class="cls-7" d="M231.05,70.69s-18.4-12.3-19-19.4c0,0-3.9,10.9-1.8,14.9l-3.2,1.7s-3.2,1.2.6,2.8,5.1,2.3,5.1,2.3S209.21,55.59,231.05,70.69Z"/><path class="cls-7" d="M194.75,85.84s21.7,14.1,48.8-3.5c0,0,17.7,18.5,44.6,6.3,0,0-17.4,19.7-23.3,23.7s-3.6,2.7-8.9-.3c0,0-8.2-10.1-16.3,2.1,0,0-5-10.9-14.2-3.1,0,0-4.4,5.8-10.8-.9C214.65,110.09,196.05,92.29,194.75,85.84Z"/><path class="cls-11" d="M221,68.84c1.9,1.2,2.9,2.8,2.2,3.7s-2.8.6-4.7-.6-2.9-2.8-2.2-3.7S219.05,67.59,221,68.84Z"/><path class="cls-7" d="M264.21,73.09s21.4-7.4,24.1-14c0,0,.4,11.4-2.8,14.7l2.6,2.4s2.7,1.9-1.4,2.6-5.6,1-5.6,1S289.75,63.89,264.21,73.09Z"/><path d="M227.05,97.39s-11-.1-10,6.5c0,0,2.8,6,7.6-.3l5.4-3.2Z"/><path d="M256,98.49s11,.6,9.5,7.1c0,0-3.3,5.8-7.5-.8l-5.1-3.5Z"/><path class="cls-12" d="M219.05,84.39s-5.2,13.3,12,18.4c0,0,16.5,3.8,27-1.2,0,0,11.4-2.2,11.6-15.6,0,0-7.6,8.4-15.7,10.5,0,0-16.4,1-22.9-1.5A24.65,24.65,0,0,1,219.05,84.39Z"/><path class="cls-7" d="M173.15,316.29s-30.1-22.8-31-35.9c0,0-6.4,20.2-3,27.6l-5.3,3.1s-5.3,2.2,1,5.2a86.91,86.91,0,0,1,8.3,4.3S137.55,288.39,173.15,316.29Z"/><path class="cls-7" d="M113.85,344.29s35.4,26.1,79.6-6.5c0,0,28.9,34.1,72.7,11.6,0,0-28.4,36.4-38,43.8s-5.9,5-14.5-.5c0,0-13.3-18.7-26.6,4,0,0-8.1-20.2-23.1-5.7,0,0-7.1,10.6-17.6-1.7C146.45,389.29,116.05,356.29,113.85,344.29Z"/><ellipse class="cls-11" cx="154.72" cy="315.78" rx="3.5" ry="6.9" transform="translate(-192.26 258.67) rotate(-54.55)"/><path class="cls-7" d="M227.45,320.69s34.9-13.6,39.4-25.9c0,0,.7,21-4.6,27.2l4.2,4.4s4.4,3.5-2.3,4.7-9.1,1.9-9.1,1.9S269,303.69,227.45,320.69Z"/><ellipse class="cls-11" cx="245.28" cy="325.13" rx="6.8" ry="3.5" transform="translate(-94.97 101.29) rotate(-19.63)"/><path d="M166.65,365.84s-18-.2-16.3,12c0,0,4.6,11.1,12.4-.6l8.7-5.9Z"/><path d="M213.85,367.84s18,1.1,15.5,13.1c0,0-5.3,10.8-12.3-1.5l-8.3-6.5Z"/><path class="cls-12" d="M153.65,341.84s-8.6,24.6,19.6,34c0,0,26.9,7,44.1-2.2,0,0,18.6-4.2,19-28.9,0,0-12.5,15.6-25.7,19.3,0,0-26.7,1.9-37.3-2.7S156.21,347,153.65,341.84Z"/><path class="cls-10" d="M161.85,307.84s14.1,9.5,14.3,11.9v-16.5l-11.1-4.9Z"/><path class="cls-13" d="M122.35,472.69s65.1,15.2,62.9,56.3c0,0,33.4-16.6,13.3-56.3Z"/><path class="cls-13" d="M301.85,474.09s-65.1,15.2-62.9,56.3c0,0-33.4-16.6-13.3-56.3Z"/><path class="cls-13" d="M181.65,486.89s21.2,21.1,3.6,41"/><path class="cls-13" d="M238.45,489.49s-19.3,18.1.5,40.9"/><path class="cls-14" d="M96.85,467.59l-13.1-69.2,30,25.5,28.7-25.5,35.9,34.6,34-34.6,36.1,45.1,42.3-45.1,26.1,34.6,57.5-34.6-24.2,75.1C350.21,473.49,224.85,513.39,96.85,467.59Z"/><path class="cls-15" d="M138.21,571.49s48.1,1.3,74.2-34c0,0,29.1,35.3,86.2,34l-26.1,30.9s-84.5-28.3-29.2,23.3H183s37.2-43.4-20.9-26.6Z"/><polyline class="cls-16" points="117.55 602.49 114.05 630.59 208.15 686.39 323.05 635.79 318.25 605.79 234.45 615.69 190.25 615.69 117.55 602.49"/><ellipse class="cls-17" cx="210.75" cy="641.99" rx="7" ry="13.3"/><ellipse class="cls-18" cx="93.75" cy="630.91" rx="34.4" ry="22.9" transform="translate(-540.85 566.69) rotate(-75.77)"/><path class="cls-19" d="M202.55,568.59s-31.1,4.4-30.5,12.4c0,0,5.7,6.6,21.4-3.5l16.2-6.3Z"/><path class="cls-19" d="M226.21,569.89s31.1,4.4,30.5,12.4c0,0-5.7,6.6-21.4-3.5l-16.2-6.3Z"/><path class="cls-12" d="M191,538.59s-3,20.5,8.9,29.1h27.5s10.4-6.2,8.5-28c0,0,14.8,22.3-5.7,40.4h-31.5C198.45,580.09,176,570.39,191,538.59Z"/><path class="cls-20" d="M199.65,567.69s-3.3,5.9-1.6,11.7"/><path class="cls-20" d="M228,567.69s3.3,5.9,1.6,11.7"/><ellipse class="cls-18" cx="98.93" cy="568.65" rx="34.4" ry="22.9" transform="translate(-476.59 524.77) rotate(-75.77)"/><line class="cls-21" x1="113.85" y1="423.89" x2="119.35" y2="474.79"/><line class="cls-21" x1="178.55" y1="432.99" x2="179.25" y2="486.69"/><line class="cls-21" x1="248.55" y1="443.49" x2="247.75" y2="489.29"/><path class="cls-22" d="M14.35,524.84l46.3,20.6s-18.9-35.8-13.6-37.9C47.05,507.49,26.05,514.59,14.35,524.84Z"/><path class="cls-6" d="M77.65,656.84s-32-15.9-56.5-43c0,0,1.4-23,15.4-35.6,0,0,28.7,15.4,37.3,13.9l-7.5,15,12.1,4.7C78.55,611.84,62.55,648.49,77.65,656.84Z"/><path class="cls-23" d="M46.85,600s-15.9-11.1-14.1-18.4l1.1-1.2s17.6,10.3,38.6,14.3L66.25,607Z"/><path class="cls-24" d="M261.55,559.49c3.9-1.2,7.8-1.9,11.8-2.8,3.6-.8,7.5-.8,11-1.8a28.83,28.83,0,0,0,7.7-20,29.62,29.62,0,0,0-3.9-14.9c-4.4,3.3-10.1,5.1-15.1,7-8.5,3.2-17.9,4.1-26.3,7.5-.1,0-.2.1-.3.1v.3c0,11.3,6,21,14.5,24.9A.61.61,0,0,1,261.55,559.49Z"/><path d="M262.85,530a25.14,25.14,0,0,0-.6,5.6c0,10.1,5.2,18.3,11.7,18.3s11.7-8.2,11.7-18.3a24.51,24.51,0,0,0-3-12.2C276.05,525.39,269.35,527.59,262.85,530Z"/><path class="cls-25" d="M251.55,562.19s53.9-16.6,72.9-7.7"/><path class="cls-25" d="M241,536.49c19.9-7.5,43.4-10.1,58.7-26.3"/><g id="Layer_36" data-name="Layer 36"><path class="cls-7" d="M145.55,522.39l.3-.3a34.1,34.1,0,0,1-4-3.5c-.6-.6-1.3-1.2-1.9-1.8a8.91,8.91,0,0,1-1.5-1.9v0c-.7-.6-.5-.8,0,0,.3.2.6.6,1.2,1a8.63,8.63,0,0,1-2.4-2.7c-1.9-.9-3.4-1.8-3.1-3,0,0-4,15.8-2,18.7,0,0,8,9,12.4,9.9,0,0-17,.9-20.2-1.4,0,0,1.2,12.7,15.8,17.3l9.7.3C149.75,554.84,139.55,529.49,145.55,522.39Z"/><path class="cls-24" d="M173.75,537.59a.3.3,0,0,1-.2-.1A5.3,5.3,0,0,1,171,536a26.23,26.23,0,0,1-3.8-1c-2.4-.9-4.8-1.8-7.1-2.9-4.2-1.9-7.5-4.7-11.1-7.5a8.11,8.11,0,0,1-2.2-2.7,1.68,1.68,0,0,0-.4-.3c-14.2,14.6-1.1,32.6-1.1,32.6,6.7.3,19.5,5.4,19.5,5.4,13.4-3.5,11.9-17.9,11.3-21.4A5.57,5.57,0,0,1,173.75,537.59Z"/><path class="cls-25" d="M120.65,562.19s16.1-16.8,56.1,1.9"/><path class="cls-26" d="M118.45,529s12.1-10.8,15-20.2c0,0,15.6,23.1,45.7,29.8"/><path d="M153.21,526.69s-11.8,7.7-1.3,28.4a105.83,105.83,0,0,1,10.3,4.2s10.1-3.8,7.5-23Z"/><ellipse class="cls-24" cx="164.95" cy="545.39" rx="5.3" ry="6.9"/></g><g id="Layer_56" data-name="Layer 56"><path class="cls-27" d="M212.35,536.59s13,13.3,19.6,16.4c0,0-20.5,5.7-23.6-1.2,0,0-7.8,7.3-11.8.4C196.65,552.19,212.75,540.09,212.35,536.59Z"/></g><path class="cls-1" d="M234.48-3.41v841.9C412,894.1,501.56,845.32,528,828.49c165.65-105.61,201.69-456.75,0-841.9"/></g></g></svg>