<svg id="Layer_1" data-name="Layer 1" xmlns="http://www.w3.org/2000/svg" xmlns:xlink="http://www.w3.org/1999/xlink" viewBox="0 0 666.04 877.78"><defs><style>.cls-1,.cls-23,.cls-24,.cls-31,.cls-32{fill:none;}.cls-2{clip-path:url(#clip-path);}.cls-3{fill:#8fa93f;}.cls-4{fill:#61514c;}.cls-5{fill:#503027;}.cls-6{fill:#fcbe3e;}.cls-7{fill:#015e47;}.cls-8{fill:#6e933d;}.cls-9{fill:#ba4e3c;}.cls-10{fill:#a14033;opacity:0.56;}.cls-10,.cls-25{isolation:isolate;}.cls-11{fill:#6c8c3b;}.cls-12{fill:#e9d8c4;}.cls-13{fill:#cc914b;}.cls-14{fill:#030303;stroke:#070606;}.cls-14,.cls-23,.cls-24,.cls-31,.cls-32{stroke-miterlimit:10;}.cls-15{fill:#eae8dd;}.cls-16{fill:#253c1a;}.cls-17{fill:url(#linear-gradient);}.cls-18{fill:#9db370;}.cls-19{fill:url(#linear-gradient-2);}.cls-20{fill:#ed2424;}.cls-21{fill:#6a8439;}.cls-22{fill:#906251;}.cls-23{stroke:#f3f0e9;}.cls-24{stroke:#fdba13;}.cls-25{fill:#5a6b30;opacity:0.31;}.cls-26{fill:url(#linear-gradient-3);}.cls-27{fill:url(#linear-gradient-4);}.cls-28{fill:url(#linear-gradient-5);}.cls-29{fill:url(#linear-gradient-6);}.cls-30{fill:#fff;}.cls-31{stroke:#000;}.cls-32{stroke:#060505;}.cls-33{fill:#5b7534;}</style><clipPath id="clip-path" transform="translate(-326.05)"><polygon class="cls-1" points="258.7 841.9 592.88 841.9 595.3 0 258.7 0 258.7 841.9"/></clipPath><linearGradient id="linear-gradient" x1="555.1" y1="430.2" x2="555.1" y2="338.99" gradientTransform="matrix(1, 0, 0, -1, 0, 842)" gradientUnits="userSpaceOnUse"><stop offset="0.14" stop-color="#ffce41"/><stop offset="0.64" stop-color="#faaf43"/><stop offset="1" stop-color="#f8993a"/></linearGradient><linearGradient id="linear-gradient-2" x1="649.1" y1="184.15" x2="440.1" y2="184.15" gradientTransform="matrix(1, 0, 0, -1, -326.05, 842)" xlink:href="#linear-gradient"/><linearGradient id="linear-gradient-3" x1="340.45" y1="302.15" x2="386.75" y2="302.15" xlink:href="#linear-gradient"/><linearGradient id="linear-gradient-4" x1="724.4" y1="195" x2="773" y2="195" xlink:href="#linear-gradient"/><linearGradient id="linear-gradient-5" x1="358.66" y1="234.9" x2="398.46" y2="234.9" xlink:href="#linear-gradient"/><linearGradient id="linear-gradient-6" x1="726.94" y1="257.55" x2="774.12" y2="257.55" xlink:href="#linear-gradient"/></defs><title>Giant</title><g class="cls-2"><path class="cls-3" d="M494.2,742.3,478,786.9s-14.2,8.1-27,0v-50Z" transform="translate(-326.05)"/><path class="cls-4" d="M450.9,787.2s-39.2,2-49.3-7.1,2.4,20.7,2.4,20.7h56.4Z" transform="translate(-326.05)"/><path class="cls-5" d="M448.9,796.7s-39.9,13.2-58.1-40.5c0,0-3.4,48.6,12.8,65.2h71.6s9.8-22.6,2.7-32.6Z" transform="translate(-326.05)"/><path class="cls-6" d="M477.9,787.6V794s-7.4,14.2-29.1,1.7l1.4-10.5,27.7,1.7" transform="translate(-326.05)"/><path class="cls-3" d="M583.8,742.3,600,786.9s14.2,8.1,27,0v-50Z" transform="translate(-326.05)"/><path class="cls-4" d="M627,787.2s39.2,2,49.3-7.1-2.4,20.7-2.4,20.7H617.5Z" transform="translate(-326.05)"/><path class="cls-5" d="M629.1,796.7s39.9,13.2,58.1-40.5c0,0,3.4,48.6-12.8,65.2H602.7s-9.8-22.6-2.7-32.6Z" transform="translate(-326.05)"/><path class="cls-6" d="M600,787.6V794s7.4,14.2,29.1,1.7l-1.4-10.5L600,786.9" transform="translate(-326.05)"/><path class="cls-6" d="M479.1,522.2s-63.3,7.2-81-41.8c0,0-58.1,129.3,62,109.1Z" transform="translate(-326.05)"/><path class="cls-6" d="M648.3,523.5s61.4,15.7,106.4-51.6c0,0,9.1,114.9-53.2,132.6l-75.4-22.2Z" transform="translate(-326.05)"/><path class="cls-7" d="M654,524.5s44.8,6,80.9-29.1c0,0,16.4,87.8-93.2,70.5Z" transform="translate(-326.05)"/><path class="cls-7" d="M448.7,520.4s-31.4-7.4-40.3-22c0,0-30.3,45.8,3.4,66.5h40.1Z" transform="translate(-326.05)"/><path class="cls-7" d="M408.4,498.4s7.9,8.5,13.4,11.7l-3.2,2L408.3,506v-7.6Z" transform="translate(-326.05)"/><path class="cls-8" d="M387.4,515.7s-96.7,30-47.3,63.7c0,0,37.6,34.6,75.4,29.1l2.9-34.6-31.7-15C386.7,558.8,380.5,542.4,387.4,515.7Z" transform="translate(-326.05)"/><path class="cls-9" d="M431.6,683.4s-46.3,45.8,8.6,71.5c0,0,32.2,23.9,77.9-2.2l31.7,2.6s41,28.7,95.9-.9c0,0,30.5-13.1,8.7-41.8l-37.9-63.1-149.8-7.4Z" transform="translate(-326.05)"/><path class="cls-10" d="M658.5,719.1S455.9,762,416,733.6c0,0,19.3,39.3,84.7,31.2,0,0,52.4-7.6,76,1.1,0,0,37.4,11.4,78.7-18.2C655.3,747.7,668.8,736.4,658.5,719.1Z" transform="translate(-326.05)"/><path class="cls-6" d="M641.2,666.1s6.7,49.9,41,44.1c0,0-57.6,96.6-104.6-39.3l63.6-21.3Z" transform="translate(-326.05)"/><path class="cls-6" d="M437.1,653s-6.7,49.9-41,44.1c0,0,57.6,96.6,104.6-39.3l-63.6-21.3Z" transform="translate(-326.05)"/><path class="cls-7" d="M436.7,647.2s.3,28.6-18.3,44.3c0,0,32,55.8,65-28.5l-46.3-23.9Z" transform="translate(-326.05)"/><path class="cls-7" d="M632.9,647.6s12.4,44.8,25.6,55.9c0,0-35.7,59.7-67.1-36.3Z" transform="translate(-326.05)"/><path class="cls-6" d="M601.2,751s-32.3,15.2-20.1-88l-88.8-11.3s7,101-24.4,99.3c0,0,11.3,42.7,61.8,12.6.1,0,42.4,31.8,71.5-12.6" transform="translate(-326.05)"/><path class="cls-7" d="M511.5,675.7s.4,66.6-8.7,77.5c0,0,20.5-.9,29.6-16.1,0,0,13.1,18.3,33.1,16.1,0,0-10.9-31.3-5.2-77.5Z" transform="translate(-326.05)"/><path class="cls-11" d="M750.2,538.2s49.3,94.7,20.8,93.4c0,0-83.6-5.6-89.8-15l5.9-43.1,39.8,15.2S743,572.8,750.2,538.2Z" transform="translate(-326.05)"/><path class="cls-8" d="M430.1,467.2s22.9,55.5,12.4,147.6c0,0,86.9,32.7,201.8,9.1,0,0,13.7-99.2,22.9-140.3.2-1,.4-1.9.6-2.8C677,441.7,430.1,467.2,430.1,467.2Z" transform="translate(-326.05)"/><ellipse class="cls-1" cx="552.09" cy="379.78" rx="106.1" ry="146" transform="matrix(0.05, -1, 1, 0.05, -180.58, 912.41)"/><path class="cls-12" d="M665.4,129.1c-3.9,31.8-43.4,54.1-88.2,49.8s-78-33.6-74-65.4,43.4-54.1,88.2-49.8S669.3,97.3,665.4,129.1Z" transform="translate(-326.05)"/><ellipse class="cls-12" cx="552.79" cy="374.35" rx="107.6" ry="151.5" transform="translate(-205.01 883.57) rotate(-83.81)"/><path class="cls-12" d="M691.9,239.9c-5.8,48.5-63.3,81.6-127.2,75.4s-110.2-49.5-104.4-98,61.6-83.8,125.5-77.5S697.7,191.4,691.9,239.9Z" transform="translate(-326.05)"/><path class="cls-13" d="M461.5,214.7s15.8-1.4,24.9-14.2c0,0-2.4-15.2,25.1-12.3l13.8-10.4,6.8-.5,18,24.4s6.2,9.7,12.9-.9c0,0,9.3-24,16.8-2.6,0,0,1.4,13.6,8.4,1.6,0,0,8.8-15,9.3.9,0,0-6.5,26.9,14.7-.7l14.6-10.7,8.2,1.8,4.5,8.4s-3.3,12.6.4,16.2c0,0,7.3,7.1,12.5-2,0,0,9.1-17.1,15.2,4.7,0,0,5.1,38.1,23.4,9.4,0,0,3.9-31.3-33.1-61.1,0,0-76.2-62.6-161.7-7.4C496.3,159.3,460.5,191.5,461.5,214.7Z" transform="translate(-326.05)"/><path class="cls-13" d="M416.2,353.6s12.5-1.1,19.7-11.3c0,0-1.9-12.1,19.8-9.7l10.9-8.2,5.4-.4,14.2,19.3s4.9,7.7,10.2-.7c0,0,7.4-19,13.3-2,0,0,1.1,10.8,6.7,1.3,0,0,7-11.9,7.3.7,0,0-5.1,21.3,11.6-.5l11.5-8.5,6.5,1.4,3.6,6.6s-2.6,10,.3,12.8c0,0,5.8,5.6,9.9-1.5,0,0,7.2-13.5,12.1,3.7,0,0,4,30.1,18.5,7.5,0,0,3.1-24.8-26.2-48.4,0,0-60.3-49.5-127.9-5.9C443.7,309.8,415.3,335.3,416.2,353.6Z" transform="translate(-326.05)"/><path class="cls-13" d="M463.5,202.2s8.8-43.2,69.8-58.9L493.1,173Z" transform="translate(-326.05)"/><path class="cls-9" d="M532.7,213.1s-23-15.7-23.7-24.7c0,0-4.9,13.9-2.3,19l-4,2.1s-4,1.5.7,3.6,6.4,3,6.4,3S505.5,193.9,532.7,213.1Z" transform="translate(-326.05)"/><path class="cls-13" d="M504.9,89s.6,10,11.8,7.6c0,0,6.9-7.9,14-3.9,0,0,3.8,10.1,18.9,4.1,0,0,7.1-5.1,16.9,1.6,0,0,8.2,16.9,23.3,2.2,0,0,14.7-12,21,3.8s8.8,15.5,23.4,3.1c0,0,9.3-12,18.8.8,0,0,2.1,13.5,10.1,9.4,0,0,8.4-39.5-46.8-59.3h0S595.7,26.8,595.1,14c0,0-1.9,21.3-36.9,39.8h0S520.1,58,504.9,89Z" transform="translate(-326.05)"/><path class="cls-13" d="M546.8,57.5S584.7,46.3,595.3,14c0,0,11.4,36.6,40.9,54.5S546.8,57.5,546.8,57.5Z" transform="translate(-326.05)"/><path class="cls-9" d="M487,227.1s27,18,60.8-4.5c0,0,22.1,23.5,55.6,8,0,0-21.7,25.1-29,30.2s-4.5,3.4-11.1-.3c0,0-10.2-12.8-20.3,2.7,0,0-6.2-13.9-17.7-3.9,0,0-5.4,7.3-13.4-1.1C511.9,258,488.7,235.3,487,227.1Z" transform="translate(-326.05)"/><path class="cls-14" d="M520.2,210.8c2.4,1.5,3.6,3.6,2.7,4.7s-3.5.8-5.8-.8-3.6-3.6-2.7-4.7S517.8,209.2,520.2,210.8Z" transform="translate(-326.05)"/><path class="cls-9" d="M574.2,216.2s26.7-9.4,30.1-17.8c0,0,.5,14.5-3.5,18.7l3.2,3s3.4,2.4-1.8,3.3-7,1.3-7,1.3S606,204.5,574.2,216.2Z" transform="translate(-326.05)"/><path class="cls-14" d="M587,217c-2.7.9-4.5,2.6-4,3.8s3.1,1.6,5.8.7,4.5-2.6,4-3.8S589.7,216.1,587,217Z" transform="translate(-326.05)"/><path d="M527.4,241.9s-13.8-.1-12.5,8.3c0,0,3.5,7.7,9.5-.4l6.7-4.1Z" transform="translate(-326.05)"/><path d="M563.4,243.3s13.8.7,11.8,9c0,0-4.1,7.4-9.4-1l-6.3-4.5Z" transform="translate(-326.05)"/><path class="cls-13" d="M683.7,327.5c-.1-.1-.2-.2-.2-.3-37.5-44.9-99.1-56.7-99.1-56.7-90-21.2-149.1,29.8-149.1,29.8-7.8,5.9-17.5,18.6-18.5,19.9-.1.1-.1.2-.2.3-28.9,44.3-7.3,79.8-7.3,79.8,3.8,5,9.5,1.1,9.5,1.1,9.7-2.6,10.6-60.7,10.7-68.9a3.74,3.74,0,0,1,.5-1.8c11.5-20.5,12.4,3.9,12.5,7.5a2.77,2.77,0,0,1-.1.9c-11,52.5,15.3,34.2,21.7,29.1a3.55,3.55,0,0,0,1.1-1.6,61,61,0,0,1-1.1-28.8,5.48,5.48,0,0,1,4.9-4.7,5,5,0,0,1-.5-1.3c-.6-2.8-.6-5.5.9-8a13.77,13.77,0,0,1,2.2-2.6c1.3-2,3.4-3.3,6.7-3.3a13.23,13.23,0,0,1,9,3.6c22.8-23.4,12.8,47.4,12.3,52.7a3.75,3.75,0,0,0,.1,1.1c2.8,13.2,14.2,13.5,19.7,12.9a3.73,3.73,0,0,0,3.3-3.4c1.2-8.4,5.6-17.3,10.7-25.4a20.75,20.75,0,0,1,4.4-6.5c2.2-3.1,4.5-5.9,6.5-8.4h0c1.5-3.1,4.5-5.8,7.9-8a28.87,28.87,0,0,1,7.8-4.4c1-.5,1.9-.9,2.7-1.3,5.5-2.5,12.9-5.3,18.4-1.4,4.8,3.4,3.8,8.6,1,12.8a6.6,6.6,0,0,1-.6,2.7c-3.3,7.2-1.1,16,0,24,6.2,9.3,17.5.1,20.8-2.9a4.45,4.45,0,0,0,1.2-2.1c6.7-33.9,19-42.1,22.9-43.9a3.13,3.13,0,0,1,2.5-.2c9.8,2.8,10.2,27.1,10.2,32.2a3.92,3.92,0,0,0,.4,1.8c5,9.6,13.3,6.2,17.5,3.5a3.92,3.92,0,0,0,1.7-4.1c-1.2-5.6,4.4-14.4,4.4-14.4,6.6-6.1,13,26.6,14.2,33.6a4.77,4.77,0,0,0,1.2,2.2c17.1,15.3,23.1-1.6,24-4.8a3,3,0,0,0,.2-1C703.2,356.3,685.3,329.8,683.7,327.5Z" transform="translate(-326.05)"/><path class="cls-13" d="M465,367.3a200.09,200.09,0,0,1,3.1-20.5c.1-1.5.2-2.9.3-4.3,0-.6-.1-1.2-.1-1.8a6.66,6.66,0,0,1,.3-2.9,65.27,65.27,0,0,1,.3-8.8c-.1-2.3-.3-4.6.5-6.9a6.62,6.62,0,0,1,3.2-3.9l-8.3-1.3-7.5,50.6,6.8,4.4C464.1,370.4,464.6,368.9,465,367.3Z" transform="translate(-326.05)"/><path class="cls-15" d="M517.4,225.4s-6.5,17,15,23.4c0,0,20.6,4.8,33.7-1.5,0,0,14.2-2.9,14.5-19.9,0,0-9.5,10.7-19.6,13.3,0,0-20.4,1.3-28.5-1.9A31.31,31.31,0,0,1,517.4,225.4Z" transform="translate(-326.05)"/><path class="cls-9" d="M557.1,84.1s-18.4-12.3-19-19.4c0,0-3.9,10.9-1.8,14.9l-3.2,1.7s-3.2,1.2.6,2.8,5.1,2.3,5.1,2.3S535.3,69,557.1,84.1Z" transform="translate(-326.05)"/><path class="cls-9" d="M520.8,99.2s21.7,14.1,48.8-3.5c0,0,17.7,18.5,44.6,6.3,0,0-17.4,19.7-23.3,23.7s-3.6,2.7-8.9-.3c0,0-8.2-10.1-16.3,2.1,0,0-5-10.9-14.2-3.1,0,0-4.4,5.8-10.8-.9C540.7,123.5,522.1,105.7,520.8,99.2Z" transform="translate(-326.05)"/><path class="cls-14" d="M547,82.2c1.9,1.2,2.9,2.8,2.2,3.7s-2.8.6-4.7-.6-2.9-2.8-2.2-3.7S545.1,81,547,82.2Z" transform="translate(-326.05)"/><path class="cls-9" d="M590.3,86.5s21.4-7.4,24.1-14c0,0,.4,11.4-2.8,14.7l2.6,2.4s2.7,1.9-1.4,2.6-5.6,1-5.6,1S615.8,77.3,590.3,86.5Z" transform="translate(-326.05)"/><path class="cls-14" d="M600.5,87.1c-2.2.7-3.6,2-3.2,3s2.5,1.2,4.6.5,3.6-2,3.2-3S602.7,86.4,600.5,87.1Z" transform="translate(-326.05)"/><path d="M553.1,110.8s-11-.1-10,6.5c0,0,2.8,6,7.6-.3l5.4-3.2Z" transform="translate(-326.05)"/><path d="M582,111.9s11,.6,9.5,7.1c0,0-3.3,5.8-7.5-.8l-5.1-3.5Z" transform="translate(-326.05)"/><path class="cls-15" d="M545.1,97.8s-5.2,13.3,12,18.4c0,0,16.5,3.8,27-1.2,0,0,11.4-2.2,11.6-15.6,0,0-7.6,8.4-15.7,10.5,0,0-16.4,1-22.9-1.5A24.66,24.66,0,0,1,545.1,97.8Z" transform="translate(-326.05)"/><path class="cls-9" d="M499.2,329.7s-30.1-22.8-31-35.9c0,0-6.4,20.2-3,27.6l-5.3,3.1s-5.3,2.2,1,5.2,8.3,4.3,8.3,4.3S463.6,301.8,499.2,329.7Z" transform="translate(-326.05)"/><path class="cls-9" d="M439.9,357.7s35.4,26.1,79.6-6.5c0,0,28.9,34.1,72.7,11.6,0,0-28.4,36.4-38,43.8s-5.9,5-14.5-.5c0,0-13.3-18.7-26.6,4,0,0-8.1-20.2-23.1-5.7,0,0-7.1,10.6-17.6-1.7C472.5,402.7,442.1,369.7,439.9,357.7Z" transform="translate(-326.05)"/><ellipse class="cls-14" cx="480.76" cy="329.17" rx="3.5" ry="6.9" transform="translate(-392.27 529.91) rotate(-54.55)"/><path class="cls-9" d="M553.5,334.1s34.9-13.6,39.4-25.9c0,0,.7,21-4.6,27.2l4.2,4.4s4.4,3.5-2.3,4.7-9.1,1.9-9.1,1.9S595,317.1,553.5,334.1Z" transform="translate(-326.05)"/><ellipse class="cls-14" cx="571.31" cy="338.58" rx="6.8" ry="3.5" transform="translate(-406.58 211.57) rotate(-19.63)"/><path d="M492.7,379.2s-18-.2-16.3,12c0,0,4.6,11.1,12.4-.6l8.7-5.9Z" transform="translate(-326.05)"/><path d="M539.9,381.2s18,1.1,15.5,13.1c0,0-5.3,10.8-12.3-1.5l-8.3-6.5Z" transform="translate(-326.05)"/><path class="cls-15" d="M479.7,355.2s-8.6,24.6,19.6,34c0,0,26.9,7,44.1-2.2,0,0,18.6-4.2,19-28.9,0,0-12.5,15.6-25.7,19.3,0,0-26.7,1.9-37.3-2.7S482.3,360.4,479.7,355.2Z" transform="translate(-326.05)"/><path class="cls-13" d="M487.9,321.2s14.1,9.5,14.3,11.9V316.6l-11.1-4.9Z" transform="translate(-326.05)"/><path class="cls-16" d="M448.4,486.1s65.1,15.2,62.9,56.3c0,0,33.4-16.6,13.3-56.3H448.4Z" transform="translate(-326.05)"/><path class="cls-16" d="M627.9,487.5s-65.1,15.2-62.9,56.3c0,0-33.4-16.6-13.3-56.3Z" transform="translate(-326.05)"/><path class="cls-16" d="M507.7,500.3s21.2,21.1,3.6,41" transform="translate(-326.05)"/><path class="cls-16" d="M564.5,502.9s-19.3,18.1.5,40.9" transform="translate(-326.05)"/><path class="cls-17" d="M422.9,481l-13.1-69.2,30,25.5,28.7-25.5,35.9,34.6,34-34.6,36.1,45.1,42.3-45.1,26.1,34.6,57.5-34.6-24.2,75.1C676.3,486.9,550.9,526.8,422.9,481Z" transform="translate(-326.05)"/><path class="cls-18" d="M464.3,584.9s48.1,1.3,74.2-34c0,0,29.1,35.3,86.2,34l-26.1,30.9s-84.5-28.3-29.2,23.3H509.1s37.2-43.4-20.9-26.6Z" transform="translate(-326.05)"/><polyline class="cls-19" points="117.55 615.9 114.05 644 208.15 699.8 323.05 649.2 318.25 619.2 234.45 629.1 190.25 629.1 117.55 615.9"/><ellipse class="cls-20" cx="210.75" cy="655.4" rx="7" ry="13.3"/><ellipse class="cls-21" cx="419.79" cy="644.3" rx="34.4" ry="22.9" transform="translate(-633.98 892.84) rotate(-75.77)"/><path class="cls-11" d="M694,631.6s23.5,23.2,30.5,28l-43.2-7L677,695.7s124.7,28.5,106.7-17.6c0,0-22.2-54.2-29.2-62.3l-73.2,3.7Z" transform="translate(-326.05)"/><path class="cls-21" d="M697,675.9s2.2-31-23.3-38.2l-15-9.1s-6.2-13.4-12.1,0c0,0-3.6,10.8,2.6,13.7,0,0-20.6,6.2-10.4,33.6,0,0,10.4,34.9,42.4,26.1C681.2,702,695.2,700.7,697,675.9Z" transform="translate(-326.05)"/><path class="cls-22" d="M528.6,582s-31.1,4.4-30.5,12.4c0,0,5.7,6.6,21.4-3.5l16.2-6.3Z" transform="translate(-326.05)"/><path class="cls-22" d="M552.3,583.3s31.1,4.4,30.5,12.4c0,0-5.7,6.6-21.4-3.5l-16.2-6.3Z" transform="translate(-326.05)"/><path class="cls-15" d="M517,552s-3,20.5,8.9,29.1h27.5s10.4-6.2,8.5-28c0,0,14.8,22.3-5.7,40.4H524.7C524.5,593.5,502,583.8,517,552Z" transform="translate(-326.05)"/><path class="cls-23" d="M525.7,581.1s-3.3,5.9-1.6,11.7" transform="translate(-326.05)"/><path class="cls-23" d="M554,581.1s3.3,5.9,1.6,11.7" transform="translate(-326.05)"/><ellipse class="cls-21" cx="424.97" cy="582.06" rx="34.4" ry="22.9" transform="translate(-569.74 850.91) rotate(-75.77)"/><g id="Layer_11" data-name="Layer 11"><path class="cls-21" d="M698.3,601.5s2.2-31-23.3-38.2l-15-9.1s-6.2-13.4-12.1,0c0,0-3.6,10.8,2.6,13.7,0,0-20.6,6.2-10.4,33.6,0,0,10.4,34.9,42.4,26.1C682.5,627.7,696.5,626.3,698.3,601.5Z" transform="translate(-326.05)"/></g><line class="cls-24" x1="113.85" y1="437.3" x2="119.35" y2="488.2"/><line class="cls-24" x1="178.55" y1="446.4" x2="179.25" y2="500.1"/><line class="cls-24" x1="248.55" y1="456.9" x2="247.75" y2="502.7"/><line class="cls-24" x1="316.95" y1="446.4" x2="309.75" y2="496.1"/><path class="cls-25" d="M739.6,570.1a5.94,5.94,0,0,1-.4.8v.2c-.2.5-.4,1-.7,1.6a21.15,21.15,0,0,1-1.1,2.1c-.8,1.5-1.7,2.9-2.6,4.3a86.81,86.81,0,0,1-7.4,9.8c-.1.1-.2.3-.4.4l25.1,8.5A54.47,54.47,0,0,0,739.6,570.1Z" transform="translate(-326.05)"/><path class="cls-26" d="M340.4,538.2l46.3,20.6s-18.9-35.8-13.6-37.9C373.1,520.9,352.1,528,340.4,538.2Z" transform="translate(-326.05)"/><g id="Layer_51" data-name="Layer 51"><path class="cls-27" d="M746.5,663S763,652.5,773,653l-10-22s-34,10.8-38.6,28.6Z" transform="translate(-326.05)"/></g><path class="cls-8" d="M403.7,670.2s-32-15.9-56.5-43c0,0,1.4-23,15.4-35.6,0,0,28.7,15.4,37.3,13.9l-7.5,15,12.1,4.7C404.6,625.2,388.6,661.9,403.7,670.2Z" transform="translate(-326.05)"/><path class="cls-28" d="M372.9,613.4S357,602.3,358.8,595l1.1-1.2s17.6,10.3,38.6,14.3l-6.2,12.3Z" transform="translate(-326.05)"/><path class="cls-29" d="M765.6,571.2c-20.5,9.6-25.2,22.3-25.2,22.3l11.7,4.2c12.2-6.2,22-4.2,22-4.2C772.9,584.8,765.6,571.2,765.6,571.2Z" transform="translate(-326.05)"/><path class="cls-9" d="M625.3,523.4s3.7,15.1,1.8,17.9c0,0-7.4,8.6-11.4,9.6,0,0,15.6.9,18.6-1.3,0,0-1.1,12.2-14.6,16.6l-8.9.3s8.3-28.1,2.8-33.3C613.7,533.1,626.1,527.1,625.3,523.4Z" transform="translate(-326.05)"/><path class="cls-30" d="M587.6,572.9c3.9-1.2,7.8-1.9,11.8-2.8,3.6-.8,7.5-.8,11-1.8a28.82,28.82,0,0,0,7.7-20,29.54,29.54,0,0,0-3.9-14.9c-4.4,3.3-10.1,5.1-15.1,7-8.5,3.2-17.9,4.1-26.3,7.5-.1,0-.2.1-.3.1v.3c0,11.3,6,21,14.5,24.9A.6.6,0,0,1,587.6,572.9Z" transform="translate(-326.05)"/><path d="M588.9,543.4a25.3,25.3,0,0,0-.6,5.6c0,10.1,5.2,18.3,11.7,18.3s11.7-8.2,11.7-18.3a24.48,24.48,0,0,0-3-12.2C602.1,538.8,595.4,541,588.9,543.4Z" transform="translate(-326.05)"/><ellipse class="cls-30" cx="606.45" cy="551.79" rx="6.9" ry="5.3" transform="translate(-315.22 1115.25) rotate(-85.71)"/><path class="cls-31" d="M577.6,575.6s53.9-16.6,72.9-7.7" transform="translate(-326.05)"/><path class="cls-31" d="M625.7,523.5c3.2,11.9,11.9,23.6,24.4,26.4" transform="translate(-326.05)"/><path class="cls-31" d="M567,549.9c19.9-7.5,43.4-10.1,58.7-26.3" transform="translate(-326.05)"/><g id="Layer_36" data-name="Layer 36"><path class="cls-9" d="M471.6,535.8l.3-.3a33.42,33.42,0,0,1-4-3.5c-.6-.6-1.3-1.2-1.9-1.8a9,9,0,0,1-1.5-1.9v-.1c-.7-.6-.5-.8,0,0,.3.2.6.6,1.2,1a8.67,8.67,0,0,1-2.4-2.7c-1.9-.9-3.4-1.8-3.1-3,0,0-4,15.8-2,18.7,0,0,8,9,12.4,9.9,0,0-17,.9-20.2-1.4,0,0,1.2,12.7,15.8,17.3l9.7.3C475.8,568.2,465.6,542.9,471.6,535.8Z" transform="translate(-326.05)"/><path class="cls-30" d="M499.8,551a.35.35,0,0,1-.2-.1,5.26,5.26,0,0,1-2.6-1.5,25.84,25.84,0,0,1-3.8-1c-2.4-.9-4.8-1.8-7.1-2.9-4.2-1.9-7.5-4.7-11.1-7.5a8,8,0,0,1-2.2-2.7,1.73,1.73,0,0,0-.4-.3c-14.2,14.6-1.1,32.6-1.1,32.6,6.7.3,19.5,5.4,19.5,5.4,13.4-3.5,11.9-17.9,11.3-21.4A5.58,5.58,0,0,1,499.8,551Z" transform="translate(-326.05)"/><path class="cls-31" d="M446.7,575.6s16.1-16.8,56.1,1.9" transform="translate(-326.05)"/><path class="cls-32" d="M444.5,542.4s12.1-10.8,15-20.2c0,0,15.6,23.1,45.7,29.8" transform="translate(-326.05)"/><path d="M479.3,540.1s-11.8,7.7-1.3,28.4a103.83,103.83,0,0,1,10.3,4.2s10.1-3.8,7.5-23Z" transform="translate(-326.05)"/><ellipse class="cls-30" cx="164.95" cy="558.8" rx="5.3" ry="6.9"/></g><g id="Layer_56" data-name="Layer 56"><path class="cls-33" d="M538.4,550s13,13.3,19.6,16.4c0,0-20.5,5.7-23.6-1.2,0,0-7.8,7.3-11.8.4C522.7,565.6,538.8,553.5,538.4,550Z" transform="translate(-326.05)"/></g><path class="cls-1" d="M560.53,10V851.9C738,907.51,827.61,858.73,854,841.9,1019.65,736.29,1055.69,385.15,854,0" transform="translate(-326.05)"/><line class="cls-1" x1="248.55" y1="4" x2="248.55"/><line class="cls-1" x1="280.41" y1="841.9" x2="285.65"/></g></svg>