<svg id="โดนผ่า" xmlns="http://www.w3.org/2000/svg" viewBox="0 0 595.28 463"><defs><style>.cls-1{fill:#4c535a;}.cls-2{fill:#585e64;}.cls-3{fill:#454b53;}.cls-4{fill:#484f57;}.cls-5{fill:#445053;}.cls-6{fill:#48535c;}.cls-7{fill:#4e565e;}.cls-8{fill:#596067;}</style></defs><title>เขาโดนผ่า</title><path class="cls-1" d="M335.7,211.8l-1.08-1.68-6.19-7.57a10.8,10.8,0,0,0,1.38-4.13c0-1.72-1.38-10.32-1.38-10.32l1.38-3.44s2.06-20.63.34-20.63,0-16.51,0-16.51l-1.72-4.47.69-5.5-1-10.31-1.43-8.94v-9.63l-1.66-5.5-.34-15.13-.69-11s-1.37-8.6-4.13-13.07.69-4.13.69-4.13l1-3.78s-1-28.54-5.16-33.35a64.19,64.19,0,0,1-6.71-9.46l-4.13,5.16s-1.2,20.81-3.27,20.81l-2.06,16.16s-.34,11.35,0,13.41-3.1,11.35-3.1,11.35l-2.75,11.69s-7.57,26.82-6.88,30.26S285.41,142,285.41,142l-6.19,28.2-1.38,7.57L275.09,184l-3.44,2.06s-18.93,32-20.3,29.92l-4,1.2s-3.27,16-4.47,16.68-12.73,12.21-12.73,12.21l-2.75,10.14-1.89,2.24-1.72,23.21,9.64,22,27.18,22.7,23.74,7.57h25.29l14.5-1.92c3.84-31.57,5.59-62.47,9-94.66C334,228.8,334.86,220.29,335.7,211.8Z"/><path class="cls-1" d="M341.84,232.13l-.34-11.35-5.8-9c-.84,8.49-1.72,17-2.57,25.53-3.37,32.19-5.11,63.09-9,94.66l16.64-2.2,7.57-11.69V279.24Z"/><path class="cls-2" d="M305,193.27s5.23,21.2,4.78,25.26c1.37-3.44,8.3-19,8.3-20.44,0-1.72-2.75-7.22-2.75-7.22s.34-7.57,2.75-3.78,5.16,14.1,5.16,14.1,4.47,7.23,6.54-2.75l-1.38-10.32s5-13.41,1.72-24.07l-.68-2.22V162s-2.17-7.25,0-.17l.68-14.28-1.72-4.47.69-5.5-2.47-19.25v-9.63l-1.66-5.5s3.56-21.07-6.23-41.94c0,0,1.07-2.07,1.76-1.38s1-5,1-5-1-31.15-5.11-32.18l-6.71-9.46V34.75s-2.92,22.7-2.92,27.17V86.33s-1.38,21.66,0,23.38-2.06,33.7-2.06,33.7-5.85,12.38-5.85,13.41-6.88,14.44-6.88,17.54S292.29,188.11,305,193.27Z"/><path class="cls-2" d="M309.67,219.06a1.47,1.47,0,0,0,.13-.53C309.56,219.14,309.49,219.37,309.67,219.06Z"/><path class="cls-2" d="M329.45,162v-.17C327.28,154.74,329.45,162,329.45,162Z"/><path class="cls-3" d="M289.54,185.36,283,199.46s-5.85,29.92-7.23,29.92-2.06,18.91-2.06,18.91h-6.54v25.79s1,14.79,0,15.13S278.36,272,278.36,272s-4-11-2.93-12.38,5.51-10,5.51-10l6.54-1,.34-13.41,3.1-1.38V208.06Z"/><path class="cls-3" d="M336.68,187.76,335,191.55l2.16,5.28q.64-7.15,1.18-14.29Z"/><path class="cls-3" d="M338.06,149.6l1.55,11q.33-7.89.42-15.79Z"/><path class="cls-3" d="M548.91,343.11,445.07,289.9,442,277.17s-12.39-17.88-18.58-19.6-14.8-8.25-14.8-8.25-14.45-34.73-13.42-38.17-10.65-19.94-10.65-19.94l0-4.13s.34-13.75-1.72-14.1-2.41-19.22-2.41-19.22L378.66,152s.69,2.06-2.06,1.72-8.26-21.32-8.26-21.32v-6.19l-2.75-27.51-2.41-20.29S362.49,68.1,360.42,65s-1.2-10.49-4.3-32.15-7.74,0-7.74,0l-1,7.74L346,52.29,344.6,57.1l.69,17.19-.34,4.81-1.38,7.56.34,6.88-3.61,50.55-.27.66q-.08,7.9-.42,15.79l.69,4.86v10.66l-2,6.46q-.54,7.14-1.18,14.29l3.18,7.79-2.92,7.57L334,228.31q-.46,4.51-.91,9c-5,47.54-6.41,92.25-16.27,140.46l4-1.25,24.43-23.38,52.13,11.35,162.06,9.8Z"/><path class="cls-3" d="M334,228.31l-1.14,5.53-6.25,19.26-4.07,20.29-5.5,23.73-19.61,25.45s-12.39,5.5-13.42,5.85-14.45,7.22-14.45,7.22l-12,14.79-10,18.22-14.8,18.23,52,.95,32.11-10c9.86-48.21,11.3-92.93,16.27-140.46Q333.58,232.82,334,228.31Z"/><path class="cls-4" d="M281.28,332l-19.1-22.7-7.74-16-6.71-11.86L239,272.19s-10.32-10-11.87-11.86-8.77-2.06-8.77-2.06l-5.16,2.06-2.58-3.61-4.65.52-3.61,3.09-5.68,2.06-5.16,1.55-3.1,3.61v3.09l-4.13,2.06-2.58,4.64-7.59,3.45-9.44-5-5.16-2.06-4.13.52-7.23,6.19-8.26,5.67-3.1,4.13L129.54,298l-10.84,5.16-11.87,5.16s-14.45,3.09-17,4.13a85.26,85.26,0,0,1-13.42,4.13l-18.06,3.61L47,323.77,40.77,332v8.25H281.28Z"/><path class="cls-3" d="M335.62,212.63l-.26-.45s-5.75,26.21-7.64,27.06-6.2,11-6.2,11l-3.5,7.92-12.4,11.31-2.7,5.09-3.5,10.75S294.58,289,293.5,289s-4,1.7-4,1.7l-11.32,7.07L273,300.32l-8.62,7.07-6.2,4.81-3.5,2.83-3.23,4.24,4.85,9.9-1.08,3.11-6.2,3.68-14.82,2L222.08,343l-3.77,3.39L211,349.8h-9.7l-10.24-4.53-8.08.57-7.28.85-6.2,3.11-9.16-1.7-8.89-.85,20.75,37.61,19.4,9h20.48l37-3,28.74-7.16,31.26-7.54,8.51-2.26c9.17-46.75,10.66-90.34,15.49-136.6C334,229.08,334.81,220.85,335.62,212.63Z"/><path class="cls-3" d="M377.56,285.88l-41.94-73.25c-.81,8.21-1.66,16.44-2.49,24.7-4.84,46.27-6.33,89.85-15.49,136.6l65.15-17.34Z"/><path class="cls-4" d="M315.69,321.88,314,318.78l-11.7-1L297.8,314h-10l4.82,7.91,3.44.34L300.9,325h5.5l5.16,1,4.13,3.78,8.6-2.41.45-.23q.4-3.46.77-6.91Z"/><path class="cls-4" d="M323.61,299.18l3,1.72.68,1.13q.18-2,.36-3.94Z"/><path class="cls-4" d="M374.87,209.85c-.34-4.47-5.51-22.7-6.54-24.76a8.14,8.14,0,0,0-2.75-3.09l-1.72-18.57,1.72-6.19s-2.06-14.79-2.41-16.85-4.13-3.78-4.13-3.78V123.2s-2.41-11.69-4.13-13.75a12.22,12.22,0,0,0-4.82-3.09L348.38,98l-1.55-.77-1-2.45-.77-3L343.71,81.7l-1.34,25.53-2.07,29-.27.66q-.08,7.9-.42,15.79l.69,4.86v10.66l-1.93,5.6q-.56,7.57-1.25,15.15l3.18,7.79-2.92,7.57,5.95,15.13,3.39,9.28,3.39,12L357,254.21l4.82,5.5-1.72,16.51,1.38,5.16-.34,5.85a24.32,24.32,0,0,1-4.13.69c-1.38,0-2.06-1.72-2.06-1.72l-1-3.44-2.06-.69-3.1-3.78-2,.69-3.39,2.75-1.47,4.13,1.47,3.44V292L340.47,290H336l-3.17.69-4.05-.69-1.09.29q-.18,2-.36,3.94l1.79,3,3.71,1V303l-3.71,5.85-1,3.09-2.56.43q-.37,3.45-.77,6.91l4.36-2.18,5.85-4.75,5.16-4.88s6.19,1.72,8.26,4.13,5.16-1.72,5.16-1.72l3.79-14.79,10-5.16s9.29-6.88,10.32-15.82S375.22,214.32,374.87,209.85Z"/><path class="cls-4" d="M335,191.55l2.16,5.28q.68-7.58,1.25-15.15Z"/><path class="cls-4" d="M338.06,149.6l1.55,11q.33-7.89.42-15.79Z"/><polygon class="cls-1" points="267.35 420.22 247.22 360.91 239.99 350.07 226.57 335.12 212.12 329.96 203.87 329.96 192.51 329.96 183.22 329.96 172.9 329.96 159.48 335.12 145.03 332.54 133.67 329.96 116.12 324.8 107.87 324.8 100.64 319.13 84.64 319.13 68.64 319.13 63.48 323.25 48.51 323.25 41.8 319.13 34.06 319.13 24.77 319.13 4.64 354.2 2.58 415.58 267.35 420.22"/><path class="cls-5" d="M319.71,362.63l-12.62,9.11-8.77,6.08s-10.32,1.66-16,.11S256.75,389,256.75,389l.45,1.34,11.28.31s42.73-7.56,33.44,1.72,5.16,9.8,5.16,9.8l6.52-.55c1.07-7.72,1.45-15.43,3.11-23.15Q318.37,370.49,319.71,362.63Z"/><path class="cls-5" d="M506.31,347.5l-8.26-13.93-14.45-1L445.93,330l-11.35,1.55-7.23-3.61-13.94-3.61a250.94,250.94,0,0,1-25.81,2.58c-12.9.52-25.29,11.86-25.29,11.86H348.38l-7.23,2.58L335,351.62l-15.25,11q-1.36,7.87-3,15.84c-1.65,7.72-2,15.43-3.11,23.15l190.12-16Z"/><path class="cls-6" d="M312.43,408.44l-.44.21-12.39,3.44-11.7,7.56H275.52l-81.2,22.85,128.29,1.85C316.91,433.08,309.14,421.68,312.43,408.44Z"/><path class="cls-6" d="M563.86,420.34l-11.7-24.07-20-11.69-22-2.06-27.53-11-14.45-8.25H389.07l-47.48,20.63v6.19l-10.72,9.63-18.42,8.73c-3.29,13.24,4.48,24.64,10.17,35.9l238.83,3.44Z"/><path class="cls-7" d="M450.92,364.35l-11,11.69v8.25H427.52v3.44l-13.76-3.44-7.57,7.56,4.82,46,.69,13.13-.28-5.38,60.15.56,17.2-8.31,27.69-.84,24.59-.1,31.25,1,20-10.78s-4.13-53.33-13.08-57.46-35.37-21.15-37.44-21.15-50.92-8.25-50.92-8.25Z"/><path class="cls-8" d="M295.73,414.55c-7.23-.77-6.19,0-6.19,0a10.55,10.55,0,0,1-3.35-.34c-.77-.43-2.84,0-2.84,0l-3.87,2.67-1.55-1-2.84-3.09H256.51l-4.9-2.32-6.45-2.84s-8.77-1.29-10.58-1.29-7.23-2.58-7.23-2.58H203.09l-8.26-5.42h-9.29l-10.32-4.13-11.87-10.83s-5.68-4.64-7.23-5.16-13.94-4.13-13.94-4.13H120a77.4,77.4,0,0,0-8.77,3.61c-4.13,2.06-9.29,3.61-13.42,6.71S88,388.5,84.38,394.69s-12.9,18.57-12.9,18.57L80.27,442,254,442.5,274,432.17h11.7l4.82-10.32,7.57-3.44S303,415.32,295.73,414.55Z"/><path class="cls-3" d="M326.28,81.89s.17-1.86,1.11-2.16a3,3,0,0,1,2.13.46,4.16,4.16,0,0,1,.94,1.7c0,.26-.68,1.28,0,2s.51,1.19,0,1.7-1.87,1.25-2.72.75-1-1.15-1.45-1.37S326.28,81.89,326.28,81.89Z"/><path class="cls-3" d="M335.82,119s.15-2.6,1-3,1.62.53,1.84.65a7.36,7.36,0,0,1,.81,2.37c0,.36-.59,1.78,0,2.85a2,2,0,0,1,0,2.38c-.44.71-1.62,1.74-2.36,1s-.89-1.6-1.25-1.92S335.82,119,335.82,119Z"/><path class="cls-3" d="M325.94,74.79a7.69,7.69,0,0,1-.9-2.3,13.52,13.52,0,0,0-.65-1.6,7.08,7.08,0,0,1-1-1.59,11.16,11.16,0,0,0-.17-1.19,3.75,3.75,0,0,1-.14-1l-.3-2.07-.37-2.59.41-1.37s.45-.38.59-.08,1.36.9,1.36.9l.93-.13.62,3.39.11.77.61,2.24a7.82,7.82,0,0,0,0,1.21c.07.25.13.41-.1,1.19a6.45,6.45,0,0,0-.24,1.64c0,.35.15.11-.08.62s-.24.74-.35.9A7.27,7.27,0,0,0,325.94,74.79Z"/></svg>