<svg id="Layer_1" data-name="Layer 1" xmlns="http://www.w3.org/2000/svg" viewBox="0 0 387.67 458.75"><defs><style>.cls-1{fill:#f5e9d7;}.cls-2{fill:#f2dec4;}.cls-3{fill:#e8dbce;}.cls-4{fill:#f9a151;}.cls-5{fill:#002b40;}.cls-6{fill:#de884e;}.cls-7{fill:#f7d752;}.cls-8{fill:#daca51;}.cls-9{fill:#f8a04f;}.cls-10{fill:#f2e755;}.cls-11{fill:#fcb242;}.cls-12{fill:#eda240;}.cls-13{fill:#b17a50;}.cls-14{fill:#ba8350;}.cls-15{fill:#a9774b;}.cls-16{fill:#eaeaea;}.cls-17{fill:#85a3b2;}.cls-18{fill:#fff;}.cls-19{fill:#d7be95;}.cls-20{fill:#e5c998;}.cls-21{fill:#eccbb7;}.cls-22{fill:#faf1eb;}.cls-23{fill:#ca3134;}.cls-24{fill:#c6ae8c;}.cls-25{fill:#c4a597;}.cls-26{fill:#503027;}.cls-27{fill:#ea8d23;}.cls-28{fill:#f0e910;}.cls-29{fill:#ebdfd7;}.cls-30{fill:#eadece;}.cls-31{fill:#fff2e3;}.cls-32{fill:#fbb042;}.cls-33{fill:#f5ba60;}.cls-34{fill:#e5904b;}.cls-35{fill:#ea4740;}.cls-36{fill:#bc5f4f;}.cls-37{fill:#af5046;}.cls-38{fill:#cc6658;}.cls-39{fill:#dd6d62;}</style></defs><title>hanuman</title><path class="cls-1" d="M231.66,561.16c-1.1,2.1-8,14.74-21.27,17-12.24,2.11-22-5.91-27.18-10.19-10.47-8.62-16.08-20.85-23.22-36.4-1.05-2.29-1.88-4.21-2.42-5.5-3.08-6.91-12.19-24.69-31-31.12-3.68-1.26-19.31-6.61-26,1.1-3.33,3.84-4.21,10.67-1.41,15.24,4.43,7.26,15,3.62,26,9,10.52,5.11,11.85,13.76,20.75,28.79,8.25,13.94,25.74,43.48,49.58,46.63,15,2,35.72-6.09,35.73-6.1Z" transform="translate(-97.31 -236.21)"/><path class="cls-2" d="M231.39,560.46c-1.1,2.1-8,23.74-21.27,26-12.24,2.11-22-3.91-27.18-8.19-10.46-8.62-24.08-26.85-31.22-42.4-1.05-2.29-5.88-10.21-6.42-11.5-3.08-6.91-39.26-31.73-45.94-24-3.33,3.84-2.21,6.67.59,11.24,4.43,7.26,14,3.62,25,9,10.52,5.11,11.85,12.76,20.75,27.79,8.25,13.94,25.74,43.48,49.58,46.63,15,2,35.72-6.09,35.73-6.1Z" transform="translate(-97.31 -236.21)"/><path class="cls-1" d="M267,642.63a82.49,82.49,0,0,1-37.41-8.95,112.33,112.33,0,0,1-4.93,37.69c-0.93-.18-16.33-2.9-22.9,6.12-0.58.79-4,5.68-2.24,9.73s7.54,4.68,12.15,5.59c10.43,2.08,27.27,3.61,49.83-2q1.29-11.81,2.65-23.72,1.4-12.28,2.86-24.45" transform="translate(-97.31 -236.21)"/><path class="cls-3" d="M267.43,642.88c-4.1,0-13.72-40.17-9.06,3.66,6.24,58.58-50.89,45.61-46.28,46.52,10.43,2.08,27.27,3.61,49.83-2q1.29-11.81,2.65-23.72,1.4-12.28,2.86-24.45" transform="translate(-97.31 -236.21)"/><path class="cls-4" d="M265.62,654.74l-0.5,4.5a4.88,4.88,0,0,1-.27,1.89c-1.91,5.28-13.28,5.82-19.59,5.23s-16.76-3.17-17.33-7.94a4,4,0,0,1,.35-2.1l0.7-5.55c-8,4-8.84,7.63-8.91,9.14-0.32,7.21,14.15,14.71,26.87,14.83,9.89,0.09,23-4.24,23.72-11.16,0.14-1.38,0-4.57-5.05-8.84" transform="translate(-97.31 -236.21)"/><path class="cls-1" d="M361.29,642.63a82.49,82.49,0,0,0,37.41-8.95,112.38,112.38,0,0,0,4.93,37.69c0.93-.18,16.33-2.9,22.9,6.12,0.58,0.79,4,5.68,2.24,9.73s-7.55,4.68-12.15,5.59c-10.43,2.08-27.27,3.61-49.83-2q-1.29-11.81-2.65-23.72-1.4-12.28-2.86-24.45" transform="translate(-97.31 -236.21)"/><path class="cls-3" d="M361.29,642.88c4.1,0,13.72-40.17,9.06,3.66-6.24,58.58,50.89,45.61,46.28,46.52-10.43,2.08-27.27,3.61-49.83-2q-1.29-11.81-2.65-23.72-1.4-12.28-2.86-24.45" transform="translate(-97.31 -236.21)"/><path class="cls-4" d="M357.65,663.58c0.7,6.92,13.82,11.25,23.72,11.16,12.72-.12,27.19-7.62,26.87-14.83-0.07-1.52-.88-5.11-8.91-9.14l0.7,5.55a4,4,0,0,1,.35,2.11c-0.58,4.77-11,7.34-17.33,7.93s-17.68.05-19.59-5.23a4.88,4.88,0,0,1-.27-1.9l-0.5-4.5c-5,4.28-5.19,7.46-5.05,8.84" transform="translate(-97.31 -236.21)"/><path class="cls-5" d="M400.43,566.7c-18.78,3.17-35.67,7.87-54.44,11l-46.84-1.17-68.94-10.39s-31.21,33.14-23,63.56,46.8,27.16,58.5,26.62c3.87-.18,11.25.57,20.17-2.45a51.18,51.18,0,0,0,15.54-8.57l19.18-1.94a16.69,16.69,0,0,1,8.35,1.29,17.48,17.48,0,0,1,6.8,5.3,100.81,100.81,0,0,0,26.66,6.12c11,1,36.84,3.31,49.14-9.8,14.5-15.45,11.56-51.42-11.14-79.58" transform="translate(-97.31 -236.21)"/><path class="cls-6" d="M346.58,579.7a169.36,169.36,0,0,0,2.27,43.09A166.73,166.73,0,0,0,359.37,658a134.29,134.29,0,0,1-93.56-2.57,181.91,181.91,0,0,0,12.55-33,185.54,185.54,0,0,0,6.44-43.21Z" transform="translate(-97.31 -236.21)"/><path class="cls-4" d="M343.93,579.41A154.63,154.63,0,0,0,346,618.77c2.39,13.06,6.12,28.69,9.61,36.93a122.62,122.62,0,0,1-85.44-2.35c4-8,8.17-22.88,11.46-35a169.43,169.43,0,0,0,5.88-39.46Z" transform="translate(-97.31 -236.21)"/><path class="cls-7" d="M293.36,581.63a284,284,0,0,1-3.59,31.68A281.7,281.7,0,0,1,282.44,645a93.36,93.36,0,0,0,60.06,0l-3.9-31.74q-0.49-16-1-32l-44.27.36" transform="translate(-97.31 -236.21)"/><path class="cls-8" d="M340,569c0.28,17.81-9.27,32.21-25.47,31.51-15.66-.68-24.74-15.26-24-32.45,6.06,0.72,8,1.17,13,1.45,1.75,0.1,6,.31,11.49.39,6.87,0.09,12-.08,16.61-0.24,3.33-.12,7.71-0.31,12.87-0.65" transform="translate(-97.31 -236.21)"/><path class="cls-6" d="M232,568s-23.59,40.09-32.23,42.4c0,0,26.62,34.63,60.56,22.79,0,0,20.48-51.39,18.58-55.05,0,0-36.32-2.56-46.91-10.13" transform="translate(-97.31 -236.21)"/><path class="cls-9" d="M234.21,569s-21.57,38.59-29.47,40.69c0,0,24.34,29.73,55.37,18.91,0,0,18.72-47,17-50.34,0,0-33.2-2.34-42.89-9.26" transform="translate(-97.31 -236.21)"/><path class="cls-10" d="M236.07,570.5A154.78,154.78,0,0,1,224.59,594a143.91,143.91,0,0,1-11,15.92A77.35,77.35,0,0,0,227,618.18,69.78,69.78,0,0,0,254.09,625c2.05-4.39,4.08-9.07,6-14.06a248.42,248.42,0,0,0,10.43-33.58c-3.7-.4-6.83-0.82-9.2-1.16-3.25-.47-5.86-0.84-9.41-1.55-4.11-.81-7.2-1.62-8.27-1.9-2.93-.78-5.49-1.56-7.6-2.26" transform="translate(-97.31 -236.21)"/><path class="cls-8" d="M234.59,574.16s33.63,11.69,34.61,8.65l3.12-9.72L238,563.33Z" transform="translate(-97.31 -236.21)"/><path class="cls-6" d="M396.32,566.52s23.59,40.09,32.23,42.4c0,0-26.62,34.63-60.56,22.79,0,0-20.48-51.39-18.58-55.05,0,0,36.32-2.57,46.91-10.13" transform="translate(-97.31 -236.21)"/><path class="cls-9" d="M395.69,569.51s21.57,38.59,29.47,40.69c0,0-24.34,29.73-55.37,18.91,0,0-18.72-47-17-50.34,0,0,33.2-2.34,42.89-9.26" transform="translate(-97.31 -236.21)"/><path class="cls-10" d="M392.25,569a154.66,154.66,0,0,0,11.48,23.54,143.93,143.93,0,0,0,11,15.93,77.28,77.28,0,0,1-13.43,8.22,69.77,69.77,0,0,1-27.12,6.82c-2.05-4.39-4.08-9.07-6-14.06a248.45,248.45,0,0,1-10.43-33.58c3.7-.4,6.83-0.82,9.2-1.16,3.26-.47,5.86-0.84,9.41-1.55,4.11-.81,7.2-1.62,8.27-1.9,2.93-.78,5.49-1.56,7.6-2.26" transform="translate(-97.31 -236.21)"/><path class="cls-8" d="M394.44,574.52s-34,11.88-35,8.83l-3.12-9.72L391,563.69Z" transform="translate(-97.31 -236.21)"/><g id="Layer_2" data-name="Layer 2"><path class="cls-1" d="M220.69,503c-2.71,9.93-71.58,60-63.14,88.25,9.54,31.92,14.92,45.05,23.24,50.53s17.27,11.19,27.72,7c3.4-1.35,4.14-2.55,7.1-4.94s13.94-9,11.51-21.38,1.12-12.47-9.78-19.61-16.58-1.62-17.4-1.69l-11.64-17.6s42.41-27,39.17-31.54Z" transform="translate(-97.31 -236.21)"/><path class="cls-3" d="M230.73,544c-2.44,11.43-39.8,23.22-46.73,39.17-1.83,4.21,3.32,8.86,6.59,14.08,1,1.66,4.75,7,8.25,9.4,11.57,8,30.72,14.4,27.32,5.85-3.27-8.24-3.39-6-8.78-9.61-10.82-7.26-16.58-1.62-17.4-1.69l-11.64-17.6s42.41-27,39.17-31.54Z" transform="translate(-97.31 -236.21)"/><path class="cls-4" d="M158,592.09c-0.93-1.68-1.19-2.33-.66-5.2,1.32-7.06,11.9-11.67,20.36-9.58a19.09,19.09,0,0,1,10,6.64l2.89,2.93a8.74,8.74,0,0,0,1.68-5.28c-0.13-3.86-3.14-6.4-4.53-7.58-4.93-4.17-11-4.12-14.56-4.08-3.24,0-8.7.08-14.07,3.65-2.44,1.63-9.59,6.39-8.77,13.54,0.56,4.93,3.85,9.25,9.37,11.22Z" transform="translate(-97.31 -236.21)"/><path class="cls-1" d="M414.56,503c2.71,9.93,71.58,60,63.14,88.25-9.54,31.92-15.61,45.37-23.24,50.53s-17.27,11.19-27.72,7c-3.4-1.35-4.14-2.55-7.1-4.94s-13.94-9-11.51-21.38S407,610,417.92,602.86s16.58-1.62,17.4-1.69L447,583.56s-42.41-27-39.17-31.54Z" transform="translate(-97.31 -236.21)"/><path class="cls-3" d="M404.33,544c2.44,11.43,39.8,23.22,46.73,39.17,1.83,4.21-3.32,8.86-6.59,14.08-1.16,1.86-4.43,6.53-8.54,9.28-11.71,7.82-30.31,14.21-27,6s3.39-6,8.78-9.61c10.82-7.26,16.58-1.62,17.4-1.69l11.64-17.6s-43-28-39.78-32.56l-1.23-1.58Z" transform="translate(-97.31 -236.21)"/><path class="cls-4" d="M477.26,592.09c0.93-1.68,1.19-2.33.66-5.2-1.32-7.06-11.9-11.67-20.36-9.58a19.1,19.1,0,0,0-10,6.64l-2.88,2.93a8.74,8.74,0,0,1-1.68-5.28c0.13-3.86,3.14-6.4,4.53-7.58,4.93-4.17,11-4.12,14.56-4.08,3.23,0,8.7.08,14.07,3.65,2.44,1.63,9.59,6.39,8.77,13.54-0.56,4.93-3.85,9.25-9.37,11.22Z" transform="translate(-97.31 -236.21)"/></g><path class="cls-11" d="M403.47,432s37.88-42.35,45.28-42.75c0,0-36.13,85.5-34,105.26l14.51-14.83c-2.58,15.95-5.41,28.07-7.53,36.53-3.58,15.77-5.71,22.67-11.48,33.46-5,3.13-8.88,6.44-12.24,7.75,0,0-4.16-96,5.42-125.42" transform="translate(-97.31 -236.21)"/><path class="cls-12" d="M422.82,411.27S399.11,507.35,396.92,522,402,433.19,402,433.19Z" transform="translate(-97.31 -236.21)"/><path class="cls-11" d="M226.49,431.62s-37.88-42.35-45.28-42.75c0,0,36.13,85.5,34,105.26L200.66,479.3c2.58,15.95,5.41,28.07,7.53,36.53,3.58,15.77,5.71,22.67,11.48,33.46,5,3.13,8.88,6.44,12.24,7.75,0,0,4.16-96-5.42-125.42" transform="translate(-97.31 -236.21)"/><path class="cls-12" d="M210.3,414.19S234,510.27,236.21,525s-5.11-88.86-5.11-88.86Z" transform="translate(-97.31 -236.21)"/><path class="cls-1" d="M226.49,431.62s102.11,29.44,179.37,0c0,0-9.94,101.23-6.33,125.42a301.61,301.61,0,0,1-167.62,0s3.61-103.24-5.42-125.42" transform="translate(-97.31 -236.21)"/><path class="cls-13" d="M316.79,447.74c-25-.27-28.41,14.78-21.85,37l0.72,6s3,5.38,17.27,6.45c1.31,0.1,2.59.14,3.85,0.14s2.54,0,3.85-.14c14.3-1.07,17.27-6.45,17.27-6.45l1.11-5.86c4-18.54,2.75-37.44-22.23-37.17" transform="translate(-97.31 -236.21)"/><path class="cls-14" d="M316.75,444.51c-25-.27-55.26-3.62-90.27-12.89l2.37,9.5s4.2,18.55,24.21,21.06a29.69,29.69,0,0,0,9.91-.3c4.34-1.12,25.37-2.6,31.94,19.62l0.72,6s3,5.38,17.27,6.45c1.31,0.1,2.59.14,3.85,0.14s2.54,0,3.85-.14c14.3-1.07,17.27-6.45,17.27-6.45l1.11-5.86c4-18.54,24.46-20.15,31-18.81,3,0.62,9.91.32,9.91,0.32,22.41-4.52,24.94-20.9,24.94-20.9l1-10.67c-35.28,12.91-64.12,12.62-89.1,12.89" transform="translate(-97.31 -236.21)"/><path class="cls-15" d="M316.75,444.81c-25-.27-55.26-3.62-90.27-12.89l1.12,4.51L285,448.18c48.9,8.87,120.26-11.69,120.26-11.69l0.59-4.56c-35.28,12.91-64.12,12.62-89.1,12.89" transform="translate(-97.31 -236.21)"/><path class="cls-16" d="M241,480.83A28.3,28.3,0,0,0,253.18,510c11.5,7.5,24.48,4,25.15,3.84A28.91,28.91,0,0,0,297,497.29,30.47,30.47,0,0,0,289.22,483c-9.71-10.09-23.33-10.51-25.92-10.55A28.75,28.75,0,0,0,241,480.83" transform="translate(-97.31 -236.21)"/><path class="cls-17" d="M285,489.34c0,10-6.59,18-14.72,18s-14.72-8.07-14.72-18,6.59-18,14.72-18,14.72,8.07,14.72,18" transform="translate(-97.31 -236.21)"/><path class="cls-18" d="M266.59,482.13a4.63,4.63,0,1,1-4.63-4.51,4.57,4.57,0,0,1,4.63,4.51" transform="translate(-97.31 -236.21)"/><path d="M279.31,491.62c0,6.21-3.3,11.25-7.37,11.25s-7.37-5-7.37-11.25,3.3-11.25,7.37-11.25,7.37,5,7.37,11.25" transform="translate(-97.31 -236.21)"/><path class="cls-19" d="M228.62,439.37a65.26,65.26,0,0,0-.57,11.31c0.21,5.73.44,11.79,3.7,18.45a36.3,36.3,0,0,0,9.25,11.7,37.66,37.66,0,0,1,15.46-6.76c2.12-.4,17.74-3.07,30,7a31.38,31.38,0,0,1,10.56,16.64c0.67-.89,8.5-11.59,3.53-22.94-4.21-9.61-14.59-12.86-17-13.62-6.28-2-12.51-1.57-18.9-1.17-6,.38-7.41,1.12-10,1.17-5.94.11-14.66-3.58-26.06-21.73" transform="translate(-97.31 -236.21)"/><path class="cls-3" d="M241,480.83c-2.45,20.92,11.7,28.8,11.7,28.8l-2.37-.5c-5.76-2.48-10.74-15.28-10.74-15.28-3,.85-7.14-2.23-7.14-2.23a46.81,46.81,0,0,0,8.14,18.26,73.67,73.67,0,0,0,7.77,8.43c0.46,3.85,1.51,7.51.36,13.62-0.9,4.78-1.5,9.57-2.9,12.64,0.75,0.49,1.26,2.2,6.67,1.34a14,14,0,0,0,9-5.38,12.67,12.67,0,0,1,1.05,9.71,13.94,13.94,0,0,1-6.85,8l-23.5-4c0.16-20.87.1-41.71,0.26-62.58l-0.69-22.5a35.63,35.63,0,0,0,9.25,11.7" transform="translate(-97.31 -236.21)"/><path class="cls-20" d="M232.4,494.45a45.83,45.83,0,0,0,7.91,18.28,47.53,47.53,0,0,0,6,6.81,50.24,50.24,0,0,1-.52,15.23,51.22,51.22,0,0,1-3.77,11.83,14.74,14.74,0,0,0,10.16,2.15,14,14,0,0,0,9-5.38,12.67,12.67,0,0,1,1.05,9.71,13.94,13.94,0,0,1-6.85,8l-23.5-4q0.25-31.3.49-62.6" transform="translate(-97.31 -236.21)"/><path class="cls-21" d="M279.54,535.49c9.3,11.45,19,14.22,22.81,15,5.08,1.07,10.85,1,16.12,1s10.22-.06,14.69-1c3.75-.8,13.37-3.56,22.57-15.33L345,530.92a109.25,109.25,0,0,1-53.66.24,20.93,20.93,0,0,1-3.87,2.33,22.27,22.27,0,0,1-7.91,2" transform="translate(-97.31 -236.21)"/><path class="cls-22" d="M294.21,531.77l3.84,7,2.19-2.06s12.54,3.79,35.19-.32l2.44,2.38,3.6-7.15a134.34,134.34,0,0,1-13.9,1.77,135.9,135.9,0,0,1-33.36-1.66" transform="translate(-97.31 -236.21)"/><path class="cls-23" d="M298.3,549.1a54.73,54.73,0,0,1,38.91.26,79.2,79.2,0,0,1-11.48,2.14,64.35,64.35,0,0,1-19.49-.36,57,57,0,0,1-7.94-2" transform="translate(-97.31 -236.21)"/><path class="cls-3" d="M392.06,478.88c2.45,20.92-11.7,30.42-11.7,30.42l2.37-.5c5.76-2.48,10.74-15.28,10.74-15.28,3,0.85,7.14-2.23,7.14-2.23a46.81,46.81,0,0,1-8.14,18.26c-2,2.73-5.81,8.21-7.77,10-0.46,3.85-1.51,5.9-.36,12,0.9,4.78,2.37,12.8,3.77,15.86-0.75.49-2.13,2.2-7.55,1.34-5.61-.88-8.51-5.52-9-6.18-0.48.87-2.55,2.41-1.05,7.29a13.94,13.94,0,0,0,6.85,8c7.83-1.34,13.93-.27,21.76-1.61-0.16-20.87,1.95-44.26,1.78-65.12l1.84-22.65s-4.57,8.73-10.7,13.58" transform="translate(-97.31 -236.21)"/><path class="cls-20" d="M401.3,495.73a49.65,49.65,0,0,1-8.43,18.33,51.6,51.6,0,0,1-6,6.82,50.25,50.25,0,0,0,.52,15.23,51.13,51.13,0,0,0,3.77,11.83A14.73,14.73,0,0,1,381,550.1a14,14,0,0,1-9-5.38,14.17,14.17,0,0,0-1.05,9.71,15.43,15.43,0,0,0,6.61,8.89l22.07-1.6,1.7-66" transform="translate(-97.31 -236.21)"/><path class="cls-16" d="M392.26,481.78c0.09,1,1.44,18.91-13.32,28.54-1.88,1.23-12.21,8-24.86,4.3-12.89-3.74-17.31-15.13-17.77-16.38A30.48,30.48,0,0,1,344,484c9.71-10.09,23.33-10.51,25.92-10.55a28.74,28.74,0,0,1,22.29,8.36" transform="translate(-97.31 -236.21)"/><path class="cls-17" d="M348.26,490.28c0,10,6.59,18,14.72,18s14.72-8.07,14.72-18-6.59-18-14.72-18-14.72,8.07-14.72,18" transform="translate(-97.31 -236.21)"/><path class="cls-18" d="M366.67,483.08a4.63,4.63,0,1,0,4.63-4.51,4.57,4.57,0,0,0-4.63,4.51" transform="translate(-97.31 -236.21)"/><path d="M354,492.56c0,6.21,3.3,11.25,7.37,11.25s7.37-5,7.37-11.25-3.3-11.25-7.37-11.25-7.37,5-7.37,11.25" transform="translate(-97.31 -236.21)"/><path class="cls-19" d="M405,439.6a66.09,66.09,0,0,1-.07,17.49c-0.89,6.43-1.78,12.28-6.18,18.22a31.5,31.5,0,0,1-6.5,6.47A37.67,37.67,0,0,0,376.81,475c-2.12-.4-17.74-3.07-30,7a31.38,31.38,0,0,0-10.56,16.64c-0.67-.89-8.5-11.59-3.53-22.94,4.21-9.61,14.59-12.86,17-13.62,6.28-2,12.51-1.57,18.9-1.17,5.94,0.38,7.46,1.11,10,1.17,6,0.13,14.81-3.66,26.43-22.45" transform="translate(-97.31 -236.21)"/><path class="cls-24" d="M228.62,439.37c5.74,27,7.93,33.94,13.87,33.83,2.56,0,5.21-3.5,11.17-3.88,6.39-.4,5.23-0.77,12.48-0.16,2.56,0.22,13.17.16,22.25,7.17,0,0,7.44,6.45,8.56,10s3.8-11.23,3.8-11.23,3.7,7.38-.54,16.9a32.87,32.87,0,0,1-3.16,5.64A31.37,31.37,0,0,0,286.49,481c-12.3-10-27.92-7.35-30-7A37.66,37.66,0,0,0,241,480.83a36.3,36.3,0,0,1-9.25-11.7c-3.26-6.66-3.49-12.72-3.7-18.45a65.26,65.26,0,0,1,.57-11.31" transform="translate(-97.31 -236.21)"/><path class="cls-24" d="M404.67,440.32c-5.74,27-7.93,33.94-13.87,33.83-2.56,0-5.21-3.5-11.17-3.88-6.39-.4-5.23-0.77-12.48-0.16-2.56.22-13.17,0.16-22.25,7.17,0,0-7.45,6.45-8.56,10s-3.8-11.23-3.8-11.23-3.7,7.38.54,16.9a32.86,32.86,0,0,0,3.16,5.64A31.37,31.37,0,0,1,346.79,482c12.3-10,27.92-7.35,30-7a37.67,37.67,0,0,1,15.46,6.76,36.32,36.32,0,0,0,9.25-11.7c3.26-6.66,3.49-12.72,3.7-18.45a65.25,65.25,0,0,0-.57-11.31" transform="translate(-97.31 -236.21)"/><path class="cls-25" d="M349.33,531.57a18.62,18.62,0,0,1-4.73-3.25,105.64,105.64,0,0,1-53.46.32,24.61,24.61,0,0,1-3.65,1.95c-2.42,1-6,2.57-10,2a14.31,14.31,0,0,1-8.92-5.44,20.23,20.23,0,0,0,5.44,6c2,1.47,3.67,2.71,6.09,2.82,2.12,0.1,3.74-.77,6.77-2.19a27,27,0,0,0,4.47-2.64,123.91,123.91,0,0,0,53.66-.24c5.69,3.85,7.31,4.58,7.54,4.33a3.71,3.71,0,0,0-.25-1.08,3.81,3.81,0,0,1-2.92-2.6" transform="translate(-97.31 -236.21)"/><path class="cls-25" d="M358.77,532.67a12.55,12.55,0,0,1-7.84-.5c-3.79-1.38-6.11-4-6.33-3.84s2.37,2.63,2,3q-0.24.25-1.61-.44c1.69,1.27,3.46,2.53,5.35,3.81a6.9,6.9,0,0,0,3.78,1.48,5.94,5.94,0,0,0,1.4-.14,8.39,8.39,0,0,0,3.71-1.89c2.79-2.31,5.22-5.38,5-5.55s-1.82,2.9-5.44,4" transform="translate(-97.31 -236.21)"/><path class="cls-26" d="M231,555h0s44.33,12.33,85.28,13.33c19.53,0.48,48.42-1.36,83.63-13.33a13.52,13.52,0,0,1,2.36,7.64,14.21,14.21,0,0,1-1.32,5.25c-5.94,12.3-44.53,16.25-44.53,16.25-18,1.84-27,2.76-40.85,2.49a275,275,0,0,1-51.28-6,286.59,286.59,0,0,1-30.78-8.33c-4.3-3.48-6.33-8.73-5.19-13A9.12,9.12,0,0,1,231,555" transform="translate(-97.31 -236.21)"/><path class="cls-27" d="M350.27,566.74c0.31,18.49-15.19,33.43-33,32.7-17.21-.71-31.19-15.84-30.33-33.68,6.66,0.74,12.79,1.21,18.3,1.5,1.92,0.1,6.58.33,12.63,0.41,7.55,0.1,13.24-.08,18.25-0.25,3.66-.12,8.47-0.32,14.14-0.67" transform="translate(-97.31 -236.21)"/><path class="cls-28" d="M328.91,579.77c-1,5.29-6.41,8.72-12.11,7.65s-9.52-6.22-8.53-11.52,6.41-8.72,12.12-7.66,9.52,6.22,8.53,11.52" transform="translate(-97.31 -236.21)"/><path class="cls-1" d="M218,407.32A236.68,236.68,0,0,0,282,427c60.27,9.41,109.3-7.1,133.22-17.15,0.71-3,.39-13-2.68-24.1-2.37-8.58-10.06-12.27-12.93-14.05a13.58,13.58,0,0,0,2.27-5.45c1.36-8-5.49-14.23-6.21-14.86a19.51,19.51,0,0,0,1.15-7.82C395.91,329,378.07,321.26,377,320.82c0,0,15.44-24.18-30-42.79,0,0-3.86-.93-1.36-7.13s-7.82-20.15-32.22-17.36S284,236.8,284,236.8s-0.94,18,12.2,23.87-10,3.41-14.39,7.44a18.68,18.68,0,0,0-5.32,9.61s-49.74,9.92-47.24,43.4c-1.24,2.15-13.92,24.79-3.39,41.19a26.19,26.19,0,0,0,6.05,6.55c-2.81,1.31-10.75,3.48-12.39,10.8-3.25,14.47-2.2,26.08-1.53,27.65" transform="translate(-97.31 -236.21)"/><path class="cls-29" d="M285.83,267.59s-0.48-3.66,2.35-3.77,41.56,9,52.08,6.93c0,0,7.42,2.55,2.07,4.76s-46.65-1.76-56.5-7.91" transform="translate(-97.31 -236.21)"/><path class="cls-30" d="M415,398.78a40.05,40.05,0,0,0-14.33-22.57c-13.48-10.35-29.36-8.21-30.89-7.67a0.56,0.56,0,0,0-.23,0s12.5-2.51,19.33-10.9c1.89-2.33,6-7.35,5.1-13-0.41-2.58-1.92-5.71-.88-6.45,0.49-.35,1.36,0,2.05.35,0,0,12,9.18,4.24,22a31,31,0,0,1,7.52,5.9c11,11.9,8.65,28.79,8.09,32.25" transform="translate(-97.31 -236.21)"/><path class="cls-30" d="M243.82,361.32s-10-12.15-11.89-35.34c-0.17-2.18,2.26-2.37,2.38-4.71l-5.06-.14L225,330.4l-3.51,11.65s-1.4,9.87,2.23,16.12c5.3,9.13-11.4,23.19-5.94,38.12l17,7.21S203.86,377.37,243.82,361.32Z" transform="translate(-97.31 -236.21)"/><path class="cls-30" d="M233.53,366.63a61.66,61.66,0,0,0,13.19,14c5.61,4.33,10.49,6.52,17.83,9.77a184.83,184.83,0,0,0,24.4,8.84,190.29,190.29,0,0,0,38.25,6.51c44.73,3,87.34-9,87.83-7,0.45,1.87-41.56,12.66-50.7,14.52-7.81,1.58-15.43,2.59-15.43,2.59l-0.59.08a220.47,220.47,0,0,1-22.06,1.63,255.33,255.33,0,0,1-38.78-2,262.73,262.73,0,0,1-60.38-15.41c-6.53-6.48-8.57-15.76-5.22-23.2,3.21-7.12,10.1-9.78,11.65-10.34" transform="translate(-97.31 -236.21)"/><path class="cls-30" d="M233.53,366.63c3.09-.14,7.54-0.28,12.9-0.18,15.21,0.26,27.23,2.17,27.27,1.85s-11-.7-23.46-5.81a73.32,73.32,0,0,1-14.9-8.25q-0.12.87-.23,1.74-0.73,5.39-1.57,10.65" transform="translate(-97.31 -236.21)"/><path class="cls-30" d="M243.59,378.85c-1.8-2.29-6.35-8.38-4.57-10.73,0.61-.81,1.71-0.77,4.81-1.06,6.82-.63,10.91-0.94,10.91-1s-21.79-.23-21.82-0.23q0.61,1.05,1.29,2.12a53.06,53.06,0,0,0,9.38,10.93" transform="translate(-97.31 -236.21)"/><path class="cls-30" d="M231.93,326a169.08,169.08,0,0,0,19.87,15.19c4.85,3.16,8.63,5.26,9.93,6a120.86,120.86,0,0,0,31.68,12.32c2.19,0.54,7.49,1.82,20.18,3.72,11,1.65,19.44,2.56,21.59,2.79,21.8,2.32,30.24,1.92,30.27,2.79,0.05,1.46-23.75,4.45-50,4.36a233,233,0,0,1-24.39-1,192.84,192.84,0,0,1-56.26-14.73c-1.12-1-8-7.35-7.93-17.46a23.06,23.06,0,0,1,5-14" transform="translate(-97.31 -236.21)"/><path class="cls-31" d="M290.79,343.38s85.65,14.4,93.54-3c0,0,2.62,30.14-93.54,3" transform="translate(-97.31 -236.21)"/><path class="cls-31" d="M279.92,377.63S378,408,389.54,376.74c0,0,22.77,52.54-109.61.89" transform="translate(-97.31 -236.21)"/><g id="Layer_8" data-name="Layer 8"><path class="cls-30" d="M402,351.6s1.82,10.46-14-6.54c0,0-7.17,11-17.67,0,0,0-3.83-16-11-19.08s-6.67-13.76-9.5-12.42-8.27,4.9-5.57,48.75-18.12,22-19.19,20.29-12.44-17.46-7.51-37.83,0.55-32.3-7-23.64-6.29,32.59-15.41,26.43c0,0-11,3.19-17.91-42.11,0,0-5.12-8.48-6.67,1.73s2.68,56.81-6.18,61.26-16.61-4.3-14.86-23.67-5.68-3.14-5.68,6.71-14.91,25.51-20.37,17,17-42.46,17-42.46l23.87-37.59,19.32-5.1,46.39,3.6,23.88,4.5,16.55,15.79,10.75,20.42,11.88,10.65,8.21,9.31Z" transform="translate(-97.31 -236.21)"/></g><path class="cls-32" d="M217.84,430.18l-7.17-19.63a274,274,0,0,0,63.19,18.14c64.44,10.31,117.69-5,146.52-16L416.25,431a288.12,288.12,0,0,1-49.83,12.87c-62.94,10.36-116.16-2.51-148.58-13.71" transform="translate(-97.31 -236.21)"/><path class="cls-33" d="M210.5,410.55a39.33,39.33,0,0,1,2.45-7.38c2.54-6.51,2.74-5.25,4.44-7.29A249.75,249.75,0,0,0,282,414.61c59.24,8.71,107.54-6.22,132.71-16.21l2,2.32q0.48,1.54,1,3.14t1.09,3l1.48,5.79a256.13,256.13,0,0,1-209.88-2.13" transform="translate(-97.31 -236.21)"/><path class="cls-34" d="M217.8,430.81c-2.39-6.54.85,1.89-1.54-4.65,17.11,7.21,32.7,12.29,57.56,16.27,64.44,10.31,114.45-4.18,143.27-15.14l-0.89,4.37a288.17,288.17,0,0,1-49.83,12.87C303.44,454.87,250.22,442,217.8,430.81" transform="translate(-97.31 -236.21)"/><path class="cls-9" d="M317.68,395.61s-23.6,30.24-27.23,50.87a76.08,76.08,0,0,0,27.23,20.92v-71.8Z" transform="translate(-97.31 -236.21)"/><path class="cls-9" d="M317.68,395.61s23.6,30.24,27.23,50.87a76.1,76.1,0,0,1-27.23,20.92v-71.8Z" transform="translate(-97.31 -236.21)"/><path class="cls-35" d="M322.25,441.17c0,5.53-2,10-4.58,10s-4.58-4.48-4.58-10,2-10,4.58-10,4.58,4.48,4.58,10" transform="translate(-97.31 -236.21)"/><path class="cls-34" d="M317.68,395.61s-23.6,30.24-27.23,50.87a76.07,76.07,0,0,0,27.23,20.92s-21-17.53-21.79-22.21S311.18,408.39,317.68,395.61Z" transform="translate(-97.31 -236.21)"/><g id="Layer_9" data-name="Layer 9"><path class="cls-36" d="M401.78,351.61a1.25,1.25,0,0,0,.22,0h-0.22Z" transform="translate(-97.31 -236.21)"/><path class="cls-36" d="M402,351.59c-0.14-.32-6.34-13.54-13.5-13.49s-7.25,4.91-9.88,3.17-4-19.76-9-22.26-11.32-6.87-15-13.87-11.5,3.63-12.87,10.37-5.37,28.48-1.63,57.62c0,0,.27,13.84-10,8-5.48-6-10.63-19.09-9.3-31.1,2.82-25.44,6.3-39.25-5.33-38.19-5.23,0-10.77,4.17-12.44,12.17-1.6,7.67-6.72,22.23-11.59,17.75l-0.29-.3,0,0-0.29-.35-0.24-.35c-4.49-7.24,0-46.56-13.74-44.51a0.11,0.11,0,0,0-.08,0,4.73,4.73,0,0,0-1.34.32l-0.06,0-0.12,0c-15.68,5.43-9.47,58.69-11.52,63.49-1.74,4-9.21,7.37-10.18-6.65h0c-0.13-3.07,0-6.44.2-9.75,0,0,0-.09,0-0.13,2.18-24.85-2.39-21.38-2.39-21.38-12.36,5.44-20.9,41.86-21.09,42.68a4.41,4.41,0,0,1-2-.31c-10.13-3.9-8.51-24.79,1.19-48,0,0-4.2-21.25,29.8-37.75,0,0,1.42-11.16,13.75-21,5-4,8-11.19,13.06-21.59,0,0,8.9,10.77,18.25,13.76s27.28-3.33,37.61,6.67,5,14.33,5.67,16,40.48,13.37,33.66,46c0,0,21,15.66,22,28.33C403.5,350.17,403,351.46,402,351.59Z" transform="translate(-97.31 -236.21)"/><path class="cls-36" d="M286.06,236.21S295,247,304.31,250s27.27-3.33,37.61,6.67,5,14.33,5.67,16,40.48,13.37,33.67,46c0,0,21,15.66,22,28.33s-10-4.45-14.5-5.5-6.83,6.33-12.67,2-2.87-20.36-12.85-22.93-10.12-16.24-14.72-14.24-10.8,16-7.53,57.67-23,11.56-20.22-13.89,6.3-39.25-5.32-38.19c-16.47,1.51-9.06,28.32-19,31.17-15.75,4.5-6.77-55.42-22.47-45.75s2.3,73.17-15.23,67.9c-11.38-3.42.54-40.73-7.46-39.82s-11.25,43.71-23,39.2c-10.13-3.89-8.5-24.79,1.19-48,0,0-4.2-21.25,29.8-37.75,0,0,1.42-11.17,13.75-21C278,253.84,281,246.61,286.06,236.21Z" transform="translate(-97.31 -236.21)"/><g id="Layer_4" data-name="Layer 4"><path class="cls-37" d="M402,351.6h-0.23c-3-.09-9.76-9.38-13-10.14-4.49-1-6.83,6.33-12.66,2s-2.87-20.36-12.85-22.93-10.13-16.24-14.72-14.24-10.8,16-7.53,57.67c1.73,22-4.8,24-10.92,17.21,10.32,5.79,10-8,10-8-3.74-29.14.26-50.86,1.63-57.62s9.25-17.37,12.87-10.37,9.88,11.37,15,13.87,6.43,20.5,9,22.26,2.63-3.13,9.88-3.17S402,351.6,402,351.6Z" transform="translate(-97.31 -236.21)"/></g><g id="Layer_5" data-name="Layer 5"><path class="cls-37" d="M253.72,343.6c0.56-9.61,1.52-18.66-2.47-18.21-4.87.55-7.73,17.05-12.44,28.5-2.57,6.25-5.29,11.91-9.83,10.92,0.07-.31,3.93-2.07,5.74-9,3-11.5,9-30.24,16.61-33.61C251.33,322.22,255.9,318.75,253.72,343.6Z" transform="translate(-97.31 -236.21)"/><path class="cls-37" d="M275.21,296.65a8.43,8.43,0,0,0-1.26.65c-15.7,9.67,2.3,73.17-15.23,67.91-3.73-1.12-5-5.87-5.21-11.72,1,14,8.44,10.7,10.18,6.65C265.74,355.34,259.53,302.08,275.21,296.65Z" transform="translate(-97.31 -236.21)"/><path class="cls-37" d="M290.55,340.77c-7-9.82-4-45.18-13.74-44.51C290.59,294.21,286.06,333.53,290.55,340.77Z" transform="translate(-97.31 -236.21)"/><path class="cls-37" d="M315.44,311.89c-16.46,1.51-9.06,28.32-19,31.17a4.74,4.74,0,0,1-5-1.25c4.87,4.48,10-10.08,11.59-17.75C304.67,316.06,310.21,311.89,315.44,311.89Z" transform="translate(-97.31 -236.21)"/><path class="cls-37" d="M303.67,321.72s10.2-27.64,22.66-4.79c0,0-5.83,47.63-.83,57.29,0,0-7-10-4.61-30.49,0,0,7.95-32.84-4.47-31.84,0,0-9.1-.1-12.09,11.45Z" transform="translate(-97.31 -236.21)"/></g><g id="Layer_6" data-name="Layer 6"><path class="cls-38" d="M381.25,318.64s24.51,17.2,22,30.91c0,0,.14,2.19-1.24,2s-4.69-10.51-10.23-12.64a7,7,0,0,0-5-.75C384.19,338.89,390,328.22,381.25,318.64Z" transform="translate(-97.31 -236.21)"/><path class="cls-38" d="M274.49,277.72s46.51-6,58.34-4.67-1.1-15.83-19.8-10.83S274.49,277.72,274.49,277.72Z" transform="translate(-97.31 -236.21)"/><path class="cls-38" d="M320.93,348.68s-1.12,24,9.14,30.17,4.1-33.83,6.26-43.73-3.71-26.86-5.46-29.48S322.86,328,320.93,348.68Z" transform="translate(-97.31 -236.21)"/><path class="cls-38" d="M297.64,311.39s-10.93,10-8,20.75,5.18,11.2,9.89,1.73,2.68-13.11,5.88-18.61S310.93,306.2,297.64,311.39Z" transform="translate(-97.31 -236.21)"/><path class="cls-38" d="M254.74,322.05s-2.74,33.67.93,37.17,8.46,5.14,8.48-10.27-1.52-32.73,0-37.31S259.47,301.05,254.74,322.05Z" transform="translate(-97.31 -236.21)"/><path class="cls-38" d="M231.17,317.56s-12.62,26.16-8.56,37.16,8.1,7.84,9.39,3.5,8.5-31.67,15.33-36.17-7.67-13.5.67-22.33,14-15,11.07-16.33S232.33,294.39,231.17,317.56Z" transform="translate(-97.31 -236.21)"/></g><g id="Layer_7" data-name="Layer 7"><path class="cls-39" d="M325.5,359.56s-2,12.48,2.67,13.57,4.64-9.07,1.9-13.57S325.5,359.56,325.5,359.56Z" transform="translate(-97.31 -236.21)"/><path class="cls-39" d="M292.35,322.63s-3.59,10.3-.62,12.16,8.21,1.74,8-6.08S295.65,319.62,292.35,322.63Z" transform="translate(-97.31 -236.21)"/><path class="cls-39" d="M256.5,345.89s-2.75,8.25,0,10.5,7.27-1.25,6.25-5.25S259.17,342.61,256.5,345.89Z" transform="translate(-97.31 -236.21)"/><path class="cls-39" d="M225.87,345.12s-2.11,7.37-.88,11.36,5.55,4.16,6.14-3.37S230,341.44,225.87,345.12Z" transform="translate(-97.31 -236.21)"/><path class="cls-39" d="M332.33,271s-8-1.17-11.83-5.58,8.58-1.08,10.5,1.33,6.25,3.67,4.42,4.25A4.51,4.51,0,0,1,332.33,271Z" transform="translate(-97.31 -236.21)"/></g><path class="cls-39" d="M397,337.52s0.49,9,4.34,10,0.88-5.78.88-5.78S399.83,336.4,399,336,396.8,335.62,397,337.52Z" transform="translate(-97.31 -236.21)"/></g></svg>