<svg xmlns="http://www.w3.org/2000/svg" viewBox="0 0 436.48 439.48"><defs><style>.cls-1{fill:#f4e8d6;}.cls-2{fill:#fcb243;}.cls-3{fill:#f7a051;}.cls-4{fill:#3a8a41;}.cls-5{fill:#efd6b1;}.cls-6{fill:#e8e7e6;}.cls-7{fill:none;stroke:#c9b285;stroke-miterlimit:10;}.cls-8{fill:#c9b285;}.cls-9{fill:#ecccb8;}.cls-10{fill:#ca3134;}.cls-11{fill:#0e0a0a;}.cls-12{fill:#bd5f50;}.cls-13{fill:#f4f7de;}.cls-14{fill:#faf1eb;}.cls-15{fill:#bb877c;}</style></defs><title>hanumanscore-new</title><g id="ลิง"><circle class="cls-1" cx="218.54" cy="219.79" r="205.61"/><g id="หน้า"><g id="ข้างบน"><path class="cls-1" d="M406.7,136.8c-4.88,3.77-11,6-15.26,7.29C190.55,204.9,29.86,138,29.86,138A206.35,206.35,0,0,1,106,47.71c27.58,23.91,69.45,39.17,116.32,39.17,45,0,85.41-14.07,113-36.38A206.09,206.09,0,0,1,406.7,136.8Z"/><path class="cls-2" d="M335.26,50.5c-26.92,22.31-69,36.38-113,36.38-45.77,0-89.38-15.26-116.32-39.17,7.11-4.37,14.68-9.08,22.45-12.78a211.1,211.1,0,0,1,90.12-20.75A202.13,202.13,0,0,1,304.65,33,240.82,240.82,0,0,1,335.26,50.5Z"/><g id="Layer_14" data-name="Layer 14"><path class="cls-3" d="M135.67,31.64s12.53,41.1,15.54,42.51c0,0,27.18,9.87,44.68,11,0,0-22.21-46.7-19.6-66.66C176.29,18.52,148.24,25.42,135.67,31.64Z"/><path class="cls-3" d="M302.59,32.1s-12.13,42.78-15.14,44.19c0,0-25.22,8.61-45.08,9.36,0,0,22.3-47,19.7-67C262.07,18.65,290,25.88,302.59,32.1Z"/></g></g><path id="ขอบบน" class="cls-4" d="M73.9,170.9c21,8,43,8,65,2s41-21,64-24c48-5,94,5,142,14,13,2,25,3,38,0,12.31-3.89,18.32-14.48,24.29-25q-2.48-5.71-5.29-11.25l-1.74,1.3c-.09.07-9.15,6.61-18.75,6.61a18.1,18.1,0,0,1-3.88-.41c-6.3-1.37-18.19-18-24.93-32l-.79-1.65-1.29-1.31c-19-19.26-38.64-23.31-51.82-23.31A65.12,65.12,0,0,0,248.07,100c-13.13,16.51-27.79,17.75-29.53,17.85-1.74-.1-16.4-1.34-29.53-17.85a65.12,65.12,0,0,0-50.63-24.17c-13.18,0-32.87,4-51.82,23.31l-1.29,1.31-.79,1.65c-6.74,14-18.63,30.63-24.93,32a18.1,18.1,0,0,1-3.88.41C46.07,134.56,37,128,37,128l-1.79-1.34q-2.83,5.56-5.32,11.31C42.66,152.84,57.1,163.83,73.9,170.9Z"/><g id="ข้างตา"><path class="cls-2" d="M29.86,138s-2.5,5.5-6.58,17.24c-1.2,3.45-2.54,8.13-3.68,12.47A189.75,189.75,0,0,0,15,190.26c-.39,2.76-.89,6.16-1.09,9s-.53,5.78-.68,8.81a211.87,211.87,0,0,0,.27,27.48s1.71,8,10,2.33,17-14,20.33-25.33c0,0,38,6.29,46.5-2.19Z"/><path class="cls-2" d="M406.71,136.8s2.61,5.47,6.69,17.21c1.2,3.45,2.62,8.14,3.77,12.48a188.37,188.37,0,0,1,4.7,22.59c.39,2.76.94,6.12,1.14,9s.61,5.82.74,8.84c.35,8.19.87,17-.19,28.58,0,0-2.22,6.93-10.55,1.26s-17-14-20.33-25.33c0,0-38,6.29-46.5-2.19Z"/></g><path id="ตรงกลาง" class="cls-5" d="M375.18,144.9c-16-3.5-32.5-38-32.5-38-30.5-31-68.5-22-86,0s-38.14,22-38.14,22-20.64,0-38.14-22-55.5-31-86,0c0,0-16.5,34.5-32.5,38s-31.52-8.1-31.52-8.1S44.9,218.9,132.9,217.4c0,0,36.95-46.5,85.64-46.5s85.64,46.5,85.64,46.5c88,1.5,102.52-80.6,102.52-80.6S391.18,148.4,375.18,144.9Z"/><g id="ตาซ้าย"><path class="cls-4" d="M37.46,158.14S72.4,160.9,84.9,148.4s33-37.24,72-21.87,39,61.87,39,61.87h-22s7.33-46.17-38.67-49.5c0,0-22.67-2-51.33,30.67,0,0-25.5,3.27-42.08-2.7C41.82,166.86,38.52,160.58,37.46,158.14Z"/><circle class="cls-6" cx="135.67" cy="177.17" r="38.83"/><circle cx="136.97" cy="177.01" r="28.93"/></g><g id="ตาขวา"><path class="cls-4" d="M400.34,156.49s-38.19,3.6-50.69-8.9-33-37.24-72-21.87-39,61.87-39,61.87h22s-7.33-46.17,38.67-49.5c0,0,22.67-2,51.33,30.67,0,0,28.25,3.67,44.83-2.3C395.49,166.46,399.28,158.93,400.34,156.49Z"/><circle class="cls-6" cx="298.88" cy="176.37" r="38.83"/><circle cx="297.58" cy="176.21" r="28.93"/></g><g id="จมูก"><path class="cls-1" d="M132.9,217.4s35-46.25,85.64-46.5,85.64,46.5,85.64,46.5-25.84,21.12-66.36,26.54a140,140,0,0,1-58.93-4.59A151,151,0,0,1,150,227.64C144.44,224.69,138.69,221,132.9,217.4Z"/><path d="M166.3,235.05s1.33-15.66,17.83-13.66c0,0,12.77,3,10.32,21.63,0,0-6.94-1.29-13.82-3.18C176.07,238.58,171.11,236.91,166.3,235.05Z"/><path d="M270.69,235.56S269.5,220,253,222c0,0-12.73,2.54-10.29,21.21,0,0,7.45-1.59,11.32-2.47A149.59,149.59,0,0,0,270.69,235.56Z"/></g><g id="หนวด"><path class="cls-7" d="M34.52,311.59S11.9,276.4,47.9,246.9s51,12,46.5,22-16,24-30,14.5.5-19,6.5-17.5"/><path class="cls-7" d="M400.34,315.89s19.45-36.55,0-55.77S361.9,229.9,344.9,251.4s13,38.5,23,34.5,16-16-1-21"/></g><g id="ปาก"><path class="cls-4" d="M79.22,297.68s25.56-7.33,36.78-62c0,0,88.44,39.67,209.83,0,0,0-4.11,47.17,30.89,62,0,0-49.5,45.33-43.5,97.33,0,0-78,68.67-191.33,0C121.89,395,138.22,353.35,79.22,297.68Z"/><path class="cls-8" d="M90.4,299.9s26.92-9.71,26.28-46.5c0,0-13.89-19.88,0-32.19,0,0,9.28-7.93,16.22-3.81,6.34,3.76,69.76,51.51,148.76,13.48a180.74,180.74,0,0,0,22.52-13.48s29.22-1.5,19.72,29,13.64,50.66,21,53.5c0,0-42.94,46.5-40.72,92,0,0-34.78,22.5-85.53,0,0,0-49.25,22.5-85.75-2C132.9,389.9,134.4,338.4,90.4,299.9Z"/><path class="cls-9" d="M110.4,300.9s34-12,31-28.5,11-11.5,11-11.5,77.5,25.58,132.5-.71c0,0,13.5-1.79,10,13.21s31.61,27.5,31.61,27.5-34.58,46.67-28.93,82.67c0,0-77.68-43.33-157,0C140.57,383.56,143.57,337.56,110.4,300.9Z"/><path class="cls-10" d="M202.9,324.9c40.21,3.57,87.59.74,122.2-22,.9-1.29,1.41-2,1.41-2s-35.11-12.5-31.61-27.5-10-13.21-10-13.21c-55,26.29-132.5.71-132.5.71s-14-5-11,11.5-31,28.5-31,28.5l.47.53a246.22,246.22,0,0,0,26,13.47C157.9,323.9,180.9,322.9,202.9,324.9Z"/><path class="cls-11" d="M201.4,324.84s7.79-11.28,17.71-11.15,19.63,12.39,19.63,12.39-3,.2-7.08.11C222.88,326,208,326.91,201.4,324.84Z"/><g id="Layer_10" data-name="Layer 10"><path class="cls-9" d="M325.1,302.89c-34.61,22.75-82,25.59-122.2,22-22-2-45-1-66-10a246.22,246.22,0,0,1-26-13.47c32.67,36.58,29.7,82.14,29.7,82.14,79.33-43.33,157,0,157,0C292.62,352,318.66,312.14,325.1,302.89Z"/><path class="cls-12" d="M124.68,309.05s40.22,27.22,46.72,36.59,9.25,8.13,13.38,7.38,21.78-3.5,33.77-12.12c0,0,10.61,8.75,32,11.75,0,0,8.5,3.25,17.75-9.37s39.52-31,41-31.68c1.06-.49-46.21,18.08-110.65,13C175.7,322.72,150.39,319.32,124.68,309.05Z"/><g id="เขี้ยว"><path class="cls-13" d="M110.86,301.42l12.94,7.19s29.53-9,32.09-35c0,0,64,30.67,120.67,0,0,0,16.73,34.71,38.78,35l11.17-7.72L294.9,251.4h-155Z"/><path class="cls-13" d="M142.9,380.9s9.17-28.67,74.75-31.33,74.56,31.33,74.56,31.33Z"/><path class="cls-14" d="M267.4,262.65s-.29,23.76,3,30.5c0,0,9.27,1.25,29-18.25l-3.25-17.75h-17Z"/><path class="cls-14" d="M170.76,265.17s.29,23.76-3,30.5c0,0-9.27,1.25-29-18.25L142,259.67h17Z"/><path class="cls-14" d="M139.4,386.06s11.1-25.23,13.85-27.16,16.51,22.84,16.51,22.84Z"/><path class="cls-14" d="M297.24,386.06s-11.1-25.23-13.85-27.16-16.51,22.84-16.51,22.84Z"/></g><path class="cls-15" d="M344.9,299.9c-7.36-2.84-30.5-23-21-53.5s-19.72-29-19.72-29c-8,5.42-15.63,10.27-23.38,13.89C202.15,268,139.21,221.15,132.9,217.4c-6.93-4.12-16.22,3.81-16.22,3.81-13.89,12.31,0,32.19,0,32.19.64,36.79-26.28,46.5-26.28,46.5,44,38.5,42.5,90,42.5,90,36.5,24.5,85.75,2,85.75,2,50.75,22.5,85.53,0,85.53,0C302,346.4,344.9,299.9,344.9,299.9ZM140.57,383.56s3-45.56-29.7-82.14l-.47-.53s34-12,31-28.5,11-11.5,11-11.5,77.5,25.58,132.5-.71c0,0,13.5-1.79,10,13.21s31.61,27.5,31.61,27.5-.52.7-1.41,2c-6.44,9.26-32.47,49.08-27.51,80.68C297.58,383.56,219.9,340.23,140.57,383.56Z"/></g></g></g></g></svg>