<svg id="ICON" xmlns="http://www.w3.org/2000/svg" viewBox="0 0 144 144"><defs><style>.cls-1{fill:#d8e7ec;}</style></defs><title>instagram</title><path class="cls-1" d="M291,398H257.39C242.47,398,230,409.94,230,424.85v33.64c0,14.92,12.47,26.51,27.39,26.51H291c14.91,0,27-11.59,27-26.51V424.85A26.85,26.85,0,0,0,291,398Zm-15.37,72.43a28.57,28.57,0,1,1,28.57-28.57A28.57,28.57,0,0,1,275.66,470.43Zm26.59-50.32a7.27,7.27,0,1,1,7.27-7.26A7.26,7.26,0,0,1,302.25,420.11Z" transform="translate(-202 -370)"/><path class="cls-1" d="M275.66,424.67a17.19,17.19,0,1,0,17.19,17.19A17.18,17.18,0,0,0,275.66,424.67Z" transform="translate(-202 -370)"/><path class="cls-1" d="M316.58,370H231.84C215.52,370,202,383,202,399.31V484a30.16,30.16,0,0,0,29.84,30h84.74c16.31,0,29.42-13.65,29.42-30V399.31A29.24,29.24,0,0,0,316.58,370ZM328,462.49c0,18.45-14.52,33.51-33,33.51H253.4A33.48,33.48,0,0,1,220,462.49V420.86C220,402.4,234.94,387,253.4,387H295c18.46,0,33,15.4,33,33.86v41.63Z" transform="translate(-202 -370)"/></svg>