<svg id="Layer_1" data-name="Layer 1" xmlns="http://www.w3.org/2000/svg" viewBox="0 0 962.55 836.62"><defs><style>.cls-1{fill:#878681;}.cls-2{fill:#aaa69c;}</style></defs><title>left</title><g id="mountain"><path class="cls-1" d="M2864,732.2c-1-1.17-1.57-2-1.67-2.14C2862.54,730.22,2864.37,731.67,2864,732.2Z" transform="translate(-2571.09 -416.12)"/><path class="cls-1" d="M3526.12,1251.65h0l-79.31,1.09-875.72-.54V416.12s24.28,23.87,24.28,31.14,21.31,34.24,25.07,32.17,16.29-18.46,21.3.11l5,18.57v16.6l7.51,21.79V549l11.29,12.45s21.3,20.75,75.19,46.7l12.53,30.09v8.3l59.53,45.15v4.67l8.77,2.59,16.29,7.78s-10.65,11.42,11.28,20.76c11.27,4.8,14.43,5.35,14.85,4.75,4.4,5.19,16.85,17.26,30.9,7.7,17.54-11.93,6.26-2.07,6.26-2.07l6.27-1L2940,747.17s51.39,35.8,52.64,40.47,8.77,10.89,15.67,13.49,16.92,9.86,29.45,0,16.29-13,16.29-13l6.89,1,6.27-1,28.2,15.56,8.14-1,5.64,1,6.89,2.43h4.39l7.52,4.32,8.77,2.59s11.91,5.19,11.91,7.79,5.64,3.63,5.64,3.63l17.41,9.34,7.65,8.3,4.39,4.15s8.15-2.08,16.92,7.78,18.8,17.13,30.08,15.57c0,0,.62,7,11.28,7.26,0,0,30.39,30.88,47.62,25.69,0,0,6.58-4.79,15.35.59s30.08,16.53,37.29,8c5.77-6.86,5.71-7.22,5.45-7.11,0.91-.75,6.42-4.76,12.72,1.4,6.89,6.75,45.43,22.57,50.13,20s5.32-1.25,7.2.28,15,12.17,27.89,5.16,26.31-.71,29.45,2.37,13.47,10.61,14.41,10.61,7.84,4.67,7.84,4.67l9.39,4.41,8.15,1.82,7.83,1.29,1.4,118.29,1.94,163.75v13.6Z" transform="translate(-2571.09 -416.12)"/><path class="cls-2" d="M2585.35,442.76s24.31,52.87,38.43,42.2,13.37,13.15,13.37,13.15l8.35,42.2s5,36.67,25.07,39.43,44.28,27.67,44.28,27.67,22.56-1.38,25.07,33.21,6.68,58.81,6.68,58.81l11.7,18.68s-15-21.11-10-28,0-32.51,0-32.51l38.43,29.75,7.52,9s0.84,2.77,5,8.3,7.52,11.07,7.52,11.07,1.25,3.11,2.92,6.92,5.85,8,7.1,9a34.24,34.24,0,0,1,3.76,4.84l4.18,7.26s11.7,28.36,16.71,31.48c0,0-7.51-17.3-5.85-18s14.2,18.33,33.84,15.91c0,0,3.34,10.37,30.91,4.84a31.85,31.85,0,0,1,12.53,6.23,30.9,30.9,0,0,0,14.62,5.88s5,3.81,5.43,7.61,19.32,43.67,41.57,48.08c0,0-37.29-31.91-30.08-37.88s-5-19.46-7.52-20-10.65-10.64-19.42-6.49c0,0-12.53-9.6-26-7s-20.36-3.63-19.42-4.15-11.91-2.85-12.85-2.08-23.5-13.75-26.63-24.91l-4.08-1.82s-3.45-14.53-2.82-16.34,8,20.32,30,18.24c0,0,6.06-2.25,4.18,2.42s5.95,2.16,7.52,3.72a6.81,6.81,0,0,1,2.2,4.67c0.31,2.08,4.91,7.61,13.05,6.83s20.13,1.23,22.32-16.15l21.33,3.87L2935,757s0.63,20.76,10,25.94l1.25-8.82s15.46,52.23,30.5,51.88c0,0-19.63-29.75-15.46-32.51s17.13,32.17,29.66,31.82,18.38,9.34,25.48-7.61c0,0-.84-4.5,6.27-1.73s29.66-12.45,29.66-12.45,7.94-5,11.07,1.21,23.19,62.26,32,61.23c0,0-13.16-19.72-8.14-22.83s8.14,4.15,8.14,4.15,16.92,49.3,25.69,52.93c0,0,15.66,31.13,20.68,31.13s35.72,27,35.72,27,10.65,9.34,23.81,10.38,26.32,12.46,27.57,14.53,17.54,25.94,18.17,29.06,6.26,15,6.26,15l101.7,39.29,38.77-1.8,132.33,77.36,7.52-168.81v-14s-40.32,3.12-62.87-23.86c0,0-14.41-9.86-32.59,1.56s-25.69-7.27-25.69-7.27-6.89-3.63-10,.52-46.37-21.27-46.37-21.27-2.51-3.63-6.26,0-10,18.16-42-1c0,0-5.64-6.23-25.07,0S3238.91,879,3238.91,879s-8.14-3.11-10.65-5.19-26.95-5.19-33.84-18.16-10.65-3.11-10.65-3.11a81.21,81.21,0,0,0-34.46-25.94s-32.17-25.43-48-16.78l-32.17-13.49s-11.26-9-18.8,2.07-21.3,15.91-31.75,14.53-7.94,4.84-7.94,4.84,0.42,11.76-9.19,3.8-6.27-15.91-10-17c0,0-4.59-10.72-6.26-10.72s-0.84-7.61-.84-7.61-17.13-16.95-22.56-15.92-19.21-22.83-27.57-19l-4.6-4.5-25.48-6.23s-4.6-1.38-3.76,1,0.84,23-24.64,12.63c0,0,.21-10.21-6.9-9,0,0-2.93-11.59-16.08-8,0,0-23-4.32-27.36-29.23,0,0-2.51-7.09-18.18-12.45l-25.48-17.3-30.6-24.82a22.19,22.19,0,0,1-5-18.42c1.88-11.42-.32-11.94-0.32-11.94s-4.07-15-20.68-16.86l-8.15-2.08s-31.64-27.76-45.11-27.5-30.91-59.76-32.79-95c0,0-.34-12.67-13.41-0.5C2612.29,493.6,2590.36,445.27,2585.35,442.76Z" transform="translate(-2571.09 -416.12)"/><path class="cls-2" d="M3174.73,998.42a17.51,17.51,0,0,1-3.95-2,23.55,23.55,0,0,1-8.8-9.82c-1.46-1.58-2.88-3.19-4.23-4.84A111.44,111.44,0,0,1,3135,957.2c-0.45-.47-0.86-1-1.3-1.47A122.64,122.64,0,0,1,3120,945.24c-6,.91-24-22.63-32.31-17.72l-5.63-4.38-28.38-4.05s-5.15-1-3.89,1.52,4.41,24.78-24.6,16.24c0,0-1.33-11.06-8.79-9,0,0-4.91-12.22-18.52-6.91,0,0-25.39-2.26-33.91-28.73,0,0-3.78-7.41-21.46-11.56l-30.07-16L2875.71,841a25.27,25.27,0,0,1-8.21-19.39c0.28-12.54-2.15-12.87-2.15-12.87s-6.68-15.84-24.83-16.06l-9.09-1.39s-38.29-26.69-52.75-25c-6.49.76-16.56-8.42-25.4-25.63-1.91.71-3-1.75-4.94-1.12,4.84,11.65,14.65,29.56,29.46,30.15,22,0.89,51.88,25.27,51.88,25.27s24.07-3.87,32,33.28,16.17,62.88,16.17,62.88l8.44,10.37c-5.07-6.84-10.6-16-8.07-20.65,4.34-8-5-35.16-5-35.16l45.91,28.13,9.46,8.94s1.32,2.9,6.66,8.45,9.78,11.18,9.78,11.18,1.82,3.23,4.2,7.17,7.51,8,9,9a39.61,39.61,0,0,1,4.78,4.85l5.61,7.41s16.91,29.44,22.79,32.28c0,0-10.73-17.91-9-18.84s18.09,18.34,38.85,13.65c0,0,5.18,10.87,34,2,0,0,6.45.51,14.44,5.41a34.59,34.59,0,0,0,16.64,4.82s6,3.59,7,7.66,27.46,45.2,52.07,47.62c0,0-45-30.59-38.15-37.79s-8.36-20.51-11.14-20.81-13.09-10.38-21.9-5c0,0-15-9.06-29.06-4.84s-22.47-1.79-21.54-2.45-13.25-1.83-14.14-.89-27.39-12.4-32.46-24.13l-4.66-1.54s-5.93-15.35-5.53-17.38,11.75,21.13,35,16.58c0,0,6.18-3.07,4.86,2.18s6.74,1.71,8.66,3.23a7.83,7.83,0,0,1,3.07,4.82c0.65,2.21,6.44,7.72,15.09,6s21.85-.79,21.56-19.81l23.55,1.94,10.71,8.06s3.84,22.37,14.75,27v-9.67s24.6,54.85,40.74,52.9c0,0-25.67-30.11-21.6-33.54s23.34,33,36.78,31.3c6.31-.8,11.37,1,15.49,1.07-0.15-1.27-.27-2.55-0.36-3.84Z" transform="translate(-2571.09 -416.12)"/><path class="cls-2" d="M3526.11,1238v13.6l-55.12.76-24.19-12.27-106.51-42.61s-8-11-9.26-13.94-22.22-24.22-23.87-26.08-17-11.27-30.16-10.44-25.59-6.87-25.59-6.87-35.79-22.27-40.74-21.56-26.76-27.78-26.76-27.78c-9.4-2.34-36.19-48.53-36.19-48.53s-4.57-6.72-8.88-3,12.72,21.35,12.72,21.35c-8.43,2.26-39.7-50.14-44.06-55.83s-11.16.36-11.16,0.36-19.11,18.17-26.67,16.45-5.82,2.58-5.82,2.58c-3.52,17.71-11.27,9-23.55,11.09s-32.21-30.5-35.76-27.19,21.9,29.87,21.9,29.87c-14.74,2.46-40.7-46.84-40.7-46.84l0.58,8.87c-10.33-3.79-15.21-24.16-15.21-24.16L2960.77,969l-21.81-.81c1.41,17.43-10.82,17.14-18.68,19s-13.54-2.89-14.27-4.89a7.45,7.45,0,0,0-3.12-4.3c-1.87-1.31-9.07,2.27-8.18-2.6s-4.61-1.8-4.61-1.8c-21.19,5.13-33-15.64-33.28-13.76s6.13,15.71,6.13,15.71l4.39,1.21c5.37,10.56,30.59,21.7,31.35,20.8s13.91-.41,13.09.24,7.25,5.81,20,1.35,27.07,3.25,27.07,3.25c7.79-5.33,17.89,3.5,20.47,3.65s17.39,11.74,11.51,18.63,37.42,33.09,37.42,33.09c-22.83-1.21-49.64-37.84-50.83-41.53s-6.92-6.73-6.92-6.73a32.53,32.53,0,0,1-15.61-3.74c-7.66-4.17-13.63-4.37-13.63-4.37-26,9.33-31.46-.42-31.46-0.42-18.85,5.15-35.11-11.84-36.61-10.92s9.13,16.44,9.44,16.89c-5.58-2.38-22.91-28.66-22.91-28.66l-5.61-6.56a37.72,37.72,0,0,0-4.7-4.25c-1.45-.85-6.42-4.35-8.84-7.87s-4.3-6.4-4.3-6.4-4.44-5-9.69-9.85-6.64-7.48-6.64-7.48l-9.26-7.8-44-23.91s-10.31-10.57-11.71-15.52c-9.57-33.73-31.52-29.19-31.52-29.19s-29-21.14-49.31-21-32.8-35.34-32.8-35.34l-16.9-40.4s-4.07-23.65-15.86-11.08c-7.93,8.44-26.36-11-37.5-24.53v-3c11.75,12.74,30.77,33.92,38.53,23.57,10.37-13.83,13.31-1.4,13.31-1.4,9.1,34.51,38.61,91.2,51.83,89S2724.87,856,2724.87,856l8.45,0.9c16.73-.55,23.84,13.71,23.84,13.71s2.26,0.2,2.76,11.71a23.74,23.74,0,0,0,8.71,17.45L2803.89,920l28.66,13.46c16.54,3.08,20.46,9.72,20.46,9.72,9.44,23.92,33,25,33,25,12.23-5.44,17.49,5.58,17.49,5.58,6.75-2.2,8.64,7.89,8.64,7.89,27.24,6.64,23-13.65,21.69-15.92s3.5-1.54,3.5-1.54l26.38,2.54,5.46,3.79c7.45-4.93,25.94,16.65,31.07,14.87s25.5,12.5,25.5,12.5,0.74,7.62,2.38,7.38,8.38,9.69,8.38,9.69c3.92,0.49,2.26,8.8,13.36,15.29s8.27-5,8.27-5-3.74-5.78,6.83-5.89,23.15-6.82,28.31-18.79,18.1-4.69,18.1-4.69l34.46,8.77c13.87-10.76,50.79,9.77,50.79,9.77a88.73,88.73,0,0,1,39.29,20.71s1.68-10.24,11.13,1.58,34.18,11.44,37.07,13.13,11.57,3.61,11.57,3.61,31.32,31.33,49.19,22.46,24.7-3.52,24.7-3.52c35.43,14.41,38.63-.78,41.59-4.9s6.17-.88,6.17-0.88,47.83,19,50.06,14.44,9.78-1.92,9.78-1.92,11.24,17.35,26.8,3.54c7.16-6.34,25.31-16.33,25.31-10.54,0,9.67-1.24,23-1.24,23C3528.5,1142.2,3526.11,1238,3526.11,1238Z" transform="translate(-2571.09 -416.12)"/></g></svg>