<svg id="ICON" xmlns="http://www.w3.org/2000/svg" viewBox="0 0 144 143"><defs><style>.cls-1{fill:#d8e7ec;}</style></defs><title>line</title><g id="TYPE_A" data-name="TYPE A"><path class="cls-1" d="M457.78,207H366.53C352.2,207,340,218.27,340,232.6v91.25A26.45,26.45,0,0,0,366.33,350h91.25c14.33,0,26.42-11.62,26.42-26V232.8C484,218.47,472.11,207,457.78,207Zm-5,91h0c-10.94,13-35.42,28-41,30.32s-4.75-1.48-4.52-2.79l0.74-4.46a10.69,10.69,0,0,0-.17-4.71c-0.58-1.45-2.9-2.2-4.6-2.57C378.21,310.48,359.66,293,359.66,272c0-23.34,23.4-42.33,52.16-42.33S464,248.65,464,272C464,281.33,460.36,290,452.8,298Z" transform="translate(-340 -207)"/><path class="cls-1" d="M401.22,260.75h-3.66a1,1,0,0,0-1,1v22.73a1,1,0,0,0,1,1h3.66a1,1,0,0,0,1-1V261.76a1,1,0,0,0-1-1" transform="translate(-340 -207)"/><path class="cls-1" d="M426.41,260.75h-3.66a1,1,0,0,0-1,1v13.5L411.32,261.2l-0.08-.1h0l-0.06-.06,0,0-0.05,0,0,0-0.05,0,0,0-0.05,0,0,0-0.06,0h0l-0.06,0h-3.94a1,1,0,0,0-1,1v22.73a1,1,0,0,0,1,1h3.66a1,1,0,0,0,1-1V271l10.43,14.08a1,1,0,0,0,.26.25h0l0.06,0,0,0,0,0,0,0h0l0.07,0h0a1,1,0,0,0,.26,0h3.66a1,1,0,0,0,1-1V261.76a1,1,0,0,0-1-1" transform="translate(-340 -207)"/><path class="cls-1" d="M392.4,279.81h-9.94V261.76a1,1,0,0,0-1-1h-3.66a1,1,0,0,0-1,1v22.73h0a1,1,0,0,0,.28.7v0h0a1,1,0,0,0,.7.28H392.4a1,1,0,0,0,1-1v-3.66a1,1,0,0,0-1-1" transform="translate(-340 -207)"/><path class="cls-1" d="M446.61,266.44a1,1,0,0,0,1-1v-3.66a1,1,0,0,0-1-1H432a1,1,0,0,0-.7.29h0l0,0a1,1,0,0,0-.28.7h0v22.73h0a1,1,0,0,0,.28.7v0h0a1,1,0,0,0,.7.28h14.62a1,1,0,0,0,1-1v-3.66a1,1,0,0,0-1-1h-9.94V276h9.94a1,1,0,0,0,1-1V271.3a1,1,0,0,0-1-1h-9.94v-3.84h9.94Z" transform="translate(-340 -207)"/></g></svg>