<svg id="ICON" xmlns="http://www.w3.org/2000/svg" viewBox="0 0 139.93 142.47"><defs><style>.cls-1{fill:#fff;}</style></defs><title>line</title><path class="cls-1" d="M813.64,321.7c0,16.15-12.87,29.26-28.74,29.26H702.45c-15.88,0-28.74-13.11-28.74-29.26V237.76c0-16.16,12.87-29.27,28.74-29.27H784.9c15.87,0,28.74,13.11,28.74,29.27V321.7Z" transform="translate(-673.7 -208.49)"/><path d="M713.87,293.88h3.72a0.87,0.87,0,0,0,.86-0.88V269.18a0.87,0.87,0,0,0-.86-0.88h-3.72a0.87,0.87,0,0,0-.86.88V293A0.87,0.87,0,0,0,713.87,293.88Z" transform="translate(-673.7 -208.49)"/><path d="M723.39,293.88h3.72A0.87,0.87,0,0,0,728,293V278L739,293.51a0.86,0.86,0,0,0,.22.22l0.17,0.09,0.08,0a0.87,0.87,0,0,0,.23,0h3.58a0.87,0.87,0,0,0,.86-0.88V269.18a0.87,0.87,0,0,0-.86-0.88h-3.72a0.87,0.87,0,0,0-.86.88V284l-11-15.33-0.07-.1-0.06-.06-0.06-.06-0.06,0-0.23-.11-0.16,0h-3.65a0.87,0.87,0,0,0-.86.88V293A0.87,0.87,0,0,0,723.39,293.88Z" transform="translate(-673.7 -208.49)"/><path d="M693.76,293.88h14.86a0.87,0.87,0,0,0,.86-0.88v-3.83a0.87,0.87,0,0,0-.86-0.88H698.34v-19.1a0.87,0.87,0,0,0-.86-0.88h-3.72a0.87,0.87,0,0,0-.86.88V293a0.89,0.89,0,0,0,.24.61A0.86,0.86,0,0,0,693.76,293.88Z" transform="translate(-673.7 -208.49)"/><path d="M748.53,293.65a0.84,0.84,0,0,0,.58.24H764a0.87,0.87,0,0,0,.86-0.88v-3.83a0.87,0.87,0,0,0-.86-0.88H753.69v-4.39H764a0.87,0.87,0,0,0,.86-0.88v-3.83a0.87,0.87,0,0,0-.86-0.88H753.69V273.9H764a0.87,0.87,0,0,0,.86-0.88v-3.83a0.87,0.87,0,0,0-.86-0.88H749.11a0.84,0.84,0,0,0-.6.25,0.91,0.91,0,0,0-.26.63V293a0.89,0.89,0,0,0,.24.61Z" transform="translate(-673.7 -208.49)"/><path d="M783.8,266.54a14.56,14.56,0,0,0,0,29.1,13.72,13.72,0,0,0,4.38-.72l0.84-.3a0.59,0.59,0,0,0,.37-0.74l-0.81-2.56a0.56,0.56,0,0,0-.71-0.37l-0.84.31a10.09,10.09,0,0,1-3.22.53,10.69,10.69,0,1,1,10.37-10.69,11.71,11.71,0,0,1-.65,3.75,2.3,2.3,0,0,1-1.63,1.69,1.47,1.47,0,0,1-1.45-1.49V274.75a0.57,0.57,0,0,0-.57-0.58h-2.62a0.57,0.57,0,0,0-.56.55v0.23l-0.19-.11a6.72,6.72,0,0,0-3.27-.85,7.11,7.11,0,0,0,0,14.21,6.71,6.71,0,0,0,3.69-1.11L787,287l0.06,0.15a5.19,5.19,0,0,0,4.77,3.24c2.22,0,4.3-1.72,5.17-4.28a15.66,15.66,0,0,0,.86-5A14.35,14.35,0,0,0,783.8,266.54Zm2.84,14.55a3.41,3.41,0,1,1-3.41-3.51A3.46,3.46,0,0,1,786.63,281.09Z" transform="translate(-673.7 -208.49)"/></svg>