<?xml version="1.0" encoding="utf-8"?>
<!-- Generator: Adobe Illustrator 17.1.0, SVG Export Plug-In . SVG Version: 6.00 Build 0)  -->
<!DOCTYPE svg PUBLIC "-//W3C//DTD SVG 1.1 Basic//EN" "http://www.w3.org/Graphics/SVG/1.1/DTD/svg11-basic.dtd">
<svg version="1.1" baseProfile="basic" id="Layer_1"
	 xmlns="http://www.w3.org/2000/svg" xmlns:xlink="http://www.w3.org/1999/xlink" x="0px" y="0px" viewBox="0 0 1190.6 841.9"
	 xml:space="preserve">
<g id="logo2">
	
		<image overflow="visible" opacity="0.75" width="4771" height="1405" xlink:href="3DDC8BC9.png"  transform="matrix(0.24 0 0 0.24 38.8789 23.7863)">
	</image>
	<g>
		<g>
			<path fill="#FFFFFF" d="M82.5,257.4l4.3-26.5c0.8-5.1,4.7-7.7,7.3-7.7c-0.7,1.9-1.2,3.9-1.5,6l-4.6,28c-0.8,4.9-4.5,7.7-9.9,7.7
				c-2.5,0-4.4-0.5-5.8-1.6c-1.6,1.1-3.7,1.6-6.2,1.6c-5.4,0-8.3-2.8-7.5-7.7l4.3-26.2c0.8-5.1,4.7-7.7,7.3-7.7
				c-0.7,1.9-1.2,3.9-1.5,6L64,257.4c-0.4,2.7,0.4,4.2,2.5,4.2c2.1,0,3.5-1.5,3.9-4.1l4.3-26.6c0.8-5.1,4.7-7.7,7.3-7.7
				c-0.7,1.9-1.2,3.9-1.5,6L76,257.4c-0.3,2.6,0.5,4.1,2.6,4.1C80.6,261.5,82,260,82.5,257.4z"/>
			<path fill="#FFFFFF" d="M108.8,231.7c7.6,0,10.2,4.4,9.4,9.5l-3.8,23.5c-1.3,0-2.6-0.6-3.2-2c-2,1.3-4.6,2-7.7,2
				c-7.6,0-10.2-4.4-9.4-9.5l0.3-1.8c0.8-5.1,4.8-9.5,12.5-9.5c1.7,0,4.1,0.8,5.2,1.8l0.8-4.8c0.4-2.7,0.1-6-4.4-6
				c-4.8,0-5.9,2.7-6.4,5.9v0.2c-0.4,2.5-4.7,4.6-6.5,4.5c0.5-2,0.8-3.5,1.1-5.5C97.3,235.6,101.8,231.7,108.8,231.7z M99.6,255.6
				c-0.4,2.7-0.1,6,4.4,6c4.8,0,5.9-2.7,6.4-5.9l0.4-2.5c0.4-2.7,0.1-6-4.4-6c-4.5,0-6,3.3-6.4,6L99.6,255.6z"/>
			<path fill="#FFFFFF" d="M140.4,239.5c0.9-5.1,4.7-7.7,7.3-7.7c-0.7,1.9-1.2,3.9-1.5,6l-5.4,33.4c-0.8,5.1-4.8,9.5-12.5,9.5
				c-7.1,0-10.3-3.8-9.6-8.5c0.3-2,0.5-3.5,0.7-5.5c1.8-0.1,5.4,2,4.9,4.5v0.2c-0.5,3.2-0.4,5.9,4.4,5.9c4.5,0,6-3.3,6.4-6l1.2-7.6
				c-1.5,0.6-3.4,1-5.5,1c-7.6,0-10.2-4.4-9.4-9.5l2.5-15.8c0.9-5.1,4.7-7.7,7.3-7.7c-0.7,1.9-1.2,3.9-1.5,6l-2.9,17.9
				c-0.4,2.7-0.1,6,4.4,6c4.5,0,6-3.3,6.4-6L140.4,239.5z"/>
			<path fill="#FFFFFF" d="M165.1,255.6l0.4-2.7c0.5-3-15.7-4.1-15.2-7.3l0.7-4.2c0.8-5.1,4.8-9.5,12.5-9.5c7.1,0,10.3,3.8,9.6,8.5
				c-0.3,2-0.5,3.5-0.7,5.5c-1.8,0.1-5.4-2-4.9-4.5v-0.2c0.5-3.2,0.4-5.9-4.4-5.9c-4.5,0-6,3.3-6.4,6l-0.4,2.7
				c-0.5,3,15.7,4.1,15.2,7.3l-0.7,4.2c-0.8,5.1-4.8,9.5-12.5,9.5c-7.1,0-10.3-3.8-9.6-8.5c0.3-2,0.5-3.5,0.7-5.5
				c1.8-0.1,5.4,2,4.9,4.5v0.2c-0.5,3.2-0.4,5.9,4.4,5.9C163.2,261.5,164.7,258.3,165.1,255.6z"/>
			<path fill="#FFFFFF" d="M199.2,235.3l-3.6,21.7c-0.8,5.1-4.7,7.7-7.2,7.7c0.7-1.9,1.2-3.9,1.5-6l3.8-23.5h-6
				c0.7-1.6,1.5-3.6,3.5-3.6h3.1l1.3-8.1c0.9-5.1,4.7-7.7,7.3-7.7c-0.7,1.9-1.2,3.9-1.5,6l-1.6,9.9h6c-0.7,1.6-1.5,3.6-3.5,3.6
				H199.2z"/>
			<path fill="#FFFFFF" d="M226.3,255.3c-0.8,5.1-4.8,9.5-12.5,9.5c-7.6,0-10.2-4.4-9.4-9.5l2.3-14c0.8-5.1,4.8-9.5,12.5-9.5
				c7.6,0,10.2,4.4,9.4,9.5L226.3,255.3z M209.9,255.6c-0.4,2.7-0.1,6,4.4,6c4.5,0,6-3.3,6.4-6l2.4-14.6c0.4-2.7,0.1-6-4.4-6
				c-4.5,0-6,3.3-6.4,6L209.9,255.6z"/>
			<path fill="#FFFFFF" d="M246.7,230.9c0.8-5.1,4.7-7.7,7.3-7.7c-0.7,1.9-1.2,3.9-1.5,6l-4.6,28c-0.8,5.1-4.7,7.7-7.2,7.7
				c0.7-1.9,1.2-3.9,1.5-6L246.7,230.9z"/>
			<path fill="#FFFFFF" d="M271.5,226.7l-4.9,30.4c-0.8,5.1-4.7,7.7-7.2,7.7c0.7-1.9,1.2-3.9,1.5-6l5.2-32.2h-9.3
				c0.7-1.6,1.5-3.6,3.5-3.6h21.2c-0.7,1.6-1.5,3.6-3.5,3.6H271.5z"/>
			<path fill="#FFFFFF" d="M314.7,239.3c-0.8,5.1-4.8,9.5-12.5,9.5c-2.1,0-3.9-0.4-5.3-1l-1.5,9.2c-0.8,5.1-4.7,7.7-7.2,7.7
				c0.7-1.9,1.2-3.9,1.5-6l4.3-26.2c0.8-5.1,4.8-9.5,12.5-9.5c7.6,0,10.2,4.4,9.4,9.5L314.7,239.3z M298.3,239.6
				c-0.4,2.7-0.1,6,4.4,6s6-3.3,6.4-6l1.2-7.3c0.4-2.7,0-6-4.5-6c-4.5,0-5.9,3.3-6.4,6L298.3,239.6z"/>
			<path fill="#FFFFFF" d="M322.8,257.1c-0.8,5.1-4.7,7.7-7.2,7.7c0.7-1.9,1.2-3.9,1.5-6l3.5-21.1c0.3-2,0.5-4.1,0.4-6
				c1.3,0,2.7,0.7,3.7,2.1c2-1.3,4.6-2.1,7.7-2.1c-0.1,0.8-0.2,1.5-0.7,2.2c-0.4,0.5-1.3,1.1-1.8,1.3c-2.8,0.8-4,3.2-4.3,5.3
				L322.8,257.1z"/>
			<path fill="#FFFFFF" d="M352.9,255.3c-0.8,5.1-4.8,9.5-12.5,9.5c-7.6,0-10.2-4.4-9.4-9.5l2.3-14c0.8-5.1,4.8-9.5,12.5-9.5
				c7.6,0,10.2,4.4,9.4,9.5L352.9,255.3z M336.5,255.6c-0.4,2.7-0.1,6,4.4,6c4.5,0,6-3.3,6.4-6l2.4-14.6c0.4-2.7,0.1-6-4.4-6
				s-6,3.3-6.4,6L336.5,255.6z"/>
			<path fill="#FFFFFF" d="M358.9,235.3c0.2-1.5,1.5-3.6,3-3.6h1.6l1-6.3c0.8-5.1,4.8-9.5,12.5-9.5h1.8c-0.2,1.4-1.2,3.3-2.3,3.3
				c-4.5,0-6,3.3-6.4,6l-1.1,6.6h6.8c-0.2,1.5-1.5,3.6-3,3.6h-4.3l-3.6,21.7c-0.8,5.1-4.7,7.7-7.2,7.7c0.7-1.9,1.2-3.9,1.5-6
				l3.8-23.5H358.9z"/>
			<path fill="#FFFFFF" d="M384.3,264.8c-7.6,0-10.2-4.4-9.4-9.5l2.3-14c0.8-5.1,4.8-9.5,12.5-9.5c7.6,0,10.2,4.4,9.4,9.5l-0.3,1.8
				c-0.8,5.1-4.9,9.5-12.5,9.5c-1.7,0-4-0.8-5.1-1.8l-0.8,4.8c-0.4,2.7-0.1,6,4.4,6c4.8,0,5.9-2.7,6.4-5.9v-0.2
				c0.4-2.5,4.7-4.6,6.5-4.5c-0.5,2-0.8,3.5-1.1,5.5C395.8,261,391.4,264.8,384.3,264.8z M393.2,243.4l0.4-2.4c0.4-2.7,0.1-6-4.4-6
				s-6,3.3-6.4,6l-0.4,2.4c-0.4,2.7-0.1,6,4.4,6C391.3,249.4,392.8,246.1,393.2,243.4z"/>
			<path fill="#FFFFFF" d="M418.6,255.6l0.4-2.7c0.5-3-15.7-4.1-15.2-7.3l0.7-4.2c0.8-5.1,4.8-9.5,12.5-9.5c7.1,0,10.3,3.8,9.6,8.5
				c-0.3,2-0.5,3.5-0.7,5.5c-1.8,0.1-5.4-2-4.9-4.5v-0.2c0.5-3.2,0.4-5.9-4.4-5.9c-4.5,0-6,3.3-6.4,6l-0.4,2.7
				c-0.5,3,15.7,4.1,15.2,7.3l-0.7,4.2c-0.8,5.1-4.8,9.5-12.5,9.5c-7.1,0-10.3-3.8-9.6-8.5c0.3-2,0.5-3.5,0.7-5.5
				c1.8-0.1,5.4,2,4.9,4.5v0.2c-0.5,3.2-0.4,5.9,4.4,5.9C416.7,261.5,418.1,258.3,418.6,255.6z"/>
			<path fill="#FFFFFF" d="M445.9,255.6l0.4-2.7c0.5-3-15.7-4.1-15.2-7.3l0.7-4.2c0.8-5.1,4.8-9.5,12.5-9.5c7.1,0,10.3,3.8,9.6,8.5
				c-0.3,2-0.5,3.5-0.7,5.5c-1.8,0.1-5.4-2-4.9-4.5v-0.2c0.5-3.2,0.4-5.9-4.4-5.9c-4.5,0-6,3.3-6.4,6l-0.4,2.7
				c-0.5,3,15.7,4.1,15.2,7.3l-0.7,4.2c-0.8,5.1-4.8,9.5-12.5,9.5c-7.1,0-10.3-3.8-9.6-8.5c0.3-2,0.5-3.5,0.7-5.5
				c1.8-0.1,5.4,2,4.9,4.5v0.2c-0.5,3.2-0.4,5.9,4.4,5.9C444,261.5,445.5,258.3,445.9,255.6z"/>
			<path fill="#FFFFFF" d="M462.1,257.1c-0.8,5.1-4.7,7.7-7.2,7.7c0.7-1.9,1.2-3.9,1.5-6l3.9-23.8c0.3-1.7,4-3.3,6-3.3L462.1,257.1z
				 M461.7,226c0.4-2.6,2.5-4,6.2-4.2l-0.7,4.5c-0.4,2.6-2.5,4-6.2,4.2L461.7,226z"/>
			<path fill="#FFFFFF" d="M489.8,255.3c-0.8,5.1-4.8,9.5-12.5,9.5c-7.6,0-10.2-4.4-9.4-9.5l2.3-14c0.8-5.1,4.8-9.5,12.5-9.5
				c7.6,0,10.2,4.4,9.4,9.5L489.8,255.3z M473.4,255.6c-0.4,2.7-0.1,6,4.4,6s6-3.3,6.4-6l2.4-14.6c0.4-2.7,0.1-6-4.4-6s-6,3.3-6.4,6
				L473.4,255.6z"/>
			<path fill="#FFFFFF" d="M500.5,257.1c-0.8,5.1-4.7,7.7-7.2,7.7c0.7-1.9,1.2-3.9,1.5-6l3.5-21.1c0.3-2,0.5-4.1,0.4-6
				c1.3,0,2.7,0.7,3.7,2c2-1.3,4.6-2.1,7.8-2.1c7.6,0,10.2,4.4,9.3,9.5l-2.6,15.8c-0.8,5.1-4.7,7.7-7.2,7.7c0.7-1.9,1.2-3.9,1.5-6
				l2.9-17.9c0.4-2.7,0.1-6-4.4-6c-4.3,0-5.9,3-6.4,5.5L500.5,257.1z"/>
			<path fill="#FFFFFF" d="M537.3,231.7c7.6,0,10.2,4.4,9.4,9.5l-3.8,23.5c-1.3,0-2.6-0.6-3.2-2c-2,1.3-4.6,2-7.7,2
				c-7.6,0-10.2-4.4-9.4-9.5l0.3-1.8c0.8-5.1,4.8-9.5,12.5-9.5c1.7,0,4.1,0.8,5.2,1.8l0.8-4.8c0.4-2.7,0.1-6-4.4-6
				c-4.8,0-5.9,2.7-6.4,5.9v0.2c-0.4,2.5-4.7,4.6-6.5,4.5c0.5-2,0.8-3.5,1.1-5.5C525.8,235.6,530.3,231.7,537.3,231.7z M528.1,255.6
				c-0.4,2.7-0.1,6,4.4,6c4.8,0,5.9-2.7,6.4-5.9l0.4-2.5c0.4-2.7,0.1-6-4.4-6c-4.5,0-6,3.3-6.4,6L528.1,255.6z"/>
			<path fill="#FFFFFF" d="M555.1,257.1c-0.8,5.1-4.7,7.7-7.2,7.7c0.7-1.9,1.2-3.9,1.5-6l5.8-35.3c0.8-5.1,4.7-7.7,7.2-7.7
				c-0.7,1.9-1.2,3.9-1.5,6L555.1,257.1z"/>
			<path fill="#FFFFFF" d="M577.3,255.6l0.4-2.7c0.5-3-15.7-4.1-15.2-7.3l0.7-4.2c0.8-5.1,4.8-9.5,12.5-9.5c7.1,0,10.3,3.8,9.6,8.5
				c-0.3,2-0.5,3.5-0.7,5.5c-1.8,0.1-5.4-2-4.9-4.5v-0.2c0.5-3.2,0.4-5.9-4.4-5.9c-4.5,0-6,3.3-6.4,6l-0.4,2.7
				c-0.5,3,15.7,4.1,15.2,7.3l-0.7,4.2c-0.8,5.1-4.8,9.5-12.5,9.5c-7.1,0-10.3-3.8-9.6-8.5c0.3-2,0.5-3.5,0.7-5.5
				c1.8-0.1,5.4,2,4.9,4.5v0.2c-0.5,3.2-0.4,5.9,4.4,5.9C575.3,261.5,576.8,258.3,577.3,255.6z"/>
			<path fill="#FFFFFF" d="M604.7,255.6c-0.4,2.7-0.1,6,4.4,6c4.8,0,5.9-2.7,6.4-5.9v-0.2c0.4-2.5,4.7-4.6,6.5-4.5
				c-0.5,2-0.8,3.5-1.1,5.5c-0.8,4.6-5.2,8.5-12.3,8.5c-7.6,0-10.2-4.4-9.4-9.5l3.7-22.6c0.8-5.1,4.8-9.5,12.5-9.5
				c7.1,0,10.3,3.8,9.6,8.5c-0.3,2-0.5,3.5-0.7,5.5c-1.8,0.1-5.4-2-5-4.5l0.1-0.2c0.5-3.2,0.3-5.9-4.5-5.9c-4.5,0-5.9,3.3-6.4,6
				L604.7,255.6z"/>
			<path fill="#FFFFFF" d="M641.3,231.7c7.6,0,10.2,4.4,9.4,9.5l-3.8,23.5c-1.3,0-2.6-0.6-3.2-2c-2,1.3-4.6,2-7.7,2
				c-7.6,0-10.2-4.4-9.4-9.5l0.3-1.8c0.8-5.1,4.8-9.5,12.5-9.5c1.7,0,4.1,0.8,5.2,1.8l0.8-4.8c0.4-2.7,0.1-6-4.4-6
				c-4.8,0-5.9,2.7-6.4,5.9v0.2c-0.4,2.5-4.7,4.6-6.5,4.5c0.5-2,0.8-3.5,1.1-5.5C629.8,235.6,634.3,231.7,641.3,231.7z M632.1,255.6
				c-0.4,2.7-0.1,6,4.4,6c4.8,0,5.9-2.7,6.4-5.9l0.4-2.5c0.4-2.7,0.1-6-4.4-6c-4.5,0-6,3.3-6.4,6L632.1,255.6z"/>
			<path fill="#FFFFFF" d="M659.1,257.1c-0.8,5.1-4.7,7.7-7.2,7.7c0.7-1.9,1.2-3.9,1.5-6l3.5-21.1c0.3-2,0.5-4.1,0.4-6
				c1.1,0,2.4,0.5,3.3,1.5c1.6-1,3.6-1.5,6-1.5c2.5,0,4.4,0.5,5.8,1.6c1.6-1.1,3.7-1.6,6.2-1.6c5.4,0,8.3,2.8,7.5,7.7l-2.9,17.6
				c-0.8,5.1-4.7,7.7-7.2,7.7c0.7-1.9,1.2-3.9,1.5-6l3.2-19.7c0.4-2.7-0.4-4.2-2.5-4.2c-2.1,0-3.5,1.5-4,4.1l-2.9,17.9
				c-0.8,5.1-4.7,7.7-7.2,7.7c0.7-1.9,1.2-3.9,1.5-6l3.2-19.7c0.4-2.6-0.5-4.1-2.5-4.1c-2.1,0-3.5,1.5-4,4.1L659.1,257.1z"/>
			<path fill="#FFFFFF" d="M691.8,237.7c0.3-2,0.5-4.1,0.4-6c1.3,0,2.7,0.7,3.7,2.1c2-1.3,4.6-2.1,7.7-2.1c7.6,0,10.2,4.4,9.4,9.5
				l-2.3,14c-0.8,5.1-4.8,9.5-12.5,9.5c-2.1,0-3.9-0.4-5.3-1l-1.4,9.1c-0.9,5.1-4.7,7.7-7.2,7.7c0.6-1.9,1.1-3.9,1.4-6L691.8,237.7z
				 M694.3,255.6c-0.4,2.7-0.1,6,4.4,6c4.5,0,6-3.3,6.4-6l2.4-14.6c0.4-2.7,0.1-6-4.4-6c-4.3,0-5.9,3-6.4,5.5L694.3,255.6z"/>
		</g>
		<g>
			<path fill="none" stroke="#FFFFFF" stroke-width="0.25" stroke-miterlimit="10" d="M76.3,260.5c-0.4-0.7-0.6-1.7-0.4-3l4.6-28.4
				c0.2-1,0.4-2,0.6-3c0.2-1,0.5-2,0.9-2.9c-0.7,0-1.4,0.2-2.1,0.5c-0.8,0.3-1.5,0.8-2.2,1.5c-0.7,0.7-1.3,1.5-1.9,2.4
				c-0.5,1-0.9,2.1-1.1,3.4l-4.3,26.6c-0.2,1.3-0.6,2.3-1.3,3c-0.7,0.7-1.5,1.1-2.6,1.1c-2.1,0-3-1.4-2.5-4.2l4.6-28.3
				c0.2-1,0.4-2,0.6-3c0.2-1,0.5-2,0.9-2.9c-0.7,0-1.4,0.2-2.1,0.5c-0.8,0.3-1.5,0.8-2.2,1.5c-0.7,0.7-1.3,1.5-1.9,2.4
				c-0.5,1-0.9,2.1-1.1,3.4l-4.3,26.2c-0.4,2.5,0.1,4.4,1.4,5.8c1.3,1.3,3.4,2,6.1,2c2.5,0,4.6-0.5,6.2-1.6c1.3,1.1,3.2,1.6,5.8,1.6
				c2.7,0,5-0.7,6.7-2c1.7-1.3,2.8-3.2,3.2-5.8l4.6-28c0.2-1,0.4-2,0.6-3c0.2-1,0.5-2,0.9-2.9c-0.7,0-1.4,0.2-2.1,0.5
				c-0.8,0.3-1.5,0.8-2.2,1.5c-0.7,0.7-1.3,1.5-1.9,2.4c-0.5,1-0.9,2.1-1.1,3.4l-4.3,26.5c-0.2,1.4-0.7,2.4-1.3,3.1
				c-0.7,0.7-1.5,1.1-2.6,1.1C77.5,261.5,76.8,261.2,76.3,260.5z"/>
			<path fill="none" stroke="#FFFFFF" stroke-width="0.25" stroke-miterlimit="10" d="M100,253.1c0.1-0.7,0.3-1.4,0.5-2.1
				c0.3-0.7,0.6-1.3,1.1-1.9c0.5-0.6,1.1-1.1,1.9-1.4c0.8-0.4,1.7-0.6,2.9-0.6c1.1,0,2,0.2,2.7,0.6c0.6,0.4,1.1,0.9,1.4,1.4
				c0.3,0.6,0.5,1.2,0.5,1.9c0,0.7,0,1.4-0.1,2.1l-0.4,2.5c-0.1,0.8-0.3,1.5-0.6,2.3c-0.2,0.7-0.6,1.3-1,1.9c-0.5,0.5-1.1,1-1.8,1.3
				c-0.8,0.3-1.8,0.5-3,0.5c-1.1,0-2-0.2-2.7-0.6c-0.6-0.4-1.1-0.9-1.4-1.4c-0.3-0.6-0.5-1.2-0.5-1.9c0-0.7,0-1.4,0.1-2.1L100,253.1
				z M96.1,243c-0.1,0.8-0.3,1.7-0.6,2.7c0.4,0,1-0.1,1.7-0.3c0.7-0.2,1.4-0.5,2-1c0.7-0.4,1.3-0.9,1.8-1.5c0.5-0.6,0.8-1.2,1-1.8
				v-0.2c0.1-0.8,0.3-1.5,0.5-2.3c0.2-0.7,0.6-1.3,1-1.9c0.5-0.5,1.1-1,1.9-1.3c0.8-0.3,1.8-0.5,3-0.5c1.1,0,2,0.2,2.7,0.6
				c0.6,0.4,1.1,0.9,1.4,1.4c0.3,0.6,0.5,1.2,0.5,1.9c0,0.7,0,1.4-0.1,2.1l-0.8,4.8c-0.5-0.6-1.3-1-2.4-1.3c-1-0.3-2-0.5-2.8-0.5
				c-1.9,0-3.6,0.3-5.1,0.8c-1.5,0.5-2.7,1.2-3.7,2.1c-1,0.9-1.8,1.9-2.4,3c-0.6,1.2-1,2.4-1.2,3.6l-0.3,1.8c-0.2,1.3-0.2,2.5,0,3.6
				c0.2,1.2,0.7,2.2,1.5,3c0.8,0.9,1.8,1.6,3.1,2.1c1.3,0.5,2.9,0.8,4.8,0.8c1.6,0,3-0.2,4.3-0.5c1.3-0.3,2.4-0.8,3.4-1.5
				c0.3,0.7,0.7,1.2,1.3,1.5c0.6,0.3,1.2,0.5,1.9,0.5l3.8-23.5c0.2-1.3,0.2-2.5,0-3.6c-0.2-1.2-0.7-2.2-1.5-3
				c-0.7-0.9-1.8-1.6-3.1-2.1c-1.3-0.5-2.9-0.8-4.8-0.8c-1.8,0-3.4,0.2-4.8,0.7c-1.4,0.4-2.7,1-3.7,1.8c-1,0.8-1.9,1.7-2.5,2.7
				c-0.6,1-1.1,2.1-1.2,3.3C96.4,241.2,96.2,242.2,96.1,243z"/>
			<path fill="none" stroke="#FFFFFF" stroke-width="0.25" stroke-miterlimit="10" d="M137.8,255.6c-0.1,0.7-0.3,1.4-0.5,2.1
				c-0.3,0.7-0.6,1.3-1.1,1.9c-0.5,0.6-1.1,1.1-1.9,1.4c-0.8,0.4-1.7,0.6-2.9,0.6c-1.1,0-2-0.2-2.7-0.6c-0.6-0.4-1.1-0.9-1.4-1.4
				c-0.3-0.6-0.5-1.2-0.5-1.9c0-0.7,0-1.4,0.1-2.1l2.9-17.9c0.3-2.1,0.8-4.1,1.5-6c-0.7,0-1.4,0.2-2.1,0.5c-0.8,0.3-1.5,0.8-2.2,1.5
				c-0.7,0.7-1.3,1.5-1.9,2.4c-0.6,1-0.9,2.1-1.2,3.4l-2.5,15.8c-0.2,1.3-0.2,2.5,0,3.6c0.2,1.2,0.7,2.2,1.5,3
				c0.7,0.9,1.8,1.6,3.1,2.1c1.3,0.5,2.9,0.8,4.8,0.8c1.1,0,2.1-0.1,3-0.2c0.9-0.2,1.8-0.4,2.6-0.7l-1.2,7.6
				c-0.1,0.7-0.3,1.4-0.5,2.1c-0.3,0.7-0.6,1.3-1.1,1.9c-0.5,0.6-1.1,1.1-1.9,1.4c-0.8,0.4-1.7,0.6-2.9,0.6c-1.2,0-2.1-0.2-2.8-0.5
				c-0.7-0.3-1.1-0.7-1.4-1.3c-0.3-0.5-0.4-1.2-0.4-1.9c0-0.7,0.1-1.5,0.2-2.3v-0.2c0.1-0.6,0-1.2-0.3-1.8c-0.3-0.6-0.8-1-1.3-1.5
				c-0.5-0.4-1.1-0.7-1.7-1c-0.6-0.2-1.1-0.3-1.6-0.3c-0.1,1-0.2,1.9-0.2,2.7c-0.1,0.8-0.2,1.7-0.4,2.8c-0.2,1.2-0.1,2.2,0.2,3.3
				c0.3,1,0.9,1.9,1.6,2.7c0.8,0.8,1.8,1.4,3.1,1.8c1.3,0.4,2.8,0.7,4.6,0.7c1.9,0,3.6-0.3,5.1-0.8c1.5-0.5,2.7-1.2,3.7-2.1
				c1-0.9,1.8-1.9,2.4-3c0.6-1.1,1-2.4,1.2-3.6l5.4-33.4c0.3-2.1,0.8-4.1,1.5-6c-0.7,0-1.4,0.2-2.1,0.5c-0.8,0.3-1.5,0.8-2.2,1.5
				c-0.7,0.7-1.3,1.5-1.9,2.4c-0.6,1-0.9,2.1-1.2,3.4L137.8,255.6z"/>
			<path fill="none" stroke="#FFFFFF" stroke-width="0.25" stroke-miterlimit="10" d="M155.9,261.1c-0.7-0.3-1.1-0.7-1.4-1.3
				c-0.3-0.5-0.4-1.2-0.4-1.9c0-0.7,0.1-1.5,0.2-2.3v-0.2c0.1-0.6,0-1.2-0.3-1.8c-0.3-0.6-0.8-1-1.3-1.5c-0.5-0.4-1.1-0.7-1.7-1
				c-0.6-0.2-1.1-0.3-1.6-0.3c-0.1,1-0.2,1.9-0.2,2.7c-0.1,0.8-0.2,1.7-0.4,2.8c-0.2,1.2-0.1,2.2,0.2,3.3c0.3,1,0.9,1.9,1.6,2.7
				c0.8,0.8,1.8,1.4,3.1,1.8c1.3,0.4,2.8,0.7,4.6,0.7c1.9,0,3.6-0.3,5.1-0.8c1.5-0.5,2.7-1.2,3.7-2.1c1-0.9,1.8-1.9,2.4-3
				c0.6-1.2,1-2.4,1.2-3.6l0.7-4.2c0.1-0.6-0.3-1.1-1-1.5c-0.7-0.4-1.7-0.8-2.8-1.2c-1.2-0.4-2.4-0.7-3.8-1.1
				c-1.4-0.3-2.6-0.7-3.8-1c-1.2-0.4-2.1-0.7-2.8-1.1c-0.7-0.4-1.1-0.9-1-1.4l0.4-2.7c0.1-0.7,0.3-1.4,0.5-2.1
				c0.3-0.7,0.6-1.3,1.1-1.9c0.5-0.6,1.1-1.1,1.9-1.4c0.8-0.4,1.7-0.6,2.9-0.6c1.2,0,2.1,0.2,2.8,0.5c0.7,0.3,1.1,0.7,1.4,1.3
				c0.3,0.5,0.4,1.2,0.4,1.9c0,0.7-0.1,1.5-0.2,2.3v0.2c-0.1,0.6,0,1.2,0.3,1.8c0.3,0.6,0.8,1,1.3,1.5c0.5,0.4,1.1,0.7,1.7,1
				c0.6,0.2,1.1,0.3,1.6,0.3c0.1-1,0.2-1.9,0.2-2.7c0.1-0.8,0.2-1.7,0.4-2.8c0.2-1.2,0.1-2.2-0.2-3.3c-0.3-1-0.9-1.9-1.6-2.7
				c-0.8-0.8-1.8-1.4-3.1-1.8c-1.3-0.4-2.8-0.7-4.6-0.7c-1.9,0-3.6,0.3-5.1,0.8c-1.5,0.5-2.7,1.2-3.7,2.1c-1,0.9-1.8,1.9-2.4,3
				c-0.6,1.2-1,2.4-1.2,3.6l-0.7,4.2c-0.1,0.6,0.2,1.1,1,1.5c0.7,0.4,1.7,0.8,2.9,1.2c1.2,0.4,2.4,0.7,3.8,1.1
				c1.4,0.3,2.6,0.7,3.8,1c1.2,0.4,2.1,0.7,2.8,1.2c0.7,0.4,1.1,0.9,1,1.3l-0.4,2.7c-0.1,0.7-0.3,1.4-0.6,2.1
				c-0.3,0.7-0.6,1.3-1.1,1.9c-0.5,0.6-1.1,1.1-1.9,1.4c-0.8,0.4-1.7,0.6-2.9,0.6C157.5,261.5,156.6,261.4,155.9,261.1z"/>
			<path fill="none" stroke="#FFFFFF" stroke-width="0.25" stroke-miterlimit="10" d="M202.3,235.3c0.5,0,0.9-0.1,1.3-0.3
				c0.4-0.2,0.7-0.5,1-0.9c0.3-0.4,0.5-0.7,0.7-1.2c0.2-0.4,0.4-0.8,0.5-1.2h-6l1.6-9.9c0.3-2.1,0.8-4.1,1.5-6
				c-0.7,0-1.4,0.2-2.1,0.5c-0.8,0.3-1.5,0.8-2.2,1.5c-0.7,0.7-1.3,1.5-1.9,2.4c-0.5,1-0.9,2.1-1.2,3.4l-1.3,8.1h-3.1
				c-0.5,0-0.9,0.1-1.3,0.3c-0.3,0.2-0.7,0.5-0.9,0.9c-0.3,0.4-0.5,0.7-0.7,1.2c-0.2,0.4-0.4,0.8-0.6,1.2h6l-3.8,23.5
				c-0.3,2.1-0.8,4.1-1.5,6c0.7,0,1.4-0.2,2.1-0.5c0.8-0.3,1.5-0.8,2.2-1.5c0.7-0.7,1.3-1.5,1.8-2.4c0.5-1,0.9-2.1,1.1-3.4l3.6-21.7
				H202.3z"/>
			<path fill="none" stroke="#FFFFFF" stroke-width="0.25" stroke-miterlimit="10" d="M212.2,241c0.1-0.7,0.3-1.4,0.5-2.1
				c0.3-0.7,0.6-1.3,1.1-1.9c0.5-0.6,1.1-1.1,1.9-1.4c0.8-0.4,1.7-0.6,2.9-0.6c1.1,0,2,0.2,2.7,0.6c0.6,0.4,1.1,0.9,1.4,1.4
				c0.3,0.6,0.5,1.2,0.5,1.9c0,0.7,0,1.4-0.1,2.1l-2.4,14.6c-0.1,0.7-0.3,1.4-0.5,2.1c-0.3,0.7-0.6,1.3-1.1,1.9
				c-0.5,0.6-1.1,1.1-1.9,1.4c-0.8,0.4-1.7,0.6-2.9,0.6c-1.1,0-2-0.2-2.7-0.6c-0.6-0.4-1.1-0.9-1.4-1.4c-0.3-0.6-0.5-1.2-0.5-1.9
				c0-0.7,0-1.4,0.1-2.1L212.2,241z M228.5,241.3c0.2-1.3,0.2-2.5,0-3.6c-0.2-1.2-0.7-2.2-1.5-3c-0.7-0.9-1.8-1.6-3.1-2.1
				c-1.3-0.5-2.9-0.8-4.8-0.8c-1.9,0-3.6,0.3-5.1,0.8c-1.5,0.5-2.7,1.2-3.7,2.1c-1,0.9-1.8,1.9-2.4,3c-0.6,1.2-1,2.4-1.2,3.6
				l-2.3,14c-0.2,1.3-0.2,2.5,0,3.6c0.2,1.1,0.7,2.2,1.5,3c0.8,0.9,1.8,1.6,3.1,2.1c1.3,0.5,2.9,0.8,4.8,0.8c1.9,0,3.6-0.3,5.1-0.8
				c1.5-0.5,2.7-1.2,3.7-2.1c1-0.9,1.8-1.9,2.4-3c0.6-1.2,1-2.4,1.2-3.6L228.5,241.3z"/>
			<path fill="none" stroke="#FFFFFF" stroke-width="0.25" stroke-miterlimit="10" d="M242.2,258.9c-0.3,2.1-0.8,4.1-1.5,6
				c0.7,0,1.4-0.2,2.1-0.5c0.7-0.3,1.5-0.8,2.2-1.5c0.7-0.7,1.3-1.5,1.8-2.4c0.5-1,0.9-2.1,1.1-3.4l4.6-28c0.2-1,0.4-2,0.6-3
				c0.2-1,0.5-2,0.9-2.9c-0.7,0-1.4,0.2-2.1,0.5c-0.8,0.3-1.5,0.8-2.2,1.5c-0.7,0.7-1.3,1.5-1.9,2.4c-0.5,1-0.9,2.1-1.1,3.4
				L242.2,258.9z"/>
			<path fill="none" stroke="#FFFFFF" stroke-width="0.25" stroke-miterlimit="10" d="M278,226.7c0.5,0,0.9-0.1,1.3-0.3
				c0.4-0.2,0.7-0.5,1-0.9c0.3-0.4,0.5-0.7,0.7-1.2c0.2-0.4,0.4-0.8,0.6-1.2h-21.2c-0.5,0-0.9,0.1-1.3,0.3c-0.3,0.2-0.7,0.5-0.9,0.9
				c-0.3,0.4-0.5,0.7-0.7,1.2c-0.2,0.4-0.4,0.8-0.6,1.2h9.3l-5.2,32.2c-0.3,2.1-0.8,4.1-1.5,6c0.7,0,1.4-0.2,2.1-0.5
				c0.8-0.3,1.5-0.8,2.2-1.5c0.7-0.7,1.3-1.5,1.8-2.4c0.5-1,0.9-2.1,1.1-3.4l4.9-30.4H278z"/>
			<path fill="none" stroke="#FFFFFF" stroke-width="0.25" stroke-miterlimit="10" d="M299.5,232.3c0.1-0.7,0.3-1.4,0.5-2.1
				c0.3-0.7,0.6-1.3,1.1-1.9c0.5-0.6,1.1-1.1,1.9-1.4c0.7-0.4,1.7-0.6,2.8-0.6c1.1,0,2,0.2,2.7,0.6c0.6,0.4,1.1,0.9,1.4,1.4
				c0.3,0.6,0.5,1.2,0.5,1.9c0,0.7,0,1.4-0.1,2.1l-1.2,7.3c-0.1,0.7-0.3,1.4-0.6,2.1c-0.3,0.7-0.6,1.3-1.1,1.9
				c-0.5,0.6-1.1,1.1-1.9,1.4c-0.8,0.4-1.7,0.6-2.9,0.6c-1.1,0-2-0.2-2.7-0.6c-0.6-0.4-1.1-0.9-1.4-1.4c-0.3-0.6-0.5-1.2-0.5-1.9
				c0-0.7,0-1.4,0.1-2.1L299.5,232.3z M315.8,232.6c0.2-1.3,0.2-2.5,0-3.6c-0.2-1.2-0.7-2.2-1.5-3c-0.7-0.9-1.8-1.6-3.1-2.1
				c-1.3-0.5-2.9-0.8-4.8-0.8c-1.9,0-3.6,0.3-5.1,0.8c-1.5,0.5-2.7,1.2-3.7,2.1c-1,0.9-1.8,1.9-2.4,3c-0.6,1.2-1,2.4-1.2,3.6
				l-4.3,26.2c-0.3,2.1-0.8,4.1-1.5,6c0.7,0,1.4-0.2,2.1-0.5c0.8-0.3,1.5-0.8,2.2-1.5c0.7-0.7,1.3-1.5,1.8-2.4
				c0.5-1,0.9-2.1,1.1-3.4l1.5-9.2c1.5,0.6,3.2,1,5.3,1c1.9,0,3.6-0.3,5.1-0.8c1.5-0.5,2.7-1.2,3.7-2.1c1-0.9,1.8-1.9,2.4-3
				c0.6-1.2,1-2.4,1.2-3.6L315.8,232.6z"/>
			<path fill="none" stroke="#FFFFFF" stroke-width="0.25" stroke-miterlimit="10" d="M325.5,240.6c0.2-1,0.6-2.1,1.3-3.1
				c0.7-1.1,1.7-1.8,3.1-2.2c0.3-0.1,0.6-0.2,1-0.5c0.4-0.3,0.6-0.5,0.8-0.8c0.3-0.4,0.5-0.7,0.6-1c0.1-0.3,0.1-0.7,0.2-1.2
				c-1.6,0-3.1,0.2-4.3,0.5c-1.3,0.4-2.4,0.9-3.4,1.5c-0.5-0.7-1.1-1.2-1.8-1.5c-0.7-0.4-1.3-0.5-2-0.5c0.1,1,0.1,1.9,0,2.9
				c-0.1,1-0.2,2-0.4,3l-3.5,21.1c-0.3,2.1-0.8,4.1-1.5,6c0.7,0,1.4-0.2,2.1-0.5c0.8-0.3,1.5-0.8,2.2-1.5c0.7-0.7,1.3-1.5,1.8-2.4
				c0.5-1,0.9-2.1,1.1-3.4L325.5,240.6z"/>
			<path fill="none" stroke="#FFFFFF" stroke-width="0.25" stroke-miterlimit="10" d="M338.9,241c0.1-0.7,0.3-1.4,0.5-2.1
				c0.3-0.7,0.6-1.3,1.1-1.9c0.5-0.6,1.1-1.1,1.9-1.4c0.8-0.4,1.7-0.6,2.9-0.6c1.1,0,2,0.2,2.7,0.6c0.6,0.4,1.1,0.9,1.4,1.4
				c0.3,0.6,0.5,1.2,0.5,1.9c0,0.7,0,1.4-0.1,2.1l-2.4,14.6c-0.1,0.7-0.3,1.4-0.5,2.1c-0.3,0.7-0.6,1.3-1.1,1.9
				c-0.5,0.6-1.1,1.1-1.9,1.4c-0.8,0.4-1.7,0.6-2.9,0.6c-1.1,0-2-0.2-2.7-0.6c-0.6-0.4-1.1-0.9-1.4-1.4c-0.3-0.6-0.5-1.2-0.5-1.9
				c0-0.7,0-1.4,0.1-2.1L338.9,241z M355.2,241.3c0.2-1.3,0.2-2.5,0-3.6c-0.2-1.2-0.7-2.2-1.5-3c-0.7-0.9-1.8-1.6-3.1-2.1
				c-1.3-0.5-2.9-0.8-4.8-0.8c-1.9,0-3.6,0.3-5.1,0.8c-1.5,0.5-2.7,1.2-3.7,2.1c-1,0.9-1.8,1.9-2.4,3c-0.6,1.2-1,2.4-1.2,3.6
				l-2.3,14c-0.2,1.3-0.2,2.5,0,3.6c0.2,1.1,0.7,2.2,1.5,3c0.8,0.9,1.8,1.6,3.1,2.1c1.3,0.5,2.9,0.8,4.8,0.8c1.9,0,3.6-0.3,5.1-0.8
				c1.5-0.5,2.7-1.2,3.7-2.1c1-0.9,1.8-1.9,2.4-3c0.6-1.2,1-2.4,1.2-3.6L355.2,241.3z"/>
			<path fill="none" stroke="#FFFFFF" stroke-width="0.25" stroke-miterlimit="10" d="M363,235.3l-3.8,23.5c-0.3,2.1-0.8,4.1-1.5,6
				c0.7,0,1.4-0.2,2.1-0.5c0.8-0.3,1.5-0.8,2.2-1.5c0.7-0.7,1.3-1.5,1.8-2.4c0.5-1,0.9-2.1,1.1-3.4l3.6-21.7h4.3
				c0.4,0,0.7-0.1,1.1-0.3c0.3-0.2,0.7-0.5,0.9-0.9c0.3-0.4,0.5-0.7,0.7-1.2c0.2-0.4,0.3-0.8,0.4-1.2h-6.8l1.1-6.6
				c0.1-0.7,0.3-1.4,0.5-2.1c0.3-0.7,0.6-1.3,1.1-1.9c0.5-0.6,1.1-1.1,1.9-1.4c0.8-0.4,1.7-0.6,2.9-0.6c0.3,0,0.5-0.1,0.8-0.3
				c0.3-0.2,0.5-0.5,0.7-0.8c0.2-0.3,0.4-0.7,0.5-1c0.1-0.4,0.2-0.7,0.3-1.1h-1.8c-1.9,0-3.6,0.3-5.1,0.8c-1.5,0.5-2.7,1.2-3.7,2.1
				c-1,0.9-1.8,1.9-2.4,3c-0.6,1.2-1,2.4-1.2,3.6l-1,6.3h-1.6c-0.4,0-0.7,0.1-1.1,0.3c-0.3,0.2-0.7,0.5-0.9,0.9
				c-0.3,0.4-0.5,0.7-0.7,1.2c-0.2,0.4-0.3,0.8-0.3,1.2H363z"/>
			<path fill="none" stroke="#FFFFFF" stroke-width="0.25" stroke-miterlimit="10" d="M384.1,248.8c-0.6-0.4-1.1-0.9-1.4-1.4
				c-0.3-0.6-0.5-1.2-0.5-1.9c0-0.7,0-1.4,0.1-2.1l0.4-2.4c0.1-0.7,0.3-1.4,0.6-2.1c0.3-0.7,0.6-1.3,1.1-1.9
				c0.5-0.6,1.1-1.1,1.9-1.4c0.8-0.4,1.7-0.6,2.9-0.6c1.1,0,2,0.2,2.7,0.6c0.6,0.4,1.1,0.9,1.4,1.4c0.3,0.6,0.5,1.2,0.5,1.9
				c0,0.7,0,1.4-0.1,2.1l-0.4,2.4c-0.1,0.7-0.3,1.4-0.5,2.1c-0.3,0.7-0.6,1.3-1.1,1.9c-0.5,0.6-1.1,1.1-1.9,1.4
				c-0.8,0.4-1.7,0.6-2.9,0.6C385.7,249.4,384.8,249.2,384.1,248.8z M397.2,253.6c0.1-0.8,0.3-1.7,0.6-2.7c-0.4,0-1,0.1-1.7,0.3
				c-0.7,0.2-1.4,0.5-2,1c-0.7,0.4-1.3,0.9-1.8,1.5c-0.5,0.6-0.8,1.2-1,1.8v0.2c-0.1,0.8-0.3,1.5-0.6,2.3c-0.2,0.7-0.6,1.3-1,1.9
				c-0.5,0.5-1.1,1-1.8,1.3c-0.8,0.3-1.8,0.5-3,0.5c-1.1,0-2-0.2-2.7-0.6c-0.6-0.4-1.1-0.9-1.4-1.4c-0.3-0.6-0.5-1.2-0.5-1.9
				c0-0.7,0-1.4,0.1-2.1l0.8-4.8c0.5,0.6,1.3,1,2.3,1.3c1,0.3,1.9,0.5,2.8,0.5c1.9,0,3.6-0.3,5-0.8c1.5-0.5,2.7-1.2,3.8-2.1
				c1-0.9,1.9-1.9,2.5-3c0.6-1.2,1-2.4,1.2-3.6l0.3-1.8c0.2-1.3,0.2-2.5,0-3.6c-0.2-1.1-0.7-2.2-1.5-3c-0.8-0.9-1.8-1.6-3.1-2.1
				c-1.3-0.5-2.9-0.8-4.8-0.8c-1.9,0-3.6,0.3-5.1,0.8c-1.5,0.5-2.7,1.2-3.7,2.1c-1,0.9-1.8,1.9-2.4,3c-0.6,1.2-1,2.4-1.2,3.6
				l-2.3,14c-0.2,1.3-0.2,2.5,0,3.6c0.2,1.2,0.7,2.2,1.5,3c0.7,0.9,1.8,1.6,3.1,2.1c1.3,0.5,2.9,0.8,4.8,0.8c1.8,0,3.4-0.2,4.8-0.7
				c1.4-0.4,2.7-1,3.7-1.8c1-0.8,1.9-1.7,2.5-2.7c0.6-1,1.1-2.1,1.2-3.3C396.9,255.3,397,254.4,397.2,253.6z"/>
			<path fill="none" stroke="#FFFFFF" stroke-width="0.25" stroke-miterlimit="10" d="M409.4,261.1c-0.7-0.3-1.1-0.7-1.4-1.3
				c-0.3-0.5-0.4-1.2-0.4-1.9c0-0.7,0.1-1.5,0.2-2.3v-0.2c0.1-0.6,0-1.2-0.3-1.8c-0.3-0.6-0.8-1-1.3-1.5c-0.5-0.4-1.1-0.7-1.7-1
				c-0.6-0.2-1.1-0.3-1.6-0.3c-0.1,1-0.2,1.9-0.3,2.7c-0.1,0.8-0.2,1.7-0.4,2.8c-0.2,1.2-0.1,2.2,0.2,3.3c0.3,1,0.9,1.9,1.6,2.7
				c0.8,0.8,1.8,1.4,3.1,1.8c1.3,0.4,2.8,0.7,4.6,0.7c1.9,0,3.6-0.3,5.1-0.8c1.5-0.5,2.7-1.2,3.7-2.1c1-0.9,1.8-1.9,2.4-3
				c0.6-1.2,1-2.4,1.2-3.6l0.7-4.2c0.1-0.6-0.3-1.1-1-1.5c-0.7-0.4-1.7-0.8-2.8-1.2c-1.2-0.4-2.4-0.7-3.8-1.1
				c-1.4-0.3-2.6-0.7-3.8-1c-1.2-0.4-2.1-0.7-2.8-1.1c-0.7-0.4-1.1-0.9-1-1.4l0.4-2.7c0.1-0.7,0.3-1.4,0.5-2.1
				c0.3-0.7,0.6-1.3,1.1-1.9c0.5-0.6,1.1-1.1,1.9-1.4c0.8-0.4,1.7-0.6,2.9-0.6c1.2,0,2.1,0.2,2.8,0.5c0.7,0.3,1.1,0.7,1.4,1.3
				c0.3,0.5,0.4,1.2,0.4,1.9c0,0.7-0.1,1.5-0.2,2.3v0.2c-0.1,0.6,0,1.2,0.3,1.8c0.3,0.6,0.8,1,1.3,1.5c0.5,0.4,1.1,0.7,1.7,1
				c0.6,0.2,1.1,0.3,1.6,0.3c0.1-1,0.2-1.9,0.2-2.7c0.1-0.8,0.2-1.7,0.4-2.8c0.2-1.2,0.1-2.2-0.2-3.3c-0.3-1-0.9-1.9-1.6-2.7
				c-0.8-0.8-1.8-1.4-3.1-1.8c-1.3-0.4-2.8-0.7-4.6-0.7c-1.9,0-3.6,0.3-5.1,0.8c-1.5,0.5-2.7,1.2-3.7,2.1c-1,0.9-1.8,1.9-2.4,3
				c-0.6,1.2-1,2.4-1.2,3.6l-0.7,4.2c-0.1,0.6,0.2,1.1,1,1.5c0.7,0.4,1.7,0.8,2.9,1.2c1.2,0.4,2.4,0.7,3.8,1.1
				c1.4,0.3,2.6,0.7,3.8,1c1.2,0.4,2.1,0.7,2.8,1.2c0.7,0.4,1.1,0.9,1,1.3l-0.4,2.7c-0.1,0.7-0.3,1.4-0.5,2.1
				c-0.3,0.7-0.6,1.3-1.1,1.9c-0.5,0.6-1.1,1.1-1.9,1.4c-0.8,0.4-1.7,0.6-2.9,0.6C410.9,261.5,410,261.4,409.4,261.1z"/>
			<path fill="none" stroke="#FFFFFF" stroke-width="0.25" stroke-miterlimit="10" d="M436.7,261.1c-0.7-0.3-1.1-0.7-1.4-1.3
				c-0.3-0.5-0.4-1.2-0.4-1.9c0-0.7,0.1-1.5,0.2-2.3v-0.2c0.1-0.6,0-1.2-0.3-1.8c-0.3-0.6-0.8-1-1.3-1.5c-0.5-0.4-1.1-0.7-1.7-1
				c-0.6-0.2-1.1-0.3-1.6-0.3c-0.1,1-0.2,1.9-0.2,2.7c-0.1,0.8-0.2,1.7-0.4,2.8c-0.2,1.2-0.1,2.2,0.2,3.3c0.3,1,0.9,1.9,1.6,2.7
				c0.8,0.8,1.8,1.4,3.1,1.8c1.3,0.4,2.8,0.7,4.6,0.7c1.9,0,3.6-0.3,5.1-0.8c1.5-0.5,2.7-1.2,3.7-2.1c1-0.9,1.8-1.9,2.4-3
				c0.6-1.2,1-2.4,1.2-3.6l0.7-4.2c0.1-0.6-0.3-1.1-1-1.5c-0.7-0.4-1.7-0.8-2.8-1.2c-1.2-0.4-2.4-0.7-3.8-1.1
				c-1.4-0.3-2.6-0.7-3.8-1c-1.2-0.4-2.1-0.7-2.8-1.1c-0.7-0.4-1.1-0.9-1-1.4l0.4-2.7c0.1-0.7,0.3-1.4,0.5-2.1
				c0.3-0.7,0.6-1.3,1.1-1.9c0.5-0.6,1.1-1.1,1.9-1.4c0.8-0.4,1.7-0.6,2.9-0.6c1.2,0,2.1,0.2,2.8,0.5c0.7,0.3,1.1,0.7,1.4,1.3
				c0.3,0.5,0.4,1.2,0.4,1.9c0,0.7-0.1,1.5-0.2,2.3v0.2c-0.1,0.6,0,1.2,0.3,1.8c0.3,0.6,0.8,1,1.3,1.5c0.6,0.4,1.1,0.7,1.7,1
				c0.6,0.2,1.1,0.3,1.6,0.3c0.1-1,0.2-1.9,0.2-2.7c0.1-0.8,0.2-1.7,0.4-2.8c0.2-1.2,0.1-2.2-0.2-3.3c-0.3-1-0.9-1.9-1.6-2.7
				c-0.8-0.8-1.8-1.4-3.1-1.8c-1.3-0.4-2.8-0.7-4.6-0.7c-1.9,0-3.6,0.3-5.1,0.8c-1.5,0.5-2.7,1.2-3.7,2.1c-1,0.9-1.8,1.9-2.4,3
				c-0.6,1.2-1,2.4-1.2,3.6l-0.7,4.2c-0.1,0.6,0.2,1.1,1,1.5c0.7,0.4,1.7,0.8,2.9,1.2c1.2,0.4,2.4,0.7,3.8,1.1
				c1.4,0.3,2.6,0.7,3.8,1c1.2,0.4,2.1,0.7,2.8,1.2c0.7,0.4,1.1,0.9,1,1.3l-0.4,2.7c-0.1,0.7-0.3,1.4-0.6,2.1
				c-0.3,0.7-0.6,1.3-1.1,1.9c-0.5,0.6-1.1,1.1-1.9,1.4c-0.8,0.4-1.7,0.6-2.9,0.6C438.3,261.5,437.4,261.4,436.7,261.1z"/>
			<path fill="none" stroke="#FFFFFF" stroke-width="0.25" stroke-miterlimit="10" d="M461,230.4c3.7-0.2,5.8-1.6,6.2-4.2l0.7-4.5
				c-3.7,0.2-5.8,1.6-6.2,4.2L461,230.4z M466.2,231.7c-0.5,0-1.1,0.1-1.8,0.3c-0.7,0.2-1.3,0.4-1.9,0.7c-0.6,0.3-1.1,0.6-1.6,1
				c-0.4,0.4-0.7,0.8-0.8,1.3l-3.9,23.8c-0.3,2.1-0.8,4.1-1.5,6c0.7,0,1.4-0.2,2.1-0.5c0.8-0.3,1.5-0.8,2.2-1.5
				c0.7-0.7,1.3-1.5,1.8-2.4c0.5-1,0.9-2.1,1.1-3.4L466.2,231.7z"/>
			<path fill="none" stroke="#FFFFFF" stroke-width="0.25" stroke-miterlimit="10" d="M475.7,241c0.1-0.7,0.3-1.4,0.5-2.1
				c0.3-0.7,0.6-1.3,1.1-1.9c0.5-0.6,1.1-1.1,1.9-1.4c0.8-0.4,1.7-0.6,2.9-0.6c1.1,0,2,0.2,2.7,0.6c0.6,0.4,1.1,0.9,1.4,1.4
				c0.3,0.6,0.5,1.2,0.5,1.9c0,0.7,0,1.4-0.1,2.1l-2.4,14.6c-0.1,0.7-0.3,1.4-0.5,2.1c-0.3,0.7-0.6,1.3-1.1,1.9
				c-0.5,0.6-1.1,1.1-1.9,1.4c-0.8,0.4-1.7,0.6-2.9,0.6c-1.1,0-2-0.2-2.7-0.6c-0.6-0.4-1.1-0.9-1.4-1.4c-0.3-0.6-0.5-1.2-0.5-1.9
				c0-0.7,0-1.4,0.1-2.1L475.7,241z M492,241.3c0.2-1.3,0.2-2.5,0-3.6c-0.2-1.2-0.7-2.2-1.5-3c-0.7-0.9-1.8-1.6-3.1-2.1
				c-1.3-0.5-2.9-0.8-4.8-0.8c-1.9,0-3.6,0.3-5.1,0.8c-1.5,0.5-2.7,1.2-3.7,2.1c-1,0.9-1.8,1.9-2.4,3c-0.6,1.2-1,2.4-1.2,3.6
				l-2.3,14c-0.2,1.3-0.2,2.5,0,3.6c0.2,1.1,0.7,2.2,1.5,3c0.8,0.9,1.8,1.6,3.1,2.1c1.3,0.5,2.9,0.8,4.8,0.8c1.9,0,3.6-0.3,5.1-0.8
				c1.5-0.5,2.7-1.2,3.7-2.1c1-0.9,1.8-1.9,2.4-3c0.6-1.2,1-2.4,1.2-3.6L492,241.3z"/>
			<path fill="none" stroke="#FFFFFF" stroke-width="0.25" stroke-miterlimit="10" d="M503.1,240.5c0.1-0.6,0.3-1.3,0.6-1.9
				c0.3-0.7,0.7-1.3,1.2-1.8c0.5-0.5,1.1-1,1.9-1.3c0.7-0.3,1.7-0.5,2.7-0.5c1.1,0,2,0.2,2.7,0.6c0.6,0.4,1.1,0.9,1.4,1.4
				c0.3,0.6,0.5,1.2,0.5,1.9c0,0.7,0,1.4-0.1,2.1l-2.9,17.9c-0.3,2.1-0.8,4.1-1.5,6c0.7,0,1.4-0.2,2.1-0.5c0.7-0.3,1.5-0.8,2.2-1.5
				c0.7-0.7,1.3-1.5,1.8-2.4c0.5-1,0.9-2.1,1.1-3.4l2.6-15.8c0.2-1.3,0.2-2.5,0-3.6c-0.2-1.2-0.7-2.2-1.5-3c-0.7-0.9-1.8-1.6-3-2.1
				c-1.3-0.5-2.9-0.8-4.8-0.8c-1.6,0-3.1,0.2-4.4,0.6c-1.3,0.4-2.4,0.9-3.4,1.5c-0.5-0.7-1.1-1.2-1.8-1.5c-0.7-0.3-1.3-0.5-2-0.5
				c0.1,1,0.1,1.9,0,2.9c-0.1,1-0.2,2-0.4,3l-3.5,21.1c-0.3,2.1-0.8,4.1-1.5,6c0.7,0,1.4-0.2,2.1-0.5c0.8-0.3,1.5-0.8,2.2-1.5
				c0.7-0.7,1.3-1.5,1.8-2.4c0.5-1,0.9-2.1,1.1-3.4L503.1,240.5z"/>
			<path fill="none" stroke="#FFFFFF" stroke-width="0.25" stroke-miterlimit="10" d="M528.5,253.1c0.1-0.7,0.3-1.4,0.5-2.1
				c0.3-0.7,0.6-1.3,1.1-1.9c0.5-0.6,1.1-1.1,1.9-1.4c0.8-0.4,1.7-0.6,2.9-0.6c1.1,0,2,0.2,2.7,0.6c0.6,0.4,1.1,0.9,1.4,1.4
				c0.3,0.6,0.5,1.2,0.5,1.9c0,0.7,0,1.4-0.1,2.1l-0.4,2.5c-0.1,0.8-0.3,1.5-0.6,2.3c-0.2,0.7-0.6,1.3-1,1.9c-0.5,0.5-1.1,1-1.8,1.3
				c-0.8,0.3-1.8,0.5-3,0.5c-1.1,0-2-0.2-2.7-0.6c-0.6-0.4-1.1-0.9-1.4-1.4c-0.3-0.6-0.5-1.2-0.5-1.9c0-0.7,0-1.4,0.1-2.1
				L528.5,253.1z M524.6,243c-0.1,0.8-0.4,1.7-0.6,2.7c0.4,0,1-0.1,1.7-0.3c0.7-0.2,1.4-0.5,2-1c0.7-0.4,1.3-0.9,1.8-1.5
				c0.5-0.6,0.9-1.2,1-1.8v-0.2c0.1-0.8,0.3-1.5,0.5-2.3c0.2-0.7,0.6-1.3,1-1.9c0.5-0.5,1.1-1,1.9-1.3c0.8-0.3,1.8-0.5,3-0.5
				c1.1,0,2,0.2,2.7,0.6c0.6,0.4,1.1,0.9,1.4,1.4c0.3,0.6,0.5,1.2,0.5,1.9c0,0.7,0,1.4-0.1,2.1l-0.8,4.8c-0.5-0.6-1.3-1-2.4-1.3
				c-1-0.3-2-0.5-2.8-0.5c-1.9,0-3.6,0.3-5,0.8c-1.5,0.5-2.7,1.2-3.7,2.1c-1,0.9-1.8,1.9-2.4,3c-0.6,1.2-1,2.4-1.2,3.6l-0.3,1.8
				c-0.2,1.3-0.2,2.5,0,3.6c0.2,1.2,0.7,2.2,1.5,3c0.7,0.9,1.8,1.6,3.1,2.1c1.3,0.5,2.9,0.8,4.8,0.8c1.6,0,3-0.2,4.3-0.5
				c1.3-0.3,2.4-0.8,3.4-1.5c0.3,0.7,0.7,1.2,1.3,1.5c0.6,0.3,1.2,0.5,1.9,0.5l3.8-23.5c0.2-1.3,0.2-2.5,0-3.6
				c-0.2-1.2-0.7-2.2-1.5-3c-0.8-0.9-1.8-1.6-3.1-2.1c-1.3-0.5-2.9-0.8-4.8-0.8c-1.8,0-3.4,0.2-4.8,0.7c-1.4,0.4-2.7,1-3.7,1.8
				c-1,0.8-1.9,1.7-2.5,2.7c-0.6,1-1.1,2.1-1.2,3.3C524.9,241.2,524.7,242.2,524.6,243z"/>
			<path fill="none" stroke="#FFFFFF" stroke-width="0.25" stroke-miterlimit="10" d="M560.9,221.8c0.3-2.1,0.8-4.1,1.5-6
				c-0.7,0-1.4,0.2-2.1,0.5c-0.7,0.3-1.5,0.8-2.2,1.5c-0.7,0.7-1.3,1.5-1.8,2.4c-0.5,1-0.9,2.1-1.1,3.4l-5.8,35.3
				c-0.3,2.1-0.8,4.1-1.5,6c0.7,0,1.4-0.2,2.1-0.5c0.7-0.3,1.5-0.8,2.2-1.5c0.7-0.7,1.3-1.5,1.8-2.4c0.5-1,0.9-2.1,1.1-3.4
				L560.9,221.8z"/>
			<path fill="none" stroke="#FFFFFF" stroke-width="0.25" stroke-miterlimit="10" d="M568,261.1c-0.7-0.3-1.1-0.7-1.4-1.3
				c-0.3-0.5-0.4-1.2-0.4-1.9c0-0.7,0.1-1.5,0.2-2.3v-0.2c0.1-0.6,0-1.2-0.3-1.8c-0.3-0.6-0.8-1-1.3-1.5c-0.6-0.4-1.1-0.7-1.7-1
				c-0.6-0.2-1.1-0.3-1.6-0.3c-0.1,1-0.2,1.9-0.3,2.7c-0.1,0.8-0.2,1.7-0.4,2.8c-0.2,1.2-0.1,2.2,0.2,3.3c0.3,1,0.9,1.9,1.6,2.7
				c0.8,0.8,1.8,1.4,3.1,1.8c1.3,0.4,2.8,0.7,4.6,0.7c1.9,0,3.6-0.3,5.1-0.8c1.5-0.5,2.7-1.2,3.7-2.1c1-0.9,1.8-1.9,2.4-3
				c0.6-1.2,1-2.4,1.2-3.6l0.7-4.2c0.1-0.6-0.3-1.1-1-1.5c-0.7-0.4-1.7-0.8-2.8-1.2c-1.2-0.4-2.4-0.7-3.8-1.1
				c-1.4-0.3-2.6-0.7-3.8-1c-1.2-0.4-2.1-0.7-2.8-1.1c-0.7-0.4-1.1-0.9-1-1.4l0.4-2.7c0.1-0.7,0.3-1.4,0.5-2.1
				c0.3-0.7,0.6-1.3,1.1-1.9c0.5-0.6,1.1-1.1,1.9-1.4c0.8-0.4,1.7-0.6,2.9-0.6c1.2,0,2.1,0.2,2.8,0.5c0.7,0.3,1.1,0.7,1.4,1.3
				c0.3,0.5,0.4,1.2,0.4,1.9c0,0.7-0.1,1.5-0.2,2.3v0.2c-0.1,0.6,0,1.2,0.3,1.8c0.3,0.6,0.8,1,1.3,1.5c0.5,0.4,1.1,0.7,1.7,1
				c0.6,0.2,1.1,0.3,1.6,0.3c0.1-1,0.2-1.9,0.2-2.7c0.1-0.8,0.2-1.7,0.4-2.8c0.2-1.2,0.1-2.2-0.2-3.3c-0.3-1-0.9-1.9-1.6-2.7
				c-0.8-0.8-1.8-1.4-3.1-1.8c-1.3-0.4-2.8-0.7-4.6-0.7c-1.9,0-3.6,0.3-5.1,0.8c-1.5,0.5-2.7,1.2-3.7,2.1c-1,0.9-1.8,1.9-2.4,3
				c-0.6,1.2-1,2.4-1.2,3.6l-0.7,4.2c-0.1,0.6,0.2,1.1,1,1.5c0.8,0.4,1.7,0.8,2.9,1.2c1.2,0.4,2.4,0.7,3.8,1.1
				c1.4,0.3,2.6,0.7,3.8,1c1.2,0.4,2.1,0.7,2.8,1.2c0.7,0.4,1.1,0.9,1,1.3l-0.4,2.7c-0.1,0.7-0.3,1.4-0.5,2.1
				c-0.3,0.7-0.6,1.3-1.1,1.9c-0.5,0.6-1.1,1.1-1.9,1.4c-0.8,0.4-1.7,0.6-2.9,0.6C569.6,261.5,568.7,261.4,568,261.1z"/>
			<path fill="none" stroke="#FFFFFF" stroke-width="0.25" stroke-miterlimit="10" d="M608.5,232.3c0.1-0.7,0.3-1.4,0.5-2.1
				c0.3-0.7,0.6-1.3,1.1-1.9c0.5-0.6,1.1-1.1,1.9-1.4c0.7-0.4,1.7-0.6,2.8-0.6c1.2,0,2.1,0.2,2.8,0.5c0.7,0.3,1.1,0.7,1.4,1.3
				c0.3,0.5,0.4,1.2,0.4,1.9c0,0.7-0.1,1.5-0.2,2.3l-0.1,0.2c-0.1,0.6,0,1.2,0.4,1.8c0.3,0.6,0.8,1,1.3,1.5c0.5,0.4,1.1,0.7,1.7,1
				c0.6,0.2,1.2,0.3,1.6,0.3c0.1-1,0.2-1.9,0.2-2.7c0.1-0.8,0.2-1.7,0.4-2.8c0.2-1.2,0.1-2.2-0.2-3.3c-0.3-1-0.9-1.9-1.6-2.7
				c-0.8-0.8-1.8-1.4-3.1-1.8c-1.3-0.4-2.8-0.7-4.6-0.7c-1.9,0-3.6,0.3-5.1,0.8c-1.5,0.5-2.7,1.2-3.7,2.1c-1,0.9-1.8,1.9-2.4,3
				c-0.6,1.2-1,2.4-1.2,3.6l-3.7,22.6c-0.2,1.3-0.2,2.5,0,3.6c0.2,1.1,0.7,2.2,1.5,3c0.8,0.9,1.8,1.6,3.1,2.1
				c1.3,0.5,2.9,0.8,4.8,0.8c1.8,0,3.4-0.2,4.8-0.7c1.4-0.4,2.7-1,3.7-1.8c1-0.8,1.9-1.7,2.5-2.7c0.6-1,1-2.1,1.2-3.3
				c0.2-1,0.3-2,0.5-2.8c0.1-0.8,0.3-1.7,0.6-2.7c-0.4,0-1,0.1-1.7,0.3c-0.7,0.2-1.4,0.5-2,1c-0.7,0.4-1.3,0.9-1.8,1.5
				c-0.5,0.6-0.9,1.2-1,1.8v0.2c-0.1,0.8-0.3,1.5-0.6,2.3c-0.2,0.7-0.6,1.3-1,1.9c-0.5,0.5-1.1,1-1.8,1.3c-0.8,0.3-1.8,0.5-3,0.5
				c-1.1,0-2-0.2-2.7-0.6c-0.6-0.4-1.1-0.9-1.4-1.4c-0.3-0.6-0.5-1.2-0.5-1.9c0-0.7,0-1.4,0.1-2.1L608.5,232.3z"/>
			<path fill="none" stroke="#FFFFFF" stroke-width="0.25" stroke-miterlimit="10" d="M632.5,253.1c0.1-0.7,0.3-1.4,0.5-2.1
				c0.3-0.7,0.6-1.3,1.1-1.9c0.5-0.6,1.1-1.1,1.9-1.4c0.8-0.4,1.7-0.6,2.9-0.6c1.1,0,2,0.2,2.7,0.6c0.6,0.4,1.1,0.9,1.4,1.4
				c0.3,0.6,0.5,1.2,0.5,1.9c0,0.7,0,1.4-0.1,2.1l-0.4,2.5c-0.1,0.8-0.3,1.5-0.6,2.3c-0.2,0.7-0.6,1.3-1,1.9c-0.5,0.5-1.1,1-1.8,1.3
				c-0.8,0.3-1.8,0.5-3,0.5c-1.1,0-2-0.2-2.7-0.6c-0.6-0.4-1.1-0.9-1.4-1.4c-0.3-0.6-0.5-1.2-0.5-1.9c0-0.7,0-1.4,0.1-2.1
				L632.5,253.1z M628.6,243c-0.1,0.8-0.4,1.7-0.6,2.7c0.4,0,1-0.1,1.7-0.3c0.7-0.2,1.4-0.5,2-1c0.7-0.4,1.3-0.9,1.8-1.5
				c0.5-0.6,0.9-1.2,1-1.8v-0.2c0.1-0.8,0.3-1.5,0.5-2.3c0.2-0.7,0.6-1.3,1-1.9c0.5-0.5,1.1-1,1.9-1.3c0.8-0.3,1.8-0.5,3-0.5
				c1.1,0,2,0.2,2.7,0.6c0.6,0.4,1.1,0.9,1.4,1.4c0.3,0.6,0.5,1.2,0.5,1.9c0,0.7,0,1.4-0.1,2.1l-0.8,4.8c-0.5-0.6-1.3-1-2.4-1.3
				c-1-0.3-2-0.5-2.8-0.5c-1.9,0-3.6,0.3-5.1,0.8c-1.5,0.5-2.7,1.2-3.7,2.1c-1,0.9-1.8,1.9-2.4,3c-0.6,1.2-1,2.4-1.2,3.6l-0.3,1.8
				c-0.2,1.3-0.2,2.5,0,3.6c0.2,1.2,0.7,2.2,1.5,3c0.7,0.9,1.8,1.6,3.1,2.1c1.3,0.5,2.9,0.8,4.8,0.8c1.6,0,3-0.2,4.3-0.5
				c1.3-0.3,2.4-0.8,3.4-1.5c0.3,0.7,0.7,1.2,1.3,1.5c0.6,0.3,1.2,0.5,1.9,0.5l3.8-23.5c0.2-1.3,0.2-2.5,0-3.6
				c-0.2-1.2-0.7-2.2-1.5-3c-0.7-0.9-1.8-1.6-3.1-2.1c-1.3-0.5-2.9-0.8-4.8-0.8c-1.8,0-3.4,0.2-4.8,0.7c-1.4,0.4-2.7,1-3.7,1.8
				c-1,0.8-1.9,1.7-2.5,2.7c-0.6,1-1.1,2.1-1.2,3.3C628.9,241.2,628.7,242.2,628.6,243z"/>
			<path fill="none" stroke="#FFFFFF" stroke-width="0.25" stroke-miterlimit="10" d="M662,239.1c0.2-1.3,0.7-2.3,1.3-3
				c0.7-0.7,1.5-1.1,2.6-1.1c1,0,1.7,0.4,2.2,1.1c0.4,0.7,0.5,1.7,0.4,3l-3.2,19.7c-0.3,2.1-0.8,4.1-1.5,6c0.7,0,1.4-0.2,2.1-0.5
				c0.7-0.3,1.5-0.8,2.2-1.5c0.7-0.7,1.3-1.5,1.8-2.4c0.5-1,0.9-2.1,1.1-3.4l2.9-17.9c0.2-1.3,0.7-2.3,1.3-3
				c0.7-0.7,1.5-1.1,2.6-1.1c2.1,0,3,1.4,2.5,4.2l-3.2,19.7c-0.3,2.1-0.8,4.1-1.4,6c0.6,0,1.3-0.2,2.1-0.5c0.7-0.3,1.5-0.8,2.2-1.5
				c0.7-0.7,1.3-1.5,1.8-2.4c0.5-1,0.9-2.1,1.1-3.4l2.9-17.6c0.4-2.5-0.1-4.4-1.4-5.7c-1.3-1.3-3.3-2-6.1-2c-2.5,0-4.5,0.5-6.1,1.6
				c-1.3-1.1-3.2-1.6-5.8-1.6c-2.3,0-4.3,0.5-6,1.5c-0.5-0.5-1-0.9-1.6-1.1c-0.6-0.2-1.2-0.4-1.7-0.4c0.1,1,0.1,1.9,0,2.9
				c-0.1,1-0.2,2-0.4,3l-3.5,21.1c-0.3,2.1-0.8,4.1-1.5,6c0.7,0,1.4-0.2,2.1-0.5c0.7-0.3,1.5-0.8,2.2-1.5c0.7-0.7,1.3-1.5,1.8-2.4
				c0.5-1,0.9-2.1,1.1-3.4L662,239.1z"/>
			<path fill="none" stroke="#FFFFFF" stroke-width="0.25" stroke-miterlimit="10" d="M696.7,240.6c0.1-0.6,0.3-1.3,0.6-1.9
				c0.3-0.7,0.7-1.3,1.2-1.8c0.5-0.5,1.1-1,1.9-1.3c0.8-0.3,1.7-0.5,2.7-0.5c1.1,0,2,0.2,2.7,0.6c0.6,0.4,1.1,0.9,1.4,1.4
				c0.3,0.6,0.5,1.2,0.5,1.9c0,0.7,0,1.4-0.1,2.1l-2.4,14.6c-0.1,0.7-0.3,1.4-0.5,2.1c-0.3,0.7-0.6,1.3-1.1,1.9
				c-0.5,0.6-1.1,1.1-1.9,1.4c-0.8,0.4-1.7,0.6-2.9,0.6c-1.1,0-2-0.2-2.7-0.6c-0.6-0.4-1.1-0.9-1.4-1.4c-0.3-0.6-0.5-1.2-0.5-1.9
				c0-0.7,0-1.4,0.1-2.1L696.7,240.6z M684.3,280.7c0.6,0,1.3-0.2,2.1-0.5c0.8-0.3,1.5-0.8,2.2-1.5c0.7-0.7,1.3-1.5,1.9-2.4
				c0.5-1,0.9-2.1,1.1-3.4l1.4-9.1c0.7,0.3,1.5,0.6,2.4,0.7c0.9,0.2,1.9,0.2,2.9,0.2c1.9,0,3.6-0.3,5-0.8c1.5-0.5,2.7-1.2,3.7-2.1
				c1-0.9,1.8-1.9,2.4-3c0.6-1.2,1-2.4,1.2-3.6l2.3-14c0.2-1.3,0.2-2.5,0-3.6c-0.2-1.2-0.7-2.2-1.5-3c-0.7-0.9-1.8-1.6-3.1-2.1
				c-1.3-0.5-2.9-0.8-4.8-0.8c-1.6,0-3.1,0.2-4.3,0.5c-1.3,0.4-2.4,0.9-3.4,1.5c-0.5-0.7-1.1-1.2-1.8-1.5c-0.7-0.4-1.3-0.5-2-0.5
				c0.1,1,0.1,1.9,0,2.9c-0.1,1-0.2,2-0.4,3l-6,37C685.4,276.7,684.9,278.7,684.3,280.7z"/>
			<path fill="#FFFFFF" d="M283.2,78.4c-1.7,0.8-4.4,2.1-7.3,4.6c-2.4,2.1-4.4,4.6-6.2,7.7c-1.8,3.1-3,6.6-3.7,10.6l-14.2,83.2
				c-0.7,4.2-2.2,7.5-4.5,9.7c-2.2,2.2-5.1,3.4-8.6,3.4c-3.4,0-5.8-1.1-7.3-3.4c-1.5-2.2-1.9-5.4-1.3-9.5l15.3-89
				c0.6-3.2,1.3-6.4,2.1-9.5c0.8-3.1,1.8-6.2,3-9.2c-2.2,0-4.5,0.5-7,1.5c-2.5,1-4.9,2.5-7.3,4.6c-2.4,2.1-4.4,4.6-6.2,7.7
				c-1.8,3.1-3,6.6-3.7,10.6L212,184.6c-0.6,4.1-2,7.3-4.3,9.5c-2.2,2.2-5.1,3.4-8.6,3.4c-7,0-9.8-4.4-8.4-13.1l15.1-88.8
				c0,0,0-0.1,0-0.1c0.7-3.5,1-4.4,0.9-4.5c-0.3-0.1-1.1,2.6-3.6,4.6c-1.2,1-2.5,1.4-3.3,1.7c-0.8,0.3-2.7,0.9-5.1,0.8
				c-3.3-0.1-4.2-1.6-5.8-0.9c-0.8,0.3-1.8,1.2-2.3,4.1l-14.2,82.3c-1.3,7.9,0.2,13.9,4.6,18.1c4.4,4.2,11.2,6.3,20.3,6.3
				c8.2,0,15.1-1.7,20.6-5.1c4.4,3.4,10.7,5.1,19.1,5.1c9.1,0,16.5-2.1,22.3-6.3c5.8-4.2,9.3-10.2,10.6-18.1l15.1-87.9
				c0.6-3.2,1.3-6.4,2.1-9.5c0.5-1.8,0.6-2.4,0.9-3.1c1.3-3.5,3.3-6,4.8-7.5C288.7,76.1,285.4,77.3,283.2,78.4"/>
			<path fill="none" stroke="#FFFFFF" stroke-width="3" stroke-miterlimit="10" d="M283.2,78.4c-1.7,0.8-4.4,2.1-7.3,4.6
				c-2.4,2.1-4.4,4.6-6.2,7.7c-1.8,3.1-3,6.6-3.7,10.6l-14.2,83.2c-0.7,4.2-2.2,7.5-4.5,9.7c-2.2,2.2-5.1,3.4-8.6,3.4
				c-3.4,0-5.8-1.1-7.3-3.4c-1.5-2.2-1.9-5.4-1.3-9.5l15.3-89c0.6-3.2,1.3-6.4,2.1-9.5c0.8-3.1,1.8-6.2,3-9.2c-2.2,0-4.5,0.5-7,1.5
				c-2.5,1-4.9,2.5-7.3,4.6c-2.4,2.1-4.4,4.6-6.2,7.7c-1.8,3.1-3,6.6-3.7,10.6L212,184.6c-0.6,4.1-2,7.3-4.3,9.5
				c-2.2,2.2-5.1,3.4-8.6,3.4c-7,0-9.8-4.4-8.4-13.1l15.1-88.8c0,0,0-0.1,0-0.1c0.7-3.5,1-4.4,0.9-4.5c-0.3-0.1-1.1,2.6-3.6,4.6
				c-1.2,1-2.5,1.4-3.3,1.7c-0.8,0.3-2.7,0.9-5.1,0.8c-3.3-0.1-4.2-1.6-5.8-0.9c-0.8,0.3-1.8,1.2-2.3,4.1l-14.2,82.3
				c-1.3,7.9,0.2,13.9,4.6,18.1c4.4,4.2,11.2,6.3,20.3,6.3c8.2,0,15.1-1.7,20.6-5.1c4.4,3.4,10.7,5.1,19.1,5.1
				c9.1,0,16.5-2.1,22.3-6.3c5.8-4.2,9.3-10.2,10.6-18.1l15.1-87.9c0.6-3.2,1.3-6.4,2.1-9.5c0.5-1.8,0.6-2.4,0.9-3.1
				c1.3-3.5,3.3-6,4.8-7.5C288.7,76.1,285.4,77.3,283.2,78.4z"/>
			<path fill="#FFFFFF" d="M312,102c-0.8,0.3-1.5,0.6-2.3,1c-3.5,2-6.9,5.5-7.6,9.3c-2.7,13.4-10,56.1-10,56.1
				c-1.6,14.7-6.2,27.8-17.1,38.7c6.2-0.3,10.7-0.9,12-1.2c1.4-0.3,2.7-0.7,2.7-0.7c0.3-0.1,0.6-0.2,0.9-0.3c2.5-1,4.9-2.4,7.2-4.4
				c2.3-2,4.3-4.4,6.1-7.3c1.8-2.9,3-6.3,3.7-10.1c5.1-27.9,10.1-55.9,15.2-83.8C320.7,99.6,315.7,100.6,312,102"/>
			<path fill="none" stroke="#FFFFFF" stroke-width="3" stroke-miterlimit="10" d="M312,102c-0.8,0.3-1.5,0.6-2.3,1
				c-3.5,2-6.9,5.5-7.6,9.3c-2.7,13.4-10,56.1-10,56.1c-1.6,14.7-6.2,27.8-17.1,38.7c6.2-0.3,10.7-0.9,12-1.2
				c1.4-0.3,2.7-0.7,2.7-0.7c0.3-0.1,0.6-0.2,0.9-0.3c2.5-1,4.9-2.4,7.2-4.4c2.3-2,4.3-4.4,6.1-7.3c1.8-2.9,3-6.3,3.7-10.1
				c5.1-27.9,10.1-55.9,15.2-83.8C320.7,99.6,315.7,100.6,312,102z"/>
			<path fill="#FFFFFF" d="M407.8,127.7c-0.7,4-2.1,7.8-4.1,11.4c-2,3.6-4.7,6.8-8.1,9.5c-3.4,2.7-7.5,4.9-12.4,6.5
				c-4.9,1.6-10.4,2.4-16.7,2.4c-6.8,0-12.6-1-17.5-3l-5.1,28.8c-0.7,4-2,7.5-3.7,10.6c-1.8,3.1-3.8,5.6-6.1,7.7
				c-0.9,0.8-3.4,2.9-7.2,4.6c-5.4,2.4-10.4,2.6-13.4,2.5c2.3-1.7,6.3-5.2,9-11.1c1.5-3.3,2.1-6.3,2.3-8.6l14.2-82.3
				c0.7-4,2.1-7.8,4.1-11.4c2-3.6,4.7-6.8,8.1-9.5c3.4-2.7,7.5-4.9,12.4-6.5c5.9-2,12.1-3,18.3-2.1c5.8,0.9,10.3,4,15.6,6.1
				c4.6,1.8,6.8,2.9,9,2.5c1.3-0.2,3.5-1.7,5.6-3.5c1.4-1.2,2.2-2.2,2.7-2c0.6,0.3-0.1,2.8-0.3,3.6c-1.3,4.6-2.5,9.3-3.2,14
				C409.9,107.9,409.6,117.9,407.8,127.7 M353.4,128.7c-0.4,2.1-0.5,4.3-0.5,6.5c0.1,2.2,0.6,4.2,1.6,6c1,1.8,2.6,3.3,4.7,4.5
				c2.1,1.2,5.1,1.8,8.8,1.8c3.8,0,6.9-0.6,9.5-1.8c2.5-1.2,4.6-2.7,6.3-4.5c1.6-1.8,2.9-3.8,3.7-6c0.8-2.2,1.5-4.3,1.8-6.5l4-22.8
				c0.4-2.1,0.5-4.3,0.4-6.5c-0.1-2.2-0.7-4.2-1.7-6c-1-1.8-2.6-3.3-4.7-4.5c-2.1-1.2-5.1-1.8-8.8-1.8c-3.8,0-6.9,0.6-9.4,1.8
				c-2.5,1.2-4.5,2.7-6.2,4.5c-1.6,1.8-2.9,3.8-3.7,6c-0.8,2.2-1.5,4.3-1.8,6.5L353.4,128.7z"/>
			<path fill="none" stroke="#FFFFFF" stroke-width="3" stroke-miterlimit="10" d="M407.8,127.7c-0.7,4-2.1,7.8-4.1,11.4
				c-2,3.6-4.7,6.8-8.1,9.5c-3.4,2.7-7.5,4.9-12.4,6.5c-4.9,1.6-10.4,2.4-16.7,2.4c-6.8,0-12.6-1-17.5-3l-5.1,28.8
				c-0.7,4-2,7.5-3.7,10.6c-1.8,3.1-3.8,5.6-6.1,7.7c-0.9,0.8-3.4,2.9-7.2,4.6c-5.4,2.4-10.4,2.6-13.4,2.5c2.3-1.7,6.3-5.2,9-11.1
				c1.5-3.3,2.1-6.3,2.3-8.6l14.2-82.3c0.7-4,2.1-7.8,4.1-11.4c2-3.6,4.7-6.8,8.1-9.5c3.4-2.7,7.5-4.9,12.4-6.5
				c5.9-2,12.1-3,18.3-2.1c5.8,0.9,10.3,4,15.6,6.1c4.6,1.8,6.8,2.9,9,2.5c1.3-0.2,3.5-1.7,5.6-3.5c1.4-1.2,2.2-2.2,2.7-2
				c0.6,0.3-0.1,2.8-0.3,3.6c-1.3,4.6-2.5,9.3-3.2,14C409.9,107.9,409.6,117.9,407.8,127.7z M353.4,128.7c-0.4,2.1-0.5,4.3-0.5,6.5
				c0.1,2.2,0.6,4.2,1.6,6c1,1.8,2.6,3.3,4.7,4.5c2.1,1.2,5.1,1.8,8.8,1.8c3.8,0,6.9-0.6,9.5-1.8c2.5-1.2,4.6-2.7,6.3-4.5
				c1.6-1.8,2.9-3.8,3.7-6c0.8-2.2,1.5-4.3,1.8-6.5l4-22.8c0.4-2.1,0.5-4.3,0.4-6.5c-0.1-2.2-0.7-4.2-1.7-6c-1-1.8-2.6-3.3-4.7-4.5
				c-2.1-1.2-5.1-1.8-8.8-1.8c-3.8,0-6.9,0.6-9.4,1.8c-2.5,1.2-4.5,2.7-6.2,4.5c-1.6,1.8-2.9,3.8-3.7,6c-0.8,2.2-1.5,4.3-1.8,6.5
				L353.4,128.7z"/>
			<path fill="#FFFFFF" d="M471.9,178.8c-0.4,2.1-0.5,4.3-0.5,6.5c0.1,2.2,0.6,4.2,1.6,6c1,1.8,2.6,3.3,4.7,4.5
				c2.1,1.2,5.1,1.8,8.8,1.8c4,0,7.3-0.5,9.8-1.5c2.5-1,4.6-2.3,6.1-4c1.5-1.7,2.7-3.6,3.5-5.9c0.8-2.2,1.4-4.6,1.9-7.1v-0.7
				c0.4-2,1.4-3.9,3.2-5.6c1.8-1.7,3.7-3.3,5.9-4.6c2.2-1.3,4.4-2.3,6.7-3c2.3-0.7,4.2-1,5.6-1c-0.9,3.1-1.5,6-2,8.5
				c-0.5,2.6-1,5.5-1.6,8.7c-0.6,3.6-2,7-4.1,10.3c-2.1,3.2-4.9,6.1-8.4,8.5c-3.5,2.4-7.6,4.3-12.4,5.7c-4.8,1.4-10.1,2.1-15.9,2.1
				c-6.3,0-11.6-0.8-15.9-2.4c-4.3-1.6-7.7-3.8-10.2-6.5c-2.5-2.7-4.1-5.9-4.9-9.5c-0.8-3.6-0.8-7.4-0.1-11.4l12.2-71.1
				c0.7-4,2.1-7.8,4.1-11.4c2-3.6,4.7-6.8,8.1-9.5c3.4-2.7,7.5-4.9,12.4-6.5c4.9-1.6,10.4-2.4,16.7-2.4c5.8,0,10.9,0.7,15.2,2.1
				c4.3,1.4,7.8,3.3,10.4,5.7c2.6,2.4,4.4,5.3,5.5,8.5c1,3.2,1.2,6.7,0.6,10.3c-0.6,3.2-1.1,6.1-1.4,8.7c-0.3,2.6-0.6,5.4-0.8,8.5
				c-1.5,0-3.2-0.3-5.3-1c-2.1-0.7-4-1.7-5.7-3c-1.8-1.3-3.2-2.8-4.4-4.6c-1.2-1.7-1.5-3.6-1.2-5.6l0.2-0.7c0.4-2.5,0.5-4.9,0.5-7.1
				c0-2.2-0.5-4.2-1.5-5.9c-1-1.7-2.5-3-4.7-4c-2.2-1-5.3-1.5-9.3-1.5c-3.8,0-6.9,0.6-9.4,1.8c-2.5,1.2-4.6,2.7-6.2,4.5
				c-1.6,1.8-2.9,3.8-3.7,6c-0.9,2.2-1.5,4.3-1.8,6.5L471.9,178.8z"/>
			<path fill="none" stroke="#FFFFFF" stroke-width="3" stroke-miterlimit="10" d="M471.9,178.8c-0.4,2.1-0.5,4.3-0.5,6.5
				c0.1,2.2,0.6,4.2,1.6,6c1,1.8,2.6,3.3,4.7,4.5c2.1,1.2,5.1,1.8,8.8,1.8c4,0,7.3-0.5,9.8-1.5c2.5-1,4.6-2.3,6.1-4
				c1.5-1.7,2.7-3.6,3.5-5.9c0.8-2.2,1.4-4.6,1.9-7.1v-0.7c0.4-2,1.4-3.9,3.2-5.6c1.8-1.7,3.7-3.3,5.9-4.6c2.2-1.3,4.4-2.3,6.7-3
				c2.3-0.7,4.2-1,5.6-1c-0.9,3.1-1.5,6-2,8.5c-0.5,2.6-1,5.5-1.6,8.7c-0.6,3.6-2,7-4.1,10.3c-2.1,3.2-4.9,6.1-8.4,8.5
				c-3.5,2.4-7.6,4.3-12.4,5.7c-4.8,1.4-10.1,2.1-15.9,2.1c-6.3,0-11.6-0.8-15.9-2.4c-4.3-1.6-7.7-3.8-10.2-6.5
				c-2.5-2.7-4.1-5.9-4.9-9.5c-0.8-3.6-0.8-7.4-0.1-11.4l12.2-71.1c0.7-4,2.1-7.8,4.1-11.4c2-3.6,4.7-6.8,8.1-9.5
				c3.4-2.7,7.5-4.9,12.4-6.5c4.9-1.6,10.4-2.4,16.7-2.4c5.8,0,10.9,0.7,15.2,2.1c4.3,1.4,7.8,3.3,10.4,5.7c2.6,2.4,4.4,5.3,5.5,8.5
				c1,3.2,1.2,6.7,0.6,10.3c-0.6,3.2-1.1,6.1-1.4,8.7c-0.3,2.6-0.6,5.4-0.8,8.5c-1.5,0-3.2-0.3-5.3-1c-2.1-0.7-4-1.7-5.7-3
				c-1.8-1.3-3.2-2.8-4.4-4.6c-1.2-1.7-1.5-3.6-1.2-5.6l0.2-0.7c0.4-2.5,0.5-4.9,0.5-7.1c0-2.2-0.5-4.2-1.5-5.9c-1-1.7-2.5-3-4.7-4
				c-2.2-1-5.3-1.5-9.3-1.5c-3.8,0-6.9,0.6-9.4,1.8c-2.5,1.2-4.6,2.7-6.2,4.5c-1.6,1.8-2.9,3.8-3.7,6c-0.9,2.2-1.5,4.3-1.8,6.5
				L471.9,178.8z"/>
			<path fill="#FFFFFF" d="M552.5,130.5c0.6-3.6,2-7,4.1-10.3c2.1-3.2,4.9-6.1,8.4-8.5c3.5-2.4,7.6-4.3,12.4-5.7
				c4.8-1.4,10.1-2.1,15.9-2.1c6.3,0,11.6,0.8,15.9,2.4c4.3,1.6,7.7,3.8,10.2,6.5c2.5,2.7,4.1,5.9,4.9,9.5c0.8,3.6,0.8,7.4,0.1,11.4
				l-12.6,73.9c-2.2,0-4.2-0.5-6.2-1.5c-1.9-1-3.4-2.6-4.4-4.7c-3.3,2-7.1,3.5-11.4,4.6c-4.3,1.1-9.1,1.6-14.3,1.6
				c-6.3,0-11.6-0.8-15.9-2.4c-4.3-1.6-7.7-3.8-10.2-6.5c-2.5-2.7-4.1-5.9-4.9-9.5c-0.8-3.6-0.8-7.4-0.1-11.4l0.9-5.8
				c0.7-4,2.1-7.8,4.1-11.4c2-3.6,4.7-6.8,8.1-9.5c3.4-2.7,7.5-4.9,12.4-6.5c4.9-1.6,10.4-2.4,16.7-2.4c2.8,0,5.9,0.5,9.3,1.6
				c3.4,1.1,6,2.5,7.8,4.2l2.5-15c0.4-2.1,0.5-4.3,0.4-6.5c-0.1-2.2-0.7-4.2-1.6-6c-1-1.8-2.5-3.3-4.6-4.5c-2.1-1.2-5.1-1.8-8.8-1.8
				c-4,0-7.3,0.5-9.8,1.5c-2.5,1-4.6,2.3-6.2,4c-1.6,1.7-2.7,3.6-3.5,5.9c-0.7,2.2-1.3,4.6-1.8,7.1v0.7c-0.4,2-1.4,3.9-3.2,5.6
				c-1.8,1.7-3.7,3.3-5.9,4.6c-2.2,1.3-4.4,2.3-6.7,3c-2.3,0.7-4.2,1-5.6,1c0.8-3.1,1.5-6,2-8.5
				C551.4,136.7,551.9,133.8,552.5,130.5 M562.5,178.8c-0.4,2.1-0.5,4.3-0.5,6.5c0.1,2.2,0.6,4.2,1.6,6c1,1.8,2.6,3.3,4.7,4.5
				c2.1,1.2,5.1,1.8,8.8,1.8c4,0,7.3-0.5,9.8-1.5c2.5-1,4.6-2.3,6.1-4c1.5-1.7,2.7-3.6,3.5-5.9c0.8-2.2,1.4-4.6,1.9-7.1l1.3-7.9
				c0.4-2.1,0.5-4.3,0.4-6.5c-0.1-2.2-0.7-4.2-1.6-6c-1-1.8-2.5-3.3-4.6-4.5c-2.1-1.2-5.1-1.8-8.8-1.8c-3.8,0-6.9,0.6-9.5,1.8
				c-2.5,1.2-4.6,2.7-6.3,4.5c-1.6,1.8-2.9,3.8-3.7,6c-0.8,2.2-1.5,4.3-1.8,6.5L562.5,178.8z"/>
			<path fill="none" stroke="#FFFFFF" stroke-width="3" stroke-miterlimit="10" d="M552.5,130.5c0.6-3.6,2-7,4.1-10.3
				c2.1-3.2,4.9-6.1,8.4-8.5c3.5-2.4,7.6-4.3,12.4-5.7c4.8-1.4,10.1-2.1,15.9-2.1c6.3,0,11.6,0.8,15.9,2.4c4.3,1.6,7.7,3.8,10.2,6.5
				c2.5,2.7,4.1,5.9,4.9,9.5c0.8,3.6,0.8,7.4,0.1,11.4l-12.6,73.9c-2.2,0-4.2-0.5-6.2-1.5c-1.9-1-3.4-2.6-4.4-4.7
				c-3.3,2-7.1,3.5-11.4,4.6c-4.3,1.1-9.1,1.6-14.3,1.6c-6.3,0-11.6-0.8-15.9-2.4c-4.3-1.6-7.7-3.8-10.2-6.5
				c-2.5-2.7-4.1-5.9-4.9-9.5c-0.8-3.6-0.8-7.4-0.1-11.4l0.9-5.8c0.7-4,2.1-7.8,4.1-11.4c2-3.6,4.7-6.8,8.1-9.5
				c3.4-2.7,7.5-4.9,12.4-6.5c4.9-1.6,10.4-2.4,16.7-2.4c2.8,0,5.9,0.5,9.3,1.6c3.4,1.1,6,2.5,7.8,4.2l2.5-15
				c0.4-2.1,0.5-4.3,0.4-6.5c-0.1-2.2-0.7-4.2-1.6-6c-1-1.8-2.5-3.3-4.6-4.5c-2.1-1.2-5.1-1.8-8.8-1.8c-4,0-7.3,0.5-9.8,1.5
				c-2.5,1-4.6,2.3-6.2,4c-1.6,1.7-2.7,3.6-3.5,5.9c-0.7,2.2-1.3,4.6-1.8,7.1v0.7c-0.4,2-1.4,3.9-3.2,5.6c-1.8,1.7-3.7,3.3-5.9,4.6
				c-2.2,1.3-4.4,2.3-6.7,3c-2.3,0.7-4.2,1-5.6,1c0.8-3.1,1.5-6,2-8.5C551.4,136.7,551.9,133.8,552.5,130.5z M562.5,178.8
				c-0.4,2.1-0.5,4.3-0.5,6.5c0.1,2.2,0.6,4.2,1.6,6c1,1.8,2.6,3.3,4.7,4.5c2.1,1.2,5.1,1.8,8.8,1.8c4,0,7.3-0.5,9.8-1.5
				c2.5-1,4.6-2.3,6.1-4c1.5-1.7,2.7-3.6,3.5-5.9c0.8-2.2,1.4-4.6,1.9-7.1l1.3-7.9c0.4-2.1,0.5-4.3,0.4-6.5c-0.1-2.2-0.7-4.2-1.6-6
				c-1-1.8-2.5-3.3-4.6-4.5c-2.1-1.2-5.1-1.8-8.8-1.8c-3.8,0-6.9,0.6-9.5,1.8c-2.5,1.2-4.6,2.7-6.3,4.5c-1.6,1.8-2.9,3.8-3.7,6
				c-0.8,2.2-1.5,4.3-1.8,6.5L562.5,178.8z"/>
			<path fill="#FFFFFF" d="M740.2,239.8c5.6-19.8,18.1-106.5,20.2-117.1c0.2-0.9,0.9-4.6,1.3-9.5c0.2-3.1,0.2-6.2,0-9.2
				c2.2,0,4.4,0.6,6.6,1.7c2.2,1.1,4.1,2.7,5.8,4.9c3.3-2.1,7-3.7,11.3-4.9c4.2-1.1,9-1.7,14.4-1.7c6.3,0,11.6,0.8,15.9,2.4
				c4.3,1.6,7.7,3.8,10.2,6.5c2.5,2.7,4.1,5.9,4.9,9.5c0.8,3.6,0.8,7.4,0.1,11.4l-7.5,44c-0.7,4-2.1,7.8-4.1,11.4
				c-2,3.6-4.7,6.8-8.1,9.5c-3.4,2.7-7.5,4.9-12.4,6.5c-4.9,1.6-10.4,2.4-16.7,2.4c-3.5,0-6.7-0.3-9.7-0.7c-2.9-0.5-5.6-1.2-8-2.2
				l-4.7,28.4c-0.7,4-2,7.5-3.8,10.6c-1.4,2.4-3,5.2-6.2,7.7c-2.6,2-5,2.9-7,3.6c-2.6,0.9-7.1,2.1-13,1.7c2-1.8,4.6-4.5,6.8-8.2
				C738.7,244.9,739.7,241.7,740.2,239.8 M769,178.8c-0.4,2.1-0.5,4.3-0.5,6.5c0.1,2.2,0.6,4.2,1.6,6c1,1.8,2.6,3.3,4.7,4.5
				c2.1,1.2,5.1,1.8,8.8,1.8c3.8,0,6.9-0.6,9.5-1.8c2.6-1.2,4.6-2.7,6.3-4.5c1.6-1.8,2.9-3.8,3.7-6c0.9-2.2,1.5-4.3,1.8-6.5
				l7.8-45.8c0.4-2.1,0.5-4.3,0.4-6.5c-0.1-2.2-0.7-4.2-1.6-6c-1-1.8-2.5-3.3-4.6-4.5c-2.1-1.2-5.1-1.8-8.8-1.8
				c-3.5,0-6.5,0.5-9,1.6c-2.5,1.1-4.6,2.4-6.2,4.1c-1.6,1.7-2.9,3.6-3.9,5.6c-1,2.1-1.6,4.1-2,6.1L769,178.8z"/>
			<path fill="none" stroke="#FFFFFF" stroke-width="3" stroke-miterlimit="10" d="M740.2,239.8c5.6-19.8,18.1-106.5,20.2-117.1
				c0.2-0.9,0.9-4.6,1.3-9.5c0.2-3.1,0.2-6.2,0-9.2c2.2,0,4.4,0.6,6.6,1.7c2.2,1.1,4.1,2.7,5.8,4.9c3.3-2.1,7-3.7,11.3-4.9
				c4.2-1.1,9-1.7,14.4-1.7c6.3,0,11.6,0.8,15.9,2.4c4.3,1.6,7.7,3.8,10.2,6.5c2.5,2.7,4.1,5.9,4.9,9.5c0.8,3.6,0.8,7.4,0.1,11.4
				l-7.5,44c-0.7,4-2.1,7.8-4.1,11.4c-2,3.6-4.7,6.8-8.1,9.5c-3.4,2.7-7.5,4.9-12.4,6.5c-4.9,1.6-10.4,2.4-16.7,2.4
				c-3.5,0-6.7-0.3-9.7-0.7c-2.9-0.5-5.6-1.2-8-2.2l-4.7,28.4c-0.7,4-2,7.5-3.8,10.6c-1.4,2.4-3,5.2-6.2,7.7c-2.6,2-5,2.9-7,3.6
				c-2.6,0.9-7.1,2.1-13,1.7c2-1.8,4.6-4.5,6.8-8.2C738.7,244.9,739.7,241.7,740.2,239.8z M769,178.8c-0.4,2.1-0.5,4.3-0.5,6.5
				c0.1,2.2,0.6,4.2,1.6,6c1,1.8,2.6,3.3,4.7,4.5c2.1,1.2,5.1,1.8,8.8,1.8c3.8,0,6.9-0.6,9.5-1.8c2.6-1.2,4.6-2.7,6.3-4.5
				c1.6-1.8,2.9-3.8,3.7-6c0.9-2.2,1.5-4.3,1.8-6.5l7.8-45.8c0.4-2.1,0.5-4.3,0.4-6.5c-0.1-2.2-0.7-4.2-1.6-6
				c-1-1.8-2.5-3.3-4.6-4.5c-2.1-1.2-5.1-1.8-8.8-1.8c-3.5,0-6.5,0.5-9,1.6c-2.5,1.1-4.6,2.4-6.2,4.1c-1.6,1.7-2.9,3.6-3.9,5.6
				c-1,2.1-1.6,4.1-2,6.1L769,178.8z"/>
		</g>
		<g>
			<path fill="#FFFFFF" d="M927.9,81.8l8.3-23c1.6-4,10.2-7.6,16.3-6.8l-10.7,29.8h17.8l8.1-23c1.6-4,10.4-7.6,16.3-6.8l-10.6,29.8
				h15.1c-1,6.1-7.6,13.5-11.6,13.5h-8.3l-9.3,27h15.1c-1.2,6.1-7.6,13.5-11.6,13.5h-8.3l-9.3,26.7c-1.7,4.2-10.4,8-16.3,6.8
				l11.8-33.4h-17.7l-9.5,26.7c-1.6,4.2-10.2,8-16.1,6.8l11.8-33.4h-13.5c1-6.1,7.6-13.5,11.6-13.5h6.6l9.5-27H908
				c1-6.1,7.6-13.5,11.8-13.5H927.9z M927.6,122.4h17.8l9.3-27h-17.7L927.6,122.4z"/>
		</g>
		<g>
			<path fill="none" stroke="#FFFFFF" stroke-width="3" stroke-miterlimit="10" d="M937.1,95.4h17.7l-9.3,27h-17.8L937.1,95.4z
				 M919.8,81.8c-1,0-2.2,0.4-3.5,1.3c-1.3,0.9-2.5,1.9-3.6,3.2c-1.2,1.3-2.2,2.7-3,4.3c-0.9,1.6-1.4,3.2-1.6,4.7h15.2l-9.5,27h-6.6
				c-1,0-2.2,0.4-3.4,1.3c-1.2,0.9-2.4,1.9-3.5,3.2c-1.2,1.3-2.2,2.7-3,4.3c-0.9,1.6-1.4,3.2-1.6,4.7H909l-11.8,33.4
				c1.5,0.3,3.1,0.4,4.8,0.1c1.7-0.3,3.3-0.8,4.8-1.5c1.6-0.7,2.9-1.5,4.2-2.4c1.2-0.9,2-1.9,2.3-2.9l9.5-26.7h17.7l-11.8,33.4
				c1.5,0.3,3.1,0.4,4.8,0.1c1.7-0.3,3.3-0.8,4.8-1.5s2.9-1.5,4.2-2.4c1.2-0.9,2-1.9,2.5-2.9l9.3-26.7h8.3c1,0,2.2-0.4,3.4-1.3
				c1.2-0.9,2.4-1.9,3.5-3.2c1.1-1.3,2.1-2.7,2.9-4.3c0.9-1.6,1.5-3.2,1.8-4.7h-15.1l9.3-27h8.3c1,0,2.2-0.4,3.4-1.3
				c1.2-0.9,2.4-1.9,3.5-3.2c1.2-1.3,2.2-2.7,3-4.3c0.9-1.6,1.4-3.2,1.6-4.7h-15.1L984,52.1c-1.5-0.2-3.1-0.2-4.8,0.1
				c-1.7,0.3-3.4,0.8-4.9,1.5c-1.6,0.7-2.9,1.5-4.2,2.3c-1.2,0.9-2,1.8-2.3,2.9l-8.1,23h-17.8l10.7-29.8c-1.5-0.2-3.1-0.2-4.8,0.1
				c-1.7,0.3-3.4,0.8-4.9,1.5c-1.6,0.7-2.9,1.5-4.2,2.3c-1.2,0.9-2,1.8-2.3,2.9l-8.3,23H919.8z"/>
			<path fill="#FFFFFF" d="M1022.9,63c-3.8,2.5-7.6,3.7-11.5,3.7c-4.8,0-9.2-2-13.2-6l31.4-20.1c1.7-1.2,3.2-2.1,4.6-2.9
				c1.4-0.8,2.7-1.4,4.1-1.8c1.4-0.4,2.8-0.6,4.2-0.8c1.4-0.1,3-0.2,4.9-0.2l-19.7,111c-0.2,2.3-1,6.6-4,11c-0.8,1.1-3,4.2-7,6.8
				c-3.2,2.1-6.1,2.8-7.8,3.3c-4.6,1.2-8.7,1.1-11.8,0.7c1.4-1.5,3-3.2,4.5-5.3c2.8-3.9,4.6-7.6,5.7-10.6L1022.9,63z"/>
			<path fill="none" stroke="#FFFFFF" stroke-width="3" stroke-miterlimit="10" d="M1022.9,63c-3.8,2.5-7.6,3.7-11.5,3.7
				c-4.8,0-9.2-2-13.2-6l31.4-20.1c1.7-1.2,3.2-2.1,4.6-2.9c1.4-0.8,2.7-1.4,4.1-1.8c1.4-0.4,2.8-0.6,4.2-0.8c1.4-0.1,3-0.2,4.9-0.2
				l-19.7,111c-0.2,2.3-1,6.6-4,11c-0.8,1.1-3,4.2-7,6.8c-3.2,2.1-6.1,2.8-7.8,3.3c-4.6,1.2-8.7,1.1-11.8,0.7c1.4-1.5,3-3.2,4.5-5.3
				c2.8-3.9,4.6-7.6,5.7-10.6L1022.9,63z"/>
			<path fill="#FFFFFF" d="M1138.2,52.6c-0.8-3.8-2.6-7.1-5.3-9.9c-2.7-2.9-6.3-5.1-10.9-6.8c-4.6-1.7-10.3-2.5-17-2.5
				c-6.8,0-12.7,0.8-17.9,2.5c-5.2,1.7-9.6,4-13.2,6.8c-3.6,2.9-6.5,6.2-8.7,9.9c-2.1,3.8-3.6,7.7-4.4,11.9l-13,74
				c-0.8,4.2-0.7,8.1,0.1,11.9c0.8,3.8,2.6,7.1,5.3,9.9c2.7,2.9,6.3,5.1,10.9,6.8c4.6,1.7,10.3,2.5,17,2.5c6.7,0,12.7-0.8,17.9-2.5
				c5.2-1.7,9.6-4,13.2-6.8c3.6-2.9,6.5-6.2,8.7-9.9c2.1-3.8,3.6-7.7,4.4-11.9l13-74C1139.1,60.3,1139.1,56.3,1138.2,52.6
				 M1119.2,63.5c-0.7,6.5-2.4,13.1-3.5,19.3c-1.7,9.2-3.4,18.5-5,27.7c-1.7,9.6-3.3,19.2-5,28.7c0,0.1,0,0.1,0,0.2
				c-0.4,2.2-1,4.5-1.9,6.7c-0.9,2.3-2.2,4.4-4,6.2c-1.8,1.9-4,3.4-6.7,4.7c-2.7,1.2-6.1,1.8-10.1,1.8c-4,0-7.2-0.6-9.4-1.8
				c-2.3-1.2-4-2.8-5.1-4.7c-2.4-4-1.9-8.3-1.1-13.9c1.9-14.1,4.4-28.1,7.1-42.1c1.6-8.1,2.8-16.3,4.4-24.4
				c1.5-7.3,2.5-15.8,7.7-21.4c1.8-1.9,4-3.4,6.6-4.7c2.7-1.2,6-1.9,10-1.9c4,0,7.2,0.6,9.4,1.9c2.3,1.2,4,2.8,5.1,4.7
				c1.1,1.9,1.7,4,1.8,6.2C1119.6,59,1119.5,61.2,1119.2,63.5"/>
			<path fill="none" stroke="#FFFFFF" stroke-width="3" stroke-miterlimit="10" d="M1138.2,52.6c-0.8-3.8-2.6-7.1-5.3-9.9
				c-2.7-2.9-6.3-5.1-10.9-6.8c-4.6-1.7-10.3-2.5-17-2.5c-6.8,0-12.7,0.8-17.9,2.5c-5.2,1.7-9.6,4-13.2,6.8
				c-3.6,2.9-6.5,6.2-8.7,9.9c-2.1,3.8-3.6,7.7-4.4,11.9l-13,74c-0.8,4.2-0.7,8.1,0.1,11.9c0.8,3.8,2.6,7.1,5.3,9.9
				c2.7,2.9,6.3,5.1,10.9,6.8c4.6,1.7,10.3,2.5,17,2.5c6.7,0,12.7-0.8,17.9-2.5c5.2-1.7,9.6-4,13.2-6.8c3.6-2.9,6.5-6.2,8.7-9.9
				c2.1-3.8,3.6-7.7,4.4-11.9l13-74C1139.1,60.3,1139.1,56.3,1138.2,52.6z M1119.2,63.5c-0.7,6.5-2.4,13.1-3.5,19.3
				c-1.7,9.2-3.4,18.5-5,27.7c-1.7,9.6-3.3,19.2-5,28.7c0,0.1,0,0.1,0,0.2c-0.4,2.2-1,4.5-1.9,6.7c-0.9,2.3-2.2,4.4-4,6.2
				c-1.8,1.9-4,3.4-6.7,4.7c-2.7,1.2-6.1,1.8-10.1,1.8c-4,0-7.2-0.6-9.4-1.8c-2.3-1.2-4-2.8-5.1-4.7c-2.4-4-1.9-8.3-1.1-13.9
				c1.9-14.1,4.4-28.1,7.1-42.1c1.6-8.1,2.8-16.3,4.4-24.4c1.5-7.3,2.5-15.8,7.7-21.4c1.8-1.9,4-3.4,6.6-4.7c2.7-1.2,6-1.9,10-1.9
				c4,0,7.2,0.6,9.4,1.9c2.3,1.2,4,2.8,5.1,4.7c1.1,1.9,1.7,4,1.8,6.2C1119.6,59,1119.5,61.2,1119.2,63.5z"/>
			<path fill="#FFFFFF" d="M208.3,93.9c3.1-6.9,2.5-13.8-1.3-17.1c-0.8-0.7-2.2-1.6-4.4-2c0,0-15.8,1.8-19.5-6.2
				c-1.4,6.3-2.4,14.7,2.5,19.9c2.8,3,9.4,5.7,13.3,3.3c3.8-2.4,2.4-8,2.4-8c1.3-0.3,2.7,0,3.5,0.9c1.4,1.5-0.1,4.5-0.5,5.4
				c-0.5,1-1.1,1.7-1.5,2.2c-1.3,1.5-2.7,2.4-3.6,2.8C202.2,94.7,205.3,94.3,208.3,93.9"/>
			<path fill="#FFFFFF" d="M305,112.3c2.8-1,4.8-0.8,7.6-1.2c2.6-0.4,5.1-0.7,7.7-1l2.8-11.2c0,0,0-0.1,0-0.1c1-3.4,1.4-4.3,1.2-4.4
				c-0.3-0.1-1.2,2.5-4,4.3c-1.3,0.9-2.6,1.2-3.4,1.4c-0.8,0.2-2.8,0.7-5.1,0.5c-3.3-0.4-4.1-1.9-5.7-1.4c-0.8,0.3-1.9,1.1-2.6,3.9
				c-0.6,3.6-1.2,7.2-1.8,10.8C302.5,113.4,303.5,112.8,305,112.3"/>
			<path fill="none" stroke="#FFFFFF" stroke-width="3" stroke-miterlimit="10" d="M305,112.3c2.8-1,4.8-0.8,7.6-1.2
				c2.6-0.4,5.1-0.7,7.7-1l2.8-11.2c0,0,0-0.1,0-0.1c1-3.4,1.4-4.3,1.2-4.4c-0.3-0.1-1.2,2.5-4,4.3c-1.3,0.9-2.6,1.2-3.4,1.4
				c-0.8,0.2-2.8,0.7-5.1,0.5c-3.3-0.4-4.1-1.9-5.7-1.4c-0.8,0.3-1.9,1.1-2.6,3.9c-0.6,3.6-1.2,7.2-1.8,10.8
				C302.5,113.4,303.5,112.8,305,112.3z"/>
			<path fill="#FFFFFF" d="M325.8,97.5c3.6-6.6,3.5-13.5,0-17.1c-0.7-0.8-2.1-1.8-4.3-2.3c0,0-15.9,0.6-19-7.7
				c-1.9,6.2-3.5,14.5,1,20c2.6,3.2,8.9,6.4,13,4.3c3.9-2.1,3-7.8,3-7.8c1.3-0.2,2.7,0.2,3.4,1.1c1.3,1.6-0.4,4.5-0.9,5.3
				c-0.6,1-1.2,1.6-1.7,2.1c-1.4,1.4-2.9,2.1-3.8,2.6C319.6,97.7,322.7,97.6,325.8,97.5"/>
			<path fill="#FFFFFF" d="M806.7,103.5c0.2,0.3,0.4,0.7,0.5,1.1c1.8,0.4,3.6,1.6,4.7,3.9c0.1,0.3,0.3,0.6,0.4,0.8
				c2.6,0.6,4.9,2.3,5.7,5.3c1.4,5,3.1,9.8,4.2,14.8c0.3,1.2,0.3,2.3,0.1,3.3c1.5,0.7,3.2,1.8,5,3.2c1.5,1.2,2.7,2.4,3.6,3.5
				c0.3-1.3,0.8-3.2,1.2-5.6c1.3-6.2,1-6.8,2-11.5c2.4-11.7,3-14.1,3-14.1c0.3-1,0.9-3.3,0.3-3.6c-0.5-0.2-1.3,0.8-2.7,2
				c-2.1,1.8-4.3,3.2-5.6,3.5c-2.9,0.5-5.3-0.8-9-2.5C817.2,106.3,812.7,104.5,806.7,103.5"/>
			<path fill="none" stroke="#FFFFFF" stroke-miterlimit="10" d="M806.7,103.5c0.2,0.3,0.4,0.7,0.5,1.1c1.8,0.4,3.6,1.6,4.7,3.9
				c0.1,0.3,0.3,0.6,0.4,0.8c2.6,0.6,4.9,2.3,5.7,5.3c1.4,5,3.1,9.8,4.2,14.8c0.3,1.2,0.3,2.3,0.1,3.3c1.5,0.7,3.2,1.8,5,3.2
				c1.5,1.2,2.7,2.4,3.6,3.5c0.3-1.3,0.8-3.2,1.2-5.6c1.3-6.2,1-6.8,2-11.5c2.4-11.7,3-14.1,3-14.1c0.3-1,0.9-3.3,0.3-3.6
				c-0.5-0.2-1.3,0.8-2.7,2c-2.1,1.8-4.3,3.2-5.6,3.5c-2.9,0.5-5.3-0.8-9-2.5C817.2,106.3,812.7,104.5,806.7,103.5z"/>
			<path fill="#FFFFFF" d="M711.4,191.7c-3,10.5-1.6,18.7,2.2,20.4c1.2,0.5,2.5,0.3,5.6-0.7c4.1-1.3,9.6-3.2,16.1-6.1
				c-0.8,0-2-0.1-2.9-0.9c-0.8-0.7-1.4-1.8-1.4-5.2c0-3.2,0.6-5.4,1.2-7.8c0.4-1.9,1-4.7,1.4-8.3C726.2,186,718.8,188.8,711.4,191.7
				"/>
			<path fill="none" stroke="#FFFFFF" stroke-miterlimit="10" d="M711.4,191.7c-3,10.5-1.6,18.7,2.2,20.4c1.2,0.5,2.5,0.3,5.6-0.7
				c4.1-1.3,9.6-3.2,16.1-6.1c-0.8,0-2-0.1-2.9-0.9c-0.8-0.7-1.4-1.8-1.4-5.2c0-3.2,0.6-5.4,1.2-7.8c0.4-1.9,1-4.7,1.4-8.3
				C726.2,186,718.8,188.8,711.4,191.7z"/>
			<path fill="#FFFFFF" d="M736.8,112.8c-4.4-4.2-11.1-6.3-20.2-6.3c-8.1,0-14.9,1.7-20.4,5.1c-4.4-3.4-10.7-5.1-19.1-5.1
				c-7.5,0-14.1,1.6-19.8,4.7c-1.6-1.6-3.3-2.8-5.3-3.6c-1.9-0.7-3.8-1.1-5.6-1.1c0.2,3,0.2,6,0,9.2c-0.2,3.1-0.7,6.3-1.3,9.5
				l-11.5,66.4c-1.1,6.6-2.7,12.8-4.9,18.7c2.2,0,4.5-0.5,7-1.5c2.5-1,4.9-2.5,7.2-4.6c2.3-2.1,4.3-4.6,6.1-7.7
				c1.8-3.1,3-6.6,3.7-10.6l9.6-56.3c0.7-4.1,2.2-7.3,4.5-9.5c2.2-2.2,5.1-3.4,8.6-3.4c3.4,0,5.8,1.1,7.2,3.4
				c1.4,2.2,1.8,5.4,1.2,9.5l-10.6,61.9c-1.1,6.6-2.7,12.8-4.9,18.7c2.2,0,4.5-0.5,7-1.5c2.5-1,4.9-2.5,7.2-4.6
				c2.3-2.1,4.3-4.6,6.1-7.7c1.8-3.1,3-6.6,3.7-10.6l9.7-56.3c0.7-4.1,2.2-7.3,4.4-9.5c2.2-2.2,5.1-3.4,8.5-3.4
				c7,0,9.8,4.4,8.4,13.1l-10.6,61.7c0,0.1,0,0.2-0.1,0.4c0.7-0.2,1.5-0.4,2.3-0.4c4.4-0.1,8.7-1.2,13.4,0.1
				c0.3,0.1,0.5,0.2,0.6,0.2c0.1-0.8,0.4-1.9,0.9-3.1c0.5-1.1,1.2-2,1.7-2.6c3.2-18.5,6.5-36.9,9.7-55.4
				C742.7,123,741.2,117,736.8,112.8"/>
			<path fill="none" stroke="#FFFFFF" stroke-width="3" stroke-miterlimit="10" d="M736.8,112.8c-4.4-4.2-11.1-6.3-20.2-6.3
				c-8.1,0-14.9,1.7-20.4,5.1c-4.4-3.4-10.7-5.1-19.1-5.1c-7.5,0-14.1,1.6-19.8,4.7c-1.6-1.6-3.3-2.8-5.3-3.6
				c-1.9-0.7-3.8-1.1-5.6-1.1c0.2,3,0.2,6,0,9.2c-0.2,3.1-0.7,6.3-1.3,9.5l-11.5,66.4c-1.1,6.6-2.7,12.8-4.9,18.7
				c2.2,0,4.5-0.5,7-1.5c2.5-1,4.9-2.5,7.2-4.6c2.3-2.1,4.3-4.6,6.1-7.7c1.8-3.1,3-6.6,3.7-10.6l9.6-56.3c0.7-4.1,2.2-7.3,4.5-9.5
				c2.2-2.2,5.1-3.4,8.6-3.4c3.4,0,5.8,1.1,7.2,3.4c1.4,2.2,1.8,5.4,1.2,9.5l-10.6,61.9c-1.1,6.6-2.7,12.8-4.9,18.7
				c2.2,0,4.5-0.5,7-1.5c2.5-1,4.9-2.5,7.2-4.6c2.3-2.1,4.3-4.6,6.1-7.7c1.8-3.1,3-6.6,3.7-10.6l9.7-56.3c0.7-4.1,2.2-7.3,4.4-9.5
				c2.2-2.2,5.1-3.4,8.5-3.4c7,0,9.8,4.4,8.4,13.1l-10.6,61.7c0,0.1,0,0.2-0.1,0.4c0.7-0.2,1.5-0.4,2.3-0.4
				c4.4-0.1,8.7-1.2,13.4,0.1c0.3,0.1,0.5,0.2,0.6,0.2c0.1-0.8,0.4-1.9,0.9-3.1c0.5-1.1,1.2-2,1.7-2.6c3.2-18.5,6.5-36.9,9.7-55.4
				C742.7,123,741.2,117,736.8,112.8z"/>
			<path fill="#FFFFFF" d="M724.9,106.6c1.4,0.5,3.1,0.9,5.1,1.1c6.4,0.5,11.4-2.3,13.5-3.7c0,0,2.5,7.2-0.2,24
				C737.2,120.8,731,113.7,724.9,106.6"/>
			<path fill="none" stroke="#FFFFFF" stroke-miterlimit="10" d="M724.9,106.6c1.4,0.5,3.1,0.9,5.1,1.1c6.4,0.5,11.4-2.3,13.5-3.7
				c0,0,2.5,7.2-0.2,24C737.2,120.8,731,113.7,724.9,106.6z"/>
			<path fill="#FFFFFF" d="M607.5,107.8c1.7,0.4,3.9,0.8,6.3,0.8c6.2,0,11-2.2,13.5-3.7c0.4,1.8,0.7,3.7,0.9,5.7
				c0.7,7.3-0.4,13.7-1.7,18.3c-1.4-3-3.6-7-7-11.1C615.3,112.8,610.7,109.7,607.5,107.8"/>
			<path fill="none" stroke="#FFFFFF" stroke-miterlimit="10" d="M607.5,107.8c1.7,0.4,3.9,0.8,6.3,0.8c6.2,0,11-2.2,13.5-3.7
				c0.4,1.8,0.7,3.7,0.9,5.7c0.7,7.3-0.4,13.7-1.7,18.3c-1.4-3-3.6-7-7-11.1C615.3,112.8,610.7,109.7,607.5,107.8z"/>
			<path fill="#FFFFFF" d="M1160,252c-7.5-15.5-26-18.9-40.3-9.3c-15,10-39.7,8.2-52.2-3.9c-7-6.8-8.4-18.2-3.2-26.8
				c4.5-7.5,12-9.7,20.5-6.2c-16,4.3-22.8,13.1-18,24.1c4.9,11,15.1,13.7,26,14.2c10,0.4,18.3-2.6,22.7-12.9
				c7.4-17.5,1.8-28.8-19.2-38.1c0.5-6.6-0.4-12.6-2.6-17.8c-8.1,3.7-20.2,1.4-27.8,0c-11.6-2.1-25.8-10.7-24.5-24.3
				c0.2-2.4,1.4-5.8-0.3-7.9c-3.5,1.7-4.5,7.1-6.3,10.2c-3.2,5.9-3.4,8.2-6.5,11.8c-2.8,3.2-5.7,5-7.6,6.2
				c-1.8,1.1-6.2,3.5-12.7,4.8c-10.2,1.9-23.6,0.4-24.4-3.7c-0.3-1.2,1.1-2.7,3.8-5.8c4.1-4.8,6.7-5.5,9.5-9.5
				c0.5-0.7,1.7-2.4,3.2-6.3c2.4-6.3,7.5-22.9,3.2-25.4c-2.7-1.5-8.2,2.9-16.7,9.6c-6.6,5.3-9.2,10.4-12.2,10.3
				c-0.6,0-1-0.2-1.6-0.5c-2.8-1.1-7.2-2.2-14-2c-1.5,6.2-3.3,11-4.8,14.3c0,0-2.4,5.5-7.7,14.8c-0.1,0.2-0.2,0.3-0.2,0.3
				c-0.3,0.6-0.5,1.2-0.9,1.7c-0.7,1.5-2,3-3.3,3.8c-1.5,0.9-3,1.1-4.6,1c0,0-0.1,0-0.1,0c0.1,0,0.2,0,0.3,0c-0.1,0-0.3,0-0.4,0
				c-1.9,1-4.2,1.4-6.1,0.8c-0.2-0.1-0.4-0.2-0.6-0.2c1.4,8.2,6.6,13.9,15.1,16.4c7.8,2.3,14.3,0.3,19.3-5.9
				c7.5-9.2,3.6-17-3.3-24.6c8.8,2.8,12.5,8.8,11.6,17.6c-1.1,10.2-6.9,16.5-16.9,18.4c-7.3,1.4-13.6,0.5-18.6-2.4
				c-7-4.1-9.2-11.3-13.3-23.8c-2-6.1-3.1-11.3-3.7-14.8c-1,2.6-3,6.5-6.8,9.9c-0.6,0.5-10.5,9.3-18.6,5.9c-2.5-1-5.7-3.5-5.5-5.8
				c0.1-1.1,0.9-3.8,1-4c0.1-0.5,0.3-1,0.5-1.5c0-0.1,0.1-0.2,0.1-0.3c-0.2,0.5,0.2-0.6,0.4-1.2c-2.8,0.8-5.7,1.5-8.3,1.1
				c-21.7-3.4-35,9.2-32.2,31c0.2,1.7,0.3,3.4,0.5,5.3c-3.1,0.6-5.5,1-7.9,1.6c-14,3.5-22.4,16.3-19,29.1
				c3.3,12.7,21.8,22.6,35.8,19c9.3-2.5,13.7-8.6,12.8-18.4c-0.7-7.4-4.4-12.6-11.9-13c-9.5-0.5-14.5,4.8-15.3,14.4
				c-4.4-9.7,1.4-18.5,11.8-19.7c10.7-1.2,21.6,6.5,23.4,16.5c1.9,10.8-4.9,22.5-15.5,25.3c-16.1,4.1-29.4-1.2-41.5-12
				c-18.4-16.3-52-18.4-71.7-4.8c-17.4,12.1-34.5,24.8-50.3,36.2c2.6-0.3,8.6,0.2,13.6-1.9c11.9-4.8,24-9.9,34.9-16.6
				c27-16.4,52.3-15,76.9,4.8c7.5,6.1,15.4,12,24,16.3c23.1,11.7,46,11,68.6-3c-13.9-13.9-15.3-23-6.9-39.1
				c10.9-20.9,24.2-26.4,52.4-21.7c19.1-24.9,50.7-23.6,67.1,2.7c1.9,3,5.4,5.3,8.7,7.1c11.6,6.4,18.7,22.4,14.8,34.1
				c-4,12.1-13.6,16.2-30,13c-0.6-0.1-1.3,0.5-2.7,1c-20.1,43-59.1,51.1-105,51.4c38.3,13.7,78.9,5.1,106.6-18.1
				c12.7-10.6,27.5-19.8,42.8-26c16.3-6.6,32.6-0.2,46.8,9.5c6.3,4.3,6.9,8.3,3.8,14.6c-3-12.2-9.6-17-20.9-12.3
				c-6.1,2.5-12.6,8.9-14.7,15c-3.5,9.9,1.8,18.9,10.1,25.3c12.4,9.6,34.5,11.2,47.1,3.4c13.3-8.2,20.5-26.6,16.2-43.6
				c-1.6-6.6-1.2-11.2,2.5-17.5C1162.5,267.4,1162.8,257.7,1160,252"/>
			<path fill="#FFFFFF" d="M1022,261.6c-18.1,42.8-55.2,53.8-96.8,54.7c-36.9,0.8-72.3-6.2-103.2-28.5c-4.4-3.2-9-6-13.3-9.3
				c-11.5-8.6-24.3-10.7-37.8-6.5c-9.9,3.1-19.7,6.8-29.3,10.9c-20.9,9-40.6,4.7-60-5.1c28.9,5.7,53.4-3.7,76.7-19.7
				c19.6-13.4,43.2-10.8,63.8,6.4c17,14.2,35,26.1,57.8,25.9c11.8-0.1,23.9-3,35.2-6.7c6.8-2.2,12.3-5.7,20.2-3.6
				c8.2,2.2,15.5-1.1,20.3-8.8c4.6-7.4,6.1-15.6,0.7-22.2c-3.6-4.4-10.2-8.3-15.7-8.6c-3.6-0.2-7.6,6.4-11.4,10
				c0.6,0.7,1.3,1.4,1.9,2c3.6-2,8.1-6.3,10.6-5.4c4.5,1.7,9.9,6,11,10.2c2,7.6-1.9,14.3-10.3,16.3c-14,3.3-29.4-11.7-26.7-25.9
				c3.7-19.8,21.7-32.8,41.3-28.6c7.1,1.5,10.7-0.1,15.4-5.3c16.3-18,45-13.6,56.4,7.7c1.8,3.3,5.6,5.9,9.1,7.8
				c9,4.8,13.5,11.8,12.5,21.9C1049.1,265,1039.5,268.7,1022,261.6"/>
			<path fill="#FFFFFF" d="M1114.6,33.6c0.2,0.3,0.4,0.7,0.5,1.1c1.8,0.4,3.6,1.6,4.7,3.9c0.1,0.3,0.3,0.6,0.4,0.8
				c2.6,0.6,4.9,2.3,5.7,5.3c1.4,5,3.1,9.8,4.2,14.8c0.3,1.2,0.3,2.3,0.1,3.3c1.4,0.7,3.2,1.8,5,3.2c1.5,1.2,2.7,2.4,3.6,3.5
				c0.3-1.3,0.8-3.2,1.2-5.6c1.3-6.2,1-6.8,2-11.5c2.4-11.7,3-14.1,3-14.1c0.3-1,0.9-3.3,0.3-3.6c-0.5-0.2-1.3,0.8-2.7,2
				c-2.1,1.8-4.3,3.2-5.6,3.5c-2.9,0.5-5.3-0.8-9-2.5C1125,36.4,1120.6,34.7,1114.6,33.6"/>
			<path fill="none" stroke="#FFFFFF" stroke-miterlimit="10" d="M1114.6,33.6c0.2,0.3,0.4,0.7,0.5,1.1c1.8,0.4,3.6,1.6,4.7,3.9
				c0.1,0.3,0.3,0.6,0.4,0.8c2.6,0.6,4.9,2.3,5.7,5.3c1.4,5,3.1,9.8,4.2,14.8c0.3,1.2,0.3,2.3,0.1,3.3c1.4,0.7,3.2,1.8,5,3.2
				c1.5,1.2,2.7,2.4,3.6,3.5c0.3-1.3,0.8-3.2,1.2-5.6c1.3-6.2,1-6.8,2-11.5c2.4-11.7,3-14.1,3-14.1c0.3-1,0.9-3.3,0.3-3.6
				c-0.5-0.2-1.3,0.8-2.7,2c-2.1,1.8-4.3,3.2-5.6,3.5c-2.9,0.5-5.3-0.8-9-2.5C1125,36.4,1120.6,34.7,1114.6,33.6z"/>
			<path fill="#FFFFFF" d="M105.1,87.1c-0.9-0.6,0.7-2.9-0.1-6.4c-0.7-3-2.7-5.1-4.5-6.6c1.7,4.6,2.2,9.4,1,14.2
				c-1.3,5.3-4.5,9.6-8.6,13.1c-5.3,4.5-15.8,4.5-16.4-4.3c-0.2-3.1,1.6-6.3,4.4-7.6c3.2-1.5,6.9-0.5,10.3,0.4
				c-2.3-3.4-6.8-5-10.7-3.9c-3.9,1.1-6.9,4.8-7.1,8.9c-0.2,5,2.9,8.9,5.2,13c3.4,5.9,2,13.3,1.6,19.8c-0.7,10.4,0.3,20.2,4.1,29.9
				c3.9,9.8,9.8,18.8,16.3,27.1c0.7,0.9,1.4,1.7,2,2.6c-0.6-0.8-4-1.3-5.1-1.7c-2-0.8-4.1-1.8-4.6-2.1c-2.5-1.3-15.6-10.4-21.3-34.4
				c-3.2-13.2-2.4-23.8-3.2-23.8c-0.6,0-1,6.7-1,10.6c-0.1,5.4,0.4,9.5,0.6,10.5c1.5,8.7,5.7,16.5,7.1,25.1c-0.4-2.6-4.3-5.5-6-7.3
				c-2.2-2.5-4.1-5.5-5.9-8.3c-3.5-5.4-6.7-11.1-9.2-17.1c-5.1-11.8-7.6-24.6-7.2-37.5c0.2-5.1,0.8-10.2,1.8-15.2
				C52.7,66,71.3,52.3,91.9,52c9.3-0.1,17.1,2.4,21.1,11.8c0.9,2.2,3.5,7.7,1.6,13.7C112.5,83.8,106.4,88,105.1,87.1"/>
			<path fill="#FFFFFF" d="M132.4,138.6c-8.8,5.7-9.8,14.7-9.2,24.4c1,17,8.1,33.4,20.7,44.9c5.9,5.4,11.1,11.5,15.8,18
				c-30.8-15.8-50.2-41-58.2-74.2C96,129,115,102.7,138.1,100.9c8.7-0.7,17.2,4.3,23.2,10.1c4.8,4.7,9.4,11.4,9,18.4
				c-0.2,4.5-3,7.5-6.3,10.2c-3.6,2.9-6.9,6.1-9.2,10.2c-2.1,3.8-3.6,8.3-7.5,10.7c-3.8,2.4-9.9,2-12.8-1.7c-2.8-3.6-2.1-9-2.1-13.2
				C132.4,143.6,132.4,141.6,132.4,138.6"/>
			<path fill="#FFFFFF" d="M111.4,87.1c2.3,0.3,6.1,0.5,10.5-0.4c4.6-0.9,9.4-1.9,11.7-5.9c1.9-3.4,1.1-7.2,0.5-9.2
				c-0.9,0.2-1.7,0.3-2.6,0.5c0.1,0.3,0.8,3.4-1.1,5.6c-1.2,1.3-2.7,1.5-3.2,1.6c-3.8,0.5-7.7-3-9.5-6.3c-3.3-6.2-3.7-15.9,1-21.4
				c3.4-4,9.2-5.4,14.4-4.8c5.9,0.6,12.5,3.1,17.3,6.6c5.8,4.2,10.5,10.3,12.7,17.2c2,6.4,2.3,15.3-2.2,20.8c-2.8,3.4-7,4.6-11.3,5
				c-9.7,0.7-20.7,1.7-28.5,6.6c-28,17.7-33,40.1-17.2,69.2c5.6,10.3,12.4,19.9,18.1,30.2c-15.6-15-30.8-30-35.8-52.5
				c-4.1-18.2-2.8-34.9,11.1-49c1.4-1.4,2.4-2.7,3-3.3C104.8,92.7,108.6,89.4,111.4,87.1"/>
		</g>
	</g>
</g>
</svg>
