<svg xmlns="http://www.w3.org/2000/svg" xmlns:xlink="http://www.w3.org/1999/xlink" viewBox="0 0 750 182.27">
    <defs>
        <linearGradient id="a" x1="165.13" y1="56.08" x2="198.01" y2="56.08" gradientTransform="matrix(-.68 -.49 -.59 .81 898.31 113.16)" gradientUnits="userSpaceOnUse">
            <stop offset="0" stop-color="#c17f2a"/>
            <stop offset=".1" stop-color="#c78832"/>
            <stop offset=".26" stop-color="#d7a047"/>
            <stop offset=".47" stop-color="#f1c868"/>
            <stop offset=".5" stop-color="#f4cd6d"/>
            <stop offset=".51" stop-color="#f2ca6a"/>
            <stop offset=".64" stop-color="#ddaa4e"/>
            <stop offset=".77" stop-color="#cf943a"/>
            <stop offset=".89" stop-color="#c6872e"/>
            <stop offset="1" stop-color="#c3822a"/>
        </linearGradient>
        <linearGradient id="b" x1="177.85" y1="37.8" x2="178.21" y2="37.8" xlink:href="#a"/>
        <linearGradient id="c" x1="177.35" y1="37.8" x2="178.71" y2="37.8" xlink:href="#a"/>
        <linearGradient id="d" x1="19.98" y1="59.15" x2="48.63" y2="59.15" xlink:href="#a"/>
        <linearGradient id="e" x1="19.51" y1="59.15" x2="49.09" y2="59.15" xlink:href="#a"/>
        <linearGradient id="f" x1="70.74" y1="56.79" x2="82.85" y2="56.79" xlink:href="#a"/>
        <linearGradient id="g" x1="70.28" y1="56.79" x2="83.32" y2="56.79" xlink:href="#a"/>
        <linearGradient id="h" x1="272.57" y1="53.8" x2="272.96" y2="53.8" xlink:href="#a"/>
        <linearGradient id="i" x1="272.07" y1="53.8" x2="273.46" y2="53.8" xlink:href="#a"/>
        <linearGradient id="j" x1="274.31" y1="53.23" x2="277.58" y2="53.23" xlink:href="#a"/>
        <linearGradient id="k" x1="273.8" y1="52.96" x2="278.09" y2="52.96" xlink:href="#a"/>
        <linearGradient id="l" x1="278.47" y1="53.68" x2="279.27" y2="53.68" xlink:href="#a"/>
        <linearGradient id="m" x1="277.97" y1="53.68" x2="279.77" y2="53.68" xlink:href="#a"/>
        <linearGradient id="n" x1="358.4" y1="73.8" x2="358.4" y2="73.8" xlink:href="#a"/>
        <linearGradient id="o" x1="357.9" y1="73.8" x2="358.9" y2="73.8" xlink:href="#a"/>
        <linearGradient id="p" x1="424.97" y1="84.85" x2="435" y2="84.85" xlink:href="#a"/>
        <linearGradient id="q" x1="477.17" y1="72.9" x2="478.17" y2="72.9" xlink:href="#a"/>
        <linearGradient id="r" x1="551.31" y1="72.87" x2="567.42" y2="72.87" xlink:href="#a"/>
        <linearGradient id="s" x1="632.01" y1="82.21" x2="654.87" y2="82.21" xlink:href="#a"/>
        <linearGradient id="t" x1="695.19" y1="71.82" x2="695.19" y2="71.82" xlink:href="#a"/>
        <linearGradient id="u" x1="694.69" y1="71.82" x2="695.69" y2="71.82" xlink:href="#a"/>
        <linearGradient id="v" x1="697.04" y1="72.18" x2="698.93" y2="72.18" xlink:href="#a"/>
        <linearGradient id="w" x1="696.54" y1="71.98" x2="699.43" y2="71.98" xlink:href="#a"/>
        <linearGradient id="x" x1="703.91" y1="83.15" x2="703.93" y2="83.15" xlink:href="#a"/>
        <linearGradient id="y" x1="703.41" y1="83.15" x2="704.43" y2="83.15" xlink:href="#a"/>
        <linearGradient id="z" x1="45.32" y1="56.67" x2="89.92" y2="56.67" xlink:href="#a"/>
        <linearGradient id="A" x1="2.91" y1="59.74" x2="53.94" y2="59.74" xlink:href="#a"/>
        <linearGradient id="B" x1="639.95" y1="59.74" x2="690.98" y2="59.74" gradientTransform="matrix(-1 0 0 1 761.77 0)" xlink:href="#a"/>
        <linearGradient id="C" x1="125.22" y1="59.34" x2="152.9" y2="59.34" xlink:href="#a"/>
        <linearGradient id="D" x1="162.79" y1="66.2" x2="179.78" y2="66.2" xlink:href="#a"/>
        <linearGradient id="E" x1="155.6" y1="47.84" x2="220.03" y2="47.84" xlink:href="#a"/>
        <linearGradient id="F" x1="188.07" y1="46.51" x2="222.57" y2="46.51" xlink:href="#a"/>
        <linearGradient id="G" x1="798.77" y1="59.74" x2="884.42" y2="59.74" gradientTransform="matrix(-.83 0 0 1 992.37 0)" xlink:href="#a"/>
        <linearGradient id="H" x1="844.46" y1="67.83" x2="889.76" y2="67.83" gradientTransform="matrix(-.83 0 0 1 992.37 0)" xlink:href="#a"/>
        <linearGradient id="I" x1="331.12" y1="86.75" x2="381.87" y2="86.75" xlink:href="#a"/>
        <linearGradient id="J" x1="464.44" y1="97.53" x2="478.89" y2="97.53" xlink:href="#a"/>
        <linearGradient id="K" x1="458.32" y1="81.95" x2="519.35" y2="81.95" xlink:href="#a"/>
        <linearGradient id="L" x1="401.14" y1="85.96" x2="411.17" y2="85.96" xlink:href="#a"/>
        <linearGradient id="M" x1="387.29" y1="81.45" x2="465.39" y2="81.45" xlink:href="#a"/>
        <linearGradient id="N" x1="839.97" y1="-211.94" x2="874.65" y2="-211.94" gradientTransform="matrix(.68 .48 .58 -.82 115.04 -494.55)" xlink:href="#a"/>
        <linearGradient id="O" x1="338.65" y1="168.71" x2="373.32" y2="168.71" xlink:href="#a"/>
        <linearGradient id="P" x1="666.55" y1="101.85" x2="697.96" y2="101.85" gradientTransform="matrix(.91 .44 -.44 .9 -.45 -316.27)" xlink:href="#a"/>
        <linearGradient id="Q" x1="553.36" y1="78.05" x2="591.15" y2="78.05" xlink:href="#a"/>
        <linearGradient id="R" x1="665.69" y1="123.13" x2="697.09" y2="123.13" gradientTransform="matrix(.91 .44 -.44 .9 -.45 -316.27)" xlink:href="#a"/>
        <linearGradient id="S" x1="543.25" y1="96.79" x2="581.05" y2="96.79" xlink:href="#a"/>
        <linearGradient id="T" x1="498.95" y1="80.68" x2="685.15" y2="80.68" xlink:href="#a"/>
        <linearGradient id="U" x1="685.15" y1="81.81" x2="748.91" y2="81.81" xlink:href="#a"/>
    </defs>
    <g data-name="Layer 1">
        <path d="M736.32 102.25s-7.63-23.79 6-24.75a13.26 13.26 0 0 0 4.35-2.5 15.14 15.14 0 0 0 4.76-8.87 36.23 36.23 0 0 0-1.6-4.61 34.65 34.65 0 0 0-3-5.51c2.63-3 3.84-6.4 2.89-8.85a4.44 4.44 0 0 0-1.1-1.63s0-6.16 4.27-5.9a6.26 6.26 0 0 0-6.81 2.37 6 6 0 0 0-.89 4.11 14.54 14.54 0 0 0-6.05 6.46 13.31 13.31 0 0 0-.94 8.92l1.26 2.46a6.52 6.52 0 0 0-3.5.26 7.9 7.9 0 0 0-3.59 2.67 22 22 0 0 0-3.43 4.51 21.45 21.45 0 0 0-2.25 5.61c-.55 1.55-2.77 8.38.15 15.5a18.14 18.14 0 0 0 9.48 9.75z" transform="translate(-2.91 -10.29)" fill="url(#a)"/>
        <path fill="url(#b)" stroke="url(#c)" stroke-miterlimit="10" d="M178.21 16.59L177.85 59"/>
        <path d="M20 23.42l28.63 71.46" transform="translate(-2.91 -10.29)" fill="url(#d)" stroke="url(#e)" stroke-miterlimit="10"/>
        <path fill="url(#f)" stroke="url(#g)" stroke-miterlimit="10" d="M70.74 41.83l12.11 29.92"/>
        <path fill="url(#h)" stroke="url(#i)" stroke-miterlimit="10" d="M272.57 27.21l.39 53.18"/>
        <path fill="url(#j)" stroke="url(#k)" stroke-miterlimit="10" d="M274.31 26.01l.61 56.22 2.66 1.59-.66-61.18-2.61 3.37z"/>
        <path fill="url(#l)" stroke="url(#m)" stroke-miterlimit="10" d="M278.47 22.64l.8 62.07"/>
        <path fill="url(#n)" stroke="url(#o)" stroke-miterlimit="10" d="M358.4 57.34v32.91"/>
        <path d="M434.5 105.6V71.47c0-5.5-7.5-6.53-7.5-6.53l-1.94-.35" transform="translate(-2.91 -10.29)" stroke="url(#p)" fill="none" stroke-miterlimit="10"/>
        <path stroke="url(#q)" fill="none" stroke-miterlimit="10" d="M477.67 53.9v38"/>
        <path stroke="url(#r)" fill="none" stroke-miterlimit="10" d="M551.81 66.83v13.06l14.72 4.25.37-22.51-15.09 5.2z"/>
        <path d="M632 61.5s32.45-1.17 19.14 41.77" transform="translate(-2.91 -10.29)" stroke="url(#s)" fill="none" stroke-miterlimit="10"/>
        <path fill="url(#t)" stroke="url(#u)" stroke-miterlimit="10" d="M695.19 60.52v22.6"/>
        <path fill="url(#v)" stroke="url(#w)" stroke-miterlimit="10" d="M697.04 58.22v28.86l1.89.95v-31.7l-1.89 1.89z"/>
        <path d="M703.93 65.71v34.87" transform="translate(-2.91 -10.29)" fill="url(#x)" stroke="url(#y)" stroke-miterlimit="10"/>
        <path d="M75.23 59.93c1.39-15.32-16.52-21.78-16.52-21.78 8.68-12.27-3.48-14.38-3.48-14.38a7.67 7.67 0 0 0-5.79-9.13 9.29 9.29 0 0 1 1.61 5.62c-.24 3.16-2.41 5.15-1.54 6.53.3.47 1 1 3 .9a14.1 14.1 0 0 0-1.61 13.72c-6.86 11.46 8 14.35 8 14.35.28.06.52.15.78.22a14.71 14.71 0 0 1 3.63 1.79c10 8.81-17.94 38.79-17.94 38.79C54.26 90.11 60.77 84.28 65.4 79c.57 1.42 1.35 3.29 2.45 5.93 1.23 2.96 3.15 7.7 5.65 13.77h16.42z" transform="translate(-2.91 -10.29)" fill="url(#z)"/>
        <path d="M6.52 10.29S7 21.76 7.89 23.4c0 .11.66 2.24-.2 2.91s-2.75 0-4.45-2A9.49 9.49 0 0 0 3 28a9.91 9.91 0 0 0 3 5.7l23.47 60.7h-3.62S22 106.17 36.23 108.89 53.94 94 53.94 94l-8 .42-24.43-65.65s-.37-6.77-2.77-9.07c0 0-1 3.65-2.78 3.74-1.22.06-2.16-1.62-3.2-3.39-1.39-2.36-3.43-5.69-6.24-9.76z" transform="translate(-2.91 -10.29)" fill="url(#A)"/>
        <path d="M119 10.29s-.44 11.47-1.37 13.11c0 .11-.66 2.24.2 2.91s2.75 0 4.45-2a9.5 9.5 0 0 1 .24 3.75 9.92 9.92 0 0 1-3 5.7L96.08 94.4h3.62s3.86 11.77-10.37 14.49S71.65 94 71.65 94l8 .42L104 28.77s.37-6.81 2.76-9.07c0 0 1 3.65 2.78 3.74 1.22.06 2.16-1.62 3.2-3.39 1.42-2.36 3.46-5.69 6.26-9.76z" transform="translate(-2.91 -10.29)" fill="url(#B)"/>
        <path d="M150.92 84.4v-6h-3.64l-.83-44.06a13.54 13.54 0 0 0 2.49-5.12 14.57 14.57 0 0 0-.83-9.13q-1.36 3.29-2.86 3.35-3 .14-6.56-12.94c-.78 5.47-2.32 13.26-5 13.49-.9.08-2.26-.68-4.12-4.7-4.13 7 2 14.95 2 14.95l-.41 44.14-4-.09-.08 6.24h-1.9v4.27l3.88-.09v4.48h2.15l-.17 6.24h3.8l.17 4 2 .26-.08 4.4h4.13l-.08-4.31h2v-4.26h4.3v-5.8h1.82l.17-4.57h3.64V84.4zm-11.86-48a5.64 5.64 0 0 1-5.45-5.8 5.46 5.46 0 1 1 10.91 0 5.64 5.64 0 0 1-5.46 5.81z" transform="translate(-2.91 -10.29)" fill="url(#C)"/>
        <path d="M178.63 92l.86-72.69h-15.74l.19 73.16c-.56 2.26-2.3 9.9 0 9.93 0 0 4-6.08 4.55.05a41.49 41.49 0 0 0 2.51 10.69 40.55 40.55 0 0 0 2.82-10.68c.75-6.12 4.69.06 4.69.06 2.8.03.12-10.52.12-10.52z" transform="translate(-2.91 -10.29)" fill="url(#D)"/>
        <path d="M160.2 18.33a31.5 31.5 0 0 0 7 4.87c3.67 1.87 7.06 3.75 17.05 3.75 5.42 0 11.58-1 15.92 2.22 4.93 3.6 8.32 7.94 9.7 13.25a30 30 0 0 1-.13 15.23c-.1.36-.16.6-.27.95-1.89 5.68-7.57 8.45-8.82 9.06-2.71 1.32-7.51 1.42-17.12 1.62-4.39.09-9.49 0-11.91-.12l-1.5-.06c-2.22-.08-3.5 0-5.54-.1-2.52-.06-2-.08-3.11-.09a36.76 36.76 0 0 1-4.27-.16c-.67-.08-1.21-.17-1.57-.24a19.19 19.19 0 0 0 5 4.85c3.08 2.06 6 2.69 9.29 3.35a54.08 54.08 0 0 0 8.95 1 73.53 73.53 0 0 0 10.4 0c2.66-.21 4.7-.56 5.63-.72 1.74-.31 3.24-.66 4.47-1 17.84-9.36 21.07-16 20.7-20.32-.54-6.25-9-12.18-7.2-14.69.92-1.31 3.44 0 4.48-1.36 1.85-2.4-2.95-10.56-9.77-15.62-5.58-4.14-11.22-5.05-15.53-5.7-5.46-.82-7.77-.14-18.43.1-5.87.08-10.54 0-13.42-.07z" transform="translate(-2.91 -10.29)" fill="url(#E)"/>
        <path d="M188.07 77.73c9.84-3.57 15.82-11.25 15.14-18.29a13.21 13.21 0 0 0-3.51-7.52 13.69 13.69 0 0 1-1-1.41 14 14 0 0 1-1.65-3.51 12.12 12.12 0 0 1 1.69-8.66 7.25 7.25 0 0 1 .52-.77l.22-.26a20.41 20.41 0 0 1 4.9-3.63c3.73-2 7.38-3.46 8.71-4 0 0-2.26-7.62 3.95-7.62a6.2 6.2 0 0 0 2.57-1.78 5.6 5.6 0 0 0 1-5 6.59 6.59 0 0 1 1.69 4.19 6.44 6.44 0 0 1-1.2 3.81 13.94 13.94 0 0 1 .5 11.11c-1.79 4.34-5.9 7.48-7.3 7.51-.05 0-.28 0-.33.1-.18.37 2.43 1.29 4.25 3a9.8 9.8 0 0 1 2.78 5.28 12.18 12.18 0 0 1-.21 6.16 17 17 0 0 1-2.28 4.83 30.13 30.13 0 0 1-5.11 6.38 44.19 44.19 0 0 1-9.13 6.3 34.22 34.22 0 0 1-7.7 2.71c-.89.18-2.54.44-4.06.65-1 .14-1.81.22-2.35.27-.82.07-1.52.12-2.09.15z" transform="translate(-2.91 -10.29)" fill="url(#F)"/>
        <path d="M321.88 10.29c-1.35 8.78-4 15.42-6.71 18.23a13.92 13.92 0 0 1-3.09 2.36 11.87 11.87 0 0 1-6.35 1.36h-21.64s-3.89.51-7.66 4.91c-6.55 7.64-7 18.34-7 28.25 0 14.95 1.94 19.19 3 20.86a22.75 22.75 0 0 0 8.57 7.55c4 2 9.61 2.07 20.63 2.1 3.51 0 6.2-.05 11-.16 5.84-.13 10.65-.29 14-.42a23 23 0 0 1-4.17 6.51 24.37 24.37 0 0 1-13.64 7.34H281a40.51 40.51 0 0 1-14.93-9.91 41.59 41.59 0 0 1-10.92-23.89c8.29-6.73 9.43-10.83 8.79-13.38-.85-3.36-4.89-3.83-6.55-8.38-1.25-3.4-.36-6.67.91-11.11 1.52-5.32 3.93-13.74 10.95-19 4.85-3.62 10.71-4 15.41-4.53 1.89-.21 4.12-.25 8.58-.35 8.75-.18 10.15.19 12.75-.08 3.93-.37 9.44-2.08 15.89-8.26z" transform="translate(-2.91 -10.29)" fill="url(#G)"/>
        <path d="M288.5 109.18c-13-8.44-19.85-19.59-17.21-27.44a11.88 11.88 0 0 1 3.71-5.25 18.07 18.07 0 0 0 1.85-3.42 20.64 20.64 0 0 0 .89-2.82c.57-2.48.17-7.31-2-12.94a14.45 14.45 0 0 0-2.38-2.55 18.6 18.6 0 0 0-2.92-1.9 47.21 47.21 0 0 0-7.66-3.72c.54-5.38-.87-10.13-3.88-12.08a6.05 6.05 0 0 0-2.52-.91s-4.88-6.84 0-9.91a8.54 8.54 0 0 0-5.65 8.09 8.2 8.2 0 0 0 2.3 5.25 18.73 18.73 0 0 0 1.74 19.31 14.46 14.46 0 0 0 2.34 2.65 18.21 18.21 0 0 0 3.61 2.17l.23.11a14.11 14.11 0 0 0-3.65 3.11 11.89 11.89 0 0 0-2.37 5.39 39.08 39.08 0 0 0 1.94 16.5 28.83 28.83 0 0 0 31.63 20.36z" transform="translate(-2.91 -10.29)" fill="url(#H)"/>
        <path d="M376.54 100.22l-.39-33.54h.06a9.84 9.84 0 0 0 2.41-1.68 9.6 9.6 0 0 0 2.88-7.25c-2 .15-3.84.23-5.45.27v-2.19l-12.83-.23v2.22c0-.25-11.17.89-12.46 1.12a26.18 26.18 0 0 0-7.9 2.55c-4.14 2.27-6.11 5.92-7.3 8a29.69 29.69 0 0 0-3.05 8.19c-1.05 4.61-2.57 11.27.5 18.44a23.65 23.65 0 0 0 9.29 10.79c8.86 5.4 18.19 2.74 19.77 2.26a9.25 9.25 0 0 0 1.56 3.17c.69-1.41 1.66-3.06 2.41-2.91.57.12.74 1.24 1.09 2.53a21.66 21.66 0 0 0 2.66 5.93A36.14 36.14 0 0 0 372 112c.4-1.37.61-2.4 1.18-2.5.85-.16 1.92 1.85 2.52 3.12a17.12 17.12 0 0 0 1.2-4.65c0-.43.06-.83.07-1.24a12.51 12.51 0 0 0 1.33-1 11.53 11.53 0 0 0 3.55-5.7c-1.54.07-3.33.13-5.31.19zm-30-2.37c-5.67-4.63-5.11-14.38-2.65-20.29a17.22 17.22 0 0 1 4.5-6.51 16.34 16.34 0 0 1 3-2.12 13.08 13.08 0 0 1 2.92-1 16 16 0 0 1 2.81-.32h5.95l-.3 32.74c-10.52-.12-13.72-.83-15.46-1.92a6.32 6.32 0 0 1-.79-.58z" transform="translate(-2.91 -10.29)" fill="url(#I)"/>
        <path d="M477.91 119.38l.73-61.67h-13.38l.16 62.07c-.48 1.91-2 8.4 0 8.42 0 0 3.39-5.16 3.87 0a35.12 35.12 0 0 0 2.09 9.12 34.33 34.33 0 0 0 2.4-9.06c.64-5.19 4 0 4 0 2.41.11.13-8.88.13-8.88z" transform="translate(-2.91 -10.29)" fill="url(#J)"/>
        <path d="M518.69 70.87a9.61 9.61 0 0 0-.34-7.66 4.44 4.44 0 0 0 .83-2.62A4.54 4.54 0 0 0 518 57.7a3.86 3.86 0 0 1-.7 3.41 4.27 4.27 0 0 1-1.77 1.23c-4.28 0-2.72 5.25-2.72 5.25-.55.22-1.68.69-3 1.31-.18-.34-.34-.67-.54-1a21.68 21.68 0 0 0-6.2-7.38c-3.84-2.73-7.69-3.12-13.76-3.67-5-.44-7.09-.11-15.68.09-4.93.11-8.9 0-11.35 0a26.8 26.8 0 0 0 5.88 4.06c3.12 1.59 6 3.18 14.51 3.18 4.61 0 9.85-.82 13.55 1.88a22.4 22.4 0 0 1 6.73 7.42 8.35 8.35 0 0 0-1.17 6A9.64 9.64 0 0 0 502.9 82a9.44 9.44 0 0 0 .68 1 10.53 10.53 0 0 1 1.61 2.29 26.13 26.13 0 0 1-.83 5c-.08.3-.13.51-.23.8-1.61 4.82-6.44 7.17-7.51 7.68-2.31 1.12-6.39 1.2-14.57 1.37-3.73.08-8.07 0-10.14-.1l-1.28-.05c-1.89-.07-3 0-4.71-.08-2.14-.05-1.69-.06-2.65-.08a31.37 31.37 0 0 1-3.63-.14c-.57-.07-1-.15-1.34-.2a16.31 16.31 0 0 0 4.22 4.12 20.26 20.26 0 0 0 7.9 2.84 41.46 41.46 0 0 0 7.61.81c4 .07 9.9.05 17.63-.44a22.3 22.3 0 0 0 12.83-7 19.28 19.28 0 0 0 3-4.76q.76-.6 1.48-1.23a20.76 20.76 0 0 0 3.52-4.4 11.7 11.7 0 0 0 1.57-3.33 8.4 8.4 0 0 0 .15-4.24 6.75 6.75 0 0 0-1.89-3.63c-1.26-1.18-3.05-1.81-2.93-2.06 0-.07.2-.07.23-.07 1-.1 3.84-2.23 5.07-5.23z" transform="translate(-2.91 -10.29)" fill="url(#K)"/>
        <path d="M410.67 106.71V72.58c0-5.5-7.5-6.53-7.5-6.53l-1.94-.35" transform="translate(-2.91 -10.29)" stroke="url(#L)" fill="none" stroke-miterlimit="10"/>
        <path d="M458.09 103.92a4.9 4.9 0 0 1-1.58-1.74 6.12 6.12 0 0 0-5.81-3 5.9 5.9 0 0 0-3.75 2.09 16.14 16.14 0 0 1-1.6 1.2l.22-31.95s-1.19-9.72-11.38-10.62c0 0-11.17-1.94-16.68 3.42a12.3 12.3 0 0 0-7-2.72s-6.58-1.14-12.13.76v-1a5.17 5.17 0 0 0 .62-3.56 4.67 4.67 0 0 0-.93-1.87c-.57 1.43-1.61 2.17-2.2 2s-.72-1.38-.73-1.45c.21-1-1.94-7-1.94-7-.8 2.71-1.31 4.87-1.63 6.39-.24 1.14-.44 2.21-1.17 2.45-1.07.37-2.4-1.32-2.4-1.32-.94 1.69.28 5.26.28 5.26l-.5 39.3a16.64 16.64 0 0 1-.25 2 7.14 7.14 0 0 0-.2 1.73 3.72 3.72 0 0 0 .76 1.68c.77 1.07 1.48 2.17 2.23 3.25a30.17 30.17 0 0 0 3.31 4.06c.35.35 1.17 1.27 1.77 1 1.08-.48-1.37-4.84 1-8.73 1.64-2.67 4.46-3.32 4.47-5.48a3.55 3.55 0 0 0-1-2.33 2.62 2.62 0 0 0-1-.7 12.24 12.24 0 0 1-1.52-.41l.85-27.91a7.52 7.52 0 0 1 6.66-2.72s6.87.18 7.35 5.22 0 34.21 0 34.21h-3.32s2.37 4.32 6.87 3.78c0 0 7.35.72 9.24-3.78l-3.32-.36.24-33.85a12.58 12.58 0 0 0-.66-2.46 7.8 7.8 0 0 1 7.24-3.46s6.87.18 7.35 5.22 0 34.21 0 34.21h-1.61a15.66 15.66 0 0 1-2.33-.61C436.55 118 452.3 107 452.3 107c5.59 5.15 7.66-.33 7.66-.33a4.5 4.5 0 0 0 3.66-.46 4.08 4.08 0 0 0 1.76-2.61c-2.53 1.4-5.38 1.6-7.29.32z" transform="translate(-2.91 -10.29)" fill="url(#M)"/>
        <path d="M583.56 56s8.47 25.06-6.12 26.25a14.2 14.2 0 0 0-4.58 2.75 15.94 15.94 0 0 0-5 9.44 38.05 38.05 0 0 0 1.77 4.85 36.53 36.53 0 0 0 3.23 5.78c-2.77 3.17-4 6.82-3 9.4a4.69 4.69 0 0 0 1.2 1.7s0 6.52-4.48 6.29a6.73 6.73 0 0 0 7.27-2.6 6.31 6.31 0 0 0 .9-4.36 15.45 15.45 0 0 0 6.38-6.91 13.94 13.94 0 0 0 .88-9.45l-1.38-2.58a7 7 0 0 0 3.73-.32 8.43 8.43 0 0 0 3.8-2.87 23.24 23.24 0 0 0 3.6-4.81 22.54 22.54 0 0 0 2.33-6c.56-1.65 2.85-8.89-.37-16.39A19.3 19.3 0 0 0 583.56 56z" transform="translate(-2.91 -10.29)" fill="url(#N)"/>
        <path d="M552.08 110.15S543.93 85 558.53 84a14.21 14.21 0 0 0 4.61-2.68 16 16 0 0 0 5.09-9.38 38 38 0 0 0-1.71-4.87 36.52 36.52 0 0 0-3.16-5.82c2.81-3.14 4.11-6.77 3.09-9.36a4.69 4.69 0 0 0-1.18-1.72s0-6.52 4.56-6.23a6.73 6.73 0 0 0-7.31 2.51 6.31 6.31 0 0 0-1 4.34 15.46 15.46 0 0 0-6.47 6.83 13.94 13.94 0 0 0-1 9.44l1.34 2.6a7 7 0 0 0-3.74.27 8.43 8.43 0 0 0-3.83 2.82 23.25 23.25 0 0 0-3.66 4.77 22.54 22.54 0 0 0-2.4 6c-.58 1.64-3 8.86.16 16.39a19.29 19.29 0 0 0 10.16 10.24z" transform="translate(-2.91 -10.29)" fill="url(#O)"/>
        <path d="M554.72 77.13c.39-1 2.63-6.47 7.8-7.82a13.06 13.06 0 0 1 6.39.26 21 21 0 0 1 8.1 3.77c3.38 3.79 7.71 5.48 10.85 4.2a5.92 5.92 0 0 0 2.34-1.76s-2.67 11.67-14.84 11.31c0 0-10.47-2.81-5.9-9.67l1.2-.59s-9.66-6.13-15.94.3z" transform="translate(-2.91 -10.29)" fill="url(#P)" stroke="url(#Q)" stroke-miterlimit="10"/>
        <path d="M544.62 95.87c.39-1 2.63-6.47 7.8-7.82a13.06 13.06 0 0 1 6.39.26 21 21 0 0 1 8.1 3.77c3.38 3.79 7.71 5.48 10.85 4.2a5.92 5.92 0 0 0 2.34-1.76s-2.67 11.67-14.84 11.31c0 0-10.47-2.81-5.9-9.67l1.2-.59s-9.69-6.13-15.94.3z" transform="translate(-2.91 -10.29)" fill="url(#R)" stroke="url(#S)" stroke-miterlimit="10"/>
        <path d="M676.55 101.31a5.65 5.65 0 0 1-1.86-2 7.3 7.3 0 0 0-6.85-3.31 6.49 6.49 0 0 0-2 .58c2.72-10.72 4.35-26.95-6.84-36 0 0-20.51-19.49-44.47 0 0 0-14 11.78-7.26 31.88 0 0 6 16.79 21.66 15.64s18.48-15.64 18.48-15.64 1.19-4.49 1-6l.15-2a11.41 11.41 0 1 0-14.08 9.4s-1.24 6.09-8.63 4.31S611.43 81.48 620.1 69s38.23-9.11 37 13.28c0 0 .49 8.84-4.9 20.07h-1.79c-.18 0-1 0-1.88-.11a11.66 11.66 0 0 1-1.63-.26 10.66 10.66 0 0 1-1.13-.34c5.46 15.63 24 3.2 24 3.2 6.59 5.83 9-.37 9-.37a5.49 5.49 0 0 0 4.31-.52 4.6 4.6 0 0 0 2.08-3c-3.01 1.6-6.35 1.8-8.61.36zm-43.8-18.12a4.59 4.59 0 1 1 4.59 4.59 4.59 4.59 0 0 1-4.59-4.59z" transform="translate(-2.91 -10.29)" fill="url(#T)"/>
        <path d="M717 52.78c-17.61 0-31.88 13-31.88 29s14.27 29 31.88 29 31.88-13 31.88-29-14.25-29-31.88-29zm0 48.36c-11.72 0-21.22-8.65-21.22-19.33s9.5-19.33 21.22-19.33 21.22 8.65 21.22 19.33-9.47 19.33-21.22 19.33z" transform="translate(-2.91 -10.29)" fill="url(#U)"/>
        <path d="M108.23 172.35l-7.68-30.26h4.13l3.59 15.31c.9 3.77 1.71 7.54 2.24 10.46h.09c.49-3 1.44-6.6 2.47-10.51l4-15.27h4.09l3.68 15.36c.85 3.59 1.66 7.18 2.11 10.37h.14c.63-3.32 1.48-6.69 2.43-10.46l4-15.27h4l-8.58 30.26h-4.09l-3.82-15.76a91.14 91.14 0 0 1-2-9.88h-.09a94.6 94.6 0 0 1-2.34 9.88l-4.31 15.76zm43.47 0l-.31-2.74h-.13a8.1 8.1 0 0 1-6.65 3.23c-4.4 0-6.65-3.1-6.65-6.24 0-5.25 4.67-8.13 13.07-8.08v-.45c0-1.8-.49-5-4.94-5a10.83 10.83 0 0 0-5.66 1.62l-.9-2.6a13.49 13.49 0 0 1 7.14-1.93c6.65 0 8.26 4.54 8.26 8.89v8.13a30.61 30.61 0 0 0 .36 5.21zm-.61-11.09c-4.31-.09-9.21.67-9.21 4.89a3.5 3.5 0 0 0 3.73 3.77 5.41 5.41 0 0 0 5.25-3.64 4.13 4.13 0 0 0 .22-1.26zm11.3-10.64l4.76 12.84c.49 1.44 1 3.14 1.39 4.45h.09c.4-1.3.85-3 1.39-4.54l4.31-12.75h4.18l-5.93 15.49c-2.83 7.45-4.76 11.27-7.45 13.61a10.71 10.71 0 0 1-4.85 2.56l-1-3.32a10.45 10.45 0 0 0 3.46-1.93 12 12 0 0 0 3.32-4.4 2.84 2.84 0 0 0 .31-.94 3.45 3.45 0 0 0-.27-1l-8-20zm18.9 17.69a10.36 10.36 0 0 0 5.21 1.57c2.87 0 4.22-1.44 4.22-3.23s-1.12-2.92-4-4c-3.91-1.39-5.75-3.55-5.75-6.15 0-3.5 2.83-6.38 7.5-6.38a10.85 10.85 0 0 1 5.34 1.35l-1 2.87a8.45 8.45 0 0 0-4.45-1.26c-2.34 0-3.64 1.35-3.64 3 0 1.8 1.3 2.6 4.13 3.68 3.77 1.44 5.7 3.32 5.7 6.56 0 3.82-3 6.51-8.13 6.51a12.39 12.39 0 0 1-6.11-1.48zm32.6-23.93v6.24h5.66v3h-5.66v11.72c0 2.69.76 4.22 3 4.22a8.77 8.77 0 0 0 2.29-.27l.18 3a9.68 9.68 0 0 1-3.5.54 5.47 5.47 0 0 1-4.27-1.66c-1.12-1.17-1.53-3.1-1.53-5.66v-11.88h-3.37v-3h3.37v-5.22zm29.5 16.93c0 8-5.57 11.54-10.82 11.54-5.88 0-10.42-4.31-10.42-11.18 0-7.27 4.76-11.54 10.78-11.54 6.24 0 10.46 4.58 10.46 11.18zm-17.24.23c0 4.76 2.74 8.35 6.6 8.35s6.6-3.55 6.6-8.44c0-3.68-1.84-8.35-6.51-8.35s-6.69 4.3-6.69 8.43zm35.79-19.45v30.26h-3.91v-30.26zm12.57 3.32h-9.21v-3.32h22.41v3.32h-9.25v26.94h-4zm26.09-2.96a45.27 45.27 0 0 1 7.5-.58c3.86 0 6.69.9 8.49 2.51a8.14 8.14 0 0 1 2.65 6.33 8.91 8.91 0 0 1-2.34 6.47c-2.07 2.2-5.43 3.32-9.25 3.32a13.45 13.45 0 0 1-3.14-.27v12.12h-3.91zm3.91 14.59a13.11 13.11 0 0 0 3.23.31c4.71 0 7.59-2.29 7.59-6.47 0-4-2.83-5.93-7.14-5.93a16.38 16.38 0 0 0-3.68.31zm19.13.36c0-2.56 0-4.76-.18-6.78h3.46l.13 4.27h.18a6.52 6.52 0 0 1 6-4.76 4.27 4.27 0 0 1 1.12.14V154a5.93 5.93 0 0 0-1.35-.13c-2.78 0-4.76 2.11-5.3 5.07a11.11 11.11 0 0 0-.18 1.84v11.59h-3.91zm33.9 3.91c0 8-5.57 11.54-10.82 11.54-5.88 0-10.42-4.31-10.42-11.18 0-7.27 4.76-11.54 10.78-11.54 6.24 0 10.46 4.58 10.46 11.18zm-17.24.23c0 4.76 2.74 8.35 6.6 8.35s6.6-3.55 6.6-8.44c0-3.68-1.84-8.35-6.51-8.35s-6.69 4.3-6.69 8.43zm22.63 10.81v-18.72h-3.05v-3h3.05v-1c0-3.05.67-5.84 2.51-7.59a7.56 7.56 0 0 1 5.3-2 9.16 9.16 0 0 1 3.37.63l-.54 3.05a5.91 5.91 0 0 0-2.51-.49c-3.37 0-4.22 3-4.22 6.29v1.17h5.25v3h-5.25v18.72zm14.33-10.14c.09 5.34 3.5 7.54 7.45 7.54a14.29 14.29 0 0 0 6-1.12l.67 2.83a17.6 17.6 0 0 1-7.23 1.35c-6.69 0-10.69-4.4-10.69-11s3.86-11.72 10.19-11.72c7.09 0 9 6.24 9 10.24a14.83 14.83 0 0 1-.13 1.84zm11.59-2.83c0-2.51-1-6.42-5.48-6.42-4 0-5.75 3.68-6.06 6.42zm8.16 8.93a10.36 10.36 0 0 0 5.21 1.57c2.87 0 4.22-1.44 4.22-3.23s-1.12-2.92-4-4c-3.91-1.39-5.75-3.55-5.75-6.15 0-3.5 2.83-6.38 7.5-6.38a10.85 10.85 0 0 1 5.34 1.35l-1 2.87a8.46 8.46 0 0 0-4.45-1.26c-2.33 0-3.64 1.35-3.64 3 0 1.8 1.3 2.6 4.13 3.68 3.77 1.44 5.7 3.32 5.7 6.56 0 3.82-3 6.51-8.13 6.51a12.39 12.39 0 0 1-6.11-1.48zm17.79 0a10.36 10.36 0 0 0 5.21 1.57c2.87 0 4.22-1.44 4.22-3.23s-1.12-2.92-4-4c-3.91-1.39-5.75-3.55-5.75-6.15 0-3.5 2.83-6.38 7.5-6.38a10.85 10.85 0 0 1 5.34 1.35l-1 2.87a8.46 8.46 0 0 0-4.45-1.26c-2.33 0-3.64 1.35-3.64 3 0 1.8 1.3 2.6 4.13 3.68 3.77 1.44 5.7 3.32 5.7 6.56 0 3.82-3 6.51-8.13 6.51a12.39 12.39 0 0 1-6.11-1.48zm22.72-23.8a2.45 2.45 0 0 1-4.89 0 2.41 2.41 0 0 1 2.47-2.47 2.35 2.35 0 0 1 2.42 2.47zm-4.43 27.84v-21.73h4v21.73zm30.2-11.04c0 8-5.57 11.54-10.82 11.54-5.88 0-10.42-4.31-10.42-11.18 0-7.27 4.76-11.54 10.78-11.54 6.26 0 10.46 4.58 10.46 11.18zm-17.24.23c0 4.76 2.74 8.35 6.6 8.35s6.6-3.55 6.6-8.44c0-3.68-1.84-8.35-6.51-8.35s-6.65 4.3-6.65 8.43zm22.23-5.04c0-2.25 0-4.09-.18-5.88h3.5l.23 3.59h.09a8 8 0 0 1 7.18-4.09c3 0 7.68 1.8 7.68 9.25v13h-4v-12.54c0-3.5-1.3-6.42-5-6.42a5.61 5.61 0 0 0-5.3 4 5.68 5.68 0 0 0-.27 1.84v13.07h-4zm36.95 15.85l-.31-2.74h-.13a8.1 8.1 0 0 1-6.65 3.23c-4.4 0-6.65-3.1-6.65-6.24 0-5.25 4.67-8.13 13.07-8.08v-.45c0-1.8-.49-5-4.94-5a10.83 10.83 0 0 0-5.66 1.62l-.9-2.6a13.49 13.49 0 0 1 7.14-1.93c6.65 0 8.26 4.54 8.26 8.89v8.13a30.65 30.65 0 0 0 .36 5.21zm-.58-11.09c-4.31-.09-9.2.67-9.2 4.89a3.5 3.5 0 0 0 3.73 3.77 5.41 5.41 0 0 0 5.25-3.64 4.11 4.11 0 0 0 .22-1.26zm10.19-20.79h4v31.88h-4zm41.4 30.9a19.39 19.39 0 0 1-8 1.44c-8.53 0-15-5.39-15-15.31 0-9.47 6.42-15.9 15.81-15.9a16.23 16.23 0 0 1 7.18 1.35l-.94 3.19a14.22 14.22 0 0 0-6.11-1.26c-7.09 0-11.81 4.54-11.81 12.48 0 7.41 4.27 12.17 11.63 12.17a15.63 15.63 0 0 0 6.38-1.26zm16.48.98l-.31-2.74h-.13a8.1 8.1 0 0 1-6.65 3.23c-4.4 0-6.65-3.1-6.65-6.24 0-5.25 4.67-8.13 13.07-8.08v-.45c0-1.8-.49-5-4.94-5a10.83 10.83 0 0 0-5.66 1.62l-.9-2.6a13.49 13.49 0 0 1 7.14-1.93c6.65 0 8.26 4.54 8.26 8.89v8.13a30.65 30.65 0 0 0 .36 5.21zm-.58-11.09c-4.31-.09-9.21.67-9.21 4.89a3.5 3.5 0 0 0 3.73 3.77 5.41 5.41 0 0 0 5.25-3.64 4.11 4.11 0 0 0 .23-1.26zm10.19-4.76c0-2.25 0-4.09-.18-5.88h3.46l.18 3.5h.13a7.49 7.49 0 0 1 6.82-4 6.42 6.42 0 0 1 6.15 4.36h.09a9 9 0 0 1 2.43-2.83 7.42 7.42 0 0 1 4.8-1.53c2.87 0 7.14 1.89 7.14 9.43v12.8h-3.86v-12.3c0-4.18-1.53-6.69-4.71-6.69a5.12 5.12 0 0 0-4.67 3.59 6.5 6.5 0 0 0-.31 2v13.43h-3.86v-13c0-3.46-1.53-6-4.54-6a5.89 5.89 0 0 0-5.21 5.88v13.11h-3.86zm37.46 1.21c0-2.78-.09-5-.18-7.09h3.55l.18 3.73h.09a8.55 8.55 0 0 1 7.72-4.22c5.25 0 9.2 4.45 9.2 11 0 7.81-4.76 11.68-9.88 11.68a7.62 7.62 0 0 1-6.69-3.41h-.09v11.81h-3.9zm3.91 5.79a8.9 8.9 0 0 0 .18 1.62 6.1 6.1 0 0 0 5.93 4.62c4.18 0 6.6-3.41 6.6-8.4 0-4.36-2.29-8.08-6.47-8.08a6.31 6.31 0 0 0-6 4.89 6.38 6.38 0 0 0-.27 1.62z" fill="#9d8730"/>
    </g>
</svg>
