<svg xmlns="http://www.w3.org/2000/svg" xmlns:xlink="http://www.w3.org/1999/xlink" viewBox="0 0 750 192.27"><defs><style>.cls-1{fill:url(#linear-gradient);}.cls-10,.cls-11,.cls-12,.cls-13,.cls-14,.cls-15,.cls-2,.cls-28,.cls-3,.cls-32,.cls-33,.cls-4,.cls-5,.cls-6,.cls-7,.cls-8,.cls-9{stroke-miterlimit:10;}.cls-2{fill:url(#linear-gradient-2);stroke:url(#linear-gradient-3);}.cls-3{fill:url(#linear-gradient-4);stroke:url(#linear-gradient-5);}.cls-4{fill:url(#linear-gradient-6);stroke:url(#linear-gradient-7);}.cls-5{fill:url(#linear-gradient-8);stroke:url(#linear-gradient-9);}.cls-6{fill:url(#linear-gradient-10);stroke:url(#linear-gradient-11);}.cls-7{fill:url(#linear-gradient-12);stroke:url(#linear-gradient-13);}.cls-8{fill:url(#linear-gradient-14);stroke:url(#linear-gradient-15);}.cls-10,.cls-11,.cls-12,.cls-28,.cls-9{fill:none;}.cls-9{stroke:url(#linear-gradient-16);}.cls-10{stroke:url(#linear-gradient-17);}.cls-11{stroke:url(#linear-gradient-18);}.cls-12{stroke:url(#linear-gradient-19);}.cls-13{fill:url(#linear-gradient-20);stroke:url(#linear-gradient-21);}.cls-14{fill:url(#linear-gradient-22);stroke:url(#linear-gradient-23);}.cls-15{fill:url(#linear-gradient-24);stroke:url(#linear-gradient-25);}.cls-16{fill:url(#linear-gradient-26);}.cls-17{fill:url(#linear-gradient-27);}.cls-18{fill:url(#linear-gradient-28);}.cls-19{fill:url(#linear-gradient-29);}.cls-20{fill:url(#linear-gradient-30);}.cls-21{fill:url(#linear-gradient-31);}.cls-22{fill:url(#linear-gradient-32);}.cls-23{fill:url(#linear-gradient-33);}.cls-24{fill:url(#linear-gradient-34);}.cls-25{fill:url(#linear-gradient-35);}.cls-26{fill:url(#linear-gradient-36);}.cls-27{fill:url(#linear-gradient-37);}.cls-28{stroke:url(#linear-gradient-38);}.cls-29{fill:url(#linear-gradient-39);}.cls-30{fill:url(#linear-gradient-40);}.cls-31{fill:url(#linear-gradient-41);}.cls-32{fill:url(#linear-gradient-42);stroke:url(#linear-gradient-43);}.cls-33{fill:url(#linear-gradient-44);stroke:url(#linear-gradient-45);}.cls-34{fill:url(#linear-gradient-46);}.cls-35{fill:url(#linear-gradient-47);}.cls-36{fill:#9d8730;}</style><linearGradient id="linear-gradient" x1="207.13" y1="54.08" x2="240.01" y2="54.08" gradientTransform="matrix(-0.68, -0.49, -0.59, 0.81, 967.5, 133.31)" gradientUnits="userSpaceOnUse"><stop offset="0" stop-color="#c17f2a"/><stop offset="0.1" stop-color="#c78832"/><stop offset="0.26" stop-color="#d7a047"/><stop offset="0.47" stop-color="#f1c868"/><stop offset="0.5" stop-color="#f4cd6d"/><stop offset="0.51" stop-color="#f2ca6a"/><stop offset="0.64" stop-color="#ddaa4e"/><stop offset="0.77" stop-color="#cf943a"/><stop offset="0.89" stop-color="#c6872e"/><stop offset="1" stop-color="#c3822a"/></linearGradient><linearGradient id="linear-gradient-2" x1="177.85" y1="37.8" x2="178.21" y2="37.8" gradientTransform="matrix(1, 0, 0, 1, 0, 0)" xlink:href="#linear-gradient"/><linearGradient id="linear-gradient-3" x1="177.35" y1="37.8" x2="178.71" y2="37.8" gradientTransform="matrix(1, 0, 0, 1, 0, 0)" xlink:href="#linear-gradient"/><linearGradient id="linear-gradient-4" x1="61.98" y1="57.15" x2="90.63" y2="57.15" gradientTransform="matrix(1, 0, 0, 1, 0, 0)" xlink:href="#linear-gradient"/><linearGradient id="linear-gradient-5" x1="61.51" y1="57.15" x2="91.09" y2="57.15" gradientTransform="matrix(1, 0, 0, 1, 0, 0)" xlink:href="#linear-gradient"/><linearGradient id="linear-gradient-6" x1="70.74" y1="56.79" x2="82.85" y2="56.79" gradientTransform="matrix(1, 0, 0, 1, 0, 0)" xlink:href="#linear-gradient"/><linearGradient id="linear-gradient-7" x1="70.28" y1="56.79" x2="83.32" y2="56.79" gradientTransform="matrix(1, 0, 0, 1, 0, 0)" xlink:href="#linear-gradient"/><linearGradient id="linear-gradient-8" x1="272.57" y1="53.8" x2="272.96" y2="53.8" gradientTransform="matrix(1, 0, 0, 1, 0, 0)" xlink:href="#linear-gradient"/><linearGradient id="linear-gradient-9" x1="272.07" y1="53.8" x2="273.46" y2="53.8" gradientTransform="matrix(1, 0, 0, 1, 0, 0)" xlink:href="#linear-gradient"/><linearGradient id="linear-gradient-10" x1="274.31" y1="53.23" x2="277.58" y2="53.23" gradientTransform="matrix(1, 0, 0, 1, 0, 0)" xlink:href="#linear-gradient"/><linearGradient id="linear-gradient-11" x1="273.8" y1="52.96" x2="278.09" y2="52.96" gradientTransform="matrix(1, 0, 0, 1, 0, 0)" xlink:href="#linear-gradient"/><linearGradient id="linear-gradient-12" x1="278.47" y1="53.68" x2="279.27" y2="53.68" gradientTransform="matrix(1, 0, 0, 1, 0, 0)" xlink:href="#linear-gradient"/><linearGradient id="linear-gradient-13" x1="277.97" y1="53.68" x2="279.77" y2="53.68" gradientTransform="matrix(1, 0, 0, 1, 0, 0)" xlink:href="#linear-gradient"/><linearGradient id="linear-gradient-14" x1="358.4" y1="73.8" x2="358.4" y2="73.8" gradientTransform="matrix(1, 0, 0, 1, 0, 0)" xlink:href="#linear-gradient"/><linearGradient id="linear-gradient-15" x1="357.9" y1="73.8" x2="358.9" y2="73.8" gradientTransform="matrix(1, 0, 0, 1, 0, 0)" xlink:href="#linear-gradient"/><linearGradient id="linear-gradient-16" x1="466.97" y1="82.85" x2="477" y2="82.85" gradientTransform="matrix(1, 0, 0, 1, 0, 0)" xlink:href="#linear-gradient"/><linearGradient id="linear-gradient-17" x1="477.17" y1="72.9" x2="478.17" y2="72.9" gradientTransform="matrix(1, 0, 0, 1, 0, 0)" xlink:href="#linear-gradient"/><linearGradient id="linear-gradient-18" x1="551.31" y1="72.87" x2="567.42" y2="72.87" gradientTransform="matrix(1, 0, 0, 1, 0, 0)" xlink:href="#linear-gradient"/><linearGradient id="linear-gradient-19" x1="674.01" y1="80.21" x2="696.87" y2="80.21" gradientTransform="matrix(1, 0, 0, 1, 0, 0)" xlink:href="#linear-gradient"/><linearGradient id="linear-gradient-20" x1="695.19" y1="71.82" x2="695.19" y2="71.82" gradientTransform="matrix(1, 0, 0, 1, 0, 0)" xlink:href="#linear-gradient"/><linearGradient id="linear-gradient-21" x1="694.69" y1="71.82" x2="695.69" y2="71.82" gradientTransform="matrix(1, 0, 0, 1, 0, 0)" xlink:href="#linear-gradient"/><linearGradient id="linear-gradient-22" x1="697.04" y1="72.18" x2="698.93" y2="72.18" gradientTransform="matrix(1, 0, 0, 1, 0, 0)" xlink:href="#linear-gradient"/><linearGradient id="linear-gradient-23" x1="696.54" y1="71.98" x2="699.43" y2="71.98" gradientTransform="matrix(1, 0, 0, 1, 0, 0)" xlink:href="#linear-gradient"/><linearGradient id="linear-gradient-24" x1="745.91" y1="81.15" x2="745.93" y2="81.15" gradientTransform="matrix(1, 0, 0, 1, 0, 0)" xlink:href="#linear-gradient"/><linearGradient id="linear-gradient-25" x1="745.41" y1="81.15" x2="746.43" y2="81.15" gradientTransform="matrix(1, 0, 0, 1, 0, 0)" xlink:href="#linear-gradient"/><linearGradient id="linear-gradient-26" x1="87.32" y1="54.67" x2="131.92" y2="54.67" gradientTransform="matrix(1, 0, 0, 1, 0, 0)" xlink:href="#linear-gradient"/><linearGradient id="linear-gradient-27" x1="44.91" y1="57.74" x2="95.94" y2="57.74" gradientTransform="matrix(1, 0, 0, 1, 0, 0)" xlink:href="#linear-gradient"/><linearGradient id="linear-gradient-28" x1="681.95" y1="57.74" x2="732.98" y2="57.74" gradientTransform="matrix(-1, 0, 0, 1, 845.71, 0)" xlink:href="#linear-gradient"/><linearGradient id="linear-gradient-29" x1="167.22" y1="57.34" x2="194.9" y2="57.34" gradientTransform="matrix(1, 0, 0, 1, 0, 0)" xlink:href="#linear-gradient"/><linearGradient id="linear-gradient-30" x1="204.79" y1="64.2" x2="221.78" y2="64.2" gradientTransform="matrix(1, 0, 0, 1, 0, 0)" xlink:href="#linear-gradient"/><linearGradient id="linear-gradient-31" x1="197.6" y1="45.84" x2="262.03" y2="45.84" gradientTransform="matrix(1, 0, 0, 1, 0, 0)" xlink:href="#linear-gradient"/><linearGradient id="linear-gradient-32" x1="230.07" y1="44.51" x2="264.57" y2="44.51" gradientTransform="matrix(1, 0, 0, 1, 0, 0)" xlink:href="#linear-gradient"/><linearGradient id="linear-gradient-33" x1="840.77" y1="57.74" x2="926.42" y2="57.74" gradientTransform="matrix(-0.83, 0, 0, 1, 1069.38, 0)" xlink:href="#linear-gradient"/><linearGradient id="linear-gradient-34" x1="886.46" y1="65.83" x2="931.76" y2="65.83" gradientTransform="matrix(-0.83, 0, 0, 1, 1069.38, 0)" xlink:href="#linear-gradient"/><linearGradient id="linear-gradient-35" x1="373.12" y1="84.75" x2="423.87" y2="84.75" gradientTransform="matrix(1, 0, 0, 1, 0, 0)" xlink:href="#linear-gradient"/><linearGradient id="linear-gradient-36" x1="506.44" y1="95.53" x2="520.89" y2="95.53" gradientTransform="matrix(1, 0, 0, 1, 0, 0)" xlink:href="#linear-gradient"/><linearGradient id="linear-gradient-37" x1="500.32" y1="79.95" x2="561.35" y2="79.95" gradientTransform="matrix(1, 0, 0, 1, 0, 0)" xlink:href="#linear-gradient"/><linearGradient id="linear-gradient-38" x1="443.14" y1="83.96" x2="453.17" y2="83.96" gradientTransform="matrix(1, 0, 0, 1, 0, 0)" xlink:href="#linear-gradient"/><linearGradient id="linear-gradient-39" x1="429.29" y1="79.45" x2="507.39" y2="79.45" gradientTransform="matrix(1, 0, 0, 1, 0, 0)" xlink:href="#linear-gradient"/><linearGradient id="linear-gradient-40" x1="881.97" y1="-213.94" x2="916.65" y2="-213.94" gradientTransform="matrix(0.68, 0.48, 0.58, -0.82, 129.57, -518.35)" xlink:href="#linear-gradient"/><linearGradient id="linear-gradient-41" x1="380.65" y1="166.71" x2="415.32" y2="166.71" xlink:href="#linear-gradient"/><linearGradient id="linear-gradient-42" x1="708.55" y1="99.85" x2="739.96" y2="99.85" gradientTransform="matrix(0.91, 0.44, -0.44, 0.9, 2.65, -335.02)" xlink:href="#linear-gradient"/><linearGradient id="linear-gradient-43" x1="595.36" y1="76.05" x2="633.15" y2="76.05" gradientTransform="matrix(1, 0, 0, 1, 0, 0)" xlink:href="#linear-gradient"/><linearGradient id="linear-gradient-44" x1="707.69" y1="121.13" x2="739.09" y2="121.13" gradientTransform="matrix(0.91, 0.44, -0.44, 0.9, 2.65, -335.02)" xlink:href="#linear-gradient"/><linearGradient id="linear-gradient-45" x1="585.25" y1="94.79" x2="623.05" y2="94.79" gradientTransform="matrix(1, 0, 0, 1, 0, 0)" xlink:href="#linear-gradient"/><linearGradient id="linear-gradient-46" x1="540.95" y1="78.68" x2="727.15" y2="78.68" gradientTransform="matrix(1, 0, 0, 1, 0, 0)" xlink:href="#linear-gradient"/><linearGradient id="linear-gradient-47" x1="727.15" y1="79.81" x2="790.91" y2="79.81" gradientTransform="matrix(1, 0, 0, 1, 0, 0)" xlink:href="#linear-gradient"/></defs><title>New logo TH</title><g id="Layer_1" data-name="Layer 1"><path class="cls-1" d="M778.32,100.25s-7.63-23.79,6-24.75A13.26,13.26,0,0,0,788.67,73a15.14,15.14,0,0,0,4.76-8.87,36.23,36.23,0,0,0-1.6-4.61,34.65,34.65,0,0,0-3-5.51c2.63-3,3.84-6.4,2.89-8.85a4.44,4.44,0,0,0-1.1-1.63s0-6.16,4.27-5.9A6.26,6.26,0,0,0,788.08,40a6,6,0,0,0-.89,4.11,14.54,14.54,0,0,0-6.05,6.46,13.31,13.31,0,0,0-.94,8.92l1.26,2.46a6.52,6.52,0,0,0-3.5.26,7.9,7.9,0,0,0-3.59,2.67,22,22,0,0,0-3.43,4.51A21.45,21.45,0,0,0,768.69,75c-.55,1.55-2.77,8.38.15,15.5A18.14,18.14,0,0,0,778.32,100.25Z" transform="translate(-44.91 -8.29)"/><line class="cls-2" x1="178.21" y1="16.59" x2="177.85" y2="59"/><path class="cls-3" d="M62,21.42,90.63,92.88" transform="translate(-44.91 -8.29)"/><line class="cls-4" x1="70.74" y1="41.83" x2="82.85" y2="71.75"/><line class="cls-5" x1="272.57" y1="27.21" x2="272.96" y2="80.39"/><polygon class="cls-6" points="274.31 26.01 274.92 82.23 277.58 83.82 276.92 22.64 274.31 26.01"/><line class="cls-7" x1="278.47" y1="22.64" x2="279.27" y2="84.71"/><line class="cls-8" x1="358.4" y1="57.34" x2="358.4" y2="90.25"/><path class="cls-9" d="M476.5,103.6V69.47c0-5.5-7.5-6.53-7.5-6.53l-1.94-.35" transform="translate(-44.91 -8.29)"/><line class="cls-10" x1="477.67" y1="53.9" x2="477.67" y2="91.9"/><polygon class="cls-11" points="551.81 66.83 551.81 79.89 566.53 84.14 566.9 61.63 551.81 66.83"/><path class="cls-12" d="M674,59.5s32.45-1.17,19.14,41.77" transform="translate(-44.91 -8.29)"/><line class="cls-13" x1="695.19" y1="60.52" x2="695.19" y2="83.12"/><polygon class="cls-14" points="697.04 58.22 697.04 87.08 698.93 88.03 698.93 56.33 697.04 58.22"/><path class="cls-15" d="M745.93,63.71q0,17.44,0,34.87" transform="translate(-44.91 -8.29)"/><path class="cls-16" d="M117.23,57.93c1.39-15.32-16.52-21.78-16.52-21.78,8.68-12.27-3.48-14.38-3.48-14.38a7.67,7.67,0,0,0-5.79-9.13,9.29,9.29,0,0,1,1.61,5.62c-.24,3.16-2.41,5.15-1.54,6.53.3.47,1,1,3,.9A14.1,14.1,0,0,0,92.9,39.41c-6.86,11.46,8,14.35,8,14.35.28.06.52.15.78.22a14.71,14.71,0,0,1,3.63,1.79c10,8.81-17.94,38.79-17.94,38.79C96.26,88.11,102.77,82.28,107.4,77c.57,1.42,1.35,3.29,2.45,5.93,1.23,2.95,3.19,7.69,5.64,13.76h16.42Z" transform="translate(-44.91 -8.29)"/><path class="cls-17" d="M48.52,8.29S49,19.76,49.89,21.4c0,.11.66,2.24-.2,2.91s-2.75,0-4.45-2A9.49,9.49,0,0,0,45,26a9.91,9.91,0,0,0,3,5.7L71.47,92.4H67.85S64,104.17,78.23,106.89,95.94,92,95.94,92l-8,.42L63.51,26.77S63.14,20,60.74,17.7c0,0-1,3.65-2.78,3.74-1.22.06-2.16-1.62-3.2-3.39C53.37,15.69,51.33,12.36,48.52,8.29Z" transform="translate(-44.91 -8.29)"/><path class="cls-18" d="M161,8.29s-.44,11.47-1.37,13.11c0,.11-.66,2.24.2,2.91s2.75,0,4.45-2a9.5,9.5,0,0,1,.24,3.75,9.92,9.92,0,0,1-3,5.7L138.08,92.4h3.62s3.86,11.77-10.37,14.49S113.65,92,113.65,92l8,.42L146,26.77s.37-6.81,2.76-9.07c0,0,1,3.65,2.78,3.74,1.22.06,2.16-1.62,3.2-3.39C156.16,15.69,158.2,12.36,161,8.29Z" transform="translate(-44.91 -8.29)"/><path class="cls-19" d="M192.92,82.4v-6h-3.64l-.83-44.06a13.54,13.54,0,0,0,2.49-5.12,14.57,14.57,0,0,0-.83-9.13q-1.36,3.29-2.86,3.35-3,.14-6.56-12.94c-.78,5.47-2.32,13.26-5,13.49-.9.08-2.26-.68-4.12-4.7-4.13,7,2,14.95,2,14.95l-.41,44.14-4-.09-.08,6.24h-1.9V86.8l3.88-.09v4.48h2.15l-.17,6.24h3.8l.17,4,2,.26-.08,4.4h4.13l-.08-4.31h2V97.52h4.3v-5.8h1.82l.17-4.57h3.64V82.4Zm-11.86-48a5.64,5.64,0,0,1-5.45-5.8,5.46,5.46,0,1,1,10.91,0A5.64,5.64,0,0,1,181.06,34.41Z" transform="translate(-44.91 -8.29)"/><path class="cls-20" d="M220.63,90h0l.86-72.69H205.75l.19,73.16c-.56,2.26-2.3,9.9,0,9.93,0,0,4-6.08,4.55.05A41.49,41.49,0,0,0,213,111.14a40.55,40.55,0,0,0,2.82-10.68c.75-6.12,4.69.06,4.69.06C223.31,100.55,220.63,90,220.63,90Z" transform="translate(-44.91 -8.29)"/><path class="cls-21" d="M202.2,16.33a31.5,31.5,0,0,0,7,4.87c3.67,1.87,7.06,3.75,17.05,3.75,5.42,0,11.58-1,15.92,2.22,4.93,3.6,8.32,7.94,9.7,13.25a30,30,0,0,1-.13,15.23c-.1.36-.16.6-.27.95-1.89,5.68-7.57,8.45-8.82,9.06-2.71,1.32-7.51,1.42-17.12,1.62-4.39.09-9.49,0-11.91-.12l-1.5-.06c-2.22-.08-3.5,0-5.54-.1-2.52-.06-2-.08-3.11-.09a36.76,36.76,0,0,1-4.27-.16c-.67-.08-1.21-.17-1.57-.24a19.19,19.19,0,0,0,5,4.85c3.08,2.06,6,2.69,9.29,3.35a54.08,54.08,0,0,0,8.95,1,73.53,73.53,0,0,0,10.4,0c2.66-.21,4.7-.56,5.63-.72,1.74-.31,3.24-.66,4.47-1,17.84-9.36,21.07-16,20.7-20.32-.54-6.25-9-12.18-7.2-14.69.92-1.31,3.44,0,4.48-1.36,1.85-2.4-2.95-10.56-9.77-15.62-5.58-4.14-11.22-5.05-15.53-5.7-5.46-.82-7.77-.14-18.43.1C209.75,16.48,205.08,16.4,202.2,16.33Z" transform="translate(-44.91 -8.29)"/><path class="cls-22" d="M230.07,75.73c9.84-3.57,15.82-11.25,15.14-18.29a13.21,13.21,0,0,0-3.51-7.52,13.69,13.69,0,0,1-1-1.41A14,14,0,0,1,239.05,45a12.12,12.12,0,0,1,1.69-8.66,7.25,7.25,0,0,1,.52-.77l.22-.26a20.41,20.41,0,0,1,4.9-3.63c3.73-2,7.38-3.46,8.71-4,0,0-2.26-7.62,3.95-7.62a6.2,6.2,0,0,0,2.57-1.78,5.6,5.6,0,0,0,1-5,6.59,6.59,0,0,1,1.69,4.19,6.44,6.44,0,0,1-1.2,3.81,13.94,13.94,0,0,1,.5,11.11c-1.79,4.34-5.9,7.48-7.3,7.51-.05,0-.28,0-.33.1-.18.37,2.43,1.29,4.25,3A9.8,9.8,0,0,1,263,48.28a12.18,12.18,0,0,1-.21,6.16,17,17,0,0,1-2.28,4.83,30.13,30.13,0,0,1-5.11,6.38,44.19,44.19,0,0,1-9.13,6.3,34.22,34.22,0,0,1-7.7,2.71c-.89.18-2.54.44-4.06.65-1,.14-1.81.22-2.35.27C231.34,75.65,230.64,75.7,230.07,75.73Z" transform="translate(-44.91 -8.29)"/><path class="cls-23" d="M363.88,8.29c-1.35,8.78-4,15.42-6.71,18.23a13.92,13.92,0,0,1-3.09,2.36,11.87,11.87,0,0,1-6.35,1.36H326.09s-3.89.51-7.66,4.91c-6.55,7.64-7,18.34-7,28.25,0,14.95,1.94,19.19,3,20.86A22.75,22.75,0,0,0,323,91.81c4,2,9.61,2.07,20.63,2.1,3.51,0,6.2-.05,11-.16,5.84-.13,10.65-.29,14-.42a23,23,0,0,1-4.17,6.51,24.37,24.37,0,0,1-13.64,7.34H323a40.51,40.51,0,0,1-14.93-9.91,41.59,41.59,0,0,1-10.92-23.89c8.29-6.73,9.43-10.83,8.79-13.38-.85-3.36-4.89-3.83-6.55-8.38-1.25-3.4-.36-6.67.91-11.11,1.52-5.32,3.93-13.74,10.95-19,4.85-3.62,10.71-4,15.41-4.53,1.89-.21,4.12-.25,8.58-.35,8.75-.18,10.15.19,12.75-.08C351.92,16.18,357.43,14.47,363.88,8.29Z" transform="translate(-44.91 -8.29)"/><path class="cls-24" d="M330.5,107.18c-13-8.44-19.85-19.59-17.21-27.44A11.88,11.88,0,0,1,317,74.49a18.07,18.07,0,0,0,1.85-3.42,20.64,20.64,0,0,0,.89-2.82c.57-2.48.17-7.31-2-12.94a14.45,14.45,0,0,0-2.38-2.55,18.6,18.6,0,0,0-2.92-1.9,47.21,47.21,0,0,0-7.66-3.72c.54-5.38-.87-10.13-3.88-12.08a6.05,6.05,0,0,0-2.52-.91s-4.88-6.84,0-9.91a8.54,8.54,0,0,0-5.65,8.09,8.2,8.2,0,0,0,2.3,5.25,18.73,18.73,0,0,0,1.74,19.31,14.46,14.46,0,0,0,2.34,2.65,18.21,18.21,0,0,0,3.61,2.17l.23.11a14.11,14.11,0,0,0-3.65,3.11,11.89,11.89,0,0,0-2.37,5.39,39.08,39.08,0,0,0,1.94,16.5,28.83,28.83,0,0,0,31.63,20.36Z" transform="translate(-44.91 -8.29)"/><path class="cls-25" d="M418.54,98.22l-.39-33.54.06,0A9.84,9.84,0,0,0,420.62,63a9.6,9.6,0,0,0,2.88-7.25c-2,.15-3.84.23-5.45.27l0-2.19-12.83-.23,0,2.22c0-.25-11.17.89-12.46,1.12a26.18,26.18,0,0,0-7.9,2.55c-4.14,2.27-6.11,5.92-7.3,8a29.69,29.69,0,0,0-3.05,8.19c-1.05,4.61-2.57,11.27.5,18.44a23.65,23.65,0,0,0,9.29,10.79c8.86,5.4,18.19,2.74,19.77,2.26a9.25,9.25,0,0,0,1.56,3.17c.69-1.41,1.66-3.06,2.41-2.91.57.12.74,1.24,1.09,2.53a21.66,21.66,0,0,0,2.66,5.93A36.14,36.14,0,0,0,414,110c.4-1.37.61-2.4,1.18-2.5.85-.16,1.92,1.85,2.52,3.12a17.12,17.12,0,0,0,1.2-4.65c0-.43.06-.83.07-1.24a12.51,12.51,0,0,0,1.33-1,11.53,11.53,0,0,0,3.55-5.7C422.31,98.1,420.52,98.16,418.54,98.22Zm-30-2.37c-5.67-4.63-5.11-14.38-2.65-20.29a17.22,17.22,0,0,1,4.5-6.51,16.34,16.34,0,0,1,3-2.12,13.08,13.08,0,0,1,2.92-1,16,16,0,0,1,2.81-.32c.87,0,1.29,0,2.64,0h3.31l-.3,32.74c-10.52-.12-13.72-.83-15.46-1.92A6.32,6.32,0,0,1,388.52,95.85Z" transform="translate(-44.91 -8.29)"/><path class="cls-26" d="M519.91,117.38h0l.73-61.67H507.26l.16,62.07c-.48,1.91-2,8.4,0,8.42,0,0,3.39-5.16,3.87,0a35.12,35.12,0,0,0,2.09,9.12,34.33,34.33,0,0,0,2.4-9.06c.64-5.19,4,0,4,0C522.19,126.37,519.91,117.38,519.91,117.38Z" transform="translate(-44.91 -8.29)"/><path class="cls-27" d="M560.69,68.87a9.61,9.61,0,0,0-.34-7.66,4.44,4.44,0,0,0,.83-2.62A4.54,4.54,0,0,0,560,55.7a3.86,3.86,0,0,1-.7,3.41,4.27,4.27,0,0,1-1.77,1.23c-4.28,0-2.72,5.25-2.72,5.25-.55.22-1.68.69-3,1.31-.18-.34-.34-.67-.54-1a21.68,21.68,0,0,0-6.2-7.38c-3.84-2.73-7.69-3.12-13.76-3.67-5-.44-7.09-.11-15.68.09-4.93.11-8.9,0-11.35,0A26.8,26.8,0,0,0,510.16,59c3.12,1.59,6,3.18,14.51,3.18,4.61,0,9.85-.82,13.55,1.88a22.4,22.4,0,0,1,6.73,7.42l0,0a8.35,8.35,0,0,0-1.17,6A9.64,9.64,0,0,0,544.9,80a9.44,9.44,0,0,0,.68,1,10.53,10.53,0,0,1,1.61,2.29,26.13,26.13,0,0,1-.83,5c-.08.3-.13.51-.23.8-1.61,4.82-6.44,7.17-7.51,7.68-2.31,1.12-6.39,1.2-14.57,1.37-3.73.08-8.07,0-10.14-.1L512.65,98c-1.89-.07-3,0-4.71-.08-2.14-.05-1.69-.06-2.65-.08a31.37,31.37,0,0,1-3.63-.14c-.57-.07-1-.15-1.34-.2a16.31,16.31,0,0,0,4.22,4.12,20.26,20.26,0,0,0,7.9,2.84,41.46,41.46,0,0,0,7.61.81c4,.07,9.9.05,17.63-.44a22.3,22.3,0,0,0,12.83-7,19.28,19.28,0,0,0,3-4.76q.76-.6,1.48-1.23a20.76,20.76,0,0,0,3.52-4.4,11.7,11.7,0,0,0,1.57-3.33,8.4,8.4,0,0,0,.15-4.24,6.75,6.75,0,0,0-1.89-3.63c-1.26-1.18-3.05-1.81-2.93-2.06,0-.07.2-.07.23-.07C556.62,74,559.46,71.87,560.69,68.87Z" transform="translate(-44.91 -8.29)"/><path class="cls-28" d="M452.67,104.71V70.58c0-5.5-7.5-6.53-7.5-6.53l-1.94-.35" transform="translate(-44.91 -8.29)"/><path class="cls-29" d="M500.09,101.92a4.9,4.9,0,0,1-1.58-1.74,6.12,6.12,0,0,0-5.81-3,5.9,5.9,0,0,0-3.75,2.09,16.14,16.14,0,0,1-1.6,1.2l.22-31.95s-1.19-9.72-11.38-10.62c0,0-11.17-1.94-16.68,3.42a12.3,12.3,0,0,0-7-2.72s-6.58-1.14-12.13.76l0-1A5.17,5.17,0,0,0,441,54.8a4.67,4.67,0,0,0-.93-1.87c-.57,1.43-1.61,2.17-2.2,2s-.72-1.38-.73-1.45c.21-1-1.94-7-1.94-7-.8,2.71-1.31,4.87-1.63,6.39-.24,1.14-.44,2.21-1.17,2.45C431.33,55.69,430,54,430,54c-.94,1.69.28,5.26.28,5.26l-.5,39.3a16.64,16.64,0,0,1-.25,2,7.14,7.14,0,0,0-.2,1.73,3.72,3.72,0,0,0,.76,1.68c.77,1.07,1.48,2.17,2.23,3.25a30.17,30.17,0,0,0,3.31,4.06c.35.35,1.17,1.27,1.77,1,1.08-.48-1.37-4.84,1-8.73,1.64-2.67,4.46-3.32,4.47-5.48a3.55,3.55,0,0,0-1-2.33,2.62,2.62,0,0,0-1-.7,12.24,12.24,0,0,1-1.52-.41l.85-27.91A7.52,7.52,0,0,1,446.86,64s6.87.18,7.35,5.22,0,34.21,0,34.21h-3.32s2.37,4.32,6.87,3.78c0,0,7.35.72,9.24-3.78l-3.32-.36.24-33.85a12.58,12.58,0,0,0-.66-2.46,7.8,7.8,0,0,1,7.24-3.46s6.87.18,7.35,5.22,0,34.21,0,34.21h-1.61a15.66,15.66,0,0,1-2.33-.61C478.55,116,494.3,105,494.3,105c5.59,5.15,7.66-.33,7.66-.33a4.5,4.5,0,0,0,3.66-.46,4.08,4.08,0,0,0,1.76-2.61C504.85,103,502,103.2,500.09,101.92Z" transform="translate(-44.91 -8.29)"/><path class="cls-30" d="M625.56,54s8.47,25.06-6.12,26.25A14.2,14.2,0,0,0,614.86,83a15.94,15.94,0,0,0-5,9.44,38.05,38.05,0,0,0,1.77,4.85,36.53,36.53,0,0,0,3.23,5.78c-2.77,3.17-4,6.82-3,9.4a4.69,4.69,0,0,0,1.2,1.7s0,6.52-4.48,6.29a6.73,6.73,0,0,0,7.27-2.6,6.31,6.31,0,0,0,.9-4.36,15.45,15.45,0,0,0,6.38-6.91,13.94,13.94,0,0,0,.88-9.45l-1.38-2.58a7,7,0,0,0,3.73-.32,8.43,8.43,0,0,0,3.8-2.87,23.24,23.24,0,0,0,3.6-4.81,22.54,22.54,0,0,0,2.33-6c.56-1.65,2.85-8.89-.37-16.39A19.3,19.3,0,0,0,625.56,54Z" transform="translate(-44.91 -8.29)"/><path class="cls-31" d="M594.08,108.15S585.93,83,600.53,82a14.21,14.21,0,0,0,4.61-2.68,16,16,0,0,0,5.09-9.38,38,38,0,0,0-1.71-4.87,36.52,36.52,0,0,0-3.16-5.82c2.81-3.14,4.11-6.77,3.09-9.36a4.69,4.69,0,0,0-1.18-1.72s0-6.52,4.56-6.23a6.73,6.73,0,0,0-7.31,2.51,6.31,6.31,0,0,0-1,4.34,15.46,15.46,0,0,0-6.47,6.83,13.94,13.94,0,0,0-1,9.44l1.34,2.6a7,7,0,0,0-3.74.27,8.43,8.43,0,0,0-3.83,2.82,23.25,23.25,0,0,0-3.66,4.77,22.54,22.54,0,0,0-2.4,6c-.58,1.64-3,8.86.16,16.39A19.29,19.29,0,0,0,594.08,108.15Z" transform="translate(-44.91 -8.29)"/><path class="cls-32" d="M596.72,75.13c.39-1,2.63-6.47,7.8-7.82a13.06,13.06,0,0,1,6.39.26,21,21,0,0,1,8.1,3.77c3.38,3.79,7.71,5.48,10.85,4.2a5.92,5.92,0,0,0,2.34-1.76s-2.67,11.67-14.84,11.31c0,0-10.47-2.81-5.9-9.67l1.2-.59S603,68.7,596.72,75.13Z" transform="translate(-44.91 -8.29)"/><path class="cls-33" d="M586.62,93.87c.39-1,2.63-6.47,7.8-7.82a13.06,13.06,0,0,1,6.39.26,21,21,0,0,1,8.1,3.77c3.38,3.79,7.71,5.48,10.85,4.2a5.92,5.92,0,0,0,2.34-1.76s-2.67,11.67-14.84,11.31c0,0-10.47-2.81-5.9-9.67l1.2-.59S592.87,87.44,586.62,93.87Z" transform="translate(-44.91 -8.29)"/><path class="cls-34" d="M718.55,99.31a5.65,5.65,0,0,1-1.86-2A7.3,7.3,0,0,0,709.84,94a6.49,6.49,0,0,0-2,.58c2.72-10.72,4.35-26.95-6.84-36,0,0-20.51-19.49-44.47,0,0,0-14,11.78-7.26,31.88,0,0,6,16.79,21.66,15.64s18.48-15.64,18.48-15.64,1.19-4.49,1-6l.15-2h0a11.41,11.41,0,1,0-14.08,9.4h0s-1.24,6.09-8.63,4.31S653.43,79.48,662.1,67s38.23-9.11,37,13.28c0,0,.49,8.84-4.9,20.07l-.43,0-.68,0-.33,0h-.35c-.18,0-1,0-1.88-.11a11.66,11.66,0,0,1-1.63-.26,10.66,10.66,0,0,1-1.13-.34c5.46,15.63,24,3.2,24,3.2,6.59,5.83,9-.37,9-.37a5.49,5.49,0,0,0,4.31-.52,4.6,4.6,0,0,0,2.08-3C724.15,100.55,720.81,100.75,718.55,99.31ZM674.75,81.19a4.59,4.59,0,1,1,4.59,4.59A4.59,4.59,0,0,1,674.75,81.19Z" transform="translate(-44.91 -8.29)"/><path class="cls-35" d="M759,50.78c-17.61,0-31.88,13-31.88,29s14.27,29,31.88,29,31.88-13,31.88-29S776.63,50.78,759,50.78Zm0,48.36c-11.72,0-21.22-8.65-21.22-19.33s9.5-19.33,21.22-19.33,21.22,8.65,21.22,19.33S770.75,99.14,759,99.14Z" transform="translate(-44.91 -8.29)"/><text x="-44.91" y="-8.29"></text><path class="cls-36" d="M119.78,144a2.52,2.52,0,0,0,.6,1.08,7.64,7.64,0,0,0,2,.84,4.74,4.74,0,0,1,2,1.08q1,1.08,1.5,4.68a35.69,35.69,0,0,1-.24,10.44,22.84,22.84,0,0,0,.24,8.4,9,9,0,0,0,1.14,3.12q.54.78,1.08.78a1.63,1.63,0,0,0,1.2-.48,4.82,4.82,0,0,0,1-2,17,17,0,0,0,.57-2.1q.27-1.26.57-3.09t.54-2.85q.06-.24.24-1.38a46.45,46.45,0,0,1-.66-6.42,12.21,12.21,0,0,1,.12-3.12,5,5,0,0,1,.48-1.38,2.19,2.19,0,0,1,3.84,0,5.05,5.05,0,0,1,.48,1.38,17.67,17.67,0,0,1,.12,3.12,55.39,55.39,0,0,1-.72,6.42c.12.72.2,1.18.24,1.38q.24,1,.57,2.85t.57,3.09a17.29,17.29,0,0,0,.54,2.1,5.27,5.27,0,0,0,1.08,2,1.63,1.63,0,0,0,1.2.48q.54,0,1.08-.78a9,9,0,0,0,1.14-3.18,25.43,25.43,0,0,0,0-8.22,27.63,27.63,0,0,1,.51-9.69,16.56,16.56,0,0,1,4.47-8.13q-2.88,6-1.44,17.1a32.13,32.13,0,0,1,0,9.66,12.73,12.73,0,0,1-1.74,4.5,4.67,4.67,0,0,1-4,2.34,5,5,0,0,1-3.78-1.56,9.46,9.46,0,0,1-1.92-3.42c-.08-.32-.18-.7-.3-1.14q-.18.66-.36,1.14a8.89,8.89,0,0,1-1.86,3.42,5,5,0,0,1-3.78,1.56,4.67,4.67,0,0,1-4-2.34,12.66,12.66,0,0,1-1.74-4.44,26.47,26.47,0,0,1-.24-9.72q1.2-8-.6-12a.56.56,0,0,0-.72-.3q-1,.24-.84,1.8a2.44,2.44,0,0,1-.69-1,8.86,8.86,0,0,1-.57-1.56,9.35,9.35,0,0,1,0-3.66,3.79,3.79,0,0,1,.78-2.16A4.3,4.3,0,0,0,119.78,144Z" transform="translate(-44.91 -8.29)"/><path class="cls-36" d="M150.5,154.48a1.59,1.59,0,0,0,.84.66,2.09,2.09,0,0,0,.81.06l.84-.33a6.86,6.86,0,0,1,1.53-.39l2.58-.3h.12a12.05,12.05,0,0,1,2.1-.18,9,9,0,0,1,4.8,1.26,9.13,9.13,0,0,1,3.18,3.24,15.65,15.65,0,0,1,1.62,7.5,18.25,18.25,0,0,1-.24,3,6.32,6.32,0,0,1,.18.84v.24a.54.54,0,0,1,.06.24v.54a17.08,17.08,0,0,0,.51,4.56,7.5,7.5,0,0,0,1,2.4,8.81,8.81,0,0,0,1.5,1.38q-4.56.24-6-4.5a2.61,2.61,0,0,1-.54.6,8.65,8.65,0,0,1-6.06,2.7,10.65,10.65,0,0,1-6.24-1.68,6.41,6.41,0,0,1-2.76-5.52A7.1,7.1,0,0,1,153.5,165a9.82,9.82,0,0,1,5.82-2,11,11,0,0,1,5.7,1.68l.24.12a10.89,10.89,0,0,0-1.14-4.56,5.12,5.12,0,0,0-1.8-2,5.76,5.76,0,0,0-3-.66H159a10.24,10.24,0,0,0-2.94.72,15.69,15.69,0,0,0-1.5.84,1.13,1.13,0,0,0-.54,1,1.85,1.85,0,0,0,.6,1,2.68,2.68,0,0,1-1.5-.6,7.41,7.41,0,0,1-2.76-3,8.73,8.73,0,0,1-.54-2.82,6.6,6.6,0,0,1,0-2A14.3,14.3,0,0,0,150.5,154.48Zm5.16,13.44a3.56,3.56,0,0,0-1.74,2.88,3,3,0,0,0,1.26,2.58,7.11,7.11,0,0,0,4.14,1A4.81,4.81,0,0,0,161,174a5.6,5.6,0,0,0,1.89-1.26,7.61,7.61,0,0,0,2-3.42,4.62,4.62,0,0,0-1.14-1.2h-.06l-.06-.06a.65.65,0,0,1-.18-.12h-.06a.73.73,0,0,0-.18-.12,7.5,7.5,0,0,0-3.9-1.2H157.4Z" transform="translate(-44.91 -8.29)"/><path class="cls-36" d="M172,152.38a2.52,2.52,0,0,0,.6,1.08,7.2,7.2,0,0,0,2,.9,5.22,5.22,0,0,1,1.95,1,7.17,7.17,0,0,1,1.62,3.18,9.17,9.17,0,0,1,.24,1.56,13,13,0,0,1,0,5,10,10,0,0,1-.15,1.05q-.15.87-.21,1.17c0,.2-.08.51-.12.93a7.68,7.68,0,0,0,0,1.17q0,.54.09,1.14a4.25,4.25,0,0,0,1.26,2.76,4,4,0,0,0,2.94,1.08,3.77,3.77,0,0,0,3.06-1.8,11.4,11.4,0,0,0,1.8-4.14q-.24-1.56-.36-2.22a25.76,25.76,0,0,1-.54-5.4,12.08,12.08,0,0,1,1-5.1,3.22,3.22,0,0,1,1-1.32,1.84,1.84,0,0,1,1.14-.36.76.76,0,0,1,.42,0,2.2,2.2,0,0,1,1.26.78,3.41,3.41,0,0,1,.6,1.44,12,12,0,0,1,.18,1.5,39.16,39.16,0,0,1-.72,9.12c-.08.52-.18,1.1-.3,1.74a59.58,59.58,0,0,1,1,8.64v.18a24.75,24.75,0,0,1-1.32,8,17.24,17.24,0,0,1-4,6.63,8.3,8.3,0,0,1-6.09,2.73,12.57,12.57,0,0,0,5.61-6.51,28.1,28.1,0,0,0,2.19-10.83v-.06a19.62,19.62,0,0,0-.18-2.52,7,7,0,0,1-5.82,3.12,7.51,7.51,0,0,1-5.46-2.1,7.88,7.88,0,0,1-2.34-4.86,18.58,18.58,0,0,1,.36-5.76,16.11,16.11,0,0,0,.12-4.32q-.18-.9-.36-1.5a.18.18,0,0,0-.06-.12,2.77,2.77,0,0,0-.54-1,1,1,0,0,0-.63-.33.89.89,0,0,0-.81.24,1.28,1.28,0,0,0-.24,1.17,2.45,2.45,0,0,1-.69-1,8.78,8.78,0,0,1-.57-1.56,9.37,9.37,0,0,1,0-3.66,3.78,3.78,0,0,1,.78-2.16A4.28,4.28,0,0,0,172,152.38Z" transform="translate(-44.91 -8.29)"/><path class="cls-36" d="M214.46,154.78a8.78,8.78,0,0,1-.54,2.82,7.41,7.41,0,0,1-2.76,3,2.69,2.69,0,0,1-1.5.6q1.56-1.62-1.44-2.88a7.57,7.57,0,0,0-5.76-.12,2.58,2.58,0,0,0-1.74,2.4,1,1,0,0,0,.27.75,7.54,7.54,0,0,0,1.11.81,11.14,11.14,0,0,0,3.78,1.5,18.08,18.08,0,0,1,5.28,1.74,7.2,7.2,0,0,1,2.37,2.22,5.75,5.75,0,0,1,1,3.06,7,7,0,0,1-.3,2,6.58,6.58,0,0,1-3.3,3.84,10.8,10.8,0,0,1-5.52,1.5,9.64,9.64,0,0,1-7.35-2.79,8.3,8.3,0,0,1-2.13-7.41,7.48,7.48,0,0,0,3.45,4.8,11.11,11.11,0,0,0,6.15,1.8,7,7,0,0,0,3.51-.93,3.5,3.5,0,0,0,1.89-2.67,2,2,0,0,0-.36-1.26,4.67,4.67,0,0,0-1.2-1,16.61,16.61,0,0,0-4.2-1.38,14,14,0,0,1-5-1.92q-3-2-3-4.62a5.63,5.63,0,0,1,1-3.3,7.34,7.34,0,0,1,2.67-2.34,9.64,9.64,0,0,1,4.26-1,20.65,20.65,0,0,1,4.8.48,6.52,6.52,0,0,1,1,.36,6.32,6.32,0,0,0,1,.36,2.83,2.83,0,0,0,1-.06,1.94,1.94,0,0,0,.69-.48,2,2,0,0,0,.39-.6q.12-.3.48-1.26A6.68,6.68,0,0,1,214.46,154.78Z" transform="translate(-44.91 -8.29)"/><path class="cls-36" d="M239.81,147.67a14.42,14.42,0,0,1,.51,5.73,3.41,3.41,0,0,0,.24,1.38,12.32,12.32,0,0,1,3-1.26,3.58,3.58,0,0,1,1.44-.24,3.34,3.34,0,0,1,1.26.42,1.76,1.76,0,0,1,.66,1.14,1.6,1.6,0,0,1-.06,1.14,4,4,0,0,1-1.44,1.44,8.08,8.08,0,0,1-2,1,6.91,6.91,0,0,1-2.1.42,5.13,5.13,0,0,0-1.14,1.44,14,14,0,0,0-.42,4.56,16.08,16.08,0,0,0,1.56,7.74q1,1.86,2,1.86a1.55,1.55,0,0,0,1-.3.92.92,0,0,0,.48-.9.61.61,0,0,0-.39-.54c-.22-.08-.37,0-.45.12a2.39,2.39,0,0,1,.12-1.8,6.33,6.33,0,0,1,1.92-2.34q1.14-1,1.62-1a3.39,3.39,0,0,0-.54,1,2.31,2.31,0,0,0-.18,1,6.59,6.59,0,0,0,.6,1.47,4.63,4.63,0,0,1,.54,1.47,5.45,5.45,0,0,1-.36,3.12,4.18,4.18,0,0,1-1.86,1.53,6.61,6.61,0,0,1-2.52.69q-3.06.12-5.16-3.72a19.15,19.15,0,0,1-2-9.48v-2.55q0-.27.09-1.11a6.74,6.74,0,0,1,.27-1.38q.18-.54.42-1.14a7.49,7.49,0,0,1,1-1.44,6.55,6.55,0,0,1-.78-3.78q0-.6.09-2.07t.12-2.37a9,9,0,0,0-.27-2.22,8.18,8.18,0,0,0-.9-2.34A6.22,6.22,0,0,1,239.81,147.67Z" transform="translate(-44.91 -8.29)"/><path class="cls-36" d="M263.35,151.48a9.69,9.69,0,0,1,.42,2.52,5.52,5.52,0,0,1-.24,1.92,4.49,4.49,0,0,1,5.58.72,9.72,9.72,0,0,1,2.46,4.77,15.94,15.94,0,0,1,.42,5.91q-.78,5.76-4,8.52a8.56,8.56,0,0,1-7.2,2,9.15,9.15,0,0,1-6.66-4.68,12.15,12.15,0,0,1-1.65-4.41,14.58,14.58,0,0,1-.21-4.77,13.11,13.11,0,0,1,3.6-7.5l.12-.24a11.59,11.59,0,0,1,2-1.8,6.39,6.39,0,0,1,1.92-.87,2.86,2.86,0,0,0,1.44-.75,4.74,4.74,0,0,0,1.26-3.06Q262.93,150,263.35,151.48Zm-.66,6.78a4.91,4.91,0,0,1-.72,1.08,2.34,2.34,0,0,0,.18-.78,12.22,12.22,0,0,0-2.76,2.22,12.47,12.47,0,0,1,1.92-2.94h-.12a2.86,2.86,0,0,0-1.68.48q-.36.24-.66.48l-.51.42a4.08,4.08,0,0,0-.48.51q-.27.33-.33.42l-.3.48c-.16.26-.26.39-.3.39a11.11,11.11,0,0,0-1.08,3.48,11.5,11.5,0,0,0,.21,3.48,9.14,9.14,0,0,0,1.17,3.3,5.9,5.9,0,0,0,4.08,3.06,5.1,5.1,0,0,0,4.32-1.2,7.65,7.65,0,0,0,1.74-2.67,13.5,13.5,0,0,0,1.08-3.63,12.85,12.85,0,0,0-.6-6.48q-1.08-2.64-3.12-2.58A5,5,0,0,0,262.7,158.26Z" transform="translate(-44.91 -8.29)"/><path class="cls-36" d="M293.17,144a2.52,2.52,0,0,0,.6,1.08,7.11,7.11,0,0,0,1.86.81,4.94,4.94,0,0,1,1.92,1,2.73,2.73,0,0,1,1,1.5,18.4,18.4,0,0,1,.33,4.53q-.15,1.77-.54,4.59a33.87,33.87,0,0,0-.39,4.26q0,.36,0,2t.06,2.19q0,.57.09,2t.15,2.19q.09.72.24,2a14.63,14.63,0,0,0,.36,2.07q.21.78.51,1.77a11.14,11.14,0,0,0,.69,1.77,10.15,10.15,0,0,0,.87,1.44,3.8,3.8,0,0,1-3-1.83,13.7,13.7,0,0,1-2.1-4.65,43.14,43.14,0,0,1-1.11-5.64,41.46,41.46,0,0,1-.36-5.22,44.58,44.58,0,0,1,.33-5.73q.39-3.63.39-5a2.48,2.48,0,0,0-.6-1.26.92.92,0,0,0-.48-.33.43.43,0,0,0-.51.24,1.83,1.83,0,0,0-.09,1.17,2.44,2.44,0,0,1-.69-1,8.79,8.79,0,0,1-.57-1.56,9.37,9.37,0,0,1,0-3.66,3.78,3.78,0,0,1,.78-2.16A4.29,4.29,0,0,0,293.17,144Z" transform="translate(-44.91 -8.29)"/><path class="cls-36" d="M301.3,142.51a3.08,3.08,0,0,0,.09.48,1.92,1.92,0,0,0,.18.42l.18.3a2.33,2.33,0,0,0,.27.3,2.44,2.44,0,0,0,.3.27l.33.24.3.24a1.87,1.87,0,0,0,.69.39,8.54,8.54,0,0,0,1,.18,11,11,0,0,1,1.5.33,32.58,32.58,0,0,0,3.18.72l3.24.42A9.81,9.81,0,0,0,314,147l.12-.06a22.51,22.51,0,0,1,7-1.26q.9,0,1.5.06a4.1,4.1,0,0,1,1.56.36,2.24,2.24,0,0,1,1,1.26,2,2,0,0,1-.36,1.74,4,4,0,0,1-1.5,1.14,11.92,11.92,0,0,1-5,.66q-1.26,0-2.88-.12l-.06.12a26.19,26.19,0,0,0-.66,3.36,50.11,50.11,0,0,0-.36,8.46v.12q.06,1,.21,2.61t.27,2.85a24.44,24.44,0,0,1,.09,2.82,16.6,16.6,0,0,1-.33,3.06,7.36,7.36,0,0,1-2,3.39,5,5,0,0,1-3.93,1.65,9.2,9.2,0,0,0,2.82-5.76,23.4,23.4,0,0,0-.24-5.52q-.48-3.72-.54-5v-.06a53.59,53.59,0,0,1,.42-9.12,28.29,28.29,0,0,1,.6-3.42q-2.4-.3-5-.72a6.21,6.21,0,0,1-.9-.06q-.36,0-1.74.18a.92.92,0,0,0-.9.66,1.58,1.58,0,0,0,.12,1.2,2.57,2.57,0,0,1-1.14-1.14,10.19,10.19,0,0,1-1.26-3.9,17.64,17.64,0,0,1,0-2.76q.09-1.62.33-1.8A1.47,1.47,0,0,0,301.3,142.51Z" transform="translate(-44.91 -8.29)"/><path class="cls-36" d="M362.47,147.94a10.71,10.71,0,0,1,3.21,3.54,9.77,9.77,0,0,1,1.23,4.92q0,5-2.88,7.5a8.81,8.81,0,0,1-6.12,2.1h-1.8l-.87,0a7.22,7.22,0,0,1-1-.09l-.9-.15a4.21,4.21,0,0,1-1-.24q-.36-.15-.81-.39a7.53,7.53,0,0,1-.87-.54,4,4,0,0,1-1-1.86,4.17,4.17,0,0,1,0-2.22,3.59,3.59,0,0,1,2.4-2.52,4.18,4.18,0,0,1,1.53-.3,6.46,6.46,0,0,0,1.59-.24q.36-.06.81-.72a4.09,4.09,0,0,0,.57-1.08,3.54,3.54,0,0,1,0,1.92,7.1,7.1,0,0,1-1,2.88,2.61,2.61,0,0,1-1.5,1A.31.31,0,0,0,354,161a.73.73,0,0,0-.66-.06.58.58,0,0,0-.36.48q-.06.9,2.28.9l.93,0,1.08,0,.93,0a4.68,4.68,0,0,0,1-.12L360,162a3.66,3.66,0,0,0,.9-.33,4.48,4.48,0,0,0,.75-.51,4.23,4.23,0,0,0,1.29-1.83,10,10,0,0,0,.33-3,6.42,6.42,0,0,0-2.88-5.52,10.81,10.81,0,0,0-2.61-1.23,7.94,7.94,0,0,0-2.31-.45q-4.2,0-5.64,1.56-1.56,1.74-1.56,6.84,0,1.8.3,5.13t.3,5.79v.6a17,17,0,0,1-.27,2.88,24.28,24.28,0,0,1-.87,3.39,6.53,6.53,0,0,1-1.86,2.94,3.59,3.59,0,0,1-3,.87q2.4-2,2.4-10.2,0-2.46-.3-5.91t-.3-5.49q0-6.48,2.52-9.24t8.28-2.76A12,12,0,0,1,362.47,147.94Z" transform="translate(-44.91 -8.29)"/><path class="cls-36" d="M385.45,153.76a11.21,11.21,0,0,1-1.68,4.92,5.2,5.2,0,0,1-1.86,1.62,1,1,0,0,0,.12-.54,1,1,0,0,0-.33-.87,1.34,1.34,0,0,0-1-.39,4,4,0,0,0-3.6,2.1l-.6,1.08a2.57,2.57,0,0,0-.24.48,36.62,36.62,0,0,0-1.56,4.38q0,.12,0,2.1t0,3.06v.78q-.06,1.86-.18,2.88a4.35,4.35,0,0,1-.36,1.26,2.26,2.26,0,0,1-.48.72,1.88,1.88,0,0,1-1.44.66h-.12a1.13,1.13,0,0,1-.36-.06h-.12v-.06h-.06a2,2,0,0,1-1-.6,3.89,3.89,0,0,1-.6-1,7,7,0,0,1-.3-1.8,16.15,16.15,0,0,1,.12-3.42,44.29,44.29,0,0,1,1.2-5.1c0-.16,0-.62-.12-1.38s-.15-1.39-.21-1.89-.15-1.16-.27-2-.23-1.53-.33-2.13-.23-1.23-.39-1.89a13.37,13.37,0,0,0-.51-1.68,3.88,3.88,0,0,0-.57-1q2.76.9,4.62,5.82a.61.61,0,0,1,.12-.24q2.46-5.1,5.46-5.58a8.09,8.09,0,0,1,2.34.15q1.68.27,2.16-.33a4.06,4.06,0,0,0,1.11-1.53,5.8,5.8,0,0,0,.69-1.89Q385.81,150.94,385.45,153.76Z" transform="translate(-44.91 -8.29)"/><path class="cls-36" d="M399.55,151.48A9.69,9.69,0,0,1,400,154a5.52,5.52,0,0,1-.24,1.92,4.49,4.49,0,0,1,5.58.72,9.72,9.72,0,0,1,2.46,4.77,15.94,15.94,0,0,1,.42,5.91q-.78,5.76-4,8.52a8.56,8.56,0,0,1-7.2,2,9.15,9.15,0,0,1-6.66-4.68,12.15,12.15,0,0,1-1.65-4.41,14.58,14.58,0,0,1-.21-4.77,13.11,13.11,0,0,1,3.6-7.5l.12-.24a11.59,11.59,0,0,1,2-1.8,6.39,6.39,0,0,1,1.92-.87,2.86,2.86,0,0,0,1.44-.75,4.74,4.74,0,0,0,1.26-3.06Q399.13,150,399.55,151.48Zm-.66,6.78a4.91,4.91,0,0,1-.72,1.08,2.34,2.34,0,0,0,.18-.78,12.22,12.22,0,0,0-2.76,2.22,12.47,12.47,0,0,1,1.92-2.94h-.12a2.86,2.86,0,0,0-1.68.48q-.36.24-.66.48l-.51.42a4.08,4.08,0,0,0-.48.51q-.27.33-.33.42l-.3.48c-.16.26-.26.39-.3.39a11.11,11.11,0,0,0-1.08,3.48,11.5,11.5,0,0,0,.21,3.48,9.14,9.14,0,0,0,1.17,3.3,5.9,5.9,0,0,0,4.08,3.06,5.1,5.1,0,0,0,4.32-1.2,7.65,7.65,0,0,0,1.74-2.67,13.5,13.5,0,0,0,1.08-3.63,12.85,12.85,0,0,0-.6-6.48q-1.08-2.64-3.12-2.58A5,5,0,0,0,398.89,158.26Z" transform="translate(-44.91 -8.29)"/><path class="cls-36" d="M424.57,144.52a11.58,11.58,0,0,1-1.68,4.92,5.11,5.11,0,0,1-1.8,1.68,1,1,0,0,0,.12-.54c0-.12-.11-.28-.33-.48a1.25,1.25,0,0,0-.87-.3,3.42,3.42,0,0,0-.63,0,2.2,2.2,0,0,1-.39.06,1.42,1.42,0,0,0-.48.12l-.48.27a3.83,3.83,0,0,0-.6.45,5.94,5.94,0,0,0-.6.63,4.53,4.53,0,0,0-1,2.22,4.21,4.21,0,0,0,.12,2.28.18.18,0,0,1,.06.12l.06.06v.06a3,3,0,0,1,.18.3c.08.12.28.08.6-.12l1.32-.48a6.87,6.87,0,0,1,2.34-.6,1.9,1.9,0,0,1,1.14.24,1.93,1.93,0,0,1,.84,1,1.78,1.78,0,0,1-.06,1.2,2,2,0,0,1-.54.9,6.28,6.28,0,0,1-.54.48,5.66,5.66,0,0,1-4.08,1.08q-.12.12-.18.12a.18.18,0,0,0,.06-.12h-.06a.47.47,0,0,1-.06.18l-.12.06.12-.06a.17.17,0,0,0-.06.12,5.77,5.77,0,0,0-.36,2.88q.18,6,.18,6.36a12.36,12.36,0,0,1-1.41,5.82,9.7,9.7,0,0,1-4.71,3.72,11.17,11.17,0,0,0,1.92-4.08,30.89,30.89,0,0,0,.6-5.58q0-.3-.18-6.18a9.84,9.84,0,0,1,.72-4.56.53.53,0,0,0,.06-.24l-.42-.54a3.94,3.94,0,0,1-.6-1.32,9,9,0,0,1-.42-1.44,7.64,7.64,0,0,1,.78-4.92q2-4.2,4.92-5.34a3.85,3.85,0,0,1,1.95-.15,4.43,4.43,0,0,0,2.07-.15q.54-.18,1.35-1.5a5.28,5.28,0,0,0,.87-2Q424.93,141.7,424.57,144.52Z" transform="translate(-44.91 -8.29)"/><path class="cls-36" d="M442.45,154.87a7.83,7.83,0,0,1,3.12,2.49,5.23,5.23,0,0,1,1.23,3.81,6.85,6.85,0,0,1-1.71,4.23,8.51,8.51,0,0,1-6.36,3.18,2.23,2.23,0,0,1-.54.06q-3.48,0-5-1.44a3.2,3.2,0,0,1-.6-.84.88.88,0,0,1-.24-.42,4.32,4.32,0,0,1-.24-2.82,4.48,4.48,0,0,1,2.4-2.58,4.54,4.54,0,0,1,1.62-.27,5.25,5.25,0,0,0,1.56-.21c.2,0,.45-.28.75-.72a4.07,4.07,0,0,0,.57-1.08q.3.36.06,1.86a6.14,6.14,0,0,1-1,2.88,2.66,2.66,0,0,1-1.44,1.08c.08-.16,0-.31-.15-.45a.55.55,0,0,0-.63,0,.24.24,0,0,0-.18.24q.06.84,2.22,1.14a4.37,4.37,0,0,0,.72.06,5.19,5.19,0,0,0,3.72-2,3.3,3.3,0,0,0,1-2,2.1,2.1,0,0,0-.57-1.53,5.5,5.5,0,0,0-1.86-1.35,5.94,5.94,0,0,0-2.58-.57,6.21,6.21,0,0,0-2.28.54,7.07,7.07,0,0,0-2.34,1.56,7.41,7.41,0,0,0-2.58,5.7q0,4.56,1.92,7,2.34,2.94,4.38,2.94,4.86,0,9.24-4.86a11.85,11.85,0,0,1-9.54,7.56,8.46,8.46,0,0,1-6.9-3.36q-2.7-3.42-2.7-9.24v-.24a11.16,11.16,0,0,1,3.72-8.16,10.37,10.37,0,0,1,7.08-3A9.94,9.94,0,0,1,442.45,154.87Z" transform="translate(-44.91 -8.29)"/><path class="cls-36" d="M469.45,154.78a8.77,8.77,0,0,1-.54,2.82,7.41,7.41,0,0,1-2.76,3,2.69,2.69,0,0,1-1.5.6q1.56-1.62-1.44-2.88a7.57,7.57,0,0,0-5.76-.12,2.58,2.58,0,0,0-1.74,2.4,1,1,0,0,0,.27.75,7.49,7.49,0,0,0,1.11.81,11.14,11.14,0,0,0,3.78,1.5,18.07,18.07,0,0,1,5.28,1.74,7.21,7.21,0,0,1,2.37,2.22,5.76,5.76,0,0,1,1,3.06,7,7,0,0,1-.3,2,6.58,6.58,0,0,1-3.3,3.84,10.8,10.8,0,0,1-5.52,1.5,9.64,9.64,0,0,1-7.35-2.79,8.31,8.31,0,0,1-2.13-7.41,7.48,7.48,0,0,0,3.45,4.8,11.11,11.11,0,0,0,6.15,1.8,7,7,0,0,0,3.51-.93,3.5,3.5,0,0,0,1.89-2.67,2.05,2.05,0,0,0-.36-1.26,4.67,4.67,0,0,0-1.2-1,16.61,16.61,0,0,0-4.2-1.38,14.06,14.06,0,0,1-5-1.92q-3-2-3-4.62a5.63,5.63,0,0,1,1-3.3,7.34,7.34,0,0,1,2.67-2.34,9.64,9.64,0,0,1,4.26-1,20.65,20.65,0,0,1,4.8.48,6.52,6.52,0,0,1,1,.36,6.32,6.32,0,0,0,1,.36,2.83,2.83,0,0,0,1-.06,1.94,1.94,0,0,0,.69-.48,2,2,0,0,0,.39-.6l.48-1.26A6.64,6.64,0,0,1,469.45,154.78Z" transform="translate(-44.91 -8.29)"/><path class="cls-36" d="M492.25,154.78a8.77,8.77,0,0,1-.54,2.82,7.41,7.41,0,0,1-2.76,3,2.69,2.69,0,0,1-1.5.6q1.56-1.62-1.44-2.88a7.57,7.57,0,0,0-5.76-.12,2.58,2.58,0,0,0-1.74,2.4,1,1,0,0,0,.27.75,7.52,7.52,0,0,0,1.11.81,11.14,11.14,0,0,0,3.78,1.5A18.08,18.08,0,0,1,489,165.4a7.21,7.21,0,0,1,2.37,2.22,5.76,5.76,0,0,1,1,3.06,7,7,0,0,1-.3,2,6.58,6.58,0,0,1-3.3,3.84,10.81,10.81,0,0,1-5.52,1.5,9.64,9.64,0,0,1-7.35-2.79,8.31,8.31,0,0,1-2.13-7.41,7.48,7.48,0,0,0,3.45,4.8,11.11,11.11,0,0,0,6.15,1.8,7,7,0,0,0,3.51-.93,3.5,3.5,0,0,0,1.89-2.67,2,2,0,0,0-.36-1.26,4.61,4.61,0,0,0-1.2-1,16.61,16.61,0,0,0-4.2-1.38,14.05,14.05,0,0,1-5-1.92q-3-2-3-4.62a5.63,5.63,0,0,1,1.05-3.3,7.34,7.34,0,0,1,2.67-2.34,9.64,9.64,0,0,1,4.26-1,20.66,20.66,0,0,1,4.8.48,6.56,6.56,0,0,1,1,.36,6.32,6.32,0,0,0,1,.36,2.84,2.84,0,0,0,1-.06,1.94,1.94,0,0,0,.69-.48,2,2,0,0,0,.39-.6q.12-.3.48-1.26A6.64,6.64,0,0,1,492.25,154.78Z" transform="translate(-44.91 -8.29)"/><path class="cls-36" d="M498.37,141l.12.24a.46.46,0,0,0,.06.18,4.11,4.11,0,0,1,.36,1.62,2.52,2.52,0,0,1-.42,1.74c0-.12-.11-.24-.33-.36a1,1,0,0,0-.75-.06,1.07,1.07,0,0,0-.66.6q-.24.48.3,1.08a1.39,1.39,0,0,0,.39.36,1.55,1.55,0,0,0,.84.18,2,2,0,0,0,1.11-.36,1.55,1.55,0,0,1-2.1-.06q-.84-.78-.24-1.38a.72.72,0,0,1,.69-.33.85.85,0,0,1,.69.39c0,.24.08.2.24-.12a3.68,3.68,0,0,0,.06-3.24A4.34,4.34,0,0,1,502,145.6a2.87,2.87,0,0,1-.48,1.5,4.06,4.06,0,0,1-.9,1,5.66,5.66,0,0,1-1.44.9,3.89,3.89,0,0,1-1.77.21,2.66,2.66,0,0,1-1.59-.63,5.38,5.38,0,0,1-1.62-2.28,3,3,0,0,1,.06-2,4.43,4.43,0,0,1,.36-1,3.37,3.37,0,0,1,2.52-1.8,2,2,0,0,0,.24-.78,2.92,2.92,0,0,0-.24-1.2A4.45,4.45,0,0,1,498.37,141ZM496,152.38a2.53,2.53,0,0,0,.6,1.08,6.19,6.19,0,0,0,1.65.75,10.35,10.35,0,0,1,1.59.63h.06a2.66,2.66,0,0,1,.6.54,4.19,4.19,0,0,1,.42.84,4.52,4.52,0,0,1,.36,1,20.28,20.28,0,0,1-.18,7.38,34.89,34.89,0,0,0-.36,6.18,13.37,13.37,0,0,0,.84,4.83,10.54,10.54,0,0,0,2.16,3.57q-2,.06-4.08-2.61a12.54,12.54,0,0,1-2.52-5.19,26.29,26.29,0,0,1,.42-7.32A27.9,27.9,0,0,0,498,160a3.58,3.58,0,0,0-.72-1.68.91.91,0,0,0-.48-.33.43.43,0,0,0-.51.24,1.83,1.83,0,0,0-.09,1.17,2.45,2.45,0,0,1-.69-1,8.78,8.78,0,0,1-.57-1.56,9.35,9.35,0,0,1,0-3.66,3.78,3.78,0,0,1,.78-2.16A4.3,4.3,0,0,0,496,152.38Z" transform="translate(-44.91 -8.29)"/><path class="cls-36" d="M515.95,151.48a9.69,9.69,0,0,1,.42,2.52,5.5,5.5,0,0,1-.24,1.92,4.49,4.49,0,0,1,5.58.72,9.7,9.7,0,0,1,2.46,4.77,16,16,0,0,1,.42,5.91q-.78,5.76-4,8.52a8.56,8.56,0,0,1-7.2,2,9.15,9.15,0,0,1-6.66-4.68,12.14,12.14,0,0,1-1.65-4.41,14.58,14.58,0,0,1-.21-4.77,13.11,13.11,0,0,1,3.6-7.5l.12-.24a11.61,11.61,0,0,1,2-1.8,6.38,6.38,0,0,1,1.92-.87,2.86,2.86,0,0,0,1.44-.75,4.74,4.74,0,0,0,1.26-3.06Q515.53,150,515.95,151.48Zm-.66,6.78a4.89,4.89,0,0,1-.72,1.08,2.34,2.34,0,0,0,.18-.78,12.24,12.24,0,0,0-2.76,2.22,12.47,12.47,0,0,1,1.92-2.94h-.12a2.86,2.86,0,0,0-1.68.48q-.36.24-.66.48l-.51.42a4.15,4.15,0,0,0-.48.51l-.33.42-.3.48c-.16.26-.26.39-.3.39a11.11,11.11,0,0,0-1.08,3.48,11.47,11.47,0,0,0,.21,3.48,9.14,9.14,0,0,0,1.17,3.3,5.9,5.9,0,0,0,4.08,3.06,5.1,5.1,0,0,0,4.32-1.2,7.66,7.66,0,0,0,1.74-2.67,13.56,13.56,0,0,0,1.08-3.63,12.86,12.86,0,0,0-.6-6.48q-1.08-2.64-3.12-2.58A5,5,0,0,0,515.29,158.26Z" transform="translate(-44.91 -8.29)"/><path class="cls-36" d="M527.77,152.38a2.53,2.53,0,0,0,.6,1.08,6.7,6.7,0,0,0,1.65.78,10.15,10.15,0,0,0,1.29.42l.36.24.72.48a6.53,6.53,0,0,1,1.08,1.74l.24.48a7.08,7.08,0,0,1,1.26-1.38,8.5,8.5,0,0,1,5.76-2.16,5.69,5.69,0,0,1,.78.06q3.48.48,4.38,2.82a8.93,8.93,0,0,1,.6,3.09,22.49,22.49,0,0,1-.18,3.63q0,1.26-.3,4.53t-.3,4.41a8.57,8.57,0,0,0,.51,3.15,5.63,5.63,0,0,0,1.14,1.92,14.18,14.18,0,0,0,2,1.53q-7.2-.78-7.2-6.6,0-1.56.3-4.89t.3-4v-.3a33.41,33.41,0,0,0-.18-5.1l-.18-.18-.48-.21a3.23,3.23,0,0,0-.84-.21,4.86,4.86,0,0,0-3.78,1.32,6.34,6.34,0,0,0-1.11,1.65,16.67,16.67,0,0,0-1.17,2.79,1,1,0,0,1-.06.24,1,1,0,0,0-.06.24q.06,1.08.06,1.38,0,4.2.18,7a8.79,8.79,0,0,1-.48,3.3,3.5,3.5,0,0,1-.72,1.44,2.62,2.62,0,0,1-2,1,1.77,1.77,0,0,1-1.38-.6,2.27,2.27,0,0,1-.48-.72,3.33,3.33,0,0,1-.24-1q-.06-.78-.06-2,.06-1.86.36-4.86a31.76,31.76,0,0,1,1-5.1,21.22,21.22,0,0,0-.3-2.76q-.06-.18-.21-.81c-.1-.42-.18-.73-.24-.93a3.1,3.1,0,0,0-.33-.69,2.44,2.44,0,0,0-.54-.63.84.84,0,0,0-1.08-.06q-.6.36-.48,1.56a2.45,2.45,0,0,1-.69-1,8.78,8.78,0,0,1-.57-1.56,9.35,9.35,0,0,1,0-3.66,3.78,3.78,0,0,1,.78-2.16A4.3,4.3,0,0,0,527.77,152.38Z" transform="translate(-44.91 -8.29)"/><path class="cls-36" d="M550.69,154.48a1.59,1.59,0,0,0,.84.66,2.09,2.09,0,0,0,.81.06l.84-.33a6.84,6.84,0,0,1,1.53-.39l2.58-.3h.12a12,12,0,0,1,2.1-.18,9,9,0,0,1,4.8,1.26,9.13,9.13,0,0,1,3.18,3.24,15.65,15.65,0,0,1,1.62,7.5,18.31,18.31,0,0,1-.24,3,6.48,6.48,0,0,1,.18.84v.24a.55.55,0,0,1,.06.24v.54a17.08,17.08,0,0,0,.51,4.56,7.52,7.52,0,0,0,1,2.4,8.79,8.79,0,0,0,1.5,1.38q-4.56.24-6-4.5a2.6,2.6,0,0,1-.54.6,8.66,8.66,0,0,1-6.06,2.7,10.65,10.65,0,0,1-6.24-1.68,6.41,6.41,0,0,1-2.76-5.52,7.1,7.1,0,0,1,3.18-5.82,9.82,9.82,0,0,1,5.82-2,11,11,0,0,1,5.7,1.68l.24.12a10.89,10.89,0,0,0-1.14-4.56,5.13,5.13,0,0,0-1.8-2,5.76,5.76,0,0,0-3-.66h-.36a10.24,10.24,0,0,0-2.94.72,15.75,15.75,0,0,0-1.5.84,1.13,1.13,0,0,0-.54,1,1.85,1.85,0,0,0,.6,1,2.68,2.68,0,0,1-1.5-.6,7.4,7.4,0,0,1-2.76-3,8.72,8.72,0,0,1-.54-2.82,6.56,6.56,0,0,1,0-2A14.24,14.24,0,0,0,550.69,154.48Zm5.16,13.44a3.56,3.56,0,0,0-1.74,2.88,3,3,0,0,0,1.26,2.58,7.1,7.1,0,0,0,4.14,1,4.81,4.81,0,0,0,1.65-.42,5.62,5.62,0,0,0,1.89-1.26,7.61,7.61,0,0,0,2-3.42,4.63,4.63,0,0,0-1.14-1.2h-.06l-.06-.06a.66.66,0,0,1-.18-.12h-.06a.75.75,0,0,0-.18-.12,7.5,7.5,0,0,0-3.9-1.2h-1.92Z" transform="translate(-44.91 -8.29)"/><path class="cls-36" d="M576.91,144.91a21.76,21.76,0,0,0-.48,3.63q-.06,1.62.24,5.49t.24,6v.06q0,.24-.54,6.84a3.91,3.91,0,0,0-.42.36q-1.8,1.74-1.5,3.42a5.32,5.32,0,0,0,.3,1.38,5.45,5.45,0,0,1,.3,1.5,7.21,7.21,0,0,1,0,1.32l.06-.36a6.34,6.34,0,0,0,.06-1,3.68,3.68,0,0,0-.18-1.17.25.25,0,0,0-.06-.18.17.17,0,0,0-.06-.12,4.13,4.13,0,0,1-.3-2.4,5.37,5.37,0,0,1,1.74-2.58,5.78,5.78,0,0,1,1.38-.78,8.09,8.09,0,0,0,1.38-.72,2.23,2.23,0,0,0,.57-.9,3.1,3.1,0,0,0,.27-1.14,3.42,3.42,0,0,1,.6,1.8,6.2,6.2,0,0,1-.12,3.06,2.56,2.56,0,0,1-1.08,1.44.31.31,0,0,0-.24-.39.78.78,0,0,0-.66.15.76.76,0,0,0-.24,1q.36.84.42,1a5.13,5.13,0,0,1,.06,3.54,4.17,4.17,0,0,1-.84,1.74,2.63,2.63,0,0,1-2.1,1.14,2,2,0,0,1-1.5-.6,2.49,2.49,0,0,1-.66-.9,7,7,0,0,1-.48-1.68q-.06-.42-.33-2.94a35.44,35.44,0,0,1,.15-6.84q.42-4.32.42-5.1t0-3.45q0-2.67.12-4.59t.33-3.84a10.65,10.65,0,0,1,1.38-3.75,4.19,4.19,0,0,1,2.94-2.31A6.51,6.51,0,0,0,576.91,144.91ZM575,174.64v0Z" transform="translate(-44.91 -8.29)"/><path class="cls-36" d="M602.65,154.78a8.8,8.8,0,0,1-.54,2.82,7.41,7.41,0,0,1-2.76,3,2.69,2.69,0,0,1-1.5.6q1.56-1.62-1.44-2.88a7.57,7.57,0,0,0-5.76-.12,2.58,2.58,0,0,0-1.74,2.4,1,1,0,0,0,.27.75,7.52,7.52,0,0,0,1.11.81,11.15,11.15,0,0,0,3.78,1.5,18.09,18.09,0,0,1,5.28,1.74,7.21,7.21,0,0,1,2.37,2.22,5.75,5.75,0,0,1,1,3.06,7,7,0,0,1-.3,2,6.58,6.58,0,0,1-3.3,3.84,10.81,10.81,0,0,1-5.52,1.5,9.64,9.64,0,0,1-7.35-2.79,8.3,8.3,0,0,1-2.13-7.41,7.48,7.48,0,0,0,3.45,4.8,11.11,11.11,0,0,0,6.15,1.8,7,7,0,0,0,3.51-.93,3.5,3.5,0,0,0,1.89-2.67,2,2,0,0,0-.36-1.26,4.64,4.64,0,0,0-1.2-1,16.62,16.62,0,0,0-4.2-1.38,14,14,0,0,1-5-1.92q-3-2-3-4.62a5.63,5.63,0,0,1,1-3.3A7.34,7.34,0,0,1,589,155a9.64,9.64,0,0,1,4.26-1,20.66,20.66,0,0,1,4.8.48,6.56,6.56,0,0,1,1,.36,6.35,6.35,0,0,0,1,.36,2.84,2.84,0,0,0,1-.06,1.94,1.94,0,0,0,.69-.48,2,2,0,0,0,.39-.6q.12-.3.48-1.26A6.64,6.64,0,0,1,602.65,154.78Z" transform="translate(-44.91 -8.29)"/><path class="cls-36" d="M644.11,146.68a11.54,11.54,0,0,1,1.08.48l.9.45a7.4,7.4,0,0,0,.81.33,1.52,1.52,0,0,0,.78.12c.18,0,.45-.08.81-.12a2.84,2.84,0,0,0,1.26-.75,5,5,0,0,0,.9-1.59,8.3,8.3,0,0,1-.45,2.58,13.2,13.2,0,0,1-1.29,3.42,8.42,8.42,0,0,1-3.24,3,4,4,0,0,1-2,.6,1,1,0,0,0,.66-1.2,4.48,4.48,0,0,0-.6-1.65,5.77,5.77,0,0,0-1.08-1.35,7.22,7.22,0,0,0-5.1-1.8,5.56,5.56,0,0,0-3.24,1.29,14.55,14.55,0,0,0-3.24,3.45,21.88,21.88,0,0,0-2.25,4.68,13.73,13.73,0,0,0-.87,4.38q0,5.28,2.16,8.22a8.83,8.83,0,0,0,7.44,3.54,7.59,7.59,0,0,0,5.16-1.92,24.72,24.72,0,0,0,4.44-6.24,12.47,12.47,0,0,1-2.88,7.65q-2.88,3.75-6.72,3.75-6.84,0-10.32-4.62-2.88-3.9-2.88-10.38v-.06a20.17,20.17,0,0,1,3.78-11q4.2-6.36,9.42-6.36A17.25,17.25,0,0,1,644.11,146.68Z" transform="translate(-44.91 -8.29)"/><path class="cls-36" d="M650.89,154.48a1.59,1.59,0,0,0,.84.66,2.09,2.09,0,0,0,.81.06l.84-.33a6.84,6.84,0,0,1,1.53-.39l2.58-.3h.12a12,12,0,0,1,2.1-.18,9,9,0,0,1,4.8,1.26,9.13,9.13,0,0,1,3.18,3.24,15.65,15.65,0,0,1,1.62,7.5,18.31,18.31,0,0,1-.24,3,6.48,6.48,0,0,1,.18.84v.24a.55.55,0,0,1,.06.24v.54a17.08,17.08,0,0,0,.51,4.56,7.52,7.52,0,0,0,1,2.4,8.79,8.79,0,0,0,1.5,1.38q-4.56.24-6-4.5a2.6,2.6,0,0,1-.54.6,8.66,8.66,0,0,1-6.06,2.7,10.65,10.65,0,0,1-6.24-1.68,6.41,6.41,0,0,1-2.76-5.52,7.1,7.1,0,0,1,3.18-5.82,9.82,9.82,0,0,1,5.82-2,11,11,0,0,1,5.7,1.68l.24.12a10.89,10.89,0,0,0-1.14-4.56,5.13,5.13,0,0,0-1.8-2,5.76,5.76,0,0,0-3-.66h-.36a10.24,10.24,0,0,0-2.94.72,15.75,15.75,0,0,0-1.5.84,1.13,1.13,0,0,0-.54,1,1.85,1.85,0,0,0,.6,1,2.68,2.68,0,0,1-1.5-.6,7.4,7.4,0,0,1-2.76-3,8.72,8.72,0,0,1-.54-2.82,6.56,6.56,0,0,1,0-2A14.24,14.24,0,0,0,650.89,154.48ZM656,167.92a3.56,3.56,0,0,0-1.74,2.88,3,3,0,0,0,1.26,2.58,7.1,7.1,0,0,0,4.14,1,4.81,4.81,0,0,0,1.65-.42,5.62,5.62,0,0,0,1.89-1.26,7.61,7.61,0,0,0,2-3.42,4.63,4.63,0,0,0-1.14-1.2h-.06L664,168a.66.66,0,0,1-.18-.12h-.06a.75.75,0,0,0-.18-.12,7.5,7.5,0,0,0-3.9-1.2h-1.92Z" transform="translate(-44.91 -8.29)"/><path class="cls-36" d="M673,152.38a2.53,2.53,0,0,0,.6,1.08,6.7,6.7,0,0,0,1.65.78,10.15,10.15,0,0,0,1.29.42l.36.24a2.29,2.29,0,0,1,.72.48,5.6,5.6,0,0,1,1.14,1.8,7.22,7.22,0,0,1,3-3,3.07,3.07,0,0,1,1.86-.27,3.38,3.38,0,0,1,1.68.69,6.55,6.55,0,0,1,1.86,2.7q.24.72.54,1.56a15.75,15.75,0,0,1,1.59-3,5.2,5.2,0,0,1,2.13-1.74,3.73,3.73,0,0,1,1.62-.24,4,4,0,0,1,2.28.84,5.07,5.07,0,0,1,1.8,2.22,8.93,8.93,0,0,1,.6,3.09,22.49,22.49,0,0,1-.18,3.63q0,1.26-.3,4.53t-.3,4.41a8.57,8.57,0,0,0,.51,3.15,5.63,5.63,0,0,0,1.14,1.92,14.18,14.18,0,0,0,2,1.53q-7.2-.78-7.2-6.6,0-1.56.3-4.89t.3-4v-.3a14.16,14.16,0,0,0-.18-5.1,3.89,3.89,0,0,0-.33-.39l-.27-.27c-.16-.12-.26-.17-.3-.15a2.67,2.67,0,0,0-.36.36,7.31,7.31,0,0,0-.75,1.08,13.13,13.13,0,0,0-.81,1.59,36.74,36.74,0,0,0-1.86,6.06,49.57,49.57,0,0,1,.18,6.3,16.4,16.4,0,0,1-.3,2.88,4.18,4.18,0,0,1-.48,1.2,2.06,2.06,0,0,1-3.72-.06,4.24,4.24,0,0,1-.36-1.2,12.25,12.25,0,0,1,0-2.46,45,45,0,0,1,1-6.84l-.12-1a27.33,27.33,0,0,0-1.5-6.72,6.13,6.13,0,0,0-.66-1.14,10.19,10.19,0,0,0-1.29,1.86,15.75,15.75,0,0,0-1.35,3q-.18.54-.42,1.38a11.58,11.58,0,0,0,.06,1.5,62.9,62.9,0,0,1,.18,7,15,15,0,0,1-.48,3.3,3.5,3.5,0,0,1-.72,1.44,2.4,2.4,0,0,1-2,1,1.77,1.77,0,0,1-1.38-.6,2.27,2.27,0,0,1-.48-.72,3.33,3.33,0,0,1-.24-1q-.06-.78-.06-2,.06-1.86.36-4.86a34.82,34.82,0,0,1,1-5.22A20.53,20.53,0,0,0,676,161q-.06-.18-.21-.81c-.1-.42-.18-.73-.24-.93a3.1,3.1,0,0,0-.33-.69,2.44,2.44,0,0,0-.54-.63.84.84,0,0,0-1.08-.06q-.6.36-.48,1.56a2.45,2.45,0,0,1-.69-1,8.78,8.78,0,0,1-.57-1.56,9.35,9.35,0,0,1,0-3.66,3.78,3.78,0,0,1,.78-2.16A4.3,4.3,0,0,0,673,152.38Z" transform="translate(-44.91 -8.29)"/><path class="cls-36" d="M718.48,157.33a11.17,11.17,0,0,1,3,8.07,14,14,0,0,1-2.94,8.76q-2.94,3.84-6.66,3.84h-.12q-3.72.06-5.28-1.44a4,4,0,0,1-1-1.86,4.18,4.18,0,0,1,0-2.22,4.25,4.25,0,0,1,2.4-2.52,3.25,3.25,0,0,1,1.56-.33,5.25,5.25,0,0,0,1.56-.21q.36-.06.81-.72a4.11,4.11,0,0,0,.57-1.08,3.56,3.56,0,0,1,0,1.92,7.13,7.13,0,0,1-1,2.88,2.62,2.62,0,0,1-1.5,1,.31.31,0,0,0-.12-.42.73.73,0,0,0-.66-.06.66.66,0,0,0-.3.54q-.18,1.14,2.76.9a6.75,6.75,0,0,0,4.14-2.46,10.46,10.46,0,0,0,2.16-6.54q0-4.38-2.7-6.39a5.68,5.68,0,0,0-5.64-.93,7.88,7.88,0,0,0-3.54,2.55q-1.32,1.71-1.32,5.37,0,1.74.3,5.22t.3,6.18q0,1.14-.06,2.31a27.8,27.8,0,0,1-.39,3.09,19.65,19.65,0,0,1-.84,3.33,7.29,7.29,0,0,1-1.59,2.55,4.11,4.11,0,0,1-2.52,1.32,3.77,3.77,0,0,0,.75-1.2,8.32,8.32,0,0,0,.51-1.86l.33-2a16.77,16.77,0,0,0,.18-2.28q0-1.38,0-2V177.4q0-2.46-.3-5.91t-.3-5.49a12,12,0,0,1,2.1-7.38,11,11,0,0,1,5-3.9,8.17,8.17,0,0,1,2.88-.54h.24A9.56,9.56,0,0,1,718.48,157.33Z" transform="translate(-44.91 -8.29)"/></g></svg>