<svg xmlns="http://www.w3.org/2000/svg" viewBox="0 0 1043.79 2129.57"><defs><style>.cls-1{fill:#474f57;}.cls-2{fill:#48535c;}.cls-3{fill:#444b52;}.cls-4{fill:#f5e9d7;}.cls-5{fill:#002c41;}.cls-6{fill:#fbb142;}.cls-7{fill:#f8a04f;}.cls-8{fill:#f3e7d7;}.cls-9{fill:#f5ecdf;}.cls-10{fill:#8c473b;}.cls-11{fill:#bb5f4f;}.cls-12{fill:#c97f72;}</style></defs><title>มองเขา</title><g id="Layer_1" data-name="Layer 1"><path class="cls-1" d="M737.68,24.79l-102.9,72-73.5,87-91.5,49.5-49.5,46.5-69,48-19.5,45-52.5,25.5-87,88.5-24,72L49.8,789.75l13.5,63L31.8,1043.24l51,85.11-39,172.87,105,250.49,85.7,45,67.14,100.5,66.15,24,78,108,16.47,81,114,49.5,121.49,139.49H858.26l79.5-190.49-22.5-105,22.5-114s-54-96-40.5-180l-57-166.08,12-529.88-15-61,30-61.94-1.5-91.5,49.5-88.8,22.5-119.69-18-39,18-88.49-27-91.5,15-147Z"/><polygon class="cls-2" points="751.16 70.63 874.16 70.63 863.66 144.78 889.16 257.28 863.66 371.27 878.66 405.77 869.66 486.76 809.66 611.26 811.16 671.26 758.66 761.25 772.16 837.75 751.16 965.24 772.16 1218.72 769.16 1334.22 805.16 1398.72 797.07 1436.21 842.66 1509.71 842.66 1605.71 889.16 1698.7 850.16 1802.19 874.16 1914.69 829.16 2051.18 743.07 2043.68 623.67 1919.19 503.68 1857.69 491.68 1803.69 403.18 1683.7 340.18 1655.2 287.69 1581.71 205.19 1527.71 112.19 1293.72 142.19 1118.23 136.19 1073.23 94.19 1034.23 116.69 861.74 106.19 807.75 233.69 560.26 241.19 503.26 310.19 434.27 343.18 434.27 407.68 326.27 587.67 218.28 652.17 129.78 751.16 70.63"/><polygon class="cls-3" points="755.54 934.27 734.67 874.13 697.67 839.13 616.67 827.13 602.67 827.13 568.67 994.13 552.67 1008.13 538.67 1030.13 525.67 1071.13 491.28 1106.13 496.68 1131.13 491.28 1155.13 491.28 1178.13 491.28 1221.13 546.67 1278.13 557.67 1306.13 612.67 1318.13 669.67 1389.13 735.67 1403.13 796.67 1434.21 804.76 1396.72 768.76 1332.22 771.76 1216.72 750.76 963.24 755.54 934.27"/><polygon class="cls-1" points="863.26 144.78 796.67 366.13 804.76 431.13 768.67 506.13 758.67 589.13 737.67 618.13 718.67 702.13 732.67 720.13 723.67 769.13 712.67 779.13 697.67 841.13 734.67 876.13 748.67 814.13 742.67 790.13 758.26 761.25 790.41 706.14 796.67 612.13 832.67 530.13 834.67 472.13 863.26 371.27 888.76 257.28 863.26 144.78"/><polygon class="cls-1" points="651.77 130.78 648.02 282.13 630.67 310.13 621.67 429.13 636.72 449.13 627.67 548.13 616.67 564.13 616.67 641.13 622.67 657.13 623.67 737.13 608.67 755.13 616.67 827.13 602.67 827.13 593.67 753.13 604.67 735.13 604.67 658.13 593.67 650.13 593.67 566.13 609.67 540.13 606.67 470.13 575.67 423.13 575.67 325.13 590.67 284.13 587.27 219.28 651.77 130.78"/><polygon class="cls-1" points="435.13 310.56 451.68 436.13 471.68 464.13 505.68 603.13 491.28 668.13 516.67 747.13 524.67 752.13 547.67 845.13 535.67 906.13 568.67 997.13 552.67 1011.13 518.67 896.13 524.67 842.13 501.9 769.13 491.28 761.13 463.68 672.13 470.68 613.13 445.68 501.13 416.68 478.96 388.19 359.24 407.28 327.27 435.13 310.56"/><path class="cls-1" d="M344,433.27l21.89,85.87s31,37,33,94,0,68,0,68,24,17,32,57,17,81,17,81l31.76,35,17.24,80.5,13,16.5,15,65,15,15-13,41-20-21-14.4-56-38.6-52-11.94-57s-3-19-52.54-55c0,0-21.51-95-34.51-98s-57-37-62-82-58.38-91.87-58.38-91.87l7.5-57,69-69Z"/><path class="cls-1" d="M497.07,1133.13l-5.4-25-12.85-12-52-3.75L371.74,992.8l-54.67-9.67-55-61s-58.33,4.34-78.33-52.66l-12.67-17.34-64.88-44.39,10.5,54,37.38,26.39s25.28,78.06,60.28,67.06,59.72,24.28,64.72,30.28,28,30,28,30,58.33,15.33,55.33,15.33,53.33,81.33,53.33,81.33l55.33,5Z"/><polygon class="cls-1" points="136.19 1073.23 142.19 1118.23 182.41 1124.8 189.74 1133.13 319.74 1161.47 344.41 1147.47 381.07 1156.13 391.74 1166.8 491.68 1183.47 491.68 1160.8 401.74 1142.13 392.41 1131.17 331.74 1114.8 305.07 1133.13 236.41 1115.47 213.74 1092.13 136.19 1073.23"/><polygon class="cls-1" points="112.19 1293.72 182.68 1281.13 197.68 1287.43 244.68 1281.13 256.68 1259.13 301.63 1252.13 350.68 1261.13 388.68 1240.13 443.68 1228.13 456.68 1228.13 491.28 1223.13 546.67 1280.13 473.43 1339.13 430.68 1355.13 404.68 1397.13 326.94 1419.13 318.68 1445.13 205.19 1527.71 112.19 1293.72"/><polygon class="cls-1" points="557.67 1306.13 612.67 1318.13 561.67 1375.42 541.67 1391.13 491.68 1449.13 491.68 1474.13 452.68 1519.13 427.68 1519.13 368.68 1581.13 368.68 1617.13 340.18 1655.2 283.94 1579.26 326.94 1527.71 394.68 1481.67 412.68 1444.13 459.68 1417.13 486.28 1365.13 514.67 1343.63 557.67 1306.13"/><polygon class="cls-1" points="621.24 1330.8 562.67 1400.13 553.67 1400.13 518.67 1451.13 518.67 1481.67 463.68 1550.13 445.81 1554.13 418.68 1588.13 418.68 1640.13 403.18 1683.7 491.68 1803.69 511.1 1767.13 525.67 1755.13 541.67 1707.13 528.67 1680.13 562.67 1597.13 594.67 1568.97 614.67 1522.13 607.67 1506.13 665.01 1385.33 621.24 1330.8"/><polygon class="cls-1" points="669.67 1389.13 628.34 1490.13 633.67 1501.46 603.67 1574.13 585.01 1591.46 559.01 1650.13 571.67 1683.46 547.01 1745.46 541.67 1766.13 519.67 1783.46 503.68 1857.69 623.67 1919.19 632.34 1861.46 626.34 1837.46 632.34 1774.13 676.34 1710.13 695.01 1638.13 685.01 1577.46 695.01 1524.8 714.34 1497.46 735.67 1403.13 669.67 1389.13"/><polygon class="cls-1" points="803.28 1446.22 791.67 1500.8 797.47 1573.47 766.34 1687.47 784.81 1776.13 772.34 1835.47 749.67 1878.8 737.67 1957.47 747.67 1976.13 743.07 2043.68 829.16 2051.18 776.34 1936.13 821.01 1781.47 791.67 1670.13 816.34 1577.47 810.69 1458.17 803.28 1446.22"/></g><g id="Layer_5" data-name="Layer 5"><path class="cls-4" d="M969.13,1166.23s44.79,37.9,0,99.9c0,0-46.26,46.5-44.79,68.12,1.4,20.53,30.83,34.38,32.15,0,0,0-.82-20.12,14.52-29.46s72.21-75.82,41.33-138.57c0,0-.89-4-31.88-43.35Z"/><path class="cls-5" d="M919.18,965.59c116.83,22.79,63.35,162.76,63.35,162.76l-23.4,55.12C969.27,1277.53,841.36,1295,841.36,1295L843,1239.8Z"/><g id="arm2"><path class="cls-4" d="M684.25,1229.08s-7.82-12-23.82,9-12.75,57.5,0,66.5S700,1332.13,766,1334.26h12.69l34.75-33.12-32.5-26.5-19,17.75-41-26.75s9.25-56.75-44-33.75"/><path class="cls-6" d="M780.34,1280.8l43.17,32s14,11,5.33-6.33l-7.34-15.64-.66-10-40.5-7-.16,6.5"/><path class="cls-6" d="M766,1236.8l14.36,44s62.67,4.67,96.67,50c0,0-10.44-61.54-48.89-77.43S766,1236.8,766,1236.8Z"/><path class="cls-7" d="M755.65,1288.29s22.26,26.32,4,45.71l-4-.22s17.78,19.86,25.28.48c0,0,8.63-37.75-13.25-54.28,0,0-12.3-8.77-21,2.44Z"/></g><g id="arm1"><path class="cls-4" d="M782.67,833.89s-12.32-7.22,7.86-24.24,56.8-15.59,66.42-3.3,29.43,38.21,34.82,104L892.4,923,861,959.34,833,928.19l16.79-19.86L821,868.71s-56.22,12.05-35.89-42.27"/><path class="cls-6" d="M786.43,942.13s8.75-35.5,67-59.75l-18.25,59.75Z"/><path class="cls-6" d="M785.47,950.7l24.88-44.59s63.93,8.74,108.82-33c0,0-25.15,64.49-67.47,73.27S785.47,950.7,785.47,950.7Z"/></g><path class="cls-6" d="M691.68,1131.17s2,145.63,172.67,119,111.82-210.2,93.15-244.87c-13.92-25.85-191.15-178.92-263.82,55.64Z"/><path class="cls-8" d="M791.67,1226.8s-148.66-40-65.33-209.33c0,0,148.33-165.83,241.33,2.51C967.67,1020,1054.68,1264.13,791.67,1226.8Z"/><path class="cls-9" d="M734.34,1056.13s28.67-115.25,126-85.69,86,79,86,79l-36.67,134S779,1266.13,734.34,1144.8c0,0-5.33-15.33,3.33-42Z"/><path class="cls-10" d="M753.12,1071.4a63.43,63.43,0,0,0-1.79-9c-2.85-10.15-7.73-43.69,41.89-68.31,59.13-29.33,123.72-3.33,153.13,55.33,0,0,7.67,11.44.4,57.33-8.46,53.43-12.4,56.67-12.4,56.67s-26.17,37.28-95.41,31.33c-36.27-3.11-58.3-20.43-71.06-36.2a67.32,67.32,0,0,1-14.83-45l1.07-27.05a67.61,67.61,0,0,0-.51-11.43Z"/><path class="cls-11" d="M766.34,1096s-13-121.57,118-57.24c0,0,9.5,84.42,4.42,92.38S790.35,1206.14,766.34,1096Z"/><path class="cls-12" d="M801,1046.8s-38.67,61.33,29.33,92.67,98-94.67,82.67-117.33c0,0-28.67,21.33-52.67,15.33C860.34,1037.46,814.34,1022.8,801,1046.8Z"/><polygon class="cls-7" points="675.67 1095.13 691.67 1131.17 711.67 1095.13 693.67 1060.9 675.67 1095.13"/></g></svg>