<svg id="Layer_1" data-name="Layer 1" xmlns="http://www.w3.org/2000/svg" viewBox="0 0 637.98 768"><defs><style>.cls-1{fill:#f5e9d7;}.cls-2{fill:#f9a151;}.cls-3{fill:#002b40;}.cls-4{fill:#f7d752;}.cls-5{fill:#f8a04f;}.cls-6{fill:#f2e755;}.cls-7{fill:#fcb242;}.cls-8{fill:#ba8350;}.cls-9{fill:#eaeaea;}.cls-10{fill:#85a3b2;}.cls-11{fill:#fff;}.cls-12{fill:#c8b285;}.cls-13{fill:#e5c998;}.cls-14{fill:#eccbb7;}.cls-15{fill:#faf1eb;}.cls-16{fill:#ca3134;}.cls-17{fill:#c4a597;}.cls-18{fill:#503027;}.cls-19{fill:#ea8d23;}.cls-20{fill:#f0e910;}.cls-21{fill:#ebdfd7;}.cls-22{fill:#eadece;}.cls-23{fill:#fff2e3;}.cls-24{fill:#ba584a;}.cls-25{fill:#bc5f4f;}.cls-26{fill:#cc6658;}.cls-27{fill:#dd6d62;}.cls-28{fill:#f7bc60;}.cls-29{fill:#fbb142;}.cls-30{fill:#ea4740;}</style></defs><title>Moling</title><path class="cls-1" d="M246.55,579.46c-2.76,1.94-19.67,13.46-38,7.69-16.86-5.3-23.95-21.79-27.74-30.58-7.62-17.71-6.76-36.84-5.67-61.15.16-3.59.37-6.55.52-8.54.6-10.74.67-39.16-18.88-59.5-3.83-4-20.12-20.94-33.58-15.54-6.71,2.69-12.27,10.76-11.71,18.35.88,12.07,16.57,14.32,27,28.24,10,13.31,6,25.11,7.49,49.92,1.36,23,4.24,71.76,32.34,91.26,17.7,12.29,49.14,15.55,49.16,15.56Z" transform="translate(-66.4 0)"/><path class="cls-1" d="M314.87,693.93a117.27,117.27,0,0,1-53.22-12.73,159.75,159.75,0,0,1-7,53.61c-1.32-.25-23.23-4.12-32.58,8.71-.82,1.13-5.7,8.08-3.19,13.84s10.73,6.65,17.29,8c14.84,3,38.79,5.14,70.88-2.87q1.84-16.8,3.77-33.74,2-17.47,4.07-34.78" transform="translate(-66.4 0)"/><path class="cls-2" d="M312.88,711.15l-.71,6.4a6.93,6.93,0,0,1-.39,2.69c-2.71,7.51-18.88,8.27-27.86,7.44s-23.83-4.5-24.65-11.29a5.75,5.75,0,0,1,.5-3l1-7.9c-11.42,5.74-12.57,10.85-12.67,13-.45,10.25,20.13,20.92,38.22,21.09,14.08.13,32.75-6,33.74-15.87.2-2-.06-6.5-7.19-12.58" transform="translate(-66.4 0)"/><path class="cls-1" d="M449,693.93a117.26,117.26,0,0,0,53.22-12.73,159.82,159.82,0,0,0,7,53.61c1.32-.25,23.23-4.12,32.58,8.71.82,1.13,5.7,8.08,3.19,13.84s-10.73,6.65-17.29,8c-14.84,3-38.79,5.14-70.88-2.87Q455,745.65,453,728.71q-2-17.47-4.07-34.78" transform="translate(-66.4 0)"/><path class="cls-2" d="M443.78,723.73c1,9.84,19.66,16,33.74,15.87,18.09-.17,38.68-10.83,38.22-21.09-.1-2.16-1.26-7.27-12.67-13l1,7.9a5.76,5.76,0,0,1,.5,3c-.82,6.78-15.65,10.45-24.65,11.29s-25.15.08-27.86-7.44a7,7,0,0,1-.38-2.7l-.71-6.4c-7.12,6.08-7.38,10.62-7.19,12.58" transform="translate(-66.4 0)"/><path class="cls-3" d="M519.47,567.52l-86.33,13.94-71.79-1.72L255.68,564.48s-47.83,48.65-35.21,93.31,71.72,39.87,89.66,39.08c5.93-.26,17.25.84,30.91-3.6a79.41,79.41,0,0,0,23.82-12.58l29.4-2.84a26.51,26.51,0,0,1,23.22,9.67,160.18,160.18,0,0,0,40.86,9c16.85,1.43,56.46,4.86,75.33-14.39,22.22-22.68,20.61-73.24-14.19-114.58" transform="translate(-66.4 0)"/><path class="cls-2" d="M436.66,590.29a236,236,0,0,0,20,115.52A221.52,221.52,0,0,1,310.41,702,259.26,259.26,0,0,0,340.09,589.5Z" transform="translate(-66.4 0)"/><path class="cls-4" d="M353.48,593.13a397.06,397.06,0,0,1-5.62,46.77,396.29,396.29,0,0,1-11.45,46.85,154.05,154.05,0,0,0,93.88,0l-6.09-46.85q-.76-23.65-1.52-47.3l-69.2.53" transform="translate(-66.4 0)"/><path class="cls-5" d="M257.56,573s-36.87,59.19-50.38,62.59c0,0,41.61,51.12,94.66,33.64,0,0,32-75.86,29-81.27,0,0-56.77-3.79-73.33-15" transform="translate(-66.4 0)"/><path class="cls-6" d="M263.92,576.7A223.27,223.27,0,0,1,246,611.45,212.67,212.67,0,0,1,228.7,635a122.48,122.48,0,0,0,21,12.13,114.35,114.35,0,0,0,42.39,10.07c3.21-6.48,6.37-13.39,9.42-20.75a351.8,351.8,0,0,0,16.3-49.57c-5.79-.59-10.68-1.21-14.38-1.71-5.09-.69-9.15-1.24-14.71-2.29-6.42-1.2-11.26-2.39-12.93-2.81-4.58-1.14-8.58-2.31-11.87-3.33" transform="translate(-66.4 0)"/><path class="cls-5" d="M514.42,570.83S551.29,630,564.8,633.42c0,0-41.61,51.12-94.66,33.64,0,0-32-75.86-29-81.27,0,0,56.77-3.79,73.33-15" transform="translate(-66.4 0)"/><path class="cls-6" d="M508.06,574.49A223.07,223.07,0,0,0,526,609.24a213,213,0,0,0,17.27,23.51,122.4,122.4,0,0,1-21,12.13A114.31,114.31,0,0,1,479.89,655c-3.21-6.48-6.37-13.39-9.42-20.75a351.91,351.91,0,0,1-16.3-49.58c5.79-.59,10.67-1.21,14.38-1.71,5.09-.69,9.15-1.24,14.71-2.28,6.42-1.2,11.25-2.39,12.93-2.81,4.58-1.15,8.58-2.31,11.87-3.33" transform="translate(-66.4 0)"/><path class="cls-1" d="M247.59,494.46a225.64,225.64,0,0,0-110.72,54.17c-49.2,44.4-64,97.6-68.42,117.11-2.76,12.17-5.36,40.59,11,55.83,5.33,5,11.33,7.19,14.94,8.53,4.52,1.69,28.33,10.56,46.36-3.48,11.33-8.82,16-23.28,15.46-34.5-.67-13.55-9.31-29-9.88-30.49l18-73.93s77.46-39.82,82.83-49.52Z" transform="translate(-66.4 0)"/><path class="cls-2" d="M119.58,565.57c1.63-2.87,4.55-6.89,9.32-8.65,11.72-4.32,28.42,7.29,33.19,21.69,2.92,8.83.76,16.92-.57,20.76l-1.68,6.89a15.29,15.29,0,0,0,9.42-2.2c5.62-3.63,6.6-10.35,7.06-13.47,1.61-11-4.12-20-7.47-25.25-3.05-4.78-8.2-12.84-18.52-17.63-4.69-2.18-18.41-8.55-28.31-1-6.8,5.21-9.4,15.21-7.19,25.16Z" transform="translate(-66.4 0)"/><path class="cls-1" d="M523.2,495.18a225.66,225.66,0,0,1,110.72,54.17c49.19,44.4,64,97.6,68.42,117.11,2.77,12.17,5.36,40.59-11,55.83-5.33,4.95-11.33,7.19-14.94,8.54-4.52,1.68-28.33,10.55-46.36-3.48-11.33-8.82-16-23.29-15.46-34.51.67-13.55,9.3-29,9.88-30.49l-18-73.93S529,548.6,523.6,538.89Z" transform="translate(-66.4 0)"/><path class="cls-2" d="M651.21,566.29c-1.63-2.87-4.55-6.89-9.32-8.64-11.73-4.32-28.42,7.28-33.19,21.69-2.92,8.83-.76,16.92.57,20.75l1.68,6.89a15.32,15.32,0,0,1-9.42-2.2c-5.62-3.63-6.6-10.35-7.06-13.47-1.61-11,4.12-20,7.47-25.25,3.05-4.78,8.2-12.84,18.52-17.63,4.69-2.18,18.41-8.55,28.31-1,6.8,5.22,9.4,15.21,7.19,25.17Z" transform="translate(-66.4 0)"/><path class="cls-7" d="M527.86,328.76s61.88-74.68,74-75.39c0,0-59,150.78-55.47,185.63l23.71-26.15c-4.21,28.12-8.83,49.5-12.3,64.42-5.85,27.81-9.33,40-18.75,59-8.18,5.51-14.51,11.35-20,13.68,0,0-6.79-169.27,8.86-221.19" transform="translate(-66.4 0)"/><path class="cls-7" d="M238.73,328.07s-61.88-74.68-74-75.39c0,0,59,150.78,55.48,185.63l-23.71-26.15c4.21,28.13,8.83,49.5,12.3,64.43,5.85,27.81,9.33,40,18.75,59,8.18,5.51,14.51,11.35,20,13.68,0,0,6.79-169.27-8.86-221.19" transform="translate(-66.4 0)"/><path class="cls-1" d="M238.73,328.07s166.81,51.92,293,0c0,0-16.24,178.52-10.33,221.19a458,458,0,0,1-273.83,0s5.9-182.07-8.86-221.19" transform="translate(-66.4 0)"/><path class="cls-8" d="M386.2,350.8c-40.81-.47-90.27-6.39-147.47-22.73l3.87,16.76s6.86,32.72,39.54,37.14c0,0,9.1,1.45,16.19-.53s41.45-4.58,52.18,34.59l1.18,10.65s4.86,9.49,28.22,11.38c2.13.17,4.22.26,6.29.24s4.15-.07,6.29-.24c23.36-1.89,28.22-11.38,28.22-11.38l1.81-10.33c6.47-32.69,40-35.54,50.62-33.17,4.91,1.09,16.19.56,16.19.56,36.61-8,40.75-36.86,40.75-36.86l1.67-18.82C474.13,350.83,427,350.34,386.2,350.8" transform="translate(-66.4 0)"/><path class="cls-9" d="M262.44,414.86c-3.49,20.25,4.23,40.34,19.91,51.38,18.79,13.24,40,7.1,41.08,6.77,21.9-6.73,29.59-26.84,30.42-29.12a55.3,55.3,0,0,0-12.64-25.17c-15.87-17.79-38.12-18.54-42.35-18.6a44,44,0,0,0-12.46.88,46.85,46.85,0,0,0-24,13.87" transform="translate(-66.4 0)"/><path class="cls-10" d="M334.32,429.86c0,17.56-10.77,31.8-24,31.8s-24-14.24-24-31.8,10.76-31.8,24-31.8,24,14.24,24,31.8" transform="translate(-66.4 0)"/><path class="cls-11" d="M304.25,417.16a7.57,7.57,0,1,1-7.56-7.95,7.76,7.76,0,0,1,7.56,7.95" transform="translate(-66.4 0)"/><path d="M325,433.88c0,11-5.39,19.85-12,19.85s-12-8.88-12-19.85S306.35,414,313,414s12,8.89,12,19.84" transform="translate(-66.4 0)"/><path class="cls-12" d="M242.21,341.75a124.11,124.11,0,0,0-.93,19.95c.34,10.1.72,20.79,6,32.54a63.61,63.61,0,0,0,15.11,20.62,59.52,59.52,0,0,1,25.25-11.91c3.46-.7,29-5.41,49.07,12.27A56.27,56.27,0,0,1,354,444.55c1.1-1.57,13.88-20.44,5.77-40.46-6.87-16.94-23.84-22.68-27.81-24-10.26-3.48-20.44-2.78-30.88-2.07-9.75.67-12.11,2-16.3,2.07-9.71.19-24-6.32-42.57-38.33" transform="translate(-66.4 0)"/><path class="cls-13" d="M248.39,438.87a84.37,84.37,0,0,0,12.92,32.24,82.2,82.2,0,0,0,9.85,12,95.29,95.29,0,0,1-7,47.73,22.22,22.22,0,0,0,31.29-5.69A23.39,23.39,0,0,1,286,556.38l-38.39-7.11q.4-55.2.8-110.4" transform="translate(-66.4 0)"/><path class="cls-14" d="M324.49,523.5c15.2,20.2,31,25.07,37.27,26.51,8.29,1.89,17.72,1.84,26.33,1.78s16.69-.11,24-1.78c6.13-1.41,21.84-6.28,36.87-27l-17.57-7.53a165.78,165.78,0,0,1-87.66.43,33.8,33.8,0,0,1-6.32,4.11,34.19,34.19,0,0,1-12.92,3.52" transform="translate(-66.4 0)"/><path class="cls-15" d="M348.46,516.93l6.28,12.43,3.58-3.63s20.49,6.69,57.49-.57l4,4.2,5.88-12.61A203.91,203.91,0,0,1,403,519.86a206,206,0,0,1-54.49-2.93" transform="translate(-66.4 0)"/><path class="cls-16" d="M355.14,547.49a83.26,83.26,0,0,1,63.57.46A121.06,121.06,0,0,1,400,551.73a97.53,97.53,0,0,1-31.85-.64,87.37,87.37,0,0,1-13-3.6" transform="translate(-66.4 0)"/><path class="cls-13" d="M523.2,441.14a91.06,91.06,0,0,1-13.76,32.33,89.1,89.1,0,0,1-9.85,12,95.28,95.28,0,0,0,7,47.72,22.22,22.22,0,0,1-31.29-5.69,26.33,26.33,0,0,0,9.07,32.81l36.06-2.82q1.38-58.19,2.77-116.38" transform="translate(-66.4 0)"/><path class="cls-9" d="M509.56,416.52c.15,1.72,2.35,33.34-21.76,50.32-3.07,2.17-20,14.05-40.62,7.58-21.05-6.59-28.28-26.68-29-28.88a55.31,55.31,0,0,1,12.64-25.17c15.87-17.79,38.12-18.54,42.35-18.6a44.15,44.15,0,0,1,12.46.88,46.84,46.84,0,0,1,24,13.87" transform="translate(-66.4 0)"/><path class="cls-10" d="M437.67,431.52c0,17.56,10.77,31.8,24,31.8s24-14.24,24-31.8-10.77-31.8-24-31.8-24,14.24-24,31.8" transform="translate(-66.4 0)"/><path class="cls-11" d="M467.74,418.82a7.57,7.57,0,1,0,7.56-7.95,7.76,7.76,0,0,0-7.56,7.95" transform="translate(-66.4 0)"/><path d="M447,435.54c0,11,5.39,19.85,12,19.85s12-8.89,12-19.85-5.39-19.85-12-19.85-12,8.89-12,19.85" transform="translate(-66.4 0)"/><path class="cls-12" d="M530.39,342.14a125.74,125.74,0,0,1-.12,30.84c-1.46,11.34-2.9,21.65-10.09,32.12a53.51,53.51,0,0,1-10.63,11.42,59.52,59.52,0,0,0-25.25-11.91c-3.46-.7-29-5.41-49.07,12.27A56.27,56.27,0,0,0,418,446.22c-1.1-1.57-13.89-20.45-5.77-40.46,6.87-16.94,23.84-22.68,27.81-24,10.26-3.47,20.44-2.78,30.88-2.06,9.71.66,12.18,2,16.3,2.06,9.78.23,24.19-6.46,43.18-39.6" transform="translate(-66.4 0)"/><path class="cls-17" d="M438.52,516.58a30.45,30.45,0,0,1-7.73-5.73,160.3,160.3,0,0,1-87.33.57,39.19,39.19,0,0,1-6,3.44c-4,1.84-9.76,4.53-16.38,3.48-8.24-1.31-13.19-7.67-14.58-9.6a34.88,34.88,0,0,0,8.89,10.67c3.27,2.6,6,4.77,9.95,5,3.47.18,6.12-1.36,11.06-3.86a43.57,43.57,0,0,0,7.3-4.66,187.88,187.88,0,0,0,87.66-.43c9.3,6.79,11.94,8.07,12.31,7.64.16-.19-.2-.68-.41-1.91a6.43,6.43,0,0,1-4.77-4.59" transform="translate(-66.4 0)"/><path class="cls-17" d="M453.94,518.52c-5.66,1.92-11.25-.28-12.8-.89-6.2-2.44-10-7.14-10.34-6.78s3.88,4.63,3.23,5.36q-.39.44-2.63-.77c2.76,2.24,5.65,4.46,8.74,6.72a10.83,10.83,0,0,0,6.17,2.61,8.92,8.92,0,0,0,2.29-.25,13.37,13.37,0,0,0,6.06-3.32c4.56-4.08,8.53-9.5,8.18-9.78s-3,5.11-8.89,7.11" transform="translate(-66.4 0)"/><path class="cls-18" d="M247.76,548.91h0s71.87,17.54,138.26,19c31.66.68,78.49-1.94,135.58-19a17.69,17.69,0,0,1,3.82,10.86,18.16,18.16,0,0,1-2.13,7.47c-9.63,17.49-72.19,23.11-72.19,23.11-29.15,2.62-43.72,3.93-66.23,3.54a505.54,505.54,0,0,1-83.13-8.52c-20-3.72-37-8.09-49.9-11.85-7-4.95-10.27-12.41-8.41-18.45a12.76,12.76,0,0,1,4.34-6.16" transform="translate(-66.4 0)"/><path class="cls-19" d="M433.34,566.46c.43,26.3-21.61,47.55-46.93,46.51-24.48-1-44.37-22.53-43.14-47.91,9.47,1.06,18.19,1.72,26,2.13,2.73.14,9.36.46,18,.58,10.74.14,18.83-.12,26-.36,5.2-.17,12-.46,20.12-1" transform="translate(-66.4 0)"/><path class="cls-20" d="M403,585c-1.41,7.53-9.13,12.41-17.23,10.89s-13.54-8.85-12.13-16.38,9.12-12.41,17.23-10.89S404.37,577.46,403,585" transform="translate(-66.4 0)"/><path class="cls-1" d="M233.34,275.05a356.36,356.36,0,0,0,97,30c91.34,14.4,165.65-10.85,201.91-26.23A55,55,0,0,0,528.23,242a54.07,54.07,0,0,0-19.59-21.49,20.87,20.87,0,0,0,3.43-8.34c2.07-12.26-8.33-21.77-9.42-22.73a30.09,30.09,0,0,0,1.74-12c-1.4-22.21-28.43-34.06-30-34.73,0,0,23.41-37-45.51-65.43,0,0-5.86-1.42-2.06-10.91S414.94,35.61,378,39.87s-44.57-25.61-44.57-25.61S332,41.77,351.87,50.78,336.7,56,330.06,62.16A28.67,28.67,0,0,0,322,76.86S246.61,92,250.4,143.24c-1.88,3.28-21.1,37.92-5.14,63a39.93,39.93,0,0,0,9.17,10,44,44,0,0,0-18.78,16.51c-11.68,19-3.33,39.88-2.32,42.29" transform="translate(-66.4 0)"/><path class="cls-21" d="M336.49,78.23s-.73-5.6,3.56-5.77S403,86.15,419,83.05c0,0,11.24,3.91,3.14,7.28s-70.71-2.69-85.63-12.1" transform="translate(-66.4 0)"/><path class="cls-22" d="M532.29,278.87c-1.21-5.29-5.77-22.17-21.72-34.53-20.44-15.83-44.5-12.56-46.82-11.74,0,0-.35,0-.34.07s18.95-3.84,29.3-16.67c2.87-3.56,9.07-11.25,7.73-19.86-.61-3.94-2.91-8.73-1.33-9.87.75-.54,2.06,0,3.11.53,0,0,18.12,14,6.43,33.7a47,47,0,0,1,11.39,9c16.73,18.19,13.11,44,12.26,49.32" transform="translate(-66.4 0)"/><path class="cls-22" d="M259.15,286.07s-46.89-40,13.67-64.49c0,0-31.36-25.48-29.14-67.15h0l-4.58,5.63L239,192.12s5.87,18.44,15.48,24.13c0,0-36.51,16.26-21.1,58.8h0l25.81,11" transform="translate(-66.4 0)"/><path class="cls-22" d="M257.21,229.7a93.93,93.93,0,0,0,20,21.4c8.51,6.63,15.89,10,27,14.94a278.17,278.17,0,0,0,37,13.51,285.83,285.83,0,0,0,58,10c67.79,4.56,132.37-13.75,133.12-10.64.69,2.86-63,19.37-76.83,22.2-11.83,2.42-23.38,4-23.38,4l-.9.12a330.23,330.23,0,0,1-33.43,2.49A383.64,383.64,0,0,1,339,304.55,395.28,395.28,0,0,1,247.46,281c-9.9-9.91-13-24.1-7.91-35.47,4.86-10.88,15.3-15,17.65-15.81" transform="translate(-66.4 0)"/><path class="cls-22" d="M257.21,229.7c4.68-.22,11.43-.42,19.55-.28,23,.4,41.27,3.31,41.33,2.83s-16.63-1.07-35.56-8.89a110.88,110.88,0,0,1-22.58-12.62q-.18,1.33-.36,2.67-1.11,8.24-2.38,16.29" transform="translate(-66.4 0)"/><path class="cls-22" d="M272.57,247.24c-2.74-3.5-9.62-12.81-6.93-16.41.92-1.23,2.6-1.18,7.29-1.62,10.34-1,16.54-1.44,16.53-1.58,0-.33-33-.36-33.07-.36q.92,1.61,2,3.24a80.9,80.9,0,0,0,14.22,16.72" transform="translate(-66.4 0)"/><path class="cls-22" d="M254.79,167.53a256.35,256.35,0,0,0,30.12,23.23c7.35,4.84,13.08,8,15,9.13a190.3,190.3,0,0,0,24.89,11.74A189.15,189.15,0,0,0,348,218.74c3.32.83,11.36,2.78,30.58,5.69,16.67,2.52,29.46,3.92,32.72,4.27,33,3.55,45.82,2.94,45.87,4.27.08,2.23-36,6.8-75.73,6.67a349.66,349.66,0,0,1-37-1.54,290.13,290.13,0,0,1-85.27-22.53c-1.7-1.53-12.18-11.24-12-26.7a35.45,35.45,0,0,1,7.65-21.34" transform="translate(-66.4 0)"/><path class="cls-23" d="M344,194.14s129.81,22,141.77-4.57c0,0,4,46.1-141.77,4.57" transform="translate(-66.4 0)"/><path class="cls-23" d="M327.53,246.53s148.66,46.5,166.13-1.37c0,0,34.5,80.36-166.13,1.37" transform="translate(-66.4 0)"/><path class="cls-21" d="M290.6,108.07c-12.88,2.41-25.69,5.29-38.44,8.5-1,1.34-2,2.67-3,4,.63,1.54-.25,6.13-2.62,13.92-15.95,52.48,12.19,60.31,15.95,49.35,3.64-10.64,20.53-59.62,31.81-66.82a76.18,76.18,0,0,0-3.71-9" transform="translate(-66.4 0)"/><path class="cls-22" d="M450.72,88.69c-4.08,11-7.73,22.06-11.23,33.21,3,21.36,4,48.51,14.8,44.72,14.08-5,7-37,18.72-41.43a9.68,9.68,0,0,1,1.69-.43c-2.69-5.17-4.83-10.71-8.06-15.64-4.74-7.25-10.52-13.69-15.92-20.43" transform="translate(-66.4 0)"/><path class="cls-22" d="M331.59,104.84a105.47,105.47,0,0,1,3.82,30.49c-.79,1.57-7.73,16.05-.13,30.42.57,1.08,7.72,14.18,19,15.17,12.77,1.13,28.42-13.58,31.49-37.58a149,149,0,0,0,2.94-44q-.2-2.39-.47-4.71c-18.9,3.26-37.77,6.62-56.61,10.22" transform="translate(-66.4 0)"/><path class="cls-22" d="M345.14,83.25c-16.79,2.65-33.47,5.82-50.1,9.35-1.3,1.47-2.61,2.94-3.88,4.43.82,1.69-.33,6.74-3.41,15.31-12,33.48-4.78,50.44,4.4,56.44,6.66,4.34,14.32,2.92,16.38-2.14,4.74-11.71,26.75-65.6,41.45-73.51a77.09,77.09,0,0,0-4.84-9.87" transform="translate(-66.4 0)"/><path class="cls-22" d="M396.47,81.87c-4.08,13.79-7.73,27.78-11.23,41.83,3,26.9,4,61.1,14.8,56.32,14.08-6.25,7-46.65,18.72-52.17a8.11,8.11,0,0,1,1.69-.55c-2.69-6.51-4.83-13.49-8.06-19.7-4.74-9.13-10.52-17.24-15.92-25.73" transform="translate(-66.4 0)"/><path class="cls-22" d="M256.39,172.86s15.91,29.52,37.91-7.47l-19-9.25Z" transform="translate(-66.4 0)"/><path class="cls-22" d="M310.62,156.15s14,9,20.76-2.79l5.05-5.24-5.31-8.32-20.5,4.62Z" transform="translate(-66.4 0)"/><path class="cls-22" d="M371.74,173.5c.36,12,6.34,21.65,13,23,8.18,1.63,21-8.44,22.47-26.39l-15.88-8.26-22,8.26Z" transform="translate(-66.4 0)"/><path class="cls-22" d="M412.49,139s5.17,48.23,32.11,17.17l1.7-6.54L436,139.79l-21.09-10.67-4.33,3.38Z" transform="translate(-66.4 0)"/><path class="cls-22" d="M464.43,146.32s-2.74,14.08,10.27,15.51c0,0,2,34.67,23.6,27.74l7.59.92-5.37-3.58-3.91-25.08-30.23-30.66-5.51,3.29Z" transform="translate(-66.4 0)"/><path class="cls-24" d="M500,134.7c-3.75-6.38-7.91-13.47-14.94-19.91a58.67,58.67,0,0,0-15.13-10,84.87,84.87,0,0,0-3.12-17.48c-12.82-1.69-25.59-3.64-38.41-5.61-35.95-5.53-72.22-9.81-107.46-19a45,45,0,0,0-4.52,8.5A140.2,140.2,0,0,0,270.68,93c-8.68,6.29-26.13,19.24-37.76,42.51-7.14,14.28-17.7,43.66-6.58,53.87,3.41,3.14,9.2,4.77,12.62,2.72,5.15-3.1,2.82-13.37,2.91-23.28.25-28.69,20.72-50.09,22.2-49.42s-18.61,31-7.26,48.51c3.67,5.66,11.5,11.35,18.5,9.91,5.08-1,8.24-5.54,10.2-8.76,14-23.1,11.4-55.85,14.46-56.19,3.37-.37,6.33,39.43,18.73,41.25,5.3.78,10.32-5.68,11.62-7.35,11.65-15,2-39.38,8.22-41.41a2.54,2.54,0,0,1,1.51,0c9.24,2.85-4,67.19,10.55,67.6,27.62.79,19.33-67,26.35-66.14,7.86.95-10.38,86.33,7.38,84.74,37.62-3.38,14.63-93.79,23-93.17,2.93.22,6.16,50.79,15.88,60.5a10.51,10.51,0,0,0,6.26,3.33c5,.49,9.15-3.92,10.22-5.07,10.91-11.61.69-32.27,7.67-36,5.35-2.88,18.12,5.66,19.18,14.07.1.75,0,.56-.27,4.53-.55,9-.8,13.48.71,15.65,2.39,3.43,5.55,1.17,9.07,4.71,3.75,3.78.91,7.11,5,14.76a21,21,0,0,0,7.76,8.68,23.59,23.59,0,0,0,5.61,2.29,19.27,19.27,0,0,0,7.79,1,14.69,14.69,0,0,0,7.25-2.76c8.3-6.8-.62-30.72-2.54-35.62A92.06,92.06,0,0,0,500,134.7" transform="translate(-66.4 0)"/><path class="cls-25" d="M512.88,145.11a83.82,83.82,0,0,0-8.27-18.61,81.68,81.68,0,0,0-10-14.33c-9.84-10.74-23-15-32-16.83Q416,68.84,415.65,69.5t56.65,35.32c.24-8.43-.27-32.15-17.23-52.17-12.93-15.25-29.51-21.4-37.75-24.45-15.81-5.86-31.85-7.32-36.23-7.66-19.42-1.52-27.42,1.9-36.17-4.62C336.35,9.53,334.73-.69,331.12,0c-3.07.61-4,8.34-4.08,12.3-.25,12,6.72,21.47,11.1,26.34a45.64,45.64,0,0,0-13.48,9.52,44.55,44.55,0,0,0-9.36,14.26,112.74,112.74,0,0,0-46.77,21.78c-38.62,30.78-42.38,77.17-42.07,86,.33,9.19,5.37,15.75,7.79,15.47,2.85-.34,2.3-12.13,4.84-25.61,5.63-29.86,23.51-53.53,26.26-52.41,1.09.44.52,4.76-1.65,13.14-12.35,47.65,9.45,54.76,12.35,44.81s16.71-56.9,25.43-61.16,5.81,42,16,38.41,8-42.67,20.34-46.23-1.45,66.14,12.31,67.57S366.88,95.18,377,98s-13.13,95.51,7.26,92.46c15.57-2.33,19.36-19.22,13.55-43.57-4.56-19.08,6-58,14.05-59.56,14.53-2.85,6.5,59.5,21.8,62.59,11.93,2.41,5.69-33.64,15.3-37.62,6.83-2.83,19.4,5.19,23.53,14.77,3.14,7.3-.33,11.57,2.75,18.46,3.54,7.92,12.39,11.89,19.77,14a31.32,31.32,0,0,0,2.66,12.8,31,31,0,0,0,4.46,7.19c4,3.19,6.42,3.39,8,2.84,6.68-2.38,7-22.44,2.73-37.32" transform="translate(-66.4 0)"/><path class="cls-26" d="M354.67,58.83c17.39-.67,39.11-1.5,63.19,6.19a134.89,134.89,0,0,1,39,20.12c-.24-6.94-1.88-21.61-12.74-32.83-13-13.45-31.28-13.68-46.57-13.87a101.2,101.2,0,0,0-39.48,7.82,103,103,0,0,0-24.24,14.22c4.81-.59,12-1.32,20.81-1.66" transform="translate(-66.4 0)"/><path class="cls-26" d="M235.66,184s-.37-43.26,19-64c0,0,.75-4.14-3.46,0,0,0-27.14,25-19.76,64,0,0,2.54,2.62,4.25,0" transform="translate(-66.4 0)"/><path class="cls-26" d="M350.13,164.17s-7.86,2.24-6.14-21.32a90.92,90.92,0,0,1,10.73-37.73c5.32-7.26,10.71-11,13.33-9.6,2.34,1.21,2.05,6.22,2,7.65Q368.94,110,367.93,117q-1.91,13.29-3.47,26.21a23.26,23.26,0,0,1-14.33,20.91" transform="translate(-66.4 0)"/><path class="cls-26" d="M377,181c1.79.41,10.14,2.12,16.81-2.79,7.89-5.8,10.43-18.64,4.39-30.2a104.22,104.22,0,0,1-.75-16.05,105.87,105.87,0,0,1,7-34.64c.14-.86.58-4.07-.87-5s-5.08.77-8.4,4.94A107.15,107.15,0,0,0,384,117.37C372.88,143.43,374.84,167.8,377,181" transform="translate(-66.4 0)"/><path class="cls-26" d="M509.46,184.06s22.32-30.35-21.22-77.67c0,0,16.65,51.66,6.82,53.2,0,0-4,17.89,14.4,24.48" transform="translate(-66.4 0)"/><path class="cls-26" d="M427.27,144.59c1.32,1.48,6,6.6,9.79,5.54,4.52-1.26,7-10.91,5.14-24.39a28.8,28.8,0,0,0-20.27-32.54q.74,12.58,2.13,26.14,1.37,13.13,3.2,25.25" transform="translate(-66.4 0)"/><path class="cls-26" d="M311.25,120.29c-2.09,11.81-.3,22,4,22.77s9.47-8.2,11.56-20,.3-22-4-22.77-9.47,8.2-11.56,20" transform="translate(-66.4 0)"/><path class="cls-26" d="M267.49,135.14c-4.86,17.74-4.44,33.31.93,34.79S282.1,158.21,287,140.47s4.44-33.31-.93-34.78-13.67,11.71-18.53,29.45" transform="translate(-66.4 0)"/><path class="cls-26" d="M281.6,107.13a54.46,54.46,0,0,1,19.78-13.92s15.88-5.65.12,11.22c-9.15,9.8-9,13-9.73,14.82-3.09,7.55-2.51,10.14-3.19,10.23-1,.14-2.94-4.56-7-22.35" transform="translate(-66.4 0)"/><path class="cls-26" d="M327.86,113.74a20.57,20.57,0,0,1,.95-6.87,21.6,21.6,0,0,1,7.73-10.64,4.87,4.87,0,0,0-2.23-2.42c-4-1.91-11.47,3.31-18.71,12.88v3.59l12.26,3.46" transform="translate(-66.4 0)"/><path class="cls-27" d="M391.07,164.23c0,5.08-2.61,9.2-5.83,9.2s-5.83-4.12-5.83-9.2,2.61-9.2,5.83-9.2,5.83,4.12,5.83,9.2" transform="translate(-66.4 0)"/><path class="cls-27" d="M515.7,166.17c0,5.53-2.71,10-6,10s-6-4.49-6-10,2.71-10,6-10,6,4.49,6,10" transform="translate(-66.4 0)"/><path class="cls-27" d="M439.5,132.8c0,6.15-2.48,11.14-5.54,11.14s-5.54-5-5.54-11.14,2.48-11.14,5.54-11.14,5.54,5,5.54,11.14" transform="translate(-66.4 0)"/><path class="cls-27" d="M356.51,151c-.95,5.34-4,9.26-6.83,8.77s-4.35-5.24-3.41-10.57,4-9.27,6.83-8.77,4.35,5.24,3.41,10.57" transform="translate(-66.4 0)"/><path class="cls-27" d="M319.61,127.37c-.43,5.92-2.53,10.59-4.68,10.44s-3.56-5.08-3.13-11,2.53-10.59,4.68-10.44,3.56,5.08,3.13,11" transform="translate(-66.4 0)"/><path class="cls-27" d="M280,152.83c-2.29,7.2-6.68,12.23-9.82,11.23s-3.83-7.64-1.54-14.84S275.35,137,278.49,138s3.83,7.64,1.54,14.84" transform="translate(-66.4 0)"/><path class="cls-27" d="M235.66,172.93c0,6.13-1.37,11.1-3.06,11.1s-3.06-5-3.06-11.1,1.37-11.1,3.06-11.1,3.06,5,3.06,11.1" transform="translate(-66.4 0)"/><path class="cls-27" d="M438.64,54.09c7.36,7.26,10.8,17.84,8.89,19.2s-8.61-5.48-19.91-16.71c-6.87-6.83-10.3-10.27-9.6-11.38,1.21-1.93,12.7,1.08,20.63,8.89" transform="translate(-66.4 0)"/><path class="cls-28" d="M234,327.17l-10.86-29.83a414.16,414.16,0,0,0,95.72,27.56c97.61,15.67,178.28-7.67,221.95-24.32l-6.26,27.87A435.2,435.2,0,0,1,459.08,348c-95.34,15.74-175.95-3.81-225.06-20.83" transform="translate(-66.4 0)"/><path class="cls-29" d="M222.9,297.34a60,60,0,0,1,3.71-11.21c3.85-9.9,4.15-8,6.73-11.08a377.51,377.51,0,0,0,97.93,28.45c89.73,13.23,162.91-9.45,201-24.64l3.08,3.53q.73,2.34,1.56,4.77t1.65,4.62l2.24,8.79a387.92,387.92,0,0,1-154.1,32.57,388.25,388.25,0,0,1-163.82-35.8" transform="translate(-66.4 0)"/><path class="cls-5" d="M385.24,274.64s-35.75,46-41.25,77.3a115.26,115.26,0,0,0,41.25,31.79Z" transform="translate(-66.4 0)"/><path class="cls-5" d="M385.24,274.64s35.75,46,41.25,77.3a115.31,115.31,0,0,1-41.25,31.79Z" transform="translate(-66.4 0)"/><path class="cls-30" d="M392.18,343.87c0,8.39-3.1,15.2-6.93,15.2s-6.93-6.81-6.93-15.2,3.1-15.2,6.93-15.2,6.93,6.81,6.93,15.2" transform="translate(-66.4 0)"/></svg>