<svg id="Layer_1" data-name="Layer 1" xmlns="http://www.w3.org/2000/svg" xmlns:xlink="http://www.w3.org/1999/xlink" viewBox="0 0 336.15 735.98"><defs><style>.cls-1,.cls-20,.cls-25,.cls-28{fill:none;}.cls-2{clip-path:url(#clip-path);}.cls-3{clip-path:url(#clip-path-2);}.cls-4{fill:#f7fcfe;}.cls-5{fill:#c6c6c5;opacity:0.17;isolation:isolate;}.cls-6{fill:#c93334;}.cls-7{opacity:0.3;}.cls-8{fill:#7c323b;}.cls-9{fill:#eac361;}.cls-10{fill:#f6e3ad;}.cls-11{fill:#f7be61;}.cls-12{fill:#f6e1aa;}.cls-13{fill:#503027;}.cls-14{fill:#d89428;}.cls-15{fill:#a3a3a3;}.cls-16{fill:url(#linear-gradient);}.cls-17{fill:#efebd5;}.cls-18{fill:#fff8eb;}.cls-19{fill:url(#linear-gradient-2);}.cls-20{stroke:#000;}.cls-20,.cls-25,.cls-28{stroke-miterlimit:10;}.cls-21{fill:#dbdddd;}.cls-22{fill:#fff;}.cls-23{fill:#cb5a5a;}.cls-24{fill:#feefed;}.cls-25{stroke:#b9afad;}.cls-26{fill:url(#linear-gradient-3);}.cls-27{fill:#f9a13a;}.cls-28{stroke:#f9a13a;}.cls-29{fill:#f47622;}</style><clipPath id="clip-path"><polygon class="cls-1" points="2.06 -0.84 2.1 733.15 338.44 733.15 338.44 -0.84 2.06 -0.84"/></clipPath><clipPath id="clip-path-2"><polygon class="cls-1" points="2.1 -24.35 0.8 817.55 363.8 817.55 363.8 -24.35 2.1 -24.35"/></clipPath><linearGradient id="linear-gradient" x1="-171.66" y1="181.88" x2="-129.16" y2="181.88" gradientTransform="matrix(1, 0, 0, -1, 390.86, 757.18)" gradientUnits="userSpaceOnUse"><stop offset="0.14" stop-color="#ffce41"/><stop offset="0.64" stop-color="#faaf43"/><stop offset="1" stop-color="#f8993a"/></linearGradient><linearGradient id="linear-gradient-2" x1="-206.36" y1="280.96" x2="-128.36" y2="280.96" xlink:href="#linear-gradient"/><linearGradient id="linear-gradient-3" x1="-326.01" y1="312.04" x2="-326.01" y2="416.61" xlink:href="#linear-gradient"/></defs><title>Monkey</title><g class="cls-2"><g class="cls-3"><g id="Layer_27" data-name="Layer 27"><g id="Layer_28" data-name="Layer 28"><path class="cls-4" d="M203.8,779.65c-4.2-15-29-22.9-29-22.9l-2.6-34.5c-5.8,2.5-44.9,8.6-44.9,8.6l-2.1,50.4,1.8.3c.4.1.8.1,1.2.2,4.2.8,8.2,1.5,11.9,2.2a.63.63,0,0,1,.4.1,2.7,2.7,0,0,0,.8.1c.3,0,.5.1.8.1h.2a50.6,50.6,0,0,1,5.6.9C206.8,794.05,203.8,779.65,203.8,779.65Z"/></g></g><g id="เงา"><path class="cls-5" d="M152.8,772.35c-13-2.9-11.7-42.6-11.7-42.6L127.3,731l-2.1,50.4a.7.7,0,0,0,.4.2h.2a9.58,9.58,0,0,1,3.5.7,6.59,6.59,0,0,1,2.9.6c.2,0,.3.1.5.1h.3a8,8,0,0,1,3.2.6,1.25,1.25,0,0,1,.6.1c-.6-.1-.4-.1.7,0s2.1.3,3.1.4,1.2.2.5.2c.4,0,.9.1,1.3.1a43.72,43.72,0,0,1,8,1.5h.1a42.13,42.13,0,0,1,9.4,1.4c10.9.7,20,.7,20,.7C182.5,785.15,152.8,772.35,152.8,772.35Z"/></g><g id="หาง"><path class="cls-4" d="M314.06,625.55c-36.9,44.6-63.2,34.8-63.2,34.8-23.6,24-57.9-25.4-57.9-25.4l3,33.2c.6.8,1.2,1.7,2,2.7,10.1,14.3,53,27.6,53,27.6,52.4,5.5,85-46.3,85-46.3C347.6,620.45,314.06,625.55,314.06,625.55Z"/></g><g id="ชุด"><g id="Layer_20" data-name="Layer 20"><g id="Layer_21" data-name="Layer 21"><path class="cls-6" d="M-81.4,619.75s168,50.4,269.5-7.4c0,0,21.4,87.1,4.9,97.4,0,0-18.1,22-79.7,21.5H-23.6s-98.3,14.2-89.6-34.3c0-.1,12.3-64.2,31.8-77.2h0"/></g></g><g id="Layer_43" data-name="Layer 43" class="cls-7"><path class="cls-8" d="M-104.7,663.55s91.3,93.5,297.7,46.2c0,0-15.6,21.7-79.7,21.5l-181.5,1.9s-58.8.8-42.5-47.6Z"/></g><g id="Layer_23" data-name="Layer 23"><path class="cls-9" d="M137.8,706.55a8.91,8.91,0,0,1,.9,1.7c8.7-3.6,38.5-9.1,38.5-9.1.1-6.1-17.6-73.9-17.6-73.9l-34.4,8.6-9,2.3,21.7,70.3C137.9,706.35,137.9,706.45,137.8,706.55Z"/><polygon class="cls-10" points="149.3 627.85 166.4 681.25 139.7 691.85 125.2 633.85 149.3 627.85"/></g><g id="Layer_25" data-name="Layer 25"><polygon class="cls-11" points="-10.9 636.45 -23.6 758.75 111.1 761.25 119.4 635.45 -10.9 636.45"/><g id="Layer_26" data-name="Layer 26"><polygon class="cls-12" points="2.1 638.15 2.1 733.15 96.9 734.95 108.2 636.05 2.1 638.15"/></g></g><path class="cls-13" d="M-79.94,598.65s189.9,40,267.9-10v25.1s-110.9,58.9-269.46,7.4h0l1.6-22.5"/><path class="cls-14" d="M13.7,611.55l84.8,1.1s-7.1,51.1-39.1,50.6C59.5,663.25,23,670.55,13.7,611.55Z"/></g><g id="แขนขวา"><path class="cls-15" d="M213.6,535.55s73.3,40.1,85.9,57.9c0,0-19.2,75.2-67.1,78.8,0,0-55.8-17.6-30.7-62.7,0,0,21.9-21.9,40.1-10.4l15,15.5s-36.4-44.1-61.6-48.3Z"/><path class="cls-4" d="M208.8,532.75s75.9,41.5,88.9,59.9c0,0-19.9,77.8-69.4,81.5,0,0-57.7-18.2-31.8-64.9,0,0,22.7-22.7,41.5-10.8l15.6,16s-37.6-45.6-63.8-49.9Z"/><g id="เงา-2"><path class="cls-5" d="M206.2,538.35s94.6,66.6,59.5,86.8c0,0-46.1,38.5-72.7-8.5,0,0-23.4,38.2,39.4,55.4,0,0,44.6.1,67.1-78.8,0,0-28.2-30.7-90.6-60.6Z"/></g><g id="Layer_33" data-name="Layer 33"><path class="cls-16" d="M219.2,580.45s4.1-24.1,24.5-27.5l18,11.3s-25.7,16.1-24.8,33.4Z"/></g></g><g id="ครีม"><path class="cls-17" d="M26.7,108.05,85.5,3.35s7.56,86.9,47.8,121.5l-36.7,53.5H30.9Z"/><path class="cls-18" d="M-85.2,348.75s190.5,73.5,302-5.6c0,0,54.6-108.1-23.4-185,0,0-46.6-52.4-59.5-96.9l-17.4,31.2-34.7,62.4L38.5,46.75s-32,54.6-68.9,72.4C-30.5,119.25-138.7,182.75-85.2,348.75Z"/><g id="Layer_12" data-name="Layer 12"><path class="cls-17" d="M-82.94,181.05s11.3-14.6,15,0c0,0-2.1,28.8,4.6,30.1,0,0,8.8-2.1,22.6-25.5,0,0,10.9-3.8,5.9,9.2,0,0-20.3,61,1.3,92.3,0,0,20-76.9,49.7-96.5,0,0,3.3-2.5,3.3,1.3,0,0-.8,21.3,7.1,23.8,0,0,10.4,4.2,23-25.9,0,0,16.3-3.3,31.3,28.4s20.9-28.8,20.9-28.8,23.8,27.2,20.1,46c0,0,6.7,2.1,10-6.7,0,0,9.6-13.4,12.5-35.1,0,0,14.2-13.8,25.5,45.5,0,0,6.3,25.9,0,35.5,0,0,21.7,5.9,8.8-88.2,0,0,4.2-5.9,8.4-.4,0,0,6.3,18.8,13,19.6,0,0,6.7,2.5,4.2-12.1,0,0,16.7,1.6,19.8,9.4,0,0-15.5-33.1-43.5-60.3,0,0-47.2-67.8-47.7-83.2l-18.4,36.6s-30-82.2-26.7-95.5-38.6,73-38.6,73l-10.7-26.7S7.6,96.25-30.4,119.25C-30.6,119.25-63.2,136.75-82.94,181.05Z"/></g></g><g id="หู"><path class="cls-19" d="M204.8,414s45.3-36.1,57.7-34.4c0,0-1.1,14.1-3.9,17.2,0,0-47.7,91.1-46.6,105.7,0,0,7.6,9.7,10.5,9.9l-38,60.6,20.3-159"/></g><g id="หน้า"><path class="cls-4" d="M208.4,411.85c-102.8,60.8-276,8.9-287.6,5.3a5.73,5.73,0,0,1,.1,1.8,13.45,13.45,0,0,1,.2,1.9h0c18,70.4-1,176.3-1,176.3,192.2,54.1,268.6-6,268.6-6C183.5,563.75,208.4,411.85,208.4,411.85Z"/><path class="cls-20" d="M-31.8,465.15s15.9-26.4,45.6-14.1c0,0,39.3,38.3,57.2,39.5"/><g id="Layer_45" data-name="Layer 45"><path class="cls-20" d="M116.2,477.25s29.1-39,49.6-32.1c0,0,18.8,6.6,27.2,31.1"/></g><g id="Layer_3" data-name="Layer 3"><path class="cls-21" d="M200.2,468.25s-34-40.9-39.6-39.4c0,0-35,16.9-41,39.4,0,0,16.3,8.1,9.5,13.5,0,0-44.7,27.8-91.1,0,0,0,18.9-23.3-7.7-40.4,0,0-61.7-14-102.2,23.5l-7.8-51.4s159.9,58.4,288.9-5.3Z"/><path class="cls-21" d="M87.06,488.85c4.6-3.2,9.8-6.5,12.5-11.6s3.2-11.7,3.8-17.2c.8-7.1.5-9.3-7-9.3-7.1,0-14,1.9-21.1,2.1-15.2.5-29.5-6.9-43.9-10.7a90,90,0,0,0-10.4-2c9.5,7,19.6,16.8,22.6,28,0,0-16.3,8.1-9.5,13.5A96.74,96.74,0,0,0,83.66,494,9.12,9.12,0,0,1,87.06,488.85Z"/></g><g id="ตา"><ellipse class="cls-20" cx="2.1" cy="509.65" rx="25.7" ry="48.5"/><ellipse cx="10.7" cy="509.65" rx="17.2" ry="32.3"/><ellipse class="cls-22" cx="0.8" cy="509.65" rx="7.3" ry="13.7"/><ellipse class="cls-20" cx="158.2" cy="508.15" rx="23.2" ry="47"/><ellipse cx="152.8" cy="508.15" rx="15.5" ry="37.5"/><ellipse class="cls-22" cx="159.6" cy="505.45" rx="6.8" ry="15.3"/></g><g id="ปาก"><g id="Layer_6" data-name="Layer 6"><path class="cls-23" d="M132.06,569.65a9.5,9.5,0,0,1-1-1.2,6.62,6.62,0,0,1-2.9-2.3,34,34,0,0,1-11.5,5.5,8.31,8.31,0,0,1-3.1.2c-3.7,1.2-7.4,1.9-11.1,3.2a8.19,8.19,0,0,1-3.4.4c-30.1,7.9-62.2.2-62.2.2l-7.6,9.7h0a9.07,9.07,0,0,1,1.4,1.3,7.68,7.68,0,0,1,3.8,1.4c1.1.7,2.2,1.4,3.3,2a7.74,7.74,0,0,1,5.3,2.1c3.8.7,7.6,2.3,11.3,3.5a109.29,109.29,0,0,0,15.1,3.1c11.6,1.8,22.3.8,33.7-2.1a6.69,6.69,0,0,1,2.4-.2,7.74,7.74,0,0,1,3.1-1.3c8.7-5,17.4-12.5,25.7-23.6a.42.42,0,0,0-.2-.1A18.11,18.11,0,0,1,132.06,569.65Z"/></g><g id="Layer_7" data-name="Layer 7"><path class="cls-20" d="M36.6,575.55s60.6,10.9,90.9-9.3l6,6.1s-26.1,52-104.9,12.4Z"/></g><g id="Layer_40" data-name="Layer 40"><path class="cls-24" d="M43.4,577.05l6.5,13.3,5.9-5.6s33.1,5.1,61.1-6.5l3.2,4.6s4.4-11.6,2.5-13.5C122.6,569.25,103.3,585.75,43.4,577.05Z"/></g><path class="cls-20" d="M152.8,566.55c-11.2,13.9-25.4-.2-25.4-.2-27.3,18.4-89.9,9.2-89.9,9.2s-17.3,26.6-35.44,3.6"/></g><g id="Layer_8" data-name="Layer 8"><path class="cls-25" d="M188,576.65s-20.1,31-21.6-6.9c0,0,4.5-12.7,10.8,0,0,0-1.2,5.5-5,5"/></g></g><g id="มงกุฎ"><path class="cls-26" d="M215.6,340.85c-100.3,81.1-298,7.7-298,7.7l-2.5-8.1a34.07,34.07,0,0,0-4.7,3.1c-.5.7-1,1.5-1.4,2.2a2,2,0,0,0-.3.7c-.4.9-.7,1.8-1.1,2.7l-1.7,52v2.6c0,.1.1.7.1,1a4.76,4.76,0,0,0,.3.9c0,.1,0,.1.1.2s.1.2.2.3a4.82,4.82,0,0,0,.8,1l.9.9c.9.8,1.8,1.5,2.7,2.2l.4.4c211.8,81.8,310.5-8.1,310.5-8.1l1.9-56.8C222.06,338.35,215.6,340.85,215.6,340.85Z"/><g id="Layer_15" data-name="Layer 15"><path class="cls-27" d="M88,340.35l49.5,67.7-16.3,33.8s-34.14,6.4-77.7,1.8l-15-34.6Z"/></g><g id="Layer_36" data-name="Layer 36"><g id="Layer_37" data-name="Layer 37"><path class="cls-28" d="M8.06,372.15s-12.1,7.5-12.4,22v42"/></g><g id="Layer_38" data-name="Layer 38"><path class="cls-28" d="M165.8,367.25a55.33,55.33,0,0,0,4.6,5.2c5,18.4,0,38.4,2.4,57"/><path class="cls-29" d="M89,365l-14.2,31.2a19.36,19.36,0,0,0,0,17.6l14.2,22,10.3-22.3s4.5-8.1,0-19.8S89,365,89,365Z"/></g><g id="Layer_39" data-name="Layer 39"><path class="cls-28" d="M202.3,350.25s6.7,2.4,6.7,6.3l-.6,54.6"/></g></g></g></g></g></svg>