<svg id="Layer_1" data-name="Layer 1" xmlns="http://www.w3.org/2000/svg" xmlns:xlink="http://www.w3.org/1999/xlink" viewBox="0 0 532.44 788.9"><defs><style>.cls-1,.cls-21,.cls-26,.cls-29{fill:none;}.cls-2{clip-path:url(#clip-path);}.cls-3{clip-path:url(#clip-path-2);}.cls-4{fill:#f7fcfe;}.cls-31,.cls-5{fill:#c6c6c5;}.cls-5{opacity:0.17;isolation:isolate;}.cls-6{fill:#c93334;}.cls-7{opacity:0.3;}.cls-8{fill:#7c323b;}.cls-9{fill:#eac361;}.cls-10{fill:#f6e3ad;}.cls-11{fill:#f7be61;}.cls-12{fill:#f6e1aa;}.cls-13{fill:#503027;}.cls-14{fill:#d89428;}.cls-15{fill:#a3a3a3;}.cls-16{fill:url(#linear-gradient);}.cls-17{fill:#efebd5;}.cls-18{fill:#fff8eb;}.cls-19{fill:url(#linear-gradient-2);}.cls-20{fill:url(#linear-gradient-3);}.cls-21{stroke:#000;}.cls-21,.cls-26,.cls-29{stroke-miterlimit:10;}.cls-22{fill:#dbdddd;}.cls-23{fill:#fff;}.cls-24{fill:#cb5a5a;}.cls-25{fill:#feefed;}.cls-26{stroke:#b9afad;}.cls-27{fill:url(#linear-gradient-4);}.cls-28{fill:#f9a13a;}.cls-29{stroke:#f9a13a;}.cls-30{fill:#f47622;}.cls-32{fill:url(#linear-gradient-5);}.cls-33{fill:#c5c8c9;}</style><clipPath id="clip-path" transform="translate(196.06 -54.91)"><polygon class="cls-1" points="0 54.91 0.04 788.9 336.38 788.9 336.38 54.91 0 54.91"/></clipPath><clipPath id="clip-path-2" transform="translate(196.06 -54.91)"><polygon class="cls-1" points="0.04 31.4 -1.26 873.3 361.74 873.3 361.74 31.4 0.04 31.4"/></clipPath><linearGradient id="linear-gradient" x1="22.34" y1="604.56" x2="64.84" y2="604.56" gradientTransform="translate(194.8 26.49)" gradientUnits="userSpaceOnUse"><stop offset="0.14" stop-color="#ffce41"/><stop offset="0.64" stop-color="#faaf43"/><stop offset="1" stop-color="#f8993a"/></linearGradient><linearGradient id="linear-gradient-2" x1="-12.36" y1="505.48" x2="65.64" y2="505.48" xlink:href="#linear-gradient"/><linearGradient id="linear-gradient-3" x1="-353.66" y1="515.36" x2="-265.09" y2="515.36" xlink:href="#linear-gradient"/><linearGradient id="linear-gradient-4" x1="-132.01" y1="474.4" x2="-132.01" y2="369.83" xlink:href="#linear-gradient"/><linearGradient id="linear-gradient-5" x1="-370.46" y1="604.46" x2="-341.21" y2="604.46" xlink:href="#linear-gradient"/></defs><title>Mongkey</title><g class="cls-2"><g class="cls-3"><g id="Layer_27" data-name="Layer 27"><path class="cls-4" d="M-53.36,835.3c.1-.3.2-.5.3-.8-1.1-7.5,8.3-45.9,8.3-45.9l-45.5-3.7-11.9,26.6c-12.8-.8-33.6,15.5-33.6,15.5,30.3,20.8,74.1,11.1,82.2,9.1A3.09,3.09,0,0,1-53.36,835.3Z" transform="translate(196.06 -54.91)"/><g id="Layer_28" data-name="Layer 28"><path class="cls-4" d="M201.74,835.4c-4.2-15-29-22.9-29-22.9l-2.6-34.5c-5.8,2.5-44.9,8.6-44.9,8.6l-2.1,50.4,1.8.3c.4.1.8.1,1.2.2,4.2.8,8.2,1.5,11.9,2.2a.6.6,0,0,1,.4.1,2.82,2.82,0,0,0,.8.1c.3,0,.5.1.8.1h.2a50.31,50.31,0,0,1,5.6.9C204.74,849.8,201.74,835.4,201.74,835.4Z" transform="translate(196.06 -54.91)"/></g></g><g id="เงา"><path class="cls-5" d="M150.74,828.1c-13-2.9-11.7-42.6-11.7-42.6l-13.8,1.2-2.1,50.4a.76.76,0,0,0,.4.2h.2a9.48,9.48,0,0,1,3.5.7,6.53,6.53,0,0,1,2.9.6c.2,0,.3.1.5.1h.3a7.94,7.94,0,0,1,3.2.6,1.27,1.27,0,0,1,.6.1c-.6-.1-.4-.1.7,0s2.1.3,3.1.4,1.2.2.5.2c.4,0,.9.1,1.3.1a43.41,43.41,0,0,1,8,1.5h.1a41.84,41.84,0,0,1,9.4,1.4c10.9.7,20,.7,20,.7C180.44,840.9,150.74,828.1,150.74,828.1Z" transform="translate(196.06 -54.91)"/><path class="cls-5" d="M-97.86,840c14.6-.1,31.1.7,45.1-3.8a10.62,10.62,0,0,1-.4-1.9,50.68,50.68,0,0,1,2.1-19.7c1.8-6.1,2.3-12.7,4.7-18.6l.3-.6,1.4-8.4-14.9-4.5s-7.6,43.4-22.6,43.5c0,0-35.7,7-33.6,10.9,0,0,7.5,1.5,17.4,3.1A.45.45,0,0,0-97.86,840Z" transform="translate(196.06 -54.91)"/></g><g id="หาง"><path class="cls-4" d="M312,681.3c-36.9,44.6-63.2,34.8-63.2,34.8-23.6,24-57.9-25.4-57.9-25.4l3,33.2c.6.8,1.2,1.7,2,2.7,10.1,14.3,53,27.6,53,27.6,52.4,5.5,85-46.3,85-46.3C345.54,676.2,312,681.3,312,681.3Z" transform="translate(196.06 -54.91)"/></g><g id="ชุด"><g id="Layer_20" data-name="Layer 20"><g id="Layer_21" data-name="Layer 21"><path class="cls-6" d="M-83.46,675.5s168,50.4,269.5-7.4c0,0,21.4,87.1,4.9,97.4,0,0-18.1,22-79.7,21.5H-25.66s-98.3,14.2-89.6-34.3c0-.1,12.3-64.2,31.8-77.2h0" transform="translate(196.06 -54.91)"/></g></g><g id="Layer_43" data-name="Layer 43" class="cls-7"><path class="cls-8" d="M-106.76,719.3s91.3,93.5,297.7,46.2c0,0-15.6,21.7-79.7,21.5l-181.5,1.9s-58.8.8-42.5-47.6Z" transform="translate(196.06 -54.91)"/></g><g id="Layer_22" data-name="Layer 22"><polygon class="cls-9" points="137.1 628.69 106.4 706.69 150.5 717.19 181 636.89 137.1 628.69"/><polygon class="cls-10" points="143.7 629.89 120.4 691.09 147.4 696.09 175.4 635.89 143.7 629.89"/></g><g id="Layer_23" data-name="Layer 23"><path class="cls-9" d="M135.74,762.3a9.15,9.15,0,0,1,.9,1.7c8.7-3.6,38.5-9.1,38.5-9.1.1-6.1-17.6-73.9-17.6-73.9l-34.4,8.6-9,2.3,21.7,70.3C135.84,762.1,135.84,762.2,135.74,762.3Z" transform="translate(196.06 -54.91)"/><polygon class="cls-10" points="343.3 628.69 360.4 682.09 333.7 692.69 319.2 634.69 343.3 628.69"/></g><g id="Layer_25" data-name="Layer 25"><polygon class="cls-11" points="183.1 637.29 170.4 759.59 305.1 762.09 313.4 636.29 183.1 637.29"/><g id="Layer_26" data-name="Layer 26"><polygon class="cls-12" points="196.1 638.99 196.1 733.99 290.9 735.79 302.2 636.89 196.1 638.99"/></g></g><path class="cls-13" d="M-82,654.4s189.9,40,267.9-10v25.1S75,728.4-83.56,676.9h0l1.6-22.5" transform="translate(196.06 -54.91)"/><path class="cls-14" d="M11.64,667.3l84.8,1.1s-7.1,51.1-39.1,50.6C57.44,719,20.94,726.3,11.64,667.3Z" transform="translate(196.06 -54.91)"/></g><g id="แขนขวา"><path class="cls-15" d="M211.54,591.3s73.3,40.1,85.9,57.9c0,0-19.2,75.2-67.1,78.8,0,0-55.8-17.6-30.7-62.7,0,0,21.9-21.9,40.1-10.4l15,15.5s-36.4-44.1-61.6-48.3Z" transform="translate(196.06 -54.91)"/><path class="cls-4" d="M206.74,588.5s75.9,41.5,88.9,59.9c0,0-19.9,77.8-69.4,81.5,0,0-57.7-18.2-31.8-64.9,0,0,22.7-22.7,41.5-10.8l15.6,16s-37.6-45.6-63.8-49.9Z" transform="translate(196.06 -54.91)"/><g id="เงา-2"><path class="cls-5" d="M204.14,594.1s94.6,66.6,59.5,86.8c0,0-46.1,38.5-72.7-8.5,0,0-23.4,38.2,39.4,55.4,0,0,44.6.1,67.1-78.8,0,0-28.2-30.7-90.6-60.6Z" transform="translate(196.06 -54.91)"/></g><g id="Layer_33" data-name="Layer 33"><path class="cls-16" d="M217.14,636.2s4.1-24.1,24.5-27.5l18,11.3s-25.7,16.1-24.8,33.4Z" transform="translate(196.06 -54.91)"/></g></g><g id="ครีม"><path class="cls-17" d="M24.64,163.8,83.44,59.1S91,146,131.24,180.6l-36.7,53.5H28.84Z" transform="translate(196.06 -54.91)"/><path class="cls-18" d="M-87.26,404.5s190.5,73.5,302-5.6c0,0,54.6-108.1-23.4-185,0,0-46.6-52.4-59.5-96.9l-17.4,31.2-34.7,62.4L36.44,102.5s-32,54.6-68.9,72.4C-32.56,175-140.76,238.5-87.26,404.5Z" transform="translate(196.06 -54.91)"/><g id="Layer_12" data-name="Layer 12"><path class="cls-17" d="M-85,236.8s11.3-14.6,15,0c0,0-2.1,28.8,4.6,30.1,0,0,8.8-2.1,22.6-25.5,0,0,10.9-3.8,5.9,9.2,0,0-20.3,61,1.3,92.3,0,0,20-76.9,49.7-96.5,0,0,3.3-2.5,3.3,1.3,0,0-.8,21.3,7.1,23.8,0,0,10.4,4.2,23-25.9,0,0,16.3-3.3,31.3,28.4s20.9-28.8,20.9-28.8,23.8,27.2,20.1,46c0,0,6.7,2.1,10-6.7,0,0,9.6-13.4,12.5-35.1,0,0,14.2-13.8,25.5,45.5,0,0,6.3,25.9,0,35.5,0,0,21.7,5.9,8.8-88.2,0,0,4.2-5.9,8.4-.4,0,0,6.3,18.8,13,19.6,0,0,6.7,2.5,4.2-12.1,0,0,16.7,1.6,19.8,9.4,0,0-15.5-33.1-43.5-60.3,0,0-47.2-67.8-47.7-83.2l-18.4,36.6s-30-82.2-26.7-95.5-38.6,73-38.6,73l-10.7-26.7S5.54,152-32.46,175C-32.66,175-65.26,192.5-85,236.8Z" transform="translate(196.06 -54.91)"/></g></g><g id="หู"><path class="cls-19" d="M202.74,469.7s45.3-36.1,57.7-34.4c0,0-1.1,14.1-3.9,17.2,0,0-47.7,91.1-46.6,105.7,0,0,7.6,9.7,10.5,9.9l-38,60.6,20.3-159" transform="translate(196.06 -54.91)"/><g id="Layer_18" data-name="Layer 18"><path class="cls-20" d="M-81,468.9s-62.7-36.1-77.9-35.6c0,0,58.4,84.8,48.3,96.3l-9.3,16.9s27.3,83.8,24.5,102.8l14.5,1.1c-.1,0,23.9-133.6-.1-181.5" transform="translate(196.06 -54.91)"/></g></g><g id="หน้า"><path class="cls-4" d="M206.34,467.6c-102.8,60.8-276,8.9-287.6,5.3a5.46,5.46,0,0,1,.1,1.8,12.25,12.25,0,0,1,.2,1.9h0c18,70.4-1,176.3-1,176.3,192.2,54.1,268.6-6,268.6-6C181.44,619.5,206.34,467.6,206.34,467.6Z" transform="translate(196.06 -54.91)"/><path class="cls-21" d="M-33.86,520.9s15.9-26.4,45.6-14.1c0,0,39.3,38.3,57.2,39.5" transform="translate(196.06 -54.91)"/><g id="Layer_45" data-name="Layer 45"><path class="cls-21" d="M114.14,533s29.1-39,49.6-32.1c0,0,18.8,6.6,27.2,31.1" transform="translate(196.06 -54.91)"/></g><g id="Layer_3" data-name="Layer 3"><path class="cls-22" d="M198.14,524s-34-40.9-39.6-39.4c0,0-35,16.9-41,39.4,0,0,16.3,8.1,9.5,13.5,0,0-44.7,27.8-91.1,0,0,0,18.9-23.3-7.7-40.4,0,0-61.7-14-102.2,23.5l-7.8-51.4s159.9,58.4,288.9-5.3Z" transform="translate(196.06 -54.91)"/><path class="cls-22" d="M85,544.6c4.6-3.2,9.8-6.5,12.5-11.6s3.2-11.7,3.8-17.2c.8-7.1.5-9.3-7-9.3-7.1,0-14,1.9-21.1,2.1-15.2.5-29.5-6.9-43.9-10.7a90.89,90.89,0,0,0-10.4-2c9.5,7,19.6,16.8,22.6,28,0,0-16.3,8.1-9.5,13.5a96.71,96.71,0,0,0,49.6,12.3A9.11,9.11,0,0,1,85,544.6Z" transform="translate(196.06 -54.91)"/></g><g id="ตา"><ellipse class="cls-21" cx="196.1" cy="510.49" rx="25.7" ry="48.5"/><ellipse cx="204.7" cy="510.49" rx="17.2" ry="32.3"/><ellipse class="cls-23" cx="194.8" cy="510.49" rx="7.3" ry="13.7"/><ellipse class="cls-21" cx="352.2" cy="508.99" rx="23.2" ry="47"/><ellipse cx="346.8" cy="508.99" rx="15.5" ry="37.5"/><ellipse class="cls-23" cx="353.6" cy="506.29" rx="6.8" ry="15.3"/></g><g id="ปาก"><g id="Layer_6" data-name="Layer 6"><path class="cls-24" d="M130,625.4a10.59,10.59,0,0,1-1-1.2,6.63,6.63,0,0,1-2.9-2.3,33.9,33.9,0,0,1-11.5,5.5,8.26,8.26,0,0,1-3.1.2c-3.7,1.2-7.4,1.9-11.1,3.2a8.14,8.14,0,0,1-3.4.4c-30.1,7.9-62.2.2-62.2.2l-7.6,9.7h0a8.64,8.64,0,0,1,1.4,1.3,7.73,7.73,0,0,1,3.8,1.4c1.1.7,2.2,1.4,3.3,2a7.74,7.74,0,0,1,5.3,2.1c3.8.7,7.6,2.3,11.3,3.5a109.25,109.25,0,0,0,15.1,3.1c11.6,1.8,22.3.8,33.7-2.1a6.52,6.52,0,0,1,2.4-.2,7.85,7.85,0,0,1,3.1-1.3c8.7-5,17.4-12.5,25.7-23.6a.35.35,0,0,0-.2-.1A18.12,18.12,0,0,1,130,625.4Z" transform="translate(196.06 -54.91)"/></g><g id="Layer_7" data-name="Layer 7"><path class="cls-21" d="M34.54,631.3s60.6,10.9,90.9-9.3l6,6.1s-26.1,52-104.9,12.4Z" transform="translate(196.06 -54.91)"/></g><g id="Layer_40" data-name="Layer 40"><path class="cls-25" d="M41.34,632.8l6.5,13.3,5.9-5.6s33.1,5.1,61.1-6.5l3.2,4.6s4.4-11.6,2.5-13.5C120.54,625,101.24,641.5,41.34,632.8Z" transform="translate(196.06 -54.91)"/></g><path class="cls-21" d="M150.74,622.3c-11.2,13.9-25.4-.2-25.4-.2-27.3,18.4-89.9,9.2-89.9,9.2S18.14,657.9,0,634.9" transform="translate(196.06 -54.91)"/></g><g id="Layer_8" data-name="Layer 8"><path class="cls-26" d="M185.94,632.4s-20.1,31-21.6-6.9c0,0,4.5-12.7,10.8,0,0,0-1.2,5.5-5,5" transform="translate(196.06 -54.91)"/></g><g id="Layer_9" data-name="Layer 9"><path class="cls-26" d="M-54.66,644.4s22.3,23.2,36.9,1.5c0,0,4.7-33.7-15.2-29.6,0,0-15.9,18.8,1.1,26.3,0,0,10.4-.8,4.1-12.7" transform="translate(196.06 -54.91)"/></g></g><g id="มงกุฎ"><path class="cls-27" d="M213.54,396.6c-100.3,81.1-298,7.7-298,7.7l-2.5-8.1a34.64,34.64,0,0,0-4.7,3.1c-.5.7-1,1.5-1.4,2.2a2.12,2.12,0,0,0-.3.7c-.4.9-.7,1.8-1.1,2.7l-1.7,52v2.6c0,.1.1.7.1,1a4.65,4.65,0,0,0,.3.9c0,.1,0,.1.1.2s.1.2.2.3a4.87,4.87,0,0,0,.8,1l.9.9c.9.8,1.8,1.5,2.7,2.2l.4.4c211.8,81.8,310.5-8.1,310.5-8.1l1.9-56.8C220,394.1,213.54,396.6,213.54,396.6Z" transform="translate(196.06 -54.91)"/><g id="Layer_15" data-name="Layer 15"><path class="cls-28" d="M85.94,396.1l49.5,67.7-16.3,33.8S85,504,41.44,499.4l-15-34.6Z" transform="translate(196.06 -54.91)"/></g><g id="Layer_36" data-name="Layer 36"><path class="cls-29" d="M-49.76,415.2c-15.9,14.6-5.9,43-9.3,62.4" transform="translate(196.06 -54.91)"/><g id="Layer_37" data-name="Layer 37"><path class="cls-29" d="M6,427.9s-12.1,7.5-12.4,22v42" transform="translate(196.06 -54.91)"/></g><g id="Layer_38" data-name="Layer 38"><path class="cls-29" d="M163.74,423a55.27,55.27,0,0,0,4.6,5.2c5,18.4,0,38.4,2.4,57" transform="translate(196.06 -54.91)"/><path class="cls-30" d="M86.94,420.7l-14.2,31.2a19.37,19.37,0,0,0,0,17.6l14.2,22,10.3-22.3s4.5-8.1,0-19.8S86.94,420.7,86.94,420.7Z" transform="translate(196.06 -54.91)"/></g><g id="Layer_39" data-name="Layer 39"><path class="cls-29" d="M200.24,406s6.7,2.4,6.7,6.3l-.6,54.6" transform="translate(196.06 -54.91)"/></g></g></g><g id="แขนซ้าย"><path class="cls-31" d="M-62.16,676.9h-29.3a16.73,16.73,0,0,1-16.7-16.7V603a16.73,16.73,0,0,1,16.7-16.7h29.3A16.73,16.73,0,0,1-45.46,603v57.2A16.86,16.86,0,0,1-62.16,676.9Z" transform="translate(196.06 -54.91)"/><path class="cls-4" d="M-111.36,576.1s-69.4,52.7-82.7,92.8l-2,18.1s24.3,33.4,112.6-10.1Z" transform="translate(196.06 -54.91)"/><path class="cls-4" d="M-65.36,676.9h-29.3a16.73,16.73,0,0,1-16.7-16.7V603a16.73,16.73,0,0,1,16.7-16.7h29.3A16.73,16.73,0,0,1-48.66,603v57.2A16.73,16.73,0,0,1-65.36,676.9Z" transform="translate(196.06 -54.91)"/><ellipse class="cls-31" cx="94.5" cy="551.69" rx="15.5" ry="21.2"/><ellipse class="cls-4" cx="93.8" cy="550.79" rx="15.5" ry="21.2"/><g id="Layer_34" data-name="Layer 34"><path class="cls-32" d="M-155.46,615l9,10.1s-17.2,14.1-19.4,21.8h0l-9.8-9.3C-175.66,637.7-164.26,623-155.46,615Z" transform="translate(196.06 -54.91)"/></g><g id="Layer_31" data-name="Layer 31"><path class="cls-33" d="M-117.86,602.9s-44.2,31.2-48.1,44.6c0,0,37-37.4,48.3-39.4Z" transform="translate(196.06 -54.91)"/></g><path class="cls-5" d="M-117,612.1s16.9,12.3,29.5,0c0,0-4.7,15.7-14.8,14.8C-102.26,626.9-114.86,626.1-117,612.1Z" transform="translate(196.06 -54.91)"/><g id="Layer_46" data-name="Layer 46"><path class="cls-5" d="M-111.36,638.8s31.1,40.7,62.6-1.1c0,0,6.7,40.3-31.3,39.3C-80.06,676.9-116.06,680.6-111.36,638.8Z" transform="translate(196.06 -54.91)"/></g></g></g></g></svg>