<?xml version="1.0" encoding="utf-8"?>
<!-- Generator: Adobe Illustrator 21.1.0, SVG Export Plug-In . SVG Version: 6.00 Build 0)  -->
<svg version="1.1" id="Layer_1" xmlns="http://www.w3.org/2000/svg" xmlns:xlink="http://www.w3.org/1999/xlink" x="0px" y="0px"
	 viewBox="0 0 1366 768" style="enable-background:new 0 0 1366 768;" xml:space="preserve">
<style type="text/css">
	.st0{fill:#878681;}
	.st1{fill:#AAA69C;}
	.st2{display:none;}
	.st3{display:inline;fill-rule:evenodd;clip-rule:evenodd;fill:#AAA69C;}
	.st4{display:inline;fill-rule:evenodd;clip-rule:evenodd;fill:#878681;}
</style>
<g id="mountain">
	<g>
		<g>
			<g>
				<path class="st0" d="M-273.1-74.9c0,0,24.3,23.5,24.3,30.7c0,7.2,21.3,33.8,25.1,31.7c3.8-2,16.3-18.2,21.3,0.1
					c5,18.3,5,18.3,5,18.3v16.4l7.5,21.5v12.3l11.3,12.3c0,0,21.3,20.5,75.2,46l12.5,29.7v8.2l59.5,44.5v4.6l8.8,2.6l16.3,7.7
					c0,0-10.6,11.3,11.3,20.5c21.9,9.2,13.2,2.6,13.2,2.6s15,21.5,32.6,9.7c17.5-11.8,6.3-2,6.3-2l6.3-1l32.6,10.2
					c0,0,51.4,35.3,52.6,39.9c1.3,4.6,8.8,10.7,15.7,13.3c6.9,2.6,16.9,9.7,29.5,0c12.5-9.7,16.3-12.8,16.3-12.8l6.9,1l6.3-1
					l28.2,15.3l8.1-1l5.6,1l6.9,2.4h4.4l7.5,4.3l8.8,2.6c0,0,11.9,5.1,11.9,7.7c0,2.6,5.6,3.6,5.6,3.6l17.4,9.2l7.7,8.2l4.4,4.1
					c0,0,8.1-2,16.9,7.7c8.8,9.7,18.8,16.9,30.1,15.3c0,0,0.6,6.9,11.3,7.2c0,0,30.4,30.4,47.6,25.3c0,0,6.6-4.7,15.4,0.6
					c8.8,5.3,30.1,16.3,37.3,7.9c7.2-8.4,5.3-6.9,5.3-6.9s6-5.4,12.8,1.3c6.9,6.7,45.4,22.3,50.1,19.7c4.7-2.6,5.3-1.2,7.2,0.3
					c1.9,1.5,15,12,27.9,5.1c12.8-6.9,26.3-0.7,29.5,2.3c3.1,3,13.5,10.5,14.4,10.5c0.9,0,7.8,4.6,7.8,4.6l9.4,4.3l8.1,1.8l7.8,1.3
					l3.3,279l-955,13V-74.9"/>
			</g>
			<g>
				<path class="st1" d="M-258.9-48.6c0,0,24.3,52.1,38.4,41.6c14.2-10.6,13.4,13,13.4,13l8.4,41.6c0,0,5,36.1,25.1,38.9
					c20.1,2.7,44.3,27.3,44.3,27.3s22.6-1.4,25.1,32.7c2.5,34.1,6.7,58,6.7,58l11.7,18.4c0,0-15-20.8-10-27.6c5-6.8,0-32.1,0-32.1
					l38.4,29.3l7.5,8.9c0,0,0.8,2.7,5,8.2c4.2,5.5,7.5,10.9,7.5,10.9s1.3,3.1,2.9,6.8c1.7,3.7,5.8,7.8,7.1,8.9
					c1.3,1,3.8,4.8,3.8,4.8l4.2,7.2c0,0,11.7,28,16.7,31c0,0-7.5-17.1-5.8-17.7c1.7-0.7,14.2,18.1,33.8,15.7c0,0,3.3,10.2,30.9,4.8
					c0,0,5.8,1,12.5,6.1c6.7,5.1,14.6,5.8,14.6,5.8s5,3.8,5.4,7.5c0.4,3.7,19.3,43.1,41.6,47.4c0,0-37.3-31.5-30.1-37.3
					c7.2-5.9-5-19.2-7.5-19.7c-2.5-0.5-10.7-10.5-19.4-6.4c0,0-12.5-9.5-26-6.9c-13.5,2.6-20.4-3.6-19.4-4.1
					c0.9-0.5-11.9-2.8-12.8-2C14,273-8.5,258.6-11.7,247.6l-4.1-1.8c0,0-3.4-14.3-2.8-16.1c0.6-1.8,8,20,30,18c0,0,6.1-2.2,4.2,2.4
					c-1.9,4.6,5.9,2.1,7.5,3.7c1.6,1.5,1.9,2.6,2.2,4.6c0.3,2,4.9,7.5,13.1,6.7c8.1-0.8,20.1,1.2,22.3-15.9L82,253l8.8,8.2
					c0,0,0.6,20.5,10,25.6l1.3-8.7c0,0,15.5,51.5,30.5,51.1c0,0-19.6-29.3-15.5-32.1c4.2-2.7,17.1,31.7,29.7,31.4
					c12.5-0.3,18.4,9.2,25.5-7.5c0,0-0.8-4.4,6.3-1.7c7.1,2.7,29.7-12.3,29.7-12.3s7.9-4.9,11.1,1.2c3.1,6.1,23.2,61.4,32,60.4
					c0,0-13.2-19.4-8.1-22.5c5-3.1,8.1,4.1,8.1,4.1s16.9,48.6,25.7,52.2c0,0,15.7,30.7,20.7,30.7c5,0,35.7,26.6,35.7,26.6
					s10.7,9.2,23.8,10.2c13.2,1,26.3,12.3,27.6,14.3c1.3,2,17.5,25.6,18.2,28.6c0.6,3.1,6.3,14.8,6.3,14.8l114.7,72.6l10.7,10.2
					l147.5,30.4l7.5-166.4v-13.8c0,0-40.3,3.1-62.9-23.5c0,0-14.4-9.7-32.6,1.5c-18.2,11.2-25.7-7.2-25.7-7.2s-6.9-3.6-10,0.5
					c-3.1,4.1-46.4-21-46.4-21s-2.5-3.6-6.3,0c-3.8,3.6-10,17.9-42-1c0,0-5.6-6.1-25.1,0c-19.4,6.1-43.9-28.6-43.9-28.6
					s-8.1-3.1-10.7-5.1c-2.5-2-26.9-5.1-33.8-17.9c-6.9-12.8-10.7-3.1-10.7-3.1s-11.9-16.9-34.5-25.6c0,0-32.2-25.1-48-16.5
					l-32.2-13.3c0,0-11.3-8.9-18.8,2c-7.5,10.9-21.3,15.7-31.7,14.3c-10.4-1.4-7.9,4.8-7.9,4.8s0.4,11.6-9.2,3.7
					c-9.6-7.8-6.3-15.7-10-16.7c0,0-4.6-10.6-6.3-10.6c-1.7,0-0.8-7.5-0.8-7.5s-17.1-16.7-22.6-15.7c-5.4,1-19.2-22.5-27.6-18.8
					l-4.6-4.4L59.9,245c0,0-4.6-1.4-3.8,1c0.8,2.4,0.8,22.7-24.6,12.4c0,0,0.2-10.1-6.9-8.9c0,0-2.9-11.4-16.1-7.8
					c0,0-23-4.3-27.4-28.8c0,0-2.5-7-18.2-12.3l-25.5-17.1l-30.6-24.5c0,0-6.9-6.9-5-18.2c1.9-11.3-0.3-11.8-0.3-11.8
					s-4.1-14.8-20.7-16.6l-8.1-2c0,0-31.6-27.4-45.1-27.1c-13.5,0.3-30.9-58.9-32.8-93.7c0,0-0.3-12.5-13.4-0.5
					C-231.9,1.5-253.9-46.1-258.9-48.6z"/>
			</g>
			<g>
				<path class="st1" d="M330.5,499.2c-1.1-0.4-2.4-1-3.9-2c-5-3.2-7.4-6.7-8.8-9.7c-1.5-1.6-2.9-3.1-4.2-4.8
					c-9-7.1-16.7-15.2-22.8-24.2c-0.5-0.5-0.9-1-1.3-1.4c-4.9-3.2-9.4-6.6-13.7-10.3c-6,0.9-24-22.3-32.3-17.5l-5.6-4.3l-28.4-4
					c0,0-5.2-1-3.9,1.5c1.3,2.5,4.4,24.4-24.6,16c0,0-1.3-10.9-8.8-8.9c0,0-4.9-12-18.5-6.8c0,0-25.4-2.2-33.9-28.3
					c0,0-3.8-7.3-21.5-11.4l-30.1-15.8L31.5,344c0,0-8.5-6.7-8.2-19.1c0.3-12.4-2.2-12.7-2.2-12.7s-6.7-15.6-24.8-15.8l-9.1-1.4
					c0,0-38.3-26.3-52.8-24.6c-6.5,0.8-16.6-8.3-25.4-25.3c-1.9,0.7-3-1.7-4.9-1.1c4.8,11.5,14.7,29.1,29.5,29.7
					c22,0.9,51.9,24.9,51.9,24.9s24.1-3.8,32,32.8c8,36.6,16.2,62,16.2,62l8.4,10.2c-5.1-6.7-10.6-15.8-8.1-20.4
					c4.3-7.9-5-34.7-5-34.7L75,376.4l9.5,8.8c0,0,1.3,2.9,6.7,8.3c5.3,5.5,9.8,11,9.8,11s1.8,3.2,4.2,7.1c2.4,3.9,7.5,7.9,9,8.8
					c1.5,1,4.8,4.8,4.8,4.8l5.6,7.3c0,0,16.9,29,22.8,31.8c0,0-10.7-17.7-9-18.6c1.7-0.9,18.1,18.1,38.9,13.5c0,0,5.2,10.7,34,2
					c0,0,6.5,0.5,14.4,5.3c8,4.8,16.6,4.8,16.6,4.8s6,3.5,7,7.5c1,4,27.5,44.6,52.1,46.9c0,0-45-30.2-38.2-37.3
					c6.8-7.1-8.4-20.2-11.1-20.5c-2.8-0.3-13.1-10.2-21.9-4.9c0,0-15-8.9-29.1-4.8c-14.1,4.2-22.5-1.8-21.5-2.4
					c0.9-0.6-13.2-1.8-14.1-0.9c-0.9,0.9-27.4-12.2-32.5-23.8l-4.7-1.5c0,0-5.9-15.1-5.5-17.1c0.4-2,11.8,20.8,35,16.3
					c0,0,6.2-3,4.9,2.1c-1.3,5.2,6.7,1.7,8.7,3.2c1.9,1.5,2.4,2.6,3.1,4.7c0.7,2.2,6.4,7.6,15.1,5.9c8.6-1.7,21.9-0.8,21.6-19.5
					l23.5,1.9l10.7,7.9c0,0,3.8,22.1,14.7,26.6l0-9.5c0,0,24.6,54.1,40.7,52.2c0,0-25.7-29.7-21.6-33.1c4.1-3.4,23.3,32.5,36.8,30.9
					c6.3-0.8,11.4,0.9,15.5,1.1c-0.2-1.3-0.3-2.5-0.4-3.8C330.9,499.4,330.7,499.3,330.5,499.2z"/>
			</g>
			<g>
				<path class="st1" d="M758.4,590.5c0,0-39.1,8.6-66.9-14.5c0,0-16.2-7.6-31.8,6c-15.6,13.6-26.8-3.5-26.8-3.5s-7.5-2.6-9.8,1.9
					c-2.2,4.5-50.1-14.2-50.1-14.2s-3.2-3.2-6.2,0.9c-3,4.1-6.2,19-41.6,4.8c0,0-6.8-5.3-24.7,3.5c-17.9,8.7-49.2-22.1-49.2-22.1
					s-8.7-1.9-11.6-3.6c-2.9-1.7-27.6-1.3-37.1-12.9c-9.5-11.6-11.1-1.6-11.1-1.6s-15.2-15-39.3-20.4c0,0-36.9-20.2-50.8-9.6
					l-34.5-8.6c0,0-12.9-7.2-18.1,4.6c-5.2,11.8-17.7,18.4-28.3,18.5c-10.6,0.1-6.8,5.8-6.8,5.8s2.8,11.4-8.3,5
					c-11.1-6.4-9.4-14.6-13.4-15.1c0,0-6.7-9.8-8.4-9.5c-1.6,0.2-2.4-7.3-2.4-7.3s-20.4-14.1-25.5-12.3
					c-5.1,1.8-23.6-19.5-31.1-14.7l-5.5-3.7l-26.4-2.5c0,0-4.8-0.7-3.5,1.5c1.3,2.2,5.5,22.2-21.7,15.7c0,0-1.9-9.9-8.6-7.8
					c0,0-5.3-10.9-17.5-5.5c0,0-23.5-1-33-24.6c0,0-3.9-6.5-20.5-9.6l-28.7-13.3L-75.6,402c0,0-8.2-5.9-8.7-17.2
					c-0.5-11.3-2.8-11.5-2.8-11.5s-7.1-14.1-23.8-13.5l-8.5-0.9c0,0-36.9-22.6-50.1-20.5c-13.2,2.1-42.7-53.8-51.8-87.8
					c0,0-2.9-12.3-13.3,1.4c-10.6,13.9-42.1-30-47.6-31.7c0,0,34.8,48,46.5,35.7c11.8-12.4,15.9,10.9,15.9,10.9l16.9,39.8
					c0,0,12.5,34.9,32.8,34.8c20.3-0.1,49.3,20.7,49.3,20.7s21.9-4.5,31.5,28.8c1.4,4.9,11.7,15.3,11.7,15.3l44,23.6l9.3,7.7
					c0,0,1.4,2.6,6.6,7.4c5.2,4.8,9.7,9.7,9.7,9.7s1.9,2.9,4.3,6.3c2.4,3.5,7.4,6.9,8.8,7.8c1.4,0.8,4.7,4.2,4.7,4.2l5.6,6.5
					c0,0,17.4,25.9,22.9,28.3c0,0-11-15.8-9.5-16.7c1.5-0.9,17.8,15.8,36.6,10.8c0,0,5.4,9.6,31.5,0.4c0,0,6,0.2,13.6,4.3
					c7.7,4.1,15.6,3.7,15.6,3.7s5.7,3,6.9,6.6c1.2,3.6,28,39.7,50.8,40.9c0,0-43.3-25.8-37.4-32.6c5.9-6.8-8.9-18.2-11.5-18.4
					c-2.6-0.2-12.7-8.9-20.5-3.6c0,0-14.3-7.6-27.1-3.2c-12.7,4.4-20.8-0.7-20-1.3c0.8-0.6-12.3-1.1-13.1-0.2
					c-0.8,0.9-26-10.1-31.4-20.5l-4.4-1.2c0,0-6.4-13.6-6.1-15.5c0.2-1.9,12.1,18.6,33.3,13.6c0,0,5.5-3,4.6,1.8
					c-0.9,4.8,6.3,1.3,8.2,2.6c1.9,1.3,2.4,2.3,3.1,4.2c0.7,2,6.4,6.7,14.3,4.8c7.9-1.9,20.1-1.6,18.7-18.8l21.8,0.8l10.3,6.8
					c0,0,4.9,20.1,15.2,23.8l-0.6-8.7c0,0,26,48.6,40.7,46.2c0,0-25.5-26.2-21.9-29.5c3.6-3.3,23.5,28.9,35.8,26.8
					c12.3-2.1,20,6.5,23.5-10.9c0,0-1.7-4.2,5.8-2.5c7.6,1.7,26.7-16.2,26.7-16.2s6.8-6,11.2-0.4c4.4,5.6,35.6,57.3,44.1,55
					c0,0-17-17.3-12.7-21c4.3-3.7,8.9,2.9,8.9,2.9s26.8,45.5,36.2,47.9c0,0,21.8,28.1,26.8,27.4c4.9-0.7,40.7,21.3,40.7,21.3
					s12.4,7.6,25.6,6.8c13.2-0.8,28.5,8.4,30.2,10.3c1.7,1.8,22.6,22.8,23.9,25.7c1.3,2.9,9.3,13.8,9.3,13.8L624.2,746h51.3
					l85.7-141.9L758.4,590.5z"/>
			</g>
		</g>
	</g>
	<g>
		<g>
			<g>
				<path class="st0" d="M1647-32.2c0,0-26.6,27.2-26.6,35.5c0,8.3-23.4,39-27.5,36.7c-4.1-2.4-17.9-21-23.4,0.1
					c-5.5,21.2-5.5,21.2-5.5,21.2v18.9l-8.3,24.8v14.2l-12.4,14.2c0,0-23.4,23.7-82.5,53.2L1447,221v9.5l-65.3,51.5v5.3l-9.6,3
					l-17.9,8.9c0,0,11.7,13-12.4,23.7c-24.1,10.6-14.4,3-14.4,3s-16.5,24.8-35.8,11.2c-19.3-13.6-6.9-2.4-6.9-2.4l-6.9-1.2
					l-35.8,11.8c0,0-56.4,40.8-57.8,46.1c-1.4,5.3-9.6,12.4-17.2,15.4c-7.6,3-18.6,11.2-32.3,0c-13.8-11.2-17.9-14.8-17.9-14.8
					l-7.6,1.2l-6.9-1.2l-30.9,17.7l-8.9-1.2l-6.2,1.2l-7.6,2.8h-4.8l-8.3,4.9l-9.6,3c0,0-13.1,5.9-13.1,8.9c0,3-6.2,4.1-6.2,4.1
					l-19.1,10.6l-8.4,9.5l-4.8,4.7c0,0-8.9-2.4-18.6,8.9c-9.6,11.2-20.6,19.5-33,17.7c0,0-0.7,8-12.4,8.3c0,0-33.4,35.2-52.3,29.3
					c0,0-7.2-5.5-16.9,0.7c-9.6,6.1-33,18.8-40.9,9.1c-7.9-9.8-5.8-8-5.8-8s-6.5-6.2-14.1,1.5c-7.6,7.7-49.9,25.7-55,22.8
					c-5.2-3-5.8-1.4-7.9,0.3c-2.1,1.7-16.5,13.9-30.6,5.9c-14.1-8-28.9-0.8-32.3,2.7c-3.4,3.5-14.8,12.1-15.8,12.1
					c-1,0-8.6,5.3-8.6,5.3l-10.3,5l-8.9,2.1l-19.5,3.5l7.2,160.8H1647V-32.2"/>
			</g>
			<g>
				<path class="st1" d="M1631.4-1.8c0,0-26.7,60.3-42.2,48.1c-15.6-12.2-14.7,15-14.7,15l-9.2,48.1c0,0-5.5,41.8-27.5,44.9
					c-22,3.2-48.6,31.5-48.6,31.5s-24.8-1.6-27.5,37.9c-2.8,39.4-7.3,67-7.3,67l-12.8,21.3c0,0,16.5-24.1,11-31.9
					c-5.5-7.9,0-37.1,0-37.1l-42.2,33.9l-8.3,10.2c0,0-0.9,3.2-5.5,9.5c-4.6,6.3-8.3,12.6-8.3,12.6s-1.4,3.5-3.2,7.9
					c-1.8,4.3-6.4,9.1-7.8,10.2c-1.4,1.2-4.1,5.5-4.1,5.5l-4.6,8.3c0,0-12.8,32.3-18.3,35.9c0,0,8.3-19.7,6.4-20.5
					c-1.8-0.8-15.6,20.9-37.1,18.1c0,0-3.7,11.8-33.9,5.5c0,0-6.4,1.2-13.8,7.1c-7.3,5.9-16,6.7-16,6.7s-5.5,4.3-6,8.7
					c-0.5,4.3-21.2,49.8-45.6,54.8c0,0,40.9-36.4,33-43.2c-7.9-6.8,5.5-22.2,8.3-22.8c2.8-0.6,11.7-12.1,21.3-7.4
					c0,0,13.8-10.9,28.5-8c14.8,3,22.4-4.1,21.3-4.7c-1-0.6,13.1-3.3,14.1-2.4c1,0.9,25.8-15.7,29.2-28.4l4.5-2.1
					c0,0,3.8-16.6,3.1-18.6c-0.7-2.1-8.8,23.2-32.9,20.8c0,0-6.7-2.6-4.6,2.8c2.1,5.3-6.5,2.5-8.3,4.2c-1.7,1.8-2.1,3-2.4,5.3
					c-0.3,2.4-5.4,8.7-14.3,7.8c-8.9-0.9-22.1,1.4-24.5-18.4l-23.4,4.4l-9.6,9.5c0,0-0.7,23.7-11,29.6l-1.4-10.1
					c0,0-17,59.5-33.5,59.1c0,0,21.6-33.9,17-37.1c-4.6-3.2-18.8,36.7-32.6,36.3c-13.8-0.4-20.2,10.6-28-8.7c0,0,0.9-5.1-6.9-2
					c-7.8,3.2-32.6-14.2-32.6-14.2s-8.7-5.7-12.1,1.4c-3.4,7.1-25.5,71-35.1,69.8c0,0,14.4-22.5,8.9-26c-5.5-3.5-8.9,4.7-8.9,4.7
					s-18.6,56.2-28.2,60.3c0,0-17.2,35.5-22.7,35.5c-5.5,0-39.2,30.8-39.2,30.8s-11.7,10.6-26.1,11.8c-14.4,1.2-28.9,14.2-30.3,16.6
					c-1.4,2.4-19.3,29.6-19.9,33.1c-0.7,3.6-6.9,17.2-6.9,17.2l-145.3,52L721.7,746l-123,1H-97.6l688.1-160c0,0,39.4,10.9,64.1-19.8
					c0,0,20.7-18.6,40.6-5.6c19.9,13,28.2-8.3,28.2-8.3s7.6-4.1,11,0.6c3.4,4.7,50.9-24.2,50.9-24.2s2.8-4.1,6.9,0
					c4.1,4.1,11,20.7,46.1-1.2c0,0,6.2-7.1,27.5,0c21.3,7.1,48.1-33.1,48.1-33.1s8.9-3.5,11.7-5.9c2.7-2.4,29.6-5.9,37.1-20.7
					c7.6-14.8,11.7-3.5,11.7-3.5s13.1-19.5,37.8-29.6c0,0,35.3-29,52.7-19.1l35.3-15.4c0,0,12.4-10.3,20.6,2.4
					c8.3,12.6,23.4,18.1,34.8,16.6c11.5-1.6,8.7,5.5,8.7,5.5s-0.5,13.4,10.1,4.3c10.5-9.1,6.9-18.1,11-19.3c0,0,5-12.2,6.9-12.2
					c1.8,0,0.9-8.7,0.9-8.7s18.8-19.3,24.8-18.1c6,1.2,21.1-26,30.3-21.7l5-5.1l28-7.1c0,0,5-1.6,4.1,1.2c-0.9,2.8-0.9,26.2,27,14.4
					c0,0-0.2-11.6,7.6-10.3c0,0,3.2-13.2,17.7-9.1c0,0,25.2-4.9,30-33.3c0,0,2.8-8.1,20-14.2l28-19.7l33.6-28.3c0,0,7.6-8,5.5-21
					c-2.1-13,0.3-13.6,0.3-13.6s4.5-17.1,22.7-19.2l8.9-2.4c0,0,34.7-31.6,49.5-31.3c14.8,0.3,33.9-68.1,36-108.3
					c0,0,0.4-14.4,14.7-0.6C1601.8,56.1,1625.9,1.1,1631.4-1.8z"/>
			</g>
			<g>
				<path class="st1" d="M984.4,631.5c1.2-0.4,2.6-1.1,4.3-2.3c5.5-3.7,8.1-7.8,9.7-11.2c1.6-1.8,3.2-3.6,4.6-5.5
					c9.8-8.2,18.3-17.6,25-28c0.5-0.5,0.9-1.1,1.4-1.7c5.3-3.7,10.4-7.7,15-12c6.6,1,26.4-25.8,35.5-20.2l6.2-5l31.1-4.6
					c0,0,5.7-1.2,4.3,1.7c-1.4,2.9-4.8,28.2,27,18.5c0,0,1.5-12.6,9.7-10.3c0,0,5.4-13.9,20.3-7.9c0,0,27.9-2.6,37.2-32.7
					c0,0,4.1-8.4,23.6-13.2l33-18.3l40.3-26.9c0,0,9.3-7.8,9-22.1c-0.3-14.3,2.4-14.7,2.4-14.7s7.3-18.1,27.3-18.3l10-1.6
					c0,0,42-30.4,57.9-28.5c7.1,0.9,18.2-9.6,27.9-29.2c2.1,0.8,3.3-2,5.4-1.3c-5.3,13.3-16.1,33.7-32.3,34.4
					c-24.2,1-56.9,28.8-56.9,28.8s-26.4-4.4-35.2,37.9c-8.8,42.3-17.7,71.7-17.7,71.7l-9.3,11.8c5.6-7.8,11.6-18.2,8.9-23.5
					c-4.8-9.1,5.4-40.1,5.4-40.1l-50.4,32.1l-10.4,10.2c0,0-1.5,3.3-7.3,9.6c-5.9,6.3-10.7,12.7-10.7,12.7s-2,3.7-4.6,8.2
					c-2.6,4.5-8.2,9.1-9.9,10.2c-1.7,1.1-5.3,5.5-5.3,5.5l-6.2,8.5c0,0-18.6,33.6-25,36.8c0,0,11.8-20.4,9.9-21.5
					c-1.9-1.1-19.9,20.9-42.6,15.6c0,0-5.7,12.4-37.3,2.3c0,0-7.1,0.6-15.9,6.2c-8.8,5.6-18.3,5.5-18.3,5.5s-6.6,4.1-7.7,8.7
					c-1.1,4.6-30.1,51.5-57.2,54.3c0,0,49.4-34.9,41.9-43.1c-7.5-8.2,9.2-23.4,12.2-23.7c3-0.3,14.4-11.8,24-5.7
					c0,0,16.4-10.3,31.9-5.5c15.5,4.8,24.7-2,23.6-2.8c-1-0.8,14.5-2.1,15.5-1c1,1.1,30.1-14.1,35.6-27.5l5.1-1.8
					c0,0,6.5-17.5,6.1-19.8c-0.4-2.3-12.9,24.1-38.5,18.9c0,0-6.8-3.5-5.3,2.5c1.4,6-7.4,2-9.5,3.7c-2.1,1.7-2.7,3-3.4,5.5
					c-0.7,2.5-7.1,8.8-16.6,6.9c-9.5-1.9-24-0.9-23.7-22.6l-25.8,2.2l-11.8,9.2c0,0-4.2,25.5-16.2,30.8l0-11c0,0-27,62.5-44.7,60.3
					c0,0,28.2-34.3,23.7-38.2c-4.5-3.9-25.6,37.6-40.4,35.7c-6.9-0.9-12.5,1.1-17,1.2c0.2-1.5,0.3-2.9,0.4-4.4
					C984,631.8,984.2,631.7,984.4,631.5z"/>
			</g>
			<g>
				<path class="st1" d="M921.3,644.7c-0.9-21.8,12.1-15,12.1-15c37,17.8,112.3,31.8,123.7,16.3c11.4-15.5,66.7-36,66.7-36l9.1-8.1
					c16.2-17.9,34.8-14.1,34.8-14.1s2.4-2.2,12.2,6.4c9.8,8.6,22.8,4.7,22.8,4.7l51.4-20.9l39.4-19.3c19-14.9,28.2-13.7,28.2-13.7
					c28.8,9.1,53-14.7,53-14.7c7.8-17.1,21.9-13.9,21.9-13.9c4.9-8.8,15-2.8,15-2.8c32.5-23.2,11.9-34.9,8.7-35.3
					c-3.1-0.4,2.2-4.9,2.2-4.9l28.3-25.6l8.5-2.7c3.4-11.7,39.3-13.9,43-20.7c3.7-6.8,35.5-16.8,35.5-16.8s6.9,5.3,8.3,3.3
					c1.4-1.9,16.2-1.1,16.2-1.1c4.3-3.7,9.4,4.6,25.7-1.9c16.3-6.5,4.2-12.6,4.2-12.6s-8.4-0.7,2-11.8c10.4-11.1,17.5-29.6,13-44.5
					c-4.6-14.9,14.2-22.6,14.2-22.6l3-2.1c0.1,4.5,0.5,9,1.3,13.3c-0.2,0-0.5,0-0.6,0c-9,0.1-10.8,12-10.8,12s-4.3,34.4-13.2,40.9
					c-8.9,6.5-3.7,8.1-3.7,8.1c10.8,17.7-3.9,18.9-14.5,33.4c-10.5,14.5-56.8,9.5-57.6,15.9c-0.9,6.3,46,0.7,46,0.7
					c-12.7,17.4-78.5,5.5-78.5,5.5l7.8,6.4c-13.3,7.8-34.7-3.2-34.7-3.2l-15.9,5.3l-22.4,22.2c15.5,12.3,3.1,24.9-3.2,34.6
					c-6.3,9.7-15.8,11.9-18.2,11c-2.4-0.8-3.7-1-6.6-0.1c-2.9,0.9-7.2,11.3-10.3,6.5c-3-4.8-6,3.4-6,3.4
					c-16.9,26.2-45.6,22.2-44.3,23.9c1.3,1.7,18.8,6,18.8,6l5.4-3.6c13.9,2.7,48-14.8,48.1-16.3c0-1.5,13.5-14.9,13.2-13.5
					c-0.3,1.4,11.9-3,21-19.8c9.1-16.8,29.6-25.7,29.6-25.7c3.4-12.4,20.7-15.9,23.3-18.5c2.7-2.6,26.8-8.9,26.5,2.7
					c-0.3,11.6,64.1-12.9,64.1-12.9c-23.7,22.9-80.1,21.9-84.2,20.3c-4.2-1.7-12.3,1.9-12.3,1.9s-7.6,8.7-18.6,13.4
					c-11,4.7-17.1,10.8-17.1,10.8c-18.4,34.6-31.7,32.5-31.7,32.5c-14.6,23.8-44.5,27.3-45.3,29.6c-0.8,2.3,23.1,3.5,23.1,3.5
					c-7.5,4-46,1.3-46,1.3l-10.9,0.7c0,0-6,0.7-8.1,1.6c-2.1,0.8-9.9,3.3-15.2,3c-5.3-0.2-9.5-0.6-9.5-0.6s-8.4,0.7-17.6,2.3
					c-9.2,1.6-12.7,1-12.7,1l-15.5,3.5l-63.1,27c0,0-18.8,2.4-24.2,0c-36.8-16.7-55,9.8-55,9.8s-46,13.6-66.1,34.9
					c-20.2,21.3-61.3,6.3-61.3,6.3l-49.5-14.3c0,0-23.2-14.5-24.8,7.8c-1.6,22.2-75.6,20-75.6,20
					C854.8,664.6,922.2,666.9,921.3,644.7z"/>
			</g>
			<g id="_x31__10_" class="st2">
				<path class="st3" d="M-136.3,768.4c0.9,0,1.8,0,2.7,0c11.5,4.3,23.3,1,34.4-0.5c23.1-3.1,46.5,2.5,69.4-3.4
					c7.8-2,15.4-4.3,23-6.9c30.1-0.2,59.3-8,89-11.1c4.4-5,10.1-3.9,15.6-3.5c3.4,0.3,6.8,1.7,9.1-2.2c0.9-0.8,2-1.5,3.1-2
					c9-1.1,18.4-0.1,26.4-6c4.8-1.6,9.8-2.4,14.8-3.4c9.5,0.6,19-2.8,28.6-0.8c4.1,0.8,6.2-2.4,8.6-4.9c1-0.8,2.2-1.5,3.4-2
					c9.8-2.9,21.9,2.7,29.5-8.3c13.9-6.8,29.1-9.2,43.7-13.4c68.8-19.5,136.4-42.3,202.5-69.8c6.2-2.6,13.1-3.2,18.7-7.4
					c40.1-16.5,79.6-34.8,121.2-47.4c18.9-5.7,38.4-8.4,57.6-12.8c6.5-1.5,13.4-2.2,19.1,3.1c0.3,7.2-5.9,7-10,8.8
					c-16.2,7-33.6,10-50.1,16.1c-51.5,19-100.9,43.1-152.1,63c-77.6,30.2-155.3,59.8-233.8,87.5c-56.4,19.9-112.3,41.2-168.9,60.7
					c28.8-2.5,57.5-4.9,86-9.3c84.8-13.1,169.6-26.1,254.2-40.6c68.6-11.8,137.2-23.6,205.7-36.2c3.5-0.7,7.1-1.4,10.7-0.5
					c7.7,7.1,0.7,15.9,2.5,23.6c0,2.1-0.1,4.2-0.5,6.3c-3.2,8.2-0.6,19.2-11.1,24c-2-2.1-3.3-0.6-3.9,1.2c-3.5,11-7,21.5-22.2,14.9
					c-2.5-1.1-5.2,0.6-6.3,3.7c-4.9,13.9-16.9,16.4-29,17.4c-8.3,0.7-15.1,1.3-21.1,8.9c-6.2,7.9-18.8,5-26.4,12.3
					c-1.6,1.5-4-0.6-3.9-3.6c0.2-3.1,0-6.4,0.5-9.4c0.8-4.1,2.7-9-2-10.8c-4.6-1.9-6.8,3.4-9,6.5c-7.2,9.7-9.7,9.7-14.9-0.6
					c-5.9-11.7-16.9-12.1-26.6-2.9c-9.3,8.9-23.2,7.6-34.8,11.9c-3.5,1.3-3.2-4.5-3.4-7.4c-0.4-7.5-4-11.9-11.5-12.6
					c-8.8-0.8-17.1,0.3-24.1,6.3c-1.7,1.4-0.6,3.2-0.2,5c2.9,13.1-2.6,18.5-14.8,14.8c-17.6-5.4-20-4.3-27.9,15
					c-0.8-12.1-11.8-16.9-12.6-25.7c-0.9-10.1,5.7-17.7,16.7-21.2c-12.7,1-24.7-1.8-36.9-1.4c-3.4,0.1-4.7,3.9-2.7,7.4
					c2.2,4,5.8,8.8-1.8,10.1c-5.7,1-13.7,2.9-13.6-7.5c0-5.3-2.7-8.3-6.7-11c-5.8-3.9-11.4-4.4-14.7,2.5c-3.7,7.6-8.7,9.9-16.3,7
					c-0.8-0.3-2.1-0.8-2.6-0.4c-16.2,11.3-36.7,1.1-53.3,11.4c-3.7,2.3-10.9,2.9-14.3,0.7c-14-8.9-25.6,5-39,2.5
					c4.6,4.9,16.9,5.3,11.7,14.5c-5.2,9.1-12.7,1.7-19.7-1.4c-9.5-4.2-20.4-4.9-28.2-13.2c-1.5-1.6-4.2-1.4-6.1,0.6
					c-4.5,4.8,2.4,6.7,2.7,10.2c-10,4.9-16.4-3.2-22.9-7.5c-12-7.9-26.2-8.1-38.8-9.4c-15-1.5-28-11.7-44.4-8.2
					c-6,1.3-9,1.6-11.4,7.3c-2.5,5.8-6.1,11.1-9.6,16.4c-1.7,2.6-4.5,2.8-7,0.8c-2.4-1.9-1.1-4,0.2-5.9c3.5-5,5.2-10.5,4.6-16.7
					c-0.5-4.6-2.5-7.8-7.5-7.9c-4.9-0.1-5.3,3.5-5.9,7.4c-2.1,12.5-7.6,14.8-17.6,7.8c-11.3-8-38.9-6.6-49.5,2.9
					c-3.1,2.8-6,3.4-9.7,2.5c-2.5-0.6-6.4-1.9-7.6-0.7c-8.4,8.1-14.4,7-19.7-3.3c-1.6-3-4.9-1.4-7.2-0.1c-4.3,2.4-8.9,4.6-12.6,7.8
					c-8.5,7.5-16.1,15.4-23.6-1.5c-2-4.5-8.6-3.7-13.6-4.3c-15.5-2-21.7-12.9-16.2-27.3c1.8-4.7,6-6.4,9.8-5c16,6.1,30.1-5.9,45.8-4
					c5.3,0.6,11.1-1.2,17,0.4C-143.2,777.6-137.4,776.6-136.3,768.4z"/>
			</g>
			<g class="st2">
				<path class="st4" d="M1503.6,773.1c-169.8-1-339.6,3-509.3-1.9c-54.2-1.5-108.5-2.1-162.6-6.3c-23.1-1.8-46.5-2.5-69.1-9.1
					c-3.9-1.2-10.2-1-10.3-6.9c-0.1-6,3.2-0.1,7.9-1.6c2.6-0.8,7.6-1.6,10.2-2.2c24.4-5.4,48.8-18.4,73.4-23.3
					c14.5-2.9,16.8-6,31.2-9.2c5.9-6.3,21.9-29.8,21.9-46.3c0-0.1-21.9-0.2-21.9-0.3c-61.8,11.6-123.7,23.2-185.5,34.6
					c-4.9,0.9-15.6-1.1-19.7,2c-4.2,4-59.7,11.9-58.5,16.8c1.3,5.7,14.1,11.4,13.9,17.2c0,2.8-14,8.5-13.2,11.1
					c10.3,13.2-13.7,24.8-1.9,36.7c4.4,2.6,105.8,5.9,110.5,7.8c7.4,1.9,13.3,6.5,19.4,10.7c4.9,3.4,8.1,9.7,15.4,8.7
					c7.1,0.2,14.3,0.3,19.1,7.9c-1.1-5.2-2.1-9.4,0.5-13.8c4-6.7-0.6-9-5.8-10.3c-4.3-1.1-10-1.1-9.4-7.3c0.6-5.7,6.4-3.5,10-4.6
					c3-0.9,6.1-2,9.1-2c7.5,0,11,3.4,8,11.3c-1.1,3-3.1,5.9-3.2,8.9c-0.2,6,0.9,13.3,7.9,13.7c6.9,0.4,11.8-4.5,9.8-12.7
					c-1.1-4.4-2-8.7,3.6-9.6c5.2-0.9,9.8,1.7,12.2,6.6c1.8,3.6,2.2,7.9,3.8,11.5c1.4,3.1,2.4,7.8,6.8,7.4c5-0.5,4-5.4,3.8-8.7
					c-0.4-7.7,3.2-13.8,10-13.6c11.2,0.3,23-10.4,33.8,1.4c1.1,1.2,4.3,1,6.4,0.7c11.1-1.7,22.2-0.4,33.4-2.7c8.9-1.8,19-2.6,29.2,2
					c-8.5,6.7-17.2,5.6-25.6,5.6c-13.1,0.1-5.3,15.5-13.8,18.8c-0.4,0.2-0.8,0.5-1.1,0.7c-3.6,2.2-3.7,4.8-0.6,7.6
					c3.1,2.9,5.6,2.1,7.5-1.5c6.4-12.1,18.1-12.6,29.6-15c8.8-1.9,17.3,3,25.4-0.2c7.8-3.1,14.6-3.9,20.7,3.1c1,1.2,2.9,4.2,3.6,2.5
					c5.1-12,19.9-7.7,26.4-16.6c4.6-6.3,9.6-8,17.4-5.6c7.9,2.4,6,7.3,5.7,12.6c-0.4,7.9,6.1,10.1,11.5,11c6.7,1.1,4.8-5.8,4.6-8.8
					c-0.7-9.4,6.1-13.2,11.5-18c7-6.4,11.7-6.2,12.8,4.9c1.1,10.8,7,14.3,16.8,9.6c4.6-2.2,8.6-2.7,12.2,1.3c5.1,5.6,9.2,3.9,15,0
					c11.4-7.8,22.1-3.9,25.6,7.9c1,3.4,0.5,8,4.8,8.9c4.9,1.1,6.7-3.4,9.1-6.7c2-2.7,2.3-9.4,8.2-4.1c3,2.6,5.9,4.8,8.6-0.2
					c2.6-4.8,3.5-9.5-2.2-12.9c-3.5-2.1-7.8-3.9-5-9.3c1.4-2.8,3.6-5.8,7.2-5.1c4.4,0.8,6.7,4.4,7.4,8.7c0.8,5,2.6,9.2,8.2,8.8
					c7.3-0.6,16.6-7.8,18.2,6.9c2.1-0.3,4.3-0.4,6.4-0.9c5.2-1.2,6.1-5.9,8-10c5.2-11.3,13.2-12,21.7-3.4
					c12.3,12.3,29.5,15.5,45,16.6c18.8,1.4,25.9,2.5,33,19.9c1.5,3.7,3.1,6.7,7.5,6.2c3.6-0.4,6.3-3.3,6.1-6.3
					c-0.5-9.8,1.7-19.9-2.7-29.3c-1.4-2.9-7-5.1-2.9-8.8c3.2-2.9,7.8-1.7,11.2,0.9c7.4,5.8,15,6.9,24,3.9
					c8.5-2.8,12.1,2.6,13.2,10.7c1.9,14.4,6.4,17.8,19.8,15.9c2.2-0.3,4.7-0.1,5.9-2.4c1.7-3.3-0.7-5-2.9-6.6
					c-7.7-5.4-4.8-9.3,1.6-12.8c0,0,0,0,0,0c0,0,0.1-0.1,0.1-0.1c1.6-1.9,2.2-5.4,6.7-4.7c-3,1.4-5.1,2.7-6.7,4.7c0,0,0,0.1-0.1,0.1
					l0,0c5.3,6.9,10.5,14.5,17.4,1.3c2.4-4.6,7.5-4.7,11.6-6c19-6.2,40,1,58.5-8.9c1-0.6,2.6-0.1,4,0c2.7,0.2,5.9,0.7,6.2,3.9
					c0.2,2.5-2.3,3.6-4.6,4c-5.6,1-9.4,5.4-4.6,8.9c7,5,16.5,2.9,24.7,1.3c6.3-1.2,3.9-7.5,5.1-12.1c2.2-8.9-2.6-21.6,11.3-25.2
					v-2.7C1526.7,769.8,1515.2,773.1,1503.6,773.1z"/>
			</g>
		</g>
	</g>
</g>
</svg>
