<svg id="ฟ้า" xmlns="http://www.w3.org/2000/svg" viewBox="0 0 1224 846"><defs><style>.cls-1,.cls-5{fill:#0d3c59;}.cls-1,.cls-2,.cls-3,.cls-4{opacity:0.68;}.cls-2{fill:#a3c9e0;}.cls-3{fill:#75aed1;}.cls-4{fill:#061e2d;}.cls-6{fill:#135a86;}</style></defs><title>moutain</title><path class="cls-1" d="M703.36,310.09l-6.17,7.71s-1.8,31.12-4.89,31.12l-3.09,24.17s-.51,17,0,20.06-4.63,17-4.63,17l-4.11,17.49s-11.31,40.11-10.29,45.26-3.09,29.83-3.09,29.83l-9.26,42.17-2.06,11.31-4.11,9.26-5.14,3.09s-28.29,47.83-30.34,44.74l-5.91,1.8S605.4,639,603.6,640s-19,18.26-19,18.26l-4.11,15.17-2.83,3.34-2.57,34.71,14.4,32.91,40.63,33.94,35.48,11.31h37.8l46.54-6.17L761.22,766V707.87l-9.77-70.45-.52-17L740.65,604.5l-9.26-11.31s2.06-3.6,2.06-6.17-2.06-15.43-2.06-15.43l2.06-5.14s3.08-30.86.51-30.86,0-24.68,0-24.68l-2.57-6.69,1-8.23-1.54-15.43-2.14-13.37V452.8l-2.49-8.23-.51-22.62-1-16.46s-2.05-12.86-6.17-19.54,1-6.17,1-6.17l1.54-5.66s-1.54-42.68-7.71-49.88A96,96,0,0,1,703.36,310.09Z"/><path class="cls-2" d="M703.36,311.79v32.14S699,377.88,699,384.56v36.51s-2.06,32.4,0,35-3.09,50.4-3.09,50.4-8.74,18.51-8.74,20.06-10.29,21.6-10.29,26.23.52,20.57,19.54,28.28c0,0,8.74,35.48,6.94,38.57S716,590.78,716,588.2s-4.11-10.8-4.11-10.8.51-11.31,4.11-5.66,7.71,21.09,7.71,21.09,6.68,10.81,9.77-4.11l-2.06-15.43s7.46-20.06,2.57-36-1-3.06-1-3.06l1-21.62-2.57-6.69,1-8.23-3.69-28.8V454.5l-2.49-8.23s5.32-31.51-9.31-62.73c0,0,1.59-3.1,2.62-2.07s1.47-7.41,1.47-7.41-1.47-46.59-7.64-48.13Z"/><path class="cls-3" d="M673.28,567.48l-9.77,21.08s-8.74,44.74-10.8,44.74-3.09,28.28-3.09,28.28h-9.77v38.57s1.54,22.11,0,22.63,16.71-25.71,16.71-25.71-5.92-16.46-4.37-18.51,8.23-14.91,8.23-14.91l9.77-1.54.51-20.06,4.63-2.06V601.42Z"/><path class="cls-4" d="M761.22,339.4s6.94-32.4,11.57,0,3.34,43.46,6.43,48.08,4.11,20.06,4.11,20.06l3.6,30.34L791,479v9.26s8.23,31.37,12.34,31.88,3.09-2.57,3.09-2.57l2.57,2.63s.52,28.23,3.6,28.74S815.22,570,815.22,570l0,6.17S832.7,600.9,831.16,606s20.06,57.08,20.06,57.08,12.86,9.77,22.11,12.34,27.77,29.31,27.77,29.31l4.63,19,155.21,79.59,15.78,46.67L834.5,835.41l-77.91-17-36.51,35-54,16.84-77.68-1.42,22.11-27.26,14.91-27.25,18-22.11s20.06-10.29,21.6-10.8,20.06-8.74,20.06-8.74l29.31-38.05,8.23-35.48,6.09-30.34,9.34-28.8,6.69-32.4,4.37-11.31-8-19.54,2.57-5.66,5.4-17.48V537.64L745.79,514l3.34-8.23,5.4-75.59L754,419.88l2.06-11.31.51-7.2-1-25.71,2.06-7.2L759.68,351Z"/><path class="cls-5" d="M660.94,786.81,632.4,752.87,620.83,729l-10-17.74-13.11-13.89s-15.43-14.91-17.74-17.74-13.11-3.09-13.11-3.09l-7.71,3.09-3.86-5.4-6.94.77-5.4,4.63-8.49,3.09L526.72,685l-4.63,5.4V695l-6.17,3.09L512.06,705l-11.35,5.16-14.11-7.47-7.71-3.09-6.17.77-10.8,9.26-12.34,8.49-4.63,6.17-10.8,11.57-16.2,7.71-17.74,7.71s-21.6,4.63-25.46,6.17a127.38,127.38,0,0,1-20.06,6.17l-27,5.4-17,5.4-9.26,12.34v12.34H660.94Z"/><path class="cls-1" d="M741.76,607.58s-8.59,39.2-11.41,40.47-9.26,16.49-9.26,16.49l-5.24,11.84L697.32,693.3l-4,7.61L688.05,717s-7.25,5.5-8.86,5.5-6,2.54-6,2.54l-16.92,10.57-7.65,3.81L635.69,750l-9.26,7.19-5.24,4.23-4.83,6.34,7.25,14.8L622,787.18l-9.26,5.5-22.15,3-18.12,7.61-5.64,5.07-10.87,5.08h-14.5l-15.31-6.77-12.08.85-10.87,1.27-9.26,4.65-13.69-2.54-13.29-1.27,31,56.25,29,13.53h30.61l55.31-4.51,43-10.71,46.72-11.28,110.09-29.32-7.81-105.74Z"/><path class="cls-3" d="M752.24,462.35l-3.1,43.41L745.79,514l3.34,23.65v15.94l-8,23.14,8,19.54-4.37,11.31,8.89,22.63,5.07,13.89,5.07,18,10.28,20.06,7.2,8.23-2.57,24.68,2.06,7.71-.52,8.74a36.33,36.33,0,0,1-6.17,1C772,732.55,771,730,771,730l-1.54-5.14-3.09-1-4.63-5.66-3,1-5.07,4.11-2.2,6.17,2.2,5.14v4.11l-4.26-3.09h-6.68l-4.74,1-6.06-1-7.71,2.06,4.54,2.57,3.69,6.17L738,748v7.2l-5.54,8.74-1.54,4.63-18.51,3.09L709.79,767l-17.49-1.54-6.68-5.66H670.71l7.2,11.83,5.14.51,7.2,4.11h8.23l7.71,1.54,6.17,5.66,12.86-3.6,7.2-3.6,8.74-7.1,7.71-7.3s9.26,2.57,12.34,6.17,7.71-2.57,7.71-2.57l5.66-22.11,14.91-7.71s13.89-10.28,15.43-23.66-3.6-89.48-4.11-96.17-8.23-33.94-9.77-37a12.17,12.17,0,0,0-4.11-4.63l-2.57-27.77,2.57-9.26s-3.09-22.11-3.6-25.2-6.17-5.66-6.17-5.66V486.22s-3.6-17.49-6.17-20.57-7.2-4.63-7.2-4.63l-2.57-12.47-2.31-1.16-1.54-3.66-1.16-4.44-2-15.13Z"/><polygon class="cls-5" points="640.11 918.72 610.03 830.01 599.23 813.81 579.17 791.44 557.57 783.72 545.23 783.72 528.26 783.72 514.37 783.72 498.94 783.72 478.89 791.44 457.29 787.58 440.32 783.72 414.09 776.01 401.75 776.01 390.95 767.52 367.04 767.52 343.12 767.52 335.41 773.69 313.04 773.69 303.01 767.52 291.44 767.52 277.56 767.52 247.47 819.98 244.38 911.77 640.11 918.72"/><path class="cls-1" d="M699.51,891.72s-21.6-.77-7.71-14.66-50-2.58-50-2.58L625,874l-.68-2s29.72-18.87,38.21-16.56,23.91-.16,23.91-.16l13.11-9.09,41.66-30.08,9.26-15.43,10.8-3.86H782s18.51-17,37.8-17.74a374.84,374.84,0,0,0,38.57-3.86l20.83,5.4L890,786l17-2.31,56.31,3.86,21.6,1.54,12.34,20.83L993.41,867Z"/><polygon class="cls-1" points="530.96 952.03 652.32 917.87 670.84 917.87 688.32 906.55 706.84 901.41 735.03 888.04 751.06 873.64 751.06 864.38 822.03 833.53 833.34 833.53 842.6 833.53 861.12 833.53 887.86 833.53 917.68 833.53 940.31 833.53 961.91 845.87 1003.05 862.33 1035.96 865.41 1065.79 882.9 1083.28 918.9 1079.64 959.93 530.96 952.03"/><path class="cls-1" d="M914.47,835.15,898,852.64V865H879.5v5.14L858.93,865l-11.31,11.31,7.2,68.82,1,19.63-.42-8,89.9.84L971,945.11l41.39-1.25,36.75-.14,46.7,1.46L1125.74,929s-6.18-79.76-19.55-85.93-52.87-31.63-56-31.63-76.11-12.34-76.11-12.34Z"/><path class="cls-1" d="M637.28-.23l-8.57,10.71s-2.5,43.2-6.78,43.2l-4.28,33.56s-.71,23.56,0,27.85-6.43,23.56-6.43,23.56l-5.71,24.28s-15.71,55.7-14.28,62.84-4.28,41.41-4.28,41.41l-12.85,58.55-2.86,15.71-5.71,12.85-7.14,4.28S519.11,425,516.25,420.7L508,423.19s-6.78,33.2-9.28,34.63-26.42,25.35-26.42,25.35l-5.71,21.06-3.93,4.64-3.57,48.2,20,45.7,56.41,47.13,49.27,15.71h52.48L701.9,657l15.71-24.28V552.08L704,454.26l-.72-23.56-14.28-22.14L676.2,392.85s2.86-5,2.86-8.57-2.86-21.42-2.86-21.42l2.86-7.14s4.28-42.84.71-42.84,0-34.27,0-34.27l-3.57-9.28,1.43-11.43-2.14-21.42-3-18.56v-20l-3.45-11.42-.71-31.41-1.43-22.85s-2.85-17.85-8.57-27.13,1.43-8.57,1.43-8.57l2.14-7.85s-2.14-59.26-10.71-69.26A133.29,133.29,0,0,1,637.28-.23Z"/><path class="cls-2" d="M637.28,2.14V46.76s-6.07,47.13-6.07,56.41v50.7s-2.86,45,0,48.55-4.28,70-4.28,70-12.14,25.71-12.14,27.85-14.28,30-14.28,36.42.72,28.55,27.13,39.27c0,0,12.14,49.27,9.64,53.55s17.49-40,17.49-43.56-5.71-15-5.71-15,.71-15.71,5.71-7.86,10.71,29.28,10.71,29.28,9.28,15,13.57-5.71l-2.86-21.42s10.35-27.85,3.57-50-1.43-4.25-1.43-4.25l1.43-30-3.57-9.28,1.43-11.43-5.12-40v-20l-3.45-11.42s7.39-43.75-12.92-87.09c0,0,2.21-4.31,3.64-2.87s2-10.29,2-10.29-2-64.69-10.61-66.82Z"/><path class="cls-3" d="M595.51,357.15l-13.57,29.28s-12.14,62.12-15,62.12-4.28,39.27-4.28,39.27H549.1v53.55s2.14,30.7,0,31.42,23.21-35.7,23.21-35.7-8.21-22.85-6.07-25.71,11.43-20.71,11.43-20.71l13.57-2.14.71-27.85,6.43-2.86V404.27Z"/><path class="cls-4" d="M717.61,40.47s9.64-45,16.07,0,4.64,60.34,8.93,66.76,5.71,27.85,5.71,27.85l5,42.13L759,234.33v12.85s11.43,43.56,17.14,44.27,4.28-3.57,4.28-3.57l3.57,3.65s.72,39.19,5,39.91,3.57,29.28,3.57,29.28l0,8.57s24.23,34.28,22.09,41.41S842.57,490,842.57,490s17.85,13.57,30.7,17.14,38.56,40.7,38.56,40.7l6.43,26.42,215.51,110.5,21.91,64.79L819.36,729.16,711.19,705.59l-50.7,48.56-74.93,23.39-107.86-2,30.7-37.85,20.71-37.84,25-30.7s27.85-14.28,30-15S611.93,642,611.93,642l40.7-52.84,11.42-49.27,8.45-42.13,13-40,9.28-45,6.07-15.71L689.76,370l3.57-7.86,7.5-24.28V315.72l-4.64-32.84,4.64-11.43,7.5-105-.71-14.28,2.86-15.71.71-10-1.43-35.7,2.86-10,2.86-24.28Z"/><path class="cls-5" d="M578.37,661.68l-39.63-47.13-16.07-33.2-13.92-24.63-18.21-19.28s-21.42-20.71-24.63-24.63-18.21-4.28-18.21-4.28L437,512.81l-5.36-7.5L422,506.38l-7.5,6.43-11.78,4.28L392,520.3l-6.43,7.5v6.43L377,538.51l-5.36,9.64-15.76,7.16-19.59-10.37-10.71-4.28L317,541.73l-15,12.85L284.9,566.36l-6.43,8.57-15,16.07L241,601.7l-24.63,10.71s-30,6.43-35.35,8.57a176.86,176.86,0,0,1-27.85,8.57L115.67,637l-23.56,7.5L79.26,661.68v17.14H578.37Z"/><path class="cls-1" d="M690.59,412.83S678.66,467.26,674.74,469s-12.86,22.9-12.86,22.9l-7.27,16.44-25.72,23.49-5.59,10.57L616,564.73s-10.07,7.63-12.3,7.63-8.39,3.52-8.39,3.52l-23.49,14.68-10.63,5.28-17.89,14.68-12.86,10-7.27,5.87-6.71,8.81,10.07,20.55-2.24,6.46-12.86,7.64-30.76,4.11-25.17,10.57-7.83,7-15.1,7H412.46l-21.25-9.4-16.78,1.18-15.1,1.76-12.86,6.46-19-3.52L309,693.32l43.06,78.1,40.27,18.79h42.5l76.8-6.26,59.65-14.87,64.87-15.66L789,712.7,778.17,565.88Z"/><path class="cls-3" d="M705.14,211.18l-4.31,60.28-4.64,11.43,4.64,32.84v22.14L689.76,370l11.07,27.13-6.07,15.71,12.34,31.42,7,19.28,7,25,14.28,27.85,10,11.43-3.57,34.27,2.86,10.71L744,584.92a50.45,50.45,0,0,1-8.57,1.43c-2.86,0-4.28-3.57-4.28-3.57L729,575.64l-4.28-1.43-6.43-7.85-4.18,1.43-7,5.71L704,582.06l3.06,7.14v5.71l-5.92-4.28h-9.28l-6.58,1.43-8.41-1.43-10.71,2.86,6.31,3.57,5.12,8.57,7.7,2.14v10l-7.7,12.14-2.14,6.43-25.71,4.28-3.57-6.43L621.93,632l-9.28-7.86H591.94l10,16.42,7.14.71,10,5.71H630.5l10.71,2.14,8.57,7.86,17.85-5,10-5,12.14-9.86,10.71-10.13s12.85,3.57,17.14,8.57S728.32,632,728.32,632l7.86-30.7,20.71-10.71s19.28-14.28,21.42-32.85-5-124.24-5.71-133.53S761.17,377.14,759,372.85a16.89,16.89,0,0,0-5.71-6.43l-3.57-38.56L753.31,315s-4.28-30.7-5-35-8.57-7.85-8.57-7.85V244.32s-5-24.28-8.57-28.56-10-6.43-10-6.43L717.61,192l-3.21-1.61-2.14-5.09-1.61-6.16-2.74-21Z"/><polygon class="cls-5" points="549.46 844.84 507.68 721.66 492.69 699.17 464.84 668.11 434.85 657.4 417.71 657.4 394.15 657.4 374.87 657.4 353.45 657.4 325.6 668.11 295.61 662.75 272.05 657.4 235.63 646.69 218.5 646.69 203.5 634.91 170.3 634.91 137.1 634.91 126.39 643.48 95.33 643.48 81.4 634.91 65.33 634.91 46.06 634.91 4.28 707.74 0 835.2 549.46 844.84"/><path class="cls-1" d="M631.93,807.35s-30-1.07-10.71-20.35-69.4-3.58-69.4-3.58l-23.41-.64-.94-2.78s41.27-26.2,53-23,33.2-.23,33.2-.23l18.21-12.63,57.84-41.77L702.62,681l15-5.36h28.92S772.24,652,799,651a520.45,520.45,0,0,0,53.55-5.36l28.92,7.5,15,7.5L920,657.4l78.19,5.36,30,2.14,17.14,28.92L1040,773.07Z"/><polygon class="cls-1" points="397.9 891.1 566.41 843.66 592.12 843.66 616.4 827.95 642.1 820.81 681.25 802.25 703.51 782.25 703.51 769.4 802.05 726.55 817.76 726.55 830.61 726.55 856.31 726.55 893.44 726.55 934.86 726.55 966.28 726.55 996.27 743.69 1053.39 766.54 1099.09 770.82 1140.5 795.1 1164.78 845.09 1159.74 902.06 397.9 891.1"/><path class="cls-1" d="M930.4,728.81l-22.85,24.28v17.14H881.84v7.14l-28.56-7.14-15.71,15.71,10,95.56L849,908.74l-.59-11.16,124.83,1.16,35.7-17.26,57.47-1.74,51-.2,64.84,2,41.46-22.39s-8.58-110.74-27.14-119.31S1123.19,696,1118.9,696s-105.68-17.14-105.68-17.14Z"/><path class="cls-6" d="M521.83,891.1l41.37-21.45h24.28l10-21.42,15.71-7.14s10.18-6.43-4.82-8-12.85,0-12.85,0-5.36.18-7-.72-5.89,0-5.89,0l-8,5.54-3.21-2.14-5.89-6.43H527l-10.18-4.82-13.39-5.89s-18.21-2.68-22-2.68-15-5.36-15-5.36H416.11L399,799.32H379.69l-21.42-8.57-24.63-22.49s-11.78-9.64-15-10.71S289.72,749,289.72,749H243.67a160.57,160.57,0,0,0-18.21,7.5c-8.57,4.28-19.28,7.5-27.85,13.92s-20.35,8.57-27.85,21.42S143,830.38,143,830.38L161.24,890Z"/></svg>