<svg xmlns="http://www.w3.org/2000/svg" viewBox="0 0 1364 648.3"><defs><style>.cls-1{fill:#60666d;}.cls-2{fill:#5c6a6d;}.cls-3{fill:#6d747b;}.cls-4{fill:#676d75;}.cls-5{fill:#5b6169;}.cls-6{fill:#6e767f;}.cls-7{fill:#4b535a;}.cls-8{fill:#474f57;}.cls-9{fill:#4a515b;}.cls-10{fill:#444b52;}.cls-11{fill:#444f52;}.cls-12{fill:#48535c;}.cls-13{fill:#47525a;}.cls-14{fill:#575e67;}.cls-15{fill:#585f67;}.cls-16{fill:#4e565e;}.cls-17{fill:#585e63;}.cls-18{fill:#474e54;}.cls-19{fill:#503128;}.cls-20{fill:#e9a140;}.cls-21{fill:#e4d9d3;}.cls-22{fill:#002c40;}</style></defs><title>เขาใหม่</title><g id="Layer_2" data-name="Layer 2"><g id="Layer_1-2" data-name="Layer 1"><path class="cls-1" d="M1169.81,574.46l6.6-39.36,4.73-27,.86-4h0l-.07-.75v-.61l15.08-4.42s0,0,0,0l28.09-8.22,29.93-5.8,31-17.19L1364,444.23v60l-16.22-.13-20.68,8.18-41,16.21-15.5,6.12-1.23.49-99.56,39.36"/><path class="cls-2" d="M980.87,648.23c159.07-10.25,270.4-40.63,289.83-114,0,0-202.38-74.4-238.45-67.92,0,0-114.78,185.85-51.37,181.89"/><path class="cls-1" d="M549.35,194.74c-11.52-.22-59.24-4.56-59.24-4.56l-46.83-8.78L378.59,209l100.19,68.21,172.28,8.32S629,262.2,625.61,261.49"/><path class="cls-3" d="M407.38,122.6c4.08,2.44,13.1,4.28,15.15,6.85s18.79,10.82,23.73,10.22,17.3,4.65,21,8.61,9.63,9.26,9.63,9.26,6.4,19.55,8.7,22,4.16,10.52,4.16,10.52-18.31,10.62-24.84,9.82-12.8,1.68-13.7,2S440,205,440,205l-10.8-1.14-28.74,2.47L378.59,209,328,120.88,387.1,97.49"/><path class="cls-4" d="M374.17,109.36s-16.45,24.79-7.23,35.88,13.89,25.92,12.23,32.44-2.32,18.84-2.32,18.84l-61,4.83-36.46-30.2L211.3,151.67l-18.28-27L341.84,101Z"/><path class="cls-5" d="M561.27,231.41c-10.06-1-41.14,9.51-41.14,9.51s-45.29,14.75-58,3.56l-14.54-6.87s-51.29-35.6-55.34-35.35c0,0-30.75-14.88-54.22-7.85L312.6,184.17s-30.75-13-54.77,6.6l21.32,53.94,86.54,42.39,42.64,4.77,122.91,3.23,118.19-6.67s-14-9.28-22.91-12.52-22.31-11-24.91-15.84"/><path class="cls-1" d="M216,140.81s12.33,3.24,20.33,7.73,21.42,12.26,29.5,10S284.89,161.33,290,162s15.63,2.83,15.8,5,2.62,15.19,6.81,17.14-12.52-3.61-28.08-.17-26.69,6.76-26.69,6.76l-18,10.44-27.59-27.85L216,140.81Z"/><path class="cls-3" d="M322.27,93.38c49.4-8.72,64.83,4.11,64.83,4.11l-12.92,11.87L264.8,134.13Z"/><path class="cls-3" d="M225.52,5.92s19.68,10.47,25.58,14.9S287.69,35.63,292,42.25s18.44,21.32,26.54,20.83,3.69,30.31,3.69,30.31l-16.07,11.76L247.4,118.93l-21.88-113"/><path class="cls-6" d="M225.52,5.92s39.55,81.69,41.37,83.68,13.32,4.87,21,8.59a153.74,153.74,0,0,0,18.29,7l-41.39,29s-45.18-2.25-54.25,1.37A142,142,0,0,1,193,141.12L150.58,88.94,151,.23"/><path class="cls-7" d="M158.93,0c7,4.69,27.63,33.2,27.73,41.31S174.86,89.2,174.86,89.2l-13.29,93.06L95.34,142.87,44,2.23"/><path class="cls-8" d="M50.09,1.56C61,12,91.56,43.3,100.83,72.78c7.45,23.69,4.58,48,1.74,61.83-1.14,5.53-2.27,9.4-2.74,10.93a1.53,1.53,0,0,1-.49.73L78,200.9h0L75.14,209s0,0,0,0c-.19-.4-2-4.32-4.82-9.89-.11-.22-.33-.44-.33-.67h0c-7-14.69-19.55-40-23.81-44.6C40.12,147.19,14.54,101.46,8.92,96c-1.17-1.14-3.25-3.43-5.84-6.37l-.07,0c-1-1.06-2-2.2-3-3.4V37.49l3-2.57L39.71,3.47"/><path class="cls-7" d="M162.91,170.8l-63.39-38S77.44,176.66,75.4,209s14.21,94.42,14.21,94.42-8.29,10.49-1.93,16.08a104.91,104.91,0,0,1,12.14,13.23L161.11,456.3l57.35-22.67L206.83,212Z"/><path class="cls-9" d="M284.41,237.06s-1.05-16.77-8.66-21.91-6.19-15.65-6.19-15.65S259.48,188.11,251,187.85s-17.28-4.93-22.82-15.4-7.8-26.77-13-32.86-14.32-11.53-15.26-15.68-26.33-36.63-26.33-36.63-7.23,38.14-7.75,47.39-4.23,35.15-4.23,35.15,13.7,10,9,22.69,6.46,16.78,9.6,77.62c0,0,.2,9.76-11.81,24.35s-23,32.17-17.43,38.78,14.92,38.55,14.92,38.55,4.61,19.21,3.65,26S172,418.57,172,418.57l6.83,29.19,74.92,78.41,62.51-174.69L284.41,237.06Z"/><path class="cls-10" d="M217.14,567.52,232,534.16l-27.59-69.78s-31-34.84-57.7-32.41l-3.81,53.27S214,557,217.14,567.52"/><path class="cls-10" d="M0,587.27v-155l.07-78,3-9.55L9,326a481.5,481.5,0,0,1,76.44-10.66c.08,0,.16-.22.25-.22h0s.1.2.16.2q11.32-.61,22.27-.65c15.71,0,30.74,1.45,44.72,2.45h0c23.68,3,44.36,8.15,60.32,15.47A98.14,98.14,0,0,1,225,339c8.11,5.15,17.65,13.26,23,25.7Q229.33,415,210.68,465.37c-1,2.58-2.15,5.15-3.1,7.73a10.41,10.41,0,0,1-1.58,3.62h0a6.52,6.52,0,0,1-.55,2.14l-16.08,12.86L173.85,504.1l-7.12,5.68-2.25,1.79S114,520.13,71.89,535.1c-25.56,9.08-48.09,20.52-54.39,33.85"/><path class="cls-11" d="M336,573.7c9.56-3.78,32.75-23.76,32.75-23.76l-30.92-24L236,478S220,465.38,204.37,464.38c0,0-23.46,21-11.56,40.66S211,526.68,212,536.2s5.1,31.33,5.1,31.33"/><path class="cls-9" d="M343.5,251.94s-20.23-5.75-31.94-6.52-26.73-3.85-26.77-7.44,10.76,13.25-11.2,41.57-25.32,51.28-22.85,57.51,24,85.14,5.06,110.65c0,0-11.41,27-19.78,30.35,0,0,12.1,9.64,14.87,16.65s16.07,16.18,25.39,18.8,40.27,7.51,41.5,10.63,20,1.77,20,1.77L362.92,509l-1.52-87.72,26.38-87Z"/><path class="cls-12" d="M413.71,289.74s-13.49-6.16-25.93-5.3-21,.19-23.28-3-19.42-28.15-21-29.55,25.07,73.9,12.43,133.65L336.27,404s-9.83,1.34-5,16.3,14.15,41,12.19,46.55,7,46.57-5.68,59l30.92,24,52.79-90.11,4.88-137.93-12.71-32.15Z"/><path class="cls-13" d="M413.71,289.74s-16.29,20-13.42,49.92S408.37,395,408.37,395s-30.38,35-31.92,59-12.07,21.89-.18,39.73-9.93,58.15-9.93,58.15l71.5,2.07,119.9-73.54,5.45-66-50.9-92.06Z"/><path class="cls-14" d="M657.38,342.92s11.6-8.55,19.48-14.82,26.19-19.37,30.78-25.24,11.6-9.09,10.39-10.42-60.39-9.47-68.17-8.2-57.77-2.85-62.41-2.36-12.2-4.64-18.81-5.63-61.28,5.75-69.08,5.23a149.88,149.88,0,0,0-27.29.87c-9.89,1.21-17.36,3.26-28,4.31s-27.71,3.3-30.56,3.07,6.89,13.95,11.71,15.65,9.86,11,16.15,9.39,29.25.6,30,4.35,11.4,13.52,13.88,14.34,19.69,1.24,19.31,4.08,82.8,67.28,82.8,67.28Z"/><path class="cls-15" d="M624.76,407.73s22.46-24.43,28.48-30.18,22.85-19.51,19-24.06-17.14-14.52-28-13.25-56.77,3.18-63.32,1-58.87-4.77-76.07-3.72l103.8,84.34Z"/><path class="cls-16" d="M624.76,407.73s-39.52-35.75-46.83-35.9-24.67-3.43-27.72-4.59-39.33-28.72-45.42-29.7,22.78,41,27.59,56.68.61,29.5-.72,31.38-7.63,15.63-.7,19.2,19.19,6.38,17.53,9.29,7.12,25.12,7.12,25.12l65-8.57s1.3-33.41,2.17-36.45-4.25-19.5,2-26.46Z"/><path class="cls-14" d="M718,292.45s184.09,54.74,186.14,83.67S844.83,414,844.83,414s-50.29-26.08-85.94-18.29-101.51-52.78-101.51-52.78Z"/><path class="cls-15" d="M618.8,404.84,685.53,445l8.88,38.4s46.1-9.21,71.2-2.91,37.82-3.24,37.82-3.24l14.86,17.56c12.44-27.15,26.59-58.12,39-85.27-10-6.22-31.63-13.9-61.9-16.66-18.5-1.69-34.66,1.56-47.08,3.36,0,0-61.29-32.17-76.13-42.73Z"/><path class="cls-16" d="M555.62,479.22l37.26,38.33,58.2-9.83,59.14,27.09-21.91-90.92c-22.23-13-46.57-27.24-68.81-40.23q-.29,28.05-.59,56.11Z"/><path class="cls-12" d="M663.08,633S597.32,493.83,555.62,479.22L438.51,551.66s93.17,50.43,89.63,84.27"/><path class="cls-7" d="M658.91,634.7s-57.16-112.2-66-117.15l-1.08-2.72,59.28-7.11,59.14,27.09s17.67,47.09,31.86,45.08"/><path class="cls-17" d="M725.06,575.81a138,138,0,0,1-18.65-33.18,143.5,143.5,0,0,1-9.22-60.34l-1.39.55s66-13.31,79.29-.63a28.77,28.77,0,0,1,10.11-5.88c10.17-3.39,17.59.55,18.24.9l15.24,2.09-7.88,36.46,16.11,94"/><path class="cls-14" d="M1050.16,458.09c23.74-.94,39,10.68,48.21,20.6l6.31,29.95s68.88-.49,120.64-18.1L1041.91,563s-31.83-48.55-7.56-59-103.68,1.34-103.68,1.34l-43,17-21.12-10,55.14-26.3c31.81-3,57.66-7.56,74.84-12.86,25.52-7.87,36.84-14.44,53.64-15.11Z"/><path class="cls-1" d="M888,582.58c-17.33-30.6-18-69.49-18-69.5l21.8,5.5L930,503.52s36.61,25.92,37.38,32.38-29.41,24.47-16.47,36.25"/><path class="cls-1" d="M910,632.81c-20.89-31.13-15.05-74-15.05-74l32.91,1.84,62.5-24.71s51.91,22,51.82,29.12"/><path class="cls-5" d="M836.52,580.86c29.43-23.69,43.34-24.23,49.64-23l-.72-1.81c8.86,1.71,6.85,14.36,14.84,29.69"/><path class="cls-1" d="M978,588.31,1041.91,563s-14.34-51.19.25-65c0,0,1.12-7.35-112.2,5.46l-4.17,1.65s37.77,27,38.56,31.07c0,0-18.47,21.73-16.66,30"/><path class="cls-8" d="M44.32,2.51,3,37.55l-3,2.6V2.32"/><path class="cls-18" d="M89.62,303.42v0l-3.7,11.86-.07.21-.24.75,0,.07L3.1,385.95l-3,2.53L0,422.23V76.18l3,2.26,28,21q19.85,49,39.69,98.09L75.37,209l0,0,12.8,85,1.4,9.31v.09Z"/><path class="cls-1" d="M1050.15,458.09S939.58,496.4,922.39,487.87c0,0,50.2-70.31,16-77.5,0,0-41.45,20-93.52,3.63h0l59.34-37.88s90.94-18.83,95-5.1"/><path class="cls-5" d="M826.9,609.74,808,516.87c5.82-26.93,14.42-55,20.25-81.9l26.94-27.59h0c4.13,2.76,15.45,9.33,35,9.43,23.65.12,43.46-9.35,49.06-12.19,5.91,3.28,15.3,9.94,18.22,21.63,4.67,18.69-9.17,42.42-35,61.62L870,513.08s2.12,38.81,11.28,43.31-43.71,27.2-43.71,27.2"/><path class="cls-7" d="M111.73,324.41S64.87,205.6,82.23,175.93L70.31,198.4,88.2,294l-2.62,22.3Z"/><path class="cls-9" d="M343.5,251.94s52.67,116.12-13.43,159.29c0,0,31.42,98.78,5,115.77L366,551S376.84,435.9,345.4,412.28c0,0,62.16-79.55-1.9-160.34Z"/><path class="cls-7" d="M705.79,578.46s9-60-113.63-62.73l57.48-11.64,50.4,21.15,25,50.56"/><path class="cls-9" d="M149.48,328.93s20.94,93.27,2.08,103.21l35,14.08-8-26.5-14.73-37.26Z"/><path class="cls-5" d="M923.43,609.28S895.08,582,891.37,561.35a53.57,53.57,0,0,1-15.2-16.23c-7.28-12.33-7.06-24.7-6.13-32h0c-2.93,9.34-7.42,29.64,6.51,45.23a43.47,43.47,0,0,0,8.53,7.29"/><path class="cls-14" d="M904.17,376.12s-79.39,28.24-85.5,103.2c0,0-20.39-62.88,78.63-113.64a15.75,15.75,0,0,1,5,5.08,13.6,13.6,0,0,1,1.83,5.36Z"/><path class="cls-7" d="M181.25,97.19s-8.53,65.23-13.43,69.43c0,0,17,12.79,1.83,29.48,0,0,8.89-19.72-8-26.29l13.23-80.6Z"/><path class="cls-19" d="M363.62,61.52h0s-.1,5,1.55,7.6"/><path class="cls-20" d="M578.7,183.39l-12.92-6.87"/><path class="cls-21" d="M556.82,202.73q-.83-2.89-1.64-6"/><path class="cls-22" d="M681.47,259.85a36.56,36.56,0,0,1-7,3.85"/><path class="cls-21" d="M581.18,192.73h0"/></g></g></svg>