<?xml version="1.0" encoding="utf-8"?>
<!-- Generator: Adobe Illustrator 21.0.2, SVG Export Plug-In . SVG Version: 6.00 Build 0)  -->
<svg version="1.1" id="Layer_1" xmlns="http://www.w3.org/2000/svg" xmlns:xlink="http://www.w3.org/1999/xlink" x="0px" y="0px"
	 viewBox="0 0 1366 768" style="enable-background:new 0 0 1366 768;" xml:space="preserve">
<style type="text/css">
	.st0{fill:#636569;}
	.st1{fill:#797D80;}
	.st2{fill:#5F6164;}
</style>
<path class="st0" d="M239.6,3l7.8,8.9c0,0,2.3,36,6.2,36l22.2,38c0,0,0.6,19.6,0,23.2c-0.6,3.6,5.8,19.6,5.8,19.6l5.2,20.2
	c0,0,14.2,46.4,12.9,52.3c-1.3,5.9,3.9,34.5,3.9,34.5l11.7,48.8l2.6,13.1l5.2,10.7l6.5,3.6c0,0,35.6,55.3,38.2,51.8l7.4,2.1
	c0,0,6.1,27.7,8.4,28.9c2.3,1.2,24,21.1,24,21.1l8.2,50.5l3.6,3.9l3.2,40.2l-18.1,38.1l-51.1,39.3l-44.7,13.1h-47.6l-58.6-7.1
	l-14.2-20.2v-67.2l9.3-114.5L198,372l12.9-18.4l11.7-13.1c0,0-2.6-4.2-2.6-7.1c0-3,2.6-17.8,2.6-17.8l-2.6-5.9
	c0,0-3.9-35.7-0.6-35.7c3.2,0,0-28.6,0-28.6l3.2-7.7l-1.3-9.5l1.9-17.8l2.7-15.5v-16.7l3.1-9.5l0.6-26.2l1.3-19
	c0,0,2.6-14.9,7.8-22.6s-1.3-7.1-1.3-7.1l-1.9-6.5c0,0-16.3-59.4-8.6-67.7C234.7,11,239.6,3,239.6,3z"/>
<path class="st1" d="M239.6,3v37.2c0,0,23.8,49.3,23.8,57c0,7.7,0,42.2,0,42.2s2.6,37.5,0,40.5c-2.6,3,3.9,58.3,3.9,58.3
	s11,21.4,11,23.2c0,1.8,13,25,13,30.3c0,5.4-0.6,23.8-24.6,32.7c0,0-11,41-8.7,44.6c2.3,3.6-15.9-33.3-15.9-36.3
	c0-3,5.2-12.5,5.2-12.5s-0.6-13.1-5.2-6.5c-4.5,6.5-9.7,24.4-9.7,24.4s-8.4,12.5-12.3-4.8l2.6-17.8c0,0-9.4-23.2-3.2-41.6
	c6.1-18.4,1.3-3.5,1.3-3.5l-1.3-25l3.2-7.7l-1.3-9.5l4.6-33.3v-16.7l3.1-9.5c0,0-6.7-36.5,11.7-72.6c0,0-2-3.6-3.3-2.4
	c-1.3,1.2-1.9-8.6-1.9-8.6s-16.4-63.9-8.7-65.7L239.6,3z"/>
<path class="st0" d="M405.6,692.3l-34,0.6l-23,0.4h0l-40.7,0.7l-10.6-3l-57.4-16.5l-9.5-8.3l0,0l-36.5-32.1l-52.1,10.4l-35.1,7
	l-10.9,2.2l-95,5.3l-6.2,0.3l-9.5,0.5V534.4l9.5-4.5l11.4-5.4l5.8-22c0,0,23.3-30.9,35-33.9c11.7-3,24.8-47.3,24.8-47.3
	s27.2-60.1,25.2-66c-1.9-6,20-34.5,20-34.5l0-7.1c0,0-0.7-23.8,3.2-24.4c3.9-0.6,4.5-33.2,4.5-33.2l3.2-3c-0.1,0.3-1.1,3.5,3.9,2.9
	c5.2-0.6,15.5-36.9,15.5-36.9v-10.7l5.2-47.6l4.5-35.1c0,0,1.3-17.9,5.2-23.2c3.9-5.4-16-28.1-10.2-65.6c5.8-37.5,14.6,0,14.6,0
	l1.9,13.4l20.9,30.2l2.6,8.3l-1.3,29.7l0.7,8.3l2.6,13.1l-0.3,5v0l-0.4,6.9l2.9,36.9l0,0.3l3.9,50.2l4.2,9.5l-4.2,27.4v18.4
	l6.8,20.2l3.2,6.5l-10,22.6l5.5,13.1l0.7,2.9l0.3,1.6v0l7.4,33l14.8,66.3l7.7,35.1l10.4,41.1l29.1,34.7l7.8,9.3c0,0,0.3,0.1,0.8,0.3
	c3.5,1.4,17.3,7,22.5,9.1c1,0.4,1.7,0.6,1.9,0.7c0.9,0.3,6.6,2.9,12.6,5.7c7.1,3.3,14.6,6.8,14.6,6.8l22.7,25.6l18.8,31.5
	L405.6,692.3z"/>
<path class="st1" d="M196.3,189.1l3.9,50.2l4.2,9.5l-4.2,27.4v18.4l10,26.8l-10,22.6l5.5,13.1l-11.2,26.2l-6.4,16.1l-6.4,20.8
	l-9.9,56.2l-9.1,9.5l3.2,28.6l-2.6,8.9l0.6,10.1c0,0,5.2,1.2,7.8,1.2c2.6,0,3.9-3,3.9-3l1.9-5.9l3.9-1.2l5.8-6.5l3.8,1.2l6.4,4.8
	l2.8,7.1l-2.8,5.9v4.8l5.4-3.6h8.4l6,1.2l7.6-1.2l9.7,2.4l-5.7,3l-4.6,7.1l-7,1.8v8.3l7,10.1l1.9,5.4l23.3,3.6l3.2-5.4l22-1.8
	l8.4-6.5H302l-9.1,13.7l-6.5,0.6l-9.1,4.8H267l-9.7,1.8l-7.8,6.5l-16.2-4.2l-9.1-4.2l-11-8.2l-9.7-8.4c0,0-11.7,3-15.5,7.1
	c-3.9,4.2-9.7-3-9.7-3l-7.1-25.6l-18.8-8.9c0,0-17.5-11.9-19.4-27.4c-1.9-15.5,1.5-136.5,2.1-144.2c0.6-7.7,10.4-39.3,12.3-42.8
	c1.9-3.6,5.2-5.4,5.2-5.4l3.2-32.1l-3.2-10.7c0,0,3.9-25.6,4.5-29.2c0.6-3.6,7.8-6.5,7.8-6.5v-23.2c0,0,4.5-20.2,7.8-23.8
	c3.2-3.6,9.1-5.4,9.1-5.4l3.2-14.4l2.9-1.3l1.9-4.2l1.5-5.1l2.5-17.5L196.3,189.1z"/>
<path class="st0" d="M297.2,601.4l35.9-39.3l14.6-27.7l12.6-20.5l16.5-16.1c0,0,19.4-17.3,22.3-20.5c2.9-3.3,16.5-3.6,16.5-3.6
	l9.7,3.6l4.9-6.2l8.7,0.9l6.8,5.4l10.7,3.6l9.7,2.7l5.8,6.2v5.4l7.8,3.6l4.9,8l14.3,6l17.8-8.6l9.7-3.6l7.8,0.9l13.6,10.7l15.5,9.8
	l5.8,7.1l13.6,13.4l20.4,8.9l22.3,8.9c0,0,27.2,5.4,32,7.1c4.9,1.8,15.5,5.4,25.2,7.1c9.7,1.8,34,6.2,34,6.2l21.4,6.2l11.7,14.3
	v105.7l-452.5,3.1V601.4z"/>
<path class="st2" d="M1373.2,687.2c-1.3,2.4-2.4,4.7-3.5,7v83.7h-0.5l-9.7,0h-0.3l-10.7,0l-8.2,0l-2.2,0l-6.9,0l-605.6,2.5
	L507,781.4l7.5-14.3l0.1-0.1l30.8-58.5l23.2-44.1l22.1-21.4l5-3.6l36-25.9l44.2-10.2h120l41.1,10.2l44.2-5.1l34.7-5.1l53.7-10.2
	c8.6,4.9,17.1,7.7,25.3,0l22.1-11.2h97.9l15.8,8.1h45.8l38.5-0.1l28.7,12.9l63.2,20.7l31.2,29.9l28.5,27.3l2.6,2.5l0.5,0.4l0.6,0.6
	L1373.2,687.2z"/>
<path class="st0" d="M476.8,724.6l-1.1,3.2l-26.5,0.8c0,0-100.3-18.2-78.5,4.1c21.8,22.3-12.1,23.6-12.1,23.6l-6.8-0.6h0l-142-12.2
	L76,732l-81.2-7l-9.5-0.8l0-138.4l9.5-0.7l37.8-2.6l26.7,3.7l17-8.7l32.7-8.7c0,0,8.2,1.3,20.3,2.8c11.2,1.4,25.8,2.8,40.3,3.4
	c8.5,0.3,16.8,2.7,24.4,6c10,4.2,18.7,9.9,25,14.5h0l0,0c6.2,4.6,9.9,8.1,9.9,8.1h32.7l17,6.2l14.6,24.8l4.8,3.6l60.6,44.9l13.8,9.8
	l6.8,4.8c0,0,19.6,3.2,33.3,1.2h0c1.5-0.2,3-0.5,4.3-0.9c4.8-1.3,13.9,1.7,23.5,6.2c3.4,1.5,6.8,3.3,10.2,5h0
	C464.3,716.5,476.8,724.6,476.8,724.6z"/>
<polygon class="st2" points="478.2,768 41.2,768 34.2,768 -15,768 -15,747.7 -15,727.4 -14.8,621 83.2,620.5 179.5,656.2 
	179.5,666.9 201.2,683.6 223.9,692.8 239.5,699 264.6,705 288.3,718.1 313.4,718.1 341.1,724.7 341.1,724.7 388.5,736.1 
	475.6,757.1 475.6,757.1 "/>
<line class="st2" x1="1283.6" y1="791.1" x2="1356.9" y2="791.7"/>
<path class="st2" d="M291.3,788.6l-45.2-23.1h-26.5l-10.9-23l-17.1-7.7c0,0-11.1-6.9,5.3-8.6c16.4-1.7,14,0,14,0s5.8,0.2,7.6-0.8
	c1.8-1,6.4,0,6.4,0l8.8,6l3.5-2.3l6.4-6.9h16.9h25.1l11.1-5.2l14.6-6.3c0,0,19.9-2.9,24-2.9c4.1,0,16.4-5.8,16.4-5.8s7.6,0,9.9,0
	c2.3,0,14.6,0,14.6,0h30.4l18.7-12.1h21l23.4-9.2l26.9-24.2c0,0,12.9-10.4,16.4-11.5c3.5-1.2,31.6-9.2,31.6-9.2h18.7h31.6
	c0,0,10.5,3.5,19.9,8.1c9.3,4.6,21,8.1,30.4,15c9.4,6.9,22.2,9.2,30.4,23c8.2,13.8,61.8,103.5,61.8,103.5l-52.5,2.1L291.3,788.6z"/>
</svg>
