<svg id="Layer_1" data-name="Layer 1" xmlns="http://www.w3.org/2000/svg" viewBox="0 0 591.21 836.13"><defs><style>.cls-1{fill:#f8a04f;}.cls-2{fill:#345430;}.cls-3{fill:#591b23;}.cls-4{fill:#8a4544;}.cls-5{fill:#af4242;}.cls-6{fill:#f5e2a6;}.cls-7{fill:none;}.cls-8{fill:#93273a;}.cls-9{fill:#ea4640;}.cls-10{fill:#386933;}.cls-11{fill:#5f955a;}.cls-12{fill:#2e6130;}.cls-13{fill:#dfdbbb;}.cls-14{fill:#e8e7e6;}.cls-15{fill:#fff;}.cls-16{fill:#6d6f2b;}.cls-17{fill:#fffcfc;}.cls-18{fill:#245c2e;}.cls-19{fill:#122915;}.cls-20{fill:#1e361c;}.cls-21{fill:#e9893a;}.cls-22{fill:#8a653d;}.cls-23{fill:#98c480;}.cls-24{fill:#1b6735;}.cls-25{fill:#e1e2e2;}.cls-26{fill:#010101;}.cls-27{fill:#8a4645;}.cls-28{fill:#d4d1c7;}.cls-29{fill:#63141e;}.cls-30{fill:#843737;}.cls-31{fill:#c98385;}.cls-32{fill:#4e141b;}</style></defs><title>Moyak</title><g id="foot1"><path class="cls-1" d="M442.62,675.18l6.66,37.27s-21.48,14.08-38.86,11.74a23.22,23.22,0,0,1-7.18-2.13c-4.27-2.1-8-5.75-10.55-11.55,0,0-19.72,41.72,8,44.55S478.54,742.75,486.2,735l-7.92-68.32Z" transform="translate(-89.43 13.85)"/><polygon class="cls-2" points="354.67 697.33 358.43 718.36 392.89 715.31 389.61 687.1 354.67 697.33"/><path class="cls-3" d="M474.55,707.6S443.28,737,408,723.22c0,0,13.34,3.95,39.24-10.62l4.89-2.25Z" transform="translate(-89.43 13.85)"/><path class="cls-4" d="M449,710.83c19.72,9,33.82-5.15,33.82-5.15l-1.22-10.47c-18.47,13.37-34.45,5.25-34.45,5.25Z" transform="translate(-89.43 13.85)"/></g><g id="foot1-2" data-name="foot1"><path class="cls-1" d="M327.62,674.39l6.66,37.27s-21.48,14.08-38.86,11.74a23.22,23.22,0,0,1-7.18-2.13c-4.27-2.1-8-5.75-10.55-11.55,0,0-19.71,41.72,8,44.55S363.54,742,371.2,734.2l-7.92-68.32Z" transform="translate(-89.43 13.85)"/><polygon class="cls-2" points="239.67 696.54 243.44 717.58 277.89 714.52 274.62 686.31 239.67 696.54"/><path class="cls-3" d="M359.56,706.81S328.28,736.17,293,722.43c0,0,13.34,3.95,39.24-10.62l4.89-2.26Z" transform="translate(-89.43 13.85)"/><path class="cls-4" d="M334,710c19.72,9,33.82-5.16,33.82-5.16l-1.22-10.47c-18.47,13.37-34.45,5.25-34.45,5.25Z" transform="translate(-89.43 13.85)"/></g><path class="cls-5" d="M266.79,603.93c-6.31,1.26-10.07,19.91-6.62,35.82a49.77,49.77,0,0,0,17.4,28,46.43,46.43,0,0,0,27,9.85l40.39,4.13c17.09,1.29,30.47,2.35,38.68,3,13.7,1.1,27.6,3.19,45.78,2.55l21.35-.75A98.76,98.76,0,0,0,474.44,682c6.41-2.08,12.59-4.13,19.49-9.17a45.52,45.52,0,0,0,19.49-31.39,59.37,59.37,0,0,0,.12-14.72,89.88,89.88,0,0,0-3.07-17.11c-3.41,3-18,15.07-39.81,14.56A58.93,58.93,0,0,1,436,611.63a68,68,0,0,1-26.64-47.46c-4.28,18.87-21,32.19-39.64,32.08-17.12-.1-32.61-11.51-38.12-28.3a40.87,40.87,0,0,1-6.83,25.67c-9.67,14-25.18,16.44-28.8,17-4.47.69-11.44,1.77-18.87-1.33-6.28-2.62-7.47-6-10.29-5.38" transform="translate(-89.43 13.85)"/><path class="cls-1" d="M428.78,648.19C427.35,660,417.83,666.26,412,664.69c-4.9-1.33-9.08-8.68-8.08-17.49.9-6.63,2.16-15.7,3.67-26.48,1.39-9.93,2.8-20,4.66-32.73,1.33-9.11,3.13-21.18,5.34-35.5l-48.41,19.38L332,564.81c-16.11,156.26-55.82,83.06-55.82,83.06-4.3,111.57,80.12,40.06,80.12,40.06,10.71,19,31.16,28.43,47.66,24.07,21.65-5.71,37.19-35.33,24.85-63.8" transform="translate(-89.43 13.85)"/><path class="cls-6" d="M403.69,566.18a174.34,174.34,0,0,0-8.61,119s-22.51,5-37.41-29.46c0,0-18.21,31.45-44.69,24.16a190.93,190.93,0,0,0,16.34-29,196.27,196.27,0,0,0,17.25-75.79l25.82,6.46,31.28-15.39" transform="translate(-89.43 13.85)"/><path class="cls-1" d="M286.35,567.75a39.22,39.22,0,0,1-13.06,11.38c-14.14,7.58-28.49,3.84-31.9,2.85,13.2,21.49,36.2,32.76,56.1,28.59a44.6,44.6,0,0,0,28.74-18.45c3-3.8,6.94-9,7.66-16.75a28.4,28.4,0,0,0-3.12-15.44A55,55,0,0,1,312.17,568a55.78,55.78,0,0,1-25.82-.29" transform="translate(-89.43 13.85)"/><path class="cls-6" d="M320.95,566a47.64,47.64,0,0,1-7.72,12.58,48.38,48.38,0,0,1-19,13.48s-25.76,5.07-31.68-7.73A43.26,43.26,0,0,0,285,570a69.66,69.66,0,0,0,36-4" transform="translate(-89.43 13.85)"/><path class="cls-1" d="M408.83,563.92c.39,4.14,3.32,30.28,26.64,47.45,20.06,14.76,41.68,12.93,46.73,12.37a36.13,36.13,0,0,0,8.56-.78,35.32,35.32,0,0,0,4.63-1.33A50.66,50.66,0,0,0,510,609.38q.09-9.14.13-18.38,0-9.06,0-18A40.24,40.24,0,0,1,495.51,561a38.42,38.42,0,0,1-4.37-7.38c-1,.76-2.4,1.78-4.11,2.91a63,63,0,0,1-11.34,6.21A53.14,53.14,0,0,1,464.28,566a58.1,58.1,0,0,1-21.36.06,55.12,55.12,0,0,1-25.37-12.5" transform="translate(-89.43 13.85)"/><path class="cls-6" d="M428.14,561.17s25.14,64.87,81.95,25.75l0-14s-14.94-9.51-18.8-20.2h0s-23.48,26.08-63.16,8.4" transform="translate(-89.43 13.85)"/><polyline class="cls-7" points="0 0 591.21 0 591.21 836.13"/><path class="cls-1" d="M364.15,502.31s-42.25,19.77-43.63,20.29-5.64,49.1,50.52,73.87c0,0,54-33.49,66-79.35,0,0-66-9.89-72.89-14.81" transform="translate(-89.43 13.85)"/><path class="cls-8" d="M331.5,559.48s-8.64,14.75-46.68,9.36c3.21-5.43,6.44-11.35,9.58-17.75a257.9,257.9,0,0,0,11.23-26.59,35.05,35.05,0,0,0,17.63-3.94,72.85,72.85,0,0,0,.43,14.22,73.77,73.77,0,0,0,7.8,24.7" transform="translate(-89.43 13.85)"/><path class="cls-8" d="M434.31,519.05s27.23,2.61,46.35,2.43c0,0,9.13,26.15,12,33.13,0,0-34.17,31.74-77,1,0,0,13.26-15.59,18.61-36.59" transform="translate(-89.43 13.85)"/><path class="cls-9" d="M372.38,543.63c.77,8.74-1.28,16.07-4.57,16.36s-6.6-6.56-7.37-15.31,1.28-16.08,4.58-16.36,6.6,6.56,7.36,15.31" transform="translate(-89.43 13.85)"/><polyline class="cls-7" points="0 0 591.21 0 591.21 836.13"/><path class="cls-10" d="M268.88,517.3c-1.74,2.81-6.19,11.5-8.82,30.32a2.33,2.33,0,0,1-.24.74l-4,7.56a2.25,2.25,0,0,1-3.6.52C248.1,552.23,239.07,543,234,538.08a2.21,2.21,0,0,1,.44-3.44c3.29-2.12,6.22-10-6.62-38a2.27,2.27,0,0,0-1-1.05c-2.32-1.24-10.43-4.69-24.53-1.46a2.21,2.21,0,0,0-1.42,1c-2.76,4.68-16.1,28.35-14.75,47.91a2.27,2.27,0,0,0,.11.56c1,3.16,11.36,31.07,62.07,47,0,0,32,12.87,54.88-61.75a2.24,2.24,0,0,0,.09-.92l-1.08-9.39a2.26,2.26,0,0,0-2.22-2l-29.2-.27a2.24,2.24,0,0,0-1.93,1.06" transform="translate(-89.43 13.85)"/><path class="cls-10" d="M243.46,491s-2,14-2.32,25.54l-3.89,9.21s-6-14.13-25.9-40.49c0,0,9.93-3.29-8.28-40.32,0,0-13.9-6.44-23.5-5.51,0,0-19.86,19.79-23.17,37,0,0,16,55.42,93.6,87.5,0,0,17.63-6.55,19.62-47.68Z" transform="translate(-89.43 13.85)"/><polyline class="cls-7" points="0 0 591.21 0 591.21 836.13"/><path class="cls-10" d="M519.93,480.28c5.32,6,11.3,12.37,18,18.79,6.13,5.91,12.15,11.21,17.92,16l8.19,11.1s2.19,85,11,101.37c0,0-9.33-3-12.71,8.7,0,0-14.6,28.21,22.9,33.15,0,0,62.43,13.89,45.46-41.55,0,0-20.8-87.65-36.39-117.94l-5.61-8.72c-1.89-4.92-4-10-6.48-15.21a231.9,231.9,0,0,0-23.37-39.21,69,69,0,0,1-8.8,12.49,70.41,70.41,0,0,1-23.15,17.12Z" transform="translate(-89.43 13.85)"/><path class="cls-10" d="M478.85,508s13.08,25.16,24,31.12l7,11.92s-7,84.75,0,102c0,0-9-4-13.58,7.28,0,0-17.54,26.48,19.21,35.42,0,0,60.58,20.53,49.65-36.42,0,0-11.25-89.38-23.5-121.16l-4.64-9.27s-7.11-26.4-17.13-47.3c0,0-36.37,17.45-41.9,16.82Z" transform="translate(-89.43 13.85)"/><polyline class="cls-7" points="0 0 591.21 0 591.21 836.13"/><path class="cls-1" d="M285.75,569.28s-25.13-9.09-24.93-26.37c0,0-24.71,10.8,15.38,37.87l4.52-5Z" transform="translate(-89.43 13.85)"/><path class="cls-1" d="M262,536.67s-14.53-2.12-20.72-23.69a5.61,5.61,0,0,0-6,2.64s3.41,9.68,1.8,14.66c0,0,7.34,15.84,19.29,16.7l4.15-2.2Z" transform="translate(-89.43 13.85)"/><path class="cls-1" d="M497.88,535.31l5,3.79S527.05,545.51,535,522l-1.81-5.84s16,5.14,7.49,20.06a37.83,37.83,0,0,1-8.47,8.44,39.57,39.57,0,0,1-22.45,7.17,13.71,13.71,0,0,1-6.57-2.7c-6.08-4.75-5.35-13.12-5.27-13.85" transform="translate(-89.43 13.85)"/><path class="cls-1" d="M551.72,512.45l4.87,3.7s23.74,6.26,31.51-16.68l-1.78-5.7s15.68,5,7.34,19.59a36.78,36.78,0,0,1-8.31,8.24,38.89,38.89,0,0,1-22,7,13.42,13.42,0,0,1-6.45-2.64c-6-4.64-5.25-12.81-5.18-13.53" transform="translate(-89.43 13.85)"/><polyline class="cls-7" points="0 0 591.21 0 591.21 836.13"/><path class="cls-5" d="M304.92,518.75H271.16s-78-64.55-72.75-121.41c0,0,19.34,34.07,51,36.52,0,0,8.84,29.52,26.47,42.93h25.57Z" transform="translate(-89.43 13.85)"/><path class="cls-8" d="M301.44,476.79H275.87c-21.6-17.13-28.06-50.9-28.06-50.9,17.38,14.15,49.4,10,49.4,10s4.72,32,4.23,40.9" transform="translate(-89.43 13.85)"/><path class="cls-1" d="M268.43,434.79s11.66,26.11,15.88,29.59c0,0,5,1.7,16.63,1.72l.5,10.7H275.87s-23.83-20.36-28.06-50.9c0,0,11.46,7.6,20.62,8.89" transform="translate(-89.43 13.85)"/><path class="cls-1" d="M198.41,397.34s-1.9,9.1,2.44,24.8c5.93,21.51,23.24,55.51,70.31,96.61h33.76l-1.14-16.29-29.13-3.65s-39.3-41.87-50.69-74.24c0,0-15.12-12-22.43-22.43-1.18-1.69-2.22-3.28-3.12-4.8" transform="translate(-89.43 13.85)"/><polyline class="cls-7" points="0 0 591.21 0 591.21 836.13"/><path class="cls-8" d="M476.74,404s25.82-19.55,44.2-43.21c0,0,6.45,51.37-7.95,75.93-4.68,2.89-9.81,5.82-15.4,8.66a213.51,213.51,0,0,1-22.52,9.88Z" transform="translate(-89.43 13.85)"/><path class="cls-1" d="M504,379.82s4,19.88-5.3,45.44l-23.14,14.15q-.25,7.92-.51,15.85c4.09-1.72,10.23-4.42,17.54-8.08,8.62-4.31,15.61-8.33,17.06-9.25,17.79-11.25,12.21-68,11.26-77.14Z" transform="translate(-89.43 13.85)"/><path class="cls-5" d="M521.15,370.75a119.55,119.55,0,0,0,19.07-21.6,122,122,0,0,0,20.31-54.41,138.7,138.7,0,0,1,8,17.38c24.13,63.3-4.5,128.14-20.1,157.42,0,0-49.23,26.82-73.85,32.77q-.37-23.52-.74-47c4.88-2,9.94-4.3,15.13-6.8,8.08-3.9,15.5-7.93,22.29-11.93,1.16-2.21,2.27-4.53,3.3-7,9.2-21.52,9-42.74,6.55-58.83" transform="translate(-89.43 13.85)"/><path class="cls-1" d="M550.68,330.48a261.15,261.15,0,0,1-20.11,123.75,197.54,197.54,0,0,1-56.78,28q.42,10,.83,20.05,10.15-3.21,20.86-7.28a377.28,377.28,0,0,0,53.11-25.22A253,253,0,0,0,572.86,406c7.77-33.69,8.46-75.78-12.34-111.29-1,4.92-1.49,10.38-2.94,15.69-2,7.33-4.64,13.71-6.9,20" transform="translate(-89.43 13.85)"/><polyline class="cls-7" points="0 0 591.21 0 591.21 836.13"/><path class="cls-10" d="M288,392.87S347.08,330.3,480.66,374c0,0-4,122.66,0,147.48,0,0-53.63,2-117.19-16.88,0,0-51.64,26.82-59.09,23.34,0,0-10.43-132.09-16.39-135.07" transform="translate(-89.43 13.85)"/><path class="cls-11" d="M421.39,517.26s-42.53-18.12-45.5-23.09c0,0,52.14-2,59.09,7.94,0,0,28.31-11.53,32.28-49.71,0,0-11.42,17.44-94.85,9.49,0,0-7,11.42-24.33,6.46,0,0-20.36,12.41-44.69-2,0,0-1,19.86,19.36,35.75,0,0,17.88-5.46,26.32-5.46,0,0-6.34,13.7-25.26,26.46,0,0,30.73-14,39.67-18.52,0,0,9,2.92,20.2,5.41,5.57,1.24,11.64,2.67,17.27,3.76,10.1,2,18.76,3.25,20.45,3.49" transform="translate(-89.43 13.85)"/><path class="cls-4" d="M334.17,490.7s26.92-19.12,74.66-10.92l3.55-8.58s-59.76-3.09-80.53,13.55Z" transform="translate(-89.43 13.85)"/><path class="cls-12" d="M372.4,456a14,14,0,1,1-14-14,14,14,0,0,1,14,14" transform="translate(-89.43 13.85)"/><path class="cls-13" d="M335.77,463.17c-.26.31-2.87,3.56-1.81,7s5.75,6.12,10.79,4.81l32.9-7.6c6.21-.6,9.7-4.81,9.19-7.67-.35-2-2.76-3.67-5.56-4.4,8.94-2.29,16.1,2.59,16.68,7.36.43,3.45-2.48,7.41-6.86,9.79-6.26,2.24-11.61,3.9-15.66,5.07A235.08,235.08,0,0,1,350.28,483a29.39,29.39,0,0,1-9.43.47,27.29,27.29,0,0,1-12.8-5.54,8.59,8.59,0,0,1,7.72-14.79" transform="translate(-89.43 13.85)"/><path class="cls-14" d="M380.18,421s41-5.63,58.26-17.22c0,0,12.91,2.32,15.56,5.29,0,0-3,21.23-9.27,34.29,0,0-59.18.32-71.34,12.59,0,0,15.81-14.26,6.79-35" transform="translate(-89.43 13.85)"/><path class="cls-15" d="M344.35,463.14a83.41,83.41,0,0,1-5.71-29.55s-8.2,1.74-8.69-4.71c0,0-25.09-1.4-35.63-4.3,0,0,1.53,13.33,2.82,24.51.72,6.28,1.77,11.82,1.45,14.05,0,0,19-11.92,45.77,0" transform="translate(-89.43 13.85)"/><path class="cls-16" d="M408.12,445.67s-2.8-29.21,4.33-31.34c0,0,13.06-4.14,15.06-5,0,0,8,2.09,7.72,34.27,0,0-2.5.07-6.26.29s-8.72.58-13.78,1c-2.33.22-4.89.39-7.07.71" transform="translate(-89.43 13.85)"/><path class="cls-16" d="M335.39,459.91a74,74,0,0,0-.22-17,80.32,80.32,0,0,0-2.95-13.77,57.39,57.39,0,0,0-6.19-.51l-1.27-.09c-1.43-.13-2.79-.22-4.1-.32-.16,0-.31,0-.48,0a46.78,46.78,0,0,0-4.88,14.11,46.29,46.29,0,0,0,0,15.83,53.65,53.65,0,0,1,18.3,1.34c.61.15,1.21.29,1.79.45" transform="translate(-89.43 13.85)"/><path class="cls-10" d="M313.56,458.14s-14.24-17.33-12.64-22.19c0,0,.94-3.34,8.35-8.85l-14.92-2.58,2.27,20.93,2,17.69s13.57-4.84,15.09-4.83Z" transform="translate(-89.43 13.85)"/><path d="M419.1,444.62v-20s.16-2.65,2.31-2.65c0,0,1.15-.16,1.9,2.65s1.49,19.59,1.49,19.59l-2.65.21Z" transform="translate(-89.43 13.85)"/><path d="M323.54,457.94l1.58-18.9s.36-2.51,2.41-2.34c0,0,1.12-.05,1.6,2.68s-.14,19.15-.14,19.15l-2.44-.32-.17,0Z" transform="translate(-89.43 13.85)"/><path class="cls-17" d="M432.9,422.4a4.75,4.75,0,1,1-4.75-4.75,4.75,4.75,0,0,1,4.75,4.75" transform="translate(-89.43 13.85)"/><path class="cls-17" d="M324.32,439.47a3.81,3.81,0,1,1-3.8-3.58,3.69,3.69,0,0,1,3.8,3.58" transform="translate(-89.43 13.85)"/><path class="cls-18" d="M329.94,428.88s18.73-8.69-13.23-32.78c0,0-16.81,14.4-28.73-3.23,0,0,17.87-14.16,27.56-18.38a47.07,47.07,0,0,1,12.7,6.27,48.62,48.62,0,0,1,16.36,20,26.06,26.06,0,0,1,3.33,15.79,26.47,26.47,0,0,1-9.29,17s-7.7,2-8.69-4.71" transform="translate(-89.43 13.85)"/><path class="cls-18" d="M384.32,358.62a70.83,70.83,0,0,0-11.42,12.5,71.83,71.83,0,0,0-11.67,26.46,33.69,33.69,0,0,0,.25,13.32,34.21,34.21,0,0,0,9.18,16.6S377,429,380.18,421c0,0-18.21-17,24.25-41.05,0,0,16.27,15,41.28-15.44,0,0-41-9.1-61.39-5.89" transform="translate(-89.43 13.85)"/><path class="cls-19" d="M367.59,424a58.62,58.62,0,0,1,1.68-18.44c7.67-29.86,37.14-43.55,43.11-46.18-5-.39-10.34-.67-15.89-.77-4.2-.08-8.26-.06-12.17,0-1.78,1.64-30.87,29.16-22.35,55.11A32.67,32.67,0,0,0,367.59,424" transform="translate(-89.43 13.85)"/><path class="cls-19" d="M316.54,374c20.65,10.44,33.27,27.23,31.38,42.59a27.07,27.07,0,0,1-4.46,11.68,38.69,38.69,0,0,0-2.41-18c-9.08-22.82-37.91-27-39.77-27.21q3-1.93,6.25-3.86,4.58-2.75,9-5.16" transform="translate(-89.43 13.85)"/><path class="cls-20" d="M438.45,403.79l41.44-28.49A78.91,78.91,0,0,1,454,409.09a30.51,30.51,0,0,0-8.06-3.57c-2.14-.65-4.58-1.13-7.5-1.73" transform="translate(-89.43 13.85)"/><path class="cls-20" d="M467.25,409.35,454,409.09c-.17,2.48-.94,5.09-1.39,8-.33,2.07-.84,4.12-1.37,6.37-1.74,7.44-3.61,13.86-5.94,18.7a63.89,63.89,0,0,0,11.44-11.68,64.6,64.6,0,0,0,10.51-21.12" transform="translate(-89.43 13.85)"/><path class="cls-20" d="M301.11,435.84s-1-.42,8.16-8.74l-14.92-2.58s.65,9.29,6.76,11.32" transform="translate(-89.43 13.85)"/><path class="cls-20" d="M313.56,458.14s-13.24-17-12.64-22.19a41.4,41.4,0,0,0-5.39-.72l1.1,10.22s5.83,11.86,16.94,12.7" transform="translate(-89.43 13.85)"/><polyline class="cls-7" points="0 0 591.21 0 591.21 836.13"/><polyline class="cls-7" points="0 0 591.21 0 591.21 836.13"/><path class="cls-21" d="M292.14,406.52s-25.16,2.1-12.29-19.25c0,0,3.47-3-9.66-12.65a186.56,186.56,0,0,1,83.68-43.71l33.73-3.39a173.08,173.08,0,0,1,102.61,25.24,22.86,22.86,0,0,1-2.41,12.16s11.43,18.63-7.41,17.13l.22-7.45S366.5,327.92,288.51,393.48c0,0,2.26,1.93,3.62,13" transform="translate(-89.43 13.85)"/><path class="cls-22" d="M308,379.74c-.85.94,9.15-8.79-15.8-22.36l-3.75,2.56s22.92,11.82,16.14,21.84l1.48-.91Z" transform="translate(-89.43 13.85)"/><path class="cls-22" d="M348.7,332s14.11,13.34,7.77,30l-4.69.91a26.81,26.81,0,0,0-7.29-29.81Z" transform="translate(-89.43 13.85)"/><path class="cls-22" d="M420.69,360.83s-8.19-12.65,4.18-31.94l-4.35-.58s-9.93,16.89-3.89,31.7Z" transform="translate(-89.43 13.85)"/><path class="cls-22" d="M465.15,369.29s-9.49-11.28,3.34-27.94l-4.88-2S451.9,357,460.48,368.57Z" transform="translate(-89.43 13.85)"/><polyline class="cls-7" points="0 0 591.21 0 591.21 836.13"/><path class="cls-10" d="M255,351.63c-4.07-6.68-18.38-31.93-11.84-62.51.81-3.75,5.11-23.88,18.7-36.47a112.6,112.6,0,0,1,18.23-13.09s1.23-.72,3-1.69c0,0,3.23-1.75,6.34-3.22s55.74-19.31,77.84,7.71c17.15,21,5.48,56.31-8.07,75.39-20.79,29.25-61.51,42-104.22,33.87" transform="translate(-89.43 13.85)"/><path class="cls-11" d="M329.71,318.55a42,42,0,0,0-10.59-9.38,43,43,0,0,0-22.44-6.31,12,12,0,0,0,3.43-8.06,11.58,11.58,0,0,0-1.67-6.08,8.18,8.18,0,0,0,3.68-3.21c1.6-2.71,1.63-6.7,0-7.71s-5.32.77-8.59,4.91c-.58-.43-6.53-4.71-13.21-2.41a14,14,0,0,0-6.78,5.22,17.71,17.71,0,0,0-2.45,6.48,23.73,23.73,0,0,0-.52,4.08l-8.11,1A14.09,14.09,0,0,0,253,286a13.57,13.57,0,0,0-9.29.7,86.87,86.87,0,0,0-.72,33.91,89.73,89.73,0,0,0,8.25,24.3c1.41,2.78,2.75,5,3.77,6.7l4.76-3.68a62.33,62.33,0,0,0,9-27.1L301.28,340c.73-1.14,1.85-2.85,3.29-4.87,2.37-3.32,4.42-5.82,4.89-6.36,4.9-5.73,17.38-9.39,20.25-10.2" transform="translate(-89.43 13.85)"/><path class="cls-23" d="M295.43,289.73a3.22,3.22,0,0,0,.83.07,5.21,5.21,0,0,0,1.43-.36l1.12-.36a8.55,8.55,0,0,0,1.62-1.06,9.15,9.15,0,0,0,1.68-2c1.29-2.11,1.91-7.09,0-8.27-1.66-1-5.43.72-8.59,4.91-.62-.49-5.71-4.38-12.13-2.75a14.11,14.11,0,0,0-7.86,5.55,19.21,19.21,0,0,0-2.45,7,28,28,0,0,0-.52,4.08h-8c-.1-.42-2-8.18-9.24-10.5a13.81,13.81,0,0,0-9.61.6c-.32,1.36-.63,2.79-.91,4.29s-.46,2.68-.63,3.94a3.83,3.83,0,0,0,2.79.27c.12,0,3.69-.28,4.31-.33s5.17.67,6.54,1.9a15.68,15.68,0,0,1,3.78,2.66q1.42.06,2.89.16l2.27.17h.09c.95,0,3.91-.08,4.45-.13a9.2,9.2,0,0,1,2.18-1.14,9.3,9.3,0,0,1,2.07-.49,6.73,6.73,0,0,1,.63-.75c.77-.77,5.2-2.4,5.73-2.5,2.23-.43,3.3-.82,3.59-.88a51.77,51.77,0,0,0,11.92-4.17" transform="translate(-89.43 13.85)"/><polygon class="cls-10" points="169.65 362.64 177.91 331.84 209.46 354.64 169.65 362.64"/><path class="cls-18" d="M251.28,371.05s-3.86-16.48,8.07-22.79,27-5.26,36.46-6.66,5.26-8.06,19.29-17.18,41-7.37,44.18-6.67,12.27,15.08,2.46,20-11.22-1.75-22.79,2.1-16.13,10.17-21,17.53-18.58,10.52-30.51,10.17-8.77,14-18.93,14-17.18-10.52-17.18-10.52" transform="translate(-89.43 13.85)"/><path class="cls-24" d="M263,307.56s5.83-3.38,9.54-3l-1.92-18.1s-1.48-3.21-5.83-1.2S263,307.56,263,307.56" transform="translate(-89.43 13.85)"/><path class="cls-25" d="M295.63,288.66c2.57,3-.39,12.2-6.89,15.08-6.87,3-16-1.75-16.25-5.61-.19-3,5-5.57,8.13-7.15,1.31-.65,12-5.86,15-2.32" transform="translate(-89.43 13.85)"/><path class="cls-25" d="M244.55,295.5c-1.77,2.81.6,10.12,5.36,11.72,5,1.69,11.49-3.42,11.56-6.66.06-2.52-3.73-4-6-5-1-.38-8.78-3.41-10.87-.1" transform="translate(-89.43 13.85)"/><path class="cls-24" d="M268.8,320.84a32.73,32.73,0,0,1,0,8.83,36.82,36.82,0,0,1-7.92,17.28,23.53,23.53,0,0,1-1.84,1.84c-1.81,1.69-2.74,2.53-3.6,2.36-.66-.12-1.09-.75-2-2a13.68,13.68,0,0,1-1.23-2.21c-.55-1.29-1.44-3.18-3-6.12a29.5,29.5,0,0,0,3.92-2.5,30.27,30.27,0,0,0,7.18-7.75l3.12-9.07,5.29-.65" transform="translate(-89.43 13.85)"/><path class="cls-26" d="M293.72,295.09c.14,2.25-2.22,4.23-5.29,4.43s-5.67-1.47-5.81-3.71,2.22-4.24,5.29-4.43,5.67,1.47,5.81,3.72" transform="translate(-89.43 13.85)"/><path class="cls-26" d="M259.71,301.46c-.28,1.87-2.64,3.06-5.28,2.66s-4.55-2.23-4.27-4.09,2.65-3.05,5.29-2.66,4.55,2.23,4.27,4.09" transform="translate(-89.43 13.85)"/><path class="cls-24" d="M268.8,320.84a22.92,22.92,0,0,0,3,8.66c6.69,11.1,20.84,12.15,22.73,12.26a10.11,10.11,0,0,0,4.32-1,10.65,10.65,0,0,0,2.79-2,13.34,13.34,0,0,0,2-2.37c1.65-2.43,3.08-4.93,4-6.65,0,0-17.87.17-21.9-2.83l-12-6.72-5,.62" transform="translate(-89.43 13.85)"/><path class="cls-27" d="M252.79,322.6c.17-1.3,1.86-13,10.42-16.88,12.29-5.55,29.47,9.19,29,17.7-.47,7.95-14,3.51-23.37-2.57l-3.34.7c-.39,5.32-3.15,9-5.94,9.2a5.9,5.9,0,0,1-3.93-1.66,8.69,8.69,0,0,1-2.81-6.49" transform="translate(-89.43 13.85)"/><path class="cls-12" d="M256.13,312.53a16.09,16.09,0,0,1,7.08-6.81c4.92-2.35,9.46-1.26,11.91-.68,3.48.84,8.58,3,8.41,5-.07.86-1.06,1.49-2,1.91a31.54,31.54,0,0,1-6.34,2c-2.69.56-2.11.07-7.55.7h0a30.25,30.25,0,0,1-7.29,0,6.36,6.36,0,0,1-2.69-.7,5.11,5.11,0,0,1-1.57-1.49" transform="translate(-89.43 13.85)"/><path class="cls-28" d="M254.05,309a6.58,6.58,0,0,0,.85,2.28,7.23,7.23,0,0,0,4.12,3.08,43.88,43.88,0,0,0,10,.11A43,43,0,0,0,285,309.67c1.81-2.44,2.06-3.84,1.88-4.69,0-.13-.06-.24,0-.27.42-.4,6.52,5.65,3.85,9.36-2.92,4-5.41,4.77-9.87,5.25s-24.27,3.09-24.27,3.09a7.73,7.73,0,0,1-5.32-4.2,7.9,7.9,0,0,1,2.85-9.17" transform="translate(-89.43 13.85)"/><path class="cls-10" d="M359.42,304.08c-1.6-6.28-7.21-31.32,6.87-55.75a74.34,74.34,0,0,1,23.84-24.54c6.21-4,33-19.92,63.93-9.47,29.54,10,41.12,36.38,44.42,43.95,14.61,33.54,2.25,65-.51,71.53a415.9,415.9,0,0,1-66.72-6.28,416.41,416.41,0,0,1-71.83-19.43" transform="translate(-89.43 13.85)"/><path class="cls-11" d="M505.44,289.89h0s-.57-.65-10.84-9.48h.4a8,8,0,0,0,3.74-1.07,7.47,7.47,0,0,0,1.89-1.6,9.45,9.45,0,0,0,1.62-2.58c.81-2,.45-3.95,0-6.22a40.07,40.07,0,0,0-1.67-5.26c-.72-2-1.35-3.58-1.62-4.28-.93-2.26-2.26-5.28-4.11-8.82-1-.37-8.62-3.06-15.94,1.37a18.56,18.56,0,0,0-8.71,16.84l-11.25.67-2.09-12.77s.87,5.31,1,6a21.16,21.16,0,0,0-6.47-14.85,20.28,20.28,0,0,0-17.88-5,18.93,18.93,0,0,0-6.37,2.71c-.68-3.39-3.22-5.81-6-6a5.52,5.52,0,0,0-5.14,2.57c-1.21,2.3.26,5,1.09,6.47a11.58,11.58,0,0,0,3.12,3.59c-4.3,5.92-4.93,13.32-1.63,18.7a15.43,15.43,0,0,0,8.18,6.31,68.85,68.85,0,0,0-42.78,33.2c.41.54,3.83,4.87,9.12,4.67a10,10,0,0,0,4.68-1.4,42.68,42.68,0,0,1,15-8.18,40.78,40.78,0,0,1,4.91-1.17,34.35,34.35,0,0,1,19,4.62,33.3,33.3,0,0,1,8.7,7.48l-.13,0c.11.07.2.16.3.24a5.74,5.74,0,0,1,.74.56h.32c7.77-.36,21.68-24.42,21.68-24.42-.7,5.38,11.25,22.66,11.25,22.66,14.28,4.2,18.64,13.57,18.64,13.57a97.4,97.4,0,0,0,4.32-12.83A96.08,96.08,0,0,0,505,301.74a93.49,93.49,0,0,0,.43-11.85" transform="translate(-89.43 13.85)"/><path class="cls-10" d="M468.79,288.64,440,320l45.06-1.42Z" transform="translate(-89.43 13.85)"/><path class="cls-23" d="M498.28,260.11c.55-1.53,0-2.93-.66-4.77a16.49,16.49,0,0,0-2.77-4.76,19,19,0,0,0-15.12.91,18.76,18.76,0,0,0-9.65,16.42l-10.7,1.55s-1.19-9.81-2.08-12.71v0a20.13,20.13,0,0,0-23.37-13.91,18.85,18.85,0,0,0-6.37,2.71c-.86-3.32-3.28-5.71-6-6-2.06-.21-4.8.71-5.57,2.57a5.6,5.6,0,0,0-.12,2.8,11.08,11.08,0,0,0,.88,3.28,18.35,18.35,0,0,0,1.53,2.14,18.08,18.08,0,0,0,1.68,1.78c.9.83,1.85,1.67,2.87,2.51q1.18,1,2.34,1.89a50,50,0,0,0,3.92,4.25,31.23,31.23,0,0,0,3.24,2.8,26.3,26.3,0,0,0,2.72,1.76A57.71,57.71,0,0,0,457.54,271a44.75,44.75,0,0,0,13.9.23c7.17-1,7.8-3,13.89-3,2.37,0,5,.36,7.27-1.31a8.19,8.19,0,0,0,2.8-3.95,5.35,5.35,0,0,0,2.87-2.86" transform="translate(-89.43 13.85)"/><path class="cls-27" d="M433.75,307.9s-9.12-20.18,17.53-34.67a25.83,25.83,0,0,1,16.14-3.39c12.11,1.69,20.71,13.1,23.09,22.74,1.83,7.38,1,17.56.33,17.61a.11.11,0,0,1-.07,0c-.63-.59-13.79-13.09-14.26-19.63l-15.79-.23c-3.8,3-8,6.05-12.68,9.11-5,3.27-9.79,6.08-14.29,8.5" transform="translate(-89.43 13.85)"/><path class="cls-23" d="M457.52,258.18c0-.21-.06-.39-.09-.56l.09.56" transform="translate(-89.43 13.85)"/><path class="cls-23" d="M458.19,262.25c-.07-.42-.14-.83-.2-1.23.08.48.15.91.2,1.23" transform="translate(-89.43 13.85)"/><path class="cls-23" d="M458,260.91c-.13-.78-.25-1.52-.35-2.15l.35,2.15" transform="translate(-89.43 13.85)"/><path class="cls-24" d="M433.73,307.9a113.88,113.88,0,0,0,25.48-17.49l9.58.12a45.55,45.55,0,0,1-5.28,11.69,47,47,0,0,1-17.69,16.19l-12.1-10.5" transform="translate(-89.43 13.85)"/><path class="cls-24" d="M468.79,290.52s-3.31,14.6,9.56,24.25l8.91,6.84L498,329.79l3.8-10.34a72.49,72.49,0,0,1-24.86-29.22l-8.12.29" transform="translate(-89.43 13.85)"/><path class="cls-24" d="M456.63,270.88s-.33-17.46,5.45-19.12,10.39,3.46,10.12,11a70.14,70.14,0,0,0,0,9.51H456.63Z" transform="translate(-89.43 13.85)"/><path class="cls-12" d="M485.5,285.85a7.26,7.26,0,0,1,2.64.48c-3.86-7.78-11.21-15.15-20.75-16.49a25.87,25.87,0,0,0-16.14,3.39,42.17,42.17,0,0,0-13.55,11c2.87.24,5.73.58,8.57,1.09a62.23,62.23,0,0,1,10.7,3.36h.12c7.75,0,15.48-.29,23.23-.49a6.42,6.42,0,0,1,5.18-2.32" transform="translate(-89.43 13.85)"/><path class="cls-25" d="M452.29,266.68c.12,4.33-10,10.81-18.29,7.93s-12.24-14.13-9.41-17.57,13.08.64,17.08,2.26c5.07,2,10.53,4.25,10.62,7.39" transform="translate(-89.43 13.85)"/><path class="cls-25" d="M498.54,261.77a5.14,5.14,0,0,0-.47-2.16,4,4,0,0,0-1.29-1.46c-.5-.07-1-.14-1.58-.17a18.66,18.66,0,0,0-4.49.23,49.6,49.6,0,0,0-9.19,3.62c-3.73,1.92-5.6,2.89-5.91,4.32-.85,3.94,7.63,12.11,14.74,10,4.84-1.41,8.41-6.76,8.17-13a12.54,12.54,0,0,0,0-1.4" transform="translate(-89.43 13.85)"/><path class="cls-26" d="M494.58,269.28a5.36,5.36,0,1,1-5.36-5.36,5.36,5.36,0,0,1,5.36,5.36" transform="translate(-89.43 13.85)"/><path class="cls-26" d="M440.61,261.86a5.81,5.81,0,1,1-5.81,5.81,5.81,5.81,0,0,1,5.81-5.81" transform="translate(-89.43 13.85)"/><path class="cls-28" d="M439,272.78a9.33,9.33,0,0,0,8.5,8.57c8.16,1.09,34.12.63,34.12.63a7.4,7.4,0,0,0,4.15-1.38,7.76,7.76,0,0,0,3-5.5s5.92,8.44.89,15.28c0,0-46.82,3.28-52.57-2s-1.16-13.11,1.92-15.63" transform="translate(-89.43 13.85)"/><path class="cls-18" d="M347,322.31s3.74-20.57,19.17-19.17,22.44,11.15,30.39,9.55,15.43-12,26.18-9.62,18.7,10.36,22.44,14.1,18.7,0,24.31-1.87S491.86,319,498,329.79s9.79,21.51,0,27.58S475.1,348,467.15,348s-14.49,4.68-17.76,4.68-28.52-16.36-36-15-19.64,10.52-35.53,3.86-22.44-4.33-30.85-19.29" transform="translate(-89.43 13.85)"/><path class="cls-18" d="M377,238.16s-24.18,39.25-3.86,67c0,0-16.71-9.57-24.41,13.32,0,0,23-53-4.89-71.75h0s10.67,11.37,33.16-8.59" transform="translate(-89.43 13.85)"/><path class="cls-10" d="M275.58,213.15c-13.1-31.84-7.22-68,15.08-92.7,29.43-32.55,72-27.95,76-27.45,8.27,1,35,5.14,56.1,27.7C455.21,155.43,445,202.34,444,206.39a423.45,423.45,0,0,1-76.51,11.49,423.51,423.51,0,0,1-91.91-4.73" transform="translate(-89.43 13.85)"/><path class="cls-11" d="M275.58,213.15a49.15,49.15,0,0,1,3.74-20,50,50,0,0,1,17.54-21.62s-13.8-4.91-9.53-24.54c0,0-6.94-5.85-4.84-10.87s9.46,3.51,9.46,3.51c1.17-.7,9.16-5.31,18.58-2.1a22.42,22.42,0,0,1,11.92,9.82l13.67.7a27.27,27.27,0,0,1,10.17-13.68,24.66,24.66,0,0,1,10.17-4.21A26.46,26.46,0,0,1,363,130a27.33,27.33,0,0,1,6.49,1.4c5.08-5.29,9.85-8,11.92-6.66,1.75,1.14,1.33,5,1.23,6A12.36,12.36,0,0,1,379,138c.67.66,7.46,7.58,5.73,17a18.59,18.59,0,0,1-5.78,10.23,45.93,45.93,0,0,1,16.21,6.48c14.46,9.36,19,24.2,20.24,28.78l-4.9,0-49.61,12.63-27.71-38.77-9.48,1-15.43,32.47-32.65,5.29" transform="translate(-89.43 13.85)"/><polygon class="cls-10" points="239.13 185.97 215.57 224.67 268.54 227.02 239.13 185.97"/><path class="cls-18" d="M274.35,247.89s-20.85-5.52-8.7-26.56,76.67-12.16,85.09-9.35,23.84.35,29-4.27,37.87-13.62,67.32,0,6.08,16.48,6.08,16.48S442.84,219,434,226.47A38.8,38.8,0,0,1,397,233.2c-14.12-4.65-30.27,17.59-41.32,18.52s-27-17.77-40.75-15-35.6,13.37-40.6,11.13" transform="translate(-89.43 13.85)"/><path class="cls-23" d="M381.36,124.73c-2.08-1.36-6.84,1.37-11.92,6.66A27.38,27.38,0,0,0,363,130a26.46,26.46,0,0,0-6.49.17,24.66,24.66,0,0,0-10.17,4.21A27.27,27.27,0,0,0,336.13,148l-13.68-.7a22.44,22.44,0,0,0-11.92-9.82c-9.42-3.2-17.41,1.4-18.58,2.1,0,0-7.37-8.53-9.46-3.51S287.33,147,287.33,147a9.79,9.79,0,0,0,1.93,1.52,9.91,9.91,0,0,0,3.62,1.29,23.67,23.67,0,0,0,5.74,4.49,24.36,24.36,0,0,0,12.56,3,24.55,24.55,0,0,0,14.89-3.16l6.9.12a19.49,19.49,0,0,0,18.35,1.87,12.65,12.65,0,0,0,4.56-.84c3-1.18,13.18-7.84,14.38-8.9,1-.85,2-1.6,3.07-2.57,1.73-1.54,3.13-2.94,4.18-4.06a14.18,14.18,0,0,0,5.08-9.07c.12-1.16.5-4.83-1.23-6" transform="translate(-89.43 13.85)"/><path class="cls-27" d="M314.92,189.18c-1,.37-9,3.32-13.75-.84a8.41,8.41,0,0,1-2.56-4.17c-1.92-8.16,13-24.67,30.15-25.75,12.88-.81,25.6,7.16,33,20A9.11,9.11,0,0,1,361,185c-3,5-11.49,4-14.47,3.68-3.51-.4-10.06-1.15-13.25-6.49a12.88,12.88,0,0,1-1.61-7.68l-6.16.66a13.72,13.72,0,0,1-2.26,8.28,13.92,13.92,0,0,1-8.37,5.69" transform="translate(-89.43 13.85)"/><path class="cls-24" d="M322.92,159.74h12.74s1.64-27.93-6.54-27.93-6.55,22.09-6.19,27.93" transform="translate(-89.43 13.85)"/><path class="cls-12" d="M308.21,172a16.29,16.29,0,0,0,2.34.54c4.88.71,10.7-.28,15.61-.39,5.67-.14,11.4-.12,17.05-.46a50.65,50.65,0,0,0,11.84-2.44c-7.24-7.39-16.65-11.61-26.17-11-8.78.55-17,5.15-22.6,10.6a7.56,7.56,0,0,1,1.92,3.17" transform="translate(-89.43 13.85)"/><path class="cls-24" d="M322.15,175.55l6.4-.66a38.17,38.17,0,0,1-2.92,15.65,38.92,38.92,0,0,1-14.23,17.17L295.2,210c4.13-4.51,8.36-9.42,12.62-14.77,5.4-6.78,10.16-13.38,14.33-19.65" transform="translate(-89.43 13.85)"/><path class="cls-24" d="M328.56,174.89a60.15,60.15,0,0,0,5.08,15.81A61.28,61.28,0,0,0,350.74,212a40.11,40.11,0,0,0,24-1.48,89,89,0,0,1-38.84-36.43l-7.39.82" transform="translate(-89.43 13.85)"/><path class="cls-28" d="M308.42,161.48s-4.49,3.28-3.19,8.08,3.71,6.39,8.56,6.56,36.44-3.74,36.44-3.74,5.64-1.14,5.53-5.54-1.15-8.69-5.37-9.67c0,0,2.22,7.88-2.52,9.07s-33.6,3.27-33.6,3.27-6.9.53-5.85-8" transform="translate(-89.43 13.85)"/><path class="cls-25" d="M319,158.52c-.66,5.46-11,10.67-18.85,7.39s-11.34-14.43-7.9-18.64,13.15-.89,14.1-.56c5.26,1.78,13.29,6.67,12.66,11.81" transform="translate(-89.43 13.85)"/><path class="cls-25" d="M341.48,154.93c.64,6.41,12.63,12.76,21.86,9.12s13.62-16.59,9.72-21.6-15.35-1.37-16.48-1c-6.19,2-15.71,7.47-15.1,13.5" transform="translate(-89.43 13.85)"/><path class="cls-26" d="M313.84,155.34a6.24,6.24,0,1,1-6.24-6.24,6.24,6.24,0,0,1,6.24,6.24" transform="translate(-89.43 13.85)"/><path class="cls-26" d="M369.55,151.46a6.9,6.9,0,1,1-6.9-6.9,6.9,6.9,0,0,1,6.9,6.9" transform="translate(-89.43 13.85)"/><path class="cls-29" d="M415.36,85.28c0,15.49-13.08,28.05-29.22,28.05s-29.22-12.56-29.22-28.05,13.08-28,29.22-28,29.22,12.56,29.22,28" transform="translate(-89.43 13.85)"/><path class="cls-30" d="M405.44,81c0,13.12-9.75,23.75-21.78,23.75S361.89,94.1,361.89,81s9.75-23.75,21.77-23.75S405.44,67.86,405.44,81" transform="translate(-89.43 13.85)"/><path class="cls-31" d="M385.22,72.94a8,8,0,1,1-8-8.52,8.26,8.26,0,0,1,8,8.52" transform="translate(-89.43 13.85)"/><path class="cls-32" d="M394.85,59.23s9.9-34.47,29.92-45.62l6.1,10.31s-23.72,14.12-30.66,38.15Z" transform="translate(-89.43 13.85)"/></svg>