<svg id="Layer_13" data-name="Layer 13" xmlns="http://www.w3.org/2000/svg" viewBox="0 0 1920 1080"><defs><style>.cls-1{fill:none;}.cls-10,.cls-100,.cls-101,.cls-102,.cls-103,.cls-104,.cls-105,.cls-106,.cls-107,.cls-108,.cls-109,.cls-11,.cls-110,.cls-111,.cls-112,.cls-113,.cls-114,.cls-115,.cls-116,.cls-117,.cls-118,.cls-119,.cls-12,.cls-120,.cls-121,.cls-122,.cls-123,.cls-124,.cls-125,.cls-126,.cls-127,.cls-128,.cls-129,.cls-13,.cls-130,.cls-131,.cls-132,.cls-133,.cls-134,.cls-14,.cls-15,.cls-16,.cls-17,.cls-18,.cls-19,.cls-2,.cls-20,.cls-21,.cls-22,.cls-23,.cls-24,.cls-25,.cls-26,.cls-27,.cls-28,.cls-29,.cls-3,.cls-30,.cls-31,.cls-32,.cls-33,.cls-34,.cls-35,.cls-36,.cls-37,.cls-38,.cls-39,.cls-4,.cls-40,.cls-41,.cls-42,.cls-43,.cls-44,.cls-45,.cls-46,.cls-47,.cls-48,.cls-49,.cls-5,.cls-50,.cls-51,.cls-52,.cls-53,.cls-54,.cls-55,.cls-56,.cls-57,.cls-58,.cls-59,.cls-6,.cls-60,.cls-61,.cls-62,.cls-63,.cls-64,.cls-65,.cls-66,.cls-67,.cls-68,.cls-69,.cls-7,.cls-70,.cls-71,.cls-72,.cls-73,.cls-74,.cls-75,.cls-76,.cls-77,.cls-78,.cls-79,.cls-8,.cls-80,.cls-81,.cls-82,.cls-83,.cls-84,.cls-85,.cls-86,.cls-87,.cls-88,.cls-89,.cls-9,.cls-90,.cls-91,.cls-92,.cls-93,.cls-94,.cls-95,.cls-96,.cls-97,.cls-98,.cls-99{fill:#fff;stroke:#fff;stroke-miterlimit:10;}.cls-2{stroke-width:0.05px;}.cls-3{stroke-width:0.04px;}.cls-4{stroke-width:0.07px;}.cls-5{stroke-width:0.04px;}.cls-6{stroke-width:0.05px;}.cls-7{stroke-width:0.08px;}.cls-8{stroke-width:0.07px;}.cls-9{stroke-width:0.08px;}.cls-10{stroke-width:0.08px;}.cls-11{stroke-width:0.11px;}.cls-12{stroke-width:0.09px;}.cls-13{stroke-width:0.11px;}.cls-14{stroke-width:0.09px;}.cls-15{stroke-width:0.07px;}.cls-16{stroke-width:0.06px;}.cls-17{stroke-width:0.1px;}.cls-18{stroke-width:0.06px;}.cls-19{stroke-width:0.06px;}.cls-20{stroke-width:0.07px;}.cls-21{stroke-width:0.05px;}.cls-22{stroke-width:0.07px;}.cls-23{stroke-width:0.1px;}.cls-24{stroke-width:0.07px;}.cls-25{stroke-width:0.08px;}.cls-26{stroke-width:0.07px;}.cls-27{stroke-width:0.06px;}.cls-28{stroke-width:0.04px;}.cls-29{stroke-width:0.07px;}.cls-30{stroke-width:0.12px;}.cls-31{stroke-width:0.07px;}.cls-32{stroke-width:0.1px;}.cls-33{stroke-width:0.08px;}.cls-34{stroke-width:0.11px;}.cls-35{stroke-width:0.04px;}.cls-36{stroke-width:0.11px;}.cls-37{stroke-width:0.08px;}.cls-38{stroke-width:0.06px;}.cls-39{stroke-width:0.04px;}.cls-40{stroke-width:0.08px;}.cls-41{stroke-width:0.12px;}.cls-42{stroke-width:0.05px;}.cls-43{stroke-width:0.06px;}.cls-44{stroke-width:0.09px;}.cls-45{stroke-width:0.1px;}.cls-46{stroke-width:0.1px;}.cls-47{stroke-width:0.05px;}.cls-48{stroke-width:0.09px;}.cls-49{stroke-width:0.04px;}.cls-50{stroke-width:0.08px;}.cls-51{stroke-width:0.09px;}.cls-52{stroke-width:0.07px;}.cls-53{stroke-width:0.08px;}.cls-54{stroke-width:0.1px;}.cls-55{stroke-width:0.09px;}.cls-56{stroke-width:0.1px;}.cls-57{stroke-width:0.08px;}.cls-58{stroke-width:0.05px;}.cls-59{stroke-width:0.05px;}.cls-60{stroke-width:0.06px;}.cls-61{stroke-width:0.05px;}.cls-62{stroke-width:0.1px;}.cls-63{stroke-width:0.1px;}.cls-64{stroke-width:0.05px;}.cls-65{stroke-width:0.04px;}.cls-66{stroke-width:0.05px;}.cls-67{stroke-width:0.07px;}.cls-68{stroke-width:0.11px;}.cls-69{stroke-width:0.11px;}.cls-70{stroke-width:0.04px;}.cls-71{stroke-width:0.1px;}.cls-72{stroke-width:0.05px;}.cls-73{stroke-width:0.08px;}.cls-74{stroke-width:0.07px;}.cls-75{stroke-width:0.11px;}.cls-76{stroke-width:0.11px;}.cls-77{stroke-width:0.05px;}.cls-78{stroke-width:0.1px;}.cls-79{stroke-width:0.08px;}.cls-80{stroke-width:0.07px;}.cls-81{stroke-width:0.09px;}.cls-82{stroke-width:0.08px;}.cls-83{stroke-width:0.06px;}.cls-84{stroke-width:0.11px;}.cls-85{stroke-width:0.05px;}.cls-86{stroke-width:0.05px;}.cls-87{stroke-width:0.07px;}.cls-88{stroke-width:0.04px;}.cls-89{stroke-width:0.1px;}.cls-90{stroke-width:0.09px;}.cls-91{stroke-width:0.14px;}.cls-92{stroke-width:0.11px;}.cls-93{stroke-width:0.11px;}.cls-94{stroke-width:0.09px;}.cls-95{stroke-width:0.08px;}.cls-96{stroke-width:0.07px;}.cls-97{stroke-width:0.08px;}.cls-98{stroke-width:0.07px;}.cls-99{stroke-width:0.11px;}.cls-100{stroke-width:0.09px;}.cls-101{stroke-width:0.13px;}.cls-102{stroke-width:0.09px;}.cls-103{stroke-width:0.1px;}.cls-104{stroke-width:0.06px;}.cls-105{stroke-width:0.09px;}.cls-106{stroke-width:0.09px;}.cls-107{stroke-width:0.12px;}.cls-108{stroke-width:0.1px;}.cls-109{stroke-width:0.05px;}.cls-110{stroke-width:0.07px;}.cls-111{stroke-width:0.07px;}.cls-112{stroke-width:0.11px;}.cls-113{stroke-width:0.12px;}.cls-114{stroke-width:0.12px;}.cls-115{stroke-width:0.05px;}.cls-116{stroke-width:0.1px;}.cls-117{stroke-width:0.08px;}.cls-118{stroke-width:0.12px;}.cls-119{stroke-width:0.1px;}.cls-120{stroke-width:0.09px;}.cls-121{stroke-width:0.06px;}.cls-122{stroke-width:0.12px;}.cls-123{stroke-width:0.12px;}.cls-124{stroke-width:0.06px;}.cls-125{stroke-width:0.06px;}.cls-126{stroke-width:0.09px;}.cls-127{stroke-width:0.13px;}.cls-128{stroke-width:0.06px;}.cls-129{stroke-width:0.13px;}.cls-130{stroke-width:0.13px;}.cls-131{stroke-width:0.07px;}.cls-132{stroke-width:0.1px;}.cls-133{stroke-width:0.1px;}.cls-134{stroke-width:0.07px;}</style></defs><title>star</title><rect class="cls-1" x="480.18" y="494.44" width="3.57" height="3.04"/><polygon class="cls-2" points="483.61 496.94 483.07 496.01 483.7 495.12 482.46 495.25 481.62 494.49 481.39 495.5 480.25 495.92 481.35 496.41 481.47 497.43 482.39 496.73 483.61 496.94"/><rect class="cls-1" x="1154.46" y="436.52" width="2.86" height="2.44"/><polygon class="cls-3" points="1157.21 438.52 1156.78 437.78 1157.28 437.07 1156.28 437.17 1155.61 436.56 1155.43 437.37 1154.51 437.7 1155.39 438.1 1155.49 438.92 1156.22 438.35 1157.21 438.52"/><rect class="cls-1" x="446.89" y="554.05" width="4.79" height="4.08"/><polygon class="cls-4" points="451.49 557.4 450.77 556.16 451.62 554.97 449.95 555.14 448.82 554.12 448.51 555.47 446.98 556.03 448.45 556.69 448.62 558.06 449.85 557.12 451.49 557.4"/><rect class="cls-1" x="359.77" y="379.47" width="2.99" height="2.54"/><polygon class="cls-5" points="362.63 381.56 362.19 380.78 362.71 380.04 361.67 380.15 360.97 379.51 360.78 380.35 359.82 380.7 360.74 381.11 360.85 381.97 361.61 381.38 362.63 381.56"/><rect class="cls-1" x="1156.82" y="190.65" width="3.79" height="3.22"/><polygon class="cls-6" points="1160.46 193.3 1159.89 192.32 1160.55 191.38 1159.24 191.52 1158.35 190.7 1158.1 191.78 1156.89 192.22 1158.05 192.74 1158.19 193.82 1159.16 193.07 1160.46 193.3"/><rect class="cls-1" x="1325.66" y="429.58" width="5.99" height="5.09"/><polygon class="cls-7" points="1331.41 433.77 1330.51 432.21 1331.56 430.72 1329.48 430.94 1328.07 429.66 1327.68 431.35 1325.76 432.05 1327.61 432.87 1327.82 434.59 1329.35 433.4 1331.41 433.77"/><rect class="cls-1" x="642.61" y="503.1" width="4.99" height="4.25"/><polygon class="cls-8" points="647.4 506.59 646.65 505.29 647.53 504.05 645.79 504.24 644.62 503.17 644.3 504.58 642.7 505.16 644.23 505.85 644.41 507.28 645.69 506.29 647.4 506.59"/><rect class="cls-1" x="1145" y="53.16" width="5.48" height="4.66"/><polygon class="cls-9" points="1150.26 56.99 1149.44 55.57 1150.4 54.2 1148.49 54.41 1147.21 53.23 1146.86 54.78 1145.1 55.42 1146.79 56.18 1146.98 57.74 1148.38 56.66 1150.26 56.99"/><rect class="cls-1" x="1305.98" y="163.63" width="5.45" height="4.63"/><polygon class="cls-10" points="1311.21 167.44 1310.39 166.02 1311.35 164.67 1309.45 164.87 1308.18 163.7 1307.83 165.24 1306.08 165.88 1307.76 166.63 1307.95 168.19 1309.34 167.11 1311.21 167.44"/><rect class="cls-1" x="1489.61" y="251.47" width="8.09" height="6.89"/><polygon class="cls-11" points="1497.38 257.13 1496.16 255.03 1497.59 253.01 1494.77 253.31 1492.87 251.58 1492.35 253.87 1489.75 254.81 1492.24 255.93 1492.54 258.24 1494.6 256.64 1497.38 257.13"/><rect class="cls-1" x="1632.44" y="382.24" width="6.11" height="5.2"/><polygon class="cls-12" points="1638.3 386.52 1637.38 384.93 1638.46 383.41 1636.33 383.64 1634.9 382.33 1634.51 384.06 1632.55 384.77 1634.43 385.61 1634.65 387.36 1636.21 386.15 1638.3 386.52"/><rect class="cls-1" x="899.57" y="539.12" width="7.84" height="6.67"/><polygon class="cls-13" points="907.1 544.61 905.92 542.57 907.3 540.61 904.57 540.9 902.74 539.22 902.23 541.44 899.71 542.36 902.13 543.44 902.41 545.68 904.41 544.13 907.1 544.61"/><rect class="cls-1" x="1566.59" y="187.35" width="6.64" height="5.64"/><polygon class="cls-14" points="1572.95 191.99 1571.96 190.27 1573.13 188.62 1570.82 188.86 1569.26 187.44 1568.83 189.32 1566.7 190.09 1568.75 191 1568.98 192.9 1570.68 191.59 1572.95 191.99"/><rect class="cls-1" x="1765.12" y="329.3" width="5.36" height="4.56"/><polygon class="cls-15" points="1770.26 333.05 1769.46 331.66 1770.4 330.32 1768.54 330.52 1767.28 329.37 1766.93 330.89 1765.21 331.51 1766.86 332.25 1767.06 333.79 1768.42 332.73 1770.26 333.05"/><rect class="cls-1" x="894.2" y="420.72" width="3.99" height="3.39"/><polygon class="cls-16" points="898.03 423.51 897.43 422.47 898.14 421.48 896.75 421.63 895.81 420.77 895.55 421.9 894.27 422.36 895.5 422.91 895.65 424.06 896.66 423.27 898.03 423.51"/><rect class="cls-1" x="1740.34" y="75.16" width="7.44" height="6.33"/><polygon class="cls-17" points="1747.48 80.37 1746.36 78.43 1747.67 76.58 1745.08 76.86 1743.34 75.26 1742.86 77.37 1740.47 78.23 1742.76 79.26 1743.03 81.39 1744.93 79.92 1747.48 80.37"/><rect class="cls-1" x="1168.1" y="535.28" width="4.61" height="3.92"/><polygon class="cls-18" points="1172.53 538.51 1171.84 537.31 1172.65 536.16 1171.05 536.34 1169.96 535.35 1169.66 536.65 1168.18 537.19 1169.61 537.83 1169.77 539.15 1170.95 538.24 1172.53 538.51"/><rect class="cls-1" x="1811.73" y="125.63" width="3.93" height="3.35"/><polygon class="cls-19" points="1815.51 128.39 1814.91 127.37 1815.61 126.39 1814.24 126.53 1813.31 125.69 1813.06 126.8 1811.8 127.26 1813.01 127.8 1813.15 128.93 1814.15 128.15 1815.51 128.39"/><rect class="cls-1" x="1423.71" y="497.9" width="4.73" height="4.03"/><polygon class="cls-20" points="1428.25 501.21 1427.54 499.98 1428.37 498.81 1426.72 498.98 1425.62 497.97 1425.31 499.3 1423.79 499.86 1425.25 500.51 1425.42 501.86 1426.63 500.93 1428.25 501.21"/><rect class="cls-1" x="1265.74" y="442.3" width="3.82" height="3.25"/><polygon class="cls-21" points="1269.4 444.98 1268.83 443.98 1269.5 443.03 1268.17 443.17 1267.28 442.35 1267.03 443.43 1265.81 443.88 1266.98 444.41 1267.12 445.5 1268.09 444.75 1269.4 444.98"/><rect class="cls-1" x="1384.61" y="715.86" width="5.13" height="4.36"/><polygon class="cls-22" points="1389.53 719.45 1388.76 718.12 1389.66 716.84 1387.88 717.03 1386.68 715.93 1386.34 717.38 1384.7 717.98 1386.28 718.68 1386.46 720.15 1387.77 719.14 1389.53 719.45"/><rect class="cls-1" x="1212.32" y="559.22" width="7.45" height="6.33"/><polygon class="cls-23" points="1219.47 564.43 1218.35 562.49 1219.66 560.64 1217.07 560.91 1215.32 559.32 1214.84 561.43 1212.45 562.29 1214.75 563.32 1215.02 565.45 1216.91 563.98 1219.47 564.43"/><rect class="cls-1" x="1866.67" y="354.47" width="5.03" height="4.28"/><polygon class="cls-24" points="1871.49 357.99 1870.74 356.68 1871.62 355.43 1869.87 355.62 1868.69 354.54 1868.37 355.96 1866.75 356.55 1868.3 357.24 1868.48 358.68 1869.77 357.69 1871.49 357.99"/><rect class="cls-1" x="1834.86" y="610.8" width="5.9" height="5.02"/><polygon class="cls-25" points="1840.53 614.93 1839.64 613.39 1840.68 611.92 1838.63 612.14 1837.24 610.88 1836.86 612.55 1834.96 613.23 1836.78 614.05 1837 615.74 1838.5 614.57 1840.53 614.93"/><rect class="cls-1" x="1104.29" y="686.1" width="4.95" height="4.21"/><polygon class="cls-26" points="1109.05 689.57 1108.3 688.28 1109.18 687.04 1107.45 687.23 1106.29 686.16 1105.97 687.57 1104.38 688.14 1105.91 688.83 1106.09 690.25 1107.35 689.27 1109.05 689.57"/><rect class="cls-1" x="877.43" y="436.61" width="4.13" height="3.52"/><polygon class="cls-27" points="881.4 439.5 880.78 438.43 881.5 437.4 880.07 437.55 879.1 436.67 878.83 437.83 877.5 438.32 878.78 438.89 878.92 440.07 879.98 439.25 881.4 439.5"/><rect class="cls-1" x="1508.25" y="242.98" width="3.21" height="2.73"/><polygon class="cls-28" points="1511.33 245.23 1510.85 244.39 1511.41 243.59 1510.29 243.71 1509.54 243.02 1509.33 243.93 1508.3 244.31 1509.29 244.75 1509.41 245.67 1510.22 245.03 1511.33 245.23"/><rect class="cls-1" x="1534.25" y="536.68" width="4.97" height="4.23"/><polygon class="cls-29" points="1539.03 540.16 1538.28 538.87 1539.15 537.63 1537.42 537.82 1536.26 536.75 1535.93 538.16 1534.34 538.74 1535.87 539.42 1536.05 540.85 1537.32 539.86 1539.03 540.16"/><rect class="cls-1" x="729.48" y="600.08" width="8.39" height="7.14"/><polygon class="cls-30" points="737.53 605.96 736.27 603.78 737.75 601.69 734.83 602 732.86 600.2 732.32 602.57 729.63 603.55 732.21 604.71 732.51 607.11 734.65 605.45 737.53 605.96"/><rect class="cls-1" x="1218.86" y="245.3" width="5.21" height="4.43"/><polygon class="cls-31" points="1223.87 248.94 1223.08 247.59 1224 246.29 1222.18 246.48 1220.96 245.37 1220.63 246.84 1218.95 247.45 1220.56 248.17 1220.75 249.66 1222.08 248.63 1223.87 248.94"/><rect class="cls-1" x="1351.42" y="578.67" width="7.22" height="6.15"/><polygon class="cls-32" points="1358.35 583.73 1357.26 581.85 1358.54 580.05 1356.02 580.32 1354.33 578.77 1353.86 580.81 1351.54 581.65 1353.77 582.65 1354.03 584.72 1355.87 583.29 1358.35 583.73"/><rect class="cls-1" x="536.11" y="815.34" width="5.93" height="5.05"/><polygon class="cls-33" points="541.8 819.5 540.91 817.96 541.96 816.48 539.89 816.7 538.5 815.43 538.12 817.1 536.21 817.8 538.04 818.62 538.25 820.31 539.77 819.14 541.8 819.5"/><rect class="cls-1" x="472.58" y="641.33" width="8" height="6.8"/><polygon class="cls-34" points="480.25 646.93 479.05 644.85 480.46 642.86 477.68 643.16 475.8 641.44 475.28 643.71 472.72 644.64 475.18 645.74 475.47 648.03 477.51 646.45 480.25 646.93"/><rect class="cls-1" x="926.83" y="324.75" width="2.91" height="2.48"/><polygon class="cls-35" points="929.62 326.79 929.18 326.03 929.69 325.31 928.68 325.42 928 324.79 927.81 325.62 926.88 325.95 927.77 326.36 927.88 327.19 928.62 326.61 929.62 326.79"/><rect class="cls-1" x="1043.53" y="443.91" width="7.84" height="6.67"/><polygon class="cls-36" points="1051.05 449.4 1049.88 447.36 1051.26 445.41 1048.53 445.7 1046.69 444.02 1046.18 446.23 1043.66 447.15 1046.08 448.23 1046.36 450.48 1048.36 448.93 1051.05 449.4"/><rect class="cls-1" x="1209.64" y="520.42" width="5.58" height="4.75"/><polygon class="cls-37" points="1215 524.33 1214.16 522.88 1215.14 521.49 1213.2 521.7 1211.89 520.5 1211.53 522.08 1209.74 522.73 1211.46 523.5 1211.66 525.1 1213.09 524 1215 524.33"/><rect class="cls-1" x="1109.49" y="202.21" width="3.97" height="3.38"/><polygon class="cls-38" points="1113.3 204.99 1112.7 203.96 1113.4 202.97 1112.02 203.11 1111.09 202.26 1110.83 203.39 1109.56 203.85 1110.78 204.4 1110.92 205.53 1111.94 204.75 1113.3 204.99"/><rect class="cls-1" x="1320.25" y="507.57" width="3.07" height="2.61"/><polygon class="cls-39" points="1323.19 509.72 1322.73 508.92 1323.27 508.16 1322.2 508.27 1321.49 507.61 1321.29 508.48 1320.3 508.84 1321.25 509.26 1321.36 510.14 1322.14 509.53 1323.19 509.72"/><rect class="cls-1" x="591.63" y="685.7" width="5.71" height="4.85"/><polygon class="cls-40" points="597.11 689.69 596.25 688.21 597.26 686.79 595.27 687 593.93 685.78 593.56 687.39 591.73 688.06 593.49 688.84 593.7 690.48 595.15 689.35 597.11 689.69"/><rect class="cls-1" x="1077.31" y="68.08" width="8.34" height="7.09"/><polygon class="cls-41" points="1085.31 73.92 1084.06 71.75 1085.53 69.67 1082.62 69.98 1080.67 68.19 1080.13 70.55 1077.45 71.52 1080.02 72.67 1080.32 75.06 1082.45 73.41 1085.31 73.92"/><rect class="cls-1" x="1190.43" y="216.81" width="3.9" height="3.32"/><polygon class="cls-42" points="1194.17 219.54 1193.59 218.53 1194.27 217.56 1192.92 217.7 1192.01 216.87 1191.75 217.97 1190.5 218.42 1191.7 218.96 1191.84 220.08 1192.84 219.31 1194.17 219.54"/><rect class="cls-1" x="1348.02" y="293.51" width="3.99" height="3.4"/><polygon class="cls-43" points="1351.86 296.3 1351.26 295.26 1351.96 294.27 1350.57 294.42 1349.63 293.56 1349.38 294.69 1348.09 295.16 1349.32 295.71 1349.47 296.85 1350.49 296.06 1351.86 296.3"/><rect class="cls-1" x="1564.47" y="312.12" width="6.32" height="5.37"/><polygon class="cls-44" points="1570.53 316.54 1569.58 314.9 1570.69 313.33 1568.49 313.56 1567.01 312.21 1566.6 313.99 1564.58 314.73 1566.52 315.6 1566.75 317.41 1568.36 316.16 1570.53 316.54"/><rect class="cls-1" x="1864.62" y="573.44" width="7.13" height="6.07"/><polygon class="cls-45" points="1871.47 578.43 1870.39 576.58 1871.65 574.8 1869.17 575.06 1867.5 573.54 1867.03 575.55 1864.74 576.39 1866.94 577.37 1867.2 579.41 1869.02 578 1871.47 578.43"/><rect class="cls-1" x="1193.28" y="858.46" width="7.22" height="6.14"/><polygon class="cls-46" points="1200.21 863.51 1199.12 861.64 1200.39 859.84 1197.88 860.11 1196.19 858.56 1195.72 860.6 1193.4 861.44 1195.63 862.44 1195.89 864.51 1197.73 863.08 1200.21 863.51"/><rect class="cls-1" x="912.09" y="595.57" width="3.55" height="3.02"/><polygon class="cls-47" points="915.49 598.05 914.96 597.13 915.58 596.24 914.35 596.38 913.52 595.62 913.29 596.62 912.15 597.03 913.24 597.52 913.37 598.54 914.27 597.84 915.49 598.05"/><rect class="cls-1" x="811.9" y="480.15" width="6.72" height="5.71"/><polygon class="cls-48" points="818.34 484.85 817.33 483.11 818.51 481.43 816.18 481.68 814.6 480.24 814.17 482.14 812.01 482.92 814.08 483.85 814.32 485.77 816.04 484.45 818.34 484.85"/><rect class="cls-1" x="1588.41" y="165.41" width="2.89" height="2.46"/><polygon class="cls-49" points="1591.18 167.43 1590.75 166.68 1591.26 165.96 1590.25 166.07 1589.58 165.45 1589.39 166.26 1588.46 166.6 1589.35 167 1589.46 167.83 1590.19 167.26 1591.18 167.43"/><rect class="cls-1" x="1785.9" y="252.28" width="5.72" height="4.86"/><polygon class="cls-50" points="1791.39 256.28 1790.53 254.79 1791.53 253.37 1789.54 253.58 1788.2 252.36 1787.83 253.97 1786 254.64 1787.76 255.43 1787.97 257.07 1789.42 255.94 1791.39 256.28"/><rect class="cls-1" x="1002.89" y="35.93" width="6.12" height="5.21"/><polygon class="cls-51" points="1008.76 40.21 1007.84 38.62 1008.92 37.1 1006.79 37.32 1005.36 36.01 1004.96 37.74 1003 38.46 1004.88 39.3 1005.1 41.05 1006.66 39.84 1008.76 40.21"/><rect class="cls-1" x="1477.53" y="587.21" width="4.8" height="4.08"/><polygon class="cls-52" points="1482.14 590.57 1481.41 589.32 1482.26 588.13 1480.59 588.3 1479.46 587.27 1479.15 588.63 1477.61 589.19 1479.09 589.85 1479.27 591.23 1480.49 590.28 1482.14 590.57"/><rect class="cls-1" x="957.87" y="726.64" width="5.58" height="4.75"/><polygon class="cls-53" points="963.23 730.55 962.39 729.1 963.37 727.71 961.43 727.91 960.12 726.72 959.75 728.29 957.96 728.95 959.68 729.72 959.88 731.31 961.31 730.21 963.23 730.55"/><rect class="cls-1" x="806.06" y="95.2" width="7.25" height="6.16"/><polygon class="cls-54" points="813.02 100.28 811.93 98.39 813.2 96.59 810.68 96.85 808.98 95.3 808.51 97.35 806.19 98.2 808.42 99.19 808.68 101.27 810.53 99.84 813.02 100.28"/><rect class="cls-1" x="1052.53" y="22.59" width="6.59" height="5.61"/><polygon class="cls-55" points="1058.85 27.2 1057.86 25.49 1059.02 23.85 1056.73 24.09 1055.18 22.68 1054.76 24.55 1052.64 25.31 1054.67 26.22 1054.91 28.11 1056.59 26.81 1058.85 27.2"/><rect class="cls-1" x="1794.16" y="165.34" width="7.11" height="6.05"/><polygon class="cls-56" points="1800.98 170.31 1799.92 168.47 1801.17 166.7 1798.69 166.96 1797.03 165.44 1796.57 167.45 1794.29 168.28 1796.47 169.25 1796.73 171.29 1798.55 169.89 1800.98 170.31"/><rect class="cls-1" x="1229.94" y="891.38" width="5.43" height="4.62"/><polygon class="cls-57" points="1235.15 895.18 1234.33 893.77 1235.29 892.41 1233.4 892.62 1232.13 891.45 1231.77 892.99 1230.03 893.62 1231.7 894.37 1231.9 895.93 1233.29 894.85 1235.15 895.18"/><rect class="cls-1" x="998.99" y="780.59" width="3.77" height="3.21"/><polygon class="cls-58" points="1002.61 783.23 1002.04 782.25 1002.71 781.31 1001.39 781.45 1000.51 780.64 1000.26 781.71 999.05 782.15 1000.22 782.67 1000.35 783.75 1001.31 783 1002.61 783.23"/><rect class="cls-1" x="666.34" y="590.93" width="3.39" height="2.89"/><polygon class="cls-59" points="669.6 593.3 669.09 592.42 669.69 591.58 668.5 591.7 667.71 590.98 667.49 591.94 666.4 592.33 667.45 592.8 667.57 593.77 668.43 593.1 669.6 593.3"/><rect class="cls-1" x="1024.89" y="44.23" width="3.95" height="3.36"/><polygon class="cls-60" points="1028.68 46.99 1028.08 45.97 1028.78 44.98 1027.4 45.13 1026.48 44.28 1026.22 45.4 1024.96 45.86 1026.17 46.41 1026.32 47.53 1027.32 46.76 1028.68 46.99"/><rect class="cls-1" x="1189.05" y="184.21" width="3.25" height="2.77"/><polygon class="cls-61" points="1192.17 186.48 1191.69 185.64 1192.26 184.83 1191.13 184.95 1190.36 184.25 1190.15 185.17 1189.11 185.55 1190.11 186 1190.23 186.93 1191.06 186.29 1192.17 186.48"/><rect class="cls-1" x="1479.49" y="271.62" width="6.9" height="5.87"/><polygon class="cls-62" points="1486.11 276.45 1485.08 274.65 1486.29 272.94 1483.89 273.19 1482.27 271.71 1481.83 273.66 1479.61 274.47 1481.74 275.42 1481.99 277.39 1483.74 276.03 1486.11 276.45"/><rect class="cls-1" x="1166.35" y="315.78" width="7.02" height="5.98"/><polygon class="cls-63" points="1173.09 320.7 1172.03 318.87 1173.27 317.13 1170.82 317.38 1169.18 315.88 1168.72 317.87 1166.47 318.69 1168.63 319.65 1168.89 321.66 1170.68 320.28 1173.09 320.7"/><rect class="cls-1" x="1775.8" y="587.09" width="3.42" height="2.91"/><polygon class="cls-64" points="1779.08 589.48 1778.56 588.59 1779.16 587.74 1777.98 587.87 1777.17 587.14 1776.95 588.1 1775.86 588.5 1776.91 588.97 1777.03 589.95 1777.9 589.27 1779.08 589.48"/><rect class="cls-1" x="1425.01" y="863.71" width="3.21" height="2.73"/><polygon class="cls-65" points="1428.09 865.95 1427.61 865.12 1428.17 864.32 1427.06 864.44 1426.31 863.75 1426.1 864.66 1425.07 865.03 1426.06 865.47 1426.17 866.39 1426.99 865.76 1428.09 865.95"/><rect class="cls-1" x="806.55" y="827.46" width="3.88" height="3.3"/><polygon class="cls-66" points="810.27 830.17 809.69 829.17 810.37 828.2 809.02 828.34 808.11 827.51 807.86 828.61 806.62 829.06 807.81 829.6 807.95 830.71 808.94 829.94 810.27 830.17"/><rect class="cls-1" x="1236.66" y="697.89" width="5.36" height="4.56"/><polygon class="cls-67" points="1241.8 701.64 1240.99 700.25 1241.94 698.92 1240.07 699.11 1238.82 697.97 1238.47 699.48 1236.75 700.11 1238.4 700.85 1238.6 702.38 1239.96 701.32 1241.8 701.64"/><rect class="cls-1" x="464.25" y="623.19" width="7.78" height="6.62"/><polygon class="cls-68" points="471.72 628.64 470.55 626.62 471.92 624.68 469.21 624.97 467.38 623.3 466.88 625.5 464.38 626.41 466.78 627.48 467.06 629.71 469.05 628.17 471.72 628.64"/><rect class="cls-1" x="615.2" y="95.39" width="8.21" height="6.98"/><polygon class="cls-69" points="623.08 101.13 621.84 99 623.28 96.95 620.43 97.26 618.51 95.5 617.98 97.82 615.34 98.78 617.87 99.91 618.16 102.26 620.26 100.64 623.08 101.13"/><rect class="cls-1" x="1127.26" y="172.08" width="3.13" height="2.66"/><polygon class="cls-70" points="1130.27 174.27 1129.8 173.45 1130.35 172.67 1129.26 172.79 1128.52 172.12 1128.32 173 1127.32 173.37 1128.28 173.8 1128.39 174.7 1129.19 174.08 1130.27 174.27"/><rect class="cls-1" x="1488.95" y="290.95" width="7.35" height="6.25"/><polygon class="cls-71" points="1496.01 296.09 1494.9 294.18 1496.2 292.35 1493.64 292.62 1491.92 291.05 1491.44 293.13 1489.08 293.98 1491.35 295 1491.61 297.1 1493.49 295.65 1496.01 296.09"/><rect class="cls-1" x="1643.58" y="475.19" width="3.45" height="2.93"/><polygon class="cls-72" points="1646.88 477.61 1646.37 476.71 1646.97 475.85 1645.77 475.98 1644.96 475.24 1644.74 476.21 1643.64 476.62 1644.7 477.09 1644.82 478.08 1645.7 477.4 1646.88 477.61"/><rect class="cls-1" x="951.25" y="533.97" width="5.9" height="5.02"/><polygon class="cls-73" points="956.91 538.1 956.02 536.57 957.06 535.1 955.01 535.32 953.63 534.05 953.25 535.72 951.36 536.41 953.17 537.22 953.38 538.91 954.89 537.74 956.91 538.1"/><rect class="cls-1" x="971.16" y="305.39" width="4.88" height="4.15"/><polygon class="cls-74" points="975.85 308.81 975.12 307.54 975.98 306.33 974.28 306.51 973.13 305.46 972.82 306.84 971.25 307.41 972.75 308.08 972.93 309.48 974.18 308.52 975.85 308.81"/><rect class="cls-1" x="1726.58" y="229.17" width="7.59" height="6.46"/><polygon class="cls-75" points="1733.86 234.48 1732.72 232.5 1734.06 230.62 1731.41 230.9 1729.64 229.27 1729.14 231.42 1726.71 232.3 1729.05 233.35 1729.32 235.52 1731.26 234.02 1733.86 234.48"/><rect class="cls-1" x="1773.99" y="459.47" width="7.63" height="6.49"/><polygon class="cls-76" points="1781.31 464.81 1780.17 462.82 1781.51 460.93 1778.86 461.21 1777.07 459.57 1776.58 461.73 1774.13 462.62 1776.48 463.67 1776.75 465.85 1778.7 464.35 1781.31 464.81"/><rect class="cls-1" x="1182.06" y="825" width="3.83" height="3.26"/><polygon class="cls-77" points="1185.74 827.69 1185.16 826.69 1185.83 825.74 1184.5 825.88 1183.6 825.06 1183.35 826.14 1182.12 826.59 1183.3 827.12 1183.44 828.22 1184.42 827.46 1185.74 827.69"/><rect class="cls-1" x="1119.6" y="730.5" width="7.48" height="6.37"/><polygon class="cls-78" points="1126.79 735.74 1125.66 733.79 1126.98 731.93 1124.37 732.21 1122.62 730.6 1122.13 732.72 1119.73 733.59 1122.04 734.62 1122.31 736.77 1124.22 735.29 1126.79 735.74"/><rect class="cls-1" x="1163.77" y="597.29" width="5.87" height="4.99"/><polygon class="cls-79" points="1169.39 601.4 1168.51 599.87 1169.55 598.41 1167.5 598.63 1166.13 597.37 1165.75 599.03 1163.87 599.72 1165.67 600.52 1165.89 602.2 1167.38 601.04 1169.39 601.4"/><rect class="cls-1" x="616.82" y="401.03" width="4.93" height="4.2"/><polygon class="cls-80" points="621.56 404.48 620.82 403.2 621.68 401.97 619.97 402.15 618.81 401.1 618.49 402.49 616.91 403.07 618.43 403.75 618.61 405.16 619.87 404.18 621.56 404.48"/><rect class="cls-1" x="841.64" y="244.02" width="6.58" height="5.6"/><polygon class="cls-81" points="847.96 248.63 846.97 246.92 848.13 245.28 845.83 245.52 844.29 244.11 843.86 245.97 841.75 246.74 843.78 247.65 844.02 249.53 845.7 248.23 847.96 248.63"/><rect class="cls-1" x="1366.89" y="354.23" width="5.91" height="5.03"/><polygon class="cls-82" points="1372.56 358.37 1371.67 356.83 1372.71 355.36 1370.66 355.58 1369.27 354.31 1368.89 355.98 1366.99 356.67 1368.81 357.49 1369.03 359.18 1370.53 358.01 1372.56 358.37"/><rect class="cls-1" x="837.47" y="193.43" width="4.06" height="3.46"/><polygon class="cls-83" points="841.37 196.27 840.76 195.22 841.47 194.2 840.06 194.35 839.11 193.48 838.84 194.63 837.54 195.11 838.79 195.67 838.94 196.83 839.97 196.03 841.37 196.27"/><rect class="cls-1" x="766.44" y="159.86" width="7.6" height="6.46"/><polygon class="cls-84" points="773.74 165.18 772.6 163.2 773.93 161.31 771.29 161.59 769.51 159.96 769.01 162.11 766.58 163 768.92 164.05 769.19 166.22 771.13 164.72 773.74 165.18"/><rect class="cls-1" x="1234.31" y="498.59" width="3.82" height="3.25"/><polygon class="cls-85" points="1237.98 501.26 1237.41 500.27 1238.08 499.32 1236.75 499.46 1235.85 498.64 1235.6 499.72 1234.38 500.17 1235.56 500.69 1235.69 501.79 1236.67 501.03 1237.98 501.26"/><rect class="cls-1" x="1056.68" y="544.22" width="3.75" height="3.19"/><polygon class="cls-86" points="1060.29 546.84 1059.72 545.87 1060.38 544.93 1059.08 545.07 1058.19 544.27 1057.95 545.33 1056.75 545.77 1057.9 546.28 1058.04 547.36 1059 546.62 1060.29 546.84"/><rect class="cls-1" x="984.79" y="550.81" width="5.28" height="4.5"/><polygon class="cls-87" points="989.86 554.51 989.07 553.13 990 551.82 988.16 552.01 986.92 550.88 986.58 552.38 984.88 552.99 986.51 553.72 986.7 555.23 988.05 554.19 989.86 554.51"/><rect class="cls-1" x="432.7" y="84" width="2.81" height="2.39"/><polygon class="cls-88" points="435.4 85.97 434.98 85.23 435.48 84.53 434.5 84.64 433.84 84.03 433.65 84.83 432.75 85.16 433.62 85.55 433.72 86.35 434.44 85.8 435.4 85.97"/><rect class="cls-1" x="200.56" y="415.08" width="7.38" height="6.28"/><polygon class="cls-89" points="207.64 420.25 206.53 418.33 207.83 416.5 205.26 416.77 203.53 415.19 203.05 417.27 200.69 418.13 202.96 419.15 203.22 421.26 205.11 419.81 207.64 420.25"/><rect class="cls-1" x="176.3" y="87.28" width="6.71" height="5.71"/><polygon class="cls-90" points="182.75 91.98 181.74 90.23 182.92 88.56 180.58 88.81 179.01 87.37 178.57 89.27 176.42 90.05 178.49 90.97 178.73 92.9 180.44 91.57 182.75 91.98"/><rect class="cls-1" x="402.64" y="195.55" width="9.98" height="8.49"/><polygon class="cls-91" points="412.22 202.53 410.72 199.94 412.47 197.46 409 197.82 406.66 195.69 406.02 198.51 402.82 199.67 405.89 201.05 406.25 203.9 408.79 201.93 412.22 202.53"/><rect class="cls-1" x="578.69" y="356.74" width="7.53" height="6.41"/><polygon class="cls-92" points="585.92 362.02 584.79 360.06 586.11 358.18 583.49 358.46 581.73 356.85 581.24 358.98 578.82 359.86 581.14 360.89 581.41 363.05 583.34 361.56 585.92 362.02"/><rect class="cls-1" x="497.52" y="116.51" width="8.18" height="6.96"/><polygon class="cls-93" points="505.37 122.24 504.14 120.11 505.58 118.08 502.74 118.38 500.82 116.63 500.29 118.94 497.67 119.89 500.19 121.02 500.48 123.36 502.57 121.75 505.37 122.24"/><rect class="cls-1" x="742.23" y="291.48" width="6.61" height="5.62"/><polygon class="cls-94" points="748.58 296.11 747.58 294.39 748.75 292.75 746.45 292.99 744.9 291.57 744.47 293.44 742.35 294.21 744.38 295.13 744.62 297.02 746.31 295.71 748.58 296.11"/><rect class="cls-1" x="6.35" y="545.38" width="5.69" height="4.84"/><polygon class="cls-95" points="11.81 549.36 10.96 547.88 11.96 546.47 9.98 546.68 8.65 545.46 8.28 547.07 6.45 547.73 8.2 548.51 8.41 550.14 9.86 549.02 11.81 549.36"/><rect class="cls-1" x="799.69" y="40.45" width="4.85" height="4.13"/><polygon class="cls-96" points="804.34 43.84 803.61 42.58 804.47 41.37 802.78 41.55 801.64 40.51 801.33 41.88 799.77 42.45 801.26 43.12 801.44 44.51 802.68 43.55 804.34 43.84"/><rect class="cls-1" x="321.41" y="499.3" width="5.83" height="4.96"/><polygon class="cls-97" points="327.01 503.39 326.13 501.87 327.16 500.42 325.13 500.63 323.76 499.38 323.38 501.03 321.51 501.71 323.31 502.52 323.52 504.19 325.01 503.03 327.01 503.39"/><rect class="cls-1" x="126.7" y="430.77" width="4.71" height="4"/><polygon class="cls-98" points="131.22 434.07 130.51 432.84 131.34 431.67 129.7 431.84 128.6 430.84 128.29 432.17 126.78 432.72 128.23 433.37 128.4 434.71 129.6 433.78 131.22 434.07"/><rect class="cls-1" x="948.36" y="148.33" width="7.64" height="6.5"/><polygon class="cls-99" points="955.69 153.68 954.54 151.69 955.89 149.79 953.23 150.07 951.44 148.44 950.94 150.6 948.49 151.49 950.85 152.54 951.12 154.73 953.07 153.22 955.69 153.68"/><rect class="cls-1" x="273.22" y="767.96" width="6.32" height="5.38"/><polygon class="cls-100" points="279.29 772.38 278.34 770.74 279.45 769.16 277.25 769.4 275.77 768.04 275.36 769.83 273.33 770.57 275.28 771.44 275.5 773.25 277.12 772 279.29 772.38"/><rect class="cls-1" x="60.86" y="574.88" width="9.18" height="7.81"/><polygon class="cls-101" points="69.67 581.31 68.29 578.92 69.9 576.63 66.71 576.97 64.56 575.01 63.96 577.6 61.02 578.67 63.84 579.94 64.18 582.57 66.52 580.75 69.67 581.31"/><rect class="cls-1" x="867.4" y="322.51" width="6.2" height="5.28"/><polygon class="cls-102" points="873.35 326.85 872.42 325.24 873.51 323.69 871.35 323.92 869.9 322.59 869.5 324.35 867.51 325.07 869.42 325.93 869.64 327.7 871.23 326.48 873.35 326.85"/><rect class="cls-1" x="828.2" y="638.46" width="7.28" height="6.19"/><polygon class="cls-103" points="835.18 643.55 834.09 641.66 835.37 639.85 832.84 640.12 831.13 638.56 830.66 640.62 828.33 641.46 830.57 642.47 830.83 644.55 832.69 643.11 835.18 643.55"/><rect class="cls-1" x="425.61" y="185.09" width="3.96" height="3.37"/><polygon class="cls-104" points="429.41 187.86 428.82 186.83 429.51 185.84 428.13 185.99 427.21 185.14 426.95 186.26 425.68 186.72 426.9 187.27 427.04 188.4 428.05 187.62 429.41 187.86"/><rect class="cls-1" x="457.67" y="547.11" width="6.13" height="5.21"/><polygon class="cls-105" points="463.55 551.4 462.63 549.8 463.71 548.28 461.57 548.5 460.14 547.19 459.74 548.92 457.78 549.64 459.66 550.48 459.88 552.24 461.45 551.03 463.55 551.4"/><rect class="cls-1" x="68.92" y="187.94" width="6.42" height="5.46"/><polygon class="cls-106" points="75.08 192.44 74.12 190.77 75.25 189.17 73.01 189.41 71.51 188.03 71.09 189.85 69.03 190.59 71.01 191.48 71.24 193.32 72.88 192.05 75.08 192.44"/><rect class="cls-1" x="232.3" y="598.86" width="8.9" height="7.58"/><polygon class="cls-107" points="240.85 605.09 239.51 602.78 241.08 600.56 237.98 600.89 235.89 598.98 235.32 601.5 232.46 602.54 235.2 603.77 235.52 606.31 237.79 604.55 240.85 605.09"/><rect class="cls-1" x="57.55" y="527.06" width="6.88" height="5.86"/><polygon class="cls-108" points="64.16 531.88 63.13 530.09 64.34 528.38 61.94 528.63 60.33 527.16 59.88 529.11 57.67 529.91 59.79 530.86 60.04 532.83 61.8 531.47 64.16 531.88"/><rect class="cls-1" x="193.89" y="511.22" width="3.78" height="3.22"/><polygon class="cls-109" points="197.52 513.87 196.95 512.88 197.62 511.94 196.3 512.08 195.41 511.27 195.17 512.34 193.96 512.78 195.12 513.3 195.26 514.39 196.22 513.64 197.52 513.87"/><rect class="cls-1" x="33.88" y="152.83" width="4.8" height="4.09"/><polygon class="cls-110" points="38.49 156.2 37.77 154.95 38.61 153.75 36.94 153.93 35.81 152.9 35.5 154.26 33.96 154.82 35.44 155.48 35.61 156.86 36.84 155.91 38.49 156.2"/><rect class="cls-1" x="228.12" y="247.37" width="4.92" height="4.19"/><polygon class="cls-111" points="232.85 250.81 232.11 249.53 232.97 248.31 231.26 248.49 230.11 247.44 229.79 248.83 228.21 249.4 229.72 250.08 229.9 251.49 231.16 250.52 232.85 250.81"/><rect class="cls-1" x="494.91" y="270.31" width="7.78" height="6.62"/><polygon class="cls-112" points="502.38 275.76 501.21 273.73 502.58 271.8 499.87 272.08 498.05 270.42 497.54 272.62 495.05 273.52 497.44 274.6 497.72 276.83 499.71 275.29 502.38 275.76"/><rect class="cls-1" x="864.88" y="592.41" width="8.79" height="7.48"/><polygon class="cls-113" points="873.32 598.57 872 596.28 873.55 594.09 870.49 594.41 868.42 592.53 867.86 595.02 865.03 596.04 867.74 597.26 868.06 599.77 870.3 598.04 873.32 598.57"/><rect class="cls-1" x="37.38" y="943.73" width="8.9" height="7.57"/><polygon class="cls-114" points="45.92 949.96 44.59 947.64 46.15 945.43 43.06 945.76 40.97 943.85 40.39 946.37 37.54 947.41 40.28 948.63 40.6 951.18 42.87 949.42 45.92 949.96"/><rect class="cls-1" x="524.43" y="89.47" width="3.56" height="3.03"/><polygon class="cls-115" points="527.84 91.97 527.31 91.04 527.94 90.15 526.7 90.28 525.86 89.52 525.63 90.53 524.49 90.94 525.59 91.43 525.71 92.45 526.62 91.75 527.84 91.97"/><rect class="cls-1" x="767.85" y="196.55" width="7.05" height="5.99"/><polygon class="cls-116" points="774.61 201.48 773.55 199.65 774.79 197.9 772.34 198.16 770.69 196.65 770.23 198.64 767.97 199.46 770.14 200.43 770.4 202.45 772.2 201.06 774.61 201.48"/><rect class="cls-1" x="387.75" y="609.38" width="5.92" height="5.03"/><polygon class="cls-117" points="393.43 613.52 392.54 611.99 393.58 610.51 391.52 610.73 390.14 609.47 389.75 611.14 387.86 611.83 389.68 612.64 389.89 614.34 391.4 613.17 393.43 613.52"/><rect class="cls-1" x="778.03" y="89.39" width="8.76" height="7.45"/><polygon class="cls-118" points="786.44 95.52 785.13 93.24 786.67 91.06 783.62 91.38 781.57 89.51 781 91.98 778.19 93.01 780.88 94.21 781.2 96.72 783.44 94.99 786.44 95.52"/><rect class="cls-1" x="941.33" y="478.77" width="7.01" height="5.96"/><polygon class="cls-119" points="948.06 483.68 947.01 481.86 948.24 480.11 945.8 480.37 944.16 478.87 943.7 480.85 941.46 481.67 943.61 482.63 943.87 484.64 945.66 483.26 948.06 483.68"/><rect class="cls-1" x="82.57" y="984.3" width="6.7" height="5.7"/><polygon class="cls-120" points="89 988.99 87.99 987.25 89.17 985.58 86.84 985.83 85.27 984.39 84.83 986.29 82.68 987.07 84.75 987.99 84.99 989.91 86.7 988.59 89 988.99"/><rect class="cls-1" x="32.18" y="112.64" width="4.01" height="3.41"/><polygon class="cls-121" points="36.02 115.45 35.42 114.41 36.13 113.41 34.73 113.56 33.79 112.7 33.53 113.83 32.25 114.3 33.48 114.85 33.63 116 34.65 115.21 36.02 115.45"/><rect class="cls-1" x="390.17" y="220.39" width="8.5" height="7.23"/><polygon class="cls-122" points="398.33 226.34 397.05 224.13 398.55 222.01 395.59 222.32 393.6 220.5 393.05 222.91 390.32 223.9 392.94 225.07 393.25 227.5 395.41 225.82 398.33 226.34"/><rect class="cls-1" x="4.19" y="274.82" width="8.66" height="7.37"/><polygon class="cls-123" points="12.5 280.88 11.2 278.63 12.72 276.48 9.71 276.8 7.68 274.94 7.12 277.39 4.34 278.4 7 279.6 7.32 282.07 9.53 280.36 12.5 280.88"/><rect class="cls-1" x="755.4" y="609.24" width="4.21" height="3.58"/><polygon class="cls-124" points="759.44 612.18 758.81 611.09 759.55 610.04 758.08 610.2 757.1 609.29 756.82 610.49 755.47 610.98 756.77 611.56 756.92 612.76 758 611.93 759.44 612.18"/><rect class="cls-1" x="323.02" y="950.19" width="3.95" height="3.36"/><polygon class="cls-125" points="326.81 952.96 326.22 951.93 326.92 950.95 325.54 951.09 324.61 950.25 324.36 951.37 323.09 951.83 324.31 952.37 324.45 953.5 325.46 952.72 326.81 952.96"/><rect class="cls-1" x="90.86" y="745.81" width="6.6" height="5.62"/><polygon class="cls-126" points="97.19 750.43 96.2 748.72 97.36 747.08 95.06 747.32 93.52 745.9 93.09 747.77 90.97 748.54 93 749.45 93.24 751.34 94.93 750.04 97.19 750.43"/><rect class="cls-1" x="401.83" y="244.21" width="9.06" height="7.71"/><polygon class="cls-127" points="410.53 250.55 409.17 248.2 410.76 245.94 407.61 246.28 405.49 244.33 404.9 246.9 401.99 247.95 404.78 249.2 405.11 251.8 407.42 250.01 410.53 250.55"/><rect class="cls-1" x="592.42" y="471.31" width="4.25" height="3.61"/><polygon class="cls-128" points="596.5 474.29 595.86 473.18 596.61 472.13 595.13 472.28 594.13 471.37 593.86 472.57 592.5 473.07 593.8 473.65 593.96 474.87 595.04 474.03 596.5 474.29"/><rect class="cls-1" x="694.73" y="168.06" width="9.35" height="7.96"/><polygon class="cls-129" points="703.71 174.61 702.3 172.18 703.95 169.85 700.69 170.19 698.5 168.19 697.89 170.83 694.89 171.92 697.77 173.21 698.11 175.89 700.5 174.04 703.71 174.61"/><rect class="cls-1" x="753.18" y="451.93" width="9.4" height="8"/><polygon class="cls-130" points="762.2 458.51 760.78 456.07 762.44 453.73 759.17 454.07 756.96 452.06 756.36 454.72 753.34 455.81 756.23 457.11 756.57 459.8 758.97 457.94 762.2 458.51"/><rect class="cls-1" x="23.55" y="902.49" width="4.73" height="4.02"/><polygon class="cls-131" points="28.09 905.8 27.38 904.57 28.21 903.39 26.56 903.57 25.45 902.56 25.15 903.89 23.63 904.44 25.09 905.1 25.26 906.45 26.46 905.51 28.09 905.8"/><rect class="cls-1" x="1.01" y="621.81" width="7.23" height="6.15"/><polygon class="cls-132" points="7.95 626.87 6.86 624.99 8.13 623.19 5.62 623.46 3.92 621.91 3.45 623.96 1.13 624.8 3.36 625.8 3.62 627.87 5.46 626.44 7.95 626.87"/><rect class="cls-1" x="251.38" y="322.21" width="7.29" height="6.2"/><polygon class="cls-133" points="258.37 327.32 257.27 325.42 258.56 323.61 256.02 323.88 254.31 322.31 253.84 324.38 251.5 325.23 253.75 326.23 254.01 328.32 255.87 326.88 258.37 327.32"/><rect class="cls-1" x="87.96" y="500.15" width="4.71" height="4.01"/><polygon class="cls-134" points="92.48 503.45 91.78 502.22 92.61 501.05 90.97 501.22 89.86 500.21 89.55 501.55 88.04 502.1 89.49 502.75 89.66 504.09 90.87 503.16 92.48 503.45"/></svg>