<svg id="Layer_11" data-name="Layer 11" xmlns="http://www.w3.org/2000/svg" viewBox="0 0 411.26 721.79"><defs><style>.cls-1{fill:#356130;}.cls-2{fill:#2f5129;}.cls-3{fill:#e69545;}.cls-4{fill:#376a33;}.cls-5{fill:#325a2c;}.cls-6{fill:#f6a247;}.cls-7{fill:#c2915b;}.cls-8{fill:#345431;}.cls-9{fill:#263a23;}.cls-10{fill:#b14342;}.cls-11{fill:#9b3a3b;}.cls-12{fill:#80393a;}.cls-13{fill:#2e472a;}.cls-14{fill:#94273b;}.cls-15{fill:#f9a151;}.cls-16{fill:#f5e2a7;}.cls-17{fill:#ee984c;}.cls-18{fill:#ea934d;}.cls-19{fill:#8a253b;}.cls-20{fill:#2e4f2b;}.cls-21{fill:#355632;}.cls-22{fill:#f9a14f;}.cls-23{fill:#d18641;}.cls-24{fill:#752237;}.cls-25{fill:#345b2e;}.cls-26{fill:#5d975b;}.cls-27{fill:#2f5128;}.cls-28{fill:#335c2d;}.cls-29{fill:#2d4c27;}.cls-30{fill:#5b8d56;}.cls-31{fill:#8b4544;}.cls-32{fill:#263c20;}.cls-33{fill:#e0dcbc;}.cls-34{fill:#24351e;}.cls-35{fill:#eb4740;}.cls-36{fill:#1f361d;}.cls-37{fill:#eeeeed;}.cls-38{fill:#6d6f2b;}.cls-39{fill:#231f20;}.cls-40{fill:#fff;}.cls-41{fill:#255d2e;}.cls-42{fill:#122915;}.cls-43{fill:#2b4925;opacity:0.71;}.cls-44{fill:#e98a3b;}.cls-45{fill:#8b653e;}.cls-46{fill:#db7e38;}.cls-47{fill:#3e773b;}.cls-48{fill:#6e9658;}.cls-49{fill:#9ac581;}.cls-50{fill:#1a6835;}.cls-51{fill:#e2e2e2;}.cls-52{fill:#010101;}.cls-53{fill:#8b4645;}.cls-54{fill:#2c602f;}.cls-55{fill:#d4d2c7;}.cls-56{fill:#355f2f;}.cls-57{fill:none;}.cls-58{fill:#1b5c2f;}.cls-59{fill:#225128;}.cls-60{fill:#63141e;}.cls-61{fill:#853837;}.cls-62{fill:#c98586;}.cls-63{fill:#4e141b;}</style></defs><title>tossakan</title><g id="Layer_20" data-name="Layer 20"><path class="cls-1" d="M57.57,498.39s-42.67,73.33-46,143.33c0,0-4,28,14.67,33.33H36.9L90.23,520.39Z" transform="translate(-11.21 -9.23)"/><path class="cls-2" d="M77.43,508.14s-24.78,49.19-28.53,74-19.06,91.95-19.06,91.95L92.65,519.14Z" transform="translate(-11.21 -9.23)"/><path class="cls-3" d="M38.76,536.79a18.68,18.68,0,0,0,6.14,23.1,20.53,20.53,0,0,0,6.37,1.81c7.8,0.89,13.79-3.08,15.71-4.47l-6.14,13.56a22,22,0,0,1-10.18,2.47c-12.79-.12-20.39-12.11-21.08-13.25A18.53,18.53,0,0,1,27,552.14c-0.13-1.57-.77-9.31,4.63-13.25A11.59,11.59,0,0,1,38.76,536.79Z" transform="translate(-11.21 -9.23)"/><path class="cls-4" d="M82.23,527.72s-43,72.42-53.33,153.08c0,0-1.67,12.33,15,24,0,0,6.67,9.67,24,0,0,0,15,.33,14.33-11.67,0,0,2.33-29.33-8.67-32.67,0,0,13.33-42.33,13.67-61.67l8.33-15.33s22.33-20.58,29.67-37.12l7-6.87-28-9.76-15-5.24Z" transform="translate(-11.21 -9.23)"/><g id="Layer_19" data-name="Layer 19"><path class="cls-5" d="M100.23,526.06s16.74,48.51-25.8,68.76l19.47-4.56,2.43-7.5s22-18.37,33-43.74Z" transform="translate(-11.21 -9.23)"/><path class="cls-5" d="M67.9,594.81s14.33,28.74,5.67,65.66c0,0,14.5-47.92,13.33-63.58Z" transform="translate(-11.21 -9.23)"/><g id="Layer_21" data-name="Layer 21"><path class="cls-5" d="M73.57,660.47S85.15,712.6,43.9,704.81c0,0,6.38,10,24,0,0,0,13.48,1.3,14.3-9.81C82.2,695,85.61,665.43,73.57,660.47Z" transform="translate(-11.21 -9.23)"/></g></g><path class="cls-6" d="M64,564.14c-0.66.93-5,7.21-2.87,14.5a16.26,16.26,0,0,0,5.25,7.75,19.9,19.9,0,0,0,12.68,4.55,21.25,21.25,0,0,0,11.2-2.68,17.87,17.87,0,0,0,5.14-4.51c0.55-.68.78-1.06,0.92-1,0.6,0.24.36,8.21-4.81,13.13-6.09,5.8-15.53,4.05-18.36,3.52-1.6-.3-19.32-3.64-20.77-16.27C51.58,576,56.3,568.42,64,564.14Z" transform="translate(-11.21 -9.23)"/></g><g id="Layer_20_copy" data-name="Layer 20 copy"><path class="cls-1" d="M376.07,487.07s42.67,73.33,46,143.33c0,0,4,28-14.67,33.33H396.74L343.4,509.07Z" transform="translate(-11.21 -9.23)"/><path class="cls-2" d="M375.69,513.15s49.27,85.61,35.49,149c0,0,12-3.72,11.25-30.64S404,529.14,382.93,499.89l-7.23,13.26" transform="translate(-11.21 -9.23)"/><path class="cls-3" d="M395.72,524.27a19.34,19.34,0,0,1-6.32,23.86,21.09,21.09,0,0,1-6.56,1.87c-8,.92-14.2-3.18-16.17-4.62l6.33,14a22.64,22.64,0,0,0,10.49,2.56c13.17-.12,21-12.51,21.71-13.69a19.18,19.18,0,0,0,2.62-8.13c0.13-1.62.8-9.62-4.77-13.69A11.91,11.91,0,0,0,395.72,524.27Z" transform="translate(-11.21 -9.23)"/><path class="cls-4" d="M351.4,516.4s43,72.42,53.33,153.08c0,0,1.67,12.33-15,24,0,0-6.67,9.67-24,0,0,0-15,.33-14.33-11.67,0,0-2.33-29.33,8.67-32.67,0,0-13.33-42.33-13.67-61.67l-8.33-15.33S315.74,551.57,308.4,535l-7-6.87,28-9.76,15-5.24Z" transform="translate(-11.21 -9.23)"/><path class="cls-5" d="M344.25,530.33s61.6,120.6,58.37,148.83c0,0,5.12-2.13-2.34-35.67A457.15,457.15,0,0,0,385,590.25c-3.85-11-10.25-23.48-15.4-37.43l-11.43-26.76-13.93,4.27" transform="translate(-11.21 -9.23)"/><path class="cls-6" d="M369.61,552.82c0.66,0.93,5,7.21,2.88,14.5a16.26,16.26,0,0,1-5.25,7.75,19.9,19.9,0,0,1-12.68,4.55,21.25,21.25,0,0,1-11.2-2.68,17.87,17.87,0,0,1-5.14-4.51c-0.55-.68-0.78-1.06-0.92-1-0.6.24-.36,8.21,4.81,13.13,6.09,5.8,15.53,4.05,18.36,3.52,1.6-.3,19.32-3.64,20.77-16.27C382.06,564.65,377.33,557.1,369.61,552.82Z" transform="translate(-11.21 -9.23)"/></g><path class="cls-6" d="M258.92,688a160.47,160.47,0,0,0-.19,20.21c0.15,2.88.38,5.66,0.67,8.33,30.91,19.85,61.25,17.48,70.83,3.67,7-10.06,2.09-24.94.67-29.08a25.28,25.28,0,0,1-12,8.91,25.56,25.56,0,0,1-13.45.75,30.38,30.38,0,0,1-16-8.76,9,9,0,0,0-4.76-1.51,17.79,17.79,0,0,0-4.07.86c-3.36.9-3.91,1.34-5.83,1.5l-2.51.17-2.49.17Z" transform="translate(-11.21 -9.23)"/><path class="cls-7" d="M267.74,697.19a28,28,0,0,0,8,.43,28.51,28.51,0,0,0,12.67-4.36,53.18,53.18,0,0,0,5.06,3.65c1.68,1.07,6.17,4.07,10.44,5.12a28.14,28.14,0,0,0,19.42-2.35,39.56,39.56,0,0,1-8.19,3.59A67.1,67.1,0,0,1,302.27,705,70.71,70.71,0,0,1,267.74,697.19Z" transform="translate(-11.21 -9.23)"/><path class="cls-8" d="M280.15,692.14h2.9a4.53,4.53,0,0,1,4.1-2.25,5.37,5.37,0,0,1,1.41.19l0,0c-4-8.79-1.9-17.81-1.57-19.13a35.24,35.24,0,0,0,1.05-4.38c-0.2-.07-1.42,3.09-1.42,3.09l-27.51-1.54s-0.59,11.17-.32,22.41c3.85,0.27,7.7.58,11.54,1,2.69,0.27,5.39.62,8.08,1A4.79,4.79,0,0,1,280.15,692.14Z" transform="translate(-11.21 -9.23)"/><path class="cls-9" d="M271.26,665.93s-6.73,17.59-2.79,25l-10.63-2.66,1.08-19.86,12.35-2.46" transform="translate(-11.21 -9.23)"/><path class="cls-6" d="M258.13,685.16a6.69,6.69,0,0,0-1.38,3.61,6.92,6.92,0,0,0,1.78,5A27.08,27.08,0,0,0,289.39,692a4.58,4.58,0,0,0,.64-3.41,5,5,0,0,0-3.12-3.33A23.68,23.68,0,0,1,258.13,685.16Z" transform="translate(-11.21 -9.23)"/><path class="cls-6" d="M172.4,685.16a160.47,160.47,0,0,1,.16,20.21c-0.16,2.88-.39,5.66-0.68,8.33-30.94,19.8-61.28,17.38-70.84,3.56-7-10.07-2-24.95-.62-29.08a25.28,25.28,0,0,0,12,8.93,25.56,25.56,0,0,0,13.45.77,30.38,30.38,0,0,0,16.06-8.73,9,9,0,0,1,4.76-1.51,17.79,17.79,0,0,1,4.07.86c3.36,0.91,3.91,1.34,5.83,1.51l2.51,0.17,2.49,0.17Z" transform="translate(-11.21 -9.23)"/><path class="cls-7" d="M163.57,694.32a28,28,0,0,1-8,.42,28.51,28.51,0,0,1-12.67-4.38,53.18,53.18,0,0,1-5.07,3.64c-1.68,1.06-6.18,4.06-10.45,5.11A28.14,28.14,0,0,1,108,696.72a39.56,39.56,0,0,0,8.19,3.6A67.1,67.1,0,0,0,129,702.09,70.71,70.71,0,0,0,163.57,694.32Z" transform="translate(-11.21 -9.23)"/><path class="cls-8" d="M151,689.78l-2.9-.19a4.53,4.53,0,0,0-3.94-2.51,5.37,5.37,0,0,0-1.42.09l0,0c4.58-8.51,3.06-17.65,2.81-19a35.24,35.24,0,0,1-.77-4.44c0.2-.05,1.22,3.18,1.22,3.18l27.55,0.25s-0.14,11.18-1.14,22.38c-3.86,0-7.72.08-11.58,0.22-2.71.1-5.42,0.27-8.13,0.46A4.79,4.79,0,0,0,151,689.78Z" transform="translate(-11.21 -9.23)"/><path class="cls-9" d="M160.57,666.95s5.33,18.23,0,25.13l12.22-1.46,1.27-19.85-13.5-3.81" transform="translate(-11.21 -9.23)"/><path class="cls-6" d="M172.78,684.21a6.77,6.77,0,0,1,1.11,3.69,7,7,0,0,1-2.06,4.83,26.13,26.13,0,0,1-30.08-3.64,4.65,4.65,0,0,1-.4-3.44,4.92,4.92,0,0,1,3.27-3.12A22.86,22.86,0,0,0,172.78,684.21Z" transform="translate(-11.21 -9.23)"/><path class="cls-3" d="M171.88,713.7S94.07,747,100.42,688.18c0,0-15.81,36.83,23.46,39.77C123.88,728,150.61,729.76,171.88,713.7Z" transform="translate(-11.21 -9.23)"/><path class="cls-3" d="M259.4,716.56s77.81,33.26,71.46-25.52c0,0,15.81,36.83-23.46,39.77C307.4,730.81,280.67,732.62,259.4,716.56Z" transform="translate(-11.21 -9.23)"/><path class="cls-10" d="M107.32,632.43c0.14,3.33,1.07,16.2,11.37,26.33,8.83,8.68,22,12.87,33.37,10.3a29.55,29.55,0,0,0,7.23-2.69C188,651.89,255,666.85,256,667h0c15,8.64,33.31,7.66,46.13-2.32,15.56-12.11,15.3-31.46,15.24-33.56L208.17,590.25Z" transform="translate(-11.21 -9.23)"/><g id="Layer_22" data-name="Layer 22"><path class="cls-11" d="M248.9,658.72v3.34l-54.08-7.45-33.42,11.3-24.86-22.4s0.4,15.63,11.79,26.2c-9.75,1.13-35.56.42-41-37.28l49.54-42.18s9.16,8.62,21.83,24.82C190.31,629.94,203.29,652.19,248.9,658.72Z" transform="translate(-11.21 -9.23)"/><path class="cls-12" d="M107.57,630.65c0.17,9.33,2.3,10.35,2.3,10.35,44.46,5,61.49-32.48,61.49-32.48C142.94,643.9,107.57,630.65,107.57,630.65Z" transform="translate(-11.21 -9.23)"/><path class="cls-12" d="M136.53,643.51s33.7,24.29,35.62-32.25C172.15,611.26,166.67,649.63,136.53,643.51Z" transform="translate(-11.21 -9.23)"/><path class="cls-12" d="M161.4,665.91l-9.33,3.15a28.43,28.43,0,0,1-3.74.65c-11.39-10.57-11.79-26.2-11.79-26.2Z" transform="translate(-11.21 -9.23)"/><path class="cls-13" d="M173.5,676.81v2.35c-11.7-.45-19.7-4.36-25.16-9.45a28.43,28.43,0,0,0,3.74-.65l9.33-3.15Z" transform="translate(-11.21 -9.23)"/><path class="cls-12" d="M253.69,666.55L256,667l2.87,1.39s5.07-14.66,3.74-25.74l-0.75.75-8.21,23.16" transform="translate(-11.21 -9.23)"/></g><path class="cls-12" d="M225.75,595.42c-0.13,3.56.82,12.81,0.82,12.81,9.17,8,45.75,25.73,59.82,28.28,28.28,5.12,30.76-7.28,30.76-7.28C268.91,643.43,225.75,595.42,225.75,595.42Z" transform="translate(-11.21 -9.23)"/><path class="cls-14" d="M123.73,546.62a78.43,78.43,0,0,1-45.17,68.77c2,2.23,20.46,22.48,49.4,20,26.34-2.22,40.82-21.49,42.91-24.38l55.69-13.17S301.72,666.53,347,611.46a102.52,102.52,0,0,1-19.61-27.18,105.53,105.53,0,0,1-10.91-39.49L187.38,515.4Z" transform="translate(-11.21 -9.23)"/><path class="cls-15" d="M344.15,608.14c-2.43-1.26-4.78-2.33-7-3.25a93.63,93.63,0,0,0-14.92,3.57,38.28,38.28,0,0,1-7,1.67c-3.74.56-4.7-.55-8.83-0.61a25.47,25.47,0,0,0-9.17,1.61c-1.72-1-3.55-2-5.43-2.93-4.19-.72-8.32-1.71-12.57-2.54-7.31-1.44-13.56-4.58-20.51-7.12l-1.35-.5a0.45,0.45,0,0,1-.22.1,0.87,0.87,0,0,1-.74-0.46c-6-2.26-11.66-4.85-16.3-9.5a4.82,4.82,0,0,1-1.39-2.53c-5.72-3.66-9-9-10.37-10.19l-0.52.53c0.24,1,.83,2.54.07,3.29a1.57,1.57,0,0,1-2,.08c-0.2-.29-0.13-0.92.83-2.28-5.3,5-11.6,8.71-18,12.15a4.75,4.75,0,0,1-5.39-.43l-0.07,0c-8.22,2.15-18-.55-26.15-1.84a4,4,0,0,1-3.5-3.44A5.3,5.3,0,0,1,171.3,582c-4.29,5-5.51,7.51-5.78,8.84a4.38,4.38,0,0,1-1,2.38c-0.85.91-2,1.07-2,1.63s0.86,0.59.89,0.89c0.22,2-28.78,3.7-31.56,3.68a4.77,4.77,0,0,1-2-.41,4.58,4.58,0,0,1-1.36-1l-14.12,5.07a6.25,6.25,0,0,1-3,.1,17.32,17.32,0,0,1-9.89-4.23,79.86,79.86,0,0,1-8.95,7.88c-1.46,1.11-3,2.21-4.7,3.29a79.34,79.34,0,0,1-9.33,5.18c2,2.22,20.66,22.78,49.88,20.25,26.28-2.27,40.77-21.45,42.91-24.38L227,598.1c28.78,30.15,66.35,42.86,95.77,31.42,6.6-2.57,16.35-7.73,25.83-18.88C347.24,609.8,345.74,609,344.15,608.14Z" transform="translate(-11.21 -9.23)"/><path class="cls-16" d="M170.88,581.71a53.11,53.11,0,0,1-21,28.55,46.88,46.88,0,0,1-19,7.46c-20.36,3.15-35.62-8.66-38.31-10.8,0.7-.54,1.49-1.22,2.22-1.81a71.83,71.83,0,0,0,6.73-6.07,82.8,82.8,0,0,0,8.4-10.24l0.29-.41c5,2.36,22.28,9.74,42.08,3.53A54.63,54.63,0,0,0,170.88,581.71Z" transform="translate(-11.21 -9.23)"/><path class="cls-16" d="M229,576.52a85,85,0,0,0,32.62,28.37c33.17,16.14,65.51,3.94,71.49,1.55-8.36-2-17.73-4.17-28-6.3-6-1.24-10.32-2.08-27.5-5.5-15.32-3.05-23.09-4.6-28-6.5A83.17,83.17,0,0,1,229,576.52Z" transform="translate(-11.21 -9.23)"/><path class="cls-15" d="M168.78,580.83c0.28,1,.81.74,1.06,1.72,7.18,28.72-.36,53.94-14.61,60.5-2.9,1.33-8.94,3.27-18.7.46,4.66,16.36,17.13,28.92,32.7,32.54s28.34-3.1,31.67-5c15.65,10.85,35.38,10.64,48,.33,12.14-9.92,12.91-25.27,13-28-8.41.8-14-1.2-17.33-3-16.38-8.79-23.32-36-15.09-67.23Z" transform="translate(-11.21 -9.23)"/><path class="cls-16" d="M184,592.24a83.2,83.2,0,0,1-18.11,65.15,30.77,30.77,0,0,0,34-7,32.64,32.64,0,0,0,17,9.33c12.39,2.34,24.25-3.59,24-5.33-0.12-.84-2.93-0.16-7.33-2.33a24.08,24.08,0,0,1-7.81-6.5,31.45,31.45,0,0,1-4.19-6.5c-3.91-8.09-4.29-17.82-4.67-24.33-0.34-5.92-1-14.43-2.28-25Z" transform="translate(-11.21 -9.23)"/><path class="cls-15" d="M150.89,546a89.65,89.65,0,0,0,10,24.24,92.92,92.92,0,0,0,36.62,34.16,246,246,0,0,0,55.32-57.7l-55.12-35.52Z" transform="translate(-11.21 -9.23)"/><path class="cls-17" d="M150.89,546a89.65,89.65,0,0,0,10,24.24,92.92,92.92,0,0,0,36.62,34.16,246.25,246.25,0,0,0,33.11-29.87C239.63,564.8,183,622.3,150.89,546Z" transform="translate(-11.21 -9.23)"/><path class="cls-15" d="M340.43,605.61a209.33,209.33,0,0,1-40.19,9.32c-9.69,1.29-18.3-.36-26.77-3.29,40.23,35,78.2-3.82,78.2-3.82A38.26,38.26,0,0,1,340.43,605.61Z" transform="translate(-11.21 -9.23)"/><path class="cls-18" d="M78.57,615.39s42.91,38.41,92.79-4.13c0,0-12,22-42.91,24.38S78.57,615.39,78.57,615.39Z" transform="translate(-11.21 -9.23)"/><path class="cls-19" d="M148,546.64s10.5,29.63,18.56,38.32l3.26-2.4s-18-23.39-18.95-36.57h0l-2.87.65" transform="translate(-11.21 -9.23)"/><path class="cls-20" d="M116.55,401.72s16.67,87.33,7.33,144c0,0,35.95,11.33,74-26,0,0,38.11,38.67,118.61,25.67,0,0-8.5-80.75,11.75-137.5C328.21,407.89,212.88,347.06,116.55,401.72Z" transform="translate(-11.21 -9.23)"/><path class="cls-21" d="M239.25,426.58l-11.85-6.82s8.89,28.32-3.1,55.94l4.92-.21L225.74,483l-22.53-8.45s-36.7-14.67-57.12-4.94l-12.5-39.78L119,408.64s66.63-34.75,131.42-24Z" transform="translate(-11.21 -9.23)"/><g id="Layer_9" data-name="Layer 9"><path class="cls-22" d="M21.9,397.39s48.5,54,102.5,51c0,0,10,79.5,0,89.5l-43.17-9.83A84,84,0,0,1,66.9,513.89C62,507.77,59.05,502,53.26,490.8c-1.59-3.08-6.4-12.49-9.8-20.26C30.95,442,22.93,402.53,21.9,397.39Z" transform="translate(-11.21 -9.23)"/><path class="cls-23" d="M45.6,418.68s13,84.16,40.11,92.88l39.94,13.74-0.07-5.69Z" transform="translate(-11.21 -9.23)"/><path class="cls-14" d="M45.6,418.68a143.22,143.22,0,0,0,78.8,30.21,152.88,152.88,0,0,1,4.69,29.63,153.38,153.38,0,0,1-3.44,42.38l-37.58-10A112.33,112.33,0,0,1,76.9,497.22a123.35,123.35,0,0,1-9.5-16.5,193.66,193.66,0,0,1-10-25.33C54.06,445.47,50,433.1,45.6,418.68Z" transform="translate(-11.21 -9.23)"/><path class="cls-3" d="M67.9,421.39s20.5,17,55.5,26c0,0,8.5,37,3,52l-16-3.5a29.59,29.59,0,0,1-13.17-7.33c-2.88-2.82-4.41-5.59-7.33-11a124.2,124.2,0,0,1-6.33-13.5C76.87,446.8,68.73,423.75,67.9,421.39Z" transform="translate(-11.21 -9.23)"/><path class="cls-23" d="M89.48,434.72s5.92,41.83,18.25,46.17l18.17,6.83,0-2.83Z" transform="translate(-11.21 -9.23)"/><path class="cls-24" d="M89.48,434.72c3.68,1.85,7.65,3.67,11.92,5.4a163.12,163.12,0,0,0,24.07,7.65l3.93,37.62a52.45,52.45,0,0,1-10.49-2.2A51.1,51.1,0,0,1,111.2,480s-1.44-.74-2.63-1.46c-5.2-3.13-7.83-8.3-12.5-22.17C94.1,450.54,91.8,443.24,89.48,434.72Z" transform="translate(-11.21 -9.23)"/><path class="cls-22" d="M413.61,388.15s-43.48,58.12-97.53,60q-1.13,20.75-1.71,42.53-0.65,25.15-.48,49l52.3-16a84,84,0,0,0,13-15.39c4.29-6.53,6.76-12.52,11.52-24.22,1.31-3.21,5.25-13,7.95-21.05C408.59,433.36,413.05,393.36,413.61,388.15Z" transform="translate(-11.21 -9.23)"/><path class="cls-23" d="M393.67,409.84s-11.69,92-38.8,100.69l-39.94,13.74,0.07-5.69,76.91-107.11Z" transform="translate(-11.21 -9.23)"/><path class="cls-14" d="M391.91,411.47a143.22,143.22,0,0,1-75.79,37.13c-0.94,9.46-1.64,19.45-2,29.93-0.55,15.25-.34,29.58.36,42.84l43.39-14.26a112.33,112.33,0,0,0,9.9-14.61,123.36,123.36,0,0,0,8-17.28,193.66,193.66,0,0,0,7.7-26.13C385.88,438.91,388.8,426.23,391.91,411.47Z" transform="translate(-11.21 -9.23)"/><path class="cls-3" d="M369.94,416.17S351,434.93,317,447c-0.72,6.59-1.31,13.47-1.73,20.61-0.67,11.36-.83,22.14-0.64,32.26l19.65-5.72a29.59,29.59,0,0,0,12.46-8.48c2.61-3.07,3.89-6,6.32-11.61a124.2,124.2,0,0,0,5.1-14C363.29,442.27,369.33,418.59,369.94,416.17Z" transform="translate(-11.21 -9.23)"/><path class="cls-23" d="M350.91,430.58s-5.47,45.71-17.81,50l-18.17,6.83,0-2.83,34.67-53.25Z" transform="translate(-11.21 -9.23)"/><path class="cls-24" d="M349.64,431.37c-3.5,2.17-7.29,4.34-11.39,6.44A163.12,163.12,0,0,1,315,447.59l-0.55,37.82a52.45,52.45,0,0,0,10.25-3.13,51.1,51.1,0,0,0,7.4-3.85s1.37-.86,2.49-1.69c4.9-3.58,7.06-9,10.47-23.2C346.46,447.54,348.09,440.06,349.64,431.37Z" transform="translate(-11.21 -9.23)"/></g><path class="cls-4" d="M125.07,474.89s7-16.83,80.17,0H234.4s76.76-20,80.83,0c-0.69,9.36-1.1,19.34-1.1,29.88,0,14.62.78,28.21,2,40.63a153.63,153.63,0,0,1-119.5-24.62,83.65,83.65,0,0,1-72.92,25.85S127.57,483.39,125.07,474.89Z" transform="translate(-11.21 -9.23)"/><path class="cls-25" d="M321.85,408.36L237,474.27s-11.67,26.32-20.66,46.12c4.75,3.82,10.42,6,15.08,10a70.62,70.62,0,0,0,8.33-6.63,48.87,48.87,0,0,0,18.1,19.07c2.75,1.62,5.76,5.1,9.54,5.2,20.5,0.55,31.55,1.24,49.09-1.72l-0.77-71.9Z" transform="translate(-11.21 -9.23)"/><path class="cls-26" d="M222.83,476.72c-10.69,24-6.37,51.36-5,58.54-0.12,0-.24-0.12-0.36-0.18a111.45,111.45,0,0,1-20.87-14.31l6-9.26a136.6,136.6,0,0,0-40.58,12.55c-6.39-4-18.29-12.87-25.46-28.54a63.15,63.15,0,0,1-4.71-15c42,15.78,74-3.74,74-3.74l17.23-.71Z" transform="translate(-11.21 -9.23)"/><path class="cls-27" d="M296,466.14s-57.85,6.15-58.93,7.64h0s-6.41-2.6,20.23-6.42h0s23.39-4.88,38.7-1.22" transform="translate(-11.21 -9.23)"/><path class="cls-28" d="M124.56,469.93a4.14,4.14,0,0,0,5.25,3.57c4.86-1.39,12.26-3.38,16.27-3.89h0l-11.56-33.84-7.45-22.46a4.14,4.14,0,0,0-2.62-2.62h0A4.14,4.14,0,0,0,119,415Z" transform="translate(-11.21 -9.23)"/><path class="cls-29" d="M316,473s-17.9-6.91-24.2-7.7h0l5-20.81,1.59-7.63,1.22-5.25,19.66-20.43,8.69-2.7-1,4.2Z" transform="translate(-11.21 -9.23)"/><path class="cls-30" d="M309.63,475.82a65.46,65.46,0,0,1-30.06,46.74,110,110,0,0,0-46-11.71c2.61,7.22,8.71,20.67,22.29,30.61a59.06,59.06,0,0,0,11.54,6.6,114.1,114.1,0,0,1-49.52-12.79h0c-1.42-7.18-5.74-34.59,5-58.54l0.3-.69,11.27-.47A81.64,81.64,0,0,0,309.63,475.82Z" transform="translate(-11.21 -9.23)"/><path class="cls-31" d="M181.47,503.05a180,180,0,0,1,79-1.53l6.72-7.64c-12.31-.83-25.63-1.21-39.84-0.9a449.13,449.13,0,0,0-53.66,4.4Z" transform="translate(-11.21 -9.23)"/><g id="Layer_3" data-name="Layer 3"><ellipse class="cls-32" cx="207.43" cy="461.6" rx="15.43" ry="13.44"/><path class="cls-33" d="M226,499.46c17.59-.48,29-7.55,29.25-14.16,0.23-5.36-6.85-10-9.6-11.59a13.32,13.32,0,0,1,.85,5.19,14.79,14.79,0,0,1-.57,3.33c-1,3.19-16.49,7.11-38,9.17-10.77-2.59-11-2.77-12.17-3.17a13.69,13.69,0,0,1-6-15c-0.73.2-5.95,1.67-7.8,6.49a9.31,9.31,0,0,0-.53,4.67c0.8,5.22,6.28,8.28,9.79,10.17,1.48,0.8,6.26,3.24,16.14,4.54A84.51,84.51,0,0,0,226,499.46Z" transform="translate(-11.21 -9.23)"/><path class="cls-33" d="M208,499.46c-17.59-.48-29-7.55-29.25-14.16-0.23-5.36,6.85-10,9.6-11.59a13.32,13.32,0,0,0-.85,5.19,14.79,14.79,0,0,0,.57,3.33c1,3.19,16.49,7.11,38,9.17,10.77-2.59,11-2.77,12.17-3.17a13.69,13.69,0,0,0,6-15c0.73,0.2,5.95,1.67,7.8,6.49a9.31,9.31,0,0,1,.53,4.67c-0.8,5.22-6.28,8.28-9.79,10.17-1.48.8-6.26,3.24-16.14,4.54A84.51,84.51,0,0,1,208,499.46Z" transform="translate(-11.21 -9.23)"/><path class="cls-34" d="M203.21,470.83s8.66,15.69,27.09,8.79c0,0-8,9.83-21.6,1.49A12.47,12.47,0,0,1,203.21,470.83Z" transform="translate(-11.21 -9.23)"/></g><ellipse class="cls-35" cx="195.08" cy="560.02" rx="6.04" ry="16.01" transform="translate(-27.5 -3.28) rotate(-1.68)"/><path class="cls-36" d="M285.21,425.55l14.38,6s16-8.84,27.33-23A169.61,169.61,0,0,1,285.21,425.55Z" transform="translate(-11.21 -9.23)"/><path class="cls-36" d="M299.59,431.59c-5.43,1.63-12,32.44-7.8,33.69,0.63,0.19,2.52-1.81,6.29-5.81,2.17-2.3,4.58-5,7.66-8.75,2.47-3,4.85-6,7.06-9.21,1.79-2.57,4.07-5,4.76-8.11a3.37,3.37,0,0,0,0-1.62,2.71,2.71,0,0,0-1.94-1.73,12.54,12.54,0,0,0-4.17-.09c-1.48.11-3,.19-4.44,0.3l-0.26,0A53.26,53.26,0,0,0,299.59,431.59Z" transform="translate(-11.21 -9.23)"/><path class="cls-37" d="M243.25,429.5a40.33,40.33,0,0,1,3,16.69c-0.6,15.79-10.61,26.12-13.37,28.79,9-2,16.62-3.58,22.43-4.76,12.76-2.58,17.35-3.3,21.93-3.83,6.11-.71,11.17-1,14.55-1.11l7.8-33.69-17.45-8Z" transform="translate(-11.21 -9.23)"/><path class="cls-38" d="M270.65,467.52c1.75-.24,2.54-0.3,4.09-0.48,1.4-.16,3.4-0.43,5.86-0.86a37.79,37.79,0,0,0,3.31-16.84c-0.51-12.15-7.39-26.92-14.79-26.92s-14.31,14.72-14.79,26.92a38.49,38.49,0,0,0,5.12,20.27c2.84-.62,5.21-1.08,7-1.41C268.82,467.78,270,467.6,270.65,467.52Z" transform="translate(-11.21 -9.23)"/><ellipse class="cls-39" cx="258.08" cy="440.07" rx="5.3" ry="12.63"/><circle class="cls-40" cx="264.28" cy="429.64" r="5.6"/><path class="cls-37" d="M191.84,433.27s-9.12,19.52,11.37,41.27c-5.23-1.22-12.25-2.71-20.64-4.09a138.47,138.47,0,0,0-14.67-1.9,99.81,99.81,0,0,0-21.81,1.05l-12.5-35.16,20.36-11.28Z" transform="translate(-11.21 -9.23)"/><path class="cls-38" d="M157.45,468.46c2.08,0,4.23,0,6.47.06a122.76,122.76,0,0,1,12.5,1.09s8.21-25.5.69-39.43L161,425.53a38.25,38.25,0,0,0-7.18,14.15C150.17,453.55,155.72,465.16,157.45,468.46Z" transform="translate(-11.21 -9.23)"/><ellipse class="cls-39" cx="155.38" cy="440.63" rx="5.25" ry="12.06"/><circle class="cls-40" cx="162.19" cy="430.5" r="5.31"/><path class="cls-36" d="M133.59,435.92c2.43-1.86,5.16-3.79,8.21-5.67a100,100,0,0,1,12.3-6.49c-6.21-2.12-11.38-4.29-15.36-6.1a98,98,0,0,1-12.32-6.33,78.29,78.29,0,0,1-12.71-9.86c1.85,4.64,4.3,9.6,7,15C124.74,424.31,129.71,432.92,133.59,435.92Z" transform="translate(-11.21 -9.23)"/><path class="cls-36" d="M134.52,435.77c-5.86-2.06-10.76-2.06-12.37.25-0.84,1.2-.8,3,2.25,9.5,4.47,9.46,11.28,23.86,21.19,24.09h0.5q-2.85-7.73-5.62-15.82Q137.32,444.63,134.52,435.77Z" transform="translate(-11.21 -9.23)"/><path class="cls-41" d="M232.84,434.42s-18.37-15.15,19.56-51.7c0,0,40.19,5.87,47.19,12.87,0,0-28.5,13.67-45.25.67,0,0-27.42,9.67-10.58,32.5A12.06,12.06,0,0,1,232.84,434.42Z" transform="translate(-11.21 -9.23)"/><path class="cls-42" d="M247.09,379.42s-16.42,10.75-19.83,38.5c0,0-2.42,14.75,5.58,16.5,0,0-5-3.25-1-19.25s22.5-31.25,22.5-31.25Z" transform="translate(-11.21 -9.23)"/><path class="cls-4" d="M326.25,408.59s-24.5,14.5-49,17.84-33.5,2.33-33.5,2.33-18.17-21.67,10.58-32.5c0,0,12.42,12.83,45.25-.67C299.59,395.59,315.09,401.42,326.25,408.59Z" transform="translate(-11.21 -9.23)"/><path class="cls-41" d="M132.46,394s25.83,20.17,43.67,8.83l2.33-2.69s36.83,2.69,15.83,32c0,0,6.17,8.33,13.67-1.5,0.78-4.58,1.76-14.66-3.63-24.63-8.33-15.42-25.87-19.37-30.25-20.35a49.19,49.19,0,0,0-6.62-1,116.36,116.36,0,0,0-14.31,2C145.46,388.06,136.71,390.39,132.46,394Z" transform="translate(-11.21 -9.23)"/><path class="cls-4" d="M114.59,401.4s13.33-8.31,18-7.48c0,0,31.17,23.62,46,6.14,0,0,36.5,3,15.83,32a86.22,86.22,0,0,1-52.85-11.53A127,127,0,0,1,114.59,401.4Z" transform="translate(-11.21 -9.23)"/><path class="cls-42" d="M189.63,379.42s16.42,10.75,19.83,38.5c0,0,2.42,14.75-5.58,16.5,0,0,5-3.25,1-19.25s-22.5-31.25-22.5-31.25Z" transform="translate(-11.21 -9.23)"/><path class="cls-43" d="M220.77,382.72c-61.53.67-102.39,25.92-102.39,25.92l0.25,3.61s85.07-55,208.67-3.78C327.3,408.46,282.3,382,220.77,382.72Z" transform="translate(-11.21 -9.23)"/><path class="cls-44" d="M120.42,421.27a13.74,13.74,0,0,1-13-8.83c-2.43-6.74,2-12.55,2.25-12.92a19.5,19.5,0,0,1-8.5-16A133.51,133.51,0,0,0,117.38,378c10.78-4.43,18-9.37,20-10.28a211.88,211.88,0,0,1,57.66-16.31l36.65-.61A200.82,200.82,0,0,1,290,360.23a195.09,195.09,0,0,1,50.43,24.42s0.46,5.55-3.53,12a13.36,13.36,0,0,1-11.42,21.73l2.42-9.94a220.92,220.92,0,0,0-70.4-23.39c-65.23-9.9-117.18,12.71-138.52,23.57q0.12,2.19.33,4.5C119.62,416,120,418.71,120.42,421.27Z" transform="translate(-11.21 -9.23)"/><path class="cls-45" d="M188.28,354.07s14.19,14.56,6.08,30.8l-5.13.52s9.08-15.87-5.57-30.53Z" transform="translate(-11.21 -9.23)"/><path class="cls-45" d="M247.37,383.84s-8.69-12.92,4.94-32.18l-4.7-.64s-10.84,17.42-4.49,32.41l1.06,0.09Z" transform="translate(-11.21 -9.23)"/><path class="cls-45" d="M302,397.34s-8.89-12.47,6.84-27.52l-5-2.64s-14.64,16.18-6.76,28.85Z" transform="translate(-11.21 -9.23)"/><path class="cls-45" d="M144.26,397.3c-1,.84,10.17-7.73-13.23-24.19L127,375.23s21.56,14.48,13.62,23.71l1.58-.74Z" transform="translate(-11.21 -9.23)"/><path class="cls-46" d="M338.86,389.87S325.43,375.81,313,378.93s-16.92,2.46-32-4.21-12.36-12-36.06-5h0s-10.83,4.68-36.76-6.33c0,0-31.87-10.24-44.4,9.71,0,0-10.83,9.51-35.51,7.4,0,0-7.75-3.68-14.54,7.06,0,0-10.65,5.42-13.4-1.54h0l21.37-16.29,29-2.54L181.3,351,219,351.9l31.19,3.91,25.33,0.76,15.83,6.83,28.9,3.78,19.74,15.54-1.09,7.15" transform="translate(-11.21 -9.23)"/><path class="cls-12" d="M231,618.87A63.62,63.62,0,0,1,227,598.1l-1-.79c-0.39,3.42.82,12.81,0.82,12.81,6.68,39.47,35.07,33.28,35.07,33.28l0.75-.75S239.9,640.22,231,618.87Z" transform="translate(-11.21 -9.23)"/><path class="cls-47" d="M96.6,354.07c-2.92-7.63-12.88-36.32-.39-66.54,1.53-3.71,9.76-23.61,26.12-34a117.77,117.77,0,0,1,21.23-10s1.4-.51,3.42-1.17c0,0,3.65-1.2,7.13-2.12s61-9.35,78.63,22.62c13.69,24.81-5,59-22.51,76C183.31,365.05,139,370.53,96.6,354.07Z" transform="translate(-11.21 -9.23)"/><path class="cls-4" d="M110.17,355.6c-2.92-7.63-12.88-36.32-.39-66.54,1.53-3.71,9.76-23.61,26.12-34a117.77,117.77,0,0,1,21.23-10s1.4-.51,3.42-1.17c0,0,3.65-1.2,7.13-2.12s61-9.35,78.63,22.62c13.69,24.81-5,59-22.51,76C212.85,351,199,351.14,183.66,354.86,161.18,360.29,135.34,365.38,110.17,355.6Z" transform="translate(-11.21 -9.23)"/><path class="cls-48" d="M179.65,334.12a43.85,43.85,0,0,0-9.12-11.65,45,45,0,0,0-21.9-10.72,12.55,12.55,0,0,0,5-7.65,12.14,12.14,0,0,0-.57-6.57,8.51,8.51,0,0,0,4.39-2.61c2.16-2.48,2.94-6.59,1.45-7.94s-5.62-.21-9.76,3.43c-0.51-.55-5.83-6.08-13.13-5a14.66,14.66,0,0,0-8,4.09,18.56,18.56,0,0,0-3.75,6.21,25.19,25.19,0,0,0-1.3,4.1l-8.54-.48a14.75,14.75,0,0,0-7.61-13.15,14.18,14.18,0,0,0-9.69-1,90.93,90.93,0,0,0-7.13,34.75A93.85,93.85,0,0,0,94,346.46c0.93,3.13,1.88,5.71,2.62,7.6l5.59-2.88A65.24,65.24,0,0,0,116.56,325l29.81,25.81c1-1,2.44-2.58,4.3-4.39,3.07-3,5.65-5.15,6.23-5.62C163,335.82,176.54,334.41,179.65,334.12Z" transform="translate(-11.21 -9.23)"/><path class="cls-49" d="M149.82,298a3.34,3.34,0,0,0,.85.23,5.62,5.62,0,0,0,1.54-.1l1.22-.16a9,9,0,0,0,1.87-.79,9.63,9.63,0,0,0,2.1-1.71c1.73-1.93,3.3-6.94,1.56-8.51-1.52-1.37-5.72-.28-9.76,3.43-0.54-.62-5-5.59-12-5.11a14.75,14.75,0,0,0-9.13,4.23,20.11,20.11,0,0,0-3.85,6.78,29.94,29.94,0,0,0-1.3,4.1l-8.21-1.49c0-.45-0.51-8.8-7.52-12.55a14.48,14.48,0,0,0-10-1.2c-0.59,1.34-1.17,2.76-1.74,4.25s-1,2.67-1.39,3.94a4,4,0,0,0,2.83.8c0.14,0,3.84.41,4.49,0.48s5.2,1.66,6.36,3.18a16.36,16.36,0,0,1,3.39,3.45q1.45,0.33,2.95.71l2.3,0.6h0.09c1,0.18,4,.66,4.6.71a9.63,9.63,0,0,1,4.68-.87,6.9,6.9,0,0,1,.79-0.65c0.94-.65,5.8-1.49,6.36-1.5,2.37,0,3.55-.22,3.86-0.22A54,54,0,0,0,149.82,298Z" transform="translate(-11.21 -9.23)"/><polyline class="cls-4" points="90.08 342.67 104.39 312.54 132.54 341.95 90.08 342.67"/><path class="cls-41" d="M89.06,373.34s-0.86-17.68,12.59-21.93,28.77-.32,38.77,0,6.93-7.3,23.08-14,43.59,0.16,46.71,1.48,9.78,17.83-1.24,21-11.21-3.92-23.84-2.13-18.51,7.42-24.95,14.07-21.1,7.32-33.3,4.71-11.66,12.78-22.12,10.86S89.06,373.34,89.06,373.34Z" transform="translate(-11.21 -9.23)"/><path class="cls-50" d="M113,310.22s6.64-2.38,10.38-1.3l1.43-19s-0.92-3.59-5.77-2.33S113,310.22,113,310.22Z" transform="translate(-11.21 -9.23)"/><path class="cls-51" d="M150.23,296.94c2.08,3.56-2.7,12.48-9.93,14.21-7.64,1.83-16.14-4.82-15.66-8.83,0.37-3.12,6.17-4.79,9.72-5.82C135.82,296.07,147.78,292.73,150.23,296.94Z" transform="translate(-11.21 -9.23)"/><path class="cls-51" d="M96.39,294.34c-2.35,2.56-1.29,10.53,3.3,13.07,4.86,2.69,12.47-1.35,13.15-4.68,0.54-2.58-3.08-4.86-5.29-6.25C106.64,295.92,99.17,291.32,96.39,294.34Z" transform="translate(-11.21 -9.23)"/><ellipse class="cls-52" cx="141.27" cy="302.51" rx="4.27" ry="5.82" transform="translate(-186.85 398.34) rotate(-83.31)"/><ellipse class="cls-52" cx="106.09" cy="301.7" rx="3.57" ry="5.05" transform="matrix(0.32, -0.95, 0.95, 0.32, -224.92, 295.02)"/><path class="cls-53" d="M99.75,323.77c0.42-1.3,4.37-13,13.91-15.4,13.68-3.39,28.58,15,26.46,23.67-2,8.09-15.09,1-23.56-7.05l-3.57.09c-1.41,5.4-4.94,8.67-7.85,8.35a6.18,6.18,0,0,1-3.73-2.45A9.09,9.09,0,0,1,99.75,323.77Z" transform="translate(-11.21 -9.23)"/><path class="cls-50" d="M116.56,325a24,24,0,0,0,1.48,9.48c4.79,12.68,19.14,16.43,21.07,16.91a10.55,10.55,0,0,0,4.63-.19,11.24,11.24,0,0,0,3.25-1.52,13.55,13.55,0,0,0,2.48-2.07c1.36-1.41,3.59-3.51,7.42-6.8a47.38,47.38,0,0,1-24-6.33l-11.06-9.18Z" transform="translate(-11.21 -9.23)"/><path class="cls-50" d="M116.56,325a34.19,34.19,0,0,1-1.63,9.08,38.54,38.54,0,0,1-11.4,16.28,25.74,25.74,0,0,1-2.24,1.55c-2.18,1.39-3.29,2.08-4.14,1.75-0.66-.25-1-1-1.63-2.44a14,14,0,0,1-.85-2.51c-0.32-1.43-.88-3.55-1.94-6.86A31,31,0,0,0,97.23,340a31.64,31.64,0,0,0,8.85-6.62l4.92-8.74Z" transform="translate(-11.21 -9.23)"/><path class="cls-54" d="M105.09,314a16.84,16.84,0,0,1,8.57-5.67c5.5-1.49,10,.48,12.38,1.55,3.42,1.52,8.26,4.7,7.71,6.75-0.23.87-1.38,1.34-2.37,1.6a33.25,33.25,0,0,1-6.91.9c-2.88.07-2.19-.32-7.9-0.71h0a31.65,31.65,0,0,1-7.5-1.37,6.65,6.65,0,0,1-2.63-1.23A5.31,5.31,0,0,1,105.09,314Z" transform="translate(-11.21 -9.23)"/><path class="cls-55" d="M103.61,310.07a7,7,0,0,0,.44,2.51,7.57,7.57,0,0,0,3.66,4,46.06,46.06,0,0,0,10.28,2,45.29,45.29,0,0,0,8.86-.16,45.91,45.91,0,0,0,8.45-1.83c2.33-2.17,2.85-3.56,2.82-4.47a0.55,0.55,0,0,1,0-.28c0.51-.33,5.64,7,2.19,10.35-3.76,3.6-6.47,3.89-11.14,3.54s-25.55-1.4-25.55-1.4A8.09,8.09,0,0,1,99,319,8.27,8.27,0,0,1,103.61,310.07Z" transform="translate(-11.21 -9.23)"/><path class="cls-56" d="M205.52,325.53c-1.52-6.6-6.77-32.93,8.55-58.12a77.76,77.76,0,0,1,25.53-25.08c6.59-4,35-20,67.08-8.33,30.64,11.17,42.1,39.05,45.36,47,14.46,35.43.76,68-2.29,74.78a434.94,434.94,0,0,1-69.61-8.21A435,435,0,0,1,205.52,325.53Z" transform="translate(-11.21 -9.23)"/><path class="cls-4" d="M205.91,324.73c-1.52-6.6-6.77-32.93,8.55-58.12,1.62-2.66,7-22.63,25.53-25.08C345.6,227.61,353.19,348.23,350.15,355a434.94,434.94,0,0,1-69.61-8.21A435,435,0,0,1,205.91,324.73Z" transform="translate(-11.21 -9.23)"/><path class="cls-48" d="M358.55,314.28h0s-0.58-.7-11.1-10.18h0.42a8.07,8.07,0,0,0,2.2-.32,8.17,8.17,0,0,0,1.73-.71,8,8,0,0,0,2-1.63,9.75,9.75,0,0,0,1.76-2.66c0.9-2.12.58-4.11,0.15-6.51a41.9,41.9,0,0,0-1.61-5.54c-0.7-2.14-1.31-3.78-1.59-4.51-0.91-2.39-2.23-5.58-4.08-9.33-1-.4-8.94-3.41-16.7,1a19.4,19.4,0,0,0-9.52,17.39l-11.78.43-1.87-13.4,0.89,6.35A22.13,22.13,0,0,0,303,269a21.22,21.22,0,0,0-18.57-5.71,19.76,19.76,0,0,0-6.73,2.68c-0.63-3.56-3.22-6.15-6.14-6.41a5.77,5.77,0,0,0-5.44,2.56c-1.32,2.37.15,5.2,1,6.79a12.09,12.09,0,0,0,3.17,3.83c-4.64,6.08-5.49,13.81-2.17,19.51a16.15,16.15,0,0,0,8.4,6.8A72,72,0,0,0,231,332.73c0.42,0.57,3.88,5.19,9.42,5.11a10.47,10.47,0,0,0,4.92-1.35,44.65,44.65,0,0,1,15.84-8.19,42.94,42.94,0,0,1,5.16-1.1,35.92,35.92,0,0,1,19.73,5.3,34.81,34.81,0,0,1,8.92,8l-0.14,0c0.11,0.08.2,0.18,0.31,0.26a6.32,6.32,0,0,1,.76.6h0.33c8.14-.18,23.27-25,23.27-25-0.87,5.6,11.2,24,11.2,24,14.83,4.74,19.15,14.65,19.15,14.65a101.3,101.3,0,0,0,4.84-13.32,99.88,99.88,0,0,0,3.09-15.06A97.65,97.65,0,0,0,358.55,314.28Z" transform="translate(-11.21 -9.23)"/><path class="cls-4" d="M320.26,312.07l-30.83,32.06,47.14-.38Z" transform="translate(-11.21 -9.23)"/><path class="cls-49" d="M351.79,283c0.61-1.59.1-3.06-.57-5a17.33,17.33,0,0,0-2.78-5c-1.17-.46-8.41-3.18-15.84.58a19.63,19.63,0,0,0-10.49,16.94l-11.23,1.36s-1-10.28-1.86-13.34v0a21,21,0,0,0-5.52-9.4,21.22,21.22,0,0,0-18.57-5.71,19.76,19.76,0,0,0-6.73,2.68c-0.82-3.49-3.28-6-6.14-6.41-2.15-.27-5,0.62-5.89,2.55a5.86,5.86,0,0,0-.2,2.92,11.6,11.6,0,0,0,.84,3.45,19.16,19.16,0,0,0,3.26,4.17q1.38,1.33,2.93,2.7,1.21,1.07,2.4,2a52.87,52.87,0,0,0,4,4.54,33.38,33.38,0,0,0,3.32,3,27.83,27.83,0,0,0,2.8,1.9,60.38,60.38,0,0,0,23.42,6.47,46.75,46.75,0,0,0,14.52.58c7.53-.92,8.23-3,14.6-2.78,2.47,0.08,5.19.49,7.64-1.2a8.6,8.6,0,0,0,3-4.06A5.61,5.61,0,0,0,351.79,283Z" transform="translate(-11.21 -9.23)"/><path class="cls-53" d="M283.15,331.35s-9-21.32,19.18-35.83a27,27,0,0,1,17-3.14c12.62,2.07,21.33,14.2,23.59,24.34,1.73,7.77.56,18.39-.08,18.42a0.1,0.1,0,0,1-.07,0c-0.64-.63-14.09-14-14.42-20.88l-16.52-.63c-4,3-8.54,6.13-13.48,9.22C293,326.11,287.92,328.94,283.15,331.35Z" transform="translate(-11.21 -9.23)"/><path class="cls-49" d="M309.23,279.94l-0.08-.59Z" transform="translate(-11.21 -9.23)"/><path class="cls-49" d="M309.82,284.21l-0.18-1.3Z" transform="translate(-11.21 -9.23)"/><path class="cls-49" d="M309.63,282.81l-0.31-2.25Z" transform="translate(-11.21 -9.23)"/><path class="cls-50" d="M283.12,331.35a119.2,119.2,0,0,0,27.07-17.67l10,0.36a47.66,47.66,0,0,1-5.8,12.09,49.13,49.13,0,0,1-18.9,16.49Z" transform="translate(-11.21 -9.23)"/><path class="cls-50" d="M320.21,314s-3.82,15.18,9.4,25.59l9.14,7.38q5.51,4.43,11,8.82L354,345.09a75.79,75.79,0,0,1-25.27-31.16Z" transform="translate(-11.21 -9.23)"/><path class="cls-57" d="M283.12,331.35s-9-21.32,19.18-35.83a27,27,0,0,1,17-3.14c12.62,2.07,21.33,14.2,23.59,24.34,1.73,7.77.56,18.39-.08,18.42a0.1,0.1,0,0,1-.07,0c-0.64-.63-14.09-14-14.42-20.88l-17.11-.4S285.44,331.85,283.12,331.35Z" transform="translate(-11.21 -9.23)"/><path class="cls-50" d="M308,293.2s0.08-18.26,6.16-19.86,10.78,3.87,10.31,11.78-0.22,9.94-.22,9.94l-16.29-.38Z" transform="translate(-11.21 -9.23)"/><path class="cls-54" d="M337.8,309.56a7.56,7.56,0,0,1,2.75.56c-3.84-8.23-11.34-16.12-21.29-17.75a27,27,0,0,0-17,3.14c-6.72,3.46-11.32,7.3-14.44,11.15,3,0.32,6,.74,8.94,1.35a64.9,64.9,0,0,1,11.1,3.78H308c8.1,0.16,16.2.07,24.3,0.06A6.72,6.72,0,0,1,337.8,309.56Z" transform="translate(-11.21 -9.23)"/><path class="cls-51" d="M303.55,288.7c0,4.54-10.73,11.06-19.32,7.84s-12.45-15.08-9.41-18.61,13.66,1,17.8,2.78C297.88,283,303.53,285.43,303.55,288.7Z" transform="translate(-11.21 -9.23)"/><path class="cls-51" d="M352,284.71a5.28,5.28,0,0,0-.44-2.27,4.19,4.19,0,0,0-1.31-1.56c-0.52-.09-1.07-0.17-1.65-0.22a19.77,19.77,0,0,0-4.7.13,51.85,51.85,0,0,0-9.69,3.56c-4,1.92-5.93,2.88-6.29,4.38-1,4.1,7.68,12.85,15.17,10.86,5.09-1.36,9-6.87,8.87-13.41A14.44,14.44,0,0,0,352,284.71Z" transform="translate(-11.21 -9.23)"/><circle class="cls-52" cx="342.1" cy="292.33" r="5.61" transform="translate(30.61 618.23) rotate(-88.65)"/><circle class="cls-52" cx="291.31" cy="289.46" r="6.08" transform="translate(-16.11 564.66) rotate(-88.65)"/><path class="cls-55" d="M289.45,294.76a9.76,9.76,0,0,0,8.67,9.17c8.51,1.34,35.66,1.49,35.66,1.49a7.72,7.72,0,0,0,4.37-1.35,8.11,8.11,0,0,0,3.26-5.68s6,9,.55,16c0,0-49,2.28-54.92-3.35S286.16,297.31,289.45,294.76Z" transform="translate(-11.21 -9.23)"/><path class="cls-41" d="M192.09,344.29a37.33,37.33,0,0,1,3.22-8.71c3-5.69,8.32-11.89,17.29-10.86,16.1,1.85,23.19,12.21,31.54,10.73s16.43-12.19,27.61-9.41,19.3,11.29,23.12,15.29,19.55,0.46,25.47-1.36,23.29,4.46,29.42,15.85,9.7,22.73-.68,28.84-23.68-10.34-32-10.53-15.27,4.53-18.69,4.45S269,360.77,261.12,362s-20.79,10.52-37.25,3.16S200.52,360.14,192.09,344.29Z" transform="translate(-11.21 -9.23)"/><path class="cls-58" d="M224,257.14s-25.29,41.06-4,70.09c0,0-17.47-10-25.53,13.94,0,0,24.11-55.44-5.11-75h0s11.16,11.89,34.68-9" transform="translate(-11.21 -9.23)"/><path class="cls-47" d="M117.9,231c-13.7-33.3-7.56-71.16,15.77-97,30.78-34,75.29-29.23,79.46-28.71,8.65,1,36.62,5.38,58.68,29,34,36.33,23.24,85.39,22.24,89.63a442.72,442.72,0,0,1-80,12A443,443,0,0,1,117.9,231Z" transform="translate(-11.21 -9.23)"/><path class="cls-4" d="M291.29,231.51c13.7-33.3,7.56-71.16-15.77-97-30.78-34-75.29-29.23-79.46-28.71-86.45,50.19-31.77,128.84-.89,130.62A443,443,0,0,0,291.29,231.51Z" transform="translate(-11.21 -9.23)"/><path class="cls-48" d="M117.9,231a51.51,51.51,0,0,1,3.91-20.91,52.26,52.26,0,0,1,18.35-22.61s-14.44-5.13-10-25.67c0,0-7.26-6.12-5.06-11.37s9.9,3.67,9.9,3.67c1.22-.73,9.58-5.55,19.44-2.2a23.46,23.46,0,0,1,12.47,10.27l14.3,0.73a28.52,28.52,0,0,1,10.64-14.3,25.76,25.76,0,0,1,10.64-4.4,27.76,27.76,0,0,1,6.78-.18,28.73,28.73,0,0,1,6.78,1.47c5.32-5.53,10.29-8.39,12.47-7,1.82,1.19,1.39,5.22,1.28,6.23a12.93,12.93,0,0,1-3.8,7.66c0.7,0.69,7.8,7.93,6,17.78a19.45,19.45,0,0,1-6,10.7,48,48,0,0,1,17,6.77c15.13,9.78,19.9,25.31,21.17,30.1l-5.13,0L207.08,231l-29-40.55-9.92,1.05-16.14,34Z" transform="translate(-11.21 -9.23)"/><polyline class="cls-4" points="162.1 178.84 137.47 219.31 192.87 221.77 162.1 178.84"/><path class="cls-59" d="M117.15,269s-21.81-5.78-9.1-27.78,80.19-12.71,89-9.78S222,231.82,227.36,227s39.61-14.24,70.41,0,6.36,17.24,6.36,17.24-10.76-5.44-20,2.38a40.57,40.57,0,0,1-38.63,7c-14.77-4.86-31.66,18.4-43.21,19.37S174,254.44,159.61,257.37s-37.24,14-42.46,11.65" transform="translate(-11.21 -9.23)"/><path class="cls-41" d="M116.62,267.32s-21.81-5.78-9.1-27.78,80.19-12.71,89-9.78,24.94,0.36,30.32-4.46,39.61-14.24,70.41,0,6.36,17.24,6.36,17.24-10.76-5.44-20,2.38a40.57,40.57,0,0,1-38.63,7c-14.77-4.86-31.66,18.4-43.21,19.37s-28.22-18.58-42.62-15.65-37.24,14-42.46,11.65" transform="translate(-11.21 -9.23)"/><path class="cls-49" d="M228.54,138.5c-2.17-1.42-7.15,1.44-12.47,7a28.73,28.73,0,0,0-6.78-1.47,27.76,27.76,0,0,0-6.78.18,25.76,25.76,0,0,0-10.64,4.4,28.52,28.52,0,0,0-10.64,14.3l-14.3-.73a23.46,23.46,0,0,0-12.47-10.27c-9.86-3.35-18.21,1.47-19.44,2.2,0,0-7.71-8.92-9.9-3.67s5.06,11.37,5.06,11.37a10.2,10.2,0,0,0,2,1.59,10.31,10.31,0,0,0,3.79,1.34,24.75,24.75,0,0,0,6,4.7,25.48,25.48,0,0,0,13.13,3.13,25.68,25.68,0,0,0,15.57-3.3l7.21,0.12a20.39,20.39,0,0,0,19.19,2,13.24,13.24,0,0,0,4.77-.87c3.17-1.23,13.78-8.2,15-9.3,1-.89,2.08-1.68,3.21-2.69,1.81-1.61,3.27-3.08,4.37-4.24a14.81,14.81,0,0,0,5.31-9.48C230,143.52,230.35,139.69,228.54,138.5Z" transform="translate(-11.21 -9.23)"/><path class="cls-53" d="M159,205.91c-1,.39-9.43,3.48-14.37-0.88a8.81,8.81,0,0,1-2.68-4.37c-2-8.53,13.6-25.8,31.54-26.93,13.47-.85,26.78,7.49,34.47,20.88a9.5,9.5,0,0,1-.72,7c-3.14,5.22-12,4.21-15.13,3.85-3.67-.42-10.52-1.2-13.86-6.78a13.47,13.47,0,0,1-1.69-8l-6.44.69a14.36,14.36,0,0,1-2.36,8.66A14.57,14.57,0,0,1,159,205.91Z" transform="translate(-11.21 -9.23)"/><path class="cls-50" d="M167.42,175.12h13.32s1.71-29.22-6.85-29.22S167.05,169,167.42,175.12Z" transform="translate(-11.21 -9.23)"/><path class="cls-54" d="M152,188a17.37,17.37,0,0,0,2.45.56c5.11,0.74,11.19-.29,16.33-0.41,5.93-.14,11.92-0.13,17.83-0.48A52.9,52.9,0,0,0,201,185.08c-7.57-7.73-17.42-12.14-27.37-11.51-9.18.58-17.73,5.39-23.64,11.09A7.9,7.9,0,0,1,152,188Z" transform="translate(-11.21 -9.23)"/><path class="cls-50" d="M166.61,191.65l6.7-.69a40,40,0,0,1-3.05,16.37,40.7,40.7,0,0,1-14.88,18l-17,2.36c4.32-4.72,8.75-9.86,13.2-15.45C157.27,205.12,162.24,198.22,166.61,191.65Z" transform="translate(-11.21 -9.23)"/><path class="cls-50" d="M173.31,191a63.09,63.09,0,0,0,5.32,16.54,64.12,64.12,0,0,0,17.89,22.25,42,42,0,0,0,25.15-1.54A93.11,93.11,0,0,1,181,190.11Z" transform="translate(-11.21 -9.23)"/><path class="cls-55" d="M152.24,176.94s-4.69,3.43-3.34,8.45,3.88,6.68,8.95,6.86S196,188.34,196,188.34s5.9-1.2,5.78-5.79-1.2-9.09-5.62-10.11c0,0,2.33,8.24-2.63,9.49s-35.14,3.43-35.14,3.43S151.14,185.9,152.24,176.94Z" transform="translate(-11.21 -9.23)"/><path class="cls-51" d="M163.34,173.84c-0.7,5.71-11.54,11.16-19.72,7.73s-11.86-15.09-8.27-19.5,13.75-.93,14.75-0.59C155.59,163.35,164,168.46,163.34,173.84Z" transform="translate(-11.21 -9.23)"/><path class="cls-51" d="M186.82,170.09c0.67,6.7,13.22,13.35,22.87,9.54s14.25-17.35,10.16-22.6-16.06-1.43-17.24-1.06C196.14,158,186.19,163.78,186.82,170.09Z" transform="translate(-11.21 -9.23)"/><circle class="cls-52" cx="140.19" cy="161.28" r="6.52"/><circle class="cls-52" cx="197.76" cy="157.23" r="7.22"/><ellipse class="cls-60" cx="222.32" cy="88.02" rx="30.56" ry="29.34"/><ellipse class="cls-61" cx="219.74" cy="83.52" rx="22.78" ry="24.84"/><ellipse class="cls-62" cx="213.03" cy="75.11" rx="8.34" ry="8.91"/><path class="cls-63" d="M242.65,69.23s14.86-45.34,44.93-60l9.17,13.57S261.13,41.37,250.7,73Z" transform="translate(-11.21 -9.23)"/><path class="cls-59" d="M195.31,335.58s-5.54,5.54-4.54,8.55,5.84,16.68,14.92,16.47l3.28-.7s-14.66-6.25-16.88-15.61c0,0,3.37-8.05,4.78-8.47Z" transform="translate(-11.21 -9.23)"/></svg>