<svg id="Layer_11" data-name="Layer 11" xmlns="http://www.w3.org/2000/svg" viewBox="0 0 421.32 721.79"><defs><style>.cls-1{fill:#48764b;}.cls-2{fill:#e69545;}.cls-3{fill:#1c8140;}.cls-4{fill:#f6a247;}.cls-5{fill:#f9a14f;}.cls-6{fill:#562524;}.cls-7{fill:#512222;}.cls-8{fill:#c2915b;}.cls-9{fill:#944542;}.cls-10{fill:#602223;}.cls-11{fill:#e58f48;}.cls-12{fill:#f5e2a7;}.cls-13{fill:#f1af55;}.cls-14{fill:#faa54f;}.cls-15{fill:#316e41;}.cls-16{fill:#6e9658;}.cls-17{fill:#8b4544;}.cls-18{fill:#1f361d;}.cls-19{fill:#eeeeed;}.cls-20{fill:#6d6f2b;}.cls-21{fill:#231f20;}.cls-22{fill:#fff;}.cls-23{fill:#263c20;}.cls-24{fill:#122915;}.cls-25{fill:#3e572e;stroke:#3d572e;stroke-miterlimit:10;}.cls-26{fill:#e98a3b;}.cls-27{fill:#8b653e;}.cls-28{fill:#1d8040;}.cls-29{fill:#9ac581;}.cls-30{fill:#398349;}.cls-31{fill:#1a6835;}.cls-32{fill:#e2e2e2;}.cls-33{fill:#010101;}.cls-34{fill:#8b4645;}.cls-35{fill:#228d51;}.cls-36{fill:#d4d2c7;}.cls-37{fill:none;}.cls-38{fill:#1b5c2f;}.cls-39{fill:#63141e;}.cls-40{fill:#853837;}.cls-41{fill:#c98586;}.cls-42{fill:#4e141b;}</style></defs><title>tossakan</title><path class="cls-1" d="M483.25,531.25s35.5,30.5,40.5,46.75v16.5S508,613.25,503.5,613.25L466,649.75s-20.25,13-23.75,28c0,0-4.25,13.5-15.5,10.75,0,0-6.25-.75-11.25-15.75L494,597.5l-38.75-39Z" transform="translate(-111.31 -50.84)"/><path class="cls-2" d="M495.75,597.25c15.11-.36,25.87-8.95,26.67-17.92,0.12-1.37.33-6.29-4.59-12.14,1.2,0.14,9.38,1.23,13.08,7.92a15.73,15.73,0,0,1,1.34,10.64c-1.9,10.24-14.66,18.77-31.75,22.5Z" transform="translate(-111.31 -50.84)"/><path class="cls-3" d="M413.5,586.25L438.25,603l30.25,3.75,29-6.5s-30.25-34.5-35.75-35.25L410,581.5Z" transform="translate(-111.31 -50.84)"/><path class="cls-4" d="M461.25,607.5a11.87,11.87,0,0,1,1.25-4.75c0.34-.66,1.83-3.43,6.56-5.89a28.8,28.8,0,0,1,19.76-2.46c2.65,0.78,11.81,3.46,15.18,12.6,3.71,10-2.86,18.93-3.35,19.56a17.78,17.78,0,0,0-28.28-17.44Z" transform="translate(-111.31 -50.84)"/><path class="cls-1" d="M157.67,540s-42.67,73.33-46,143.33c0,0-4,28,14.67,33.33H137L190.33,562Z" transform="translate(-111.31 -50.84)"/><path class="cls-2" d="M138.86,578.4A18.68,18.68,0,0,0,145,601.5a20.53,20.53,0,0,0,6.37,1.81c7.8,0.89,13.79-3.08,15.71-4.47l-6.14,13.56a22,22,0,0,1-10.18,2.47c-12.79-.12-20.39-12.11-21.08-13.25a18.53,18.53,0,0,1-2.55-7.87c-0.13-1.57-.77-9.31,4.63-13.25A11.59,11.59,0,0,1,138.86,578.4Z" transform="translate(-111.31 -50.84)"/><path class="cls-3" d="M182.33,569.33s-43,72.42-53.33,153.08c0,0-1.67,12.33,15,24,0,0,6.67,9.67,24,0,0,0,15,.33,14.33-11.67,0,0,2.33-29.33-8.67-32.67,0,0,13.33-42.33,13.67-61.67l8.33-15.33S218,604.5,225.33,588l7-6.87-43-15Z" transform="translate(-111.31 -50.84)"/><path class="cls-4" d="M164.13,605.75c-0.66.93-5,7.21-2.87,14.5A16.26,16.26,0,0,0,166.5,628a19.9,19.9,0,0,0,12.68,4.55,21.25,21.25,0,0,0,11.2-2.68,17.87,17.87,0,0,0,5.14-4.51c0.55-.68.78-1.06,0.92-1,0.6,0.24.36,8.21-4.81,13.13-6.09,5.8-15.53,4.05-18.36,3.52-1.6-.3-19.32-3.64-20.77-16.27C151.68,617.58,156.4,610,164.13,605.75Z" transform="translate(-111.31 -50.84)"/><path class="cls-5" d="M122,439s48.5,54,102.5,51c0,0,10,79.5,0,89.5l-43.17-9.83A84,84,0,0,1,167,555.5c-4.85-6.12-7.85-11.86-13.64-23.09-1.59-3.08-6.4-12.49-9.8-20.26C131,483.58,123,444.14,122,439Z" transform="translate(-111.31 -50.84)"/><path class="cls-6" d="M145.7,460.29a143.22,143.22,0,0,0,78.8,30.21,152.8,152.8,0,0,1,1.25,72l-37.58-10A112.33,112.33,0,0,1,177,538.83a123.35,123.35,0,0,1-9.5-16.5,193.66,193.66,0,0,1-10-25.33C154.16,487.08,150.12,474.71,145.7,460.29Z" transform="translate(-111.31 -50.84)"/><path class="cls-2" d="M168,463s20.5,17,55.5,26c0,0,8.5,37,3,52l-16-3.5a29.59,29.59,0,0,1-13.17-7.33c-2.88-2.82-4.41-5.59-7.33-11a124.2,124.2,0,0,1-6.33-13.5C177,488.41,168.83,465.36,168,463Z" transform="translate(-111.31 -50.84)"/><path class="cls-7" d="M189.58,476.33c3.68,1.85,7.65,3.67,11.92,5.4a163.12,163.12,0,0,0,24.07,7.65L229.5,527A52.45,52.45,0,0,1,219,524.8a51.1,51.1,0,0,1-7.71-3.18s-1.44-.74-2.63-1.46c-5.2-3.13-7.83-8.3-12.5-22.17C194.2,492.15,191.9,484.85,189.58,476.33Z" transform="translate(-111.31 -50.84)"/><path class="cls-5" d="M513.71,429.76s-43.48,58.12-97.53,60q-1.13,20.75-1.71,42.53-0.65,25.15-.48,49l52.3-16a84,84,0,0,0,13-15.39c4.29-6.53,6.76-12.52,11.52-24.22,1.31-3.21,5.25-13,7.95-21.05C508.69,475,513.15,435,513.71,429.76Z" transform="translate(-111.31 -50.84)"/><path class="cls-6" d="M492,453.08a143.22,143.22,0,0,1-75.79,37.13c-0.94,9.46-1.64,19.45-2,29.93-0.55,15.25-.34,29.58.36,42.84L458,548.72a112.33,112.33,0,0,0,9.9-14.61,123.36,123.36,0,0,0,8-17.28,193.66,193.66,0,0,0,7.7-26.13C486,480.52,488.9,467.84,492,453.08Z" transform="translate(-111.31 -50.84)"/><path class="cls-2" d="M470,457.77s-18.9,18.76-53,30.86c-0.72,6.59-1.31,13.47-1.73,20.61-0.67,11.36-.83,22.14-0.64,32.26l19.65-5.72a29.59,29.59,0,0,0,12.46-8.48c2.61-3.07,3.89-6,6.32-11.61a124.2,124.2,0,0,0,5.1-14C463.39,483.88,469.43,460.2,470,457.77Z" transform="translate(-111.31 -50.84)"/><path class="cls-7" d="M449.74,473c-3.5,2.17-7.29,4.34-11.39,6.44a163.12,163.12,0,0,1-23.29,9.77L414.51,527a52.45,52.45,0,0,0,10.25-3.13,51.1,51.1,0,0,0,7.4-3.85s1.37-.86,2.49-1.69c4.9-3.58,7.06-9,10.47-23.2C446.56,489.15,448.19,481.67,449.74,473Z" transform="translate(-111.31 -50.84)"/><path class="cls-4" d="M359,729.62a160.47,160.47,0,0,0-.19,20.21c0.15,2.88.38,5.66,0.67,8.33,30.91,19.85,61.25,17.48,70.83,3.67,7-10.06,2.09-24.94.67-29.08a25.28,25.28,0,0,1-12,8.91,25.56,25.56,0,0,1-13.45.75,30.38,30.38,0,0,1-16-8.76,9,9,0,0,0-4.76-1.51,17.79,17.79,0,0,0-4.07.86c-3.36.9-3.91,1.34-5.83,1.5l-2.51.17-2.49.17Z" transform="translate(-111.31 -50.84)"/><path class="cls-8" d="M367.84,738.8a28,28,0,0,0,8,.43,28.51,28.51,0,0,0,12.67-4.36,53.18,53.18,0,0,0,5.06,3.65c1.68,1.07,6.17,4.07,10.44,5.12a28.14,28.14,0,0,0,19.42-2.35,39.56,39.56,0,0,1-8.19,3.59,67.1,67.1,0,0,1-12.87,1.75A70.71,70.71,0,0,1,367.84,738.8Z" transform="translate(-111.31 -50.84)"/><path class="cls-3" d="M380.25,733.75h2.9a4.53,4.53,0,0,1,4.1-2.25,5.37,5.37,0,0,1,1.41.19l0,0c-4-8.79-1.9-17.81-1.57-19.13a35.24,35.24,0,0,0,1.05-4.38c-0.2-.07-1.42,3.09-1.42,3.09l-27.51-1.54s-0.59,11.17-.32,22.41c3.85,0.27,7.7.58,11.54,1,2.69,0.27,5.39.62,8.08,1A4.79,4.79,0,0,1,380.25,733.75Z" transform="translate(-111.31 -50.84)"/><path class="cls-4" d="M358.85,726.77a6.77,6.77,0,0,0-1.35,3.61,7,7,0,0,0,1.74,5,26.13,26.13,0,0,0,30.26-1.67,4.65,4.65,0,0,0,.63-3.41,4.92,4.92,0,0,0-3.06-3.33A22.86,22.86,0,0,1,358.85,726.77Z" transform="translate(-111.31 -50.84)"/><path class="cls-4" d="M272.5,726.77a160.47,160.47,0,0,1,.16,20.21c-0.16,2.88-.39,5.66-0.68,8.33-30.94,19.8-61.28,17.38-70.84,3.56-7-10.07-2-24.95-.62-29.08a25.28,25.28,0,0,0,12,8.93,25.56,25.56,0,0,0,13.45.77A30.38,30.38,0,0,0,242,730.76a9,9,0,0,1,4.76-1.51,17.79,17.79,0,0,1,4.07.86c3.36,0.91,3.91,1.34,5.83,1.51l2.51,0.17,2.49,0.17Z" transform="translate(-111.31 -50.84)"/><path class="cls-8" d="M263.67,735.93a28,28,0,0,1-8,.42A28.51,28.51,0,0,1,243,732a53.18,53.18,0,0,1-5.07,3.64c-1.68,1.06-6.18,4.06-10.45,5.11a28.14,28.14,0,0,1-19.42-2.38,39.56,39.56,0,0,0,8.19,3.6,67.1,67.1,0,0,0,12.87,1.77A70.71,70.71,0,0,0,263.67,735.93Z" transform="translate(-111.31 -50.84)"/><path class="cls-3" d="M251.07,731.39l-2.9-.19a4.53,4.53,0,0,0-3.94-2.51,5.37,5.37,0,0,0-1.42.09l0,0c4.58-8.51,3.06-17.65,2.81-19a35.24,35.24,0,0,1-.77-4.44c0.2-.05,1.22,3.18,1.22,3.18l27.55,0.25s-0.14,11.18-1.14,22.38c-3.86,0-7.72.08-11.58,0.22-2.71.1-5.42,0.27-8.13,0.46A4.79,4.79,0,0,0,251.07,731.39Z" transform="translate(-111.31 -50.84)"/><path class="cls-4" d="M272.88,725.82A6.77,6.77,0,0,1,274,729.5a7,7,0,0,1-2.06,4.83,26.13,26.13,0,0,1-30.08-3.64,4.65,4.65,0,0,1-.4-3.44,4.92,4.92,0,0,1,3.27-3.12A22.86,22.86,0,0,0,272.88,725.82Z" transform="translate(-111.31 -50.84)"/><path class="cls-9" d="M207.42,674c0.14,3.33,1.07,16.2,11.37,26.33,8.83,8.68,22,12.87,33.37,10.3A29.55,29.55,0,0,0,259.4,708c28.7-14.48,95.69.48,96.74,0.63h0c15,8.64,33.31,7.66,46.13-2.32,15.56-12.11,15.3-31.46,15.24-33.56L308.27,631.86Z" transform="translate(-111.31 -50.84)"/><path class="cls-10" d="M223.83,588.23A78.43,78.43,0,0,1,178.67,657c2,2.23,20.46,22.48,49.4,20,26.34-2.22,40.82-21.49,42.91-24.38l55.69-13.17s75.16,68.64,120.41,13.57A102.28,102.28,0,0,1,417,586.5L287.48,557Z" transform="translate(-111.31 -50.84)"/><path class="cls-11" d="M444.25,649.75c-2.43-1.26-4.78-2.33-7-3.25a93.63,93.63,0,0,0-14.92,3.57,38.28,38.28,0,0,1-7,1.67c-3.74.56-4.7-.55-8.83-0.61a25.47,25.47,0,0,0-9.17,1.61c-1.72-1-3.55-2-5.43-2.93-4.19-.72-8.32-1.71-12.57-2.54-7.31-1.44-13.56-4.58-20.51-7.12l-1.35-.5a0.45,0.45,0,0,1-.22.1,0.87,0.87,0,0,1-.74-0.46c-6-2.26-11.66-4.85-16.3-9.5a4.82,4.82,0,0,1-1.39-2.53c-5.72-3.66-9-9-10.37-10.19l-0.52.53c0.24,1,.83,2.54.07,3.29a1.57,1.57,0,0,1-2,.08c-0.2-.29-0.13-0.92.83-2.28-5.3,5-11.6,8.71-18,12.15a4.75,4.75,0,0,1-5.39-.43l-0.07,0c-8.22,2.15-18-.55-26.15-1.84a4,4,0,0,1-3.5-3.44,5.3,5.3,0,0,1-2.26-1.47c-4.29,5-5.51,7.51-5.78,8.84a4.38,4.38,0,0,1-1,2.38c-0.85.91-2,1.07-2,1.63s0.86,0.59.89,0.89c0.22,2-28.78,3.7-31.56,3.68a4.77,4.77,0,0,1-2-.41,4.58,4.58,0,0,1-1.36-1l-14.12,5.07a6.25,6.25,0,0,1-3,.1,17.32,17.32,0,0,1-9.89-4.23,79.37,79.37,0,0,1-23,16.35c2,2.22,20.66,22.78,49.88,20.25,26.28-2.27,40.77-21.45,42.91-24.38l55.69-13.17c28.78,30.15,66.35,42.86,95.77,31.42,6.6-2.57,16.35-7.73,25.83-18.88C447.34,651.41,445.84,650.57,444.25,649.75Z" transform="translate(-111.31 -50.84)"/><path class="cls-12" d="M210.33,630a82.92,82.92,0,0,1-17.58,18.63c2.69,2.15,17.89,13.86,38.25,10.71,18.53-2.87,34.07-16.92,40-36a54.53,54.53,0,0,1-18.57,10.21C232.61,639.74,215.34,632.36,210.33,630Z" transform="translate(-111.31 -50.84)"/><path class="cls-12" d="M329.13,618.13a85,85,0,0,0,32.62,28.37c33.17,16.14,65.51,3.94,71.49,1.55-8.36-2-17.73-4.17-28-6.3-6-1.24-10.32-2.08-27.5-5.5-15.32-3.05-23.09-4.6-28-6.5A83.17,83.17,0,0,1,329.13,618.13Z" transform="translate(-111.31 -50.84)"/><path class="cls-13" d="M268.88,622.44c8.45,30,1.19,55.44-13.55,62.23-2.9,1.33-8.94,3.27-18.7.46,4.66,16.36,17.13,28.92,32.7,32.54s28.34-3.1,31.67-5c15.65,10.85,35.38,10.64,48,.33,12.14-9.92,12.91-25.27,13-28-8.41.8-14-1.2-17.33-3-16.38-8.79-23.32-36-15.09-67.23Z" transform="translate(-111.31 -50.84)"/><path class="cls-12" d="M284.11,633.85A83.2,83.2,0,0,1,266,699a30.77,30.77,0,0,0,34-7,32.64,32.64,0,0,0,17,9.33c12.39,2.34,24.25-3.59,24-5.33-0.12-.84-2.93-0.16-7.33-2.33a24.08,24.08,0,0,1-7.81-6.5,31.45,31.45,0,0,1-4.19-6.5c-3.91-8.09-4.29-17.82-4.67-24.33-0.34-5.92-1-14.43-2.28-25Z" transform="translate(-111.31 -50.84)"/><path class="cls-14" d="M251,587.6a89.65,89.65,0,0,0,10,24.24A92.92,92.92,0,0,0,297.64,646,246,246,0,0,0,353,588.3l-55.12-35.52Z" transform="translate(-111.31 -50.84)"/><path class="cls-11" d="M440.53,647.22a209.33,209.33,0,0,1-40.19,9.32c-9.69,1.29-18.3-.36-26.77-3.29,40.23,35,78.2-3.82,78.2-3.82A38.26,38.26,0,0,1,440.53,647.22Z" transform="translate(-111.31 -50.84)"/><path class="cls-3" d="M216.33,443.33s16.67,87.33,7.33,144c0,0,35.95,11.33,74-26,0,0,38.11,38.67,118.61,25.67,0,0-8.5-80.75,11.75-137.5C428,449.5,312.67,388.67,216.33,443.33Z" transform="translate(-111.31 -50.84)"/><path class="cls-15" d="M225.17,516.5s7-16.83,80.17,0H334.5s76.76-20,80.83,0c-0.69,9.36-1.1,19.34-1.1,29.88,0,14.62.78,28.21,2,40.63a153.63,153.63,0,0,1-119.5-24.62,83.65,83.65,0,0,1-72.92,25.85S227.67,525,225.17,516.5Z" transform="translate(-111.31 -50.84)"/><path class="cls-16" d="M306,518.35s-32,19.52-74,3.73a63.24,63.24,0,0,0,4.71,15c7.17,15.68,19.08,24.52,25.46,28.54a136,136,0,0,1,40.58-12.54l-6,9.25a111.07,111.07,0,0,0,20.88,14.31,114.13,114.13,0,0,0,49.88,13,59.12,59.12,0,0,1-11.54-6.6c-13.58-9.95-19.68-23.39-22.29-30.61a109.83,109.83,0,0,1,46,11.71,65.51,65.51,0,0,0,30.07-46.75,81.6,81.6,0,0,1-75.23-.26Z" transform="translate(-111.31 -50.84)"/><path class="cls-17" d="M281.57,544.66a180,180,0,0,1,79-1.53l6.72-7.64c-12.31-.83-25.63-1.21-39.84-0.9a449.13,449.13,0,0,0-53.66,4.4Z" transform="translate(-111.31 -50.84)"/><path class="cls-18" d="M385.31,467.16l14.38,6s16-8.84,27.33-23A169.61,169.61,0,0,1,385.31,467.16Z" transform="translate(-111.31 -50.84)"/><path class="cls-18" d="M399.69,473.2c-5.43,1.63-12,32.44-7.8,33.69,0.63,0.19,2.52-1.81,6.29-5.81,2.17-2.3,4.58-5,7.66-8.75,2.47-3,4.85-6,7.06-9.21,1.79-2.57,4.07-5,4.76-8.11a3.37,3.37,0,0,0,0-1.62,2.71,2.71,0,0,0-1.94-1.73,12.54,12.54,0,0,0-4.17-.09c-1.48.11-3,.19-4.44,0.3l-0.26,0A53.26,53.26,0,0,0,399.69,473.2Z" transform="translate(-111.31 -50.84)"/><path class="cls-19" d="M343.35,471.11a40.33,40.33,0,0,1,3,16.69c-0.6,15.79-10.61,26.12-13.37,28.79,9-2,16.62-3.58,22.43-4.76,12.76-2.58,17.35-3.3,21.93-3.83,6.11-.71,11.17-1,14.55-1.11l7.8-33.69-17.45-8Z" transform="translate(-111.31 -50.84)"/><path class="cls-20" d="M370.75,509.13c1.75-.24,2.54-0.3,4.09-0.48,1.4-.16,3.4-0.43,5.86-0.86A37.79,37.79,0,0,0,384,490.95c-0.51-12.15-7.39-26.92-14.79-26.92s-14.31,14.72-14.79,26.92a38.49,38.49,0,0,0,5.12,20.27c2.84-.62,5.21-1.08,7-1.41C368.92,509.39,370.15,509.21,370.75,509.13Z" transform="translate(-111.31 -50.84)"/><ellipse class="cls-21" cx="258.08" cy="440.07" rx="5.3" ry="12.63"/><circle class="cls-22" cx="264.28" cy="429.64" r="5.6"/><path class="cls-19" d="M291.94,474.88s-9.12,19.52,11.37,41.27c-5.23-1.22-12.25-2.71-20.64-4.09a138.47,138.47,0,0,0-14.67-1.9,99.81,99.81,0,0,0-21.81,1.05l-12.5-35.16L254,464.78Z" transform="translate(-111.31 -50.84)"/><path class="cls-20" d="M257.55,510.07c2.08,0,4.23,0,6.47.06a122.76,122.76,0,0,1,12.5,1.09s8.21-25.5.69-39.43l-16.11-4.65a38.25,38.25,0,0,0-7.18,14.15C250.27,495.16,255.82,506.77,257.55,510.07Z" transform="translate(-111.31 -50.84)"/><ellipse class="cls-21" cx="155.38" cy="440.63" rx="5.25" ry="12.06"/><circle class="cls-22" cx="162.19" cy="430.5" r="5.31"/><path class="cls-18" d="M233.69,477.53c2.43-1.86,5.16-3.79,8.21-5.67a100,100,0,0,1,12.3-6.49c-6.21-2.12-11.38-4.29-15.36-6.1a98,98,0,0,1-12.32-6.33,78.29,78.29,0,0,1-12.71-9.86c1.85,4.64,4.3,9.6,7,15C224.84,465.92,229.81,474.53,233.69,477.53Z" transform="translate(-111.31 -50.84)"/><path class="cls-18" d="M234.63,477.38c-5.86-2.06-10.76-2.06-12.37.25-0.84,1.2-.8,3,2.25,9.5,4.47,9.46,11.28,23.86,21.19,24.09h0.5q-2.85-7.73-5.62-15.82Q237.42,486.24,234.63,477.38Z" transform="translate(-111.31 -50.84)"/><path class="cls-23" d="M332.94,476s-18.37-15.15,19.56-51.7c0,0,40.19,5.87,47.19,12.87,0,0-28.5,13.67-45.25.67,0,0-27.42,9.67-10.58,32.5A12.06,12.06,0,0,1,332.94,476Z" transform="translate(-111.31 -50.84)"/><path class="cls-24" d="M347.19,421s-16.42,10.75-19.83,38.5c0,0-2.42,14.75,5.58,16.5,0,0-5-3.25-1-19.25s22.5-31.25,22.5-31.25Z" transform="translate(-111.31 -50.84)"/><path class="cls-25" d="M426.35,450.19s-24.5,14.5-49,17.84-33.5,2.33-33.5,2.33-18.17-21.67,10.58-32.5c0,0,12.42,12.83,45.25-.67C399.69,437.2,415.19,443,426.35,450.19Z" transform="translate(-111.31 -50.84)"/><path class="cls-24" d="M264.78,426.38a38.4,38.4,0,0,1,21.53,5.9c13.06,8.51,19.68,25.41,17.38,43.36a13.59,13.59,0,0,0,5.79-4.51c6.4-9,.13-27.16-15.52-45.18a28.48,28.48,0,0,0-12.65-3.8A28.85,28.85,0,0,0,264.78,426.38Z" transform="translate(-111.31 -50.84)"/><path class="cls-23" d="M232.69,435.53s25.83,20.17,43.67,8.83l2.33-2.69s36.83,2.69,15.83,32c0,0,6.17,8.33,13.67-1.5,0.78-4.58,1.76-14.66-3.63-24.63-8.33-15.42-25.87-19.37-30.25-20.35a49.19,49.19,0,0,0-6.62-1,116.36,116.36,0,0,0-14.31,2C245.69,429.61,236.94,431.95,232.69,435.53Z" transform="translate(-111.31 -50.84)"/><path class="cls-25" d="M214.69,443s13.33-8.31,18-7.48c0,0,31.17,23.62,46,6.14,0,0,36.5,3,15.83,32a86.22,86.22,0,0,1-52.85-11.53A127,127,0,0,1,214.69,443Z" transform="translate(-111.31 -50.84)"/><path class="cls-3" d="M384,584s-16-5-23.5,12a51.33,51.33,0,0,0-4.87,13.88,57,57,0,0,0,.07,21.7,23.41,23.41,0,0,0,5.55,7l0.53,0.41a56.7,56.7,0,0,0,5.35,3.71,37.36,37.36,0,0,0,13.25,4.63c3.86,0.43,8,.76,12.29,1,3.6,0.16,7,.21,10.33.17,0,0,73,1,88-9.5,6.61-4.63,13.09-14.34,9.62-22.5-2.28-5.35-7.65-9.27-12.88-11.43a16.35,16.35,0,0,0-7.89-1.53,11.29,11.29,0,0,0-3.91,1.07c-0.51.26-3.36,2.9-3.44,2.89S417,597,402,602c-2.83-8.78-5.61-17.59-7.73-26.56-0.57-2.39-2.7-5.09-5.59-3.85-1.38.59-2.18,2.11-2.75,3.4C385.53,575.92,383.32,583.79,384,584Z" transform="translate(-111.31 -50.84)"/><path class="cls-26" d="M219.5,463a13.74,13.74,0,0,1-13-8.83c-2.43-6.74,2-12.55,2.25-12.92a19.5,19.5,0,0,1-8.5-16,133.51,133.51,0,0,0,16.21-5.48c10.78-4.43,18-9.37,20-10.28a211.88,211.88,0,0,1,57.66-16.31l36.65-.61A200.82,200.82,0,0,1,389.12,402a195.09,195.09,0,0,1,50.43,24.42s0.46,5.55-3.53,12a13.36,13.36,0,0,1-11.42,21.73l2.42-9.94a220.92,220.92,0,0,0-70.4-23.39c-65.23-9.9-117.18,12.71-138.52,23.57q0.12,2.19.33,4.5C218.7,457.74,219.07,460.45,219.5,463Z" transform="translate(-111.31 -50.84)"/><path class="cls-27" d="M288.38,395.67s14.19,14.56,6.08,30.8l-5.13.52s9.08-15.87-5.57-30.53Z" transform="translate(-111.31 -50.84)"/><path class="cls-27" d="M347.48,426.26s-8.7-12.85,4.93-32.1l-4.7-.64s-11,16.87-4.61,31.86Z" transform="translate(-111.31 -50.84)"/><path class="cls-27" d="M402.12,439s-8.89-12.47,6.84-27.52l-5-2.64s-14.64,16.18-6.76,28.85Z" transform="translate(-111.31 -50.84)"/><path class="cls-27" d="M244.36,438.9c-1,.84,10.17-7.73-13.23-24.19l-4.05,2.12s21.56,14.48,13.62,23.71l1.58-.74Z" transform="translate(-111.31 -50.84)"/><path class="cls-28" d="M196.71,395.67c-2.92-7.63-12.88-36.32-.39-66.54,1.53-3.71,9.76-23.61,26.12-34a117.77,117.77,0,0,1,21.23-10s1.4-.51,3.42-1.17c0,0,3.65-1.2,7.13-2.12s61-9.35,78.63,22.62c13.69,24.81-5,59-22.51,76C283.41,406.66,239.1,412.14,196.71,395.67Z" transform="translate(-111.31 -50.84)"/><path class="cls-16" d="M279.76,375.73a43.85,43.85,0,0,0-9.12-11.65,45,45,0,0,0-21.9-10.72,12.55,12.55,0,0,0,5-7.65,12.14,12.14,0,0,0-.57-6.57,8.51,8.51,0,0,0,4.39-2.61c2.16-2.48,2.94-6.59,1.45-7.94s-5.62-.21-9.76,3.43c-0.51-.55-5.83-6.08-13.13-5a14.66,14.66,0,0,0-8,4.09,18.56,18.56,0,0,0-3.75,6.21,25.19,25.19,0,0,0-1.3,4.1l-8.54-.48A14.75,14.75,0,0,0,207,327.8a14.18,14.18,0,0,0-9.69-1,90.93,90.93,0,0,0-7.13,34.75,93.85,93.85,0,0,0,3.91,26.55c0.93,3.13,1.88,5.71,2.62,7.6l5.59-2.88a65.24,65.24,0,0,0,14.36-26.19l29.81,25.81c1-1,2.44-2.58,4.3-4.39,3.07-3,5.65-5.15,6.23-5.62C263.12,377.43,276.64,376,279.76,375.73Z" transform="translate(-111.31 -50.84)"/><path class="cls-29" d="M249.92,339.62a3.34,3.34,0,0,0,.85.23,5.62,5.62,0,0,0,1.54-.1l1.22-.16a9,9,0,0,0,1.87-.79,9.63,9.63,0,0,0,2.1-1.71c1.73-1.93,3.3-6.94,1.56-8.51-1.52-1.37-5.72-.28-9.76,3.43-0.54-.62-5-5.59-12-5.11a14.75,14.75,0,0,0-9.13,4.23,20.11,20.11,0,0,0-3.85,6.78A29.94,29.94,0,0,0,223,342l-8.21-1.49c0-.45-0.51-8.8-7.52-12.55a14.48,14.48,0,0,0-10-1.2c-0.59,1.34-1.17,2.76-1.74,4.25s-1,2.67-1.39,3.94a4,4,0,0,0,2.83.8c0.14,0,3.84.41,4.49,0.48s5.2,1.66,6.36,3.18a16.36,16.36,0,0,1,3.39,3.45q1.45,0.33,2.95.71l2.3,0.6h0.09c1,0.18,4,.66,4.6.71a9.63,9.63,0,0,1,4.68-.87,6.9,6.9,0,0,1,.79-0.65c0.94-.65,5.8-1.49,6.36-1.5,2.37,0,3.55-.22,3.86-0.22A54,54,0,0,0,249.92,339.62Z" transform="translate(-111.31 -50.84)"/><polyline class="cls-30" points="90.08 342.67 104.39 312.54 132.54 341.95 90.08 342.67"/><path class="cls-15" d="M189.16,414.95S188.3,397.27,201.76,393s28.77-.32,38.77,0,6.93-7.3,23.08-14,43.59,0.16,46.71,1.48,9.78,17.83-1.24,21-11.21-3.92-23.84-2.13-18.51,7.42-24.95,14.07-21.1,7.32-33.3,4.71S215.31,430.93,204.85,429,189.16,414.95,189.16,414.95Z" transform="translate(-111.31 -50.84)"/><path class="cls-31" d="M213.15,351.83s6.64-2.38,10.38-1.3l1.43-19s-0.92-3.59-5.77-2.33S213.15,351.83,213.15,351.83Z" transform="translate(-111.31 -50.84)"/><path class="cls-32" d="M250.33,338.55c2.08,3.56-2.7,12.48-9.93,14.21-7.64,1.83-16.14-4.82-15.66-8.83,0.37-3.12,6.17-4.79,9.72-5.82C235.92,337.68,247.88,334.34,250.33,338.55Z" transform="translate(-111.31 -50.84)"/><path class="cls-32" d="M196.49,336c-2.35,2.56-1.29,10.53,3.3,13.07,4.86,2.69,12.47-1.35,13.15-4.68,0.54-2.58-3.08-4.86-5.29-6.25C206.74,337.53,199.27,332.93,196.49,336Z" transform="translate(-111.31 -50.84)"/><ellipse class="cls-33" cx="241.37" cy="344.12" rx="4.27" ry="5.82" transform="translate(-239.84 492.91) rotate(-83.31)"/><ellipse class="cls-33" cx="206.19" cy="343.31" rx="3.57" ry="5.05" transform="matrix(0.32, -0.95, 0.95, 0.32, -296.73, 376.22)"/><path class="cls-34" d="M199.85,365.38c0.42-1.3,4.37-13,13.91-15.4,13.68-3.39,28.58,15,26.46,23.67-2,8.09-15.09,1-23.56-7.05l-3.57.09c-1.41,5.4-4.94,8.67-7.85,8.35a6.18,6.18,0,0,1-3.73-2.45A9.09,9.09,0,0,1,199.85,365.38Z" transform="translate(-111.31 -50.84)"/><path class="cls-31" d="M216.66,366.6a24,24,0,0,0,1.48,9.48c4.79,12.68,19.14,16.43,21.07,16.91a10.55,10.55,0,0,0,4.63-.19,11.24,11.24,0,0,0,3.25-1.52,13.55,13.55,0,0,0,2.48-2.07c1.36-1.41,3.59-3.51,7.42-6.8a47.38,47.38,0,0,1-24-6.33L221.9,366.9Z" transform="translate(-111.31 -50.84)"/><path class="cls-31" d="M216.66,366.6a34.19,34.19,0,0,1-1.63,9.08A38.54,38.54,0,0,1,203.63,392a25.74,25.74,0,0,1-2.24,1.55c-2.18,1.39-3.29,2.08-4.14,1.75-0.66-.25-1-1-1.63-2.44a14,14,0,0,1-.85-2.51c-0.32-1.43-.88-3.55-1.94-6.86a31,31,0,0,0,4.51-1.83,31.64,31.64,0,0,0,8.85-6.62l4.92-8.74Z" transform="translate(-111.31 -50.84)"/><path class="cls-35" d="M205.19,355.66a16.84,16.84,0,0,1,8.57-5.67c5.5-1.49,10,.48,12.38,1.55,3.42,1.52,8.26,4.7,7.71,6.75-0.23.87-1.38,1.34-2.37,1.6a33.25,33.25,0,0,1-6.91.9c-2.88.07-2.19-.32-7.9-0.71h0a31.65,31.65,0,0,1-7.5-1.37,6.65,6.65,0,0,1-2.63-1.23A5.31,5.31,0,0,1,205.19,355.66Z" transform="translate(-111.31 -50.84)"/><path class="cls-36" d="M203.71,351.68a7,7,0,0,0,.44,2.51,7.57,7.57,0,0,0,3.66,4,46.06,46.06,0,0,0,10.28,2A45.29,45.29,0,0,0,227,360a45.91,45.91,0,0,0,8.45-1.83c2.33-2.17,2.85-3.56,2.82-4.47a0.55,0.55,0,0,1,0-.28c0.51-.33,5.64,7,2.19,10.35-3.76,3.6-6.47,3.89-11.14,3.54s-25.55-1.4-25.55-1.4a8.09,8.09,0,0,1-4.68-5.32A8.27,8.27,0,0,1,203.71,351.68Z" transform="translate(-111.31 -50.84)"/><path class="cls-3" d="M305.62,367.14c-1.52-6.6-6.77-32.93,8.55-58.12a77.76,77.76,0,0,1,25.53-25.08c6.59-4,35-20,67.08-8.33,30.64,11.17,42.1,39.05,45.36,47,14.46,35.43.76,68-2.29,74.78a434.94,434.94,0,0,1-69.61-8.21A435,435,0,0,1,305.62,367.14Z" transform="translate(-111.31 -50.84)"/><path class="cls-16" d="M458.65,355.89h0s-0.58-.7-11.1-10.18H448a8.07,8.07,0,0,0,2.2-.32,8.17,8.17,0,0,0,1.73-.71,8,8,0,0,0,2-1.63,9.75,9.75,0,0,0,1.76-2.66c0.9-2.12.58-4.11,0.15-6.51a41.9,41.9,0,0,0-1.61-5.54c-0.7-2.14-1.31-3.78-1.59-4.51-0.91-2.39-2.23-5.58-4.08-9.33-1-.4-8.94-3.41-16.7,1A19.4,19.4,0,0,0,422.31,333l-11.78.43L408.66,320l0.89,6.35a22.13,22.13,0,0,0-6.4-15.69,21.22,21.22,0,0,0-18.57-5.71,19.76,19.76,0,0,0-6.73,2.68c-0.63-3.56-3.22-6.15-6.14-6.41a5.77,5.77,0,0,0-5.44,2.56c-1.32,2.37.15,5.2,1,6.79a12.09,12.09,0,0,0,3.17,3.83c-4.64,6.08-5.49,13.81-2.17,19.51a16.15,16.15,0,0,0,8.4,6.8,72,72,0,0,0-45.54,33.66c0.42,0.57,3.88,5.19,9.42,5.11a10.47,10.47,0,0,0,4.92-1.35,44.65,44.65,0,0,1,15.84-8.19,42.94,42.94,0,0,1,5.16-1.1,35.92,35.92,0,0,1,19.73,5.3,34.81,34.81,0,0,1,8.92,8l-0.14,0c0.11,0.08.2,0.18,0.31,0.26a6.32,6.32,0,0,1,.76.6h0.33c8.14-.18,23.27-25,23.27-25-0.87,5.6,11.2,24,11.2,24,14.83,4.74,19.15,14.65,19.15,14.65a101.3,101.3,0,0,0,4.84-13.32,99.88,99.88,0,0,0,3.09-15.06A97.65,97.65,0,0,0,458.65,355.89Z" transform="translate(-111.31 -50.84)"/><path class="cls-30" d="M420.36,353.68l-30.83,32.06,47.14-.38Z" transform="translate(-111.31 -50.84)"/><path class="cls-29" d="M451.89,324.57c0.61-1.59.1-3.06-.57-5a17.33,17.33,0,0,0-2.78-5c-1.17-.46-8.41-3.18-15.84.58A19.63,19.63,0,0,0,422.21,332L411,333.39s-1-10.28-1.86-13.34v0a21,21,0,0,0-5.52-9.4A21.22,21.22,0,0,0,385,304.93a19.76,19.76,0,0,0-6.73,2.68c-0.82-3.49-3.28-6-6.14-6.41-2.15-.27-5,0.62-5.89,2.55a5.86,5.86,0,0,0-.2,2.92,11.6,11.6,0,0,0,.84,3.45,19.16,19.16,0,0,0,3.26,4.17q1.38,1.33,2.93,2.7,1.21,1.07,2.4,2a52.87,52.87,0,0,0,4,4.54,33.38,33.38,0,0,0,3.32,3,27.83,27.83,0,0,0,2.8,1.9A60.38,60.38,0,0,0,409,334.95a46.75,46.75,0,0,0,14.52.58c7.53-.92,8.23-3,14.6-2.78,2.47,0.08,5.19.49,7.64-1.2a8.6,8.6,0,0,0,3-4.06A5.61,5.61,0,0,0,451.89,324.57Z" transform="translate(-111.31 -50.84)"/><path class="cls-34" d="M383.25,373s-9-21.32,19.18-35.83a27,27,0,0,1,17-3.14c12.62,2.07,21.33,14.2,23.59,24.34,1.73,7.77.56,18.39-.08,18.42a0.1,0.1,0,0,1-.07,0c-0.64-.63-14.09-14-14.42-20.88l-16.52-.63c-4,3-8.54,6.13-13.48,9.22C393.11,367.72,388,370.54,383.25,373Z" transform="translate(-111.31 -50.84)"/><path class="cls-29" d="M409.33,321.55l-0.08-.59Z" transform="translate(-111.31 -50.84)"/><path class="cls-29" d="M409.92,325.82l-0.18-1.3Z" transform="translate(-111.31 -50.84)"/><path class="cls-29" d="M409.73,324.42l-0.31-2.25Z" transform="translate(-111.31 -50.84)"/><path class="cls-31" d="M383.22,373a119.2,119.2,0,0,0,27.07-17.67l10,0.36a47.66,47.66,0,0,1-5.8,12.09,49.13,49.13,0,0,1-18.9,16.49Z" transform="translate(-111.31 -50.84)"/><path class="cls-31" d="M420.31,355.65s-3.82,15.18,9.4,25.59l9.14,7.38q5.51,4.43,11,8.82l4.23-10.72a75.79,75.79,0,0,1-25.27-31.16Z" transform="translate(-111.31 -50.84)"/><path class="cls-37" d="M383.22,373s-9-21.32,19.18-35.83a27,27,0,0,1,17-3.14c12.62,2.07,21.33,14.2,23.59,24.34,1.73,7.77.56,18.39-.08,18.42a0.1,0.1,0,0,1-.07,0c-0.64-.63-14.09-14-14.42-20.88l-17.11-.4S385.54,373.46,383.22,373Z" transform="translate(-111.31 -50.84)"/><path class="cls-31" d="M408.08,334.81s0.08-18.26,6.16-19.86,10.78,3.87,10.31,11.78-0.22,9.94-.22,9.94L408,336.28Z" transform="translate(-111.31 -50.84)"/><path class="cls-35" d="M437.9,351.17a7.56,7.56,0,0,1,2.75.56c-3.84-8.23-11.34-16.12-21.29-17.75a27,27,0,0,0-17,3.14c-6.72,3.46-11.32,7.3-14.44,11.15,3,0.32,6,.74,8.94,1.35a64.9,64.9,0,0,1,11.1,3.78h0.13c8.1,0.16,16.2.07,24.3,0.06A6.72,6.72,0,0,1,437.9,351.17Z" transform="translate(-111.31 -50.84)"/><path class="cls-32" d="M403.65,330.31c0,4.54-10.73,11.06-19.32,7.84s-12.45-15.08-9.41-18.61,13.66,1,17.8,2.78C398,324.6,403.63,327,403.65,330.31Z" transform="translate(-111.31 -50.84)"/><path class="cls-32" d="M452.12,326.31a5.28,5.28,0,0,0-.44-2.27,4.19,4.19,0,0,0-1.31-1.56c-0.52-.09-1.07-0.17-1.65-0.22a19.77,19.77,0,0,0-4.7.13,51.85,51.85,0,0,0-9.69,3.56c-4,1.92-5.93,2.88-6.29,4.38-1,4.1,7.68,12.85,15.17,10.86,5.09-1.36,9-6.87,8.87-13.41A14.44,14.44,0,0,0,452.12,326.31Z" transform="translate(-111.31 -50.84)"/><circle class="cls-33" cx="442.2" cy="333.94" r="5.61" transform="translate(-13.34 717.33) rotate(-88.65)"/><circle class="cls-33" cx="391.41" cy="331.07" r="6.08" transform="translate(-60.06 663.76) rotate(-88.65)"/><path class="cls-36" d="M389.55,336.37a9.76,9.76,0,0,0,8.67,9.17c8.51,1.34,35.66,1.49,35.66,1.49a7.72,7.72,0,0,0,4.37-1.35,8.11,8.11,0,0,0,3.26-5.68s6,9,.55,16c0,0-49,2.28-54.92-3.35S386.26,338.92,389.55,336.37Z" transform="translate(-111.31 -50.84)"/><path class="cls-15" d="M292.19,385.9s4.42-21.42,20.51-19.57,23.19,12.21,31.54,10.73,16.43-12.19,27.61-9.41,19.3,11.29,23.12,15.29,19.55,0.46,25.47-1.36,23.29,4.46,29.42,15.85,9.7,22.73-.68,28.84-23.68-10.34-32-10.53-15.27,4.53-18.69,4.45-29.42-17.81-37.27-16.53-20.79,10.52-37.25,3.16S300.62,401.75,292.19,385.9Z" transform="translate(-111.31 -50.84)"/><path class="cls-38" d="M324.1,298.75s-25.29,41.06-4,70.09c0,0-17.47-10-25.53,13.94,0,0,24.11-55.44-5.11-75h0s11.16,11.89,34.68-9" transform="translate(-111.31 -50.84)"/><path class="cls-3" d="M218,272.59c-13.7-33.3-7.56-71.16,15.77-97,30.78-34,75.29-29.23,79.46-28.71,8.65,1,36.62,5.38,58.68,29,34,36.33,23.24,85.39,22.24,89.63a442.72,442.72,0,0,1-80,12A443,443,0,0,1,218,272.59Z" transform="translate(-111.31 -50.84)"/><path class="cls-16" d="M218,272.59a51.51,51.51,0,0,1,3.91-20.91,52.26,52.26,0,0,1,18.35-22.61s-14.44-5.13-10-25.67c0,0-7.26-6.12-5.06-11.37s9.9,3.67,9.9,3.67c1.22-.73,9.58-5.55,19.44-2.2A23.46,23.46,0,0,1,267,203.77l14.3,0.73A28.52,28.52,0,0,1,292,190.2a25.76,25.76,0,0,1,10.64-4.4,27.76,27.76,0,0,1,6.78-.18,28.73,28.73,0,0,1,6.78,1.47c5.32-5.53,10.29-8.39,12.47-7,1.82,1.19,1.39,5.22,1.28,6.23a12.93,12.93,0,0,1-3.8,7.66c0.7,0.69,7.8,7.93,6,17.78a19.45,19.45,0,0,1-6,10.7,48,48,0,0,1,17,6.77c15.13,9.78,19.9,25.31,21.17,30.1l-5.13,0L307.18,272.6l-29-40.55-9.92,1.05-16.14,34Z" transform="translate(-111.31 -50.84)"/><polyline class="cls-30" points="162.1 178.84 137.47 219.31 192.87 221.77 162.1 178.84"/><path class="cls-15" d="M216.72,308.93s-21.81-5.78-9.1-27.78,80.19-12.71,89-9.78,24.94,0.36,30.32-4.46,39.61-14.24,70.41,0,6.36,17.24,6.36,17.24-10.76-5.44-20,2.38a40.57,40.57,0,0,1-38.63,7c-14.77-4.86-31.66,18.4-43.21,19.37s-28.22-18.58-42.62-15.65-37.24,14-42.46,11.65" transform="translate(-111.31 -50.84)"/><path class="cls-29" d="M328.64,180.11c-2.17-1.42-7.15,1.44-12.47,7a28.73,28.73,0,0,0-6.78-1.47,27.76,27.76,0,0,0-6.78.18A25.76,25.76,0,0,0,292,190.2a28.52,28.52,0,0,0-10.64,14.3l-14.3-.73a23.46,23.46,0,0,0-12.47-10.27c-9.86-3.35-18.21,1.47-19.44,2.2,0,0-7.71-8.92-9.9-3.67s5.06,11.37,5.06,11.37a10.2,10.2,0,0,0,2,1.59,10.31,10.31,0,0,0,3.79,1.34,24.75,24.75,0,0,0,6,4.7,25.48,25.48,0,0,0,13.13,3.13,25.68,25.68,0,0,0,15.57-3.3L278,211a20.39,20.39,0,0,0,19.19,2,13.24,13.24,0,0,0,4.77-.87c3.17-1.23,13.78-8.2,15-9.3,1-.89,2.08-1.68,3.21-2.69,1.81-1.61,3.27-3.08,4.37-4.24a14.81,14.81,0,0,0,5.31-9.48C330.05,185.13,330.45,181.3,328.64,180.11Z" transform="translate(-111.31 -50.84)"/><path class="cls-34" d="M259.15,247.52c-1,.39-9.43,3.48-14.37-0.88a8.81,8.81,0,0,1-2.68-4.37c-2-8.53,13.6-25.8,31.54-26.93,13.47-.85,26.78,7.49,34.47,20.88a9.5,9.5,0,0,1-.72,7c-3.14,5.22-12,4.21-15.13,3.85-3.67-.42-10.52-1.2-13.86-6.78a13.47,13.47,0,0,1-1.69-8l-6.44.69a14.36,14.36,0,0,1-2.36,8.66A14.57,14.57,0,0,1,259.15,247.52Z" transform="translate(-111.31 -50.84)"/><path class="cls-31" d="M267.52,216.73h13.32s1.71-29.22-6.85-29.22S267.15,210.61,267.52,216.73Z" transform="translate(-111.31 -50.84)"/><path class="cls-35" d="M252.12,229.58a17.37,17.37,0,0,0,2.45.56c5.11,0.74,11.19-.29,16.33-0.41,5.93-.14,11.92-0.13,17.83-0.48a52.9,52.9,0,0,0,12.39-2.55c-7.57-7.73-17.42-12.14-27.37-11.51-9.18.58-17.73,5.39-23.64,11.09A7.9,7.9,0,0,1,252.12,229.58Z" transform="translate(-111.31 -50.84)"/><path class="cls-31" d="M266.71,233.26l6.7-.69a40,40,0,0,1-3.05,16.37,40.7,40.7,0,0,1-14.88,18l-17,2.36c4.32-4.72,8.75-9.86,13.2-15.45C257.37,246.73,262.34,239.83,266.71,233.26Z" transform="translate(-111.31 -50.84)"/><path class="cls-31" d="M273.41,232.58a63.09,63.09,0,0,0,5.32,16.54,64.12,64.12,0,0,0,17.89,22.25,42,42,0,0,0,25.15-1.54,93.11,93.11,0,0,1-40.62-38.1Z" transform="translate(-111.31 -50.84)"/><path class="cls-36" d="M252.34,218.55S247.65,222,249,227s3.88,6.68,8.95,6.86,38.12-3.92,38.12-3.92,5.9-1.2,5.78-5.79-1.2-9.09-5.62-10.11c0,0,2.33,8.24-2.63,9.49S258.46,227,258.46,227,251.24,227.51,252.34,218.55Z" transform="translate(-111.31 -50.84)"/><path class="cls-32" d="M263.44,215.45c-0.7,5.71-11.54,11.16-19.72,7.73s-11.86-15.09-8.27-19.5,13.75-.93,14.75-0.59C255.69,205,264.09,210.07,263.44,215.45Z" transform="translate(-111.31 -50.84)"/><path class="cls-32" d="M286.92,211.7c0.67,6.7,13.22,13.35,22.87,9.54s14.25-17.35,10.16-22.6-16.06-1.43-17.24-1.06C296.24,199.63,286.29,205.39,286.92,211.7Z" transform="translate(-111.31 -50.84)"/><circle class="cls-33" cx="140.19" cy="161.28" r="6.52"/><circle class="cls-33" cx="197.76" cy="157.23" r="7.22"/><ellipse class="cls-39" cx="222.32" cy="88.02" rx="30.56" ry="29.34"/><ellipse class="cls-40" cx="219.74" cy="83.52" rx="22.78" ry="24.84"/><ellipse class="cls-41" cx="213.03" cy="75.11" rx="8.34" ry="8.91"/><path class="cls-42" d="M342.75,110.84s14.86-45.34,44.93-60l9.17,13.57s-35.62,18.57-46,50.18Z" transform="translate(-111.31 -50.84)"/></svg>