<svg id="Layer_1" data-name="Layer 1" xmlns="http://www.w3.org/2000/svg" viewBox="0 0 143.14 143.14"><defs><style>.cls-1{fill:#fff;}</style></defs><title>twitter</title><rect x="10.57" y="11.57" width="119.5" height="118"/><g id="TYPE_A" data-name="TYPE A"><path class="cls-1" d="M91.09,30.64c0,0.87.06,1.76,0.06,2.64,0,27-20.57,58.2-58.19,58.2A57.84,57.84,0,0,1,1.6,82.28a41.47,41.47,0,0,0,4.88.29,41,41,0,0,0,25.4-8.76A20.48,20.48,0,0,1,12.78,59.6a20.22,20.22,0,0,0,3.85.38A20.5,20.5,0,0,0,22,59.26,20.46,20.46,0,0,1,5.61,39.21c0-.09,0-0.17,0-0.26a20.3,20.3,0,0,0,9.27,2.56A20.46,20.46,0,0,1,8.54,14.2,58.11,58.11,0,0,0,50.7,35.58a20.91,20.91,0,0,1-.52-4.67,20.45,20.45,0,0,1,35.38-14,41.16,41.16,0,0,0,13-5,20.58,20.58,0,0,1-9,11.31A41,41,0,0,0,101.29,20,41.48,41.48,0,0,1,91.09,30.64Zm1.08-52.21H7.84A29.41,29.41,0,0,0-21.57,7.84V92.17a29.41,29.41,0,0,0,29.41,29.4H92.16a29.41,29.41,0,0,0,29.41-29.4V7.84A29.41,29.41,0,0,0,92.16-21.57Z" transform="translate(21.57 21.57)"/></g></svg>