<svg id="ICON" xmlns="http://www.w3.org/2000/svg" viewBox="0 0 143.14 143.14"><defs><style>.cls-1{fill:#d8e7ec;}</style></defs><title>twitter</title><g id="TYPE_A" data-name="TYPE A"><path class="cls-1" d="M299,206.47H214.66a29.41,29.41,0,0,0-29.41,29.41v84.33a29.41,29.41,0,0,0,29.41,29.4H299a29.41,29.41,0,0,0,29.41-29.4V235.88A29.41,29.41,0,0,0,299,206.47Zm-1.08,52.21c0,0.87.06,1.76,0.06,2.64,0,27-20.57,58.2-58.19,58.2a57.84,57.84,0,0,1-31.35-9.19,41.47,41.47,0,0,0,4.88.29,41,41,0,0,0,25.4-8.76,20.48,20.48,0,0,1-19.1-14.21,20.22,20.22,0,0,0,3.85.38,20.5,20.5,0,0,0,5.38-.72,20.46,20.46,0,0,1-16.4-20.05c0-.09,0-0.17,0-0.26a20.3,20.3,0,0,0,9.27,2.56,20.46,20.46,0,0,1-6.34-27.3,58.11,58.11,0,0,0,42.16,21.37,20.91,20.91,0,0,1-.52-4.67,20.45,20.45,0,0,1,35.38-14,41.16,41.16,0,0,0,13-5,20.58,20.58,0,0,1-9,11.31,41,41,0,0,0,11.74-3.22A41.48,41.48,0,0,1,297.91,258.68Z" transform="translate(-185.25 -206.47)"/></g></svg>