<svg xmlns="http://www.w3.org/2000/svg" viewBox="0 0 1920 1080"><defs><style>.cls-1{fill:#4c535a;}.cls-2{fill:#585e64;}.cls-3{fill:#454b53;}.cls-4{fill:#484f57;}.cls-5{fill:#445053;}.cls-6{fill:#48535c;}.cls-7{fill:#4e565e;}.cls-8{fill:#596067;}</style></defs><title>เขาเต็มจอ</title><g id="Layer_6" data-name="Layer 6"><path class="cls-1" d="M1027.84,488.38l-2.22-3.44-12.7-15.52s2.82-4.94,2.82-8.46-2.82-21.16-2.82-21.16l2.82-7.05s4.23-42.32.7-42.32,0-33.85,0-33.85l-3.53-9.17,1.41-11.29L1012.22,315l-2.94-18.34V276.87l-3.41-11.28-.7-31L1003.76,212s-2.82-17.63-8.46-26.8,1.41-8.46,1.41-8.46l2.12-7.76s-2.12-58.54-10.58-68.41a131.66,131.66,0,0,1-13.75-19.41L966,91.72s-2.47,42.68-6.7,42.68l-4.23,33.15s-.7,23.28,0,27.51-6.35,23.28-6.35,23.28l-5.64,24s-15.52,55-14.11,62.07-4.23,40.91-4.23,40.91l-12.7,57.84-2.82,15.52-5.64,12.7-7.05,4.23s-38.79,65.59-41.61,61.36l-8.11,2.46s-6.7,32.8-9.17,34.21-26.1,25-26.1,25l-5.64,20.81L802,584l-3.53,47.61,19.75,45.14L874,723.33l48.67,15.52h51.84l29.73-3.94c7.87-64.75,11.45-128.12,18.35-194.16C1024.32,523.24,1026.13,505.79,1027.84,488.38Z"/><path class="cls-1" d="M1040.43,530.07l-.71-23.28-11.88-18.42c-1.72,17.41-3.52,34.86-5.27,52.37-6.9,66-10.48,129.41-18.35,194.16l34.1-4.52,15.52-24V626.7Z"/><path class="cls-2" d="M965,450.37s10.71,43.48,9.79,51.8c2.81-7,17-38.94,17-41.93,0-3.53-5.64-14.81-5.64-14.81s.7-15.52,5.64-7.76,10.58,28.92,10.58,28.92,9.17,14.82,13.4-5.64l-2.82-21.16s10.23-27.51,3.53-49.37l-1.4-4.56,0,.35s-4.45-14.88,0-.35l1.4-29.3-3.53-9.17,1.41-11.29-5.05-39.49V276.87l-3.41-11.28s7.3-43.22-12.77-86c0,0,2.19-4.25,3.6-2.84s2-10.17,2-10.17-2-63.9-10.48-66L974.49,81.14v44.08s-6,46.55-6,55.72V231s-2.82,44.43,0,48-4.23,69.12-4.23,69.12-12,25.39-12,27.51-14.11,29.62-14.11,36S938.87,439.79,965,450.37Z"/><path class="cls-2" d="M974.49,503.26a3,3,0,0,0,.27-1.1C974.25,503.43,974.11,503.91,974.49,503.26Z"/><path class="cls-2" d="M1015,386.22l0-.35C1010.58,371.34,1015,386.22,1015,386.22Z"/><path class="cls-3" d="M933.23,434.15l-13.4,28.92s-12,61.36-14.81,61.36-4.23,38.79-4.23,38.79h-13.4v52.9s2.12,30.33,0,31,22.92-35.27,22.92-35.27-8.11-22.57-6-25.39S915.59,566,915.59,566l13.4-2.12.7-27.51L936,533.6V480.7Z"/><path class="cls-3" d="M1029.85,439.08l-3.53,7.76,4.42,10.83q1.31-14.67,2.42-29.32Z"/><path class="cls-3" d="M1032.67,360.79l3.18,22.46q.68-16.18.86-32.39Z"/><path class="cls-3" d="M1464.89,757.71,1252,648.56l-6.35-26.1s-25.39-36.68-38.09-40.2-30.33-16.93-30.33-16.93-29.62-71.24-27.51-78.29-21.82-40.91-21.82-40.91l0-8.46s.71-28.21-3.53-28.92-4.94-39.42-4.94-39.42l-3.53-3.61s1.41,4.23-4.23,3.53-16.93-43.73-16.93-43.73v-12.7l-5.64-56.42-4.94-41.61s-1.41-21.16-5.64-27.51-2.47-21.51-8.82-65.95-15.87,0-15.87,0l-2.12,15.87-2.82,24-2.82,9.87,1.41,35.27-.7,9.87L1044,231.73l.7,14.11-7.41,103.68-.55,1.36q-.16,16.21-.86,32.39l1.41,10V415.1l-4.09,13.25q-1.1,14.65-2.42,29.32l6.51,16-6,15.52-6.83,33.09q-.94,9.24-1.87,18.51c-10.19,97.5-13.14,189.21-33.35,288.1l8.19-2.56,50.08-48,106.85,23.29,332.2,20.1Z"/><path class="cls-3" d="M1024.44,522.24l-2.34,11.35-12.81,39.5-8.35,41.61-11.28,48.67-40.2,52.19s-25.39,11.29-27.51,12-29.62,14.81-29.62,14.81l-24.69,30.33-20.45,37.38-30.33,37.38,106.54,1.94,65.83-20.55c20.21-98.89,23.16-190.6,33.35-288.1Q1023.49,531.48,1024.44,522.24Z"/><path class="cls-4" d="M916.3,735l-39.14-46.55-15.87-32.8-13.75-24.33-18-19s-21.16-20.45-24.33-24.33-18-4.23-18-4.23l-10.58,4.23-5.29-7.41-9.52,1.06-7.41,6.35-11.64,4.23-10.58,3.17-6.35,7.41v6.35l-8.46,4.23-5.29,9.52-15.56,7.07L677.2,619.64l-10.58-4.23-8.46,1.06-14.81,12.7L626.42,640.8l-6.35,8.46-14.81,15.87L583,675.72,558.71,686.3s-29.62,6.35-34.91,8.46a174.7,174.7,0,0,1-27.51,8.46l-37,7.41L436,718,423.29,735v16.93h493Z"/><path class="cls-3" d="M1027.67,490.08l-.53-.93s-11.78,53.76-15.65,55.5-12.71,22.62-12.71,22.62l-7.18,16.24-25.41,23.2-5.53,10.44-7.18,22s-9.94,7.54-12.15,7.54-8.29,3.48-8.29,3.48l-23.2,14.5-10.5,5.22-17.68,14.5L869,694.3l-7.18,5.8-6.63,8.7,9.94,20.3-2.21,6.38L850.19,743l-30.38,4.06-24.86,10.44-7.73,7-14.91,7H752.42l-21-9.28-16.57,1.16-14.91,1.74-12.71,6.38L668.45,768l-18.23-1.74,42.54,77.14,39.77,18.56h42l75.86-6.19L909.3,841l64.08-15.47,17.44-4.64c18.79-95.88,21.84-185.29,31.76-280.18C1024.26,523.81,1026,506.93,1027.67,490.08Z"/><path class="cls-3" d="M1113.65,640.33l-86-150.25c-1.67,16.85-3.41,33.73-5.11,50.66-9.91,94.89-13,184.3-31.76,280.18l133.55-35.57Z"/><path class="cls-4" d="M986.83,714.15l-3.53-6.35-24-2.12-9.17-7.76H929.7l9.87,16.22,7.05.7,9.87,5.64h11.28l10.58,2.12,8.46,7.76,17.63-4.94.93-.47q.82-7.1,1.58-14.18Z"/><path class="cls-4" d="M1003.05,667.6l6.23,3.53,1.39,2.32q.37-4,.73-8.08Z"/><path class="cls-4" d="M1108.14,484.38c-.7-9.17-11.29-46.55-13.4-50.78a16.69,16.69,0,0,0-5.64-6.35l-3.53-38.09,3.53-12.7s-4.23-30.33-4.94-34.56-8.46-7.76-8.46-7.76V306.65s-4.94-24-8.46-28.21-9.87-6.35-9.87-6.35l-3.53-17.1-3.17-1.59-2.12-5-1.59-6.08-2.7-20.75-2.74,52.37-4.25,59.54-.55,1.36q-.16,16.21-.86,32.39l1.41,10V399l-4,11.49q-1.15,15.53-2.56,31.08l6.51,16-6,15.52,12.19,31,7,19,7,24.69,14.1,27.51,9.87,11.29-3.53,33.85,2.82,10.58-.71,12a49.83,49.83,0,0,1-8.46,1.41c-2.82,0-4.23-3.53-4.23-3.53l-2.12-7.05-4.23-1.41-6.35-7.76-4.13,1.41-7,5.64-3,8.46,3,7.05V653l-5.84-4.23h-9.17l-6.5,1.41-8.31-1.41-2.23.59q-.36,4-.73,8.08l3.67,6.14,7.6,2.12v9.87l-7.6,12-2.12,6.35-5.25.87q-.76,7.08-1.58,14.18l8.94-4.47,12-9.74,10.58-10s12.7,3.53,16.93,8.46,10.58-3.53,10.58-3.53l7.76-30.33,20.45-10.58s19-14.11,21.16-32.44S1108.85,493.55,1108.14,484.38Z"/><path class="cls-4" d="M1026.33,446.84l4.42,10.83q1.39-15.55,2.56-31.08Z"/><path class="cls-4" d="M1032.67,360.79l3.18,22.46q.68-16.18.86-32.39Z"/><polygon class="cls-1" points="887.73 915.87 846.47 794.21 831.66 771.99 804.15 741.31 774.53 730.73 757.6 730.73 734.33 730.73 715.29 730.73 694.13 730.73 666.62 741.31 637 736.02 613.72 730.73 577.75 720.15 560.82 720.15 546.01 708.51 513.22 708.51 480.42 708.51 469.84 716.98 439.16 716.98 425.4 708.51 409.54 708.51 390.49 708.51 349.23 780.46 345 906.35 887.73 915.87"/><path class="cls-5" d="M995.07,797.74,969.2,816.43l-18,12.47s-21.16,3.4-32.8.22S866,851.83,866,851.83l.93,2.74,23.12.64s87.59-15.51,68.55,3.53,10.58,20.1,10.58,20.1l13.37-1.12c2.2-15.83,3-31.66,6.37-47.49Q992.31,813.86,995.07,797.74Z"/><path class="cls-5" d="M1377.57,766.7l-16.93-28.56L1331,736l-77.23-5.29-23.28,3.17-14.81-7.41-28.56-7.41a514.06,514.06,0,0,1-52.9,5.29c-26.45,1.06-51.84,24.33-51.84,24.33h-28.56L1039,754l-12.7,21.16-31.26,22.57q-2.79,16.14-6.13,32.5c-3.39,15.83-4.17,31.66-6.37,47.49L1372.28,845Z"/><path class="cls-6" d="M980.15,891.71l-.91.43-25.39,7.05-24,15.51H904.48L738,961.57l263,3.79C989.33,942.24,973.4,918.87,980.15,891.71Z"/><path class="cls-6" d="M1495.53,916.12l-24-49.37-40.91-24-45.14-4.23L1329.08,816,1299.46,799H1137.24l-97.33,42.32v12.7l-22,19.75-37.77,17.91c-6.75,27.16,9.18,50.53,20.84,73.64l489.55,7Z"/><path class="cls-7" d="M1264,801.26l-22.57,24v16.93h-25.39v7.05l-28.21-7.05-15.52,15.51,9.88,94.39,1.41,26.92-.58-11,123.3,1.15,35.26-17,56.76-1.72,50.4-.2,64,2,41-22.12S1545.3,820.66,1527,812.19s-72.51-43.38-76.74-43.38-104.39-16.93-104.39-16.93Z"/><path class="cls-8" d="M945.92,904.24c-14.81-1.59-12.7,0-12.7,0s-5.29.18-6.88-.71-5.82,0-5.82,0L912.6,909l-3.17-2.12-5.82-6.35H865.52l-10.05-4.76L842.24,890s-18-2.65-21.69-2.65S805.74,882,805.74,882H756l-16.93-11.11H720l-21.16-8.46-24.33-22.22s-11.64-9.52-14.81-10.58-28.56-8.46-28.56-8.46H585.69a158.6,158.6,0,0,0-18,7.41c-8.46,4.23-19,7.41-27.51,13.75s-20.1,8.46-27.51,21.16-26.45,38.09-26.45,38.09l18,58.89,356.18,1.08,40.87-21.18h24l9.88-21.16,15.52-7.05S960.73,905.82,945.92,904.24Z"/><path class="cls-3" d="M973.92,114.19s21-78,37-78,19.75-2.27,33.66,5.7,14.19,10.07,20.88,22.68,13.4,26.41,9.84,43.16c0,0-.3,20.88,1,28.5s-12.59,0-12.59,0l-6.93,47.47-2.82,9.87.56,14,.85,21.29-3.53,25.39-1.7,28L1048,316s.83-.17.41,10.28-2.21,14.93-2.74,22.27-1.08,8.36-1.08,16.56v8.2l-4,9.93,1.5,10.6,2.78,20,.31,7.67-1.95,5.65-2.15,7.64.13,14.27-3.49,10.12-3.49,10.12,7.75,19-2.81,7.27,3.13,8-3.84,11.53-17.63-23.17,2.13-5.6.53-4.48-.53-3.59-1-3.77-1-5.26v-3.72l-.14-3.21,4.34-8.87V436.63l1.12-7.38-1.12-8.41-.81-8a26.23,26.23,0,0,1-1.42-4.2c-.72-2.74-1.21-4.31-1.21-4.31l-.76-9.11v-5.74a34,34,0,0,0,1-4.42c.12-1.4,0-4,0-4s1.63-.23,0-2.33a15.73,15.73,0,0,1-2.33-5.46l-2.1-11.7v-9.46c0-4.55.35-5.26,0-8.06s-4.23-34.68-4.23-34.68l-2.34-34s8.17-18.28,2.12-18.43-6.06,7.21-6.06-.15S1006,250,1006,244V218s2.43.12-.17-5.11-1.19-13.69-1.19-13.69,2.22-5.35,2.12-7.76-.76-11.52-.76-16.13v-4.61s-7.14-7-7.25-14a120.27,120.27,0,0,0-1.59-15.58s4.82-8.71,0-10.05-10.77-7-10.77-7-1.76-13.08-3.69-13.18l-1.92-.1Z"/><path class="cls-1" d="M1050.87,117.48c-3.1-13.47-7.57-26.42-10-40.05a36.08,36.08,0,0,0-1.42-5.88l-.08-.06c-3.45-2.75-7.06-5.3-10.46-8.12-4-.88-8.1-1.26-12.15-1.85a88.82,88.82,0,0,1-11,26.72,68.33,68.33,0,0,0-3.15,13.84c-.88,8-1.24,16.07-3.8,23.73-2.79,8.33-6.08,15.51-6.78,24.44-1.19,15.36,1.7,30.42,3.51,45.6,2,16.8-1.38,33.73.92,50.5.81,5.91,1.95,11.77,3.12,17.63.15,0,.29,0,.46,0,3,.07,2.52,4.45,1.3,8.93a176,176,0,0,1,3.28,23.59c.85,15.25-1.3,30.45-1.21,45.7.55,4.5,1,8,1.09,8.88.35,2.8,0,3.5,0,8.06v5.4q.29,3.74.62,7.48l1.49,8.28a15.73,15.73,0,0,0,2.33,5.46c1.63,2.1,0,2.33,0,2.33s.12,2.57,0,4a34,34,0,0,1-1,4.42V401c2,14.58,6.32,28.59,9,43.06,4.07,21.62-1.61,50.9,10.91,70.48l1.37-4.12-3.13-8,2.81-7.27-7.75-19,7-20.25-.13-14.27,2.15-7.64,1.95-5.65-.31-7.67-2.78-20-1.5-10.6,4-9.93v-8.2c0-8.2.55-9.22,1.08-16.56s2.32-11.82,2.74-22.27-.41-10.28-.41-10.28l2.15-33.86,1.7-28,3.53-25.39-.85-21.29-.56-14,2.82-9.87,6.93-47.47s1.1.6,2.64,1.29a35,35,0,0,1,.68-6.53A158.92,158.92,0,0,0,1050.87,117.48Z"/></g><g id="Layer_2" data-name="Layer 2"><path class="cls-7" d="M65.64,979.88s214-168.73,255.06-165.57,79.82,14.35,101.38,19.53a340.48,340.48,0,0,1,42.71,13.83l29.15,27.43L550,886.77s27.31,12.5,34.49,16.87,33.06,9.93,40.24,12.9,23.11,8.49,33.11,14.35,5.69,1.55,17.19,8.74-11.5-5.75,24.43,14.37,24.43,15.81,35.93,20.12,21.56-2.87,30.18,5.75,11.5,10.06,17.25,12.94,10.39,12.78,10.39,12.78H21.08Z"/><path class="cls-4" d="M1494.11,790.4l32.22,12.69s7.85,4.31,27.25,8.62-7.55-5.39,26.95,6.47,22.64,8.09,39.88,14.29,14,1.88,30.18,11.58,10.78,1.87,24.79,12.79,6.47,8.33,22.64,18.25,16.17,4.79,25.87,11.67,4.31,8.68,22.64,13.17,31.26,9.88,38.81,12a74.79,74.79,0,0,1,14,5.76s3.23,16.63-6.47,13.52-3.23,5.27-24.79,0-19.4-3-37.73-6.3-36.65-9-50.66-7.23-20.48,9.43-29.11,7.23-10.78,0-18.33,0,9.4,3.94-20.48,0L1581.92,921l-100.56-4.46Z"/><path class="cls-4" d="M110.31,945.54l15-26S137.5,908,142.53,903s10.06-10.16,15.09-16.22,4.31-5.34,9.34-9.65.72-1.44,10.06-7.91,7.91-9.81,15.09-12.09,3.59.59,12.22-5.88,9.34-7.19,12.22-9.34,2.87-2.16,7.91-6.47,1.44-.72,8.62-7.91,5.75-4.31,10.78-10.06,10.78-12.94,10.78-12.94.72-2.87,6.47-7.19S259,799.5,266.86,793s3.59-3.85,12.22-8.75,7.91-4.9,12.22-7.06,5.75-4,10.06-6.65,7.19-1.25,9.34-4.12-1.11.72,5.55-4.31,10.26-7.19,12.41-8.62-5,2.16,2.16-1.44-2.16,0,7.19-3.59,14.37-5,14.37-5l5.75-4.76h6L430,770.57l-40.24,77.1Z"/><path class="cls-3" d="M1511,903.64l49.59-8.38s11.53-1.62,17.08,0,.7,6.22,23.88,4.19,32.86.24,39.07-.36,4.59-2.64,17.53,0,8.08,3.77,18.33,4.55,10.24,1.32,19.94,2.4,7-3.77,16.17,0,8.08,3.23,16.17,4.85,9.16,1.08,17.79,3.23,9.7-1.09,16.71,2.42,5.93,3,11.86,4.59,5.39,2.79,10.24,3.82.54-1.66,4.85,1,6.69,5.41,7.25,4.94-2.44-2.16,2.43,2.11,4.33,4.81,8.11,6.42-5.93-6.47,3.77,1.62,5.39,5.39,9.7,8.08,3.77,1.62,8.08,5.39,4.31,3.23,8.62,6.47,5.93,5.39,8.62,7.55-3.77-2.16,2.69,2.16,11.32,4.85,15.09,7,.54-2.69,3.77,2.16,4.31,5.93,5.93,10.78,3.77,12.94,3.77,12.94-.54,2.16,4.31,6.47,15.81,12.94,15.81,12.94l-416.81-6.94Z"/><path class="cls-1" d="M1034.44,507.3l-2.34-3.62-13.35-16.31s3-5.19,3-8.9-3-22.24-3-22.24l3-7.41s4.45-44.48.74-44.48,0-35.58,0-35.58l-3.71-9.64,1.48-11.86L1018,325l-3.09-19.27V285l-3.59-11.86-.74-32.61-1.48-23.72s-3-18.54-8.9-28.17,1.48-8.9,1.48-8.9l2.23-8.15s-2.23-61.53-11.13-71.91a138.39,138.39,0,0,1-14.47-20.4l-8.9,11.12s-2.6,44.86-7,44.86l-4.45,34.84s-.74,24.46,0,28.91-6.68,24.46-6.68,24.46l-5.93,25.21S929,306.49,930.47,313.9s-4.45,43-4.45,43l-13.35,60.79-3,16.31-5.94,13.34-7.42,4.45s-40.8,68.95-43.77,64.5l-8.53,2.59s-7,34.47-9.65,36S807,581.15,807,581.15L801,603l-4.08,4.82-3.71,50L814,705.33l58.6,48.93,51.19,16.31h54.52l31.27-4.14c8.28-68.06,12-134.67,19.3-204.08C1030.73,543.94,1032.63,525.6,1034.44,507.3Z"/><path class="cls-1" d="M1047.68,551.13l-.74-24.46-12.5-19.36c-1.8,18.3-3.71,36.64-5.55,55-7.26,69.41-11,136-19.3,204.08l35.86-4.75,16.32-25.21V652.69Z"/><path class="cls-2" d="M968.3,467.35s11.27,45.7,10.3,54.45c3-7.41,17.89-40.93,17.89-44.07,0-3.71-5.94-15.57-5.94-15.57s.74-16.31,5.94-8.16,11.13,30.4,11.13,30.4,9.64,15.58,14.09-5.93l-3-22.24s10.76-28.92,3.71-51.89l-1.47-4.79,0,.37s-4.68-15.64,0-.37l1.47-30.8-3.71-9.64,1.48-11.86-5.32-41.51V285l-3.59-11.86S1019,227.7,997.9,182.7c0,0,2.3-4.47,3.78-3s2.12-10.69,2.12-10.69-2.12-67.17-11-69.38l-14.47-20.4v46.33s-6.3,48.93-6.3,58.57v52.64s-3,46.7,0,50.41-4.45,72.65-4.45,72.65S955,386.55,955,388.77s-14.84,31.14-14.84,37.81S940.86,456.23,968.3,467.35Z"/><path class="cls-2" d="M978.32,522.95a3.17,3.17,0,0,0,.29-1.15C978.08,523.12,977.92,523.63,978.32,522.95Z"/><path class="cls-2" d="M1021,399.92l0-.37C1016.29,384.29,1021,399.92,1021,399.92Z"/><path class="cls-3" d="M934.92,450.3l-14.09,30.4s-12.61,64.5-15.58,64.5S900.8,586,900.8,586H886.7v55.6s2.23,31.88,0,32.62,24.11-37.07,24.11-37.07-8.53-23.72-6.31-26.69,11.87-21.5,11.87-21.5l14.09-2.22.74-28.91,6.68-3v-55.6Z"/><path class="cls-3" d="M1036.55,455.48l-3.71,8.16,4.65,11.39q1.38-15.42,2.55-30.82Z"/><path class="cls-3" d="M1039.52,373.2l3.34,23.61q.71-17,.9-34Z"/><path class="cls-3" d="M1494.11,790.4,1270.22,675.67l-6.68-27.43s-26.71-38.55-40.06-42.26-31.9-17.79-31.9-17.79-31.16-74.88-28.93-82.29-23-43-23-43l0-8.9s.74-29.65-3.71-30.4-5.19-41.43-5.19-41.43l-3.71-3.79s1.48,4.45-4.45,3.71-17.8-46-17.8-46V322.79l-5.94-59.31-5.19-43.74s-1.48-22.24-5.94-28.91-2.6-22.61-9.27-69.32-16.69,0-16.69,0l-2.23,16.68-3,25.21-3,10.38,1.48,37.07-.74,10.38-3,16.31.74,14.83-7.79,109-.58,1.43q-.17,17-.9,34l1.48,10.48v23L1040,444.2q-1.16,15.4-2.55,30.82l6.85,16.79-6.3,16.31-7.18,34.78q-1,9.72-2,19.45c-10.71,102.48-13.82,198.88-35.08,302.83l8.61-2.69,52.67-50.41,112.39,24.48,349.4,21.13Z"/><path class="cls-3" d="M1030.86,542.9l-2.46,11.93-13.48,41.52-8.78,43.74-11.87,51.15L952,746.09S925.28,758,923.05,758.7s-31.16,15.57-31.16,15.57l-26,31.88-21.51,39.29-31.9,39.29,112.06,2,69.23-21.6c21.26-103.94,24.36-200.34,35.08-302.83Q1029.86,552.61,1030.86,542.9Z"/><path class="cls-4" d="M917.12,766.49l-41.17-48.93-16.69-34.47-14.47-25.58-18.92-20s-22.25-21.5-25.59-25.58-18.92-4.45-18.92-4.45l-11.13,4.45-5.56-7.78-10,1.11-7.79,6.67-12.24,4.45-11.13,3.34-6.68,7.78v6.67l-8.9,4.45-5.56,10L686,656.05l-20.35-10.77-11.13-4.45-8.9,1.11L630,655.29l-17.8,12.23-6.68,8.9L590,693.1l-23.37,11.12L541,715.34s-31.16,6.67-36.72,8.9a183.82,183.82,0,0,1-28.93,8.9l-38.95,7.78-24.48,7.78-13.35,17.79v17.79H917.12Z"/><path class="cls-3" d="M1034.26,509.1l-.56-1s-12.39,56.51-16.46,58.33-13.36,23.78-13.36,23.78l-7.55,17.07L969.6,631.69l-5.81,11-7.55,23.17s-10.46,7.93-12.78,7.93-8.71,3.66-8.71,3.66l-24.4,15.24-11,5.49-18.59,15.24-13.36,10.36-7.55,6.1-7,9.14,10.46,21.34L861,767,847.59,775l-32,4.27-26.14,11-8.13,7.32-15.69,7.32H744.75l-22.08-9.76-17.43,1.22-15.69,1.83-13.36,6.71-19.75-3.66-19.17-1.83L682,880.43l41.83,19.51H768l79.79-6.5,62-15.44,67.4-16.26,18.34-4.88c19.76-100.78,23-194.76,33.4-294.5C1030.67,544.55,1032.51,526.8,1034.26,509.1Z"/><path class="cls-3" d="M1124.69,667,1034.26,509.1c-1.75,17.71-3.59,35.45-5.37,53.25-10.43,99.74-13.64,193.72-33.4,294.5L1136,819.46Z"/><path class="cls-4" d="M991.3,744.62l-3.71-6.67-25.22-2.22-9.64-8.16H931.21l10.39,17.05,7.42.74,10.39,5.93h11.87l11.13,2.22,8.9,8.16,18.55-5.19,1-.49q.86-7.46,1.66-14.9Z"/><path class="cls-4" d="M1008.36,695.69l6.55,3.71,1.46,2.44q.39-4.24.77-8.49Z"/><path class="cls-4" d="M1118.89,503.1c-.74-9.64-11.87-48.93-14.1-53.38a17.54,17.54,0,0,0-5.93-6.67l-3.71-40,3.71-13.34s-4.45-31.88-5.19-36.33-8.9-8.15-8.9-8.15V316.28s-5.19-25.21-8.9-29.65-10.38-6.67-10.38-6.67l-3.71-18-3.34-1.67-2.23-5.28-1.67-6.39-2.84-21.81-2.88,55-4.47,62.58-.58,1.43q-.17,17-.9,34l1.48,10.49v23l-4.16,12.08q-1.21,16.33-2.69,32.67l6.85,16.79-6.3,16.31,12.82,32.63,7.31,20,7.31,25.95,14.83,28.91,10.39,11.86L1087,646.18l3,11.12-.74,12.6s-5.93,1.48-8.9,1.48-4.45-3.71-4.45-3.71l-2.23-7.41-4.45-1.48-6.68-8.15-4.34,1.48-7.31,5.93-3.18,8.9,3.18,7.41v5.93l-6.15-4.45h-9.64l-6.84,1.48-8.74-1.48-2.34.62q-.38,4.24-.77,8.49l3.86,6.46,8,2.22V704l-8,12.6-2.23,6.67-5.52.92q-.8,7.44-1.66,14.9l9.41-4.7,12.61-10.24L1044,713.65s13.35,3.71,17.8,8.9,11.13-3.71,11.13-3.71l8.16-31.88,21.51-11.12s20-14.83,22.25-34.1S1119.64,512.74,1118.89,503.1Z"/><path class="cls-4" d="M1032.84,463.64l4.65,11.39q1.46-16.34,2.69-32.67Z"/><path class="cls-4" d="M1039.52,373.2l3.34,23.61q.71-17,.9-34Z"/><polygon class="cls-1" points="887.08 956.65 843.68 828.76 828.1 805.41 799.17 773.16 768.01 762.04 750.21 762.04 725.73 762.04 705.7 762.04 683.45 762.04 654.52 773.16 623.36 767.6 598.88 762.04 561.05 750.92 543.24 750.92 527.67 738.69 493.17 738.69 458.68 738.69 447.55 747.59 415.28 747.59 400.81 738.69 384.12 738.69 364.1 738.69 320.7 814.31 316.25 946.64 887.08 956.65"/><path class="cls-5" d="M1000,832.47l-27.21,19.64-18.92,13.11s-22.25,3.57-34.49.23-55.11,23.87-55.11,23.87l1,2.88,24.32.67s92.13-16.3,72.1,3.71,11.13,21.13,11.13,21.13l14.07-1.18c2.32-16.64,3.13-33.28,6.7-49.91Q997.07,849.42,1000,832.47Z"/><path class="cls-5" d="M1402.27,799.85l-17.8-30-31.16-2.22L1272.08,762l-24.48,3.34L1232,757.59l-30-7.78a541,541,0,0,1-55.64,5.56c-27.82,1.11-54.52,25.58-54.52,25.58h-30l-15.58,5.56-13.35,22.24L1000,832.47q-2.93,17-6.45,34.16c-3.57,16.64-4.38,33.28-6.7,49.91l409.88-34.4Z"/><path class="cls-6" d="M984.28,931.25l-1,.45-26.71,7.41L931.4,955.42H904.69l-175.07,49.26,276.58,4C993.93,984.37,977.18,959.79,984.28,931.25Z"/><path class="cls-6" d="M1526.34,956.91,1501.12,905l-43-25.21-47.48-4.45-59.35-23.72-31.16-17.79H1149.49l-102.37,44.48v13.34L1024,912.43l-39.72,18.82c-7.1,28.55,9.65,53.12,21.92,77.41l514.9,7.41Z"/><path class="cls-7" d="M1282.84,836.18l-23.74,25.21v17.79h-26.71v7.41l-29.67-7.41-16.32,16.31,10.39,99.21,1.48,28.3-.61-11.59,129.68,1.21,37.09-17.92,59.7-1.81,53-.21,67.37,2.11,43.08-23.25s-8.91-115-28.2-123.87-76.27-45.59-80.72-45.59-109.79-17.79-109.79-17.79Z"/><path class="cls-8" d="M948.28,944.42c-15.58-1.67-13.35,0-13.35,0s-5.56.19-7.23-.74-6.12,0-6.12,0l-8.35,5.75-3.34-2.22-6.12-6.67H863.71l-10.57-5-13.91-6.12s-18.92-2.78-22.81-2.78-15.58-5.56-15.58-5.56h-52.3l-17.8-11.68h-20l-22.25-8.9-25.59-23.35s-12.24-10-15.58-11.12-30-8.9-30-8.9H569.39a166.87,166.87,0,0,0-18.92,7.78c-8.9,4.45-20,7.78-28.93,14.46s-21.14,8.9-28.93,22.24-27.82,40-27.82,40l19,61.9,374.62,1.14,43-22.27h25.22L937,960.17l16.32-7.42S963.85,946.08,948.28,944.42Z"/><path class="cls-3" d="M1014.12,227.22s.37-4,2.38-4.66,4,.81,4.59,1,2,3.11,2,3.67-1.47,2.75,0,4.4,1.1,2.57,0,3.67-4,2.69-5.87,1.62-2.2-2.47-3.12-3S1014.12,227.22,1014.12,227.22Z"/><path class="cls-3" d="M1034.69,307.27s.32-5.6,2.07-6.51,3.5,1.13,4,1.39,1.75,4.35,1.75,5.12-1.27,3.84,0,6.15,1,3.59,0,5.12-3.5,3.76-5.09,2.26-1.91-3.45-2.7-4.14S1034.69,307.27,1034.69,307.27Z"/><path class="cls-3" d="M1013.4,211.93c-1-1-1.95-5-1.95-5a29.16,29.16,0,0,0-1.41-3.44,15.26,15.26,0,0,1-2.18-3.43,24.05,24.05,0,0,0-.37-2.57,8.09,8.09,0,0,1-.31-2.14l-.64-4.46-.8-5.59.88-3s1-.82,1.26-.18,2.92,1.94,2.92,1.94l2-.29,1.33,7.32.24,1.65,1.31,4.83a16.86,16.86,0,0,0,.06,2.61c.15.54.29.89-.22,2.56a13.91,13.91,0,0,0-.52,3.54c-.08.76.31.24-.18,1.34s-.51,1.59-.75,1.94A15.67,15.67,0,0,0,1013.4,211.93Z"/></g><g id="Layer_4" data-name="Layer 4"><path class="cls-6" d="M912,1016c-1,7-1,7-11,21s-12,20-14,26-22,10,0,17c1,.33,2.07.67,3.06,1H390.19c-24.56.25-58,.34-95.16.33l.45-.33L351,1043s-24-3,12-20c30.1-14.22,36.43-17.24,54.66-26L430,991c29-14,35-10,64-21s17-11,65-19,36-14,68-5,20-3,50,13,44,34,53,32-7,4.44,35,.22c41.65-4.18,22.33-8.15,55.15-8.22H821c34,0,57.77-2.59,66-2,14,1,26,6,25,10S913,1009,912,1016Z"/></g><g id="Layer_3" data-name="Layer 3"><path class="cls-4" d="M489,1039c-12,12-18,10-24,18s-10,26-16,23c-2.39-1.19-.66-1.91.21-2.16-1.32.25-6.05,1-19.21,2.16-5.16.47-19.42.79-39.81,1-24.56.25-58,.34-95.16.33-40.52,0-85.44-.15-128-.33-75.2-.31-143.19-.77-167-.94l-9-.06V989a73.8,73.8,0,0,0,9-3.63C17.92,977.3,54.15,959,59,959c6,0,29-13,40-13s23.66-9.09,38.83-21S131,894.28,167,903.64s19.86-7.36,62.93,0,74.62,23.16,86.85,27.26S323,945,349,957s30,26,50,32a93.81,93.81,0,0,1,18.66,8c7,3.73,12.75,6.94,23.34,7.72,18,1.32,48,18.32,48,18.32S501,1027,489,1039Z"/></g><g id="Layer_5" data-name="Layer 5"><path class="cls-4" d="M1920,998.68V1081H1095.22l-26.33-.79c7.47-1.65,17-8.44,35.11-15.21,24-9,15-9,21-15s24-9,45-27,44,3,85.35-14.34C1295.35,991.87,1296,991,1296,991s7.18-1.29,16.09-3.87c11.86-3.43,26.77-9.14,31.91-17.13,9-14,24-1,43-11s8-2,59-17,33-3,99,0,63-3,120-9,33-3,65-8,33-8,45-7,25,15,73,28,17,32,50,45C1906.17,994.22,1913.48,996.7,1920,998.68Z"/><path class="cls-1" d="M1392.12,1081H828c-44-12.73-89-43.63-89-43.63L820.15,983l31.37-21c-.21.6-7.48,21.22,47.39,0,55.68-21.54,85.29-26.92,146.89-26.92s33.16-5.38,65.15,0,33.16,61,85.28,50.26,22.51-55.64,71.08-23.34a373.61,373.61,0,0,0,44.78,25.15,494.22,494.22,0,0,0,63,25.11S1397.66,1056.49,1392.12,1081Z"/></g></svg>