<svg id="Layer_1" data-name="Layer 1" xmlns="http://www.w3.org/2000/svg" viewBox="0 0 646 582.81"><defs><style>.cls-1{fill:#444b52;}.cls-2{fill:#60666d;}.cls-3{fill:#5c6a6d;}.cls-4{fill:#6d747b;}.cls-5{fill:#676d75;}.cls-6{fill:#5b6169;}.cls-7{fill:#6e767f;}.cls-8{fill:#4b535a;}.cls-9{fill:#474f57;}.cls-10{fill:#4a515b;}.cls-11{fill:#444f52;}.cls-12{fill:#48535c;}.cls-13{fill:#47525a;}.cls-14{fill:#575e67;}.cls-15{fill:#585f67;}.cls-16{fill:#4e565e;}.cls-17{fill:#585e63;}.cls-18{fill:#474e54;}</style></defs><title>when</title><rect class="cls-1" x="11.68" y="841" width="636" height="295" transform="translate(657.37 1423.81) rotate(-180)"/><path class="cls-2" d="M592.19,873L641.6,853.5l0.91-.24,5.49-2V821.12l-13.19,7.16-15,2.88-14,4.07h-0.07l-7.49,2.19v0.3l0.37,0,0.41,0.34h0L598.2,840l-0.22,0-2.44,13.41Z" transform="translate(-2 -553.19)"/><path class="cls-3" d="M497.92,910.14c78.94-5.09,134.69-20.66,144.33-57.06,0,0-100.44-36.92-118.34-33.71C523.91,819.38,466.46,912.11,497.92,910.14Z" transform="translate(-2 -553.19)"/><path class="cls-2" d="M334.75,729.66s-10.94-11.59-12.63-11.94-8.4-8.19-8.4-8.19-8-13.76-9.49-14.87-14.25-9.95-20-10.06-29.4-2.26-29.4-2.26L231.63,678l-32.1,13.71,49.72,33.85Z" transform="translate(-2 -553.19)"/><path class="cls-4" d="M203.75,636.33s8,11.24,10.06,12.46,6.5,2.13,7.52,3.4,9.32,5.37,11.78,5.07,8.58,2.31,10.41,4.27,4.78,4.6,4.78,4.6,3.18,9.7,4.32,10.93,2.06,5.22,2.06,5.22-9.09,5.27-12.33,4.87a15,15,0,0,0-6.8,1c-0.44.18-5.57,1.53-5.57,1.53l-5.36-.56-14.26,1.22-10.84,1.32L174.4,647.93Z" transform="translate(-2 -553.19)"/><path class="cls-5" d="M197.33,642.22s-8.16,12.3-3.59,17.81,6.89,12.86,6.07,16.1a64.89,64.89,0,0,0-1.15,9.35l-30.25,2.39-18.09-15-33.82-9.66-9.07-13.41,73.86-11.76Z" transform="translate(-2 -553.19)"/><path class="cls-6" d="M166.78,679.35s-15.26-6.45-27.18,3.28l10.58,26.77,42.95,21,21.16,2.37,61,1.6,58.66-3.31s-7-4.6-11.37-6.22S311.5,719.41,310.2,717s-15-13.74-20-14.22-20.42,4.72-20.42,4.72-22.48,7.32-28.78,1.76l-7.22-3.41s-25.45-17.67-27.46-17.54c0,0-15.26-7.38-26.91-3.9Z" transform="translate(-2 -553.19)"/><path class="cls-2" d="M118.83,657.83a52,52,0,0,1,10.09,3.84c4,2.23,10.63,6.08,14.64,4.95s9.47,1.4,12,1.74,7.76,1.41,7.84,2.49,1.3,7.54,3.38,8.5-6.21-1.79-13.93-.08-13.25,3.36-13.25,3.36l-8.92,5.18L117,674l1.84-16.16h0Z" transform="translate(-2 -553.19)"/><path class="cls-4" d="M171.57,634.29c24.52-4.33,32.17,2,32.17,2l-6.41,5.89-54.28,12.29Z" transform="translate(-2 -553.19)"/><path class="cls-4" d="M123.56,590.88s9.77,5.2,12.69,7.39,18.16,7.35,20.32,10.64,9.15,10.58,13.17,10.33,1.83,15,1.83,15l-8,5.84L134.42,647l-10.86-56.08h0Z" transform="translate(-2 -553.19)"/><path class="cls-7" d="M86.81,578.57s16.15,7,16.49,7.9,17.1,1.63,20.25,4.4c0,0,19.63,40.54,20.53,41.53s6.61,2.42,10.43,4.26a76.29,76.29,0,0,0,9.08,3.45l-20.54,14.38s-22.42-1.11-26.92.68a70.45,70.45,0,0,1-8.73,2.79l-21-25.9,0.44-53.51h0Z" transform="translate(-2 -553.19)"/><path class="cls-8" d="M34.57,586.91l52.26-8.29s0.2,7,3.69,9.32,13.71,16.48,13.76,20.5-5.86,23.77-5.86,23.77l-6.6,46.18L59,658.85Z" transform="translate(-2 -553.19)"/><path class="cls-9" d="M62.54,654.75c-0.57,2.74-1.13,4.66-1.36,5.42a0.33,0.33,0,0,0,.08.36L51,687.65h0l-1.74,4-0.16,0a52.45,52.45,0,0,0-2.17-4.91,0.74,0.74,0,0,1,.07-0.33h0c-3-7.29-10-19.84-12.13-22.13-3-3.28-15.86-26-18.65-28.67-0.58-.57-1.69-1.7-3-3.16h0.1c-0.47-.53-0.36-1.09-1.36-1.69V606.55l1.33-1.28,18.11-15.61,3.1-2.69,0.06-.06s0,0,0,0L34.67,587l0.77,0.71h0c0.29,0.27.64,0.6,1.06,1,5.39,5.18,20.58,20.71,25.18,35.34C65.38,635.82,64,647.86,62.54,654.75Z" transform="translate(-2 -553.19)"/><path class="cls-8" d="M92.49,672.71L61,653.84s-11,21.78-12,37.83,7.05,46.86,7.05,46.86-4.11,5.2-1,8a52.07,52.07,0,0,1,6,6.56L91.6,814.39l28.46-11.25-5.77-110Z" transform="translate(-2 -553.19)"/><path class="cls-10" d="M152.79,705.59s-0.52-8.32-4.3-10.87-3.07-7.77-3.07-7.77-5-5.65-9.21-5.79-8.58-2.45-11.32-7.64-3.87-13.29-6.45-16.31-7.11-5.72-7.57-7.78S97.8,631.25,97.8,631.25,94.21,650.18,94,654.77s-2.1,17.44-2.1,17.44,6.8,4.95,4.45,11.26,3.21,8.33,4.76,38.52c0,0,.1,4.84-5.86,12.08s-11.42,16-8.65,19.25S94,772.46,94,772.46s2.29,9.53,1.81,12.92S97,795.67,97,795.67l3.39,14.49,37.18,38.91,31-86.69-15.79-56.78h0Z" transform="translate(-2 -553.19)"/><path class="cls-1" d="M113.07,818.4s-15.4-17.29-28.64-16.08l-1.89,26.43s35.31,35.64,36.87,40.84L126.75,853Z" transform="translate(-2 -553.19)"/><path class="cls-1" d="M134.71,768.93l-18.51,50c-0.47,1.28-1,2.56-1.47,3.84-0.22.6,0.28,1.2-.72,1.8h0a3.39,3.39,0,0,1-.34,1.06l-8,6.38-7.71,6.14-3.54,2.82-1.12.89s-25,4.25-46,11.68C34.64,858,23.64,863.68,20.51,870.3A21.27,21.27,0,0,1,12,879.39V788.74l-0.14-25L13.26,759l2.88-9.3a239.38,239.38,0,0,1,37.91-5.45s0.06-.27.1-0.27h0s0,0.26.08,0.26c3.75-.2,7.43-0.39,11.05-0.4,7.8,0,15.26,1.14,22.19,1.14h0c11.75,2,22,4.2,29.94,7.84a48.86,48.86,0,0,1,5.87,3.27A29.11,29.11,0,0,1,134.71,768.93Z" transform="translate(-2 -553.19)"/><path class="cls-11" d="M6.68,624.87L5.87,624,5,623l0.85,1Z" transform="translate(-2 -553.19)"/><path class="cls-11" d="M128.77,825.19s-8-6.29-15.71-6.78c0,0-11.64,10.44-5.74,20.18s9,10.74,9.54,15.46,2.53,15.55,2.53,15.55,2-2.36,8.9-.5,19.12,3.28,19.74,4.83,25.61,0.61,30.35-1.27,16.25-11.79,16.25-11.79L179.3,848.93Z" transform="translate(-2 -553.19)"/><path class="cls-10" d="M182.11,713s-10-2.85-15.85-3.24S153,707.83,153,706s5.34,6.57-5.56,20.63-12.56,25.45-11.34,28.54,11.91,42.25,2.51,54.91c0,0-5.66,13.42-9.81,15.06,0,0,6,4.78,7.38,8.26s8,8,12.6,9.33,20,3.73,20.6,5.27,9.95,0.88,9.95.88l12.45-8.39L191,797l13.09-43.19Z" transform="translate(-2 -553.19)"/><path class="cls-12" d="M217,731.74s-6.69-3.06-12.87-2.63-10.42.09-11.55-1.47-9.64-14-10.42-14.66,12.44,36.67,6.17,66.33l-9.75,9.15s-4.88.66-2.46,8.09,7,20.37,6,23.1,3.48,23.11-2.82,29.29l15.35,11.93,26.2-44.72,2.42-68.45-6.31-16h0Z" transform="translate(-2 -553.19)"/><path class="cls-13" d="M217,731.74a36.26,36.26,0,0,0-6.66,24.77c1.42,14.87,4,27.49,4,27.49s-15.07,17.36-15.84,29.3-6,10.87-.09,19.71-4.93,28.86-4.93,28.86l35.48,1,59.5-36.49,2.71-32.76L265.87,748Z" transform="translate(-2 -553.19)"/><path class="cls-14" d="M337.88,758.13s5.76-4.24,9.67-7.35,13-9.61,15.27-12.52,5.76-4.51,5.16-5.17-30-4.7-33.83-4.07-28.67-1.41-31-1.17-6.05-2.3-9.33-2.8-30.41,2.85-34.28,2.6a74.38,74.38,0,0,0-13.54.43c-4.91.6-8.62,1.62-13.9,2.14s-13.75,1.64-15.17,1.52,3.42,6.92,5.81,7.77,4.89,5.44,8,4.66,14.52,0.3,14.91,2.16,5.66,6.71,6.89,7.12,9.77,0.61,9.58,2,41.09,33.39,41.09,33.39Z" transform="translate(-2 -553.19)"/><path class="cls-15" d="M321.69,790.29s11.15-12.12,14.13-15,11.34-9.68,9.42-11.94-8.5-7.2-13.91-6.58-28.17,1.58-31.42.51-29.22-2.37-37.75-1.85l51.51,41.86Z" transform="translate(-2 -553.19)"/><path class="cls-16" d="M321.69,790.29s-19.61-17.74-23.24-17.81a76.39,76.39,0,0,1-13.76-2.28c-1.51-.58-19.52-14.25-22.54-14.74s11.3,20.35,13.69,28.13,0.3,14.64-.36,15.57-3.79,7.76-.35,9.53,9.52,3.17,8.7,4.61,3.54,12.47,3.54,12.47l32.26-4.25s0.64-16.58,1.08-18.09-2.11-9.68,1-13.13h0Z" transform="translate(-2 -553.19)"/><path class="cls-14" d="M368,733.08s91.36,27.17,92.38,41.52-29.45,18.8-29.45,18.8-25-12.94-42.65-9.08-50.38-26.2-50.38-26.2Z" transform="translate(-2 -553.19)"/><path class="cls-15" d="M318.73,788.86l33.12,19.92,4.4,19.06s22.88-4.57,35.33-1.45,18.77-1.61,18.77-1.61l7.38,8.71c6.17-13.47,13.2-28.84,19.37-42.31-4.94-3.09-15.7-6.9-30.72-8.27-9.18-.84-17.2.77-23.36,1.67,0,0-30.42-16-37.78-21.21Z" transform="translate(-2 -553.19)"/><path class="cls-16" d="M287.38,825.77l18.49,19,28.88-4.88,29.35,13.44-10.87-45.12-34.15-20q-0.15,13.92-.29,27.84Z" transform="translate(-2 -553.19)"/><path class="cls-12" d="M229.26,861.72s45.74,25.52,44,42.32c0,0,48.57,4.5,67-1.43,0,0-32.14-69.59-52.83-76.84Z" transform="translate(-2 -553.19)"/><path class="cls-8" d="M305.34,843.44l29.42-3.53,29.35,13.44s8.77,23.37,15.81,22.37l10.25,7.13,5.27,7.31L421.51,891S369.45,908.49,366,902.26s-27.82,1.16-27.82,1.16-27.87-56.18-32.27-58.63Z" transform="translate(-2 -553.19)"/><path class="cls-17" d="M356.95,827.56s32.75-6.6,39.35-.31a14.28,14.28,0,0,1,5-2.92,11.7,11.7,0,0,1,9,.45l7.56,1L414,843.91l7.5,47.13L391,893.7a24.46,24.46,0,0,0-4.42-9.44c-4.55-6-11-9-15.14-10.56a68.5,68.5,0,0,1-9.25-16.47,71.21,71.21,0,0,1-4.57-29.95Z" transform="translate(-2 -553.19)"/><path class="cls-14" d="M532.8,815.28c11.78-.46,19.36,5.3,23.92,10.22l3.13,14.86s34.18-.24,59.87-9l-91,36s-15.79-24.09-3.75-29.3-51.45.66-51.45,0.66l-21.35,8.44-10.48-4.95L469,829.16c15.79-1.5,28.62-3.75,37.14-6.38,12.67-3.91,18.28-7.17,26.62-7.5h0Z" transform="translate(-2 -553.19)"/><path class="cls-2" d="M473.15,837.83s18.17,12.87,18.55,16.07-14.6,12.14-8.17,18a39.89,39.89,0,0,0,13.46,8l-31.57,12.48a55.38,55.38,0,0,1-13.09-15.33c-8.6-15.18-8.91-34.49-8.91-34.49l10.82,2.73Z" transform="translate(-2 -553.19)"/><path class="cls-2" d="M503.12,853.91s25.76,10.9,25.72,14.45-25.21,16.67-16.37,22,19.38,6.37,19.38,6.37L480.07,917.2c-9.83-5.23-14.72-10.8-17.34-14.71-10.37-15.45-7-37.23-7-37.23l16.33,0.92Z" transform="translate(-2 -553.19)"/><path class="cls-6" d="M451.06,863.89c4.39,0.85,3.4,7.13,7.37,14.73a34.92,34.92,0,0,0,11,12.19l-4,1.58a130.43,130.43,0,0,0-19.42-2c-11-.3-25.17.89-25.17,0.89,1.94-4.49,4-10.61,6-15.1,14.6-11.76,21.51-12,24.63-11.42Z" transform="translate(-2 -553.19)"/><path class="cls-2" d="M471.08,838.64s18.75,13.39,19.13,15.42c0,0-9.17,10.78-8.27,14.9,0,0-.24,9,15,10.95l31.72-12.54s-7.12-25.41.12-32.25c0,0,.56-3.65-55.68,2.71Z" transform="translate(-2 -553.19)"/><path class="cls-9" d="M36.82,586.25v0.16l0,0.08-1.34,1.18v0L35,588h0l-1.34,1.19-20.3,17.39L12,607.87V589.1c1,0,.83,0,1.33,0A154.61,154.61,0,0,0,34.58,587h0s0,0,0,0h0.09a11.91,11.91,0,0,0,1.39-.32s0-.26,0-0.26a5.06,5.06,0,0,1,.55-0.42h0C36.69,586,36.76,586.26,36.82,586.25Z" transform="translate(-2 -553.19)"/><path class="cls-9" d="M83.34,580.08L36.5,588.72l-1.24.23-1.63.3-2.27.42-8.13,1.5-9.9-.38L12,590.73v-37.4c1,0,.84,0,1.33-0.06,42.09-1.56,65.16,21.4,69.38,26A4.72,4.72,0,0,1,83.34,580.08Z" transform="translate(-2 -553.19)"/><line class="cls-18" x1="0.31" y1="66.61" y2="66.25"/><path class="cls-18" d="M56.12,738.52h0l-1.84,5.89,0,0.1-0.12.37v0L13.18,779.48l-1.31,1.26L12,788V625.75c1,0.37.84,0.75,1.33,1.12,4.63,3.47,9.18,7,13.81,10.43Q37,661.64,46.8,686c0.76,1.89,1.51,3.78,2.27,5.67,0,0,0,0,0,0l6.35,42.19,0.69,4.62v0Z" transform="translate(-2 -553.19)"/><path class="cls-2" d="M430.91,793.4l29.45-18.8s45.13-9.34,47.13-2.53c0,0,18.33,44.63,25.31,43.21,0,0-54.88,19-63.4,14.78,0,0,24.91-34.89,7.92-38.46,0,0-20.57,9.92-46.41,1.8h0Z" transform="translate(-2 -553.19)"/><path class="cls-6" d="M436.05,790.12c2,1.37,7.67,4.63,17.35,4.68,11.74,0.06,21.57-4.64,24.35-6,2.93,1.63,7.59,4.93,9,10.74,2.32,9.28-4.55,21.05-17.39,30.58l-26,12.51s1.05,19.26,5.6,21.49-21.69,13.5-21.69,13.5L421.51,891l-8.88-46.58c2.89-13.37,7.16-27.28,10-40.65l13.37-13.69h0Z" transform="translate(-2 -553.19)"/><path class="cls-8" d="M67.09,748.94s-23.26-59-14.64-73.69l-5.92,11.15,8.88,47.45-1.3,11.07Z" transform="translate(-2 -553.19)"/><path class="cls-10" d="M182.11,713s26.14,57.63-6.67,79c0,0,15.59,49,2.47,57.45l15.35,11.93s5.39-57.14-10.21-68.86c0,0,30.85-39.48-.94-79.57h0Z" transform="translate(-2 -553.19)"/><path class="cls-8" d="M378.74,893a20.66,20.66,0,0,0-5-10.36,28.75,28.75,0,0,0-11.8-7.58s4.49-29.76-56.39-31.13L334,838.11l25,10.5,12.41,25.09s20.81,7.54,19.23,18.73l-12,.54h0Z" transform="translate(-2 -553.19)"/><line class="cls-9" x1="0.31" y1="66.61" y2="66.25"/><path class="cls-9" d="M6.68,624.87L5.87,624,5,623l0.85,1Z" transform="translate(-2 -553.19)"/><path class="cls-6" d="M443.42,842.57c-1.45,4.64-3.68,14.71,3.23,22.45a21.57,21.57,0,0,0,4.23,3.62s5.13,21.42,9.05,22.9l5.48,0.86,4-1.58s-13.57-14-15.41-24.28a26.59,26.59,0,0,1-7.55-8.06,24.85,24.85,0,0,1-3-15.9h0Z" transform="translate(-2 -553.19)"/><path class="cls-14" d="M460.36,774.6s-39.4,14-42.43,51.21c0,0-10.12-31.2,39-56.4a7.82,7.82,0,0,1,2.5,2.52,6.75,6.75,0,0,1,.91,2.66h0Z" transform="translate(-2 -553.19)"/><path class="cls-8" d="M101.59,636.18s-4.23,32.37-6.67,34.45c0,0,8.44,6.35.91,14.63,0,0,4.41-9.79-4-13l6.57-40Z" transform="translate(-2 -553.19)"/></svg>