<svg id="Layer_1" data-name="Layer 1" xmlns="http://www.w3.org/2000/svg" viewBox="0 0 650 597.53"><defs><style>.cls-1{fill:#444b52;}.cls-2{fill:#60666d;}.cls-3{fill:#5c6a6d;}.cls-4{fill:#6d747b;}.cls-5{fill:#676d75;}.cls-6{fill:#5b6169;}.cls-7{fill:#6e767f;}.cls-8{fill:#4b535a;}.cls-9{fill:#474f57;}.cls-10{fill:#4a515b;}.cls-11{fill:#444f52;}.cls-12{fill:#48535c;}.cls-13{fill:#47525a;}.cls-14{fill:#575e67;}.cls-15{fill:#585f67;}.cls-16{fill:#4e565e;}.cls-17{fill:#585e63;}.cls-18{fill:#474e54;}</style></defs><title>when</title><rect class="cls-1" x="-0.25" y="836.27" width="640.24" height="302.45" transform="translate(649.74 1433.8) rotate(-180)"/><path class="cls-2" d="M584.13,869.11l49.74-20,0.76-.25,5.37-2.1V815.89l-13.13,7.34-15,3-14.06,4.18h-0.14L590,832.61v0.31l0.48,0,0.52,0.35h0l-0.81,2-0.22,0-2.45,13.75Z" transform="translate(10 -541.19)"/><path class="cls-3" d="M489.23,907.16c79.47-5.22,135.59-21.18,145.29-58.5,0,0-101.11-37.86-119.13-34.56C515.4,814.1,457.56,909.17,489.23,907.16Z" transform="translate(10 -541.19)"/><path class="cls-2" d="M325,722.11s-11-11.88-12.71-12.24-8.45-8.4-8.45-8.4-8.07-14.11-9.55-15.25-14.34-10.2-20.1-10.31-29.6-2.32-29.6-2.32l-23.39-4.47-32.32,14.05,50.05,34.71Z" transform="translate(10 -541.19)"/><path class="cls-4" d="M193.09,626.43s8.09,11.53,10.13,12.77,6.54,2.18,7.57,3.49,9.38,5.51,11.85,5.2,8.64,2.37,10.48,4.38,4.81,4.71,4.81,4.71,3.2,9.95,4.35,11.2,2.08,5.35,2.08,5.35-9.15,5.4-12.41,5a14.82,14.82,0,0,0-6.84,1c-0.45.18-5.61,1.57-5.61,1.57l-5.4-.58-14.36,1.25-10.91,1.35-25.29-44.84Z" transform="translate(10 -541.19)"/><path class="cls-5" d="M186.64,632.47s-8.22,12.61-3.61,18.26,6.94,13.19,6.11,16.5a67.7,67.7,0,0,0-1.16,9.58l-30.45,2.46L139.31,663.9l-34-9.91-9.13-13.75,74.35-12.05Z" transform="translate(10 -541.19)"/><path class="cls-6" d="M155.88,670.53s-15.36-6.61-27.36,3.36l10.65,27.44L182.4,722.9l21.3,2.43,61.4,1.64,59-3.39s-7-4.72-11.45-6.37-11.15-5.6-12.45-8.06-15.13-14.08-20.15-14.58-20.55,4.84-20.55,4.84-22.62,7.5-29,1.81l-7.26-3.49s-25.62-18.11-27.65-18c0,0-15.36-7.57-27.09-4Z" transform="translate(10 -541.19)"/><path class="cls-2" d="M107.61,648.47a51.75,51.75,0,0,1,10.16,3.94c4,2.29,10.7,6.24,14.74,5.07s9.53,1.44,12.08,1.78,7.81,1.44,7.89,2.55,1.31,7.73,3.4,8.72-6.25-1.84-14-.08-13.34,3.44-13.34,3.44l-9,5.31L105.76,665l1.85-16.56h0Z" transform="translate(10 -541.19)"/><path class="cls-4" d="M160.71,624.34c24.68-4.43,32.39,2.09,32.39,2.09l-6.46,6L132,645.07Z" transform="translate(10 -541.19)"/><path class="cls-4" d="M112.37,579.83s9.83,5.33,12.78,7.58,18.28,7.54,20.45,10.91,9.21,10.85,13.26,10.6,1.84,15.42,1.84,15.42l-8,6-29.37,7-10.93-57.5h0Z" transform="translate(10 -541.19)"/><path class="cls-7" d="M75.38,567.22s16.26,7.21,16.6,8.1,17.21,1.67,20.39,4.52c0,0,19.76,41.57,20.67,42.58s6.66,2.48,10.5,4.37a75.93,75.93,0,0,0,9.14,3.54L132,645.07s-22.57-1.14-27.1.7a70,70,0,0,1-8.79,2.86L74.93,622.08l0.45-54.86h0Z" transform="translate(10 -541.19)"/><path class="cls-8" d="M22.79,575.76l52.61-8.5s0.2,7.17,3.71,9.56,13.81,16.89,13.85,21-5.9,24.37-5.9,24.37l-6.64,47.35-33.09-20Z" transform="translate(10 -541.19)"/><path class="cls-9" d="M50.95,645.31c-0.57,2.81-1.13,4.78-1.37,5.56a1.76,1.76,0,0,0-.08.37L39,679h0l-1.59,4.12-0.08,0c-0.09-.2-0.89-2.2-2.29-5a0.72,0.72,0,0,1,0-.34h0c-3-7.47-9.93-20.34-12.06-22.69-3-3.36-15.89-26.63-18.7-29.4-0.58-.58-1.66-1.75-3-3.24l0.09,0C0.9,621.88,1,621.3,0,620.69V595.9l1.38-1.31,18.24-16,3.13-2.76,0.06-.07s0,0,0,0l0.09,0.08,0.77,0.73h0c0.29,0.27.65,0.62,1.06,1,5.43,5.31,20.72,21.24,25.35,36.24C53.8,625.91,52.37,638.26,50.95,645.31Z" transform="translate(10 -541.19)"/><path class="cls-8" d="M81.09,663.73L49.43,644.38s-11,22.33-12,38.78,7.1,48,7.1,48-4.14,5.34-1,8.18a53.06,53.06,0,0,1,6.06,6.73L80.19,809l28.65-11.54L103,684.7Z" transform="translate(10 -541.19)"/><path class="cls-10" d="M141.79,697.44s-0.53-8.53-4.33-11.15-3.09-8-3.09-8-5-5.8-9.27-5.93-8.63-2.51-11.4-7.84-3.9-13.62-6.49-16.72-7.15-5.87-7.62-8-13.16-18.64-13.16-18.64-3.61,19.41-3.87,24.11-2.11,17.88-2.11,17.88,6.84,5.07,4.48,11.54,3.23,8.54,4.8,39.5c0,0,.1,5-5.9,12.39S72.34,743,75.12,746.38,82.57,766,82.57,766s2.3,9.77,1.82,13.25,1.22,10.55,1.22,10.55L89,804.65l37.43,39.9,31.23-88.88-15.89-58.22h0Z" transform="translate(10 -541.19)"/><path class="cls-1" d="M101.81,813.1S86.3,795.38,73,796.61l-1.9,27.1s35.55,36.54,37.11,41.87l7.4-17Z" transform="translate(10 -541.19)"/><path class="cls-1" d="M123.59,762.38L105,813.61c-0.47,1.31-.88,2.62-1.36,3.93-0.22.62,0.4,1.23-.6,1.84h0a3.94,3.94,0,0,1-.47,1.09L94.4,827l-7.8,6.29L83,836.2l-1.13.91s-25.22,4.36-46.26,12c-12.77,4.62-23.88,10.44-27,17.22A21.91,21.91,0,0,1,0,875.63V782.69l-0.11-25.61,1.43-4.86,2.9-9.53a236.55,236.55,0,0,1,38.17-5.5s0.06-.19.11-0.19h0s0,0.18.08,0.18c3.77-.21,7.48-0.37,11.13-0.38,7.85,0,15.36,1.2,22.34,1.2h0c11.83,2,22.16,4.23,30.13,8a48.85,48.85,0,0,1,5.91,3.31A29.55,29.55,0,0,1,123.59,762.38Z" transform="translate(10 -541.19)"/><path class="cls-11" d="M-5.28,614.68l-0.82-.93-0.84-1,0.85,1Z" transform="translate(10 -541.19)"/><path class="cls-11" d="M117.62,820.06s-8-6.45-15.81-7c0,0-11.72,10.7-5.77,20.69s9.11,11,9.6,15.85,2.55,15.94,2.55,15.94,2-2.41,9-.51,19.25,3.37,19.87,5,25.78,0.63,30.55-1.3,16.36-12.09,16.36-12.09L168.48,844.4Z" transform="translate(10 -541.19)"/><path class="cls-10" d="M171.31,705s-10.11-2.92-16-3.32-13.36-2-13.37-3.79,5.38,6.74-5.59,21.15S123.74,745.14,125,748.32s12,43.32,2.53,56.3c0,0-5.7,13.76-9.88,15.44,0,0,6,4.9,7.43,8.47s8,8.23,12.69,9.57,20.12,3.82,20.73,5.41,10,0.9,10,.9L181,835.8l-0.76-44.63,13.18-44.28Z" transform="translate(10 -541.19)"/><path class="cls-12" d="M206.39,724.25s-6.74-3.13-13-2.69-10.49.1-11.63-1.51-9.7-14.32-10.49-15,12.52,37.6,6.21,68l-9.82,9.38s-4.91.68-2.47,8.3,7.07,20.88,6.09,23.69,3.5,23.69-2.84,30l15.45,12.24,26.37-45.85,2.44-70.18-6.35-16.36h0Z" transform="translate(10 -541.19)"/><path class="cls-13" d="M206.39,724.25a37.64,37.64,0,0,0-6.71,25.4c1.43,15.24,4,28.18,4,28.18s-15.18,17.8-15.95,30-6,11.14-.09,20.21-5,29.58-5,29.58l35.72,1.05,59.9-37.42,2.72-33.59-25.43-46.84Z" transform="translate(10 -541.19)"/><path class="cls-14" d="M328.12,751.3s5.79-4.35,9.73-7.54,13.08-9.85,15.38-12.84,5.8-4.63,5.19-5.3-30.17-4.82-34.06-4.17-28.86-1.45-31.18-1.2-6.09-2.36-9.39-2.87-30.61,2.93-34.51,2.66a73.53,73.53,0,0,0-13.63.44c-4.94.61-8.67,1.66-14,2.19s-13.84,1.68-15.27,1.56,3.44,7.1,5.85,8,4.93,5.58,8.07,4.78,14.61,0.31,15,2.21,5.69,6.88,6.93,7.3,9.84,0.63,9.65,2.08,41.37,34.23,41.37,34.23Z" transform="translate(10 -541.19)"/><path class="cls-15" d="M311.83,784.28s11.22-12.43,14.23-15.36,11.42-9.93,9.48-12.24-8.56-7.39-14-6.74-28.36,1.62-31.63.53-29.41-2.43-38-1.89l51.86,42.91Z" transform="translate(10 -541.19)"/><path class="cls-16" d="M311.83,784.28s-19.74-18.19-23.4-18.26a75.63,75.63,0,0,1-13.85-2.33c-1.52-.59-19.65-14.61-22.69-15.11s11.38,20.87,13.78,28.84,0.3,15-.36,16-3.81,8-.35,9.77,9.59,3.25,8.76,4.73,3.56,12.78,3.56,12.78l32.47-4.36s0.65-17,1.08-18.55-2.13-9.92,1-13.46h0Z" transform="translate(10 -541.19)"/><path class="cls-14" d="M358.42,725.62s92,27.85,93,42.57-29.64,19.27-29.64,19.27-25.13-13.27-42.93-9.31-50.71-26.86-50.71-26.86Z" transform="translate(10 -541.19)"/><path class="cls-15" d="M308.85,782.81l33.34,20.42,4.43,19.54s23-4.69,35.57-1.48,18.9-1.65,18.9-1.65l7.43,8.93c6.22-13.81,13.28-29.57,19.5-43.38-5-3.16-15.8-7.07-30.93-8.48-9.24-.86-17.32.79-23.52,1.71,0,0-30.62-16.37-38-21.74Z" transform="translate(10 -541.19)"/><path class="cls-16" d="M277.29,820.65l18.61,19.5,29.08-5,29.55,13.78-10.95-46.26L309.2,782.2q-0.15,14.27-.29,28.55Z" transform="translate(10 -541.19)"/><path class="cls-12" d="M218.78,857.51s46,26.17,44.28,43.39c0,0,48.9,4.61,67.42-1.47,0,0-32.35-71.34-53.18-78.78Z" transform="translate(10 -541.19)"/><path class="cls-8" d="M295.36,838.77L325,835.15l29.55,13.78s8.83,24,15.91,22.94l10.32,7.31,5.31,7.49,26.25,0.89s-52.41,17.89-55.92,11.51-28,1.19-28,1.19-28.06-57.6-32.49-60.11Z" transform="translate(10 -541.19)"/><path class="cls-17" d="M347.32,822.49s33-6.77,39.61-.32a14.33,14.33,0,0,1,5.05-3,11.59,11.59,0,0,1,9.11.46l7.61,1.06-3.94,18.55,7.55,48.32-30.69,2.73a25.29,25.29,0,0,0-4.45-9.67c-4.58-6.13-11.11-9.28-15.25-10.83a70.59,70.59,0,0,1-9.31-16.88,74.25,74.25,0,0,1-4.61-30.7Z" transform="translate(10 -541.19)"/><path class="cls-14" d="M524.35,809.9c11.86-.48,19.49,5.43,24.08,10.48l3.15,15.24s34.41-.25,60.27-9.21L520.23,863.3s-15.9-24.7-3.77-30-51.8.68-51.8,0.68l-21.49,8.65-10.55-5.07,27.55-13.38c15.89-1.54,28.81-3.85,37.39-6.54,12.75-4,18.4-7.35,26.8-7.69h0Z" transform="translate(10 -541.19)"/><path class="cls-2" d="M464.3,833s18.29,13.19,18.67,16.47-14.69,12.45-8.23,18.44a40,40,0,0,0,13.55,8.23L456.51,889a56.55,56.55,0,0,1-13.17-15.71c-8.66-15.57-9-35.36-9-35.36l10.89,2.8Z" transform="translate(10 -541.19)"/><path class="cls-2" d="M494.46,849.5s25.94,11.18,25.89,14.82S495,881.42,503.87,886.87s19.51,6.53,19.51,6.53l-52.12,21c-9.89-5.36-14.82-11.08-17.45-15.08-10.44-15.84-7-38.17-7-38.17l16.44,0.94Z" transform="translate(10 -541.19)"/><path class="cls-6" d="M442.06,859.74c4.42,0.87,3.42,7.31,7.42,15.1a35.56,35.56,0,0,0,11.06,12.49l-4,1.62a129,129,0,0,0-19.55-2c-11-.31-25.34.92-25.34,0.92,1.95-4.61,4.05-10.87,6-15.48,14.7-12.05,21.65-12.33,24.8-11.71Z" transform="translate(10 -541.19)"/><path class="cls-2" d="M462.21,833.85s18.87,13.73,19.26,15.81c0,0-9.23,11.05-8.32,15.28,0,0-.25,9.26,15.14,11.22l31.93-12.86s-7.17-26,.12-33.07c0,0,.56-3.74-56.05,2.78Z" transform="translate(10 -541.19)"/><path class="cls-9" d="M25.06,575.17l0,0.12,0,0.06-1.35,1.2v0L23.2,577h0l-1.35,1.16L1.38,596,0,597.25V578c1,0,.87,0,1.38,0a153.12,153.12,0,0,0,21.4-2.15s0,0.07,0,.06,0,0.11,0,.11h0s0-.07.06-0.08a12,12,0,0,0,1.4-.36s0-.2,0-0.2a4.29,4.29,0,0,1,.55-0.36h0A2,2,0,0,0,25.06,575.17Z" transform="translate(10 -541.19)"/><path class="cls-9" d="M71.88,568.76l-47.15,8.85-1.24.23-1.64.31-2.29.43-8.18,1.54-10-.39L0,579.68V541.33c1,0,.88,0,1.38-0.07,42.37-1.6,65.61,21.94,69.86,26.68A5.93,5.93,0,0,1,71.88,568.76Z" transform="translate(10 -541.19)"/><line class="cls-18" x1="0.31" y1="68.29" y2="67.93"/><path class="cls-18" d="M44.48,731.2h0l-1.85,6,0,0.11-0.12.38v0L1.26,773.2l-1.35,1.29L0,781.92V615.58c1,0.38.88,0.77,1.38,1.15,4.66,3.56,9.26,7.13,13.92,10.7q9.91,24.95,19.79,49.91c0.77,1.94,1.52,3.87,2.29,5.81,0,0,0,0,0,0l6.39,43.25,0.7,4.74v0Z" transform="translate(10 -541.19)"/><path class="cls-2" d="M421.77,787.47l29.65-19.27s45.43-9.58,47.45-2.6c0,0,18.45,45.76,25.48,44.31,0,0-55.24,19.49-63.83,15.15,0,0,25.08-35.78,8-39.43,0,0-20.71,10.17-46.72,1.85h0Z" transform="translate(10 -541.19)"/><path class="cls-6" d="M426.95,784.1c2.06,1.41,7.72,4.75,17.46,4.8,11.81,0.06,21.71-4.76,24.51-6.2,3,1.67,7.65,5.06,9.1,11,2.33,9.51-4.58,21.58-17.51,31.35l-26.16,12.82s1.06,19.75,5.63,22-21.84,13.84-21.84,13.84l-5.84,13.82-8.94-47.76c2.91-13.7,7.21-28,10.11-41.67l13.46-14h0Z" transform="translate(10 -541.19)"/><path class="cls-8" d="M55.53,741.89s-23.41-60.45-14.74-75.55l-6,11.43,8.94,48.65-1.31,11.35Z" transform="translate(10 -541.19)"/><path class="cls-10" d="M171.31,705s26.31,59.08-6.71,81c0,0,15.7,50.26,2.49,58.9l15.45,12.24s5.43-58.59-10.28-70.6c0,0,31.05-40.47-.95-81.58h0Z" transform="translate(10 -541.19)"/><path class="cls-8" d="M369.25,889.55a21.36,21.36,0,0,0-5.07-10.63,28.88,28.88,0,0,0-11.88-7.77s4.52-30.51-56.77-31.92l28.72-5.92,25.18,10.76,12.49,25.73s21,7.73,19.36,19.2l-12,.55h0Z" transform="translate(10 -541.19)"/><line class="cls-9" x1="0.31" y1="68.29" y2="67.93"/><path class="cls-9" d="M-5.28,614.68l-0.82-.93-0.84-1,0.85,1Z" transform="translate(10 -541.19)"/><path class="cls-6" d="M434.36,837.88c-1.46,4.75-3.71,15.08,3.25,23a21.83,21.83,0,0,0,4.26,3.71s5.16,22,9.11,23.47l5.52,0.88,4-1.62s-13.66-14.39-15.51-24.9a27.06,27.06,0,0,1-7.6-8.26,25.88,25.88,0,0,1-3.06-16.3h0Z" transform="translate(10 -541.19)"/><path class="cls-14" d="M451.41,768.2s-39.66,14.37-42.71,52.51c0,0-10.19-32,39.28-57.82a7.94,7.94,0,0,1,2.52,2.59,7,7,0,0,1,.91,2.73h0Z" transform="translate(10 -541.19)"/><path class="cls-8" d="M90.25,626.27S86,659.46,83.54,661.6c0,0,8.49,6.51.91,15,0,0,4.44-10-4-13.38l6.61-41Z" transform="translate(10 -541.19)"/></svg>