<svg id="Layer_1" data-name="Layer 1" xmlns="http://www.w3.org/2000/svg" viewBox="0 0 1920 1080"><defs><style>.cls-1{fill:#677477;}.cls-2{fill:#656e72;}.cls-3{fill:#69767a;}.cls-4{fill:#616c70;}.cls-5{fill:#636d70;}.cls-6,.cls-8{fill:#525b63;}.cls-7{fill:#566066;}.cls-10,.cls-11,.cls-12,.cls-13,.cls-14,.cls-8,.cls-9{fill-rule:evenodd;}.cls-9{fill:#3e474c;}.cls-10{fill:#4f595e;}.cls-11{fill:#495359;}.cls-12{fill:#4b555b;}.cls-13{fill:#525e66;}.cls-14{fill:#546168;}.cls-15{fill:#454f56;}.cls-16{fill:#f5e9d7;}.cls-17{fill:#002c41;}.cls-18{fill:#fbb142;}.cls-19{fill:#f8a04f;}.cls-20{fill:#f3e7d7;}.cls-21{fill:#f5ecdf;}.cls-22{fill:#8c473b;}.cls-23{fill:#bb5f4f;}.cls-24{fill:#c97f72;}</style></defs><title>มองลงเต็ม</title><path class="cls-1" d="M1920,.59c-7.19-.36-19.7-.59-36.42-.59-96.09,0-228.94,127.81-339.07,395.8,0,0-294.8-53.19-431,247.26s0,11.26,0,11.26-17.21,325.71,0,331.15c0,0,19.27,94.2,86.72,94.52,139.72.67,719.72,0,719.72,0V12.23C1919.2,8.4,1920.11,4.48,1920,.59Z"/><polygon class="cls-2" points="313 739.63 297 774 336.78 1080 364.9 1080 524.49 981.97 456.79 875 340.94 774 313 739.63"/><path class="cls-3" d="M1126,0c-97.72,267.45-168.08,595.44-12.5,648.06v-5c30.3,10.25,86.29-215.24,240.93-240.12,76.27-12.27,203.5,19.92,203.5,19.93s27.33-152.39,121.45-259.53L1920,0Z"/><polygon class="cls-3" points="1197.37 0 1110.95 479.54 1024.2 510.27 821 603.79 773.04 662.13 688.85 707.7 558.71 132.02 545.53 0 1197.37 0"/><polygon class="cls-4" points="546.08 0 551.92 191.27 348.18 0 546.08 0"/><polygon class="cls-5" points="300.53 18.6 303.49 0 -0.28 0 0 253.52 155.13 390.1 338.86 665.58 300.53 18.6"/><polygon class="cls-5" points="334.74 1080 342.82 1054.19 302.18 752.82 0 752.82 0 1079.99 334.74 1080"/><path class="cls-4" d="M750.26,1080C686.81,1002.5,578,935.91,413,1039.68l-68,33.59s.26,2.37.29,6.74C345.28,1080.67,751.55,1081.59,750.26,1080Z"/><path class="cls-4" d="M1210.91,1080c-19-37-52.24-68.39-110-74.74L832.47,924.2,551.92,879.06,502.1,978.52l9.89,16.2S637.68,950.15,752.74,1080h458.17"/><path class="cls-3" d="M1113.55,985.47l-27.19-497.22-47.24,14.61L821,603.79l-48,58.33L715.85,691.7l-17.06,50.87,169.29,46.37Z"/><polygon class="cls-4" points="906.17 806.07 1094.25 969.06 1073.69 981.97 581.5 887.32 630.6 809.89 906.17 806.07"/><polygon class="cls-6" points="302.38 781.15 330.43 885 360.15 1073.26 320.87 1073.26 309.97 879.06 287.95 797.62 302.38 781.15"/><polygon class="cls-2" points="244.54 720.11 108.8 632.24 0 605.01 0 752.82 244.54 720.11"/><polygon class="cls-5" points="162.44 468.36 0 527.95 0 263.54 140.24 360.2 162.44 468.36"/><polygon class="cls-2" points="292.36 679.64 175.51 472.25 98.08 490.69 0 536.53 0 602.82 43.9 624.93 263.53 710.07 292.36 679.64"/><path class="cls-3" d="M889.29,817.06S697,786.79,608.4,814.28h0l92-78.48s53.56,35.34,188.9,42Z"/><path class="cls-7" d="M339.89,0l127,157,29.55-17.73c-2.31-4.69-5.63-11.19-9.88-18.79C458.37,70.08,421,29,387.79,0h-47.9"/><polygon class="cls-5" points="311.8 0 303.72 167.77 313.09 334.94 373.45 243 472 141 356.09 0 311.8 0"/><path class="cls-6" d="M295.9,0,284,191.27c25,21.27,19.72,161.93,19.72,161.93l18.93-36.9h0C312.08,296.88,312.61,66,313,0Z"/><path class="cls-6" d="M736.94,1078c.1.12,4.23,1.88,4.34,2,12.71,0,15.24,0,22.49,0a538.54,538.54,0,0,0-107.91-90.29,218.53,218.53,0,0,0-79.4-16.13c-61.7-.76-107,25.31-125.64,37.64l-13.77,22.21a328.2,328.2,0,0,1,203.35-22.27,232.91,232.91,0,0,1,82.86,50.24C729.76,1067.5,731.64,1071.75,736.94,1078Z"/><path class="cls-6" d="M1805.49-.85c-204.85,112.72-252.38,349-261,396.65A320.75,320.75,0,0,0,1349.87,376a962.14,962.14,0,0,0-237.45,206,1586.73,1586.73,0,0,1,23.42-231.62C1159.75,214.51,1198.76,104.06,1240.24,7a40.94,40.94,0,0,0,.15-7c-21.22,1.27-42.45.21-63.69.85q-28.4,164.63-60.47,328.67l-22.14,97.09c-11.74,9.34-97.81,77.53-167.22,115.7C896.25,559.15,868.08,571,868.08,571a584.05,584.05,0,0,1-60.22,21.51A101.58,101.58,0,0,1,794.64,628C776,658.67,746.13,670,736,673.3l-13,30.95s91.34-57.7,103.46-86.71A946.23,946.23,0,0,0,933.32,567.2a945.62,945.62,0,0,0,90.88-56.93,149.26,149.26,0,0,1,60.39,114.34,713.49,713.49,0,0,1-8.6,296.24,895.16,895.16,0,0,1-183.54-168,294.76,294.76,0,0,1-192.07-17l-4.8,20.3,172.49,32.83A808.62,808.62,0,0,0,666.92,801c-20.49,3.85-40,8.35-58.52,13.29l10.73,10.43a602.54,602.54,0,0,1,283.36,8.68,397.34,397.34,0,0,1,167.76,130.48s-203.61-47.32-273.87-50.19c0,0-158.94-11.67-190.6-46l-34.52,10.14-19.35,28.59S934,956.7,1014.34,992.55c48.71,21.75,114.3,41.08,156.77,87.45,7.88.15,15.73-.66,23.56.34l2.43.33c.73-.05,1.46-.11,2.19-.14,9.77-.45,19.53-.23,29.29.1-.08-.21-.14-.41-.22-.62-19.71-51-48.65-96.57-91.1-117.63-9.56-34.92-66.12-254,59.17-417.19,25-32.56,72-93.74,150.56-114.71,87.43-23.34,207.07,4.93,207.07,4.93a607.38,607.38,0,0,1,120-220.3c85.12-99.38,183.79-148.64,246-172.43V0Z"/><path class="cls-6" d="M556.2,0a1111.13,1111.13,0,0,0,18.13,164l-24.59-23.12A1162.7,1162.7,0,0,1,521.83,0h35.75"/><path class="cls-6" d="M249.68,503.71s-85.59-99.08-77.94-137.11c0,0-119.16-95.65-171.74-202.59V298s146.88,94.64,155.49,146.26c0,0-82.07,48-155.49,80.27-.28,3.55.28,11.84,0,13.7,51.9-25,130.53-55.37,170.78-42.35,0,0,119.51,156.56,97.52,201.12,0,0-106.12-46.65-122.37-79.44,0,0-42.08,33.58-145.92-24.91-.09-.05-.59,18.76,0,24.82,12.86,8,27.61,16.57,37.9,25.61,0,0,80.3-3.81,191.19,80.31,0,0-22.94-13.38-36.33-13.38,0,0,21,55.45,3.82,59.27,0,0,93.68,5.74,91.77,39.2l12.16-20.08L313,739.63l25.86-74L345,607.65Z"/><path class="cls-6" d="M287.95,797.62S229.9,723.69,0,817.06V725.72s126.58-92.74,287.35,28Z"/><path class="cls-6" d="M52.24,632.24H0c0,1.14.41,11.19,0,15,52.37-12,105.21,8.21,108.6,9.68Z"/><path class="cls-6" d="M145.93,617.54s4.78-39.16-119.5,14.7H157.8Z"/><path class="cls-6" d="M327.19,1080l-6.32-6.74s-.74-5.15-3.25,6.74C320.81,1080,324,1080,327.19,1080Z"/><path class="cls-6" d="M320.87,1073.26c.38,2.25-1.13,6.68,1.15,6.74,35.92.88,38,0,38,0l.09-6.74Z"/><path class="cls-6" d="M361.27,1080c-.39-7.07-1.12-6.74-1.12-6.74H345c.75,3.49,1.3,3.22,1.66,6.74C351.55,1080,356.41,1079.67,361.27,1080Z"/><polygon class="cls-6" points="705 724.06 723.03 704.25 736 673.3 706.44 658.19 690.51 658.19 690.51 686.17 705 724.06"/><polygon class="cls-6" points="354 1073.26 437.06 1033.4 450.82 1011.19 354 1055.01 354 1073.26"/><path class="cls-6" d="M557.58,0c-8,1.06-15.92.22-23.89.34a3.71,3.71,0,0,0,0,.46c3.58,35.42,8.39,74.39,14.7,117.29l17.93,20.73S557.86.61,557.58,0Z"/><path class="cls-6" d="M533.7.44c3.58,35.39,8.39,74.33,14.69,117.19l17.93,14.73S560.82,75.11,558.07.47A224.36,224.36,0,0,1,533.7.44Z"/><path class="cls-8" d="M698.33,429q-.14,10.91-.28,21.82c-1.17,7.35.13,14.77-.69,22.12q-.14,11-.28,21.9c-1.21,7.32.12,14.72-.72,22.05q-.13,11-.26,22c-1.23,7.3.08,14.67-.71,22q-.15,11-.29,22c-1.08,5.85-.21,11.75-.49,17.63-.09,1.79.27,3.61-.3,5.38q-.14,10.86-.27,21.72c-1.16,7.38.22,14.85-.73,22.24q-.14,10.86-.27,21.72A58.29,58.29,0,0,0,693,687c2.86,12,7.71,23.27,11.56,34.9,5.24,15.83,10.86,31.54,16.23,47.33.67,2,1.56,4,1.2,6.19-1,1.61,0,3.51-.75,5.16a71,71,0,0,0,0,14.05c.83,2-.33,4.16.77,6.08.65,15.16,5.64,29.24,10.8,43.27,1.58,4.3,2.79,9,5.38,12.63,5,7,4.16,14.24,2.57,21.86-3,14.65-5.71,29.37-8.85,44-1.36,6.33,1.44,11.9,2.5,17.74,2.32,12.74,5.39,25.34,8.31,38,.52,2.23-.47,3.92-1.19,5.65-12.72,30.62-25.57,61.18-38.24,91.82-1.22,2.95-2.77,3.74-5.84,3.73-24.3-.13-48.61-.33-72.9.11-6,.11-9.56-2.44-13-6.46-8.32-9.7-16.75-19.3-25.08-29-10.06-11.68-20-23.47-30.13-35.08-3.06-3.51-7.82-4.36-11.88-6.16-14.38-6.39-28.86-12.57-43.48-18.39-5.72-2.28-6.57-6.69-7.48-11.74-1.88-10.46-3.7-21-6.33-31.26-1.58-6.21-6.76-10.66-10.38-15.84-9.15-13.11-18.75-25.89-28.14-38.83a12.6,12.6,0,0,0-5.49-4.45c-9.09-4-18.62-6.72-27.77-10.49a11.85,11.85,0,0,1-6-4.69c-10.08-15.42-20.52-30.61-30.71-46a13.39,13.39,0,0,0-5.36-4.67c-12.72-6.56-25.25-13.49-38.08-19.82-4.95-2.44-5.28-7.27-7-11.14-6.75-15.23-12.8-30.78-19.23-46.16-6.49-15.54-13.13-31-19.69-46.52-3.52-8.32-6.59-16.83-10.65-24.93-1.71-3.41-.71-7.17.13-10.53,5.05-20.32,9.54-40.76,13.89-61.24,1.27-6,2.5-12,4.28-17.81a7.39,7.39,0,0,0-1-6.8c-7.55-12.4-14.8-25-22.57-37.27-3.32-5.24-1-10.2-.35-15.13,1.5-11.38,3.68-22.66,5.61-34,1.85-10.86,3.75-21.7,5.56-32.56,1.23-7.34,3.36-14.71,3.22-22-.13-6.79-2.72-13.53-4.25-20.29-.75-3.29-1-6.69-2.47-9.83-.52-1.08-.11-2.35.59-3.68q11.73-22.36,23.15-44.89c8.07-15.87,16-31.81,24.05-47.68,2.58-5.08,5.32-10.09,8.13-15,8.05-14.23,11.22-30.27,16.9-45.37a12.7,12.7,0,0,1,3.23-5.36c12-10.57,22.06-22.95,33.11-34.4,7-7.27,14.85-13.06,24.07-16.38,10.83-3.9,16.93-11,19.78-21.89,2.47-9.45,11.22-13.19,18.33-18.35,9.95-7.23,20.78-13.25,29.26-22.46,12.27-13.34,27.49-22.54,43.58-30.52,6.76-3.35,13.22-7.29,19.88-10.86,5.12-2.75,7.71-7.9,11.41-12,6.62-7.25,12.92-14.82,18.87-22.63,12.67-16.6,31.38-25.4,47.47-37.59C627.43,7.7,633,4.94,637.18.47h99.89q0,.94,0,1.88c-1,1.58,0,3.45-.74,5.08L736,12.26c-1,1.62,0,3.5-.72,5.15l-.3,4.74c-.9,1.66,0,3.57-.72,5.25l-.21,4c-1.06,1.55-.08,3.39-.71,5l-.29,5c-1.07,1.55-.05,3.41-.74,5q-.14,2.46-.28,4.92c-1,1.58,0,3.44-.72,5.07l-.3,4.85c-1,1.62,0,3.5-.72,5.15l-.3,4.74c-.9,1.66,0,3.57-.72,5.25a159.05,159.05,0,0,0,9.2,32c5.42,12.91,3.05,24.93.3,37.4-1.59,7.19-3.15,14.38-4.63,21.59-1,5,1.81,9.17,4.11,12.87,4.85,7.83,4.19,15.48,2.34,23.91-3.29,15-5.53,30.32-8.6,45.41-1.67,8.2-7.14,14.77-11,22-4.75,9-10,17.76-14.93,26.64a4.8,4.8,0,0,0-1,3.23c1.88,10.86.29,21.85,1.27,32.74.13,4.64.83,9.29-.41,13.89q-6.89,13.86-13.77,27.72c-.73,1.48-1.5,3-1.06,4.7q3.61,14.31,7.26,28.6A165,165,0,0,1,698.33,429Z"/><path class="cls-9" d="M646.17,489.94c.73,15.85,2.24,31.62,3.85,47.4.91,8.87,1.4,17.79,2.15,26.68,1.27,15.14,3.3,30.25,3.72,45.41.46,16.9,1.51,33.89-.68,50.76-1.8,13.87,1.68,26.17,9.5,37.57,2.71,4,4.79,8.33,7.23,12.47a9,9,0,0,1,1.22,7.08c-1.08,4.32-2,8.68-2.94,13-.26,1.28-.62,2.22-2.07,2.33-2.19.85-3.83-.58-5.56-1.42-8.49-4.14-16.83-8.6-25.43-12.51-9.34-2.75-18.95-4.34-28.43-6.45a26.05,26.05,0,0,1-5.24-1.39,8.07,8.07,0,0,1-2.89-2.42c-7.48-9.85-15.51-19.26-23.06-29.06a47,47,0,0,0-4.84-5.07c-6.61-2.16-13.49-3.11-20.21-4.71a30.35,30.35,0,0,1-7.08-2.15c-3.87-3.36-4.36-8.41-6.33-12.71-3.88-5.61-8.82-10.3-13.35-15.34-5.1-5.67-11.08-10.5-15.92-16.46-1.71-6.5-.94-13.06-.59-19.62a28,28,0,0,0,.11-12c-.13-5.2,2.27-10,2.26-15.2.77-4.48-1.52-8.54-1.74-12.88a182.52,182.52,0,0,1,17.82-19.58c4.07-6.41,5-13.9,7.36-20.93a24.35,24.35,0,0,1,6.51-10.38c3.55-2.57,8-4.36,8.35-9.7q8.37-41,16.7-82.06a17.36,17.36,0,0,1,.91-3.86c2.54-1.77,6.09.79,8.43-1.94,7.38,4,15.74,3.22,23.62,4.78,6,1.18,12.11,1.55,18,3.42,6.85,6.74,14.17,13,21,19.81,4.91,9.45,8,19.64,10.39,29.86C650.22,478.25,648.44,484.37,646.17,489.94Z"/><path class="cls-10" d="M594.23,56.41c3.05-5.13,8.79-6.62,13.4-9.5,11.49-7.2,23.36-13.78,35-20.78a11,11,0,0,1,6-1.71c18.92,0,37.85.1,56.77,0,3.71,0,4.69.54,3.93,4.72-1.87,10.19-3,20.52-4.15,30.82-.24,2.13-2.15,3.38-2.08,5.47,1.47,2.31.29,4.54-.35,6.68-9.75,32.28-19.23,64.65-29.27,96.85A40.4,40.4,0,0,0,672,188.52c1,5.88,1.5,11.86,2.3,17.78a19.16,19.16,0,0,1-2.2,12c-5,9.2-8.85,19-13.7,28.24-3,5.69-2.92,11.9-3.65,17.95-1.08,8.9-2.57,17.75-3.36,26.69a6.49,6.49,0,0,1-.66,2.9c-3.6,5.75-7.07,11.61-12.36,16.07-13.12,3.72-26.57,6-39.83,9.19-5,1.19-10.06,2.25-15.09,3.37-2.28.51-4.57,1-6.83-.11-2.11-1.71-1.87-4.15-1.88-6.44-.06-10.15,0-20.3,0-30.44,0-2.51-.16-5.29,1.49-7.21,5.28-6.11,4.64-13.66,5.38-20.82,1-9.92,1.71-19.87,2.79-29.78.37-3.4.64-6.9-1.82-9.5-4.81-5.09-5.48-11.09-4.84-17.59,1.54-15.71,2.22-31.48,3.76-47.19a22.17,22.17,0,0,1,4.3-11.5c3.74-5,4.74-10.55,5.08-16.78,1.16-21.25.52-42.54,1.84-63.78A10.58,10.58,0,0,1,594.23,56.41Z"/><path class="cls-10" d="M311.54,408c-.32-5.51,3.74-9.28,5.6-13.93.54-1.36,1.61-2.51,2.28-3.84,10-19.54,19.84-39.12,29.85-58.62,8.49-16.54,17.14-33,25.71-49.5.61-1.18,1.11-2.44,2.49-3,1.78-.59,2.85.65,3.87,1.67,10.09,10,19.07,20.86,24.44,34.26a50,50,0,0,1,2.89,10.56c3,18.31,13.22,31.65,28.88,41a20.3,20.3,0,0,1,9,10.21c4.74,11.6,7.63,23.75,10.75,35.81a18.35,18.35,0,0,0,7.06,10.9c6.37,4.77,12.59,9.82,17.29,16.43,1.75,2.47,3.46,4.89,3.84,8,.16,2.45-1,4.51-2,6.59-5.58,11-10.2,22.37-15.48,33.47-4.22,8.86-12.23,13.53-21.45,16.19-8-.3-15.81-2.18-23.61-3.78-5.18-1.06-8.08-5.68-11.36-9.37q-9.12-10.25-18.38-20.37a7.37,7.37,0,0,0-5.21-2.48c-17.54-1.41-30.43-9.38-37.51-26.08a30.34,30.34,0,0,0-11.8-13.87c-8-5.1-15.57-10.83-23.5-16C313.61,411.23,311.36,410.6,311.54,408Z"/><path class="cls-11" d="M511.32,623.79c10.55,9.13,19.7,19.6,29,30-8.29,8.19-18,14.67-26.66,22.42a68,68,0,0,1-26.79,14.76c-5,1.47-8.11,4.64-10.78,8.92-3.32,5.31-5.72,11.3-10.66,15.51-10.49,3.68-21.23,6.59-32,9.29-4.66,1.16-7.89,3.13-8.84,8.07-1,5.38-4.36,9-8.77,12.1-15.55,11-30.91,22.36-46.34,33.57-2.05,1.49-3.92,3.74-7,3.25-5-8.09-7.55-17.2-11.06-25.9-12.11-30.07-24-60.2-36-90.32-.72-1.81-1.88-3.57-.84-5.64,1.35-1.5,3.26-1.58,5-1.9,8-1.46,16-2.85,24-4.41,4-.78,7.85-.94,11.69.84a13.6,13.6,0,0,0,8.33.68,51.87,51.87,0,0,1,9.37-1.28c6.08,0,10-2.66,12.49-8.06,1.49-3.25,4.18-4.75,7.76-5.48,11.86-2.43,23.66-3.36,35.46.15a18.51,18.51,0,0,0,16.57-2.73,108.34,108.34,0,0,1,10.94-6c16.53-5.34,33.81-6.43,50.85-8.87A5.87,5.87,0,0,1,511.32,623.79Z"/><path class="cls-10" d="M481.35,149.31c6.18-5.33,13.59-8.74,20.49-12.93,19.4-11.79,38.95-23.36,58.43-35a4,4,0,0,1,.94,1.39c.85,3.26-.12,6.71,1.09,9.93.5,4.12.71,8.26,1.25,12.38a36.58,36.58,0,0,1-3.38,20.36,52.26,52.26,0,0,0-4.55,24.21c.37,10.62.15,21.26.06,31.88a16.36,16.36,0,0,0,3,9.8c3.68,5.33,7.14,10.81,10.67,16.24a19.8,19.8,0,0,1,3.41,11.7c-.15,6.3-.33,12.62.84,18.87,1.73,9.22-2.81,16.36-7.83,23.32-1.45,1.88-1.16,4.09-1.16,6.23,0,11.12-.1,22.24,0,33.36a18.47,18.47,0,0,1-3.42,11.17q-14.3,20.68-28.18,41.65c-1.28,1.93-2.56,3.91-4.91,4.77-3.74.14-5.31-2.52-6.29-5.38-4-11.63-7.52-23.41-11.35-35.1-.85-2.59-.47-5.26.08-7.9q2.51-12,5.26-23.86a20.53,20.53,0,0,0,0-9.34c-4.66-20.76-10.53-41.23-15-62-1.21-5.64-4.46-10-7.78-14.3s-4.65-8.93-5.27-14.22c-1.91-16.16-4.4-32.25-6.41-48.4C481.07,155.19,479.88,152.25,481.35,149.31Z"/><path class="cls-11" d="M603.22,709.7c11.62,2.8,23.52,4.41,35,8,.79,2,.13,3.94-.3,5.87-2.75,12.33-5.71,24.62-8.18,37-1.27,6.34-4.88,11.17-8.4,16.19-1.41,2-3.36,3.75-3.59,6.43-5.18,17.39-4.42,34.78,0,52.18a12.27,12.27,0,0,1,0,6.42c-3,10.73-5.35,21.64-8.49,32.34a31.81,31.81,0,0,1-5,9.7c-5.26,7.28-10.05,14.89-15.35,22.15a21.86,21.86,0,0,0-4.16,12.08c-.33,6.48-1.08,12.92-1.86,19.35a17.46,17.46,0,0,0,.39,7.92c2.58,7.34,2.11,14.69.59,22.12-1.22,6-1,12.23-3.6,17.92-13-5.41-25.32-12.29-37.91-18.58-7.11-3.55-14.14-7.28-21.16-11-1.52-.8-3.67-1-3.85-3.39-1-4.89.94-9.43,1.78-14.09.71-3.93,1.92-7.78,2.45-11.71,1.09-8.11,3.78-15,11.31-19.36a8,8,0,0,0,3.61-5.23c2.76-11.55,8-22.17,12.36-33.13,1.57-4,2.07-7.63,0-11.46-.31-.58-.42-1.27-.74-1.85-3.61-6.54-3.09-12.83.41-19.37,3.21-6,5.7-12.37,8.36-18.65a17.59,17.59,0,0,1,6.15-7.69A20.35,20.35,0,0,0,570.3,800c3.46-9,7.31-17.83,10.9-26.78a8.3,8.3,0,0,0,.69-7.63c-1.17-2.84-.46-5.53.65-8.19q9-21.57,17.69-43.26C600.91,712.47,601.59,710.76,603.22,709.7Z"/><path class="cls-10" d="M580.24,985.39c0-9,2.38-17.65,3.52-26.48a16.43,16.43,0,0,0-.74-8.22c-3.3-8.37-.74-16.69-.33-25,0-.65.53-1.31.46-1.92-1.36-10.67,4.14-18.63,10.15-26.5,3.81-5,7.2-10.32,10.8-15.49,4.89-7,5.52-15.5,7.92-23.36,1.73-5.69,3-11.53,4.46-17.3,1.23-4.73-1.27-9-1.59-13.59-.35-4.9-1.8-9.71-2.6-14.59-1.18-7.21,1.29-14.05,2.33-21,.46-3.1,1.06-6.17,1.59-9.26,1.92-3,4.34-1.74,6.54-.6,8.69,4.52,17.72,8.32,26.46,12.74,5.19,2.63,10.61,4.72,15.79,7.35,2.21,1.12,4.57,2.15,5.18,5-.75,9-4.16,17.4-6.34,26.07s-4.59,17.35-7.11,26a24.13,24.13,0,0,0-.37,11.81c2.4,11.89,5.09,23.72,7.38,35.64a22.14,22.14,0,0,1,0,9.87c-2.68,10.42-2.28,22-8.31,31.12-9.93,15-10.82,32.16-13.78,48.92-1,5.76-1.24,11.2,2.52,16.16a6.12,6.12,0,0,1,1.24,4.25c-1,8.73-.35,17.61-2.33,26.25a2.63,2.63,0,0,1-.86,1.2c-1.59,1-.57,2.82-1.26,4-6.16-5.86-12.35-11.69-18.47-17.61-1.42-1.37-2.5-3.09-3.87-4.51q-18-18.59-36.11-37.13C581.43,988,580.21,987.09,580.24,985.39Z"/><path class="cls-11" d="M484.36,448c-1.67-6.42-6.34-10.77-10.79-15.15a74.66,74.66,0,0,0-10.35-8.45c-3.92-2.67-5.84-6.08-7-10.69-3.13-12.33-6.12-24.72-10.9-36.58a18.43,18.43,0,0,0-8.31-9.38c-16.15-9.59-26.78-23.25-29.63-42.33-1.88-12.57-8.87-22.64-16.52-32.32a80.19,80.19,0,0,0-13.39-13.92c1.06-9.35,2.06-18.71,3.24-28,.28-2.21,2-3.73,3.59-5.27,9.55-9.52,19.17-19,28.55-28.65,2.76-2.85,5.54-4.36,9.57-4s8,.07,12,.08c1.93,1.17,2.2,3.24,2.68,5.14,1.48,5.8,2.82,11.63,4.4,17.39,2.92,10.68,5.46,21.33,11.49,31.07,7.34,11.86,10.4,25.22,11,39.37.43,9.62.61,19.24.67,28.86A13.41,13.41,0,0,0,468,344.6c7.5,8.44,11.31,18.66,13.43,29.59,1.8,9.29,4.24,18.49,5.62,27.83,1.22,8.23,5.25,14.51,10.85,20.17,2.57,2.59,5.3,5,7.23,8.2,3.08,6.72,3.53,14.11,5.25,21.18,1.34,5.47,2.5,11,3.59,16.53.42,2.11.71,4.44,2.22,6,6.17,6.36,7.21,14.71,9.11,22.73.57,2.42,1.26,4.84,1.6,7.29a32.52,32.52,0,0,0,9.33,18.77c-1.83,6-3.62,12-5.5,18-.48,1.52-.6,3.35-2.49,4-5.8-3.37-10.2-7.88-12-14.56a27.67,27.67,0,0,1-.84-3.38c-2-15-8.75-27.7-18.53-38.93a40.28,40.28,0,0,1-9.52-21C486.48,460.66,484.87,454.41,484.36,448Z"/><path class="cls-11" d="M578.25,678.73c7.8,9.54,15.77,19,23,29,.53,2.25-.24,4.24-1.23,6.19-7.7,15.27-14.36,31.05-22.23,46.23-3.2,6.17-5.61,12-1.94,18.63a103.3,103.3,0,0,1-11,26c-2.66,4.42-7.64,7.3-11.7,10.7a18.48,18.48,0,0,0-5.62,7.44c-4.5,11.27-9.09,22.49-13.89,33.63-1.53,3.56-1.64,6.75.54,9.89,4.07,5.86,4.37,11.85,1.34,18.28a59.4,59.4,0,0,0-3.19,9.44,20,20,0,0,1-7.11,11c-4.83,3.77-6.72,9.77-9.76,14.89-1.16,1.95-1.59,4.46-4.1,5.39-8-8.81-14.29-18.9-21.52-28.29-7.65-9.92-15-20.11-22.43-30.18a8.68,8.68,0,0,1-2-4.47c-1.25-1.6-.34-3.17.08-4.74a19.29,19.29,0,0,1,1.1-3.31c5.26-11,6.32-22.63,5.49-34.56a16.46,16.46,0,0,1,4.52-13.24,69.37,69.37,0,0,0,5.62-7c2.33-3.21,5.14-5.59,9.24-6.22a10.93,10.93,0,0,0,7-4.48c8.09-10.36,16.51-20.46,24.66-30.78,1.9-3.8.85-7.86.92-11.78a16.52,16.52,0,0,1,2.83-9.35c3.35-5,7-9.74,10.26-14.76,2.42-3.71,4.4-7.93,9.74-8.44,1.51-.14,2.29-1.81,3.26-3,8.2-9.62,16.32-19.32,24.56-28.9C575.68,680.77,576.48,679.19,578.25,678.73Z"/><path class="cls-10" d="M326.53,545.87a248,248,0,0,1-20.12-18.54c-1.93-1.94-2.12-4.12-1.82-6.42,1.79-13.74,3.74-27.46,5.52-41.21,1.88-14.56,3.63-29.15,5.43-43.72.15-.06.35-.22.45-.18,8.65,4.11,17.43,8.28,21.89,17.4,3.79,7.76,6.93,15.83,12.42,22.63,4.72,5.85,10.31,9,18.25,6.94,10.31-2.7,18.46,2,25.66,8.71,4.87,4.51,9,9.72,13.3,14.8s8.59,9,15.28,10.33c5.52,1.09,10.94,2.79,16.35,4.41,2.45.73,4.77,1.64,5.34,4.58-1.32,13.5-3.94,26.8-5.87,40.21a4.57,4.57,0,0,1-2.37,3.59c-.46.18-1,.51-1.42.36-6.76-2.43-11.39,1.71-16.1,5.31A10.15,10.15,0,0,1,409.4,577c-9.19-2.31-18.32-4.86-27.51-7.17-4.33-1.08-7.21-4.09-9.93-7.2a24,24,0,0,0-14.41-8c-8.81-1.65-17.45-4.21-26.16-6.4A9.46,9.46,0,0,1,326.53,545.87Z"/><path class="cls-11" d="M638.19,309.14c3.77-5,8.09-9.7,11.11-15.12,1.72-3.09,1.39-7.35,1.82-11.1,1.07-9.18,2-18.39,3.12-27.56a24.73,24.73,0,0,1,2-7.14c3.74-8.15,7.1-16.57,11.75-24.19a32.63,32.63,0,0,0,4-26.18c-3.59-13.91-.8-26.86,3.38-40.14C685,127.06,693.9,96.19,703.11,65.4c1-.31,1.68-.66,2,1q5.73,25.82,11.67,51.59c1.25,5.45-.76,10.51-1.85,15.61-3.43,15.95-7.21,31.82-10.86,47.72,1.07,2.68.11,5.19-.61,7.73-3.9,13.76-7.91,27.48-11.8,41.24a22.4,22.4,0,0,0-1.16,7.85c1.41,18-3.15,34.52-11.47,50.25-2.1,4-3.57,8.24-5.56,12.26a27.29,27.29,0,0,0-3,14c.31,5.16-1.42,10.21-.94,15.4a30.48,30.48,0,0,1-.43,5c-.9,2.65-.62,5.39-.58,8.11a33.78,33.78,0,0,1-.41,6.53,34.68,34.68,0,0,0-1,5.45c-4.68,10.49-11.35,19.87-16.8,29.94-.95,1.75-1.85,3.54-2.91,5.22-3.54,5.6-5.23,11.36-2.52,17.86a9,9,0,0,1,.37,5.42c-2.15,9-4,18.15-6.37,27.15a4.06,4.06,0,0,1-1.77,2.33q-8.57-7.81-17.13-15.63A4.42,4.42,0,0,1,618.2,424c-1.3-1.73-.51-3.53-.08-5.25,1.63-6.6,3.37-13.18,4.67-19.86.78-4,2.27-7.59,5.41-10.38,2-1.74,2.65-4.15,3.1-6.64.55-3.1.8-6.28,1.61-9.31,1.67-6.23,2-12-3.31-16.88-1.65-1.52-1.87-3.87-1.36-6.08,2.9-12.78,5.7-25.58,8.73-38.33A5.24,5.24,0,0,1,638.19,309.14Z"/><path class="cls-10" d="M456.38,632.78c-4.46,2.56-8.94,5.08-13.36,7.7a14.79,14.79,0,0,1-12.4,1.56c-13-3.82-26-2.95-39.12-.3-2.52.51-3.66,2.1-4.57,4.1-2.67,5.83-6.37,9.07-13.57,9.24-7.65.18-15.09,3.11-22.82-.87-2.26-1.16-6.06.61-9.14,1.1-9,1.43-17.78,3.77-26.86,4.46-1.65-4.46.48-8.69,1.16-12.88,4-24.6,8.47-49.13,12.74-73.7.25-1.44-.1-3.15,2.08-3.34a4.83,4.83,0,0,1,4.65-1.08c6.75,1.3,14,1,19.53,6.25,1.21,1.14,3,1.3,4.63,1.67,19.39,4.44,38.88,8.39,58.28,12.8,2.81.64,5.09-.06,7.57-1.32,3.15-1.58,5.79-4.67,9.88-3.88,3.2,3.9,4.93,8.63,6.91,13.13,4.34,9.91,9.71,19.31,13.79,29.33C456.56,628.69,458.1,630.58,456.38,632.78Z"/><path class="cls-10" d="M678.14,761.64c.49-2.15-1.35-5.52,1.1-6.26,2.23-.68,2.41,3,3.72,4.6,3.83,4.64,5,11.2,10.7,14.6.67.4.45,2.49.46,3.79,0,13.65.07,27.29,0,40.94a17,17,0,0,0,1.92,8.1c6.7,13.2,13.21,26.5,20,39.67a8.93,8.93,0,0,1,.45,8c-5.2,13.45-10.05,27-15.42,40.43a29.53,29.53,0,0,0-1.7,18.34c3.59,15.62,6.72,31.34,10.16,47a7.59,7.59,0,0,1-.12,4.31q-10.67,32.38-21.23,64.8a6,6,0,0,1-2,3.37c-2-.63-2.52-2.48-3.3-4.12-7.18-15.18-13.83-30.61-21.19-45.7-2.83-5.8-3.51-11.12-1.53-17.62,6.61-21.63,12.6-43.44,19-65.14a22.56,22.56,0,0,0,.28-12.72c-4.11-15.25-8-30.56-12.13-45.82a21.84,21.84,0,0,1-.08-11.73c3.45-13,7-26,10.44-39,.87-3.27,1.54-6.55,1-9.85-1.09-6.29-.75-12.6-.87-18.91-.51-4.19,1.43-8.47-.49-12.61C676.68,767.16,676,764.25,678.14,761.64Z"/><path class="cls-10" d="M504.34,431c-3.69-4.91-8.51-8.77-12.37-13.57a22.86,22.86,0,0,1-5-10c-2.78-13.42-5.62-26.82-8.62-40.19A49.49,49.49,0,0,0,466,344.34a8.81,8.81,0,0,1-2.68-6.6c.2-12.77.4-25.57-1-38.27a86.69,86.69,0,0,0-14.89-39.6,14.48,14.48,0,0,1-2.27-4.82c-3.5-14-7.14-27.87-10.74-41.8,4-9.48,9.94-17.87,15.21-26.63,2.35-3.91,3.74-8.54,7.76-11.32,2,1.61,2.16,4.05,2.72,6.26,4,15.81,7.68,31.67,11.33,47.55,1.16,5,3.35,9.07,7.85,11.52,7.4,4,10.32,10.52,11.71,18.52,1.79,10.31,4,20.58,6.82,30.66,3.14,11.3,4,22.6,1.57,34-2,9.3-.78,18,2.39,26.82s5.8,18,8.45,27.14a12.91,12.91,0,0,0,4.35,7.08c1.63,1.25,2.94,2.75,2.59,5-3.39,12-6.39,24.11-9.7,36.13C506.92,427.89,507.23,430.51,504.34,431Z"/><path class="cls-11" d="M545.28,666.74c9.64,2.4,19.64,3.33,29,7-4.43,7.26-10.88,12.84-16.22,19.34-5.58,6.79-12.51,12.22-18.78,18.3-9.8,9.5-19,19.74-26.47,31.32,1.26,9.06-2.61,15.9-8.91,22a61.56,61.56,0,0,0-7.85,9c-2.76,4-6.29,5.76-11,5.21a11.66,11.66,0,0,0-11.33,4.76c-5.49,7.13-12.16,13.17-18.56,19.44-4.53,4.44-7.38,9.29-6.45,15.87,1,6.88-1.23,12.7-6,17.72-3.27,3.46-5,8.22-9.29,10.85-1.78,1.13-2.26-.52-3-1.46q-13.11-17.59-26.15-35.23a8.91,8.91,0,0,1-.85-2.26c-.56-2.72,1.45-4.27,2.88-6,4.58-5.49,9.21-10.94,13.69-16.51,3.39-4.21,7.65-7.38,12.06-10.36,7-4.76,14.07-9.49,21.19-14.1,4-2.6,7.52-5.57,8.9-10.33,3.66-12.6,13.69-18.56,24.51-23.74a18.87,18.87,0,0,0,10.55-11.32c.28-.78.79-1.47,1.09-2.24a57,57,0,0,1,23.08-28.4c7-4.56,12.79-11.07,19.3-16.48C542,668,543,666.16,545.28,666.74Z"/><path class="cls-11" d="M560.27,102.36c0-.33,0-.66,0-1,7.73-8.84,13.73-19,21.08-28.09,4.44-5.51,7.52-12.06,12.88-16.87.07,19.08-1.31,38.14-1.22,57.24,0,6.22-.79,12.54-.75,18.83,0,3.68-2.25,6.45-4.22,8.8-4.26,5.08-5.16,11-5.68,17.06-.95,11.2-1.47,22.43-2.1,33.66-.23,4.13-.77,8.24-1.22,12.32-.58,5.36,1.24,9.26,4.65,12.85a8.84,8.84,0,0,1,2.55,7.27c-1.24,12.81-2.8,25.6-3.59,38.43-.39,6.29-1.06,12.07-5.56,16.87-.68.72-.79,2.18-.8,3.3-.05,12.14,0,24.27,0,36.41a3,3,0,0,0,1,2.68c2.73,2.83,3.38,6.44,3.44,10.12.17,11.62.05,23.23.07,34.85a13.37,13.37,0,0,1-3.67,9.51c-3,3.21-3.52,6.85-2.89,11.05,1,6.88,1.54,13.84,2.38,20.76.27,2.27.54,4.67-1.3,6.59-1.35,3.9-3,4.15-7,1-2.13-2.45-2-5.57-2.37-8.48-1-7.57-1.82-15.17-2.78-22.75a15.37,15.37,0,0,1,2-10.53,18.53,18.53,0,0,0,2.63-10.46c-.08-8,0-16,0-23.93,0-4.47.45-9-3.13-12.63-.94-1-.83-2.47-.83-3.81q0-20.19,0-40.37a3.22,3.22,0,0,1,.48-1.89c6.56-8.3,10.34-17.29,7.07-28.08a6.94,6.94,0,0,1,0-3c1.92-12.29-2-22.85-9.85-32.07a29.77,29.77,0,0,1-7.28-23.36,116.17,116.17,0,0,0,0-19.46,67.87,67.87,0,0,1,6.27-34.85c2.63-5.47,2.09-11.12,1.48-16.62-.42-3.81-.51-7.59-.69-11.39C559.91,109.12,561.68,105.58,560.27,102.36Z"/><path class="cls-11" d="M516.32,390a3.39,3.39,0,0,0-2-3.63c-3.47-1.94-4.64-5.37-5.7-8.89-3.43-11.41-6.81-22.84-10.4-34.2-1.27-4-1.95-7.71-1.06-12.07,3.43-16.74,2.23-33.28-2.65-49.72-2.76-9.32-4.3-19-6.35-28.52-.72-3.33-1.87-6.21-5.26-7.85-9.83-4.74-12.77-13.6-14.76-23.56-3.11-15.54-7.13-30.89-10.76-46.32,4.17-12.19,12.08-20.92,24-26,1.33,9.13,2.75,18.25,4,27.4,1.51,11.28,2.89,22.57,4.28,33.86.61,4.91,3.83,8.4,6.69,12,3.54,4.4,5.31,9.36,6.59,14.73,4.73,19.94,9.38,39.91,14.56,59.73,1.52,5.82-1,10.69-1.62,16a28.2,28.2,0,0,1-1.67,7.73c-4.35,10.46-2,20.29,1.91,30.27,2.8,7.07,4.76,14.47,7,21.75.84,2.74,2.25,4.76,5.23,5.32,1.75,1.33,2,3.39,2.48,5.3q4.83,19.37,9.74,38.73a19.7,19.7,0,0,1,.22,9.36c-1.62,7.31-2.76,14.72-4.27,22a18.93,18.93,0,0,0,.95,10.72c4.1,11.25,8.34,22.46,12,33.85a13.15,13.15,0,0,1,.83,5.84c.38,1,1.48,2.4.16,3.06-3.07,1.55-4.48,5.3-8.16,5.94-1.83-1.19-2.35-3.16-2.9-5.07C535,492.85,531,477.76,526,463c-2.72-8.12-2.3-16.16-.75-24.09,1.86-9.57,0-18.35-3-27.3C520,404.49,517,397.58,516.32,390Z"/><path class="cls-11" d="M679.14,782.62c.24,6.12-.16,12.21.84,18.37,1.35,8.29-2.65,15.89-4.49,23.75-2.34,10-5.17,19.87-7.87,29.77a7.84,7.84,0,0,0,.12,4.35c4.48,16.63,8.65,33.35,13.39,49.89,2.08,7.27-1.17,13.35-3,19.74C672.24,949.7,666,970.85,659.75,992c-1,3.45.94,5.88,2.06,8.39,7.93,17.73,16.18,35.32,24.32,53-5,2.4-10-.15-15-.28-7.38-.19-14.77-1.46-22.2-1.74-4.39-.17-7.93-1.33-6.75-7,.68-8.22.62-16.5,1.9-24.68.3-1.94.65-4.22-.74-5.79-5-5.66-4.15-12.17-3.1-18.77,1.39-8.79,2.67-17.6,4.08-26.38a31.59,31.59,0,0,1,5.48-13.24c7.07-10,8.23-21.78,11.49-33,3.45-11.88-.68-22.81-2.68-34-1.21-6.82-3-13.54-4.28-20.34-.78-4,.67-7.84,1.74-11.67Q662.57,833,669,809.57a14.41,14.41,0,0,0,.19-3c-2.22-10.91-2.46-22-3.19-33.07s2.06-21.64,6.19-31.86c4.67.44,4.5,4.19,5,7.41.61,4.16-1.11,8.52,1,12.56q0,4.49,0,9C679.92,774.5,677.48,778.73,679.14,782.62Z"/><path class="cls-10" d="M487.35,728.67c-5.18,2.93-10.33,5.94-15.57,8.76a7.45,7.45,0,0,0-3.14,3.68c-2.4,4.92-5,9.75-7.11,14.79-1.23,2.92-3.85,4-6,5.59a216.35,216.35,0,0,1-18.18,12.09c-11.07,6.34-18.73,16.06-26.62,25.6-2.52,3-4.84,6.26-7.25,9.4-4.49-.72-7.31-4.28-10.89-6.51-9.35-5.82-18.56-11.88-27.78-17.91a13.12,13.12,0,0,1-2.27-2.54c18.36-13.23,36.66-26.56,55.14-39.63,4.29-3,4.93-7.61,6.45-11.86.88-2.46,1.69-4.62,4.51-5.39q18.4-5,36.78-10.05c4-.19,20.84,9.26,22.42,12.64C488,727.76,487.66,728.27,487.35,728.67Z"/><path class="cls-11" d="M443.4,524.89c-3.19-3.77-8.17-3-12.19-4.77a37,37,0,0,0-10-2.72c-6.79-.85-10.5-5.7-14.65-10.2C400.84,501,396.09,494,389.13,489c-6.69-4.87-13.82-7.18-21.82-4.73-7.5,2.3-12.66-1.48-17.06-6.31-5.74-6.3-9.26-14.13-12.5-21.93-1.69-4.08-3.47-7.52-7.47-10-5.06-3.09-9.46-7.22-14.75-10-.34-8.49-3.6-16.45-4.52-24.85-.13-1.18-.69-2.24.52-3.12,9.52,6.59,18.94,13.31,28.59,19.7a30.9,30.9,0,0,1,11.53,13.93c7.07,16.75,19.93,24.42,37.5,25.27a5.77,5.77,0,0,1,4.55,2.31c7,8.12,14.39,16,21.53,24,3.53,4,7.4,6.64,13.1,7,6,.34,11.88,2.73,18.05,2.69,2.87.38,4.46,2.12,5.86,4.6,8,14.15,15.61,28.54,23.62,42.7,1.66,2.93,3.69,4,7,4.52,6.42.94,12.95.26,19.31,1.66,3.8.84,6.76,2.61,8.12,6.46,1.39,4.22,3.66,8.3,2,13-3,.87-5.09-1.17-7.18-2.64A22.63,22.63,0,0,0,492,569.14c-5.16-.07-10.23-1.07-15.39-1.29-4.21-.19-7.45-2.3-9.84-5.95C460,551.46,453,541.1,446,530.75,444.81,528.92,444.35,526.81,443.4,524.89Z"/><path class="cls-11" d="M435.4,584.84c-4,.29-6.91,3-10.15,4.87a9.31,9.31,0,0,1-7.37,1.27c-20.13-4.54-40.33-8.8-60.49-13.19a6.58,6.58,0,0,1-3.21-1.21c-6.63-6.76-15.5-5.46-23.65-6.75-2.78-1.79-1.78-4.75-2.21-7.24a93,93,0,0,1-1.79-16.73q19.27,4.53,38.55,9.05a6,6,0,0,1,3.52,2.62c6.39,9.08,15.94,12.3,26.17,14.35a26.89,26.89,0,0,1,5.28,1.34c9.08,3.88,17.41,3.7,24.64-3.94,3.37-3.56,7.14-.44,10.72-.44,8.09.22,15.48,3.46,23.17,5.37.63.16,0-.25.43.22,8.42,9.38,20.7,7.84,31.29,11,5.72,1.7,11.75,2.27,17.55,3.78a6.43,6.43,0,0,1,2.48,1.63c1.4,4,1.69,8,0,12-1.76,1.52-3.76.93-5.7.62q-21.37-3.49-42.72-7.12c-1.64-.28-3.49-.36-4.64-1.59-4.5-4.83-10.57-5.94-16.54-7.35A10.07,10.07,0,0,1,435.4,584.84Z"/><path class="cls-10" d="M433.4,847.54c3-5.59,7.26-10.26,11-15.27,2.17-2.88,3.49-5.71,2.92-9.13-1.7-10.24,2.39-17.77,10.08-24.24a133.38,133.38,0,0,0,16.78-17.66c2.31-2.81,5-4.15,8.68-3.62,5.51.79,9.75-.56,13-5.77,2.59-4.15,6.51-7.47,9.87-11.13,3.79-4.12,6.81-8.49,5.6-14.57a23.35,23.35,0,0,1,0-4.48,11,11,0,0,1,4.2-1.48c7.37-.92,9.35.72,9.23,8.08-.05,3.46.59,7-.45,10.38-8.33,10.48-16.62,21-25,31.42-1.77,2.21-3.84,4.28-6.9,4.52-4.36.34-7.11,3-9.57,6.2a48.42,48.42,0,0,1-3.07,3.89c-4.64,4.88-7.59,10.26-6.43,17.37,2.35,14.45-3.79,27.29-8,40.49-4.3.41-7.4-2.48-11-4-5.6-2.39-11.19-4.8-16.71-7.39C436,850.34,433.67,850.1,433.4,847.54Z"/><path class="cls-12" d="M672.15,741.66c-.62,7.1-2.48,14-4.11,20.87-2.08,8.83.44,17.42.62,26.12.12,6,1.68,11.92.49,17.94-.7-1.75-2.4-2.22-3.86-2.92-14.65-7-29.33-14-44-21-1.81-.87-3.41-1.17-5.12,0,.62-3.06,2.72-5.26,4.7-7.39,7.18-7.73,7.9-17.84,10.19-27.33,2.43-10,4.14-20.27,7.07-30.21l30,15C670.76,735.11,674,737.26,672.15,741.66Z"/><path class="cls-13" d="M637.19,443c2.57-9.2,3.73-18.74,6.72-27.86a9.92,9.92,0,0,0-.19-6.85c-2.65-6.26-1.59-11.73,2-17.52,7.16-11.69,13.68-23.76,20.47-35.67,1.22-1.49-.18-3.5,1-5q0-3.5,0-7c1.37-2.53-.33-5.45,1-8q0-2.5,0-5c4.21.17,6.55,3.15,9,6-4.43,12.34-10,24.19-15.71,36-3.63,7.53-4.54,14.4-1.76,22.26s4.82,16.17,7.22,24.27a16.61,16.61,0,0,1-.11,9.2c-5.25,20-10.47,40-15.52,60-.89,3.55-2,4.73-5.08,2.1a32.36,32.36,0,0,1,.82-8.36,23.26,23.26,0,0,0-1.15-15.43C642.62,458.57,641.22,450.28,637.19,443Z"/><path class="cls-10" d="M511.32,925.46c2.88-5.42,5.74-10.86,8.67-16.25a8.74,8.74,0,0,1,2.34-3.16c10.55-7.1,10.13-19.53,14.3-29.66,1.3-3.15-1.9-6.2-3.51-8.94-2.43-4.13-2.39-7.66-.42-12,4.75-10.57,9.34-21.26,13.11-32.22,2.41-7,8.41-10.19,13.23-14.38A31.1,31.1,0,0,0,567.56,797c2.58-6.1,5.13-12.22,7.69-18.33,1.56-2.87,3.05-5.84,7-5.84,0,0,.14.24.13.37a1.93,1.93,0,0,1-.14.48c-3.79,9.54-7.54,19.1-11.38,28.62-.93,2.31-1.8,4.92-4,6.17-7.32,4.1-9.51,11.61-12.67,18.47-2.43,5.27-4.62,10.64-7,15.92A7.15,7.15,0,0,0,547,849c1.45,3.34,2.64,6.8,4.05,10.16a9.6,9.6,0,0,1,0,7.65c-4.81,12.15-10.58,23.94-13.67,36.73a8.84,8.84,0,0,1-4.67,5.58c-6.1,3.34-8.28,8.76-9.47,15.19-1.74,9.41-4,18.73-6,28.1A142.45,142.45,0,0,1,511.32,925.46Z"/><path class="cls-14" d="M677.14,336.1l-9-6c-1.12-17.59,4.34-33.54,12.42-48.75,6.27-11.82,9.52-24.3,8.49-37.65-.9-11.66,4-22,6.77-32.83,2.51-9.93,5.5-19.74,8.28-29.6,7.31,9.9,9.12,20.86,6.91,32.85a219.41,219.41,0,0,0-2.8,22.07,23.15,23.15,0,0,1-2.33,8.51c-9.44,19.42-18.71,38.92-28.31,58.27-1.38,2.78-.42,5.13-.43,7.67C677.11,319.14,677.14,327.62,677.14,336.1Z"/><path class="cls-12" d="M575.26,415c-.1-9.4-1.6-18.66-2.79-28-.51-4-.81-7.79,3-10.83,2.93-2.35,4.06-5.71,3.89-9.69-.28-6.95-.07-13.91-.08-20.87,0-7.9.6-15.86-2-23.54,7.33-.27,14.24-2.72,21.34-4.15,13.26-2.66,26.41-5.86,39.61-8.84-1.06,10.22-4.15,20-6.2,30-.73,3.55-1.62,7.07-2.57,10.57-1.19,4.41,2.33,6.66,4.46,9.36,1.69,2.15,2.39,3.8,1.69,6.66-1.48,6.07-2.35,12.29-3.31,18.48-.24,1.55-.44,3-1.74,3.95-5.42,3.84-6.1,9.81-7.38,15.62-1.49,6.77-3.28,13.47-4.94,20.2-12.84-2-25.66-4.09-38.54-5.79C577.21,417.88,576.37,416.55,575.26,415Z"/><path class="cls-12" d="M550.28,503.92c-5-14-10-28-15.15-41.94-2.25-6.12,1.1-11.65,1.61-17.47.48-5.37,2-10.66,3.25-16,.61-2.63-.59-4.89-1.14-7.24-3.43-14.44-7-28.84-10.55-43.25l33.53-49.2a10.34,10.34,0,0,0,1.46-6.17q-.07-18.18,0-36.36c0-1.74-.66-3.7,1-5.17,0,13.46,0,26.92,0,40.39,0,2.85.3,5.29,3.18,6.68,2.06,1,1.85,2.93,1.85,4.77,0,11.47,0,22.93,0,34.4,0,1.14.14,2.62-.48,3.38-8.1,9.87-2.34,20.63-2,31,.14,4.76,1,9.5,1.53,14.25-.24,8.81-2.85,17.21-4.5,25.77-3.65,18.93-7.65,37.78-11.48,56.67C551.9,500.4,551.69,502.37,550.28,503.92Z"/><path class="cls-12" d="M510.32,562.86c-4.67-5.38-10.85-6.13-17.48-6.07-4.43,0-8.87-.67-13.31-.92-2-.11-2.8-1.4-3.64-2.9-8.33-15-16.74-30.05-25-45.15a11.76,11.76,0,0,0-4.53-4.89,8.12,8.12,0,0,0,5.53-1.68c7.34-4.82,14.3-9.5,17.4-18.72,3.52-10.51,8.8-20.39,13.92-30.27a7.64,7.64,0,0,0,1.12-4.27c2.54,4.74,3.13,10.12,3.66,15.2,1.16,11.23,6.07,20.53,13.35,28.56,8.92,9.85,13.27,21.52,15,34.28,1.15,8.29,7,13.2,11.91,18.86-5.62,3.87-8.72,10.16-13.93,14.44C513,560.45,511.67,561.67,510.32,562.86Z"/><path class="cls-12" d="M435.4,584.84c7.83,2.11,16.63,1.68,22.5,8.86a4.6,4.6,0,0,0,2.66,1.08q23.87,4,47.76,8a14.06,14.06,0,0,0,2,0c.55,7-1.16,14.07,1,21-15.77,2.3-31.79,2.94-47.25,7.21-2.53.7-5.12,1.19-7.68,1.78-.79-5.34-3.77-9.82-5.92-14.59-4.41-9.81-9.26-19.41-13.95-29.08A7.91,7.91,0,0,1,435.4,584.84Z"/><path class="cls-12" d="M516.32,390c5.15,11.51,8.27,23.74,11.41,35.83,1.43,5.53-.25,12.18-1.62,18.06-1.72,7.37-.05,14,2,20.91,4.8,16,9.46,32,14.17,48.07-2.38,3.09-5.1,6-6,10-4.9-1.66-7.46-5.89-8.68-10.15-2.64-9.2-4.26-18.69-6.37-28a7.18,7.18,0,0,0-1.53-3.6c-6.91-6.37-7.42-15.23-9.37-23.52-2.08-8.84-3.31-17.87-6-26.58,3.34-9.44,5.3-19.27,8-28.88C513.52,398.05,514,393.72,516.32,390Z"/><path class="cls-12" d="M510.32,590.83Q489,586.44,467.6,582c-1.12-.23-2.7-.26-3.24-1-6.14-8.25-16.13-7.35-24.39-10.55-1.51-.59-3.41-.12-4.57-1.65a3,3,0,0,0,1.87-2.16q3.09-20.9,6.14-41.8c8,11.79,16.14,23.45,23.79,35.44,3.09,4.84,7.13,6.36,12.4,6.56,5.61.21,11.22.64,16.81,1.17,6.24.59,10.43,5.56,15.93,7.78C513.92,581.14,510.46,585.76,510.32,590.83Z"/><path class="cls-12" d="M487.35,728.67c-2.3-4.41-7.12-5.43-10.85-7.86-3.54-2.3-7.4-4.1-11.12-6.12,3.26-5.17,6.72-10.23,9.72-15.55,2.65-4.72,6-8.11,11.48-9.38,13.71-3.21,23.7-12.53,34.27-21,6.4-5.1,12.11-11.13,19.45-15a73.13,73.13,0,0,0,5,13c-12,10.05-23.2,21-36.19,29.87-1.14.78-1.84,2.31-2.51,3.62-2.57,5-5.27,10-7.5,15.12C496.58,721.14,493.44,726.16,487.35,728.67Z"/><path class="cls-12" d="M524.31,758.64c0-4.11-.12-8.23,0-12.34.13-3.38-1.2-4.86-4.63-4.67-2.79.16-5.59,0-8.39,0,7.63-9.13,15.16-18.37,23-27.35a68.67,68.67,0,0,1,9.23-8.29c9.68-7.7,16.68-17.87,25-26.82,1.81-1.94,3.43-4.06,5.73-5.48l4,5c-3.68,6.57-9.41,11.49-14,17.37s-9.51,11.45-14.33,17.12c-.73.86-1.78,2.23-2.56,2.15-5.2-.54-6.53,3.71-8.78,6.77s-4.44,6.61-6.89,9.73c-4.64,5.94-7.67,12.24-6.52,20.1C525.52,754.1,526.17,756.64,524.31,758.64Z"/><path class="cls-12" d="M582.24,773.63c-3.58-.09-4.13,4.08-7,5-3.77-5-3.33-9.72-.47-15.42,9.18-18.31,17.68-37,26.44-55.5l2,2q-9.34,23.18-18.71,46.34c-1.44,3.53-3.24,6.8-.82,10.76C585.13,769.16,583.71,771.55,582.24,773.63Z"/><path class="cls-8" d="M560.27,102.36c2,3.16.55,6.67,1,10C559.24,109.19,560.72,105.68,560.27,102.36Z"/><path class="cls-8" d="M668.15,335.1c-.43,2.65,1,5.53-1,8C667.58,340.44,666.16,337.56,668.15,335.1Z"/><path class="cls-8" d="M667.15,350.09c-.24,1.68.67,3.59-1,5C666.39,353.4,665.49,351.49,667.15,350.09Z"/><path class="cls-8" d="M679.14,782.62c-2.08-3.85-.49-8-1-12,1.37.16,2.26.87,1.71,2.28C678.62,776.09,679.36,779.38,679.14,782.62Z"/><path class="cls-15" d="M513.09,577l-2.81-13-6.69-6.25-27.06-2L447.83,504s-3.3,19.79-4.86,19.79,27.77,42.34,27.77,42.34l28.81,2.6Z"/><polygon class="cls-15" points="575.75 320.89 578.87 329.22 579.39 370.87 571.58 380.24 575.75 417.73 568.46 417.73 563.77 379.2 569.5 369.83 569.5 329.74 563.77 325.57 575.75 320.89"/><polygon class="cls-15" points="504.92 431.78 513.9 473.69 520.66 482.29 528.47 516.13 536.28 523.94 529.51 545.28 519.1 534.35 511.61 505.19 491.51 478.12 485.29 448.44 504.92 431.78"/><polygon class="cls-15" points="527.85 378.68 539.82 427.1 533.57 458.86 550.75 506.24 542.42 513.52 524.72 453.65 527.85 425.54 515.99 387.53 527.85 378.68"/><polygon class="cls-15" points="638.74 308.92 628.85 352.65 636.14 362.02 631.45 387.53 625.73 392.74 617.92 425.02 637.18 443.24 644.47 410.96 641.34 398.46 649.46 383.43 666.2 354.74 669.46 305.79 638.74 308.92"/><polygon class="cls-15" points="674.21 740.05 668.16 768.46 671.18 806.29 681.01 808.38 678.06 746.27 674.21 740.05"/><polygon class="cls-15" points="603.34 710.32 581.82 762.91 584.6 768.81 616.53 780.96 626.59 766.73 637.7 717.61 603.34 710.32"/><polygon class="cls-15" points="546.78 667.11 575.42 673.36 548.87 703.19 538.45 711.37 512.42 741.56 495.76 724.9 509.61 697.83 524.4 686.63 546.78 667.11"/><polygon class="cls-15" points="578.74 679.95 548.25 716.05 543.57 716.05 525.34 742.6 575.33 779.57 571.68 771.24 601.53 708.34 578.74 679.95"/><polygon class="cls-15" points="457.04 632.75 485.68 626.5 492.44 626.5 510.46 623.9 539.3 653.58 501.17 684.29 478.91 692.62 465.37 714.49 457.04 632.75"/><polygon class="cls-15" points="433.99 585.98 453.08 590.49 458.64 596.04 510.67 604.72 510.67 592.92 463.84 583.2 458.98 577.49 427.4 568.97 433.99 585.98"/><path class="cls-16" d="M759.24,594.27s23.32,19.73,0,52c0,0-24.08,24.21-23.32,35.47.73,10.69,16.05,17.9,16.74,0,0,0-.42-10.48,7.56-15.34s37.6-39.48,21.52-72.15c0,0-.46-2.06-16.6-22.57Z"/><path class="cls-17" d="M733.24,489.81c60.83,11.87,33,84.74,33,84.74L754,603.25c5.28,49-61.31,58.08-61.31,58.08l.86-28.75Z"/><path class="cls-16" d="M610.92,627s-4.07-6.22-12.4,4.71-6.64,29.94,0,34.62,20.63,14.32,55,15.42h6.61l18.09-17.25-16.92-13.8L651.37,660,630,646s4.82-29.55-22.91-17.57"/><path class="cls-18" d="M661,653.92l22.47,16.66s7.29,5.73,2.78-3.3l-3.82-8.14-.34-5.22L661,650.28l-.08,3.39"/><path class="cls-18" d="M653.48,631,661,653.92s32.63,2.43,50.33,26c0,0-5.44-32-25.45-40.31S653.48,631,653.48,631"/><path class="cls-19" d="M648.1,657.82s11.59,13.7,2.09,23.8l-2.09-.12s9.25,10.34,13.16.25c0,0,4.49-19.65-6.9-28.26,0,0-6.4-4.57-10.95,1.27Z"/><path class="cls-16" d="M662.17,421.25s-6.42-3.76,4.09-12.62,29.57-8.11,34.58-1.72S716.16,426.8,719,461l.33,6.6L703,486.56l-14.62-16.21L697.09,460l-15-20.63s-29.27,6.28-18.69-22"/><path class="cls-18" d="M664.12,477.6s4.56-18.48,34.88-31.11l-9.5,31.11Z"/><path class="cls-18" d="M663.63,482.06l13-23.22s33.28,4.55,56.65-17.17c0,0-13.09,33.57-35.13,38.15s-34.48,2.23-34.48,2.23"/><path class="cls-18" d="M614.79,576s1,75.82,89.9,61.94,58.22-109.44,48.5-127.49c-7.25-13.46-99.52-93.15-137.35,29Z"/><path class="cls-20" d="M666.85,625.81s-77.4-20.83-34-109c0,0,77.23-86.34,125.65,1.31,0,0,45.3,127.11-91.63,107.68"/><path class="cls-21" d="M637,537s14.93-60,65.6-44.61,44.77,41.14,44.77,41.14l-19.09,69.77s-68,43-91.29-20.13c0,0-2.78-8,1.73-21.87Z"/><path class="cls-22" d="M646.78,544.9a32.94,32.94,0,0,0-.93-4.67c-1.48-5.28-4-22.75,21.81-35.56,30.78-15.27,64.41-1.73,79.72,28.81,0,0,4,6,.21,29.85-4.4,27.82-6.46,29.5-6.46,29.5s-13.63,19.41-49.68,16.31c-18.88-1.62-30.35-10.63-37-18.85a35,35,0,0,1-7.72-23.43l.56-14.08a35.21,35.21,0,0,0-.27-5.95Z"/><path class="cls-23" d="M653.67,557.73s-6.77-63.29,61.44-29.8c0,0,4.94,44,2.3,48.09s-51.23,39-63.73-18.29"/><path class="cls-24" d="M671.71,532.09S651.58,564,687,580.34s51-49.29,43-61.09c0,0-14.93,11.11-27.42,8,0,0-24-7.64-30.89,4.86"/><polygon class="cls-19" points="606.46 557.26 614.79 576.02 625.21 557.26 615.83 539.44 606.46 557.26"/></svg>