<svg xmlns="http://www.w3.org/2000/svg" viewBox="0 0 1920 1080"><defs><style>.cls-1{fill:#4e565e;}.cls-2{fill:#484f57;}.cls-3{fill:#454b53;}.cls-4{fill:#4c535a;}.cls-5{fill:#585e64;}.cls-6{fill:#445053;}.cls-7{fill:#48535c;}.cls-8{fill:#596067;}</style></defs><title>เขาผ่าเต็มจอ</title><g id="Layer_2" data-name="Layer 2"><path class="cls-1" d="M65.64,979.88s214-168.73,255.06-165.57,79.82,14.35,101.38,19.53a340.48,340.48,0,0,1,42.71,13.83l29.15,27.43L550,886.77s27.31,12.5,34.49,16.87,33.06,9.93,40.24,12.9,23.11,8.49,33.11,14.35,5.69,1.55,17.19,8.74-11.5-5.75,24.43,14.37,24.43,15.81,35.93,20.12,21.56-2.87,30.18,5.75,11.5,10.06,17.25,12.94,10.39,12.78,10.39,12.78H21.08Z"/><path class="cls-2" d="M1494.11,790.4l32.22,12.69s7.85,4.31,27.25,8.62-7.55-5.39,26.95,6.47,22.64,8.09,39.88,14.29,14,1.88,30.18,11.58,10.78,1.87,24.79,12.79,6.47,8.33,22.64,18.25,16.17,4.79,25.87,11.67,4.31,8.68,22.64,13.17,31.26,9.88,38.81,12a74.79,74.79,0,0,1,14,5.76s3.23,16.63-6.47,13.52-3.23,5.27-24.79,0-19.4-3-37.73-6.3-36.65-9-50.66-7.23-20.48,9.43-29.11,7.23-10.78,0-18.33,0,9.4,3.94-20.48,0L1581.92,921l-100.56-4.46Z"/><path class="cls-2" d="M110.31,945.54l15-26S137.5,908,142.53,903s10.06-10.16,15.09-16.22,4.31-5.34,9.34-9.65.72-1.44,10.06-7.91,7.91-9.81,15.09-12.09,3.59.59,12.22-5.88,9.34-7.19,12.22-9.34,2.87-2.16,7.91-6.47,1.44-.72,8.62-7.91,5.75-4.31,10.78-10.06,10.78-12.94,10.78-12.94.72-2.87,6.47-7.19S259,799.5,266.86,793s3.59-3.85,12.22-8.75,7.91-4.9,12.22-7.06,5.75-4,10.06-6.65,7.19-1.25,9.34-4.12-1.11.72,5.55-4.31,10.26-7.19,12.41-8.62-5,2.16,2.16-1.44-2.16,0,7.19-3.59,14.37-5,14.37-5l5.75-4.76h6L430,770.57l-40.24,77.1Z"/><path class="cls-3" d="M1511,903.64l49.59-8.38s11.53-1.62,17.08,0,.7,6.22,23.88,4.19,32.86.24,39.07-.36,4.59-2.64,17.53,0,8.08,3.77,18.33,4.55,10.24,1.32,19.94,2.4,7-3.77,16.17,0,8.08,3.23,16.17,4.85,9.16,1.08,17.79,3.23,9.7-1.09,16.71,2.42,5.93,3,11.86,4.59,5.39,2.79,10.24,3.82.54-1.66,4.85,1,6.69,5.41,7.25,4.94-2.44-2.16,2.43,2.11,4.33,4.81,8.11,6.42-5.93-6.47,3.77,1.62,5.39,5.39,9.7,8.08,3.77,1.62,8.08,5.39,4.31,3.23,8.62,6.47,5.93,5.39,8.62,7.55-3.77-2.16,2.69,2.16,11.32,4.85,15.09,7,.54-2.69,3.77,2.16,4.31,5.93,5.93,10.78,3.77,12.94,3.77,12.94-.54,2.16,4.31,6.47,15.81,12.94,15.81,12.94l-416.81-6.94Z"/><path class="cls-4" d="M1034.44,507.3l-2.34-3.62-13.35-16.31s3-5.19,3-8.9-3-22.24-3-22.24l3-7.41s4.45-44.48.74-44.48,0-35.58,0-35.58l-3.71-9.64,1.48-11.86L1018,325l-3.09-19.27V285l-3.59-11.86-.74-32.61-1.48-23.72s-3-18.54-8.9-28.17,1.48-8.9,1.48-8.9l2.23-8.15s-2.23-61.53-11.13-71.91a138.39,138.39,0,0,1-14.47-20.4l-8.9,11.12s-2.6,44.86-7,44.86l-4.45,34.84s-.74,24.46,0,28.91-6.68,24.46-6.68,24.46l-5.93,25.21S929,306.49,930.47,313.9s-4.45,43-4.45,43l-13.35,60.79-3,16.31-5.94,13.34-7.42,4.45s-40.8,68.95-43.77,64.5l-8.53,2.59s-7,34.47-9.65,36S807,581.15,807,581.15L801,603l-4.08,4.82-3.71,50L814,705.33l58.6,48.93,51.19,16.31h54.52l31.27-4.14c8.28-68.06,12-134.67,19.3-204.08C1030.73,543.94,1032.63,525.6,1034.44,507.3Z"/><path class="cls-4" d="M1047.68,551.13l-.74-24.46-12.5-19.36c-1.8,18.3-3.71,36.64-5.55,55-7.26,69.41-11,136-19.3,204.08l35.86-4.75,16.32-25.21V652.69Z"/><path class="cls-5" d="M968.3,467.35s11.27,45.7,10.3,54.45c3-7.41,17.89-40.93,17.89-44.07,0-3.71-5.94-15.57-5.94-15.57s.74-16.31,5.94-8.16,11.13,30.4,11.13,30.4,9.64,15.58,14.09-5.93l-3-22.24s10.76-28.92,3.71-51.89l-1.47-4.79,0,.37s-4.68-15.64,0-.37l1.47-30.8-3.71-9.64,1.48-11.86-5.32-41.51V285l-3.59-11.86S1019,227.7,997.9,182.7c0,0,2.3-4.47,3.78-3s2.12-10.69,2.12-10.69-2.12-67.17-11-69.38l-14.47-20.4v46.33s-6.3,48.93-6.3,58.57v52.64s-3,46.7,0,50.41-4.45,72.65-4.45,72.65S955,386.55,955,388.77s-14.84,31.14-14.84,37.81S940.86,456.23,968.3,467.35Z"/><path class="cls-5" d="M978.32,522.95a3.17,3.17,0,0,0,.29-1.15C978.08,523.12,977.92,523.63,978.32,522.95Z"/><path class="cls-5" d="M1021,399.92l0-.37C1016.29,384.29,1021,399.92,1021,399.92Z"/><path class="cls-3" d="M934.92,450.3l-14.09,30.4s-12.61,64.5-15.58,64.5S900.8,586,900.8,586H886.7v55.6s2.23,31.88,0,32.62,24.11-37.07,24.11-37.07-8.53-23.72-6.31-26.69,11.87-21.5,11.87-21.5l14.09-2.22.74-28.91,6.68-3v-55.6Z"/><path class="cls-3" d="M1036.55,455.48l-3.71,8.16,4.65,11.39q1.38-15.42,2.55-30.82Z"/><path class="cls-3" d="M1039.52,373.2l3.34,23.61q.71-17,.9-34Z"/><path class="cls-3" d="M1494.11,790.4,1270.22,675.67l-6.68-27.43s-26.71-38.55-40.06-42.26-31.9-17.79-31.9-17.79-31.16-74.88-28.93-82.29-23-43-23-43l0-8.9s.74-29.65-3.71-30.4-5.19-41.43-5.19-41.43l-3.71-3.79s1.48,4.45-4.45,3.71-17.8-46-17.8-46V322.79l-5.94-59.31-5.19-43.74s-1.48-22.24-5.94-28.91-2.6-22.61-9.27-69.32-16.69,0-16.69,0l-2.23,16.68-3,25.21-3,10.38,1.48,37.07-.74,10.38-3,16.31.74,14.83-7.79,109-.58,1.43q-.17,17-.9,34l1.48,10.48v23L1040,444.2q-1.16,15.4-2.55,30.82l6.85,16.79-6.3,16.31-7.18,34.78q-1,9.72-2,19.45c-10.71,102.48-13.82,198.88-35.08,302.83l8.61-2.69,52.67-50.41,112.39,24.48,349.4,21.13Z"/><path class="cls-3" d="M1030.86,542.9l-2.46,11.93-13.48,41.52-8.78,43.74-11.87,51.15L952,746.09S925.28,758,923.05,758.7s-31.16,15.57-31.16,15.57l-26,31.88-21.51,39.29-31.9,39.29,112.06,2,69.23-21.6c21.26-103.94,24.36-200.34,35.08-302.83Q1029.86,552.61,1030.86,542.9Z"/><path class="cls-2" d="M917.12,766.49l-41.17-48.93-16.69-34.47-14.47-25.58-18.92-20s-22.25-21.5-25.59-25.58-18.92-4.45-18.92-4.45l-11.13,4.45-5.56-7.78-10,1.11-7.79,6.67-12.24,4.45-11.13,3.34-6.68,7.78v6.67l-8.9,4.45-5.56,10L686,656.05l-20.35-10.77-11.13-4.45-8.9,1.11L630,655.29l-17.8,12.23-6.68,8.9L590,693.1l-23.37,11.12L541,715.34s-31.16,6.67-36.72,8.9a183.82,183.82,0,0,1-28.93,8.9l-38.95,7.78-24.48,7.78-13.35,17.79v17.79H917.12Z"/><path class="cls-3" d="M1034.26,509.1l-.56-1s-12.39,56.51-16.46,58.33-13.36,23.78-13.36,23.78l-7.55,17.07L969.6,631.69l-5.81,11-7.55,23.17s-10.46,7.93-12.78,7.93-8.71,3.66-8.71,3.66l-24.4,15.24-11,5.49-18.59,15.24-13.36,10.36-7.55,6.1-7,9.14,10.46,21.34L861,767,847.59,775l-32,4.27-26.14,11-8.13,7.32-15.69,7.32H744.75l-22.08-9.76-17.43,1.22-15.69,1.83-13.36,6.71-19.75-3.66-19.17-1.83L682,880.43l41.83,19.51H768l79.79-6.5,62-15.44,67.4-16.26,18.34-4.88c19.76-100.78,23-194.76,33.4-294.5C1030.67,544.55,1032.51,526.8,1034.26,509.1Z"/><path class="cls-3" d="M1124.69,667,1034.26,509.1c-1.75,17.71-3.59,35.45-5.37,53.25-10.43,99.74-13.64,193.72-33.4,294.5L1136,819.46Z"/><path class="cls-2" d="M991.3,744.62l-3.71-6.67-25.22-2.22-9.64-8.16H931.21l10.39,17.05,7.42.74,10.39,5.93h11.87l11.13,2.22,8.9,8.16,18.55-5.19,1-.49q.86-7.46,1.66-14.9Z"/><path class="cls-2" d="M1008.36,695.69l6.55,3.71,1.46,2.44q.39-4.24.77-8.49Z"/><path class="cls-2" d="M1118.89,503.1c-.74-9.64-11.87-48.93-14.1-53.38a17.54,17.54,0,0,0-5.93-6.67l-3.71-40,3.71-13.34s-4.45-31.88-5.19-36.33-8.9-8.15-8.9-8.15V316.28s-5.19-25.21-8.9-29.65-10.38-6.67-10.38-6.67l-3.71-18-3.34-1.67-2.23-5.28-1.67-6.39-2.84-21.81-2.88,55-4.47,62.58-.58,1.43q-.17,17-.9,34l1.48,10.49v23l-4.16,12.08q-1.21,16.33-2.69,32.67l6.85,16.79-6.3,16.31,12.82,32.63,7.31,20,7.31,25.95,14.83,28.91,10.39,11.86L1087,646.18l3,11.12-.74,12.6s-5.93,1.48-8.9,1.48-4.45-3.71-4.45-3.71l-2.23-7.41-4.45-1.48-6.68-8.15-4.34,1.48-7.31,5.93-3.18,8.9,3.18,7.41v5.93l-6.15-4.45h-9.64l-6.84,1.48-8.74-1.48-2.34.62q-.38,4.24-.77,8.49l3.86,6.46,8,2.22V704l-8,12.6-2.23,6.67-5.52.92q-.8,7.44-1.66,14.9l9.41-4.7,12.61-10.24L1044,713.65s13.35,3.71,17.8,8.9,11.13-3.71,11.13-3.71l8.16-31.88,21.51-11.12s20-14.83,22.25-34.1S1119.64,512.74,1118.89,503.1Z"/><path class="cls-2" d="M1032.84,463.64l4.65,11.39q1.46-16.34,2.69-32.67Z"/><path class="cls-2" d="M1039.52,373.2l3.34,23.61q.71-17,.9-34Z"/><polygon class="cls-4" points="887.08 956.65 843.68 828.76 828.1 805.41 799.17 773.16 768.01 762.04 750.21 762.04 725.73 762.04 705.7 762.04 683.45 762.04 654.52 773.16 623.36 767.6 598.88 762.04 561.05 750.92 543.24 750.92 527.67 738.69 493.17 738.69 458.68 738.69 447.55 747.59 415.28 747.59 400.81 738.69 384.12 738.69 364.1 738.69 320.7 814.31 316.25 946.64 887.08 956.65"/><path class="cls-6" d="M1000,832.47l-27.21,19.64-18.92,13.11s-22.25,3.57-34.49.23-55.11,23.87-55.11,23.87l1,2.88,24.32.67s92.13-16.3,72.1,3.71,11.13,21.13,11.13,21.13l14.07-1.18c2.32-16.64,3.13-33.28,6.7-49.91Q997.07,849.42,1000,832.47Z"/><path class="cls-6" d="M1402.27,799.85l-17.8-30-31.16-2.22L1272.08,762l-24.48,3.34L1232,757.59l-30-7.78a541,541,0,0,1-55.64,5.56c-27.82,1.11-54.52,25.58-54.52,25.58h-30l-15.58,5.56-13.35,22.24L1000,832.47q-2.93,17-6.45,34.16c-3.57,16.64-4.38,33.28-6.7,49.91l409.88-34.4Z"/><path class="cls-7" d="M984.28,931.25l-1,.45-26.71,7.41L931.4,955.42H904.69l-175.07,49.26,276.58,4C993.93,984.37,977.18,959.79,984.28,931.25Z"/><path class="cls-7" d="M1526.34,956.91,1501.12,905l-43-25.21-47.48-4.45-59.35-23.72-31.16-17.79H1149.49l-102.37,44.48v13.34L1024,912.43l-39.72,18.82c-7.1,28.55,9.65,53.12,21.92,77.41l514.9,7.41Z"/><path class="cls-1" d="M1282.84,836.18l-23.74,25.21v17.79h-26.71v7.41l-29.67-7.41-16.32,16.31,10.39,99.21,1.48,28.3-.61-11.59,129.68,1.21,37.09-17.92,59.7-1.81,53-.21,67.37,2.11,43.08-23.25s-8.91-115-28.2-123.87-76.27-45.59-80.72-45.59-109.79-17.79-109.79-17.79Z"/><path class="cls-8" d="M948.28,944.42c-15.58-1.67-13.35,0-13.35,0s-5.56.19-7.23-.74-6.12,0-6.12,0l-8.35,5.75-3.34-2.22-6.12-6.67H863.71l-10.57-5-13.91-6.12s-18.92-2.78-22.81-2.78-15.58-5.56-15.58-5.56h-52.3l-17.8-11.68h-20l-22.25-8.9-25.59-23.35s-12.24-10-15.58-11.12-30-8.9-30-8.9H569.39a166.87,166.87,0,0,0-18.92,7.78c-8.9,4.45-20,7.78-28.93,14.46s-21.14,8.9-28.93,22.24-27.82,40-27.82,40l19,61.9,374.62,1.14,43-22.27h25.22L937,960.17l16.32-7.42S963.85,946.08,948.28,944.42Z"/><path class="cls-3" d="M1014.12,227.22s.37-4,2.38-4.66,4,.81,4.59,1,2,3.11,2,3.67-1.47,2.75,0,4.4,1.1,2.57,0,3.67-4,2.69-5.87,1.62-2.2-2.47-3.12-3S1014.12,227.22,1014.12,227.22Z"/><path class="cls-3" d="M1034.69,307.27s.32-5.6,2.07-6.51,3.5,1.13,4,1.39,1.75,4.35,1.75,5.12-1.27,3.84,0,6.15,1,3.59,0,5.12-3.5,3.76-5.09,2.26-1.91-3.45-2.7-4.14S1034.69,307.27,1034.69,307.27Z"/><path class="cls-3" d="M1013.4,211.93c-1-1-1.95-5-1.95-5a29.16,29.16,0,0,0-1.41-3.44,15.26,15.26,0,0,1-2.18-3.43,24.05,24.05,0,0,0-.37-2.57,8.09,8.09,0,0,1-.31-2.14l-.64-4.46-.8-5.59.88-3s1-.82,1.26-.18,2.92,1.94,2.92,1.94l2-.29,1.33,7.32.24,1.65,1.31,4.83a16.86,16.86,0,0,0,.06,2.61c.15.54.29.89-.22,2.56a13.91,13.91,0,0,0-.52,3.54c-.08.76.31.24-.18,1.34s-.51,1.59-.75,1.94A15.67,15.67,0,0,0,1013.4,211.93Z"/></g><g id="Layer_4" data-name="Layer 4"><path class="cls-7" d="M912,1016c-1,7-1,7-11,21s-12,20-14,26-22,10,0,17c1,.33,2.07.67,3.06,1H390.19c-24.56.25-58,.34-95.16.33l.45-.33L351,1043s-24-3,12-20c30.1-14.22,36.43-17.24,54.66-26L430,991c29-14,35-10,64-21s17-11,65-19,36-14,68-5,20-3,50,13,44,34,53,32-7,4.44,35,.22c41.65-4.18,22.33-8.15,55.15-8.22H821c34,0,57.77-2.59,66-2,14,1,26,6,25,10S913,1009,912,1016Z"/></g><g id="Layer_3" data-name="Layer 3"><path class="cls-2" d="M489,1039c-12,12-18,10-24,18s-10,26-16,23c-2.39-1.19-.66-1.91.21-2.16-1.32.25-6.05,1-19.21,2.16-5.16.47-19.42.79-39.81,1-24.56.25-58,.34-95.16.33-40.52,0-85.44-.15-128-.33-75.2-.31-143.19-.77-167-.94l-9-.06V989a73.8,73.8,0,0,0,9-3.63C17.92,977.3,54.15,959,59,959c6,0,29-13,40-13s23.66-9.09,38.83-21S131,894.28,167,903.64s19.86-7.36,62.93,0,74.62,23.16,86.85,27.26S323,945,349,957s30,26,50,32a93.81,93.81,0,0,1,18.66,8c7,3.73,12.75,6.94,23.34,7.72,18,1.32,48,18.32,48,18.32S501,1027,489,1039Z"/></g><g id="Layer_5" data-name="Layer 5"><path class="cls-2" d="M1920,998.68V1081H1095.22l-26.33-.79c7.47-1.65,17-8.44,35.11-15.21,24-9,15-9,21-15s24-9,45-27,44,3,85.35-14.34C1295.35,991.87,1296,991,1296,991s7.18-1.29,16.09-3.87c11.86-3.43,26.77-9.14,31.91-17.13,9-14,24-1,43-11s8-2,59-17,33-3,99,0,63-3,120-9,33-3,65-8,33-8,45-7,25,15,73,28,17,32,50,45C1906.17,994.22,1913.48,996.7,1920,998.68Z"/><path class="cls-4" d="M1392.12,1081H828c-44-12.73-89-43.63-89-43.63L820.15,983l31.37-21c-.21.6-7.48,21.22,47.39,0,55.68-21.54,85.29-26.92,146.89-26.92s33.16-5.38,65.15,0,33.16,61,85.28,50.26,22.51-55.64,71.08-23.34a373.61,373.61,0,0,0,44.78,25.15,494.22,494.22,0,0,0,63,25.11S1397.66,1056.49,1392.12,1081Z"/></g></svg>