<svg id="Layer_2" data-name="Layer 2" xmlns="http://www.w3.org/2000/svg" xmlns:xlink="http://www.w3.org/1999/xlink" viewBox="0 0 209 327"><defs><style>.cls-1{fill:#8ea83f;}.cls-2{fill:#61514c;}.cls-3{fill:#503027;}.cls-4{fill:#fbbd3e;}.cls-5{fill:#005e47;}.cls-6{fill:#6e923d;}.cls-7{fill:#b94e3c;}.cls-8{fill:#a04133;opacity:0.56;}.cls-9{fill:#6c8b3b;}.cls-10,.cls-23,.cls-24,.cls-31,.cls-32{fill:none;}.cls-11{fill:#e9d7c3;}.cls-12{fill:#cc904b;}.cls-13{fill:#020202;stroke:#070606;}.cls-13,.cls-23,.cls-24,.cls-31,.cls-32{stroke-miterlimit:10;stroke-width:0.53px;}.cls-14{fill:#231f20;}.cls-15{fill:#e9e7dc;}.cls-16{fill:#253c1a;}.cls-17{fill:url(#linear-gradient);}.cls-18{fill:#9cb270;}.cls-19{fill:url(#linear-gradient-2);}.cls-20{fill:#ed2424;}.cls-21{fill:#6a8339;}.cls-22{fill:#906251;}.cls-23{stroke:#f2f0e9;}.cls-24{stroke:#fcb913;}.cls-25{fill:#5a6b30;opacity:0.31;}.cls-26{fill:url(#linear-gradient-3);}.cls-27{fill:url(#linear-gradient-4);}.cls-28{fill:url(#linear-gradient-5);}.cls-29{fill:url(#linear-gradient-6);}.cls-30{fill:#fff;}.cls-31{stroke:#231f20;}.cls-32{stroke:#050505;}.cls-33{fill:#5b7634;}</style><linearGradient id="linear-gradient" x1="92.67" y1="161.34" x2="92.67" y2="198.22" gradientUnits="userSpaceOnUse"><stop offset="0.14" stop-color="#ffcd40"/><stop offset="0.64" stop-color="#f9ae42"/><stop offset="1" stop-color="#f79839"/></linearGradient><linearGradient id="linear-gradient-2" x1="130.67" y1="260.87" x2="46.13" y2="260.87" xlink:href="#linear-gradient"/><linearGradient id="linear-gradient-3" x1="5.8" y1="213.11" x2="24.51" y2="213.11" xlink:href="#linear-gradient"/><linearGradient id="linear-gradient-4" x1="161.13" y1="256.48" x2="180.8" y2="256.48" xlink:href="#linear-gradient"/><linearGradient id="linear-gradient-5" x1="13.15" y1="240.34" x2="29.25" y2="240.34" xlink:href="#linear-gradient"/><linearGradient id="linear-gradient-6" x1="183.56" y1="233.1" x2="202.64" y2="233.1" xlink:href="#linear-gradient"/></defs><title>yak-Home</title><g id="ทศ"><path class="cls-1" d="M68,295l-6.56,18s-5.74,3.28-10.93,0V292.83Z"/><path class="cls-2" d="M50.49,313.2s-15.85.82-20-2.87,1,8.37,1,8.37H54.31Z"/><path class="cls-3" d="M49.67,317s-16.13,5.33-23.51-16.4c0,0-1.37,19.68,5.19,26.38h29s4-9.16,1.09-13.19Z"/><path class="cls-4" d="M61.42,313.33v2.6s-3,5.74-11.75.68l.55-4.24,11.21.67"/><path class="cls-1" d="M104.24,295l6.56,18s5.74,3.28,10.93,0V292.83Z"/><path class="cls-2" d="M121.73,313.2s15.85.82,20-2.87-1,8.37-1,8.37H117.91Z"/><path class="cls-3" d="M122.55,317s16.13,5.33,23.51-16.4c0,0,1.37,19.68-5.19,26.38h-29s-4-9.16-1.09-13.19Z"/><path class="cls-4" d="M110.8,313.33v2.6s3,5.74,11.75.68l-.55-4.24-11.21.67"/><path class="cls-4" d="M61.89,206s-25.63,2.91-32.76-16.91c0,0-23.51,52.31,25.1,44.12Z"/><path class="cls-4" d="M130.31,206.51s24.83,6.34,43.06-20.87c0,0,3.7,46.5-21.53,53.63l-30.51-9Z"/><path class="cls-5" d="M132.63,206.9a42.45,42.45,0,0,0,32.73-11.75s6.65,35.5-37.71,28.52Z"/><path class="cls-5" d="M49.6,205.27s-12.71-3-16.32-8.91c0,0-12.26,18.53,1.39,26.89h16.2Z"/><path class="cls-5" d="M33.28,196.36a31.63,31.63,0,0,0,5.44,4.72l-1.28.81-4.15-2.46Z"/><path class="cls-6" d="M24.77,203.34s-39.1,12.15-19.15,25.76c0,0,15.19,14,30.51,11.76l1.19-14-12.81-6.08S22,214.17,24.77,203.34Z"/><path class="cls-7" d="M42.67,271.21s-18.73,18.53,3.46,28.92c0,0,13,9.69,31.52-.88l12.82,1.06s16.59,11.62,38.78-.35c0,0,12.33-5.28,3.52-16.91L117.45,257.5l-60.59-3Z"/><path class="cls-8" d="M134.47,285.65s-82,17.36-98.1,5.88c0,0,7.83,15.9,34.24,12.6,0,0,21.18-3.06,30.74.45,0,0,15.13,4.61,31.82-7.37C133.17,297.21,138.62,292.66,134.47,285.65Z"/><path class="cls-4" d="M127.45,264.19s2.73,20.17,16.6,17.84c0,0-23.29,39.06-42.31-15.89l25.71-8.63Z"/><path class="cls-4" d="M44.9,258.91s-2.73,20.17-16.6,17.84c0,0,23.29,39.06,42.31-15.89l-25.71-8.63Z"/><path class="cls-5" d="M44.72,256.57s.13,11.55-7.4,17.93c0,0,12.95,22.58,26.29-11.54l-18.71-9.69Z"/><path class="cls-5" d="M124.11,256.71s5,18.13,10.36,22.61c0,0-14.46,24.16-27.14-14.68Z"/><path class="cls-4" d="M111.29,298.54S98.24,304.7,103.18,263l-35.92-4.57s2.82,40.86-9.86,40.16c0,0,4.58,17.26,25,5.11,0,0,17.08,12.86,28.88-5.11"/><path class="cls-5" d="M75,268.07s.18,26.95-3.52,31.35c0,0,8.28-.35,12-6.52,0,0,5.28,7.4,13.39,6.52,0,0-4.4-12.68-2.11-31.35Z"/><path class="cls-9" d="M171.55,212.46s19.93,38.31,8.43,37.78c0,0-33.82-2.25-36.33-6.08L146,226.72l16.11,6.15S168.66,226.46,171.55,212.46Z"/><path class="cls-6" d="M42.08,183.72s9.25,22.46,5,59.71c0,0,35.14,13.21,81.63,3.7,0,0,5.55-40.12,9.26-56.74l.25-1.12C141.94,173.42,42.08,183.72,42.08,183.72Z"/><ellipse class="cls-10" cx="91.41" cy="148.38" rx="42.93" ry="59.04" transform="translate(-61.31 232.34) rotate(-87.16)"/><path class="cls-11" d="M137.25,47c-1.58,12.87-17.56,21.9-35.68,20.16S70,53.57,71.61,40.7s17.56-21.9,35.68-20.16S138.83,34.11,137.25,47Z"/><ellipse class="cls-11" cx="91.69" cy="146.19" rx="43.54" ry="61.28" transform="translate(-63.54 221.59) rotate(-83.81)"/><path class="cls-11" d="M148,91.78c-2.36,19.61-25.6,33-51.48,30.49s-44.59-20-42.23-39.65S79.15,48.74,105,51.27,150.31,72.17,148,91.78Z"/><path class="cls-12" d="M54.76,81.58s6.38-.55,10.09-5.76c0,0-1-6.17,10.14-5l5.6-4.21,2.75-.22,7.27,9.89s2.49,3.92,5.24-.34c0,0,3.77-9.7,6.81-1,0,0,.58,5.52,3.41.65,0,0,3.57-6.07,3.74.37,0,0-2.61,10.88,5.95-.28l5.89-4.32,3.3.72,1.84,3.39s-1.33,5.12.16,6.55c0,0,3,2.86,5.06-.79,0,0,3.67-6.92,6.17,1.89,0,0,2,15.4,9.48,3.82,0,0,1.6-12.66-13.4-24.73,0,0-30.84-25.32-65.4-3C68.85,59.19,54.34,72.23,54.76,81.58Z"/><path class="cls-12" d="M36.43,137.78a11.92,11.92,0,0,0,8-4.56s-.76-4.88,8-3.94L56.85,126l2.17-.18,5.75,7.82s2,3.1,4.14-.27c0,0,3-7.67,5.39-.83,0,0,.46,4.36,2.7.52,0,0,2.82-4.81,3,.29,0,0-2.07,8.61,4.71-.22l4.66-3.42,2.61.57,1.45,2.68s-1,4,.13,5.18c0,0,2.35,2.26,4-.62,0,0,2.91-5.48,4.88,1.49,0,0,1.62,12.18,7.5,3,0,0,1.26-10-10.6-19.56,0,0-24.39-20-51.73-2.37C47.58,120.06,36.1,130.38,36.43,137.78Z"/><path class="cls-12" d="M55.56,76.56S59.11,59.07,83.8,52.73l-16.23,12Z"/><path class="cls-7" d="M83.58,81s-9.3-6.36-9.6-10c0,0-2,5.63-.93,7.69l-1.63.87s-1.62.62.3,1.45,2.57,1.2,2.57,1.2S72.58,73.19,83.58,81Z"/><path class="cls-12" d="M72.32,30.75s.24,4,4.77,3.09c0,0,2.78-3.2,5.67-1.56,0,0,1.52,4.11,7.66,1.66,0,0,2.87-2.06,6.83.65,0,0,3.33,6.82,9.42.9,0,0,6-4.85,8.51,1.53s3.56,6.27,9.46,1.26c0,0,3.75-4.84,7.62.34,0,0,.84,5.46,4.1,3.8,0,0,3.41-16-18.93-24h0S109.07,5.57,108.8.39c0,0-.75,8.62-14.91,16.12h0S78.48,18.19,72.32,30.75Z"/><path class="cls-12" d="M89.26,18S104.58,13.47,108.86.39c0,0,4.63,14.79,16.55,22.07S89.26,18,89.26,18Z"/><path class="cls-7" d="M65.09,86.6S76,93.88,89.7,84.78c0,0,8.93,9.51,22.49,3.23,0,0-8.77,10.14-11.74,12.21s-1.82,1.39-4.48-.14c0,0-4.13-5.2-8.22,1.11,0,0-2.51-5.64-7.15-1.59,0,0-2.2,3-5.43-.46C75.15,99.13,65.76,89.94,65.09,86.6Z"/><path class="cls-13" d="M78.49,80c1,.61,1.44,1.47,1.1,1.91s-1.41.3-2.36-.31-1.44-1.46-1.09-1.91S77.54,79.39,78.49,80Z"/><path class="cls-7" d="M100.37,82.19s10.79-3.8,12.17-7.21c0,0,.21,5.86-1.42,7.57l1.3,1.22s1.36,1-.72,1.32-2.82.52-2.82.52S113.21,77.46,100.37,82.19Z"/><path class="cls-13" d="M105.52,82.51c-1.09.35-1.82,1-1.62,1.55s1.25.63,2.34.28,1.82-1,1.62-1.55S106.61,82.16,105.52,82.51Z"/><path class="cls-14" d="M81.41,92.6s-5.58-.05-5.05,3.34c0,0,1.42,3.1,3.82-.16l2.7-1.65Z"/><path class="cls-14" d="M96,93.15s5.57.3,4.78,3.65c0,0-1.65,3-3.8-.41l-2.56-1.82Z"/><path class="cls-12" d="M144.64,127.22l-.1-.13c-15.16-18.17-40.1-22.92-40.1-22.92C68,95.59,44.13,116.24,44.13,116.24c-3.16,2.39-7.08,7.51-7.5,8.06l-.07.1c-11.7,17.92-3,32.27-3,32.27,1.55,2,3.82.45,3.82.45,3.93-1.06,4.28-24.55,4.31-27.88a1.55,1.55,0,0,1,.2-.74c4.64-8.29,5,1.56,5,3a1.54,1.54,0,0,1,0,.35c-4.44,21.26,6.21,13.82,8.8,11.76a1.54,1.54,0,0,0,.46-.64,24.51,24.51,0,0,1-.43-11.65,2.18,2.18,0,0,1,2-1.89,2.09,2.09,0,0,1-.19-.53,4.4,4.4,0,0,1,.37-3.26,4.17,4.17,0,0,1,.89-1,3,3,0,0,1,2.7-1.32,5.24,5.24,0,0,1,3.63,1.46c9.21-9.45,5.16,19.18,5,21.31a1.55,1.55,0,0,0,0,.46c1.14,5.34,5.74,5.48,8,5.2a1.57,1.57,0,0,0,1.35-1.37c.47-3.39,2.25-7,4.32-10.26a7.88,7.88,0,0,1,1.8-2.64c.9-1.25,1.81-2.4,2.64-3.4h0a8.91,8.91,0,0,1,3.19-3.25,10.55,10.55,0,0,1,3.15-1.76l1.1-.52c2.21-1,5.2-2.13,7.43-.57,2,1.37,1.53,3.46.42,5.17a2.87,2.87,0,0,1-.25,1.09c-1.33,2.92-.44,6.47,0,9.71,2.51,3.74,7.08,0,8.42-1.17a1.57,1.57,0,0,0,.48-.85c2.73-13.72,7.69-17,9.25-17.77a1.48,1.48,0,0,1,1-.09c4,1.12,4.14,11,4.14,13a1.52,1.52,0,0,0,.16.71c2,3.9,5.38,2.5,7.08,1.42a1.55,1.55,0,0,0,.68-1.65c-.5-2.27,1.8-5.84,1.8-5.84,2.68-2.49,5.25,10.78,5.76,13.59a1.54,1.54,0,0,0,.48.88c6.92,6.17,9.34-.65,9.72-1.94a1.53,1.53,0,0,0,.07-.38C152.54,138.86,145.29,128.17,144.64,127.22Z"/><path class="cls-12" d="M56.19,143.34c.23-2.6.71-5.51,1.25-8.3,0-.59.07-1.18.12-1.76,0-.25,0-.49-.05-.73a2.43,2.43,0,0,1,.11-1.17,32.37,32.37,0,0,1,.1-3.56,7.11,7.11,0,0,1,.21-2.81,2.84,2.84,0,0,1,1.29-1.59l-3.37-.53-3,20.48,2.73,1.79A11.52,11.52,0,0,0,56.19,143.34Z"/><path class="cls-15" d="M77.38,85.91s-2.65,6.86,6.07,9.48c0,0,8.32,2,13.62-.61,0,0,5.76-1.16,5.88-8.06,0,0-3.85,4.34-7.95,5.39,0,0-8.27.52-11.54-.76A12.52,12.52,0,0,1,77.38,85.91Z"/><path class="cls-7" d="M93.42,28.75s-7.45-5-7.69-7.86c0,0-1.59,4.42-.75,6l-1.31.68s-1.3.48.24,1.14S86,29.7,86,29.7,84.6,22.65,93.42,28.75Z"/><path class="cls-7" d="M78.74,34.87s8.77,5.72,19.72-1.43c0,0,7.16,7.46,18,2.54,0,0-7,8-9.41,9.59s-1.46,1.09-3.59-.11c0,0-3.31-4.08-6.59.87,0,0-2-4.43-5.73-1.25,0,0-1.76,2.33-4.36-.36C86.8,44.71,79.28,37.49,78.74,34.87Z"/><path class="cls-13" d="M89.35,28c.76.48,1.16,1.15.88,1.5s-1.13.24-1.89-.24-1.16-1.15-.88-1.5S88.58,27.52,89.35,28Z"/><path class="cls-7" d="M106.88,29.72s8.65-3,9.75-5.67c0,0,.17,4.6-1.14,5.95l1,1s1.09.77-.58,1-2.26.41-2.26.41S117.17,26,106.88,29.72Z"/><path class="cls-13" d="M111,30c-.88.28-1.46.82-1.3,1.22s1,.5,1.88.22,1.46-.82,1.3-1.22S111.88,29.7,111,30Z"/><path class="cls-14" d="M91.82,39.58s-4.47,0-4,2.62c0,0,1.13,2.44,3.06-.13L93,40.77Z"/><path class="cls-14" d="M103.52,40s4.46.23,3.83,2.87c0,0-1.32,2.36-3-.32l-2.06-1.43Z"/><path class="cls-15" d="M88.59,34.32s-2.12,5.39,4.87,7.44c0,0,6.66,1.54,10.92-.48A6.23,6.23,0,0,0,109.1,35s-3.09,3.41-6.37,4.23c0,0-6.63.41-9.25-.59A10,10,0,0,1,88.59,34.32Z"/><path class="cls-7" d="M70,128.12s-12.17-9.23-12.56-14.53c0,0-2.6,8.17-1.22,11.18L54.1,126s-2.12.89.39,2.11,3.37,1.74,3.37,1.74S55.61,116.84,70,128.12Z"/><path class="cls-7" d="M46,139.43s14.32,10.57,32.2-2.65c0,0,11.69,13.81,29.42,4.69,0,0-11.48,14.72-15.36,17.74s-2.38,2-5.87-.21c0,0-5.4-7.55-10.76,1.61,0,0-3.28-8.19-9.36-2.31,0,0-2.88,4.31-7.11-.67C59.2,157.63,46.92,144.29,46,139.43Z"/><ellipse class="cls-13" cx="62.53" cy="127.9" rx="1.43" ry="2.77" transform="translate(-77.93 104.66) rotate(-54.55)"/><path class="cls-7" d="M92,129.91s14.12-5.52,15.92-10.48c0,0,.27,8.5-1.86,11l1.7,1.78s1.79,1.43-.94,1.91-3.69.75-3.69.75S108.78,123,92,129.91Z"/><ellipse class="cls-13" cx="99.19" cy="131.72" rx="2.75" ry="1.42" transform="translate(-38.48 40.96) rotate(-19.62)"/><path class="cls-14" d="M67.4,148.15s-7.3-.08-6.61,4.85c0,0,1.85,4.51,5-.24l3.53-2.4Z"/><path class="cls-14" d="M86.5,148.94s7.28.43,6.25,5.3c0,0-2.16,4.37-5-.59L84.42,151Z"/><path class="cls-15" d="M62.13,138.43s-3.47,10,7.95,13.77c0,0,10.88,2.84,17.83-.89,0,0,7.53-1.68,7.69-11.71,0,0-5,6.31-10.4,7.82,0,0-10.82.76-15.1-1.1A17.19,17.19,0,0,1,62.13,138.43Z"/><path class="cls-12" d="M65.46,124.67s5.72,3.85,5.78,4.83v-6.66l-4.47-2Z"/><path class="cls-16" d="M49.45,191.4s26.34,6.13,25.46,22.77c0,0,13.52-6.71,5.4-22.77Z"/><path class="cls-16" d="M122.08,192s-26.34,6.13-25.46,22.77c0,0-13.52-6.71-5.4-22.77Z"/><path class="cls-16" d="M73.45,197.15s8.58,8.55,1.46,16.59"/><path class="cls-16" d="M96.43,198.19s-7.82,7.32.18,16.54"/><path class="cls-17" d="M39.17,189.34l-5.28-28L46,171.64l11.62-10.3,14.53,14,13.74-14,14.6,18.23,17.1-18.23,10.57,14,23.25-14-9.77,30.38S91,207.83,39.17,189.34Z"/><path class="cls-18" d="M55.9,231.35s19.46.53,30-13.74c0,0,11.77,14.27,34.88,13.74l-10.57,12.51s-34.17-11.46-11.8,9.41H74.06s15-17.55-8.47-10.76Z"/><polyline class="cls-19" points="47.54 243.9 46.13 255.25 84.17 277.84 130.67 257.37 128.73 245.22 94.81 249.23 76.93 249.24 47.54 243.9"/><ellipse class="cls-20" cx="85.22" cy="259.89" rx="2.82" ry="5.37"/><ellipse class="cls-21" cx="37.89" cy="255.38" rx="13.9" ry="9.25" transform="translate(-218.97 229.34) rotate(-75.77)"/><path class="cls-9" d="M148.8,250.24s9.51,9.37,12.33,11.31l-17.48-2.82-1.72,17.44s50.43,11.55,43.15-7.12c0,0-9-21.92-11.8-25.19l-29.63,1.49Z"/><path class="cls-21" d="M150,268.17s.88-12.55-9.42-15.45l-6.08-3.7s-2.51-5.42-4.89,0c0,0-1.45,4.36,1.06,5.55,0,0-8.32,2.51-4.23,13.61,0,0,4.23,14.13,17.17,10.57C143.66,278.74,149.29,278.21,150,268.17Z"/><path class="cls-22" d="M81.92,230.17s-12.56,1.77-12.34,5c0,0,2.32,2.66,8.67-1.42l6.56-2.55Z"/><path class="cls-22" d="M91.5,230.7s12.56,1.77,12.34,5c0,0-2.32,2.66-8.67-1.42l-6.56-2.55Z"/><path class="cls-15" d="M77.21,218S76,226.32,80.8,229.81H91.91s4.22-2.5,3.42-11.32c0,0,6,9-2.32,16.33H80.27S71.17,230.9,77.21,218Z"/><path class="cls-23" d="M80.75,229.81a6.75,6.75,0,0,0-.63,4.74"/><path class="cls-23" d="M92.17,229.81a6.75,6.75,0,0,1,.63,4.74"/><ellipse class="cls-21" cx="40.01" cy="230.2" rx="13.9" ry="9.25" transform="translate(-192.96 212.4) rotate(-75.77)"/><path class="cls-21" d="M150.57,238.08s.88-12.55-9.42-15.45l-6.08-3.7s-2.51-5.42-4.89,0c0,0-1.45,4.36,1.06,5.55,0,0-8.32,2.51-4.23,13.61,0,0,4.23,14.13,17.17,10.57C144.18,248.65,149.82,248.12,150.57,238.08Z"/><line class="cls-24" x1="46.04" y1="171.64" x2="48.25" y2="192.24"/><line class="cls-24" x1="72.19" y1="175.34" x2="72.48" y2="197.04"/><line class="cls-24" x1="100.54" y1="179.56" x2="100.18" y2="198.08"/><line class="cls-24" x1="128.2" y1="175.34" x2="125.29" y2="195.44"/><path class="cls-25" d="M167.27,225.36a1.94,1.94,0,0,1-.18.33l0,.06-.27.63c-.13.28-.29.56-.44.83-.33.59-.69,1.17-1.07,1.73a40.56,40.56,0,0,1-3,4l-.15.16,10.15,3.44A22.36,22.36,0,0,0,167.27,225.36Z"/><path class="cls-26" d="M5.8,212.46l18.71,8.32s-7.65-14.5-5.52-15.33C19,205.45,10.51,208.32,5.8,212.46Z"/><path class="cls-27" d="M170.07,263s6.66-4.24,10.73-4.06l-4-8.91s-13.74,4.38-15.63,11.56Z"/><path class="cls-6" d="M31.39,265.85A87.38,87.38,0,0,1,8.53,248.47s.56-9.3,6.21-14.41c0,0,11.63,6.22,15.1,5.62l-3,6,4.91,1.92S25.28,262.51,31.39,265.85Z"/><path class="cls-28" d="M18.93,242.88s-6.45-4.49-5.72-7.44l.44-.5a55.65,55.65,0,0,0,15.6,5.8l-2.51,5Z"/><path class="cls-29" d="M199.19,227.75c-8.27,3.89-10.2,9-10.2,9l4.73,1.69a14.71,14.71,0,0,1,8.91-1.69C202.13,233.26,199.19,227.75,199.19,227.75Z"/><path class="cls-7" d="M121,206.46s1.5,6.13.75,7.26c0,0-3,3.49-4.6,3.86,0,0,6.32.35,7.51-.53a8.31,8.31,0,0,1-5.89,6.72l-3.6.1s3.35-11.36,1.14-13.47C116.32,210.41,121.34,208,121,206.46Z"/><path class="cls-30" d="M105.77,226.49c1.58-.48,3.16-.77,4.76-1.15s3-.33,4.46-.75a11.66,11.66,0,0,0,3.1-8.07,12.12,12.12,0,0,0-1.57-6,24.22,24.22,0,0,1-6.12,2.83c-3.43,1.31-7.23,1.66-10.62,3l-.14,0s0,.08,0,.12c0,4.58,2.43,8.49,5.86,10.07Z"/><path class="cls-14" d="M106.3,214.56a11.27,11.27,0,0,0-.23,2.25c0,4.09,2.12,7.4,4.73,7.4s4.73-3.31,4.73-7.4a10,10,0,0,0-1.21-4.93C111.66,212.7,108.94,213.6,106.3,214.56Z"/><ellipse class="cls-30" cx="113.41" cy="217.97" rx="2.8" ry="2.12" transform="matrix(0.07, -1, 1, 0.07, -112.44, 314.76)"/><path class="cls-31" d="M101.74,227.58s21.79-6.72,29.5-3.11"/><path class="cls-31" d="M121.19,206.53c1.3,4.83,4.8,9.54,9.88,10.68"/><path class="cls-31" d="M97.43,217.2c8.06-3,17.57-4.09,23.76-10.66"/><path class="cls-7" d="M58.87,211.48l.11-.14a12.81,12.81,0,0,1-1.61-1.42c-.25-.26-.52-.49-.77-.75a6.18,6.18,0,0,1-.62-.77l0,0c-.27-.26-.22-.3,0,0a4.83,4.83,0,0,0,.47.39,3.37,3.37,0,0,1-1-1.1c-.78-.38-1.37-.73-1.26-1.21,0,0-1.63,6.38-.81,7.56,0,0,3.25,3.63,5,4,0,0-6.87.37-8.16-.55a8.71,8.71,0,0,0,6.4,7l3.91.11S56.42,214.34,58.87,211.48Z"/><path class="cls-30" d="M70.27,217.65l-.1,0A2.31,2.31,0,0,1,69.1,217a11.81,11.81,0,0,1-1.54-.41c-1-.38-1.94-.73-2.89-1.17a23.76,23.76,0,0,1-4.5-3,2.85,2.85,0,0,1-.88-1.1l-.15-.1c-5.75,5.89-.45,13.17-.45,13.17,2.7.11,7.87,2.18,7.87,2.18,5.41-1.43,4.8-7.25,4.57-8.65A3.31,3.31,0,0,1,70.27,217.65Z"/><path class="cls-31" d="M48.78,227.58s6.5-6.81,22.71.76"/><path class="cls-32" d="M47.89,214.17S52.78,209.8,54,206A32.46,32.46,0,0,0,72.45,218"/><path class="cls-14" d="M62,213.25s-4.79,3.13-.51,11.49c0,0,1.95.66,4.16,1.69,0,0,4.08-1.52,3-9.3Z"/><ellipse class="cls-30" cx="66.7" cy="220.78" rx="2.12" ry="2.8"/><path class="cls-33" d="M85.89,217.25s5.24,5.38,7.93,6.64c0,0-8.27,2.29-9.54-.5,0,0-3.16,2.94-4.76.18C79.53,223.57,86,218.64,85.89,217.25Z"/></g></svg>