<svg xmlns="http://www.w3.org/2000/svg" viewBox="0 0 595.3 841.9">
    <style>
        .st2{fill:#8fa93f}.st3{fill:#61514c}.st4{fill:#503027}.st5{fill:#fcbe3e}.st6{fill:#015e47}.st9{fill:#6e933d}.st10{fill:#ba4e3c}.st12{fill:#6c8c3b}.st14{fill:#e9d8c4}.st15{fill:#cc914b}.st17,.st18{fill:#030303;stroke:#070606;stroke-miterlimit:10}.st18{fill:none;stroke:#f3f0e9}.st19{fill:#eae8dd}.st20{fill:#253c1a}.st25{fill:#6a8439}.st26{fill:#906251}.st27,.st33{fill:none;stroke:#fdba13;stroke-miterlimit:10}.st33{stroke:#000}.st34{fill:#fff}.st35{display:none;fill:#ba4e3c}
    </style>
    <g id="Layer_21">
        <path class="st2" d="M235.5 742.3l-16.2 44.6s-14.2 8.1-27 0v-50l43.2 5.4z"/>
        <path class="st3" d="M192.2 787.2s-39.2 2-49.3-7.1c-10.1-9.1 2.4 20.7 2.4 20.7h56.4l-9.5-13.6z"/>
        <path class="st4" d="M190.2 796.7s-39.9 13.2-58.1-40.5c0 0-3.4 48.6 12.8 65.2h71.6s9.8-22.6 2.7-32.6l-29 7.9z"/>
        <path class="st5" d="M219.2 787.6v6.4s-7.4 14.2-29.1 1.7l1.4-10.5 27.7 1.7"/>
        <g>
            <path class="st2" d="M325.1 742.3l16.2 44.6s14.2 8.1 27 0v-50l-43.2 5.4z"/>
            <path class="st3" d="M368.3 787.2s39.2 2 49.3-7.1c10.1-9.1-2.4 20.7-2.4 20.7h-56.4l9.5-13.6z"/>
            <path class="st4" d="M370.4 796.7s39.9 13.2 58.1-40.5c0 0 3.4 48.6-12.8 65.2H344s-9.8-22.6-2.7-32.6l29.1 7.9z"/>
            <path class="st5" d="M341.3 787.6v6.4s7.4 14.2 29.1 1.7l-1.4-10.5-27.7 1.7"/>
        </g>
    </g>
    <g id="Layer_7">
        <path class="st5" d="M220.4 522.2s-63.3 7.2-81-41.8c0 0-58.1 129.3 62 109.1l19-67.3zM389.6 523.5S451 539.2 496 471.9c0 0 9.1 114.9-53.2 132.6l-75.4-22.2 22.2-58.8z"/>
    </g>
    <path class="st6" d="M395.3 524.5s44.8 6 80.9-29.1c0 0 16.4 87.8-93.2 70.5l12.3-41.4z" id="Layer_44"/>
    <path class="st6" d="M190 520.4s-31.4-7.4-40.3-22c0 0-30.3 45.8 3.4 66.5h40.1l-3.2-44.5z" id="Layer_42"/>
    <path class="st6" d="M149.7 498.4s7.9 8.5 13.4 11.7l-3.2 2-10.3-6.1v-7.6z" id="Layer_43"/>
    <path class="st9" d="M128.7 515.7s-96.7 30-47.3 63.7c0 0 37.6 34.6 75.4 29.1l2.9-34.6-31.7-15c0-.1-6.2-16.5.7-43.2z" id="Layer_8"/>
    <g id="Layer_18">
        <path class="st10" d="M172.9 683.4s-46.3 45.8 8.6 71.5c0 0 32.2 23.9 77.9-2.2l31.7 2.6s41 28.7 95.9-.9c0 0 30.5-13.1 8.7-41.8l-37.9-63.1-149.8-7.4-35.1 41.3z"/>
        <path d="M399.8 719.1S197.2 762 157.3 733.6c0 0 19.3 39.3 84.7 31.2 0 0 52.4-7.6 76 1.1 0 0 37.4 11.4 78.7-18.2-.1 0 13.4-11.3 3.1-28.6z" opacity=".56" fill="#a14033"/>
    </g>
    <g id="Layer_17">
        <path class="st5" d="M382.5 666.1s6.7 49.9 41 44.1c0 0-57.6 96.6-104.6-39.3l63.6-21.3v16.5zM178.4 653s-6.7 49.9-41 44.1c0 0 57.6 96.6 104.6-39.3l-63.6-21.3V653z"/>
    </g>
    <g id="Layer_47">
        <path class="st6" d="M178 647.2s.3 28.6-18.3 44.3c0 0 32 55.8 65-28.5l-46.3-23.9-.4 8.1zM374.2 647.6s12.4 44.8 25.6 55.9c0 0-35.7 59.7-67.1-36.3l41.5-19.6z"/>
    </g>
    <path class="st5" d="M342.5 751s-32.3 15.2-20.1-88l-88.8-11.3s7 101-24.4 99.3c0 0 11.3 42.7 61.8 12.6.1 0 42.4 31.8 71.5-12.6" id="Layer_19"/>
    <path class="st6" d="M252.8 675.7s.4 66.6-8.7 77.5c0 0 20.5-.9 29.6-16.1 0 0 13.1 18.3 33.1 16.1 0 0-10.9-31.3-5.2-77.5h-48.8z" id="Layer_20"/>
    <path class="st12" d="M491.5 538.2s49.3 94.7 20.8 93.4c0 0-83.6-5.6-89.8-15l5.9-43.1 39.8 15.2s16.1-15.9 23.3-50.5z" id="Layer_12"/>
    <path class="st9" d="M171.4 467.2s22.9 55.5 12.4 147.6c0 0 86.9 32.7 201.8 9.1 0 0 13.7-99.2 22.9-140.3.2-1 .4-1.9.6-2.8 9.2-39.1-237.7-13.6-237.7-13.6z" id="Layer_6"/>
    <g id="Layer_22">
        <ellipse transform="matrix(.04946 -.9988 .9988 .04946 -100.463 654.042)" cx="293.4" cy="379.8" rx="106.1" ry="146" fill="none"/>
        <path class="st14" d="M406.7 129.1c-3.9 31.8-43.4 54.1-88.2 49.8-44.8-4.3-78-33.6-74-65.4 3.9-31.8 43.4-54.1 88.2-49.8 44.8 4.3 77.9 33.6 74 65.4z"/>
        <ellipse transform="rotate(-83.812 294.058 374.377)" class="st14" cx="294.1" cy="374.4" rx="107.6" ry="151.5"/>
        <path class="st14" d="M433.2 239.9c-5.8 48.5-63.3 81.6-127.2 75.4-64-6.2-110.2-49.5-104.4-98 5.8-48.5 61.6-83.8 125.5-77.5C391 146 439 191.4 433.2 239.9z"/>
        <path class="st15" d="M202.8 214.7s15.8-1.4 24.9-14.2c0 0-2.4-15.2 25.1-12.3l13.8-10.4 6.8-.5 18 24.4s6.2 9.7 12.9-.9c0 0 9.3-24 16.8-2.6 0 0 1.4 13.6 8.4 1.6 0 0 8.8-15 9.3.9 0 0-6.5 26.9 14.7-.7l14.6-10.7 8.2 1.8 4.5 8.4s-3.3 12.6.4 16.2c0 0 7.3 7.1 12.5-2 0 0 9.1-17.1 15.2 4.7 0 0 5.1 38.1 23.4 9.4 0 0 3.9-31.3-33.1-61.1 0 0-76.2-62.6-161.7-7.4.1 0-35.7 32.2-34.7 55.4zM157.5 353.6s12.5-1.1 19.7-11.3c0 0-1.9-12.1 19.8-9.7l10.9-8.2 5.4-.4 14.2 19.3s4.9 7.7 10.2-.7c0 0 7.4-19 13.3-2 0 0 1.1 10.8 6.7 1.3 0 0 7-11.9 7.3.7 0 0-5.1 21.3 11.6-.5l11.5-8.5 6.5 1.4 3.6 6.6s-2.6 10 .3 12.8c0 0 5.8 5.6 9.9-1.5 0 0 7.2-13.5 12.1 3.7 0 0 4 30.1 18.5 7.5 0 0 3.1-24.8-26.2-48.4 0 0-60.3-49.5-127.9-5.9.1 0-28.3 25.5-27.4 43.8z"/>
        <path class="st15" d="M204.8 202.2s8.8-43.2 69.8-58.9L234.4 173l-29.6 29.2z"/>
        <path class="st10" d="M274 213.1s-23-15.7-23.7-24.7c0 0-4.9 13.9-2.3 19l-4 2.1s-4 1.5.7 3.6 6.4 3 6.4 3-4.3-22.2 22.9-3z"/>
        <path class="st15" d="M246.2 89s.6 10 11.8 7.6c0 0 6.9-7.9 14-3.9 0 0 3.8 10.1 18.9 4.1 0 0 7.1-5.1 16.9 1.6 0 0 8.2 16.9 23.3 2.2 0 0 14.7-12 21 3.8 6.3 15.8 8.8 15.5 23.4 3.1 0 0 9.3-12 18.8.8 0 0 2.1 13.5 10.1 9.4 0 0 8.4-39.5-46.8-59.3-55.2-19.8 0 0 0 0S337 26.8 336.4 14c0 0-1.9 21.3-36.9 39.8-35 18.5 0 0 0 0S261.4 58 246.2 89z"/>
        <path class="st15" d="M288.1 57.5S326 46.3 336.6 14c0 0 11.4 36.6 40.9 54.5 29.4 18-89.4-11-89.4-11z"/>
        <path class="st10" d="M228.3 227.1s27 18 60.8-4.5c0 0 22.1 23.5 55.6 8 0 0-21.7 25.1-29 30.2-7.3 5.1-4.5 3.4-11.1-.3 0 0-10.2-12.8-20.3 2.7 0 0-6.2-13.9-17.7-3.9 0 0-5.4 7.3-13.4-1.1 0-.2-23.2-22.9-24.9-31.1z"/>
        <path class="st17" d="M261.5 210.8c2.4 1.5 3.6 3.6 2.7 4.7-.9 1.1-3.5.8-5.8-.8-2.4-1.5-3.6-3.6-2.7-4.7.8-1.1 3.4-.8 5.8.8z"/>
        <path class="st10" d="M315.5 216.2s26.7-9.4 30.1-17.8c0 0 .5 14.5-3.5 18.7l3.2 3s3.4 2.4-1.8 3.3c-5.1.8-7 1.3-7 1.3s10.8-20.2-21-8.5z"/>
        <path class="st17" d="M328.3 217c-2.7.9-4.5 2.6-4 3.8.5 1.3 3.1 1.6 5.8.7 2.7-.9 4.5-2.6 4-3.8-.6-1.3-3.1-1.6-5.8-.7z"/>
        <path d="M268.7 241.9s-13.8-.1-12.5 8.3c0 0 3.5 7.7 9.5-.4l6.7-4.1-3.7-3.8zM304.7 243.3s13.8.7 11.8 9c0 0-4.1 7.4-9.4-1l-6.3-4.5 3.9-3.5z"/>
        <path class="st15" d="M425 327.5c-.1-.1-.2-.2-.2-.3-37.5-44.9-99.1-56.7-99.1-56.7-90-21.2-149.1 29.8-149.1 29.8-7.8 5.9-17.5 18.6-18.5 19.9-.1.1-.1.2-.2.3-28.9 44.3-7.3 79.8-7.3 79.8 3.8 5 9.5 1.1 9.5 1.1 9.7-2.6 10.6-60.7 10.7-68.9 0-.6.2-1.3.5-1.8 11.5-20.5 12.4 3.9 12.5 7.5 0 .3 0 .6-.1.9-11 52.5 15.3 34.2 21.7 29.1.5-.4.9-1 1.1-1.6-2.7-9.3-3-19.2-1.1-28.8.6-3 2.6-4.4 4.9-4.7-.2-.4-.4-.8-.5-1.3-.6-2.8-.6-5.5.9-8 .6-1 1.4-1.8 2.2-2.6 1.3-2 3.4-3.3 6.7-3.3 3.5 0 6.6 1.4 9 3.6 22.8-23.4 12.8 47.4 12.3 52.7 0 .4 0 .8.1 1.1 2.8 13.2 14.2 13.5 19.7 12.9 1.8-.2 3.1-1.6 3.3-3.4 1.2-8.4 5.6-17.3 10.7-25.4 1-2.5 2.6-4.6 4.4-6.5 2.2-3.1 4.5-5.9 6.5-8.4 1.5-3.1 4.5-5.8 7.9-8 2.4-1.9 5.1-3.4 7.8-4.4 1-.5 1.9-.9 2.7-1.3 5.5-2.5 12.9-5.3 18.4-1.4 4.8 3.4 3.8 8.6 1 12.8 0 .9-.2 1.8-.6 2.7-3.3 7.2-1.1 16 0 24 6.2 9.3 17.5.1 20.8-2.9.6-.6 1-1.3 1.2-2.1 6.7-33.9 19-42.1 22.9-43.9.8-.4 1.7-.5 2.5-.2 9.8 2.8 10.2 27.1 10.2 32.2 0 .6.1 1.2.4 1.8 5 9.6 13.3 6.2 17.5 3.5 1.4-.9 2-2.5 1.7-4.1-1.2-5.6 4.4-14.4 4.4-14.4 6.6-6.1 13 26.6 14.2 33.6.2.8.6 1.6 1.2 2.2 17.1 15.3 23.1-1.6 24-4.8.1-.3.2-.6.2-1 .5-12.5-17.4-39-19-41.3z"/>
        <path class="st15" d="M206.3 367.3c.6-6.4 1.7-13.6 3.1-20.5.1-1.5.2-2.9.3-4.3 0-.6-.1-1.2-.1-1.8-.1-1.1 0-2.1.3-2.9 0-2.8-.1-5.9.3-8.8-.1-2.3-.3-4.6.5-6.9.6-1.8 1.7-3.1 3.2-3.9l-8.3-1.3-7.5 50.6 6.8 4.4c.5-1.5 1-3 1.4-4.6z"/>
        <path class="st19" d="M258.7 225.4s-6.5 17 15 23.4c0 0 20.6 4.8 33.7-1.5 0 0 14.2-2.9 14.5-19.9 0 0-9.5 10.7-19.6 13.3 0 0-20.4 1.3-28.5-1.9-8.1-3.2-13.1-9.8-15.1-13.4z"/>
        <path class="st10" d="M298.4 84.1s-18.4-12.3-19-19.4c0 0-3.9 10.9-1.8 14.9l-3.2 1.7s-3.2 1.2.6 2.8c3.8 1.6 5.1 2.3 5.1 2.3s-3.5-17.4 18.3-2.3zM262.1 99.2s21.7 14.1 48.8-3.5c0 0 17.7 18.5 44.6 6.3 0 0-17.4 19.7-23.3 23.7-5.9 4-3.6 2.7-8.9-.3 0 0-8.2-10.1-16.3 2.1 0 0-5-10.9-14.2-3.1 0 0-4.4 5.8-10.8-.9 0 0-18.6-17.8-19.9-24.3z"/>
        <path class="st17" d="M288.3 82.2c1.9 1.2 2.9 2.8 2.2 3.7-.7.9-2.8.6-4.7-.6-1.9-1.2-2.9-2.8-2.2-3.7.7-.8 2.8-.6 4.7.6z"/>
        <path class="st10" d="M331.6 86.5s21.4-7.4 24.1-14c0 0 .4 11.4-2.8 14.7l2.6 2.4s2.7 1.9-1.4 2.6c-4.1.6-5.6 1-5.6 1s8.6-15.9-16.9-6.7z"/>
        <path class="st17" d="M341.8 87.1c-2.2.7-3.6 2-3.2 3 .4 1 2.5 1.2 4.6.5 2.2-.7 3.6-2 3.2-3-.3-.9-2.4-1.2-4.6-.5z"/>
        <path d="M294.4 110.8s-11-.1-10 6.5c0 0 2.8 6 7.6-.3l5.4-3.2-3-3zM323.3 111.9s11 .6 9.5 7.1c0 0-3.3 5.8-7.5-.8l-5.1-3.5 3.1-2.8z"/>
        <path class="st19" d="M286.4 97.8s-5.2 13.3 12 18.4c0 0 16.5 3.8 27-1.2 0 0 11.4-2.2 11.6-15.6 0 0-7.6 8.4-15.7 10.5 0 0-16.4 1-22.9-1.5-6.4-2.5-10.4-7.7-12-10.6z"/>
        <path class="st10" d="M240.5 329.7s-30.1-22.8-31-35.9c0 0-6.4 20.2-3 27.6l-5.3 3.1s-5.3 2.2 1 5.2c6.2 3 8.3 4.3 8.3 4.3s-5.6-32.2 30-4.3zM181.2 357.7s35.4 26.1 79.6-6.5c0 0 28.9 34.1 72.7 11.6 0 0-28.4 36.4-38 43.8-9.6 7.4-5.9 5-14.5-.5 0 0-13.3-18.7-26.6 4 0 0-8.1-20.2-23.1-5.7 0 0-7.1 10.6-17.6-1.7.1 0-30.3-33-32.5-45z"/>
        <ellipse transform="matrix(.58 -.8147 .8147 .58 -174.9 319.1)" class="st17" cx="222" cy="329.2" rx="3.5" ry="6.9"/>
        <path class="st10" d="M294.8 334.1s34.9-13.6 39.4-25.9c0 0 .7 21-4.6 27.2l4.2 4.4s4.4 3.5-2.3 4.7c-6.7 1.2-9.1 1.9-9.1 1.9s13.9-29.3-27.6-12.3z"/>
        <ellipse transform="rotate(-19.627 312.56 338.568)" class="st17" cx="312.6" cy="338.6" rx="6.8" ry="3.5"/>
        <path d="M234 379.2s-18-.2-16.3 12c0 0 4.6 11.1 12.4-.6l8.7-5.9-4.8-5.5zM281.2 381.2s18 1.1 15.5 13.1c0 0-5.3 10.8-12.3-1.5l-8.3-6.5 5.1-5.1z"/>
        <path class="st19" d="M221 355.2s-8.6 24.6 19.6 34c0 0 26.9 7 44.1-2.2 0 0 18.6-4.2 19-28.9 0 0-12.5 15.6-25.7 19.3 0 0-26.7 1.9-37.3-2.7-10.6-4.6-17.1-14.3-19.7-19.5z"/>
        <path class="st15" d="M229.2 321.2s14.1 9.5 14.3 11.9v-16.5l-11.1-4.9-3.2 9.5z"/>
    </g>
    <g id="Layer_23">
        <path class="st20" d="M189.7 486.1s65.1 15.2 62.9 56.3c0 0 33.4-16.6 13.3-56.3h-76.2zM369.2 487.5s-65.1 15.2-62.9 56.3c0 0-33.4-16.6-13.3-56.3h76.2z"/>
    </g>
    <g id="Layer_45">
        <path class="st20" d="M249 500.3s21.2 21.1 3.6 41M305.8 502.9s-19.3 18.1.5 40.9"/>
    </g>
    <g id="Layer_2">
        <linearGradient id="SVGID_1_" gradientUnits="userSpaceOnUse" x1="296.493" y1="411.816" x2="296.493" y2="503.002">
            <stop offset=".141" stop-color="#ffce41"/>
            <stop offset=".64" stop-color="#faaf43"/>
            <stop offset="1" stop-color="#f8993a"/>
        </linearGradient>
        <path d="M164.2 481l-13.1-69.2 30 25.5 28.7-25.5 35.9 34.6 34-34.6 36.1 45.1 42.3-45.1 26.1 34.6 57.5-34.6-24.2 75.1c.1 0-125.3 39.9-253.3-5.9z" fill="url(#SVGID_1_)"/>
    </g>
    <path d="M205.6 584.9s48.1 1.3 74.2-34c0 0 29.1 35.3 86.2 34l-26.1 30.9s-84.5-28.3-29.2 23.3h-60.3s37.2-43.4-20.9-26.6l-23.9-27.6z" fill="#9db370" id="Layer_25"/>
    <g id="Layer_16">
        <linearGradient id="SVGID_2_" gradientUnits="userSpaceOnUse" x1="390.426" y1="657.858" x2="181.447" y2="657.858">
            <stop offset=".141" stop-color="#ffce41"/>
            <stop offset=".64" stop-color="#faaf43"/>
            <stop offset="1" stop-color="#f8993a"/>
        </linearGradient>
        <path fill="url(#SVGID_2_)" d="M184.9 615.9l-3.5 28.1 94.1 55.8 114.9-50.6-4.8-30-83.8 9.9h-44.2l-72.7-13.2"/>
    </g>
    <ellipse cx="278.1" cy="655.4" rx="7" ry="13.3" fill="#ed2424" id="Layer_41"/>
    <ellipse transform="rotate(-75.771 161.096 644.31)" class="st25" cx="161.1" cy="644.3" rx="34.4" ry="22.9" id="Layer_14"/>
    <g id="Layer_15">
        <path class="st12" d="M435.3 631.6s23.5 23.2 30.5 28l-43.2-7-4.3 43.1S543 724.2 525 678.1c0 0-22.2-54.2-29.2-62.3l-73.2 3.7 12.7 12.1z"/>
        <path class="st25" d="M438.3 675.9s2.2-31-23.3-38.2l-15-9.1s-6.2-13.4-12.1 0c0 0-3.6 10.8 2.6 13.7 0 0-20.6 6.2-10.4 33.6 0 0 10.4 34.9 42.4 26.1 0 0 14-1.3 15.8-26.1z"/>
    </g>
    <g id="Layer_28">
        <path class="st26" d="M269.9 582s-31.1 4.4-30.5 12.4c0 0 5.7 6.6 21.4-3.5l16.2-6.3-7.1-2.6zM293.6 583.3s31.1 4.4 30.5 12.4c0 0-5.7 6.6-21.4-3.5l-16.2-6.3 7.1-2.6z"/>
    </g>
    <g id="Layer_24">
        <path class="st19" d="M258.3 552s-3 20.5 8.9 29.1h27.5s10.4-6.2 8.5-28c0 0 14.8 22.3-5.7 40.4H266c-.2 0-22.7-9.7-7.7-41.5z"/>
        <path class="st18" d="M267 581.1s-3.3 5.9-1.6 11.7M295.3 581.1s3.3 5.9 1.6 11.7"/>
    </g>
    <g id="Layer_9">
        <ellipse transform="rotate(-75.771 166.321 582.05)" class="st25" cx="166.3" cy="582" rx="34.4" ry="22.9"/>
        <path class="st25" d="M439.6 601.5s2.2-31-23.3-38.2l-15-9.1s-6.2-13.4-12.1 0c0 0-3.6 10.8 2.6 13.7 0 0-20.6 6.2-10.4 33.6 0 0 10.4 34.9 42.4 26.1 0 .1 14-1.3 15.8-26.1z" id="Layer_11"/>
    </g>
    <g id="Layer_40">
        <path class="st27" d="M181.2 437.3l5.5 50.9M245.9 446.4l.7 53.7M315.9 456.9l-.8 45.8M384.3 446.4l-7.2 49.7"/>
    </g>
    <path d="M480.9 570.1c-.1.3-.3.6-.4.8v.2c-.2.5-.4 1-.7 1.6-.3.7-.7 1.4-1.1 2.1-.8 1.5-1.7 2.9-2.6 4.3-2.2 3.3-4.7 6.8-7.4 9.8-.1.1-.2.3-.4.4l25.1 8.5c0-.2-1.3-14.4-12.5-27.7z" opacity=".31" fill="#5a6b30" id="เงา"/>
    <g id="เสริม">
        <linearGradient id="SVGID_3_" gradientUnits="userSpaceOnUse" x1="81.749" y1="539.805" x2="128.005" y2="539.805">
            <stop offset=".141" stop-color="#ffce41"/>
            <stop offset=".64" stop-color="#faaf43"/>
            <stop offset="1" stop-color="#f8993a"/>
        </linearGradient>
        <path d="M81.7 538.2l46.3 20.6s-18.9-35.8-13.6-37.9c0 0-21 7.1-32.7 17.3z" fill="url(#SVGID_3_)"/>
        <g id="Layer_51">
            <linearGradient id="SVGID_4_" gradientUnits="userSpaceOnUse" x1="465.733" y1="647.003" x2="514.36" y2="647.003">
                <stop offset=".141" stop-color="#ffce41"/>
                <stop offset=".64" stop-color="#faaf43"/>
                <stop offset="1" stop-color="#f8993a"/>
            </linearGradient>
            <path d="M487.8 663s16.5-10.5 26.5-10l-10-22s-34 10.8-38.6 28.6l22.1 3.4z" fill="url(#SVGID_4_)"/>
        </g>
        <path class="st9" d="M145 670.2s-32-15.9-56.5-43c0 0 1.4-23 15.4-35.6 0 0 28.7 15.4 37.3 13.9l-7.5 15 12.1 4.7c.1 0-15.9 36.7-.8 45z"/>
        <linearGradient id="SVGID_5_" gradientUnits="userSpaceOnUse" x1="99.937" y1="607.109" x2="139.735" y2="607.109">
            <stop offset=".141" stop-color="#ffce41"/>
            <stop offset=".64" stop-color="#faaf43"/>
            <stop offset="1" stop-color="#f8993a"/>
        </linearGradient>
        <path d="M114.2 613.4s-15.9-11.1-14.1-18.4l1.1-1.2s17.6 10.3 38.6 14.3l-6.2 12.3-19.4-7z" fill="url(#SVGID_5_)"/>
        <linearGradient id="SVGID_6_" gradientUnits="userSpaceOnUse" x1="468.243" y1="584.401" x2="515.416" y2="584.401">
            <stop offset=".141" stop-color="#ffce41"/>
            <stop offset=".64" stop-color="#faaf43"/>
            <stop offset="1" stop-color="#f8993a"/>
        </linearGradient>
        <path d="M506.9 571.2c-20.5 9.6-25.2 22.3-25.2 22.3l11.7 4.2c12.2-6.2 22-4.2 22-4.2-1.2-8.7-8.5-22.3-8.5-22.3z" fill="url(#SVGID_6_)"/>
        <path class="st10" d="M366.6 523.4s3.7 15.1 1.8 17.9c0 0-7.4 8.6-11.4 9.6 0 0 15.6.9 18.6-1.3 0 0-1.1 12.2-14.6 16.6l-8.9.3s8.3-28.1 2.8-33.3c.1-.1 12.5-6.1 11.7-9.8z"/>
        <path class="st34" d="M328.9 572.9c3.9-1.2 7.8-1.9 11.8-2.8 3.6-.8 7.5-.8 11-1.8 4.7-4.9 7.7-12 7.7-20 0-5.5-1.4-10.6-3.9-14.9-4.4 3.3-10.1 5.1-15.1 7-8.5 3.2-17.9 4.1-26.3 7.5-.1 0-.2.1-.3.1v.3c0 11.3 6 21 14.5 24.9.1-.2.3-.3.6-.3z"/>
        <path d="M330.2 543.4c-.4 1.8-.6 3.6-.6 5.6 0 10.1 5.2 18.3 11.7 18.3S353 559.1 353 549c0-4.7-1.1-8.9-3-12.2-6.6 2-13.3 4.2-19.8 6.6z"/>
        <ellipse transform="rotate(-85.709 347.769 551.82)" class="st34" cx="347.8" cy="551.8" rx="6.9" ry="5.3"/>
        <path class="st33" d="M318.9 575.6s53.9-16.6 72.9-7.7M367 523.5c3.2 11.9 11.9 23.6 24.4 26.4M308.3 549.9c19.9-7.5 43.4-10.1 58.7-26.3"/>
        <g id="Layer_36">
            <path class="st35" d="M76.6 516.6s-45.9-10-22.6 11.5l5.9 4.8s3.8-1.1 13.4-.6h.1c9.7.6 3.2-15.7 3.2-15.7zM74.3 488.9s8.3 11 16.9 16.6l-6.3 8.8-1 2.1s-12.4-1.3-15.2-17.7l5.6-9.8z"/>
            <path class="st10" d="M212.9 535.8l.3-.3c-1.4-1-2.8-2.3-4-3.5-.6-.6-1.3-1.2-1.9-1.8-.6-.6-1.1-1.2-1.5-1.9v-.1c-.7-.6-.5-.8 0 0 .3.2.6.6 1.2 1-1-.8-1.9-1.7-2.4-2.7-1.9-.9-3.4-1.8-3.1-3 0 0-4 15.8-2 18.7 0 0 8 9 12.4 9.9 0 0-17 .9-20.2-1.4 0 0 1.2 12.7 15.8 17.3l9.7.3c-.1-.1-10.3-25.4-4.3-32.5z"/>
            <path class="st34" d="M241.1 551c-.1 0-.2-.1-.2-.1-1-.2-1.9-.8-2.6-1.5-1.4-.3-2.8-.6-3.8-1-2.4-.9-4.8-1.8-7.1-2.9-4.2-1.9-7.5-4.7-11.1-7.5-1-.8-1.7-1.7-2.2-2.7-.2-.2-.4-.3-.4-.3-14.2 14.6-1.1 32.6-1.1 32.6 6.7.3 19.5 5.4 19.5 5.4 13.4-3.5 11.9-17.9 11.3-21.4-.9 0-1.6-.3-2.3-.6z"/>
            <path class="st33" d="M188 575.6s16.1-16.8 56.1 1.9"/>
            <path d="M185.8 542.4s12.1-10.8 15-20.2c0 0 15.6 23.1 45.7 29.8" fill="none" stroke="#060505" stroke-miterlimit="10"/>
            <path d="M220.6 540.1s-11.8 7.7-1.3 28.4c0 0 4.8 1.6 10.3 4.2 0 0 10.1-3.8 7.5-23l-16.5-9.6z"/>
            <ellipse class="st34" cx="232.3" cy="558.8" rx="5.3" ry="6.9"/>
        </g>
        <path d="M279.7 550s13 13.3 19.6 16.4c0 0-20.5 5.7-23.6-1.2 0 0-7.8 7.3-11.8.4.1 0 16.2-12.1 15.8-15.6z" fill="#5b7534" id="Layer_56"/>
    </g>
</svg>
