<svg id="ยักษ์" xmlns="http://www.w3.org/2000/svg" viewBox="0 0 431.98 437.98"><defs><style>.cls-1{fill:#3a562e;}.cls-2{fill:#507447;}.cls-3{fill:#eeeeed;}.cls-4{fill:#313d2a;}.cls-5{fill:#f5a246;}.cls-6{fill:#253c1f;}.cls-7{fill:#1d2c1b;}.cls-8{fill:#934441;}.cls-9{fill:none;stroke:#804f48;stroke-miterlimit:10;}.cls-10{fill:#e7e1c1;}</style></defs><title>yakscore-new</title><path class="cls-1" d="M421.15,219.79c.08,112.91-92,205.56-205.61,205.61S9.93,333.34,9.93,219.79,102,14.18,215.54,14.18,421.07,106.23,421.15,219.79Z"/><g id="หน้า"><g id="Layer_34" data-name="Layer 34"><path class="cls-1" d="M39.35,234.62l.05-.72S39.37,234.16,39.35,234.62Z"/><path class="cls-1" d="M392.23,231.5,39.4,233.9V240a45.3,45.3,0,0,1-.05-5.37l-5.69,81.15s8.66,18.71,27.52,39.86a205.6,205.6,0,0,0,93.6,60.66,197.28,197.28,0,0,0,60.76,9.11C347.4,424.15,397.8,315,397.8,315Z"/></g><g id="Layer_30" data-name="Layer 30"><path class="cls-1" d="M14.64,175.84S27.9,223.4,39.4,233.9c0,0-1.5,24,12.5,33s34,29,48,16,26-28,42.51-22,90.49,19,134.49,3c0,0,21.65-15,43.33,7.5,0,0,11.74,27,38.21,10s31.13-20,33.8-49.89c0,0,22-31.74,23.65-58.17l-3-11.32-3.29-10.24-4-10.36H25.41L21,153l-3.56,11.47Z"/></g><g id="Layer_27" data-name="Layer 27"><path class="cls-2" d="M75.15,174.94s-12.77,36,35.82,62,94.24-27.33,99.75-26-39.82-23.5-39.82-23.5-4.66-49-44.14-45.83S75.15,174.94,75.15,174.94Z"/><path class="cls-2" d="M356.91,174.94s12.77,36-35.82,62-94.24-27.33-99.75-26,39.82-23.5,39.82-23.5,4.66-49,44.14-45.83S356.91,174.94,356.91,174.94Z"/></g><g id="ตา"><g id="ซ้าย"><circle class="cls-3" cx="126.76" cy="187.4" r="40.5"/><circle cx="126.23" cy="186.86" r="21.35"/></g><g id="ขวา"><circle class="cls-3" cx="304" cy="187.4" r="40.5"/><circle cx="303.47" cy="186.86" r="21.35"/></g></g><g id="คิ้ว"><g id="Layer_17" data-name="Layer 17"><path class="cls-4" d="M396.3,121.72H34.78S2.9,172.9,58.9,198.9c0,0-3-12-8-16,0,0,21-2,30-13s37-29,54-21,35,17.84,32,43.84c0,0,21.27,17.16,48.63,14.16,27.36,3,48.32-14.16,48.32-14.16-3-26,15.32-35.84,32.32-43.84s45,10,54,21,30,13,30,13c-5,4-8,16-8,16C428.18,172.9,396.3,121.72,396.3,121.72Z"/></g><g id="ซ้าย-2" data-name="ซ้าย"><g id="Layer_21" data-name="Layer 21"><path class="cls-5" d="M187.41,91.56h56.25s-1.7,61.8-28.1,62C192.66,153.74,187.41,91.56,187.41,91.56Z"/></g><path class="cls-6" d="M36,119.47s32.73-56.1,83.13-81.34c0,0,33-3.2,56.43,27a68.9,68.9,0,0,1,8.48,13.42c1.81,3.9,3.16,8.53,4.83,13,0,0-2.67,29.33,17.33,58.67,0,0,15,30.33-9.83,46.17,0,0-16.17-12.83-21.5-49.5s-64-62.35-95.33-25.17S36,119.47,36,119.47Z"/><path class="cls-7" d="M196.4,196.4s-13.5-3-17-6.5c0,0-.5-43.5-35.5-53.5s-44-3.5-63.5,14.5c0,0-17.93,25.28-49.21,24.39,0,0-15.48-26,4.85-55.82,0,0,12.87,12.92,25.87,5.92,0,0,8.5-23.5,30-33.5s28-9,45-4.5c0,0,.5-21-9.5-27.5,0,0,33.5,11.5,46,48.5s9,49.18,10.5,56.09S188.57,189.9,196.4,196.4Z"/></g><g id="ขวา-2" data-name="ขวา"><path class="cls-6" d="M395.3,119.9s-32.46-56.53-82.86-81.77c0,0-30.4-2.74-53.52,23.77-6.4,7.34-11.59,17.23-16.22,29.66,0,0,2.67,29.33-17.33,58.67,0,0-15,30.33,9.83,46.17,0,0,16.17-12.83,21.5-49.5s64-62.35,95.33-25.17S395.3,119.9,395.3,119.9Z"/><path class="cls-7" d="M235.2,196.4s13.5-3,17-6.5c0,0,.5-43.5,35.5-53.5s44-3.5,63.5,14.5c0,0,17.17,25.72,48.46,24.82,0,0,15.12-22.07-4.36-55.82,0,0-12.6,12.5-25.6,5.5,0,0-8.5-23.5-30-33.5s-28-9-45-4.5c0,0-.5-21,9.5-27.5,0,0-33.5,11.5-46,48.5s-9,49.18-10.5,56.09S243,189.9,235.2,196.4Z"/></g></g><g id="Layer_22" data-name="Layer 22"><path class="cls-1" d="M119.16,38.13s55.24.6,69.74,53.43c0,0,7.28,14.83,26.64,14.83a33.54,33.54,0,0,0,28.12-14.83S252,41.87,312.44,38.13c0,0-51.74-25.19-93.52-23.93C177.65,15.45,160.4,18.65,119.16,38.13Z"/><path class="cls-5" d="M148.88,25.22s26.8,25.67,66.66,25.17S283,25.6,283,25.6,218.9.15,148.88,25.22Z"/><g id="Layer_23" data-name="Layer 23"><path class="cls-8" d="M190.18,15.65l6.13,33.07s3.23.56,7.89,1.15c2.3.29,4.86.47,7.61.59,7.72.32,16.6-.28,23.3-2.15l5.29-32.65S215.29,12.32,190.18,15.65Z"/></g></g><g id="ปาก"><path class="cls-4" d="M51.9,266.9s25.46,20.93,34.36,20,8.68.7,13.64-4,16.36-23.39,35-23.36,91.76,24.13,147.21,1.75c0,0,27.67-11.63,46.22,20.66,0,0,12.94,10.12,26.51,1.54s25.53-17.78,25.53-17.78S388.64,335,285.57,378.9c0,0,8,9.33,14,10,0,0-35.39,32-84,0,0,0-39.31,30.67-84,.67,0,0,16.7-7.33,16-10.67C147.58,378.9,48.15,344,51.9,266.9Z"/><path class="cls-2" d="M258.94,390.12c-11.87,0-24.07-4.06-36.26-12.08l-7.79-5.12-7.35,5.74a63.5,63.5,0,0,1-34.9,11.08,55.28,55.28,0,0,1-14.8-2c2.42-3.32,18.56-14.3,18.56-14.3l-24.52-6.77c-.76-.27-66-23.9-83-72.13,6.13,3.28,12,5.45,16.83,5.45a18.92,18.92,0,0,0,1.91-.1c1.92-.2,3.31-.25,4.54-.3,6.58-.26,10.56-1.36,16.74-7.24a61.79,61.79,0,0,0,4.45-4.95c5-5.91,12.47-14.83,21.56-14.83,3.4,0,11.51,1.5,20.09,3.09,18.64,3.45,44.17,8.17,71.39,8.17,23,0,43.43-3.52,60.63-10.47h0a21.86,21.86,0,0,1,7-1.09c9.16,0,16.93,5.44,23.1,16.17l1.26,2.2,2,1.56a39.74,39.74,0,0,0,22.89,7.75,34.3,34.3,0,0,0,18.58-5.46l.77-.49c-1,2.51-2.09,5.13-3.43,7.83-13.07,26.27-40.27,48.79-78.67,65.13L254.4,372.4l21.28,14.94A52.1,52.1,0,0,1,258.94,390.12Z"/><path class="cls-4" d="M119.16,315.9s12.69-15,101.71-10c0,0,68-6.3,91.56,10s-30.67,62.75-86.54,6h-24s-22.55,34.71-75.14,21C126.76,342.9,104.43,332.9,119.16,315.9Z"/><g id="Layer_32" data-name="Layer 32"><path class="cls-8" d="M300.77,331.18s-1.36-6.28-14.18-7.78S247.28,314,235.73,305c0,0-15.47,4.89-7,10.89s18.1,17.5,66,24C294.77,339.9,301.27,338,300.77,331.18Z"/><path class="cls-8" d="M133.4,331.18s1.36-6.28,14.18-7.78S186.88,314,198.43,305c0,0,15.47,4.89,7,10.89s-18.1,17.5-66,24C139.4,339.9,132.9,338,133.4,331.18Z"/><path class="cls-9" d="M147.58,323.4s7.16,6.9,3.11,14.76"/><path class="cls-9" d="M169.68,318.24s7.94,5.84,5.08,14.25"/><path class="cls-9" d="M286.58,323.4s-6.68,6.61-5.18,14.39"/><path class="cls-9" d="M263.5,317.93S257,324,257.27,331.79"/></g><path class="cls-5" d="M415.88,173.33s4.65,15.85,5.13,39.07c.31,14.8,0,31.78-4.37,50.31a247.21,247.21,0,0,1-7.78,27.06A275.38,275.38,0,0,1,397.8,315l-5.57-83.53S413.73,198.73,415.88,173.33Z"/><path class="cls-5" d="M14.64,175.84s-3.49,13.06-4.56,36.06a205.38,205.38,0,0,0,12,77.63,192.8,192.8,0,0,0,11.6,26.25L39.4,233.9a49.87,49.87,0,0,1-9.47-15.09A405,405,0,0,1,14.64,175.84Z"/></g><g id="จมูก"><path class="cls-6" d="M268.75,290.13c-36.75,12.16-85.06,6.08-104.56,1.8-.09-.89,0-4.06,0-5a26,26,0,0,1,5.49-16,51.6,51.6,0,1,1,91.61,1.25A26.26,26.26,0,0,1,268.75,290.13Z"/><circle cx="189.52" cy="298.93" r="15.88" transform="translate(-126.03 459.26) rotate(-84.56)"/><circle cx="243.66" cy="298.93" r="15.88" transform="translate(-77.02 513.16) rotate(-84.56)"/></g><g id="เขี้ยว"><g id="เขี้ยว-2" data-name="เขี้ยว"><path class="cls-10" d="M96.91,227.9s19,76.37,119.55,68.45S335.15,227.9,335.15,227.9s19.08,10.69,5.75,34.51-43.95,59.6-125.64,60S96.91,276.9,96.91,276.9,71.43,242.9,96.91,227.9Z"/></g></g></g></svg>