<svg id="ICON" xmlns="http://www.w3.org/2000/svg" viewBox="0 0 143.92 143.92"><defs><style>.cls-1{fill:#d8e7ec;}</style></defs><title>youtube</title><path class="cls-1" d="M621,206.47h-84.8A29.56,29.56,0,0,0,506.65,236v84.79a29.57,29.57,0,0,0,29.56,29.57H621a29.57,29.57,0,0,0,29.56-29.57V236A29.56,29.56,0,0,0,621,206.47Zm11.68,85c0,13.63-4.66,24.68-18.29,24.68H544.27c-13.63,0-19.75-11-19.75-24.68v-26.1c0-13.63,5.54-24.68,19.17-24.68H615c13.63,0,17.71,11,17.71,24.68v26.1Z" transform="translate(-506.65 -206.47)"/><polygon class="cls-1" points="61.12 57.45 61.12 87.97 90.58 72.59 86.74 74.59 61.12 57.45"/><polygon class="cls-1" points="61.12 57.42 63.4 58.41 90.58 72.59 61.12 57.22 61.12 57.42"/></svg>