<?xml version="1.0" encoding="utf-8"?>
<!-- Generator: Adobe Illustrator 21.0.2, SVG Export Plug-In . SVG Version: 6.00 Build 0)  -->
<svg version="1.1" id="Layer_1" xmlns="http://www.w3.org/2000/svg" xmlns:xlink="http://www.w3.org/1999/xlink" x="0px" y="0px"
	 viewBox="0 0 1366 2229" style="enable-background:new 0 0 1366 2229;" xml:space="preserve">
<style type="text/css">
	.st0{fill:#484F57;}
	.st1{fill:#525B63;}
	.st2{fill-rule:evenodd;clip-rule:evenodd;fill:#525B63;}
	.st3{fill-rule:evenodd;clip-rule:evenodd;fill:#3E474C;}
	.st4{fill-rule:evenodd;clip-rule:evenodd;fill:#4F595E;}
	.st5{fill-rule:evenodd;clip-rule:evenodd;fill:#495359;}
	.st6{fill-rule:evenodd;clip-rule:evenodd;fill:#4B555B;}
	.st7{fill-rule:evenodd;clip-rule:evenodd;fill:#525E66;}
	.st8{fill-rule:evenodd;clip-rule:evenodd;fill:#546168;}
	.st9{fill:#454F56;}
	.st10{fill:#60666D;}
	.st11{fill:#6D747B;}
	.st12{fill:#676D75;}
	.st13{fill:#5B6169;}
	.st14{fill:#6E767F;}
	.st15{fill:#4B535A;}
	.st16{fill:#575E67;}
	.st17{fill:#585F67;}
	.st18{fill:#4E565E;}
	.st19{fill:#48535C;}
	.st20{fill:#585E63;}
	.st21{fill:#474F57;}
	.st22{display:none;}
	.st23{display:inline;fill:#E9A140;}
	.st24{display:inline;fill:#F3E7D5;}
	.st25{display:inline;fill:#F69F51;}
	.st26{display:inline;fill:#EADED5;}
	.st27{display:inline;fill:none;stroke:#C6BBAC;stroke-miterlimit:10;}
	.st28{display:inline;fill:#E4D9D3;}
	.st29{display:inline;fill:#004054;}
	.st30{display:inline;fill:#002C40;}
	.st31{display:inline;fill:#503128;}
	.st32{display:inline;fill:#BB5F50;}
	.st33{display:inline;fill:#C65F59;}
	.st34{display:inline;fill:#F5BA60;}
	.st35{display:inline;fill:#E9DDCD;}
	.st36{display:inline;fill:#FFF2E1;}
	.st37{display:inline;fill:#FBB043;}
	.st38{display:inline;fill:#E4D8CE;}
	.st39{fill:#98C480;}
	.st40{fill:#484F57;stroke:#484F57;stroke-miterlimit:10;}
</style>
<g>
	<g>
		<g>
			<path class="st0" d="M1243.7,305.8c0,0-0.2,1.5-0.8,3.9C1242.2,309.1,1243.7,305.8,1243.7,305.8z"/>
		</g>
		<g>
			<path class="st0" d="M1367,635.9l-14.5-0.1V444.1l13.9-0.2c0-0.1,0-0.1,0-0.2v-76.4c0-0.6,0.1-1.2,0.3-1.7c0-0.1,0-0.3,0-0.4v-61
				l-3.7,0.5c0-0.2,0.3-0.3,0.7-0.5c0,0,0,0,0-0.1c0,0,0,0,0,0c-0.2,0.1-0.4,0.2-0.7,0.3c-0.2,0.1,3.2,0.4,3.1,0.5l0.8-50v-17.8
				c-0.1-0.4-0.1-0.8-0.1-1.2l-0.6-15c0-2-0.1-1.2,0-2c0,0,0,0,0,0c0.1-0.6-0.1-1.4,0-2c0-0.2,0,0.2,0,0c0-0.4,0-0.6,0-1
				c0-0.3,0-0.7,0-1c0-0.3,0-0.7,0-1c0.1-0.6,0-1.3,0-2v-18c0,0,0-0.6,0-3c0-1,0-1,0-3c0-1.4,0-1,0-3c0-0.6,0.2-6.4,0-7v-67v-3V24
				c1.1-2.4-0.7-4.4,0.6-6.8l-3-2.9l-0.6-0.6l-0.5-0.4V6.1c-0.9,1.5-1.8,3-2.7,4.5c-7.6,12.8-17.3,27.6-29.3,44.3
				c-2.8,3.9-5.7,7.8-8.7,11.9l1.1,32.9v0.1l0.4,11.4l0.1,3.9l4.6,11.3l-46.4,96.8l2.6,6.3l-9.1,8.8l-15.2,20.3c0,0,19.1,9.1-2,34.9
				c-10.9,13.3-14.4,15.9-15.2,15.3c-2.4,9.7-10.6,33.5-32.8,28.9c-27.7-5.7-8.7,0.9-8.7,0.9l-8.1,2.3l-33.3,33.5
				c0,0-23.2,44.1-34.6,69.4c0,0.1-0.1,0.1-0.1,0.2c-1.3,2.9-2.5,5.6-3.4,7.9c-0.3,0.8-0.6,1.5-0.9,2.2c-0.1,0.3-0.2,0.6-0.3,0.9v0
				c-0.9,2.4-1.4,4.1-1.4,5.1c0,0.2,0,0.4,0,0.5c0.5,3.3-0.4,7.8-2.2,12.4c-0.3,0.9-0.7,1.8-1.1,2.7c-2.1,4.6-4.9,9.1-8,12.6
				c-0.2,0.2-0.4,0.5-0.6,0.7c-0.4,0.5-0.8,1-1.2,1.5c-0.6,0.7-1.1,1.4-1.7,2.2v0c-0.8,0.9-1.5,1.9-2.4,2.9
				c-0.1,0.1-0.2,0.3-0.4,0.4c-2.2,2.6-4.7,5.2-7.7,7.2c-2.2,1.5-4.8,2.7-7.7,3.4c-1.9,0.4-3.9,0.6-6.1,0.6c-0.5,0-1-0.1-1.6-0.1
				c-1.8-0.2-3.8-0.6-5.9-1.2c-3.3-0.9-6.1-1.8-8.7-2.5c-0.8-0.2-1.5-0.4-2.3-0.7c-1.4-0.4-2.7-0.8-3.9-1.1
				c-0.5-0.1-0.9-0.3-1.3-0.4c-3.5-1-6-1.8-7.6-2.3c-1.1-0.3-1.8-0.6-2.3-0.7c-0.4-0.1-0.6-0.2-0.6-0.2l-5.1,3.7l-2.6,1.8l-0.7,0.2
				l-7.4,2.1l-20.3,30.6l-4.9,7.4l-10.4,3.5l-6.2,4.8l-6.6,7.1l-0.3,0.3l-5.3,2.6l-6.6,10.4l-9.1,8.8c0,0-11.4,14.1-10,17.7
				c1.4,3.5-4.8,8.3-4.8,8.3l-2.7,4l-13,19l-1.6,5.4l0,0.1l-3,10.4l-3,8.3c0,0-10.9,2.1-16,20.7c-5,18.6-13,34.4-27.4,39.1
				c0,0,3.1,9.9-9.5,16.6c0,0-19.3,60-42.9,63.3c0,0-10.6-2.6-18.1,10c-7.5,12.5-26.9,40.4-40.3,33.1c-11.6-6.3-10.8-6.4-10.4-6.4
				c-1.2-0.4-10.3-2.9-14.6,9.5c-4.5,13.3-42,57.8-49.1,57c-7.1-0.7-7.1,1.5-8.5,4.7s-11.3,25.5-30.6,23.7
				c-19.3-1.8-32,14.8-34,20.8c-2,6.1-10.3,22.4-11.4,23c-1.1,0.6-6.8,11-6.8,11l-8.8,11.6l-2.4,2l-6.4,5.4l-8.7,6.4l1.7,4.4
				l22.9,57.6l9.6,24.1l2.4,6v0l3.8,9.6l2,5l8.7,21.9l4.4,11.1l1.8,4.4l5,12.5l3.7,9.4l34.7,87.4l18.2,45.7l34.4,86.6l149.8-71.8
				l308.5-147.9l0.2-0.1l142-68.1l21.6-10.4l0.4-0.2l13.8-19.7c-0.4-0.9-0.4-2-0.1-3.2c1.1-3.5,0.7-7.2,0.5-10.8
				c-0.1-4.2,0-8.5-0.1-12.7c-0.1-8.9-0.3-17.9-0.3-26.8c0-0.9,0.2-1.6,0.5-2.2v-29.3c0-0.3,0-0.7,0.1-1c-0.1-0.3-0.1-0.7-0.1-1
				v-43.6c-0.2-0.5-0.3-1.2-0.3-1.9v-54.8c0-0.2,0-0.5,0-0.7c-0.4-1-0.4-2.2,0.1-3.3c0-0.1,0-0.1,0-0.2v-65.3c0-0.1,0-0.3,0-0.4
				c-0.1-0.4-0.2-0.9-0.2-1.4v-87.3c-0.6-1.1-0.7-2.4-0.2-3.7c-0.1-0.3-0.1-0.7-0.1-1.1c0-1.1,0.5-2.3,1.2-3.2v-28.4
				c-0.2-0.5-0.3-1.2-0.3-1.9V635.9z"/>
		</g>
		<g>
			<path class="st0" d="M1367,9c-0.3,0.6-0.6,1.1-0.9,1.7c-0.8,1.5-1.6,2.9-2.4,4.4l0.1,0.2c1-2,2.1-3.9,3.1-5.8
				C1366.9,9.3,1367,9.2,1367,9z"/>
		</g>
		<path class="st1" d="M1361.9,227.5l0-0.1C1362,227.4,1361.9,227.5,1361.9,227.5z"/>
		<path class="st1" d="M1362.5,222.8l1.1-10.1c-0.3,4.4-0.8,8.4-1.1,11.1c-0.2,1.8-0.4,3.1-0.5,3.5L1362.5,222.8z"/>
		<path class="st1" d="M1337.9,100.7c0,0,0,0.1,0,0.1c0.8,3.3,1.8,6.8,3,10.6c0.1,0.2,0.2,0.5,0.2,0.7c4.2,12.5,7.8,24.1,11,34.5
			c0.1,0.4,0.2,0.8,0.4,1.2c4.5,14.8,7.8,26.9,10,35.2c0.2,0.6,0.3,1.2,0.5,1.8c0.5,1.7,0.8,3.2,1.2,4.5c0.2,0.9,0.4,1.6,0.6,2.3
			c0.6,2.3,0.9,3.6,0.9,3.6l-2,17.6c0.5-6.8,0.6-14.6-0.7-20.6c-0.1-0.7-0.3-1.3-0.5-1.9c-0.9-3.1-2.2-5.5-4.1-6.8
			c-2.1-1.3-4.1-4-5.9-7.5c-0.1-0.2-0.2-0.5-0.4-0.7c-6.8-13.1-11.8-35.9-11.8-35.9l-9.8,21l-19.8,42.3l-4,16.7
			c0,0,0.5,4.3-1.4,14.3c-1.9,10-2.9,19.5-2.9,19.5s0.2,5,0.3,11.1c0.1,6.2-2.6,14.3-3.5,16.4c-0.9,2.2-1.8,8.8-1.8,8.8l-1,12.3
			c0,0,1.7,45.4-2.6,52.7c0,0-0.6-27.9-3-27.9c-2.4,0.1-6.8,33.3-31.8,41.8c0,0,1.8,16.1-34.4,25c0,0-6.4,4.9-11.6,15.9
			c-5.1,11-14.3,16.7-14.3,16.7s-3.9,8.2-2.3,13.6c0.2,0.7,0.4,2.5,0.5,5.2c0,0.1,0,0.1,0,0.2c0.5,17.2-2.8,68-23.6,84.6
			c0,0,27-65.5,15-69.3c-5.7-1.8-7-8.5-6.6-15.3c0-0.1,0-0.2,0-0.2c0.5-7.4,3.1-14.9,4.5-16.1c2.7-2.2,6.9-20.8,19.7-20.4
			c0,0,9.7-20.5,27.3-25s22.4-17.1,21-17.2c-1.4-0.2,12.7-11,14.3-10.5c1.6,0.5,20.5-32.7,18.1-49.7l3.9-4.9c0,0-3.9-21.8-5.7-23.8
			c-1.8-2.1,1.6,32.4-25.8,42.7c0,0-8.5,0.6-3.7,5.8c4.9,5.2-5.9,6.5-7,9.5c-1,3-0.8,4.6,0,7.6c0.8,3-1.7,13.3-11.9,17.1
			c-10.2,3.8-23.5,13.7-35.8-8.6l-23.4,18l-5.9,16.5c0,0,10.8,28.5,2.4,41.2l-6.4-11.2c0,0,1.7,13,2.5,29.1c0,0.1,0,0.1,0,0.2
			c1.2,23.8,0.5,54.2-10.3,59.2c0,0,7-52.1,0.5-53.3c-6.5-1.2-2.8,52.6-17.4,60.6c-0.1,0.1-0.1,0.1-0.2,0.1c0,0-0.1,0-0.1,0.1
			c-0.1,0-0.2-0.1-0.2,0c-0.9,0.4-1.7,1.1-2.5,1.1c0,0,0,0,0,0c-0.1,0-0.2,0.1-0.2,0.1c-11.7,7-14.8,18.9-28,7.6c0,0,0,0-0.1,0
			c-1.3-1.1-2.6-2.3-4.1-3.8c0,0-1.5-6.6-8.5,1.4c-1.4,1.6-3.9,2.6-7.1,3.2c-2.9,0.5-6.3,0.7-9.9,0.6c-12-0.2-25.6-2.9-25.6-2.9
			s-12.2-2-12.6,8.1c0,0,0,0.1,0,0.1c0,1.5,0.1,4.8,0.3,9.2c0.2,4.9,0.5,11.1,0.8,18.1c0.1,1.9,0.2,3.9,0.2,6
			c0.2,5.6,0.3,11.6,0.4,17.5c0,0,0,0,0,0.1c-0.1,0.2-0.3,0.3-0.3,0.5c0,0,0,0,0,0s0,0,0,0c0,0.4,0,0.8,0,1.2v0c0,0,0,0,0,0.1v0.2
			c0,0,0,0.1,0.1,0.2c0.1,0,0.1,0.1,0.1,0.1c0,0.1,0,0.1,0,0.1c0,0.5,0.1,1,0.1,1.4c0,0-0.2,0-0.2,0.1c0,0.1-0.1,0.1-0.1,0.2v8.1
			c0,0,0,0,0,0c0,0.2-0.1,0.5-0.1,0.7c0.1,0.8,0.1,1.6,0.1,2.3c0,0,0,0,0,0c0,3.2,0,6.3,0,9.2v0c0,0.5,0,1,0,1.5v0
			c0,8.5-1.2,15.7-2.3,20.3c0,0.1,0.1,0.1,0.1,0.1c0,0,0,0,0,0v0c0,0-0.2,0.1-0.2,0.1c-0.5,1.6-1.3,2.9-2,3.7c0,0-0.1,0.1-0.1,0.1
			c0,0-0.1,0-0.1,0c-0.4,0.4-0.6,0.7-1,0.9c0,0,0.1,0,0.1-0.1c0,0,0,0,0,0v-0.2c0-0.5,0-1.5,0-3v-0.1c1.1-5,1.1-14.7,1.1-22.3v0
			c0-0.5,0-0.9,0-1.4v0c0-1.2,0.1-2.3-0.7-3.3c0-0.1-0.3-0.1-0.3-0.2c0,0,0,0,0,0c0,0,0-0.1,0-0.1c0-0.1,0.1-0.3,0-0.4
			c-0.7-2.8-1.7-4.6-3.4-4.9c-5.5-0.9-6.9,4.7-7.3,8.1c0,0.4-0.1,0.7-0.1,1c-0.1,0.9,0,1.4,0,1.4s0.5,4.8,1,12.1c0,0,0,0.1,0,0.2
			c0.3,4.3,0.6,9.5,1,15.1c0,0.1,0.1,0.1,0.1,0.2c0,0.9,0.2,1.9,0.2,2.8v0c0,0.8,0,1.5,0,2.3v1.1c0,6,1,12.3,1.1,18.3
			c0,0.3,0,0.7,0,1v0c0,0.3-0.1,0.5-0.2,0.8c0,0.2-0.1,0.3-0.1,0.5c0,15.3-0.8,28.8-4.1,32.6c0,0,0,1.4,0,3.8v0
			c0,0.1-0.2,0.2-0.3,0.2c0,0.6-0.2,1.3-0.2,2c0,0.1-0.1,0.2-0.1,0.3c-0.1,2.5-0.3,5.6-0.5,9.1c0,0,0,0.1,0,0.1c0,0.3,0,0.6-0.1,0.8
			c-1,15.4-2.9,36.4-6.7,38.3c-2.5,1.2-7.3,11.2-12.7,22.5v0c-1.1,1.3-1.2,2.6-1.8,3.9c-6.8,15.3-13.3,31.5-13.3,31.5
			s-1.4,3.4-4.1,8.1c0,0.1-0.1,0.1-0.1,0.2c-3.7,6.3-9.9,14.7-18.6,20c-15.2,9.3-24.7,32.6-25,36.2c-0.2,1.6-1.4,10.5-2.8,20.5
			c-1.7,12.8-3.4,27.2-2.9,29.8c1,4.6,0.8,24.1,0.8,24.1l-4.2,7.3l-9.1,15.9l-8.3,14.5l-4.3,7.4l0,0l-4.6,8v0l-0.1,0l-0.9,1.7
			l-0.1,0.2l0,0.1l-0.1,0.4c0,0,0,0,0,0l-0.3,0.2l0,0l0,0l-2.8,4.7l0,0l0,0l-1.7,2.9l0,0l-11.3,19.7l-12.7,22.1l0,0l-0.3,0.6
			l-7.8,13.6l-1.4,2.5c0,0,0,0,0,0l-0.2,0.1c0,0-0.2,0-0.2,0v0l-4.7,8.6l-21.5,37.7l-7,20.4l-12.6,10.2l-6,4.9l-30.7,24.9
			c0,0,0,0,0,0l-1.6,1.3l-0.1,0.1l-26.2,21.3l-36.1,29.3l-45.3,36.8l-1.2,1l-40.5-88.4l-4.2-9.1l-5.9-12.8l-2-4.4l-5.2-11.3
			l-16.2-35.4l-1.8-3.9l-14.2-31l-12.8-27.9l-7.8-19c0,0,5.3-2.1,12.9-6.7c3.5-2.1,7.5-4.7,11.6-7.9c14.5-11.1,31.3-29.1,37.6-55.3
			c0,0,11.8-22,40-17.4c28.2,4.6,26.8-25.2,26.8-25.2s6.2-9,12.3-5.3c6.1,3.8,43.8-56.6,43.8-56.6s1-6.4,7.5-3.7
			c6.5,2.7,22.1,18.6,49.8-26.5c0,0,3.3-11.8,30.1-15c26.8-3.2,36.5-65.6,36.5-65.6s8-9.1,9.9-13.4c1.9-4.3,29.5-23.1,30.5-44.8
			c1.1-21.7,11.1-10.6,11.1-10.6s1.9-11.9,8.7-27.1c0,0,0-0.1,0-0.1c2.7-5.9,6.1-12.3,10.4-18.6c2.3-3.4,4.9-6.8,7.8-10
			c0,0,12.5-27.5,28.4-42.3c6.3-5.9,13.1-9.8,19.9-9.1l0.9-1l21.2-25.5l5.3-6.4l3.8-4.5c0,0,8.5-18.9,23.7-8.4
			c0.3,0.2,0.6,0.4,0.8,0.5c0.4,0.3,0.7,0.5,1.1,0.7c0.9,0.5,1.7,1,2.6,1.5c0.6,0.3,1.3,0.6,1.9,0.9c5.9,2.7,12.1,3.8,18.1,3.7
			c0.5,0,1,0,1.5-0.1c2.2-0.1,4.4-0.4,6.5-0.9c1.4-0.3,2.7-0.7,4-1.1c3.5-1.1,6.7-2.7,9.5-4.6c4.6-3.1,7.4-3.6,9.2-2.9
			c2.8,1,3,4.8,3,4.8s6,16.2,13.1-0.3c1.9-4.3,2.6-8.1,2.9-11.4c0.2-3,0-5.6-0.4-7.9c-0.2-1.1-0.2-2.1-0.3-3.1c0-0.1,0-0.2,0-0.3
			c-0.2-1.2-0.1-2.2-0.1-3.1v-0.3c0-0.6-0.1-1.1,0-1.6c0-0.1,0-0.1,0-0.1c0.2-0.4,0.5-0.8,0.9-1.2c0,0,0.1-0.8,0.1-2v0
			c0-4.6-0.3-15.5,1.3-16.3c2-1-3.4-10.8-3.4-10.8s1.4-4.3,3.5-9.8c0-0.1,0-0.2,0-0.2c3.9-9.9,10-23.9,14.5-25
			c7.1-1.8,10.4-42.4,22.5-42.3l3-8.8l27.1-23.7c0,0,4.7-4.6,5.1-0.8c0.3,3.8,11.8,31.7,36.6,2.4c0,0-5.9-13.7,3.3-16.3
			c0,0-2.9-17.5,14.9-20.4c0,0,25.2-19.6,16.6-56c0,0-0.9-11.1,14.9-27.7l21-38.7l18.8-42.5l4.1-9.4c0,0,3.5-10.8-1.9-23.4
			c-0.6-1.5-1.4-3-2.3-4.5c0,0-0.1-0.1-0.1-0.1c-1.6-2.7-2.8-4.9-3.7-6.7c0,0,0-0.1-0.1-0.1c-4-8.2-2.5-9.5-2.5-9.5
			s-2.2-14.3,6.3-26.5c2.2-3.2,5.2-6.2,9.1-8.8l8.6-7.7c0,0,6.1-15.2,14.2-31c0.2-0.3,0.3-0.6,0.5-0.9c0.2-0.4,0.4-0.8,0.6-1.2
			l3,2.9c-1.3,2.5-2.5,4.9-3.6,7.3c-0.2,0.3-0.3,0.7-0.5,1c-6.3,13.6-9.9,25-9.9,25S1328.9,61.3,1337.9,100.7z"/>
		<path class="st1" d="M1367,9c-0.3,0.6-0.6,1.1-0.9,1.7c-0.8,1.5-1.6,2.9-2.4,4.4l0.1,0.2c1-2,2.1-3.9,3.1-5.8
			C1366.9,9.3,1367,9.2,1367,9z"/>
		<path class="st1" d="M1363.6,305.2C1363.6,305.2,1363.6,305.2,1363.6,305.2c-0.2,0.1-0.5,0.2-0.7,0.3c-0.2,0.1-0.3,0.1-0.5,0.2
			c-3.1,1.5-6.5,4.4-10,8.1c-0.1,0.1-0.2,0.3-0.4,0.4c-7.3,7.7-15.1,18.9-21.6,29.3c-9,14.2-15.7,26.9-15.7,26.9l-10.1,7.3
			c-21.7,11.1-20.9,36.6-20.9,36.6s-2.7,1.9,4.6,18.7c1.8,4.1,2.8,8.1,3.2,11.8c0,0.1,0,0.1,0,0.2c1.3,11.1-2.3,19.2-2.3,19.2
			l-30.9,54l-27.2,39.7c-18.9,16.2-19.3,28.5-19.3,28.5c2.7,24.8-6.9,41.3-14.9,50.4c0,0,0,0.1-0.1,0.1c-5.2,5.9-9.7,8.7-9.7,8.7
			c-19.3,0.9-18.4,20.4-18.4,20.4c-3.9,0.7-5.6,3.4-6.3,6.6c-1,5,0.7,10.9,0.7,10.9c-4.7,4.5-8.8,7.5-12.5,9.4
			c-1.8,0.9-3.4,1.5-4.9,2c-6,1.6-10.5-0.1-13.7-3.1c-0.5-0.5-1-1-1.5-1.5c-4.4-5.1-6-12.2-5.9-14.1c0.1-4.2-5.5,0.3-5.5,0.3
			l-18.7,13.2l-11.6,8.2l-1.5,1l-0.2,0.5l-4.1,8.8c-1.3-0.2-2.6-0.3-3.8,0.7h0c-0.3,0-0.6,0.4-0.8,0.6c-0.5,0.4-1,0.8-1.5,1.3
			c-9.4,9.1-16.4,38.8-22.8,40.8c-1.8,4.4-3.7,8.8-5.8,13.2c-1.5,3.1-3.1,6.2-4.8,9.3c0,0,0,0.1,0,0.1c-0.2,0.9-0.4,1.8-0.7,2.7
			c-1.8,12.6-5.1,25.2-9.8,37.4c0,0.1,0,0.1-0.1,0.2c-1.2,3.1-2.5,6.2-3.9,9.3c-0.7,3-1.5,6.1-2.4,9.1c-0.1,4.9-0.9,11.1-5.1,18.6
			c-1.3,2.3-2.5,4-3.6,5.1c-0.1,0.3-0.3,0.6-0.4,0.9c0.6,1.8,1.2,3.6,1.7,5.4c4.9-2.6,10-8,18-10.7c8.8-3,13.8-20.5,17.5-36.5
			c0-0.1,0-0.2,0.1-0.3c3.5-15.1,5.9-28.7,9.2-27.7c3.1,1,1.8,13.5-0.5,26.7c0,0.1,0,0.1,0,0.2c-2.7,15.3-6.8,31.5-6.8,31.5
			c7.7-2.6,12.3-16.8,15.1-33.4c0,0,0-0.1,0-0.2c0.6-3.4,1.5-6.8,1.5-10.3v0c0-1.4,0.3-2.8,0.5-4.2c0,0,0,0,0,0
			c0.8-7.6,1.4-15.2,1.7-22.1c0.2-3.5,0.3-6.8,0.4-9.7c0.3-9.7,0.2-16.2,0.2-16.2l5.4,13.1c3.7-4.5,5.1-11.4,5.4-18.4
			c0.6-13.2-2.7-27-2.7-27l3.4-7l0.8-1.6l4.2-8.8l1.8-1.2h0l3-2c0,0,0,0,0,0l3.4-1.9l19-11.5c1.4,3.5,2.8,6.4,4.4,8.7
			c0.4,0.6,0.8,1.2,1.2,1.7c5.3,6.9,11.3,8.1,17.2,7.3c0.8-0.1,1.6-0.2,2.4-0.4c0,0,0,0,0,0c0.9-0.2,1.7-0.4,2.5-0.6
			c1.5-0.4,3-1.3,4.5-1.3h0c1.6-1,3.1-1,4.6-1.4c3.6-0.9,6.5-2.7,8.7-4.8c0,0,0.1,0,0.1-0.1c0,0,0.1,0,0.1,0c3.1-3,4.9-6.5,5.7-9.3
			c0-0.2,0.1-0.3,0.1-0.5c0.3-1.1,0.4-2,0.3-2.6c-0.1-0.6,0-1.1,0-1.6c0,0,0,0,0,0c0-0.1,0-0.1,0-0.2v-0.6c0-2-0.1-3.6,0.9-5.9
			c1.5-3.2,13-3.2,8.5-9.6c-4.5-6.3,4.6-5.8,4.6-5.8c12.3-3.1,19.8-11.3,24.4-19.6c0,0,0-0.1,0-0.1c6.8-12.3,7.4-25.2,8.4-23.7
			c1.3,2,2.8,17.1,2.8,23.7v0.1c0,1.9,0.2,3.1,0.2,3.1l-1.9,2l-2.8,2.9c0.4,19-24,52.8-25.6,52.1c-0.6-0.3-3.7,1-7,3h0
			c-4.9,3-10.3,6.5-9.5,6.7c1.1,0.3-2.5,8.1-12.9,12.9c-0.1,0-0.2,0.1-0.3,0.1c-0.9,0.4-1.8,0.2-2.7,1.1c0,0-0.1,0.1-0.1,0.1
			c0,0,0,0,0,0h0c-1.2,0-2.4,0.7-3.7,1.1c-0.1,0-0.2,0.1-0.3,0.1c-1.4,0.3-2.9,0.6-4.5,0.8c-12,1.7-21.5,10.5-27,17
			c-3.4,4-5.2,7.1-5.2,7.1c-0.1,0-0.2,0.1-0.3,0.1h0c-12.4-2-19,15.1-22.4,19.1c-0.3,0.3-0.5,0.4-0.7,0.6c-1.7,1.1-5.4,9.1-6.9,17.2
			c-1.3,7.4-0.7,14.9,5.1,17.7c3.2,1.5,3,7.4,1,15.3c0,0,0,0.1,0,0.1c-3.3,12.3-11,29.4-17.2,42c-4.8,9.7-8.5,16.7-8.5,16.7
			c4.7-3,8.8-7.4,12.5-12.8c8.5-12.6,14.4-30.2,18.2-46c0-0.1,0.1-0.2,0.1-0.3c4.3-18.1,5.8-33.8,5.3-36.5c0-0.1,0-0.2-0.1-0.3
			c-0.3-2.7,0.4-5.7,1.4-8.3c1.2-3.4,2.8-6,2.8-6s10.4-5,17.3-16.5c1.8-3,3.6-5.5,5.4-7.6c0.3-0.3,0.6-0.7,0.9-1
			c4.5-5.2,8.1-7.3,8.1-7.3c1.1-0.2,2.2-0.3,3.2-0.5c7.1-1.1,12.8-2.6,17.4-4.4c6.6-2.5,10.9-5.5,13.8-8.3c5.3-5.2,5.3-9.9,5.3-9.9
			c8.2-1.8,14.7-6.2,19.9-11.6l0,0c12.4-12.6,17.3-30.3,19.1-30.2c2.5,0.3-0.4,30.9-0.4,30.9c3.5-4.7,6.4-26.8,8-42.1
			c0.6-5.9,1.1-10.8,1.3-13.3c0.1-1.3,0.2-2,0.2-2l0.9-4.7l0-0.1l1.7-8.6c0,0,1.8-7.2,3.1-9.4c1.3-2.2,5.2-10.8,5.8-17.6
			c0.7-6.8,1.1-12.2,1.1-12.2s2.2-10.3,5.5-21c3.3-10.6,3.3-15.3,3.3-15.4l6.4-17.8l39.5-65.6c0,0,3.9,42.4,13.6,50.6
			c5.6,4.8,4.1,20.5,1.8,32.8l4.4-19.1c0,0-4.1-36.7-14.3-88.4c0-0.1,0-0.2,0-0.2c-0.4-2.1-0.8-4.2-1.2-6.3
			c-11.1-55.1,20-64.3,20-64.3s4.4-10,11.5-22.4c5.7-9.9,13.2-21.4,21.6-30.4c0.1-0.1,0.2-0.3,0.4-0.4c3.2-3.4,6.5-6.5,10-9
			c0.2-0.1,0.3-0.2,0.5-0.3v-6C1362.9,305.6,1363.3,305.4,1363.6,305.2C1363.6,305.3,1363.6,305.2,1363.6,305.2z"/>
	</g>
</g>
<path class="st0" d="M1366,1071.1v-1.4c-1.2-0.8-2-2.1-2-3.9c0.1-9.3,1-18.7,0.1-28h-54.7c0.1-0.1,0.1,0,0,0c0.1-0.3-0.1-22.9,0-23
	c0,0-57.8-125.8,0-126l-356.7-0.2c-0.2,0.5-1.9,5-2.3,5.5c-4.2,6.1-5.9,13.8-28.1,27.3c18.9-17.1,18.9-27.1,22.7-30.8
	c2.9-2.8-4.6-14.1-9-15.6l-20,7.3c-2.8,2.7-5.7,5.2-8.6,7.8c-4.8,4.3-9.9,8.6-15.8,10.6c-8.5,2.9-16.1-2.9-19-11.4
	c-0.5,0.2-1,0.4-1.5,0.6c-0.6,0.3-1.3,0.6-1.9,0.9c-0.1,0-0.2,0.1-0.2,0.1c-3.1,1.6-6,3.5-9,5.4c-2.4,1.6-4.7,3.3-7,5
	c-1.3,1-2.7,1.9-4,2.8c-0.1,0.1-0.2,0.1-0.3,0.2c-1.3,1.7-2.7,3.4-4.1,5c-0.9,1.1-2.1,1.5-3.2,1.4c-0.5,0.6-0.9,1.2-1.1,1.4
	c-0.4,0.5-0.8,1-1.2,1.5c0,0.1-1.1,1.7-1.4,2.3c-0.4,0.8-0.8,1.5-1.1,2.3c0,0,0,0.1,0,0.1c-0.1,0.6-0.2,1.3-0.3,1.8
	c0,0.3,0,0.6,0,0.9c0.1,0.4,0.2,0.7,0.2,1.1c2.3,10-2.9,19.7-11.2,22.8c-6.9,2.6-14.6-1.7-18.2-8.8c-1.7-0.2-3.4-0.6-4.9-1
	c-4.9-1.4-8.8-4.4-12.8-7.8c-3.5,3.1-7.3,5.4-11.8,7.3c-1.3,0.6-2.7,1.1-4,1.7c-0.1,0.1-0.2,0.1-0.4,0.1c-0.1,0.1-0.2,0.1-0.3,0.3
	c-2.5,1.8-5.4,3.2-8,4.9c-4,2.5-8,5.2-12,7.8c-0.6,0.5-1.3,1-2.1,1.4c-5.8,3.9-11.7,7.8-17.6,11.5c-1.3,0.8-2.6,1.4-4,1.8
	c-0.7,7.2-3.6,14.2-8.4,19.5c-7.2,7.9-15.6,14.7-22.3,23.1c-5,6.8-9.9,13.4-16.6,18.7c-9.9,8-22.1,12-34.7,11.2
	c-16.7-1.1-29.1-13.4-29.9-31.1c0-0.7,0-1.4,0-2.1c0.1-2.8,1.2-3.3,2.1-5.9c1.9-5.5,6.6-10,11.1-13.8c-1-1-12.6,4.2-13.1,3.7
	c-2.1-2.2-3.5,0-3.5,0s-15.1,6.3-16.8,3.8c-1.8-2.5-5.6-0.3-5.6-0.3s-4.2,11.2-14.5,4.4c-10.2-6.9-20.8,3-20.8,3
	c-12.7,16.2-32.9,10.4-32.9,10.4l-5,1.7l-27.5,9.3c0,0,0,0,0,0l-28.5,9.6l-2.3,0.8l-27.8,9.4c0,0,0,0,0,0l-65.3,21.9L-1.6,1172.9
	l181.1,819.7H1366v-920C1365.9,1072.1,1365.9,1071.7,1366,1071.1z"/>
<g>
	<path class="st0" d="M1366,1173.2c-5.5-0.3-14.9-0.4-27.6-0.4c-72.9,0-173.7,93.9-257.3,290.7c-5-11.6-241.4-66.4-337.7,170.8
		c-91.5,225.5-31.7,47.1-31.7,47.1s-105.2,189.2-92.2,193.2c0,0,149.2,91.2,200.3,91.4c106,0.5,546.1,0,546.1,0v-784.2
		C1365.4,1178.9,1366.1,1176,1366,1173.2z"/>
	<polygon class="st0" points="146.7,1716 134.5,1741.2 164.7,1966 186,1966 307.1,1894 255.8,1815.4 167.9,1741.2 	"/>
	<path class="st0" d="M763.6,1172.8c-74.1,196.4-127.5,437.3-9.5,476v-3.7c23,7.5,65.5-158.1,182.8-176.4
		c57.9-9,154.4,14.6,154.4,14.6c0,0,20.7-111.9,92.2-190.6l182.5-120H763.6z"/>
	<polygon class="st0" points="932.3,1146.5 852.2,1525.6 771.7,1549.9 583.3,1623.8 538.9,1669.9 460.8,1706 340.2,1250.9 
		327.9,1146.5 	"/>
	<polygon class="st0" points="323.5,1172.8 327.9,1313.2 173.4,1172.8 	"/>
	<path class="st0" d="M195,1661.6l-6.7-7.7l-0.9-1l-16.3-18.6l-9-10.3l-10.7-12.3l-32.2-36.8c0,0,0,0,0-0.1l-20.7-23.6l-0.1-0.1
		l-22.7-25.9c0,0,0-0.1-0.1-0.1l-0.1-0.2L18,1459.3l-7-4.7l-18.3-12.3l-3.1-2.1v-267.4h171.3l0,0.1l-0.4,1.9l-2.4,11.6l13,167.7
		l0.3,4.2c0,0,0,0,0,0l0.8,10.6l3,38.4c0,0,0,0,0,0l8,103.2l0.1,1.1l1.2,15.7l0.1,0.8l4.5,58.2v0l0.1,1.2l0.9,11.3l0.1,1.1l4,51.5
		l0.1,1.2L195,1661.6z"/>
	<path class="st0" d="M154.2,1919.3l-0.8-5.5l-3-21.9L133,1766.2v0l-3.9-27.9l-1.1-8.1l-0.8-5.5H-10.3c0.4,0.7,0.7,1.5,0.7,2.5
		v237.3c0,0.1,0,0.3,0,0.4l95.8,0h65.7l0.3-0.9l0.8-2.4v0l0.5-1.6l4.5-14L154.2,1919.3z"/>
	<path class="st0" d="M478.4,1966c-48.1-56.9-130.7-105.8-255.9-29.6l-51.6,24.7c0,0,0.2,1.7,0.2,4.9
		C171.2,1966.4,479.4,1967.1,478.4,1966z"/>
	<path class="st0" d="M828,1966c-14.4-27.2-39.6-50.2-83.5-54.9l-203.7-59.5l-212.9-33.2l-37.8,73l7.5,11.9
		c0,0,95.4-32.7,182.7,62.6L828,1966L828,1966z"/>
	<path class="st0" d="M754.1,1896.5l-20.6-365.2c-11.9,3.6-23.9,7.2-35.8,10.7c-55.2,24.7-110.3,49.4-165.5,74.1l-36.4,42.8
		l-43.4,21.7l-12.9,37.4c42.8,11.4,85.6,22.7,128.5,34.1L754.1,1896.5z"/>
	<polygon class="st0" points="596.7,1764.8 739.4,1884.5 723.8,1894 350.4,1824.4 387.6,1767.6 	"/>
	<polygon class="st1" points="129.3,1745.3 150.6,1821.6 173.1,1959.9 143.3,1959.9 135.1,1817.2 118.4,1757.4 	"/>
	<polygon class="st0" points="86.5,1702 79.9,1702.9 79.9,1702.9 73.8,1703.6 73.5,1703.7 51.3,1706.6 -7.2,1714.1 -10.3,1714.5 
		-10.3,1641.3 -7.2,1643.2 35.7,1670.2 	"/>
	<polygon class="st0" points="25.3,1516.7 -6.2,1527.9 -9.3,1529 -9.3,1425.5 -6.2,1427.5 8.4,1437.3 12.1,1454.6 	"/>
	<path class="st0" d="M117.4,1661.5l-82.2-141.2l-41.4,9.5l-3.1,0.7v104.3c1,1.9,0.2,4.3-1.5,5.8l1.5,1v11.6l3.1,1.2l43,16.1
		L102,1695l20.6-21l1.3-1.3L117.4,1661.5z"/>
	<path class="st0" d="M583.9,1796.1c2,17.5-164.7-47.2-213.1-2.8c-53.2,48.7,0,0,0,0c21.2-36.7,45-60.7,69.8-80.1
		c6.4-7.9,56.6,16.2,143.3,42.8V1796.1z"/>
	<path class="st0" d="M167.1,1172.8c32.1,38.4,64.3,76.9,96.4,115.3c7.5-4.3,14.9-8.7,22.4-13c-1.8-3.4-4.3-8.2-7.5-13.8
		c-21.4-37-49.8-67.1-75-88.5L167.1,1172.8L167.1,1172.8z"/>
	<polygon class="st0" points="145.7,1172.8 139.6,1296 146.7,1418.8 192.5,1351.2 267.3,1276.3 179.4,1172.8 	"/>
	<path class="st0" d="M133.7,1172.8l-9,140.5c19,15.6,15,118.9,15,118.9l14.4-27.1c0,0,9.4,16.7,0,0c-8-14.3-7.6-183.9-7.3-232.3
		L133.7,1172.8z"/>
	<path class="st1" d="M468.3,1964.5c0.1,0.1,3.2,1.4,3.3,1.5c9.6,0,11.6,0,17.1,0c-29.2-30.8-58.8-52.1-81.9-66.3
		c-13.7-5.4-34.5-11.5-60.2-11.8c-46.8-0.6-81.2,18.6-95.3,27.6l-10.4,16.3c15.2-6.7,35.3-13.7,59.4-17.8
		c39.7-6.8,73.3-2.9,94.9,1.5c14.7,5,39.3,15.4,62.9,36.9C462.9,1956.8,464.3,1959.9,468.3,1964.5z"/>
	<path class="st1" d="M816,1367.9c-75.8,56.8-93.4,175.9-96.6,199.9c-7.8-4.6-18.9-9.8-32.5-12.2c-16.5-2.8-30.3-0.4-39.5,2.2
		c-13.7,11.4-29.1,26.1-45.1,44.6c-17.6,20.5-31.8,41-42.8,59.2c0.7-35.2,3.2-74.4,8.7-116.7c8.9-68.4,23.3-124.1,38.6-173
		c0.1-0.3,36.1-90.7,36-91c-7.9,0.6-37.6,49.8-60.9,123.8c-7,55.3-13.1,74.7-21,129.8c-2.7,16.3-5.5,32.6-8.2,48.9
		c-4.3,4.7-36.2,39.1-61.9,58.3c-11.3,8.5-21.8,14.5-21.8,14.5c-7.9,4.5-15.4,8.1-22.3,10.8c-0.6,4.7-1.9,11.2-4.9,17.9
		c-6.9,15.5-18,21.2-21.7,22.8l-4.8,15.6c0,0,33.8-29.1,38.3-43.7c12.1-6.5,25.5-14.8,39.5-25.4c12.7-9.5,23.9-19.3,33.6-28.7
		c3.9,3.9,9.8,11,14.7,22.1c6.3,14.6,7.5,28.5,7.7,35.5c2.6,19.2,4.5,42.8,4.2,69.8c-0.3,31.5-3.7,58.5-7.4,79.5
		c-8.7-8.2-18-17.6-27.4-28.6c-16.5-19.2-29.9-38.5-40.6-56.1c-8.3,2.8-21,5.7-36.5,3.8c-15.1-1.9-33.7-15.8-41.4-20.5
		c-0.6,3.4-4.6,5.8-5.2,9.2c21.3,5.5,52.8,20.2,74.1,25.7c-21.4-1.9-46.7-1-74.4,6.1c-7.2,1.8-14.1,2-20.6,4.1
		c-0.5,0.2-0.8,0.8-0.8,1.4c-0.1,1.3-2.1,2.8-3.8,7.3c15.5-4.4,43.9-8.9,68.4-6.7c17.1,1.6,32,5.7,44,10.2
		c8.8,4.9,19.8,12.4,31.2,23.9c14.4,14.4,24.4,29.9,30.8,41.8c0,0-75.4-23.8-101.4-25.3c0,0-58.8-5.9-70.5-23.2l-12.8,5.1l-7.2,14.4
		c0,0,141.4,25.3,171.1,43.4c18,11,42.3,20.7,58,44.1c2.9,0.1,5.8-0.3,8.7,0.2c0.3,0.1,0.6,0.1,0.9,0.2c0.3,0,0.5-0.1,0.8-0.1
		c3.6-0.2,7.2-0.1,10.8,0.1c0,0,0,0,0,0c-7.3-25.8-18-48.9-33.8-59.6c-3.5-17.6-24.5-128,21.9-210.2c9.3-16.4,26.6-47.2,55.7-57.8
		c32.4-11.8,76.6,2.5,76.6,2.5c5.8-26.4,18-69.1,44.4-111c31.5-50.1,68-74.9,91-86.9v-21.5L816,1367.9z"/>
	<path class="st1" d="M331.2,1172.8c1.3,36.1,5.3,76.5,13.8,120.5l-18.7-17c-7.7-28.3-15.6-63.1-21.2-103.5c1.2-49.3,13.1-31,27.1,0
		H331.2z"/>
	<path class="st1" d="M153.1,1607.9l-36.3-38.4l-17.3-18.3l-0.1-0.1l-8-8.5c0,0-6.2-7-14.7-17.4c0,0,0-0.1-0.1-0.1
		c0-0.1-0.1-0.1-0.1-0.2c-18.8-23.4-48.3-63.8-44.3-83c0,0-16.5-12.8-38.5-33.6c0,0,0,0,0,0c-1-0.9-2-1.9-3-2.9v52.8
		c1,1,2.1,1.9,3.1,2.9c13.9,13.6,24.3,27,26.2,37.8c0,0-10.2,5.8-26.2,14.3c-1,0.5-2,1.1-3.1,1.7v14l-6.7,2.4l6.7-1.5v7.3
		c1-0.2,2-0.4,3.1-0.6c14.6-2.5,27.7-2.8,37.8,0.4c0,0,90.7,114.9,74,147.7c0,0-59.2-24.7-83.8-47.7h0c-0.2,0-0.4-0.3-0.6-0.4
		c-3.7-2.9-6.7-6.7-8.4-10c0-0.1-0.2-0.2-0.3-0.2c-0.8,0.6-6.6,4.7-18.7,6.4c-1,0.1-2,0.3-3.1,0.4v1.9c0.9,1.7,0.3,3.9-1.1,5.3
		l1.1,0.7v16.5c1,0.4,2,0.7,3.1,1.1c19.4,7.3,42.3,18.4,67.8,35.5c0,0,0,0,0,0c0,0,0,0,0,0c4.3,2.9,8.7,5.9,13.1,9.2
		c0.3,0.2,0.7,0.5,1,0.7c-0.1-0.1-0.6-0.3-1.3-0.7c-4.2-2.3-17.8-9.1-26.3-9.1c0,0,2,5.2,4,12c1.8,6,3.6,13.4,3.9,19.5
		c0.4,6.2-0.8,11.2-5.1,12.1c0,0,2.4,0.1,6.3,0.5c17.4,1.7,64.5,8.2,63.3,28.3l1.2-2.1v0l7-11l1.1-1.7l1.4-5.3l1.9-7.2l6.2-23.3
		l0.7-2.1l12.7-35.2l6.2-17.1l0.7-6.5l0.1-1l3.3-30l0.5-5L153.1,1607.9z"/>
	<path class="st1" d="M118.9,1725.4c-0.3-0.2-0.6-0.4-1-0.6c-13.1-9.4-25.8-17-38.2-23h0c-6.5-4-12.9-6.2-19.2-8.6c0,0,0-0.2,0-0.2
		s0,0,0,0c-24.7-9.5-47.6-13.2-67.8-13.2h0c-1,0-1.9-0.1-3-0.1v44.9c0.4,0.7,0.7,1.5,0.7,2.6v16.9c0.8-0.2,1.6-0.3,2.4-0.5
		c25.8-5.3,46.8-6.9,63.7-6.3c47.8,1.6,63,20.3,63,20.3L118.9,1725.4z"/>
	<path class="st1" d="M28.9,1636.9h-31v-20.5c1-0.1,1.9-0.1,2.9-0.2c19.1-0.6,18.8,8.9,18.8,10c0,0,0,0,0,0c0,0.1,0.1,0.1,0.1,0.1
		l0.2,0.2l8.4,9.9L28.9,1636.9z"/>
	<path class="st1" d="M157.4,1966l-4.8-4.9c0,0-0.6-3.8-2.5,4.9C152.6,1965.9,155,1965.9,157.4,1966z"/>
	<path class="st1" d="M152.6,1961c0.3,1.7-0.9,4.9,0.9,4.9c27.3,0.6,28.9,0,28.9,0l0.1-4.9H152.6z"/>
	<path class="st1" d="M183.3,1966c-0.3-5.2-0.8-4.9-0.8-4.9h-11.5c0.6,2.6,1,2.4,1.3,4.9C175.9,1966,179.6,1965.7,183.3,1966z"/>
	<polygon class="st1" points="444.1,1704.5 457.8,1690 467.6,1667.3 445.2,1656.2 433.1,1656.2 433.1,1676.7 	"/>
	<polygon class="st1" points="177.8,1961 240.8,1931.7 251.2,1915.4 177.8,1947.6 	"/>
	<path class="st1" d="M332.2,1172.8c-6.1,0.8-12.1,0.2-18.1,0.2c0,0.1,0,0.2,0,0.3c2.7,26,6.4,54.6,11.2,86.1l13.6,15.2
		C338.9,1274.7,332.4,1173.2,332.2,1172.8z"/>
</g>
<g>
	<path class="st2" d="M461.9,1487.8c-0.1,5.3-0.1,10.7-0.2,16c-0.9,5.4,0.1,10.8-0.5,16.2c-0.1,5.4-0.1,10.7-0.2,16.1
		c-1,5.4,0.1,10.8-0.6,16.2c-0.1,5.4-0.1,10.7-0.2,16.1c-1,5.4,0.1,10.8-0.6,16.1c-0.1,5.4-0.2,10.8-0.2,16.1
		c-0.8,4.3-0.2,8.6-0.4,12.9c-0.1,1.3,0.2,2.7-0.2,4c-0.1,5.3-0.1,10.6-0.2,15.9c-0.9,5.4,0.2,10.9-0.6,16.3
		c-0.1,5.3-0.1,10.6-0.2,15.9c-0.6,3.8-0.5,7.6,0,11.4c2.3,8.8,6.1,17.1,9.1,25.6c4.1,11.6,8.6,23.2,12.8,34.8
		c0.5,1.4,1.2,2.9,0.9,4.5c-0.8,1.2,0,2.6-0.6,3.8c-0.4,3.4-0.4,6.9,0,10.3c0.7,1.4-0.3,3.1,0.6,4.5c0.5,11.1,4.5,21.5,8.5,31.8
		c1.2,3.2,2.2,6.6,4.2,9.3c3.9,5.2,3.3,10.5,2,16.1c-2.4,10.8-4.5,21.6-7,32.3c-1.1,4.6,1.1,8.7,2,13c1.8,9.4,4.3,18.6,6.6,27.9
		c0.4,1.6-0.4,2.9-0.9,4.2c-10,22.5-20.2,44.9-30.2,67.4c-1,2.2-2.2,2.7-4.6,2.7c-19.2-0.1-38.3-0.2-57.5,0.1
		c-4.7,0.1-7.5-1.8-10.3-4.7c-6.6-7.1-13.2-14.2-19.8-21.3c-7.9-8.6-15.8-17.2-23.8-25.8c-2.4-2.6-6.2-3.2-9.4-4.5
		c-11.3-4.7-22.8-9.2-34.3-13.5c-4.5-1.7-5.2-4.9-5.9-8.6c-1.5-7.7-2.9-15.4-5-23c-1.3-4.6-5.3-7.8-8.2-11.6
		c-7.2-9.6-14.8-19-22.2-28.5c-1.1-1.5-2.4-2.5-4.3-3.3c-7.2-2.9-14.7-4.9-21.9-7.7c-2-0.8-3.5-1.6-4.7-3.4
		c-8-11.3-16.2-22.5-24.2-33.8c-1.1-1.6-2.5-2.6-4.2-3.4c-10-4.8-19.9-9.9-30-14.6c-3.9-1.8-4.2-5.3-5.5-8.2
		c-5.3-11.2-10.1-22.6-15.2-33.9c-5.1-11.4-10.4-22.8-15.5-34.2c-2.8-6.1-5.2-12.4-8.4-18.3c-1.3-2.5-0.6-5.3,0.1-7.7
		c4-14.9,7.5-29.9,11-45c1-4.4,2-8.8,3.4-13.1c0.7-2,0.3-3.4-0.8-5c-6-9.1-11.7-18.4-17.8-27.4c-2.6-3.8-0.8-7.5-0.3-11.1
		c1.2-8.4,2.9-16.6,4.4-25c1.5-8,3-15.9,4.4-23.9c1-5.4,2.7-10.8,2.5-16.2c-0.1-5-2.1-9.9-3.4-14.9c-0.6-2.4-0.8-4.9-2-7.2
		c-0.4-0.8-0.1-1.7,0.5-2.7c6.2-10.9,12.2-21.9,18.3-33c6.4-11.7,12.6-23.4,19-35c2-3.7,4.2-7.4,6.4-11.1
		c6.4-10.4,8.9-22.2,13.3-33.3c0.6-1.5,1.3-2.9,2.5-3.9c9.4-7.8,17.4-16.9,26.1-25.3c5.5-5.3,11.7-9.6,19-12
		c8.5-2.9,13.4-8.1,15.6-16.1c1.9-6.9,8.9-9.7,14.5-13.5c7.8-5.3,16.4-9.7,23.1-16.5c9.7-9.8,21.7-16.6,34.4-22.4
		c5.3-2.5,10.4-5.4,15.7-8c4-2,6.1-5.8,9-8.8c5.2-5.3,10.2-10.9,14.9-16.6c10-12.2,24.8-18.7,37.4-27.6c3.8-2.7,8.2-4.7,11.5-8
		c26.3,0,52.5,0,78.8,0c0,0.5,0,0.9,0,1.4c-0.8,1.2,0,2.5-0.6,3.7c-0.1,1.2-0.1,2.4-0.2,3.6c-0.8,1.2,0,2.6-0.6,3.8
		c-0.1,1.2-0.2,2.3-0.2,3.5c-0.7,1.2,0,2.6-0.6,3.9c-0.1,1-0.1,1.9-0.2,2.9c-0.8,1.1-0.1,2.5-0.6,3.7c-0.1,1.2-0.2,2.4-0.2,3.7
		c-0.8,1.1,0,2.5-0.6,3.7c-0.1,1.2-0.1,2.4-0.2,3.6c-0.8,1.2,0,2.5-0.6,3.7c-0.1,1.2-0.2,2.4-0.2,3.6c-0.8,1.2,0,2.6-0.6,3.8
		c-0.1,1.2-0.2,2.3-0.2,3.5c-0.7,1.2,0,2.6-0.6,3.9c1.6,8,3.9,16.1,7.3,23.5c4.3,9.5,2.4,18.3,0.2,27.5c-1.3,5.3-2.5,10.6-3.7,15.9
		c-0.8,3.7,1.4,6.7,3.2,9.5c3.8,5.7,3.3,11.4,1.8,17.6c-2.6,11-4.4,22.3-6.8,33.4c-1.3,6-5.6,10.8-8.7,16.2
		c-3.7,6.6-7.9,13-11.8,19.6c-0.4,0.7-0.9,1.4-0.8,2.4c1.5,8,0.2,16,1,24c0.1,3.4,0.7,6.8-0.3,10.2c-3.6,6.8-7.2,13.6-10.9,20.4
		c-0.6,1.1-1.2,2.2-0.8,3.5c1.9,7,3.8,14,5.7,21C462.2,1478.1,462.3,1482.9,461.9,1487.8z"/>
	<path class="st3" d="M420.7,1532.6c0.6,11.6,1.8,23.2,3,34.8c0.7,6.5,1.1,13.1,1.7,19.6c1,11.1,2.6,22.2,2.9,33.3
		c0.4,12.4,1.2,24.9-0.5,37.3c-1.4,10.2,1.3,19.2,7.5,27.6c2.1,2.9,3.8,6.1,5.7,9.2c1,1.6,1.5,3.3,1,5.2c-0.9,3.2-1.6,6.4-2.3,9.6
		c-0.2,0.9-0.5,1.6-1.6,1.7c-1.7,0.6-3-0.4-4.4-1c-6.7-3-13.3-6.3-20.1-9.2c-7.4-2-14.9-3.2-22.4-4.7c-1.4-0.3-2.8-0.5-4.1-1
		c-0.9-0.4-1.6-1.1-2.3-1.8c-5.9-7.2-12.2-14.1-18.2-21.3c-1.2-1.3-2.4-2.6-3.8-3.7c-5.2-1.6-10.6-2.3-15.9-3.5
		c-1.9-0.4-3.8-0.7-5.6-1.6c-3.1-2.5-3.4-6.2-5-9.3c-3.1-4.1-7-7.6-10.5-11.3c-4-4.2-8.7-7.7-12.6-12.1c-1.4-4.8-0.7-9.6-0.5-14.4
		c0.8-2.9,0.7-5.9,0.1-8.8c-0.1-3.8,1.8-7.4,1.8-11.2c0.6-3.3-1.2-6.3-1.4-9.5c4.3-5.1,9-9.9,14.1-14.4c3.2-4.7,4-10.2,5.8-15.4
		c1-3,2.7-5.5,5.1-7.6c2.8-1.9,6.3-3.2,6.6-7.1c4.4-20.1,8.8-40.2,13.2-60.3c0.2-1,0.3-1.9,0.7-2.8c2-1.3,4.8,0.6,6.7-1.4
		c5.8,3,12.4,2.4,18.6,3.5c4.7,0.9,9.6,1.1,14.2,2.5c5.4,5,11.2,9.5,16.6,14.5c3.9,6.9,6.3,14.4,8.2,21.9
		C423.9,1524,422.5,1528.5,420.7,1532.6z"/>
	<path class="st4" d="M379.7,1214.2c2.4-3.8,6.9-4.9,10.6-7c9.1-5.3,18.4-10.1,27.6-15.3c1.5-0.9,3-1.3,4.8-1.3
		c14.9,0,29.9,0.1,44.8,0c2.9,0,3.7,0.4,3.1,3.5c-1.5,7.5-2.4,15.1-3.3,22.6c-0.2,1.6-1.7,2.5-1.6,4c1.2,1.7,0.2,3.3-0.3,4.9
		c-7.7,23.7-15.2,47.5-23.1,71.1c-1.6,4.8-2.1,9.5-1.1,14.4c0.8,4.3,1.2,8.7,1.8,13.1c0.5,3.1-0.1,6-1.7,8.8
		c-3.9,6.8-7,13.9-10.8,20.7c-2.3,4.2-2.3,8.7-2.9,13.2c-0.9,6.5-2,13-2.6,19.6c-0.1,0.7-0.1,1.5-0.5,2.1c-2.8,4.2-5.6,8.5-9.8,11.8
		c-10.4,2.7-21,4.4-31.4,6.7c-4,0.9-7.9,1.7-11.9,2.5c-1.8,0.4-3.6,0.8-5.4-0.1c-1.7-1.3-1.5-3-1.5-4.7c-0.1-7.5,0-14.9,0-22.4
		c0-1.8-0.1-3.9,1.2-5.3c4.2-4.5,3.7-10,4.2-15.3c0.8-7.3,1.3-14.6,2.2-21.9c0.3-2.5,0.5-5.1-1.4-7c-3.8-3.7-4.3-8.1-3.8-12.9
		c1.2-11.5,1.8-23.1,3-34.7c0.3-3.2,1.4-5.9,3.4-8.4c2.9-3.7,3.7-7.7,4-12.3c0.9-15.6,0.4-31.2,1.5-46.8
		C378.7,1216.6,378.9,1215.4,379.7,1214.2z"/>
	<path class="st4" d="M156.7,1472.4c-0.3-4,3-6.8,4.4-10.2c0.4-1,1.3-1.8,1.8-2.8c7.9-14.3,15.7-28.7,23.6-43.1
		c6.7-12.1,13.5-24.2,20.3-36.4c0.5-0.9,0.9-1.8,2-2.2c1.4-0.4,2.2,0.5,3,1.2c8,7.4,15,15.3,19.3,25.2c1.1,2.5,1.8,5.1,2.3,7.8
		c2.4,13.5,10.4,23.2,22.8,30.1c3.4,1.9,5.6,4.2,7.1,7.5c3.7,8.5,6,17.4,8.5,26.3c0.9,3.4,2.5,5.9,5.6,8c5,3.5,9.9,7.2,13.6,12.1
		c1.4,1.8,2.7,3.6,3,5.9c0.1,1.8-0.8,3.3-1.6,4.8c-4.4,8.1-8,16.4-12.2,24.6c-3.3,6.5-9.6,9.9-16.9,11.9c-6.3-0.2-12.5-1.6-18.6-2.8
		c-4.1-0.8-6.4-4.2-9-6.9c-4.8-5-9.6-10-14.5-15c-1.1-1.2-2.4-1.7-4.1-1.8c-13.8-1-24-6.9-29.6-19.2c-1.9-4.2-5.1-7.7-9.3-10.2
		c-6.3-3.7-12.3-8-18.5-11.8C158.4,1474.8,156.6,1474.3,156.7,1472.4z"/>
	<path class="st5" d="M314.3,1630.9c8.3,6.7,15.5,14.4,22.9,22c-6.5,6-14.2,10.8-21,16.5c-6.2,5.2-13.3,8.7-21.1,10.8
		c-4,1.1-6.4,3.4-8.5,6.5c-2.6,3.9-4.5,8.3-8.4,11.4c-8.3,2.7-16.7,4.8-25.2,6.8c-3.7,0.9-6.2,2.3-7,5.9c-0.8,3.9-3.4,6.6-6.9,8.9
		c-12.3,8.1-24.4,16.4-36.6,24.7c-1.6,1.1-3.1,2.7-5.5,2.4c-3.9-5.9-6-12.6-8.7-19c-9.6-22.1-19-44.2-28.4-66.3
		c-0.6-1.3-1.5-2.6-0.7-4.1c1.1-1.1,2.6-1.2,4-1.4c6.3-1.1,12.7-2.1,19-3.2c3.2-0.6,6.2-0.7,9.2,0.6c2.1,0.9,4.3,0.9,6.6,0.5
		c2.5-0.4,4.9-0.9,7.4-0.9c4.8,0,7.9-2,9.9-5.9c1.2-2.4,3.3-3.5,6.1-4c9.4-1.8,18.7-2.5,28,0.1c4.7,1.3,9,0.6,13.1-2
		c2.7-1.7,5.7-3,8.6-4.4c13-3.9,26.7-4.7,40.1-6.5C312.2,1630,313.3,1630.3,314.3,1630.9z"/>
	<path class="st4" d="M290.7,1282.4c4.9-3.9,10.7-6.4,16.2-9.5c15.3-8.7,30.7-17.2,46.1-25.7c0.3,0.3,0.6,0.6,0.7,1
		c0.7,2.4-0.1,4.9,0.9,7.3c0.4,3,0.6,6.1,1,9.1c0.7,5.2-0.3,10.2-2.7,15c-2.8,5.6-3.8,11.5-3.6,17.8c0.3,7.8,0.1,15.6,0,23.4
		c0,2.7,0.7,5,2.4,7.2c2.9,3.9,5.6,7.9,8.4,11.9c1.9,2.7,2.8,5.4,2.7,8.6c-0.1,4.6-0.3,9.3,0.7,13.9c1.4,6.8-2.2,12-6.2,17.1
		c-1.1,1.4-0.9,3-0.9,4.6c0,8.2-0.1,16.3,0,24.5c0,3.1-0.8,5.7-2.7,8.2c-7.5,10.1-14.9,20.3-22.2,30.6c-1,1.4-2,2.9-3.9,3.5
		c-3,0.1-4.2-1.9-5-4c-3.1-8.5-5.9-17.2-9-25.8c-0.7-1.9-0.4-3.9,0.1-5.8c1.3-5.9,2.7-11.7,4.2-17.5c0.6-2.3,0.6-4.5,0-6.9
		c-3.7-15.2-8.3-30.3-11.8-45.6c-1-4.1-3.5-7.3-6.1-10.5c-2.6-3.1-3.7-6.6-4.2-10.4c-1.5-11.9-3.5-23.7-5.1-35.5
		C290.5,1286.7,289.5,1284.6,290.7,1282.4z"/>
	<path class="st5" d="M386.8,1694c9.2,2.1,18.6,3.2,27.6,5.9c0.6,1.5,0.1,2.9-0.2,4.3c-2.2,9.1-4.5,18.1-6.5,27.2
		c-1,4.7-3.9,8.2-6.6,11.9c-1.1,1.5-2.6,2.8-2.8,4.7c-4.1,12.8-3.5,25.5,0,38.3c0.4,1.6,0.5,3.1,0,4.7c-2.4,7.9-4.2,15.9-6.7,23.8
		c-0.8,2.6-2.2,4.9-3.9,7.1c-4.2,5.3-7.9,10.9-12.1,16.3c-2.1,2.7-3.1,5.6-3.3,8.9c-0.3,4.8-0.9,9.5-1.5,14.2c-0.3,2-0.4,4,0.3,5.8
		c2,5.4,1.7,10.8,0.5,16.2c-1,4.4-0.8,9-2.8,13.2c-10.3-4-20-9-29.9-13.6c-5.6-2.6-11.2-5.3-16.7-8.1c-1.2-0.6-2.9-0.8-3-2.5
		c-0.8-3.6,0.7-6.9,1.4-10.3c0.6-2.9,1.5-5.7,1.9-8.6c0.9-6,3-11.1,8.9-14.2c1.5-0.8,2.4-2.2,2.8-3.8c2.2-8.5,6.3-16.3,9.8-24.3
		c1.2-2.9,1.6-5.6,0-8.4c-0.2-0.4-0.3-0.9-0.6-1.4c-2.8-4.8-2.4-9.4,0.3-14.2c2.5-4.4,4.5-9.1,6.6-13.7c1.1-2.3,2.7-4.2,4.9-5.6
		c2.8-1.8,4.5-4.3,5.7-7.2c2.7-6.6,5.8-13.1,8.6-19.7c1.1-1.8,1.4-3.6,0.5-5.6c-0.9-2.1-0.4-4.1,0.5-6c4.7-10.6,9.4-21.2,14-31.8
		C385,1696,385.6,1694.8,386.8,1694z"/>
	<path class="st4" d="M368.7,1896.5c0-6.6,1.9-13,2.8-19.4c0.3-2.2,0.2-4.2-0.6-6c-2.6-6.1-0.6-12.3-0.3-18.4c0-0.5,0.4-1,0.4-1.4
		c-1.1-7.8,3.3-13.7,8-19.5c3-3.7,5.7-7.6,8.5-11.4c3.9-5.2,4.4-11.4,6.3-17.2c1.4-4.2,2.3-8.5,3.5-12.7c1-3.5-1-6.6-1.3-10
		c-0.3-3.6-1.4-7.1-2.1-10.7c-0.9-5.3,1-10.3,1.8-15.4c0.4-2.3,0.8-4.5,1.3-6.8c1.5-2.2,3.4-1.3,5.2-0.4c6.9,3.3,14,6.1,20.9,9.4
		c4.1,1.9,8.4,3.5,12.5,5.4c1.7,0.8,3.6,1.6,4.1,3.7c-0.6,6.6-3.3,12.8-5,19.1c-1.7,6.4-3.6,12.7-5.6,19.1c-0.9,2.9-0.9,5.7-0.3,8.7
		c1.9,8.7,4,17.4,5.8,26.2c0.5,2.4,0.6,4.8,0,7.2c-2.1,7.7-1.8,16.2-6.6,22.9c-7.8,11-8.5,23.6-10.9,35.9c-0.8,4.2-1,8.2,2,11.9
		c0.7,0.9,1.1,2,1,3.1c-0.8,6.4-0.3,12.9-1.8,19.3c-0.1,0.4-0.4,0.6-0.7,0.9c-1.3,0.7-0.4,2.1-1,3c-4.9-4.3-9.7-8.6-14.6-12.9
		c-1.1-1-2-2.3-3.1-3.3c-9.5-9.1-19-18.2-28.5-27.3C369.6,1898.4,368.7,1897.7,368.7,1896.5z"/>
	<path class="st5" d="M293.1,1501.8c-1.3-4.7-5-7.9-8.5-11.1c-2.5-2.3-5.3-4.4-8.2-6.2c-3.1-2-4.6-4.5-5.5-7.8
		c-2.5-9.1-4.8-18.2-8.6-26.9c-1.3-3.1-3.4-5.1-6.6-6.9c-12.7-7-21.1-17.1-23.4-31.1c-1.5-9.2-7-16.6-13-23.7
		c-3.2-3.7-6.5-7.3-10.6-10.2c0.8-6.9,1.6-13.7,2.6-20.6c0.2-1.6,1.6-2.7,2.8-3.9c7.5-7,15.1-13.9,22.5-21c2.2-2.1,4.4-3.2,7.6-3
		c3.1,0.2,6.3,0.1,9.5,0.1c1.5,0.9,1.7,2.4,2.1,3.8c1.2,4.3,2.2,8.5,3.5,12.8c2.3,7.8,4.3,15.7,9.1,22.8c5.8,8.7,8.2,18.5,8.7,28.9
		c0.3,7.1,0.5,14.1,0.5,21.2c0,2.7,0.7,4.9,2.7,7c5.9,6.2,8.9,13.7,10.6,21.7c1.4,6.8,3.3,13.6,4.4,20.4c1,6,4.1,10.7,8.6,14.8
		c2,1.9,4.2,3.7,5.7,6c2.4,4.9,2.8,10.4,4.1,15.6c1.1,4,2,8.1,2.8,12.1c0.3,1.6,0.6,3.3,1.8,4.4c4.9,4.7,5.7,10.8,7.2,16.7
		c0.5,1.8,1,3.6,1.3,5.4c0.8,5.4,3.3,9.9,7.4,13.8c-1.4,4.4-2.9,8.8-4.3,13.2c-0.4,1.1-0.5,2.5-2,3c-4.6-2.5-8-5.8-9.4-10.7
		c-0.2-0.8-0.5-1.6-0.7-2.5c-1.5-11-6.9-20.3-14.6-28.6c-4.2-4.5-6.6-9.6-7.5-15.4C294.7,1511.1,293.5,1506.5,293.1,1501.8z"/>
	<path class="st5" d="M367.1,1671.2c6.2,7,12.4,13.9,18.1,21.3c0.4,1.7-0.2,3.1-1,4.5c-6.1,11.2-11.3,22.8-17.5,34
		c-2.5,4.5-4.4,8.8-1.5,13.7c-2,6.7-4.9,13.2-8.7,19.1c-2.1,3.2-6,5.4-9.2,7.9c-2,1.5-3.5,3.2-4.4,5.5c-3.5,8.3-7.2,16.5-11,24.7
		c-1.2,2.6-1.3,5,0.4,7.3c3.2,4.3,3.4,8.7,1.1,13.4c-1.1,2.2-1.8,4.6-2.5,6.9c-1,3.3-2.6,5.9-5.6,8.1c-3.8,2.8-5.3,7.2-7.7,10.9
		c-0.9,1.4-1.3,3.3-3.2,4c-6.3-6.5-11.3-13.9-17-20.8c-6-7.3-11.8-14.8-17.7-22.2c-0.8-1-1.5-2-1.6-3.3c-1-1.2-0.3-2.3,0.1-3.5
		c0.2-0.8,0.5-1.7,0.9-2.4c4.1-8.1,5-16.6,4.3-25.4c-0.3-3.7,0.7-6.9,3.6-9.7c1.6-1.6,3-3.4,4.4-5.1c1.8-2.4,4.1-4.1,7.3-4.6
		c2.3-0.3,4.1-1.6,5.5-3.3c6.4-7.6,13-15,19.5-22.6c1.5-2.8,0.7-5.8,0.7-8.7c0-2.5,0.7-4.7,2.2-6.9c2.6-3.7,5.5-7.2,8.1-10.8
		c1.9-2.7,3.5-5.8,7.7-6.2c1.2-0.1,1.8-1.3,2.6-2.2c6.5-7.1,12.9-14.2,19.4-21.2C365.1,1672.7,365.7,1671.6,367.1,1671.2z"/>
	<path class="st4" d="M168.5,1573.7c-5.6-4.2-10.8-8.9-15.9-13.6c-1.5-1.4-1.7-3-1.4-4.7c1.4-10.1,3-20.2,4.4-30.3
		c1.5-10.7,2.9-21.4,4.3-32.1c0.1,0,0.3-0.2,0.4-0.1c6.8,3,13.8,6.1,17.3,12.8c3,5.7,5.5,11.6,9.8,16.6c3.7,4.3,8.1,6.6,14.4,5.1
		c8.1-2,14.6,1.5,20.2,6.4c3.8,3.3,7.1,7.1,10.5,10.9c3.3,3.6,6.8,6.6,12.1,7.6c4.4,0.8,8.6,2,12.9,3.2c1.9,0.5,3.8,1.2,4.2,3.4
		c-1,9.9-3.1,19.7-4.6,29.5c-0.2,1.1-0.7,2.1-1.9,2.6c-0.4,0.1-0.8,0.4-1.1,0.3c-5.3-1.8-9,1.3-12.7,3.9c-2.3,1.6-4.6,2.1-7.3,1.4
		c-7.3-1.7-14.5-3.6-21.7-5.3c-3.4-0.8-5.7-3-7.8-5.3c-3.1-3.3-6.7-5.1-11.4-5.9c-7-1.2-13.8-3.1-20.6-4.7
		C171,1575.1,169.6,1574.7,168.5,1573.7z"/>
	<path class="st5" d="M414.4,1399.8c3-3.7,6.4-7.1,8.8-11.1c1.4-2.3,1.1-5.4,1.4-8.2c0.8-6.7,1.6-13.5,2.5-20.2
		c0.2-1.8,0.8-3.6,1.6-5.2c3-6,5.6-12.2,9.3-17.8c4.1-6.2,5-12.6,3.1-19.2c-2.8-10.2-0.6-19.7,2.7-29.5
		c7.6-22.5,14.7-45.2,21.9-67.8c0.8-0.2,1.3-0.5,1.6,0.7c3,12.6,6.1,25.3,9.2,37.9c1,4-0.6,7.7-1.5,11.5c-2.7,11.7-5.7,23.4-8.6,35
		c0.8,2,0.1,3.8-0.5,5.7c-3.1,10.1-6.2,20.2-9.3,30.3c-0.6,1.9-1.1,3.8-0.9,5.8c1.1,13.2-2.5,25.4-9.1,36.9c-1.7,2.9-2.8,6-4.4,9
		c-1.7,3.2-2.6,6.6-2.4,10.3c0.2,3.8-1.1,7.5-0.7,11.3c-0.1,1.2,0,2.5-0.3,3.7c-0.7,1.9-0.5,4-0.5,6c0,1.6,0,3.2-0.3,4.8
		c-0.5,1.3-0.5,2.7-0.8,4c-3.7,7.7-9,14.6-13.3,22c-0.7,1.3-1.5,2.6-2.3,3.8c-2.8,4.1-4.1,8.3-2,13.1c0.6,1.2,0.6,2.7,0.3,4
		c-1.7,6.6-3.2,13.3-5,19.9c-0.2,0.7-0.7,1.3-1.4,1.7c-4.5-3.8-9-7.6-13.5-11.5c-0.8-0.7-1.5-1.4-1.5-2.5c-1-1.3-0.4-2.6-0.1-3.9
		c1.3-4.8,2.7-9.7,3.7-14.6c0.6-2.9,1.8-5.6,4.3-7.6c1.5-1.3,2.1-3,2.4-4.9c0.4-2.3,0.6-4.6,1.3-6.8c1.3-4.6,1.6-8.8-2.6-12.4
		c-1.3-1.1-1.5-2.8-1.1-4.5c2.3-9.4,4.5-18.8,6.9-28.1C413.6,1400.8,414,1400.3,414.4,1399.8z"/>
	<path class="st4" d="M271,1637.5c-3.5,1.9-7.1,3.7-10.5,5.7c-3.1,1.7-6.2,2.1-9.8,1.1c-10.2-2.8-20.5-2.2-30.9-0.2
		c-2,0.4-2.9,1.5-3.6,3c-2.1,4.3-5,6.7-10.7,6.8c-6,0.1-11.9,2.3-18-0.6c-1.8-0.9-4.8,0.4-7.2,0.8c-7.1,1.1-14,2.8-21.2,3.3
		c-1.3-3.3,0.4-6.4,0.9-9.5c3.2-18.1,6.7-36.1,10.1-54.1c0.2-1.1-0.1-2.3,1.6-2.5c1-1,2.4-1,3.7-0.8c5.3,1,11,0.7,15.4,4.6
		c1,0.8,2.4,1,3.7,1.2c15.3,3.3,30.7,6.2,46,9.4c2.2,0.5,4,0,6-1c2.5-1.2,4.6-3.4,7.8-2.9c2.5,2.9,3.9,6.3,5.5,9.6
		c3.4,7.3,7.7,14.2,10.9,21.5C271.1,1634.5,272.3,1635.9,271,1637.5z"/>
	<path class="st4" d="M445.9,1732.1c0.4-1.6-1.1-4.1,0.9-4.6c1.8-0.5,1.9,2.2,2.9,3.4c3,3.4,4,8.2,8.4,10.7c0.5,0.3,0.4,1.8,0.4,2.8
		c0,10,0.1,20,0,30.1c0,2.1,0.5,4,1.5,6c5.3,9.7,10.4,19.5,15.8,29.1c1.1,2,1.2,3.8,0.4,5.9c-4.1,9.9-7.9,19.9-12.2,29.7
		c-1.9,4.5-2.5,8.7-1.3,13.5c2.8,11.5,5.3,23,8,34.5c0.3,1.1,0.3,2.1-0.1,3.2c-5.6,15.9-11.2,31.7-16.8,47.6
		c-0.3,0.9-0.6,1.9-1.6,2.5c-1.6-0.5-2-1.8-2.6-3c-5.7-11.2-10.9-22.5-16.7-33.6c-2.2-4.3-2.8-8.2-1.2-12.9
		c5.2-15.9,9.9-31.9,15-47.8c1-3.1,1.1-6.1,0.2-9.3c-3.2-11.2-6.3-22.4-9.6-33.6c-0.9-3-0.9-5.7-0.1-8.6c2.7-9.6,5.5-19.1,8.2-28.7
		c0.7-2.4,1.2-4.8,0.8-7.2c-0.9-4.6-0.6-9.3-0.7-13.9c-0.4-3.1,1.1-6.2-0.4-9.3C444.8,1736.2,444.3,1734.1,445.9,1732.1z"/>
	<path class="st4" d="M308.8,1489.3c-2.9-3.6-6.7-6.4-9.8-10c-2-2.3-3.3-4.5-3.9-7.3c-2.2-9.9-4.4-19.7-6.8-29.5
		c-1.5-6.4-5-12-9.7-16.8c-1.4-1.5-2.1-2.9-2.1-4.8c0.2-9.4,0.3-18.8-0.8-28.1c-1.3-10.6-5.3-20.3-11.7-29.1
		c-0.8-1.1-1.4-2.2-1.8-3.5c-2.8-10.2-5.6-20.5-8.5-30.7c3.2-7,7.8-13.1,12-19.6c1.9-2.9,3-6.3,6.1-8.3c1.6,1.2,1.7,3,2.1,4.6
		c3.1,11.6,6.1,23.3,8.9,34.9c0.9,3.7,2.6,6.7,6.2,8.5c5.8,3,8.1,7.7,9.2,13.6c1.4,7.6,3.2,15.1,5.4,22.5c2.5,8.3,3.1,16.6,1.2,25
		c-1.6,6.8-0.6,13.3,1.9,19.7c2.5,6.5,4.6,13.3,6.7,19.9c0.6,2,1.6,3.9,3.4,5.2c1.3,0.9,2.3,2,2,3.7c-2.7,8.8-5,17.7-7.7,26.5
		C310.9,1487,311.1,1488.9,308.8,1489.3z"/>
	<path class="st5" d="M341.1,1662.4c7.6,1.8,15.5,2.4,22.9,5.1c-3.5,5.3-8.6,9.4-12.8,14.2c-4.4,5-9.9,9-14.8,13.4
		c-7.7,7-15,14.5-20.9,23c1,6.7-2.1,11.7-7,16.2c-2.2,2-4.4,4.2-6.2,6.6c-2.2,2.9-5,4.2-8.7,3.8c-3.7-0.4-6.7,0.7-8.9,3.5
		c-4.3,5.2-9.6,9.7-14.6,14.3c-3.6,3.3-5.8,6.8-5.1,11.7c0.8,5.1-1,9.3-4.7,13c-2.6,2.5-4,6-7.3,8c-1.4,0.8-1.8-0.4-2.3-1.1
		c-6.9-8.6-13.8-17.2-20.6-25.9c-0.4-0.5-0.5-1.1-0.7-1.7c-0.4-2,1.1-3.1,2.3-4.4c3.6-4,7.3-8,10.8-12.1c2.7-3.1,6-5.4,9.5-7.6
		c5.5-3.5,11.1-7,16.7-10.4c3.2-1.9,5.9-4.1,7-7.6c2.9-9.3,10.8-13.6,19.3-17.4c4-1.7,6.8-4.4,8.3-8.3c0.2-0.6,0.6-1.1,0.9-1.6
		c3.6-8.8,9.6-15.7,18.2-20.9c5.6-3.3,10.1-8.1,15.2-12.1C338.6,1663.4,339.4,1662,341.1,1662.4z"/>
	<path class="st5" d="M353,1247.9c0-0.2,0-0.5,0-0.7c6.1-6.5,10.8-13.9,16.6-20.6c3.5-4,5.9-8.9,10.2-12.4c0.1,14-1,28-1,42
		c0,4.6-0.6,9.2-0.6,13.8c0,2.7-1.8,4.7-3.3,6.5c-3.4,3.7-4.1,8.1-4.5,12.5c-0.7,8.2-1.2,16.5-1.7,24.7c-0.2,3-0.6,6.1-1,9
		c-0.5,3.9,1,6.8,3.7,9.4c1.5,1.5,2.2,3.3,2,5.3c-1,9.4-2.2,18.8-2.8,28.2c-0.3,4.6-0.8,8.9-4.4,12.4c-0.5,0.5-0.6,1.6-0.6,2.4
		c0,8.9,0,17.8,0,26.7c0,0.7,0.1,1.5,0.8,2c2.2,2.1,2.7,4.7,2.7,7.4c0.1,8.5,0,17.1,0.1,25.6c0,2.7-0.9,5.1-2.9,7
		c-2.4,2.4-2.8,5-2.3,8.1c0.8,5.1,1.2,10.2,1.9,15.2c0.2,1.7,0.4,3.4-1,4.8c-1.1,2.9-2.4,3-5.5,0.7c-1.7-1.8-1.6-4.1-1.9-6.2
		c-0.8-5.6-1.4-11.1-2.2-16.7c-0.4-2.8,0-5.4,1.6-7.7c1.6-2.4,2.1-4.9,2.1-7.7c-0.1-5.9,0-11.7,0-17.6c0-3.3,0.4-6.6-2.5-9.3
		c-0.7-0.7-0.7-1.8-0.7-2.8c0-9.9,0-19.8,0-29.7c0-0.5,0.1-1,0.4-1.4c5.2-6.1,8.2-12.7,5.6-20.6c-0.2-0.7-0.2-1.5,0-2.2
		c1.5-9-1.6-16.8-7.8-23.6c-4.6-5-6.4-10.6-5.7-17.2c0.5-4.7,0.4-9.5,0-14.3c-0.7-9,0.8-17.5,5-25.6c2.1-4,1.6-8.2,1.2-12.2
		c-0.3-2.8-0.4-5.6-0.5-8.4C352.7,1252.9,354.1,1250.3,353,1247.9z"/>
	<path class="st5" d="M318.3,1459.2c0.2-1.2-0.4-2.1-1.6-2.7c-2.7-1.4-3.7-3.9-4.5-6.5c-2.7-8.4-5.4-16.8-8.2-25.1
		c-1-2.9-1.5-5.7-0.8-8.9c2.7-12.3,1.8-24.4-2.1-36.5c-2.2-6.8-3.4-14-5-20.9c-0.6-2.4-1.5-4.6-4.2-5.8c-7.8-3.5-10.1-10-11.6-17.3
		c-2.5-11.4-5.6-22.7-8.5-34c3.3-9,9.5-15.4,18.9-19.1c1.1,6.7,2.2,13.4,3.1,20.1c1.2,8.3,2.3,16.6,3.4,24.9c0.5,3.6,3,6.2,5.3,8.8
		c2.8,3.2,4.2,6.9,5.2,10.8c3.7,14.6,7.4,29.3,11.5,43.9c1.2,4.3-0.8,7.9-1.3,11.8c-0.2,1.9-0.5,3.9-1.3,5.7
		c-3.4,7.7-1.6,14.9,1.5,22.2c2.2,5.2,3.8,10.6,5.5,16c0.7,2,1.8,3.5,4.1,3.9c1.4,1,1.6,2.5,2,3.9c2.5,9.5,5.1,19,7.7,28.4
		c0.6,2.3,0.7,4.5,0.2,6.9c-1.3,5.4-2.2,10.8-3.4,16.2c-0.6,2.8-0.3,5.3,0.7,7.9c3.2,8.3,6.6,16.5,9.5,24.9c0.5,1.4,0.9,2.8,0.7,4.3
		c0.3,0.8,1.2,1.8,0.1,2.2c-2.4,1.1-3.5,3.9-6.4,4.4c-1.4-0.9-1.9-2.3-2.3-3.7c-3.4-11-6.6-22.1-10.5-33c-2.1-6-1.8-11.9-0.6-17.7
		c1.5-7,0-13.5-2.3-20.1C321.2,1469.8,318.8,1464.8,318.3,1459.2z"/>
	<path class="st5" d="M446.7,1747.5c0.2,4.5-0.1,9,0.7,13.5c1.1,6.1-2.1,11.7-3.5,17.4c-1.8,7.3-4.1,14.6-6.2,21.9
		c-0.3,1.1-0.2,2.1,0.1,3.2c3.5,12.2,6.8,24.5,10.6,36.6c1.6,5.3-0.9,9.8-2.3,14.5c-4.7,15.6-9.6,31.1-14.5,46.6
		c-0.8,2.5,0.7,4.3,1.6,6.2c6.3,13,12.8,25.9,19.2,38.9c-4,1.8-7.9-0.1-11.8-0.2c-5.8-0.1-11.6-1.1-17.5-1.3c-3.5-0.1-6.3-1-5.3-5.1
		c0.5-6,0.5-12.1,1.5-18.1c0.2-1.4,0.5-3.1-0.6-4.3c-4-4.2-3.3-8.9-2.4-13.8c1.1-6.5,2.1-12.9,3.2-19.4c0.6-3.5,2.2-6.9,4.3-9.7
		c5.6-7.3,6.5-16,9.1-24.2c2.7-8.7-0.5-16.8-2.1-25c-1-5-2.3-9.9-3.4-14.9c-0.6-3,0.5-5.8,1.4-8.6c3.4-11.5,6.8-22.9,10.2-34.4
		c0.2-0.7,0.1-1.5,0.1-2.2c-1.8-8-1.9-16.2-2.5-24.3c-0.6-8.1,1.6-15.9,4.9-23.4c3.7,0.3,3.5,3.1,3.9,5.4c0.5,3.1-0.9,6.3,0.8,9.2
		c0,2.2,0,4.4,0,6.6C447.4,1741.6,445.4,1744.7,446.7,1747.5z"/>
	<path class="st4" d="M295.4,1707.9c-4.1,2.2-8.1,4.4-12.3,6.4c-1.3,0.6-1.9,1.6-2.5,2.7c-1.9,3.6-3.9,7.2-5.6,10.9
		c-1,2.1-3,3-4.8,4.1c-4.7,3.1-9.4,6.2-14.3,8.9c-8.7,4.7-14.8,11.8-21,18.8c-2,2.2-3.8,4.6-5.7,6.9c-3.5-0.5-5.8-3.1-8.6-4.8
		c-7.4-4.3-14.6-8.7-21.9-13.2c-0.7-0.4-1.2-1.2-1.8-1.9c14.5-9.7,28.9-19.5,43.5-29.1c3.4-2.2,3.9-5.6,5.1-8.7
		c0.7-1.8,1.3-3.4,3.6-4c9.7-2.4,19.3-4.9,29-7.4c3.2-0.1,16.4,6.8,17.7,9.3C295.9,1707.3,295.7,1707.6,295.4,1707.9z"/>
	<path class="st5" d="M260.7,1558.3c-2.5-2.8-6.4-2.2-9.6-3.5c-2.5-1-5.2-1.7-7.9-2c-5.4-0.6-8.3-4.2-11.6-7.5
		c-4.5-4.5-8.2-9.7-13.7-13.4c-5.3-3.6-10.9-5.3-17.2-3.5c-5.9,1.7-10-1.1-13.5-4.6c-4.5-4.6-7.3-10.4-9.9-16.1
		c-1.3-3-2.7-5.5-5.9-7.3c-4-2.3-7.5-5.3-11.6-7.4c-0.3-6.2-2.8-12.1-3.6-18.2c-0.1-0.9-0.5-1.6,0.4-2.3c7.5,4.8,14.9,9.8,22.6,14.5
		c4.2,2.6,7.2,6.1,9.1,10.2c5.6,12.3,15.7,17.9,29.6,18.6c1.6,0.1,2.5,0.5,3.6,1.7c5.6,6,11.4,11.7,17,17.6
		c2.8,2.9,5.8,4.9,10.3,5.1c4.8,0.2,9.4,2,14.2,2c2.3,0.3,3.5,1.6,4.6,3.4c6.3,10.4,12.3,21,18.6,31.4c1.3,2.2,2.9,3,5.5,3.3
		c5.1,0.7,10.2,0.2,15.2,1.2c3,0.6,5.3,1.9,6.4,4.7c1.1,3.1,2.9,6.1,1.6,9.5c-2.4,0.6-4-0.9-5.7-1.9c-3.1-2.1-6.6-2.9-10.4-3
		c-4.1,0-8.1-0.8-12.1-1c-3.3-0.1-5.9-1.7-7.8-4.4c-5.4-7.7-10.9-15.3-16.4-22.9C261.9,1561.2,261.5,1559.7,260.7,1558.3z"/>
	<path class="st5" d="M254.4,1602.3c-3.2,0.2-5.4,2.2-8,3.6c-1.9,1-3.5,1.4-5.8,0.9c-15.9-3.3-31.8-6.5-47.7-9.7
		c-0.9-0.2-2-0.3-2.5-0.9c-5.2-5-12.2-4-18.7-5c-2.2-1.3-1.4-3.5-1.7-5.3c-0.8-4.1-1.5-8.1-1.4-12.3c10.1,2.2,20.3,4.4,30.4,6.6
		c1.3,0.3,2.1,1.1,2.8,1.9c5,6.7,12.6,9,20.6,10.5c1.4,0.3,2.9,0.5,4.2,1c7.2,2.9,13.7,2.7,19.4-2.9c2.7-2.6,5.6-0.3,8.5-0.3
		c6.4,0.2,12.2,2.5,18.3,3.9c0.5,0.1,0-0.2,0.3,0.2c6.6,6.9,16.3,5.8,24.7,8.1c4.5,1.2,9.3,1.7,13.8,2.8c0.8,0.2,1.4,0.7,2,1.2
		c1.1,2.9,1.3,5.9,0,8.8c-1.4,1.1-3,0.7-4.5,0.5c-11.2-1.7-22.5-3.4-33.7-5.2c-1.3-0.2-2.8-0.3-3.7-1.2c-3.5-3.5-8.3-4.4-13-5.4
		C257.1,1603.8,255.6,1603.4,254.4,1602.3z"/>
	<path class="st4" d="M252.9,1795.2c2.3-4.1,5.7-7.5,8.7-11.2c1.7-2.1,2.8-4.2,2.3-6.7c-1.3-7.5,1.9-13,8-17.8
		c4.9-3.8,9.2-8.4,13.2-13c1.8-2.1,4-3,6.9-2.7c4.3,0.6,7.7-0.4,10.3-4.2c2-3,5.1-5.5,7.8-8.2c3-3,5.4-6.2,4.4-10.7
		c-0.2-1.1,0-2.2,0-3.3c1-0.6,2.1-0.9,3.3-1.1c5.8-0.7,7.4,0.5,7.3,5.9c0,2.5,0.5,5.1-0.4,7.6c-6.6,7.7-13.1,15.4-19.7,23.1
		c-1.4,1.6-3,3.1-5.4,3.3c-3.4,0.2-5.6,2.2-7.5,4.6c-0.8,1-1.5,2-2.4,2.9c-3.7,3.6-6,7.5-5.1,12.8c1.9,10.6-3,20-6.3,29.7
		c-3.4,0.3-5.8-1.8-8.7-2.9c-4.4-1.8-8.8-3.5-13.2-5.4C254.9,1797.3,253.1,1797.1,252.9,1795.2z"/>
	<path class="st6" d="M441.2,1717.5c-0.5,5.2-2,10.3-3.2,15.3c-1.6,6.5,0.4,12.8,0.5,19.2c0.1,4.4,1.3,8.8,0.4,13.2
		c-0.6-1.3-1.9-1.6-3-2.1c-11.6-5.2-23.1-10.3-34.7-15.5c-1.4-0.6-2.7-0.9-4,0c0.5-2.2,2.1-3.9,3.7-5.4c5.7-5.7,6.2-13.1,8-20.1
		c1.9-7.4,3.3-14.9,5.6-22.2c7.9,3.7,15.8,7.3,23.6,11C440.1,1712.7,442.7,1714.2,441.2,1717.5z"/>
	<path class="st7" d="M413.6,1498.1c2-6.8,2.9-13.8,5.3-20.5c0.6-1.6,0.6-3.4-0.1-5c-2.1-4.6-1.3-8.6,1.5-12.9
		c5.6-8.6,10.8-17.4,16.2-26.2c1-1.1-0.1-2.6,0.8-3.7c0-1.7,0-3.4,0-5.1c1.1-1.9-0.3-4,0.8-5.9c0-1.2,0-2.4,0-3.7
		c3.3,0.1,5.2,2.3,7.1,4.4c-3.5,9.1-7.9,17.8-12.4,26.4c-2.9,5.5-3.6,10.6-1.4,16.3c2.2,5.8,3.8,11.9,5.7,17.8
		c0.7,2.3,0.6,4.5-0.1,6.8c-4.1,14.7-8.3,29.4-12.2,44.1c-0.7,2.6-1.6,3.5-4,1.5c0-2.1,0.1-4.1,0.6-6.1c1.1-3.8,0.8-7.6-0.9-11.3
		C417.9,1509.5,416.8,1503.5,413.6,1498.1z"/>
	<path class="st4" d="M314.3,1852.5c2.3-4,4.5-8,6.8-11.9c0.5-0.8,1-1.8,1.8-2.3c8.3-5.2,8-14.3,11.3-21.8c1-2.3-1.5-4.6-2.8-6.6
		c-1.9-3-1.9-5.6-0.3-8.8c3.7-7.8,7.4-15.6,10.3-23.7c1.9-5.1,6.6-7.5,10.4-10.6c3.1-2.5,5.2-5.3,6.7-8.7c2-4.5,4-9,6.1-13.5
		c1.2-2.1,2.4-4.3,5.5-4.3c0,0,0.1,0.2,0.1,0.3c0,0.1-0.1,0.2-0.1,0.4c-3,7-6,14-9,21c-0.7,1.7-1.4,3.6-3.2,4.5
		c-5.8,3-7.5,8.5-10,13.6c-1.9,3.9-3.6,7.8-5.5,11.7c-0.8,1.5-0.8,3-0.1,4.6c1.1,2.5,2.1,5,3.2,7.5c0.9,1.9,0.8,3.7,0,5.6
		c-3.8,8.9-8.4,17.6-10.8,27c-0.5,1.9-2,3.2-3.7,4.1c-4.8,2.5-6.5,6.4-7.5,11.2c-1.4,6.9-3.1,13.8-4.7,20.6
		C316.8,1865.8,315.2,1859.2,314.3,1852.5z"/>
	<path class="st8" d="M445.2,1419.6c-2.4-1.5-4.7-2.9-7.1-4.4c-0.9-12.9,3.4-24.6,9.8-35.8c4.9-8.7,7.5-17.8,6.7-27.7
		c-0.7-8.6,3.2-16.2,5.3-24.1c2-7.3,4.3-14.5,6.5-21.7c5.8,7.3,7.2,15.3,5.4,24.1c-1.1,5.4-1.7,10.8-2.2,16.2
		c-0.2,2.3-0.8,4.2-1.8,6.3c-7.4,14.3-14.8,28.6-22.3,42.8c-1.1,2-0.3,3.8-0.3,5.6C445.1,1407.1,445.2,1413.4,445.2,1419.6z"/>
	<path class="st6" d="M364.8,1477.6c-0.1-6.9-1.3-13.7-2.2-20.5c-0.4-2.9-0.6-5.7,2.3-8c2.3-1.7,3.2-4.2,3.1-7.1
		c-0.2-5.1-0.1-10.2-0.1-15.3c0-5.8,0.5-11.6-1.6-17.3c5.8-0.2,11.2-2,16.8-3c10.5-2,20.8-4.3,31.3-6.5c-0.8,7.5-3.3,14.7-4.9,22
		c-0.6,2.6-1.3,5.2-2,7.8c-0.9,3.2,1.8,4.9,3.5,6.9c1.3,1.6,1.9,2.8,1.3,4.9c-1.2,4.5-1.9,9-2.6,13.6c-0.2,1.1-0.3,2.2-1.4,2.9
		c-4.3,2.8-4.8,7.2-5.8,11.5c-1.2,5-2.6,9.9-3.9,14.8c-10.1-1.4-20.2-3-30.4-4.3C366.3,1479.7,365.7,1478.7,364.8,1477.6z"/>
	<path class="st6" d="M345.1,1542.9c-4-10.3-7.9-20.6-11.9-30.8c-1.8-4.5,0.9-8.6,1.3-12.8c0.4-3.9,1.6-7.8,2.6-11.7
		c0.5-1.9-0.5-3.6-0.9-5.3c-2.7-10.6-5.5-21.2-8.3-31.8c8.8-12,17.6-24.1,26.5-36.1c1-1.4,1.2-2.9,1.1-4.5c0-8.9,0-17.8,0-26.7
		c0-1.3-0.5-2.7,0.8-3.8c0,9.9,0,19.8,0,29.7c0,2.1,0.2,3.9,2.5,4.9c1.6,0.7,1.5,2.2,1.5,3.5c0,8.4,0,16.8,0,25.3
		c0,0.8,0.1,1.9-0.4,2.5c-6.4,7.2-1.8,15.1-1.6,22.8c0.1,3.5,0.8,7,1.2,10.5c-0.2,6.5-2.2,12.6-3.5,18.9c-2.9,13.9-6,27.7-9.1,41.6
		C346.4,1540.3,346.2,1541.7,345.1,1542.9z"/>
	<path class="st6" d="M313.5,1586.1c-3.7-3.9-8.6-4.5-13.8-4.5c-3.5,0-7-0.5-10.5-0.7c-1.6-0.1-2.2-1-2.9-2.1
		c-6.6-11.1-13.2-22.1-19.7-33.2c-0.9-1.5-2-2.7-3.6-3.6c1.6,0.2,3-0.4,4.4-1.2c5.8-3.5,11.3-7,13.7-13.8c2.8-7.7,6.9-15,11-22.2
		c0.5-1,1-2,0.9-3.1c2,3.5,2.5,7.4,2.9,11.2c0.9,8.3,4.8,15.1,10.5,21c7,7.2,10.5,15.8,11.9,25.2c0.9,6.1,5.5,9.7,9.4,13.9
		c-4.4,2.8-6.9,7.5-11,10.6C315.6,1584.4,314.6,1585.3,313.5,1586.1z"/>
	<path class="st6" d="M254.4,1602.3c6.2,1.5,13.1,1.2,17.8,6.5c0.4,0.5,1.4,0.7,2.1,0.8c12.6,2,25.1,3.9,37.7,5.9c0.5,0.1,1,0,1.6,0
		c0.4,5.1-0.9,10.3,0.8,15.4c-12.4,1.7-25.1,2.2-37.3,5.3c-2,0.5-4,0.9-6.1,1.3c-0.6-3.9-3-7.2-4.7-10.7c-3.5-7.2-7.3-14.3-11-21.4
		C254.8,1604.4,254.3,1603.4,254.4,1602.3z"/>
	<path class="st6" d="M318.3,1459.2c4.1,8.5,6.5,17.4,9,26.3c1.1,4.1-0.2,8.9-1.3,13.3c-1.4,5.4,0,10.3,1.6,15.4
		c3.8,11.8,7.5,23.5,11.2,35.3c-1.9,2.3-4,4.4-4.7,7.3c-3.9-1.2-5.9-4.3-6.8-7.5c-2.1-6.8-3.4-13.7-5-20.6c-0.2-0.9-0.5-2.1-1.2-2.6
		c-5.5-4.7-5.9-11.2-7.4-17.3c-1.6-6.5-2.6-13.1-4.7-19.5c2.6-6.9,4.2-14.1,6.3-21.2C316.1,1465.1,316.4,1461.9,318.3,1459.2z"/>
	<path class="st6" d="M313.5,1606.7c-11.2-2.1-22.5-4.3-33.7-6.5c-0.9-0.2-2.1-0.2-2.6-0.7c-4.8-6.1-12.7-5.4-19.2-7.7
		c-1.2-0.4-2.7-0.1-3.6-1.2c0.7-0.3,1.4-0.8,1.5-1.6c1.6-10.2,3.2-20.5,4.8-30.7c6.3,8.7,12.7,17.2,18.8,26c2.4,3.6,5.6,4.7,9.8,4.8
		c4.4,0.2,8.8,0.5,13.3,0.9c4.9,0.4,8.2,4.1,12.6,5.7C316.4,1599.6,313.7,1603,313.5,1606.7z"/>
	<path class="st6" d="M295.4,1707.9c-1.8-3.2-5.6-4-8.6-5.8c-2.8-1.7-5.8-3-8.8-4.5c2.6-3.8,5.3-7.5,7.7-11.4c2.1-3.5,4.8-6,9.1-6.9
		c10.8-2.4,18.7-9.2,27-15.4c5.1-3.7,9.6-8.2,15.3-11c0.9,3.3,2.4,6.4,3.9,9.5c-9.5,7.4-18.3,15.4-28.6,21.9c-0.9,0.6-1.5,1.7-2,2.7
		c-2,3.7-4.2,7.3-5.9,11.1C302.7,1702.4,300.2,1706.1,295.4,1707.9z"/>
	<path class="st6" d="M324.6,1729.9c0-3-0.1-6,0-9.1c0.1-2.5-0.9-3.6-3.7-3.4c-2.2,0.1-4.4,0-6.6,0c6-6.7,12-13.5,18.1-20.1
		c2.1-2.3,4.7-4.2,7.3-6.1c7.6-5.7,13.2-13.1,19.7-19.7c1.4-1.4,2.7-3,4.5-4c1.1,1.2,2.1,2.4,3.2,3.7c-2.9,4.8-7.4,8.4-11,12.8
		c-3.6,4.3-7.5,8.4-11.3,12.6c-0.6,0.6-1.4,1.6-2,1.6c-4.1-0.4-5.1,2.7-6.9,5c-1.9,2.4-3.5,4.9-5.4,7.1c-3.7,4.4-6.1,9-5.1,14.8
		C325.5,1726.6,326,1728.5,324.6,1729.9z"/>
	<path class="st6" d="M370.3,1740.9c-2.8-0.1-3.3,3-5.5,3.7c-3-3.7-2.6-7.1-0.4-11.3c7.2-13.4,13.9-27.2,20.9-40.8
		c0.5,0.5,1.1,1,1.6,1.5c-4.9,11.3-9.8,22.7-14.8,34c-1.1,2.6-2.6,5-0.6,7.9C372.6,1737.7,371.5,1739.4,370.3,1740.9z"/>
	<path class="st2" d="M353,1247.9c1.6,2.3,0.4,4.9,0.8,7.3C352.1,1253,353.3,1250.4,353,1247.9z"/>
	<path class="st2" d="M438.1,1418.9c-0.3,1.9,0.8,4.1-0.8,5.9C437.6,1422.8,436.5,1420.7,438.1,1418.9z"/>
	<path class="st2" d="M437.3,1429.9c-0.2,1.2,0.5,2.6-0.8,3.7C436.7,1432.3,436,1430.9,437.3,1429.9z"/>
	<path class="st2" d="M446.7,1747.5c-1.6-2.8-0.4-5.9-0.8-8.8c1.1,0.1,1.8,0.6,1.4,1.7C446.3,1742.8,446.9,1745.2,446.7,1747.5z"/>
	<g>
		<path class="st9" d="M315.7,1596.6l-2.2-9.6l-5.3-4.6l-21.3-1.4l-22.6-38.1c0,0-2.6,14.5-3.8,14.5c-1.2,0,21.9,31.1,21.9,31.1
			l22.7,1.9L315.7,1596.6z"/>
		<polygon class="st9" points="365.2,1408.4 367.6,1414.6 368,1445.1 361.9,1452 365.2,1479.6 359.4,1479.6 355.7,1451.3 
			360.2,1444.4 360.2,1414.9 355.7,1411.9 		"/>
		<polygon class="st9" points="309.3,1489.9 316.4,1520.7 321.7,1527 327.9,1551.8 334,1557.6 328.7,1573.2 320.5,1565.2 
			314.6,1543.8 298.7,1523.9 293.8,1502.1 		"/>
		<polygon class="st9" points="327.4,1450.9 336.8,1486.4 331.9,1509.8 345.4,1544.6 338.9,1549.9 324.9,1505.9 327.4,1485.3 
			318,1457.4 		"/>
	</g>
	<polygon class="st9" points="414.9,1399.6 407.1,1431.8 412.8,1438.6 409.1,1457.4 404.6,1461.2 398.4,1484.9 413.6,1498.3 
		419.4,1474.6 416.9,1465.4 423.3,1454.4 436.5,1433.3 439.1,1397.3 	"/>
	<polygon class="st9" points="442.8,1716.3 438.1,1737.1 440.5,1764.9 448.2,1766.5 445.9,1720.8 	"/>
	<polygon class="st9" points="386.9,1694.5 370,1733.1 372.1,1737.4 397.3,1746.3 405.3,1735.9 414,1699.8 	"/>
	<polygon class="st9" points="342.3,1662.7 364.9,1667.3 344,1689.2 335.7,1695.2 315.2,1717.4 302.1,1705.2 313,1685.3 
		324.7,1677.1 	"/>
	<polygon class="st9" points="367.5,1672.1 343.5,1698.7 339.8,1698.7 325.4,1718.2 364.8,1745.3 362,1739.2 385.5,1693 	"/>
	<polygon class="st9" points="271.5,1637.5 294.1,1632.9 299.4,1632.9 313.7,1631 336.4,1652.8 306.3,1675.3 288.8,1681.4 
		278.1,1697.5 	"/>
	<polygon class="st9" points="253.3,1603.1 268.4,1606.4 272.8,1610.5 313.8,1616.9 313.8,1608.2 276.9,1601.1 273,1596.9 
		248.1,1590.6 	"/>
</g>
<path class="st1" d="M1364.9,703.9v-28l-1.1-8l1.1,63v26v-12l-8.4,21l-20.4,27.6c0,0-1.8,6.5-9.9,19.5c-1.1,1.8-2.4,3.8-3.8,5.9
	c-2.2,3.2-4.2,6.4-6.2,9.6c-1.4,2.3-2.8,4.4-4,6.5c-6.1,10.2-10.3,17.8-10.3,17.8s-3.5,9.5-8.1,21.1c-1.8,4.5-4.6,9.1-7.5,13.3
	c-0.3,0.5-0.7,1-1,1.4c-2,2.8-4.1,5.4-5.9,7.6c-2.1,2.4-3.8,4.4-4.8,5.3c-2.3,2.2-6.3,8.2-8.5,12.2c0,0-0.1,0.2-0.1,0.2c0,0,0,0,0,0
	c-1,1-1.6,2.6-1.6,2.6l-11.4,22.2c0,0-1.9,5.1-5,12.9c0,0,0,0,0,0c-0.1,0-0.2,0-0.2,0c0,0,0,0.1,0,0.1c-0.6,1.5-1.1,3-2,4.6
	c0,0,0,0,0,0c-0.1,0.1-0.1,0.2-0.1,0.4c0,0,0,0,0,0c-1.1,3.6-3.2,7.6-4.3,11.9v0l-0.1,0c-1.6,3.9-3.3,7.9-5.1,12.1c0,0-0.2,0-0.2,0
	v0c-2.1,5.3-4.3,10.7-6.4,15.9c0,0,0,0,0,0c0,0.1-0.2,0.2-0.3,0.3c-0.8,1-0.9,1.9-1.3,2.8c0,0.1-0.1,0.1-0.1,0.2
	c-1.5,3.2-3,6.3-4.4,9.2l0,0c-0.4,0.8-0.8,1.6-1.2,2.4c-0.1,0.1-0.1,0.2-0.2,0.3c-5.7,11.4-11,20.2-14.8,23c0,0,4.5-11.4,8.8-23.7
	c0-0.1,0-0.1,0.1-0.2c0.3-0.9,0.6-1.7,0.9-2.6c1-2.9,2-5.8,2.8-8.5c0,0,0-0.1,0-0.1c2.3-7.1,4-13.4,4.3-16.9c0.1-1.5,0-2.5-0.6-2.8
	c-0.8-0.4-2.8,1.5-5.8,4.7c-3.2,3.4-7.5,8.4-12.9,13.8c-0.4,0.4-0.8,0.8-1.2,1.2c0,0,0,0,0,0c-4,3.9-8.5,8-13.5,11.8
	c0,0,0,0-0.1,0.1c-14.9,11.5-34.2,21.1-56.8,18.3c0,0-9.4,31.6-82,16.2c0,0-13.1,2.9-29.1,15.8c-1.4,1.1-2.9,2.4-4.3,3.7
	c-3.7,3.3-7.4,6-11.1,8.2c-14.5,8.8-27.8,10.4-27.8,10.4s-13.5,11.8-14.8,23.3c-0.4,3.8-6.3,19.3-16,39c-4.1,8.2-8.8,17.1-14.1,26.2
	c0,0,0,0.1-0.1,0.1c-20.9,36-50.6,74.6-82.3,82.4c0,0,48.3-47.4,71.6-82.4c0,0,0.1-0.1,0.1-0.1c6.9-10.4,11.6-19.6,12.2-26.2
	c0.3-3.2-0.4-5.8-2.3-7.5c-18.7-17.7,14.3-59.2,21-60.9c1.7-0.4,4.4-2.8,7.8-5.8c3.5-3.1,7.9-7,12.7-10.3c9.1-6.2,20-10.4,31.1-4.5
	c0,0,33.6-29.7,69.1-22.5c35.5,7.2,54-12,51.6-13.5c-2.5-1.5,31.6-9.2,34.1-6.9c0.4,0.4,2.3-0.5,5.3-2.4c0,0,0,0.1,0,0.1
	c4-2.5,9.9-7.3,16.6-12.3h-0.3v-0.2c5.4-3.8,9.7-8.2,14.7-12.9c7.3-7,14.7-14.8,20.8-22.7c6.9-8.9,12.2-18,14.4-26.4l10.9-5.7
	c0,0,1.9-8.7,4-18.8c1.4-6.8,2.8-14.3,3.7-20.3c0.2-1.5,0.4-2.9,0.6-4.2c0.3-3.1,0.4-5.4,0.2-6.4c-0.4-1.3-1.8,1.5-4.5,6.4
	c-4.2,7.5-11.4,19.9-22.4,30.6c-0.5,0.5-1,1-1.5,1.5c0,0,0,0-0.1,0c-2.7,2.5-5.6,5-8.7,7l0,0c0,0-0.1,0.1-0.1,0.1c0,0,0,0,0,0
	c-3.3,2-6.9,4-10.8,6h0c-0.4,0-0.9,0-1.3,1h0c-0.1,0-0.2,0.1-0.3,0.1c-4.1,1-8.6,2.9-13.3,3.7c0,0,0,0.2-0.1,0.2
	c-2.6,0.4-5.4,0-8.2,0.9c-0.1,0-0.3,0.1-0.4,0.1h-0.1c-2.7,0-5.5-0.3-8.4-0.5c0,0-6.8-2.9-10.2-0.9c0,0,0,0,0,0
	c-0.2,0.1-0.4,0.1-0.5,0.3c0,0,0,0,0,0c-0.4,0.3-0.7,1.2-0.9,1.2c0,0,0,0,0,0s0.1,0,0.1,0.1v0c0,0-0.1,0-0.1,0.1
	c-0.6,1.9-0.5,3.5,0.5,6.5c0.2,0.6,0.3,0.9,0.4,1.4c0,0.1,0,0.1,0,0.2c0.8,4.1-1,5.7-3.8,6.7h0c-0.2,0-0.4,0-0.6,0c0,0,0,0,0,0
	c-0.1,0-0.2,0.1-0.3,0.2c-3.7,1.8-8.7,0.6-12.2,1.3c-0.1,0-0.3,0.1-0.4,0.2c0,0-0.1,0-0.1,0c-1.3,0.3-2.4,0.9-3.1,1.6
	c-4.2,4.8-5.1,8-6.1,14.3c-0.4,2.5-2.6,6.8-6.4,10.8l0,0c-5.8,6.1-15.5,11.9-28.4,10.8c-1.4-0.1-2.7-0.1-4.2-0.1h-0.1
	c-11.7-1-25.6-0.1-36.4-7.8c-0.1,0-0.1-0.1-0.2-0.1c0,0,0,0,0,0c-3.9-2.9-7.5-6.9-10.3-12.4c0,0,0-0.1,0-0.1
	c-3.4-6.6-5.9-15.5-7-27.3l-27.3,6.2l-29.3,6.6l-6.3,6.8l-10.8,11.5l-0.3,0.1l-0.2,0.1l-0.4,0.3c0,0,0,0,0,0v0.4c0,0,0,0,0,0
	l-5.7,6.4c0,0,0.3,4.8-0.8,12.1c0,0,0,0.1,0,0.1v0.1c0,0.3,0,0.7,0,1.1v0.5c0,0,0,0,0,0v0.2c0,0,0,0,0,0c0,1.7-1.1,3.4-1.1,5.3v0
	c0,0,0,0,0,0c-1.1,4.1-1.1,8.6-2.1,13.2c0,0,0,0,0,0c0,0.1,0,0.2-0.1,0.2c0,0.4-0.2,0.8-0.3,1.3c0,0.1,0,0.1-0.1,0.2
	c-3.5,16.5-10.2,34.6-21.3,43.4c-0.7,0.6-1.4,1.1-2.1,1.5l-0.3-1.5l-1.6-13.6l0-0.6v0l-1-11c0,0-2.7,10.1-7.5,25.1
	c-0.3,0.8-0.5,1.6-0.7,2.5c0,0,0,0,0,0c0,0,0,0.1,0,0.1c0,0,0,0,0,0c-0.9,2.7-1.8,5.6-2.8,8.6c-7.2,21.7-17.3,49.6-28.9,73.3
	c-4.7,9.7-9.7,18.7-14.8,26.2c0,0,0,0.1-0.1,0.1c-9.3,13.8-19,22.9-28.5,22.8c0,0,5.6-9.6,12.8-22.8c0,0,0-0.1,0.1-0.1
	c4.3-7.9,9.2-17,13.8-26.2c0.8-1.6,1.6-3.3,2.4-4.9c10.4-21.3,18.4-41.6,13.5-45.3c-5.7-4.3-18.5,23.2-34.1,50.2
	c-5.1,8.7-10.4,17.4-15.9,24.9c0,0,0,0,0,0c-0.3,0.4-0.6,0.9-1,1.3c0,0-0.1,0.1-0.1,0.1c-8.7,11.6-17.8,20.1-26.7,21.3
	c-0.8,0.1-1.6,0.2-2.3,0.1c-9.4-0.1-17.4,2.2-24.4,4.4c-4.7,1.4-8.9,2.8-12.8,3.5c0-3.6-0.1-7.1-0.2-10.7c0.4-0.4,0.8-0.9,1.1-1.3
	c2.5-1.4,5.5-3.5,9-6.8c3.7-3.5,6.6-7,9.1-10.4c3.6-5,6-9.9,7.7-14.4c0.7-1.7,1.2-3.4,1.7-5c0.7-1.1,1.4-2.2,2.1-3.2
	c0.8-1.2,1.5-2.4,2.2-3.6c0.5-0.9,1.1-1.8,1.6-2.7c0.7-1.2,1.4-2.4,2.1-3.6c0.3-0.5,0.6-1,0.9-1.5c17.7-20.4,32.7-42.9,44.3-66.8
	c1.3-2.7,2.6-5.3,3.8-8c0.4-0.6,0.8-1.2,1.2-1.9c0.5-0.9,1-1.7,1.6-2.6c7-6.7,13.7-13.7,20-21c3.5-4,6.9-8.1,10.1-12.3
	c5,0.2,12.6-7.8,21.2-18c0.5-0.6,1-1.2,1.5-1.8c6.8-8.1,14.2-17.4,21.6-25c3.8-4,7.6-7.5,11.3-10.2c6.4-4.7,12.5-6.7,17.7-4.1
	l1.9-2.1l10.5-11.8l11.5-3.4l29.6-8.8l26.6-7.9c0,0,12.2-4.4,9.9,3c-1.2,3.8-2.1,22.5,6.8,34.9c7.6,10.6,22.2,16.7,49.6,5.7
	c2.6-1,5.3-2.2,8.1-3.6c0,0,0-6.3,1.7-12.9c1.2-4.7,3.3-9.6,6.9-12.4c2.5-2,5.9-3.1,10.1-2.3c0,0,5.5-23,25.8-26.4c0,0,0-0.1,0-0.1
	c0.3,0,0.6-0.2,0.9-0.2c0,0,0,0,0,0c0.1,0,0.1,0,0.2,0c4.6-0.9,9.9-0.1,16,1.7c0,0,7.5-1.7,17.9-7.3c0,0,0,0,0.1,0
	c6.3-3.4,13.7-8.2,21-14.9c0.1-0.1,0-0.2,0.2-0.3c0.5-0.5,1.4-1,1.4-1.5v0c3.2-2.4,5.1-5,7.5-7.8c11.3-13.4,21.4-32.1,25.9-58
	c0,0,2-6.1,10.1-14.3c0.4-0.4,0.8-0.8,1.2-1.2c7.3-7.1,18.9-15.6,37.5-23.1l14.8-11.6l0.2-0.2l47.9-40.3v-9v-14V703.9z"/>
<g>
	<path class="st10" d="M1054.4,2116.4c0,0-33.4,6.3-36.8,4.9c-3.4-1.4-24.8,3.7-24.8,3.7s-31.1,13.5-35,13.6
		c-3.9,0.1-37.1-0.4-47.2-7.1c-10.1-6.7-53.9-31.7-53.9-31.7l-45.8-20.7l-38.7-61.9l128.5,3L1054.4,2116.4z"/>
	<path class="st11" d="M710.6,2115.6c0,0,28-9.2,33-8.8c5,0.4,13.9,4.3,17.3,3.3c3.4-0.9,22.9,2.2,26.8,5.7
		c3.9,3.5,17.8,6.5,23.4,5.4c5.6-1.1,14-2,14-2s17.6-12.5,21.1-13.2c3.5-0.7,10.1-6.3,10.1-6.3s-9.2-19.9-15.4-23.1
		c-6.1-3.2-10-9.1-10.6-9.9c-0.6-0.8-7.8-9.3-7.8-9.3l-10-5.5l-23.3-19.3l-17.2-15.3l-98.1,43.4L710.6,2115.6z"/>
	<path class="st12" d="M706.8,2097.9c0,0,1.1-30.6,15.9-34.3c14.8-3.8,28-13.4,30.6-19.8c2.6-6.4,9.6-17.1,9.6-17.1l-49.6-40.6
		l-50.1,3.4l-70.8-24.5l-32.4,11.6l113.7,109L706.8,2097.9z"/>
	<path class="st13" d="M699.9,1998.4c0,0-34.5-7.6-43.1-38.3l51.7-32.3l100.8,16.4l39.7,21.6l108,70.9l97.8,76.4
		c0,0-17.8-0.6-27.5-3.2c-9.7-2.6-26-4.2-31.3-1.7c-5.2,2.5-43.2,5-52.5-0.2c-9.3-5.2-29.6-32.6-29.6-32.6s-29.9-39.5-47.8-37.7
		l-16.8-3c0,0-66.2-1-69.5-3.6c0,0-35.7-6-51.6-25.9L699.9,1998.4z"/>
	<path class="st10" d="M589.8,1976.8c0,0,12.6,4.7,22.3,5.7c9.7,1,26,2.6,31.6,9.3c5.5,6.8,18.2,9.1,23,11.6
		c4.8,2.5,15.2,7,16.7,5.3c1.5-1.7,11.6-11.1,16.5-10.3c4.8,0.9-13-4.5-24.3-16.7c-11.3-12.2-18.8-21.7-18.8-21.7l-9-19.5l-41,6.8
		L589.8,1976.8L589.8,1976.8z"/>
	<path class="st11" d="M652.2,2080.1c37.2,36.9,58.4,35.4,58.4,35.4l-3.8-17.7l-79-86.2L652.2,2080.1z"/>
	<path class="st11" d="M514.7,2095.4c0,0,23.4,3,31.3,2.9c7.8-0.2,40.7,9.5,48.5,6.6c7.8-2.9,29.1-6.8,35.7-1.5
		c6.7,5.3,21.9-23.1,21.9-23.1l-6.6-19.5l-42.2-46.8L514.7,2095.4L514.7,2095.4z"/>
	<path class="st14" d="M435.6,2071.7c0,0,36.8,7.6,38.5,6.6c1.7-1.1,31.7,17.9,40.7,17c0,0,84.6-44.6,87.3-45.2
		c2.8-0.6,14.5,3.9,23.4,5.4c8.9,1.5,20.1,5.1,20.1,5.1l-17.8-49c0,0-40.3-25.2-45.9-33.6c-5.6-8.5-11.7-15.2-11.7-15.2l-68.8,18.3
		L435.6,2071.7L435.6,2071.7z"/>
	<path class="st15" d="M335.9,1937.8l31.7,124.9c0,0,17-6,26.1-0.3c9,5.7,53.2,15.5,62.9,11.9c9.7-3.6,51.4-35.1,51.4-35.1
		l104.6-57.5l-79.5-55.7L335.9,1937.8z"/>
	<path class="st16" d="M1099.9,2070c0,0,5,15,8.1,25.6c3.1,10.6,11.2,33.9,11.5,42.1c0.3,8.2,4.6,15.5,2.6,15.9
		c-2,0.4-61.8-29.8-68.1-35.9c-6.3-6.1-55-34.1-59-37.5c-3.9-3.4-14.3-3.6-21-6.9c-6.7-3.3-52.5-44-60-48.5
		c-7.5-4.5-16.2-10.7-24.5-18.1c-8.3-7.3-13.8-13.9-22.9-21.6s-23.3-20.5-26.1-22.1c-2.8-1.6,15.6-8.1,21.2-6.6
		c5.6,1.5,16.4-3.6,21.1,1.8c4.7,5.4,27.3,18,30.5,15.2c3.2-2.8,19.5-4.9,22.3-4c2.8,0.8,18.9,11.4,20.5,8.6
		c1.5-2.8,120.9-7.7,120.9-7.7L1099.9,2070z"/>
	<path class="st17" d="M1107.1,1998.4c0,0,4.3,33.9,5.9,42.3c1.6,8.4,7.7,30,1.5,31.5c-6.1,1.5-23.7,1.9-32.4-5.7
		c-8.6-7.6-47-36.7-54-38.8c-7-2.1-53.7-31.3-67.9-42.5l141.6-8.4L1107.1,1998.4z"/>
	<path class="st18" d="M1107.1,1998.4c0,0-56.1,6.2-62.5,2c-6.4-4.3-23.4-11.9-26.7-12.8c-3.3-0.9-51.7,0.5-57.5-2.4
		c-5.8-2.8,45-20.7,58.8-30.9c13.8-10.2,18.7-24.3,18.8-26.7c0-2.4,3.1-17.7,11.3-16.5c8.2,1.2,20.5,6.2,20.9,2.7
		c0.4-3.4,21.7-16.7,21.7-16.7l50.7,46.1c0,0-19.5,28.7-20.6,31.8C1120.6,1978.2,1106.1,1988.9,1107.1,1998.4L1107.1,1998.4z"/>
	<path class="st16" d="M1116.4,2150.7c0,0,192.5,64.5,212.2,41.5c19.6-23-27.8-67.2-27.8-67.2s-59.5-8.3-85.4-36.2
		c-25.9-27.9-120.1-16.7-120.1-16.7L1116.4,2150.7z"/>
	<path class="st17" d="M1100.2,1997.3l82.3,6.4l31.4-26.8c0,0,34.1,35.3,59.6,45.1c25.5,9.8,30.6,25.4,30.6,25.4l23.7-5.8
		c-6,30.2-13,64.5-19,94.7c-12.4-0.8-35.9-7.3-63.7-23.1c-17-9.7-28.9-22.1-38.5-31c0,0-72.7-9.8-92-9.9L1100.2,1997.3z"/>
	<path class="st18" d="M1091.7,1897.2l55.8-9.7l44.1,43.1c22.6,4.3,45.1,8.5,67.7,12.8c-25,21-50,42-75,62.9
		c-27.2-2.5-57-5.1-84.2-7.6c11.4-15.8,22.8-31.5,34.1-47.3L1091.7,1897.2z"/>
	<path class="st19" d="M1035.4,1766.4c0,0,111.2,12.2,129.1-18.2c0,0,90,51.1,114.6,83.3c0,0-142.4,78.5-187.4,65.7L1035.4,1766.4z"
		/>
	<path class="st15" d="M1363.2,1896c0.9,1,1.8,2.1,2.8,3.2v24l-2.8-1.8l-3.6-2.3l-18.3,6l-17.6-0.2l-9-0.1
		c-11-10.2-55.3,18.6-55.3,18.6l-8.1-1.5l-0.7-0.1l-59-11.1l-37.3-33.1l0,0l-7.9-7l-1.5-1.3l0.9-0.5l1.7-1.1
		c10.3,1.1,120.9-55.7,128.6-59.6c0.3-0.1,0.4-0.2,0.4-0.2s33.1,41.8,46.9,35.5c0.1,0,0.2-0.1,0.3-0.1
		C1330,1860.8,1346.6,1877,1363.2,1896z"/>
	<path class="st20" d="M1214.8,1978.2c0,0,0.4,0.4,1,1.1c-0.1,0.1-0.1,0.2-0.2,0.2L1214.8,1978.2z"/>
	<path class="st20" d="M1363.2,1913.5c0.9,0.8,1.8,1.5,2.8,2.3v72.6l-4.3,4.2l-27.4,26.9c-3.4,7.7-6.8,15.3-10.3,23
		c-0.1,0.3-0.2,0.5-0.4,0.8c-1.7,3.8-3.4,7.6-5.1,11.5c-0.4-0.2-0.9-0.4-1.3-0.7c-4.4-2.2-8.8-4.5-13.1-6.7
		c-0.8-0.1-9.6-1.3-16.3-10.2c-3.4-4.6-4.6-9-5.1-11c-12.5,1.7-37.2-18.8-53.1-33.6c-6.3-5.8-11.2-10.8-13.5-13.1
		c-0.1-0.1-0.2-0.2-0.3-0.3c0.1-0.1,0.1-0.2,0.2-0.3c2.7-4.1,5.8-8.4,9.4-12.9c6.2-7.7,13.9-15.6,23.2-22.9c0.6-0.5,1.3-1,1.9-1.5
		c3.2-2.5,6.7-4.9,10.3-7.2c12.7-8,25.3-13.2,36.6-16.6c0,0,0.5,0.1,1.3,0.3c2.4,0.6,5.1,1.2,8.2,1.7c0,0,0.1,0,0.1,0
		c4.9,0.8,10.6,1.2,16.6,0.8c4.3-0.3,8.7-1,13.2-2.4c7.3-2.2,13-5.5,17.3-8.8c0,0,0,0,0,0c0.8-0.6,1.5-1.2,2.2-1.7
		C1358.6,1909.7,1360.9,1911.6,1363.2,1913.5z"/>
	<path class="st21" d="M366.1,2036.8c-65.9-65.4-114.4-71.5-147.8-62.8c-14.3,3.7-22.9,9.3-40,11.6c-47.9,6.4-91.8-21.4-115.9-50
		c22-13.8,51.4-30.1,73.3-43.9c0,0,82.6,71.7,111.1,60.9l94.3-12.6L366.1,2036.8z"/>
	<path class="st21" d="M395,2063.1L395,2063.1l-29.8-30l-6.8-6.9l0,0l-25.6-25.8l-12.1-7.7l-40.8-26.1l-8.1-5.2l-15.5-10l-1.8-1.2
		l-19,2.9h0l-8.5,1.7l-30.5,5.3h0l-13.7,2.1l-0.4,0l-3.1,0.5l-7.6,1.2l-0.6,0.1l-6.5,1l-1.1,0.2l-5.3,0.8h-0.5l-3.4,0.6
		c-6.9,2.7-16,2.1-26.1-0.6c-21.6-5.7-47.6-20.7-64.2-31.3c-10.3-6.5-17-11.4-17-11.4l-45.6,28.5l-3.1,1.9l-7.5,4.7v3.6
		c1,1.3,2.1,2.6,3.1,3.9c0,0,0,0.1,0.1,0.1c0.3,0.3,0.5,0.7,0.8,1c1,1.2,2,2.4,2.9,3.5c0.2,0.2,0.4,0.4,0.5,0.6
		c1,1.2,2.1,2.4,3.1,3.5c61.5,69.2,95,23.5,115.5,10.6c9.8-6.1,84.8,8.1,133.9,52.4c84.9,76.8,172.7,53.9,172.7,53.9L395,2063.1z"/>
	<path class="st15" d="M135.7,1891.7c13.6,15.2,32.6,33.2,56.3,47.3c78.9,46.8,141.1,6.5,149.1,1.1l-37.3-70.4l-69.2-8.1l-26.4,33.5
		L135.7,1891.7z"/>
	<path class="st10" d="M1366,2166.7v61.9c-19.6-17-37.4-36.3-37.4-36.3l0,0l0,0c0,0,0,0,0,0l-4.8-11.2l-0.3-0.6l-17.9-42.9l-0.3-0.8
		v-0.8c0,0,0,0,0,0v0l-0.3-0.7c0,0,0,0,0,0l-4.2-10.1c0,0,0,0,0,0c0.9,0.3,1.8,0.6,2.7,0.9l0-0.1c0.1,0,0.3,0,0.4,0h0
		c2.2,1,4.3,1.6,6.4,2.5c4.7,1.8,9.2,3.9,13.4,6.1C1343,2144.3,1356.7,2156.7,1366,2166.7z"/>
	<path class="st13" d="M1358.9,1992.6l7.1-6.5v187.2c-6.2-7.5-13.9-16.3-24.4-23.5c-6.5-4.5-12.7-7.4-17.9-9.4
		c-4.3-1.6-8.1-2.5-11.3-3c-2.9-0.5-5.2-0.6-6.8-0.7c0-0.3-0.2-0.6-0.2-0.8c-0.4-2.5-0.2-4.9-1.2-7.4v0c0-0.8-0.2-1.6-0.3-2.5
		c-0.4-2.2-0.7-4.4-1-6.7c0,0,0,0,0,0c-1.1-7.3-2.3-14.5-3.4-21.8c2.9-6.4,5.6-13,8.4-19.7c0,0,0,0,0,0c1.7-4.3,3.5-8.5,5.1-12.8
		c0,0,0.2,0,0.2,0c1.1-2.8,2.4-5.5,3.4-8.3v0c0-0.9,0.5-1.7,0.9-2.6c1.4-3.7,2.8-7.3,4.3-11c0.7-1.7,1.3-3.4,2-5.1
		c2.9-7.1,5.8-14.2,8.9-21L1358.9,1992.6z"/>
	<path class="st15" d="M1334,1894.2c-4,3.8-10.9,9.1-21.6,11.4c-12,2.6-23.2,0.4-29.9-1.5c0,0-29.2,55.6-136.7-15.6l42.4,44.2
		l56.5,12.5l52.8-27.3c0,0,45.5,12.4,56.7-8.3C1347.4,1904.5,1340.7,1899.3,1334,1894.2L1334,1894.2z"/>
	<path class="st16" d="M1328.5,2192.3c0,0-51-71.2-10-137.6c0,0-56.4,40.4-2.4,142.2c1.9,0.1,4.7,0,7.5-1.2
		C1325.9,2194.7,1327.5,2193.4,1328.5,2192.3L1328.5,2192.3z"/>
	<g class="st22">
		<path class="st23" d="M911.6,2213.6c0,0-18.1-9.1-21-12c0,0,42.2-0.8,53.8-10.1l-17.5-2.5l40.8-25.5l4.6,15.2L911.6,2213.6z"/>
		<path class="st24" d="M838.4,2116.3c0.9,3.7,2.5,7.1,3.3,8.6c0.2,0.5,0.5,1,0.8,1.4c14.4,23.9,33.6,22.7,37.6,22.1
			c0.6-0.1,1.2-0.1,1.8-0.1c17.2,1.4,46.2,19.4,60.2,28.7l10.9,8.1l13.3-12.7l-14.5-13.9l0,0c-1-1.1-2-2.1-3.2-2.9
			c-11.2-8.2-24.1-17.9-26.7-19.9c-0.3-0.3-0.7-0.5-1-0.7l-55.5-36.6c-3.9-2.6-8-3.1-10.8-1.3l-13.2,8.3
			C838.4,2107.2,837.1,2111.4,838.4,2116.3L838.4,2116.3z"/>
		<path class="st25" d="M920.4,2163.8c0,0-8.6-21.6,6.6-24.1l2.3,1.8c0,0-2.8-10.3-8.6-9.8c-5.8,0.5-13,10.8-11.3,26.2
			C909.4,2157.9,914.4,2170.6,920.4,2163.8L920.4,2163.8z"/>
		<path class="st26" d="M1020.6,2300.3c0,0-42.7-82.6-107.1-92.7c0,0,50.4-30.8,53.1-42.7c0,0,49.5,8.4,93,81.1
			C1059.6,2246,1023.3,2290,1020.6,2300.3L1020.6,2300.3z"/>
		<path class="st24" d="M1077.8,2173.3c-0.8-7.4-1.6-14.8-2.5-22.3c-0.1-1.5,0.9-2.3,2.3-1.9c3.4,1.1,9.2,2.4,11-1.3
			c2.4-5-16.2-23.8-33.7-28.3c-1.1-0.3-2,0.4-2.1,1.6l-2.4,29.3c-0.5,3.2,0.2,6.1,1.6,7.3c0.3,0.2,0.6,0.4,1.1,0.5
			c6.5,4.6,13,9.2,19.6,13.8c0.8,0.3,1.6,0.5,2.5,0.8C1076.2,2173,1077.1,2173.2,1077.8,2173.3L1077.8,2173.3z"/>
		<path class="st27" d="M952.8,2222.6c0,0,31.7-29,38.3-47.4"/>
		<path class="st28" d="M1006.9,2171.1c0,0-29.1-101.3-83.6-19.7c-1.2,1.8-2.4,3.7-3.6,5.7c-56.8,91.8,0,0,0,0s-9.4-30.1,36.1-43.5
			c45.4-13.4,0,0,0,0s41.2,4.3,52.8,52.3c11.7,48,0,0,0,0L1006.9,2171.1L1006.9,2171.1z"/>
		<path class="st29" d="M1076.3,2169.6c2.4,4.6,18.4,36.3,10.3,47.3c-2.3,3.1-8.7,7.6-10,6.1c-0.6-0.6,0-2.2,0-2.2
			c3.8,5.3,7.6,10.7,11.5,16c0.9-0.5,13.9-8.9,10.1-30.3C1094.4,2185.2,1077.5,2170.6,1076.3,2169.6L1076.3,2169.6z"/>
		<path class="st30" d="M1083.6,2236.9c10.8-1.9,15.4-13,15.1-23.6c-0.4-12.5-7.5-24.2-9.5-27.6c0,0-3.2-5.2-7.4-10.2
			c-10.5-12.2-33.6-24.3-61.4-31.2c-1.8-1.8-3.6-3.7-5.4-5.5c0.1-2,0.5-10.4-5.2-19.4c-3.7-5.8-8.1-9-10-10.3
			c-16.9-12-36,0.9-37.1,1.7c0,0-5.4,19,8.1,45.9c13.5,26.9,0,0,0,0c18.5,12.5,37,25.1,55.5,37.6c6.2,6.3,12.4,12.7,18.6,19.1
			C1055.7,2229.6,1071.7,2239.1,1083.6,2236.9L1083.6,2236.9z"/>
		<path class="st31" d="M966.6,2164.9c0,0,1.4-6.3,4.3-8.1c2.9-1.8,66,27.1,96.6,85.1l-7.8,4.1
			C1059.6,2246,1021.2,2179.5,966.6,2164.9L966.6,2164.9z"/>
		<path class="st24" d="M1029.7,2245.4c0,0-2.5-17.7,2.1-20.5c4.5-2.8,46-9.6,46-9.6s32.5,25.8,66.5,70.5c0.5,1.7,4.1,13.1-0.9,20.8
			c-4.3,6.6-13.1,7.9-22.6,3.2c-3.1-2.2-12.2-9.4-18.2-21.6c-2.7-5.4-3.9-10.2-4.4-13.4c0-2.3-0.1-4.5-0.1-6.8l-15.2-20.4l-5.6-5.2
			L1029.7,2245.4z"/>
		<path class="st25" d="M1080.8,2245.6c0,0-12.1-21.4,2.8-25.5l4.7,4.2c0.1-0.5,0.6-3.9-1.8-7.5c-0.3-0.5-1.5-2.2-3.3-3.4
			c-0.9-0.5-2.2-1.2-4.5-0.9c-4.3,0.4-6.6,3.3-6.9,3.7c-4.7,6.1-3,18.2,1.6,26.3C1077.3,2249.5,1080.8,2247.9,1080.8,2245.6
			L1080.8,2245.6z"/>
		<path class="st24" d="M1010.3,2316.4c0,0,4,20.9-24.7,12.9c0,0-7.4,18.2-24.1,8c0,0-8.9,12-20.9,5.4c0,0-23-0.4-31-11.9
			c-8-11.5-9.5-18.5-17.2-25.9c0,0,2.3-1.9,2.1-4.7c-0.3-2.8,3.1-10.8,0.1-18.3c-3-7.5-14.1-28.9-0.4-35.8c0,0-7.4-20.8,5.9-21.4
			C900.1,2224.7,948.4,2198.3,1010.3,2316.4L1010.3,2316.4z"/>
		<path class="st34" d="M900.1,2224.7c2.5-2.1,15.7-0.4,15.7-0.4c65.7,27.3,93,89.8,94.5,92.1c1.2,1.8,7.1-1.7,9.3-3
			c0,0,0-0.1,0.1-0.1c0-0.5,0-0.9,0.1-1.4c0-0.1,0.1-0.2,0.1-0.3c-54.6-104.2-113.6-101.5-117.1-101
			C899.2,2210.9,900.1,2224.7,900.1,2224.7L900.1,2224.7z"/>
		<path class="st23" d="M1020.6,2300.3c-0.3,4.3-0.5,8.6-0.8,12.9c-4.7-10.3-23.6-49.5-61.5-77.7c-24.4-18.2-45.4-23.3-55.6-25
			c3.6-0.9,7.2-1.9,10.8-2.8C913.5,2207.6,973.9,2211.5,1020.6,2300.3L1020.6,2300.3z"/>
		<path class="st35" d="M928.6,2230.3c0,0-42.1-8.3-19.7,22.4c0,0-15.5,6.8-10.8,25.9c0,0-0.4,3.8-3.2-2.9c0,0-10.7-16.7,0.8-31.9
			c0,0,4.9-7.9-3.3-5.2c0,0-2.7-13,7.7-13.9C910.5,2223.8,913,2221,928.6,2230.3L928.6,2230.3z"/>
		<path class="st28" d="M1029.3,2229.2c-2.2,6.1-0.4,13.2,0.4,16.2c1.9-0.7,5.1-2.1,8.7-4.2c15.8-9.3,17.4-20,31.4-24.4
			c0,0,0-0.1,0-0.1c-12,2.3-21,4-25.5,4.7c-1.3,0.2-4.4,0.7-8.3,1.9c-1.9,0.6-3.4,1.1-4.3,1.5
			C1030.9,2225.9,1030,2227.3,1029.3,2229.2L1029.3,2229.2z"/>
		<path class="st28" d="M1029.7,2245.4c0,0-23.3-90.3-79.9-62.7c-56.5,27.6,0,0,0,0s16-12.6,16.7-17.7c0,0,35.5,5.8,76.1,56.8
			c40.5,51,0.6,0.1,0.6,0.1L1029.7,2245.4L1029.7,2245.4z"/>
		<path class="st28" d="M946.2,2180c0,0,10.7-9.7-9.4-32.8c-20.1-23.1,0,0,0,0c2.7,1.8,5.6,3.8,8.5,6c1.6,1.1,3.1,2.3,4.6,3.4
			c4.6,4.4,9.3,8.9,13.9,13.3c-1.4,1.6-2.8,3.2-4.2,4.8c-1.7,1.5-3.5,3.1-5.2,4.6c-1.5,1.1-3,2.2-4.5,3.4L946.2,2180z"/>
		<path class="st38" d="M993.6,2165.6c2.4,4,6.1,6.7,9.2,7c3.6,0.3,5-2.7,5.2-3.3c0.9-2,0.8-4.7-0.4-8.8
			c-5.1-17.3-17.1-29.8-17.1-29.8c-4.6-4.1-20.2-17.2-36.4-17.3c-9.5-0.1-15.3,4.3-20.1,7.9c-2.7,2-9.4,7.6-13.3,18.6
			c-2,5.6-4.4,12.2-0.9,17.1c2.5,3.5,7.6,5.7,10.3,4.6c1.9-0.8,2.4-3.1,2.5-3.9c2.1-9.9,10.3-19,13.1-21.5c1.1-1,9.7-8.5,22.9-3.7
			c2.4,0.9,10.8,4,17.2,12.7c4.9,6.6,6.6,14.1,7.1,15.9C993.2,2162.9,993.5,2164.5,993.6,2165.6L993.6,2165.6z"/>
	</g>
</g>
<g>
	<g>
		<path class="st0" d="M1356.1,646.4c0-77.5,0-155,0-232.5c0-1.9-3-1.9-3,0c0,77.5,0,155,0,232.5
			C1353.1,648.3,1356.1,648.3,1356.1,646.4L1356.1,646.4z"/>
	</g>
</g>
<g>
	<g>
		<path class="st0" d="M1360.6,437.9c0,76,0,152,0,228c0,1.9,3,1.9,3,0c0-76,0-152,0-228C1363.6,436,1360.6,436,1360.6,437.9
			L1360.6,437.9z"/>
	</g>
</g>
<g>
	<g>
		<path class="st0" d="M1362.7,635.5c-2.1-2.1-4.2-4.2-6.3-6.3c-1.4-1.4-3.5,0.8-2.1,2.1c2.1,2.1,4.2,4.2,6.3,6.3
			C1362,639,1364.1,636.8,1362.7,635.5L1362.7,635.5z"/>
	</g>
</g>
<g>
	<g>
		<path class="st0" d="M1358.2,624.2c0.7,10,0.9,20,0.6,30c1,0,2,0,3,0c-1.5-21.3-2.1-42.7-1.6-64c0-1.9-3-1.9-3,0
			c-0.5,21.4,0.1,42.7,1.6,64c0.1,1.9,2.9,2,3,0c0.3-10,0.1-20-0.6-30C1361.1,622.3,1358.1,622.2,1358.2,624.2L1358.2,624.2z"/>
	</g>
</g>
<g>
	<g>
		<path class="st0" d="M1357.3,634.5c1.1-23,2.3-46.1,3.2-69.1c0.4-10.3,0.3-20.4-1.3-30.6c-1.9-11.7-4.9-23.1-4.1-35
			c0.1-1.9-2.9-1.9-3,0c-0.7,10.6,1.5,20.8,3.4,31.1c2.1,11.5,2.5,22.8,2,34.4c-0.9,23-2.2,46.1-3.2,69.1
			C1354.2,636.4,1357.2,636.4,1357.3,634.5L1357.3,634.5z"/>
	</g>
</g>
<g>
	<g>
		<path class="st0" d="M1354.5,527.5c0,37.1,0.1,74.2,0.1,111.3c0,1.9,3,1.9,3,0c0-37.1-0.1-74.2-0.1-111.3
			C1357.5,525.6,1354.5,525.6,1354.5,527.5L1354.5,527.5z"/>
	</g>
</g>
<g>
	<g>
		<path class="st0" d="M1363.8,636.5c-0.3-31.4-0.4-62.9-0.4-94.3c0-1.9-3-1.9-3,0c-0.1,31.4,0.1,62.9,0.4,94.3
			C1360.8,638.5,1363.8,638.5,1363.8,636.5L1363.8,636.5z"/>
	</g>
</g>
<g>
	<g>
		<path class="st0" d="M1357.5,530.5c0,40.7,0,81.3,0,122c1,0,2,0,3,0c-0.2-22.2-0.3-44.4,0.6-66.6c-1,0.1-2,0.3-2.9,0.4
			c2,11.7,3.4,23.4,4.1,35.3c0.3,5.5,0.5,11,0.5,16.5c0,3.6,1.7,15.5-2.1,17.2c0.7,0.2,1.4,0.4,2.1,0.5c-1.7-3.2-2.7-6.5-3.3-10.1
			c-0.3-1.7-3-1.3-2.9,0.4c0.1,2.1,0.1,4.2,0.2,6.3c0.1,1.7,2.5,2,2.9,0.4c0.2-0.8,0.5-1.5,0.7-2.3c0.6-1.9-2.3-2.6-2.9-0.8
			c-0.2,0.8-0.5,1.5-0.7,2.3c1,0.1,2,0.3,2.9,0.4c-0.1-2.1-0.1-4.2-0.2-6.3c-1,0.1-2,0.3-2.9,0.4c0.6,3.8,1.8,7.3,3.6,10.8
			c0.4,0.8,1.3,0.9,2.1,0.5c3.8-1.7,3.4-6.5,3.5-10.1c0.2-7.1,0.1-14.2-0.2-21.4c-0.6-13.7-2.2-27.4-4.5-40.9
			c-0.3-1.7-2.9-1.2-2.9,0.4c-0.9,22.2-0.8,44.4-0.6,66.6c0,1.9,3,1.9,3,0c0-40.7,0-81.3,0-122
			C1360.5,528.6,1357.5,528.6,1357.5,530.5L1357.5,530.5z"/>
	</g>
</g>
<g>
	<g>
		<path class="st0" d="M1358.5,427.9c-2.9,28.6-3.8,57.3-2.9,86c0.1,1.9,3.1,1.9,3,0c-1-28.7,0-57.4,2.9-86
			C1361.7,426,1358.7,426,1358.5,427.9L1358.5,427.9z"/>
	</g>
</g>
<path class="st40" d="M1366.4,443.8v-3.3h-21.9v199h22V444.9C1366.4,444.6,1366.4,444.2,1366.4,443.8z"/>
</svg>
